<?xml version="1.0" encoding="utf-8"?>
<!-- Generator: Adobe Illustrator 24.1.0, SVG Export Plug-In . SVG Version: 6.00 Build 0)  -->
<svg version="1.1" id="Layer_1" xmlns="http://www.w3.org/2000/svg" xmlns:xlink="http://www.w3.org/1999/xlink" x="0px" y="0px"
	 viewBox="0 0 477.7 148.1" style="enable-background:new 0 0 477.7 148.1;" xml:space="preserve">
<style type="text/css">
	.st0{clip-path:url(#SVGID_2_);}
	.st1{fill:#202945;}
	.st2{clip-path:url(#SVGID_4_);}
	.st3{clip-path:url(#SVGID_6_);}
	.st4{enable-background:new    ;}
	.st5{clip-path:url(#SVGID_8_);}
</style>
<g>
	<defs>
		<rect id="SVGID_1_" x="-7.2" width="486.9" height="148.1"/>
	</defs>
	<clipPath id="SVGID_2_">
		<use xlink:href="#SVGID_1_"  style="overflow:visible;"/>
	</clipPath>
	<g class="st0">
		<path class="st1" d="M25.8,139.2c0.2,0,0.4,0,0.5,0.1c0.2,0.1,0.4,0.2,0.5,0.4l3,3.2c-1.3,1.7-3,3.1-5,3.9
			c-2.2,0.9-4.7,1.4-7.1,1.3c-2.3,0-4.6-0.4-6.7-1.3c-1.9-0.8-3.6-2-5-3.5c-1.4-1.5-2.5-3.3-3.2-5.3c-0.8-2.2-1.1-4.4-1.1-6.7
			c0-2.3,0.4-4.6,1.2-6.8c1.6-4.1,4.9-7.3,9-8.8c2.2-0.9,4.6-1.3,7-1.2c2.2,0,4.5,0.4,6.6,1.2c0.9,0.4,1.8,0.8,2.6,1.4
			c0.8,0.5,1.5,1.1,2.1,1.8l-2.6,3.4c-0.2,0.2-0.4,0.4-0.6,0.6c-0.3,0.2-0.6,0.3-1,0.3c-0.3,0-0.5-0.1-0.8-0.2
			c-0.2-0.1-0.5-0.3-0.8-0.4l-0.9-0.6c-0.4-0.2-0.8-0.4-1.1-0.6c-0.5-0.2-1.1-0.3-1.6-0.4c-0.7-0.1-1.4-0.2-2.1-0.2
			c-1.3,0-2.6,0.2-3.8,0.7c-1.1,0.5-2.2,1.2-3,2.1c-0.8,1-1.5,2.1-1.9,3.3c-0.5,1.4-0.7,2.9-0.7,4.4c0,1.5,0.2,3,0.7,4.5
			c0.4,1.2,1,2.3,1.9,3.3c0.8,0.9,1.7,1.5,2.8,2c1.1,0.5,2.2,0.7,3.4,0.7c0.6,0,1.3,0,1.9-0.1c0.5-0.1,1.1-0.2,1.6-0.4
			c0.5-0.2,1-0.4,1.4-0.6c0.5-0.3,0.9-0.6,1.3-1c0.2-0.2,0.4-0.3,0.6-0.4C25.3,139.3,25.5,139.2,25.8,139.2L25.8,139.2z"/>
	</g>
</g>
<path class="st1" d="M43.1,130.3h3.1c0.9,0,1.8-0.1,2.7-0.4c0.7-0.2,1.3-0.6,1.8-1.1c0.5-0.5,0.8-1,1-1.6c0.2-0.6,0.3-1.3,0.3-2
	c0.1-1.3-0.5-2.5-1.4-3.4c-1.3-0.9-2.8-1.3-4.4-1.2h-3.1V130.3L43.1,130.3z M43.1,135.6v12.2h-7.6v-32.9h10.7c2.1,0,4.1,0.2,6.1,0.7
	c1.5,0.4,2.9,1.1,4.1,2c1,0.8,1.8,1.9,2.3,3.1c0.5,1.2,0.7,2.6,0.7,3.9c0,1-0.1,2-0.4,3c-0.3,0.9-0.7,1.8-1.3,2.6
	c-0.6,0.8-1.3,1.5-2.1,2.1c-0.9,0.7-1.8,1.3-2.8,1.7c0.5,0.3,1,0.6,1.4,0.9c0.5,0.4,0.8,0.9,1.2,1.4l7,11.5h-6.9
	c-1.1,0.1-2.2-0.5-2.8-1.4l-5.5-9.6c-0.2-0.4-0.5-0.7-0.8-0.9c-0.4-0.2-0.9-0.3-1.4-0.3L43.1,135.6z"/>
<path class="st1" d="M78,135.2h9l-3-9c-0.2-0.6-0.4-1.2-0.7-2s-0.5-1.6-0.8-2.5c-0.2,0.9-0.5,1.8-0.8,2.6s-0.5,1.5-0.7,2L78,135.2
	L78,135.2z M99.2,147.8h-6c-0.6,0-1.2-0.1-1.6-0.5c-0.4-0.3-0.7-0.7-0.9-1.2l-2-5.7H76.2l-1.9,5.7c-0.4,1-1.4,1.7-2.5,1.6h-6
	l12.8-32.9h7.8L99.2,147.8L99.2,147.8z"/>
<polygon class="st1" points="124.2,114.8 124.2,120.7 110.6,120.7 110.6,129 121.9,129 121.9,134.9 110.6,134.9 110.6,147.8 
	103,147.8 103,114.8 124.2,114.8 "/>
<polygon class="st1" points="154.1,114.8 154.1,120.9 144.9,120.9 144.9,147.8 137.2,147.8 137.2,120.9 127.9,120.9 127.9,114.8 
	154.1,114.8 "/>
<path class="st1" d="M175.3,134.5c0.3,0.6,0.5,1.2,0.8,1.9c0.2-0.7,0.5-1.3,0.8-1.9s0.6-1.2,0.9-1.8l8.5-16.6
	c0.1-0.2,0.3-0.5,0.5-0.7c0.2-0.2,0.3-0.3,0.5-0.3c0.2-0.1,0.4-0.1,0.7-0.1h6.7v32.9h-6.7v-19c0-0.9,0-1.9,0.1-3l-8.7,16.9
	c-0.2,0.5-0.6,0.9-1.1,1.2c-0.5,0.3-1,0.4-1.6,0.4h-1c-0.5,0-1.1-0.1-1.6-0.3c-0.5-0.3-0.9-0.7-1.1-1.2l-8.8-17
	c0.1,0.5,0.1,1.1,0.1,1.6s0,1,0,1.4v18.9h-6.7v-32.9h6.7c0.2,0,0.5,0,0.7,0.1c0.2,0.1,0.4,0.2,0.5,0.3c0.2,0.2,0.3,0.4,0.5,0.7
	l8.5,16.7C174.7,133.3,175,133.9,175.3,134.5L175.3,134.5z"/>
<path class="st1" d="M209.8,135.2h9l-3-9c-0.2-0.6-0.4-1.2-0.7-2s-0.5-1.6-0.8-2.5c-0.2,0.9-0.5,1.8-0.8,2.6c-0.2,0.8-0.5,1.5-0.7,2
	L209.8,135.2L209.8,135.2z M230.9,147.8H225c-0.6,0-1.2-0.1-1.6-0.5c-0.4-0.3-0.7-0.7-0.9-1.2l-1.9-5.7H208l-2,5.7
	c-0.4,1-1.4,1.7-2.5,1.6h-6l12.8-32.9h7.8L230.9,147.8L230.9,147.8z"/>
<path class="st1" d="M242.4,130.3h3.1c0.9,0,1.8-0.1,2.6-0.4c0.7-0.2,1.3-0.6,1.8-1.1c0.5-0.5,0.8-1,1-1.6c0.2-0.6,0.3-1.3,0.3-2
	c0.1-1.3-0.4-2.5-1.4-3.4c-1.3-0.9-2.8-1.3-4.4-1.2h-3.1L242.4,130.3L242.4,130.3z M242.4,135.6v12.2h-7.6v-32.9h10.7
	c2.1,0,4.1,0.2,6.1,0.7c1.5,0.4,2.9,1.1,4.1,2c1,0.8,1.8,1.9,2.3,3.1c0.5,1.2,0.7,2.6,0.7,3.9c0,1-0.1,2-0.4,3
	c-0.3,0.9-0.7,1.8-1.3,2.6c-0.6,0.8-1.3,1.5-2.1,2.1c-0.9,0.7-1.8,1.2-2.8,1.6c0.5,0.3,1,0.6,1.4,0.9c0.5,0.4,0.8,0.9,1.2,1.4
	l7,11.5h-6.9c-1.1,0.1-2.2-0.4-2.7-1.4l-5.5-9.6c-0.2-0.4-0.5-0.7-0.9-0.9c-0.4-0.2-0.9-0.3-1.4-0.3H242.4z"/>
<path class="st1" d="M273.6,128.2h1.2c0.9,0.1,1.9-0.3,2.4-1.1l7.4-10.8c0.3-0.5,0.8-0.9,1.4-1.2c0.6-0.2,1.3-0.3,1.9-0.3h6.6
	l-9.8,13.3c-0.3,0.4-0.7,0.8-1.1,1.2c-0.4,0.3-0.7,0.6-1.1,0.8c0.6,0.2,1.1,0.5,1.6,0.9c0.5,0.4,1,0.9,1.3,1.5l10,15.3h-6.8
	c-0.4,0-0.8,0-1.1-0.1c-0.3-0.1-0.5-0.1-0.8-0.3c-0.2-0.1-0.4-0.3-0.6-0.4c-0.2-0.2-0.3-0.4-0.5-0.6l-7.5-11.5
	c-0.2-0.4-0.6-0.7-1-0.9c-0.5-0.2-1.1-0.3-1.7-0.3h-1.9v14H266v-32.9h7.6L273.6,128.2L273.6,128.2z"/>
<g>
	<defs>
		<rect id="SVGID_3_" x="-7.2" width="486.9" height="148.1"/>
	</defs>
	<clipPath id="SVGID_4_">
		<use xlink:href="#SVGID_3_"  style="overflow:visible;"/>
	</clipPath>
	<g class="st2">
		<polygon class="st1" points="341.7,147.8 334,147.8 334,133.8 320.6,133.8 320.6,147.8 312.9,147.8 312.9,114.8 320.6,114.8 
			320.6,128.6 334,128.6 334,114.8 341.7,114.8 341.7,147.8 		"/>
		<path class="st1" d="M372.9,131.3c0-1.5-0.2-3-0.6-4.4c-0.4-1.2-1-2.3-1.8-3.3c-0.8-0.9-1.8-1.6-2.9-2.1c-1.2-0.5-2.6-0.7-3.9-0.7
			c-1.4,0-2.7,0.2-4,0.7c-1.1,0.5-2.1,1.2-2.9,2.1c-0.8,1-1.4,2.1-1.8,3.3c-0.8,2.9-0.8,5.9,0,8.8c0.4,1.2,1,2.3,1.8,3.3
			c0.8,0.9,1.8,1.6,2.9,2.1c1.3,0.5,2.6,0.7,4,0.7c1.3,0,2.7-0.2,3.9-0.7c1.1-0.5,2.1-1.2,2.9-2.1c0.8-1,1.4-2.1,1.8-3.3
			C372.7,134.3,373,132.8,372.9,131.3z M380.8,131.3c0,2.3-0.4,4.5-1.2,6.6c-0.8,2-2,3.8-3.5,5.3c-1.5,1.5-3.4,2.8-5.4,3.6
			c-4.5,1.7-9.5,1.7-14,0c-4.1-1.6-7.3-4.8-8.9-8.9c-1.6-4.3-1.6-9,0-13.3c0.8-2,2-3.8,3.5-5.3c1.5-1.5,3.4-2.7,5.4-3.6
			c4.5-1.7,9.5-1.7,14,0c4.1,1.6,7.3,4.8,8.9,8.9C380.4,126.7,380.8,129,380.8,131.3L380.8,131.3z"/>
	</g>
</g>
<path class="st1" d="M403.3,134.5c0.3,0.6,0.5,1.2,0.8,1.9c0.3-0.7,0.5-1.3,0.8-1.9s0.6-1.2,0.9-1.8l8.5-16.6
	c0.1-0.2,0.3-0.5,0.5-0.7c0.2-0.2,0.3-0.3,0.5-0.3c0.2-0.1,0.4-0.1,0.7-0.1h6.7v32.9h-6.7v-19c0-0.9,0-1.9,0.1-3l-8.7,16.9
	c-0.2,0.5-0.6,0.9-1.1,1.2c-0.5,0.3-1,0.4-1.6,0.4h-1c-0.6,0-1.1-0.1-1.6-0.3c-0.5-0.3-0.9-0.7-1.1-1.2l-8.8-17
	c0.1,0.5,0.1,1.1,0.1,1.6s0,1,0,1.4v18.9h-6.7v-32.9h6.7c0.2,0,0.5,0,0.7,0.1c0.2,0.1,0.4,0.2,0.5,0.3c0.2,0.2,0.3,0.4,0.5,0.7
	l8.5,16.7C402.7,133.3,403,133.9,403.3,134.5L403.3,134.5z"/>
<g>
	<defs>
		<rect id="SVGID_5_" x="-7.2" width="486.9" height="148.1"/>
	</defs>
	<clipPath id="SVGID_6_">
		<use xlink:href="#SVGID_5_"  style="overflow:visible;"/>
	</clipPath>
	<g class="st3">
		<polygon class="st1" points="450.4,114.8 450.4,120.7 436.9,120.7 436.9,128.4 447.2,128.4 447.2,134 436.9,134 436.9,141.9 
			450.4,141.9 450.4,147.8 429.2,147.8 429.2,114.8 450.4,114.8 		"/>
		<path class="st1" d="M475.2,121.5c-0.2,0.3-0.4,0.6-0.7,0.8c-0.3,0.2-0.6,0.3-1,0.3c-0.4,0-0.8-0.1-1.1-0.3l-1.4-0.7
			c-0.6-0.3-1.1-0.5-1.7-0.7c-0.7-0.2-1.5-0.3-2.2-0.3c-1.1-0.1-2.3,0.2-3.2,0.9c-0.7,0.6-1.1,1.5-1,2.5c0,0.6,0.2,1.2,0.6,1.7
			c0.5,0.5,1,0.9,1.7,1.1c0.8,0.3,1.5,0.6,2.4,0.9c0.9,0.3,1.8,0.6,2.7,0.9c0.9,0.3,1.8,0.7,2.7,1.1c0.9,0.4,1.7,1,2.4,1.7
			c0.7,0.7,1.3,1.5,1.7,2.5c0.5,1.1,0.7,2.3,0.6,3.5c0,1.5-0.3,2.9-0.8,4.3c-0.5,1.3-1.3,2.5-2.3,3.5c-1.1,1-2.3,1.8-3.7,2.3
			c-1.6,0.6-3.3,0.9-5,0.9c-1.1,0-2.1-0.1-3.1-0.3c-1.1-0.2-2.1-0.5-3.1-0.9c-1-0.4-1.9-0.8-2.8-1.4c-0.8-0.5-1.6-1.1-2.3-1.8
			l2.3-3.6c0.2-0.3,0.4-0.5,0.7-0.6c0.3-0.2,0.7-0.3,1-0.2c0.5,0,1,0.2,1.4,0.4c0.5,0.3,1,0.6,1.6,0.9c0.6,0.4,1.3,0.7,2,1
			c0.9,0.3,1.8,0.5,2.7,0.4c1.1,0.1,2.3-0.3,3.2-0.9c0.8-0.7,1.2-1.8,1.1-2.9c0-0.7-0.2-1.3-0.6-1.9c-0.5-0.5-1-0.9-1.7-1.2
			c-0.8-0.3-1.5-0.6-2.3-0.8c-0.9-0.2-1.8-0.5-2.7-0.8c-0.9-0.3-1.8-0.7-2.7-1.1c-0.9-0.4-1.7-1-2.3-1.7c-0.7-0.8-1.3-1.6-1.7-2.6
			c-0.5-1.2-0.7-2.6-0.6-3.9c0-2.6,1.1-5,2.9-6.8c1-1,2.2-1.7,3.5-2.2c1.5-0.6,3.2-0.9,4.8-0.8c1,0,2,0.1,3,0.2
			c0.9,0.2,1.8,0.4,2.7,0.7c0.8,0.3,1.6,0.7,2.4,1.1c0.7,0.4,1.4,0.9,2,1.4L475.2,121.5L475.2,121.5z"/>
	</g>
</g>
<polygon class="st1" points="477.7,90.7 1.7,90.7 1.7,88.2 477.7,88.2 477.7,90.7 "/>
<g class="st4">
	<path class="st1" d="M14.5,11.1c6.3,0,11,1.4,14.2,4.1C32,18,33.6,21.9,33.6,27c0,2.3-0.4,4.5-1.3,6.5c-0.9,2-2.1,3.7-3.8,5.1
		c-1.6,1.4-3.6,2.5-6,3.3c-2.3,0.8-5,1.2-7.9,1.2h-10v21.6H0.7V11.1H14.5z M14.5,40c2.3,0,4.5-0.3,6.3-1c1.9-0.7,3.5-1.6,4.8-2.7
		s2.3-2.5,3-4.1c0.7-1.6,1-3.3,1-5.2c0-4.1-1.3-7.3-3.8-9.5s-6.3-3.3-11.3-3.3h-10V40H14.5z"/>
	<path class="st1" d="M76.1,64.7h-3.3c-0.4,0-0.8-0.1-1.1-0.2c-0.3-0.1-0.6-0.4-0.8-0.8L53.7,41.9c-0.2-0.3-0.4-0.5-0.6-0.7
		c-0.2-0.2-0.5-0.4-0.7-0.5c-0.3-0.1-0.6-0.2-0.9-0.2c-0.4,0-0.8-0.1-1.3-0.1h-7v24.2h-3.9V11.1h13.7c6.2,0,10.8,1.2,13.8,3.6
		c3.1,2.4,4.6,5.9,4.6,10.5c0,2-0.4,3.9-1.1,5.6c-0.7,1.7-1.7,3.2-3,4.4c-1.3,1.3-2.9,2.3-4.8,3.1c-1.9,0.8-4,1.4-6.3,1.6
		c0.6,0.4,1.1,0.9,1.6,1.5L76.1,64.7z M52.3,37.5c2.4,0,4.5-0.3,6.4-0.9c1.9-0.6,3.5-1.4,4.8-2.4c1.3-1.1,2.3-2.3,3-3.8
		c0.7-1.5,1-3.2,1-5c0-3.8-1.2-6.6-3.7-8.5c-2.5-1.8-6.1-2.8-10.9-2.8h-9.8v23.4H52.3z"/>
</g>
<g class="st4">
	<path class="st1" d="M87.5,64.7h-3.9V11.1h3.9V64.7z"/>
	<path class="st1" d="M149.4,11.1v53.6h-3.4V19c0-0.7,0-1.4,0.1-2.1l-21.1,37.5c-0.4,0.7-0.9,1-1.5,1H123c-0.7,0-1.2-0.3-1.5-1
		L99.8,16.8c0.1,0.8,0.1,1.5,0.1,2.2v45.7h-3.4V11.1h2.7c0.4,0,0.6,0,0.8,0.1c0.2,0.1,0.4,0.3,0.6,0.6l21.6,37.3
		c0.4,0.7,0.7,1.5,1,2.3c0.2-0.4,0.3-0.8,0.5-1.2c0.2-0.4,0.4-0.8,0.6-1.1l21-37.2c0.2-0.3,0.4-0.5,0.6-0.6c0.2-0.1,0.5-0.1,0.9-0.1
		H149.4z"/>
</g>
<g class="st4">
	<path class="st1" d="M196.1,64.7h-3.3c-0.4,0-0.8-0.1-1.1-0.2c-0.3-0.1-0.6-0.4-0.8-0.8l-17.2-21.7c-0.2-0.3-0.4-0.5-0.6-0.7
		c-0.2-0.2-0.5-0.4-0.7-0.5c-0.3-0.1-0.6-0.2-0.9-0.2c-0.4,0-0.8-0.1-1.3-0.1h-7v24.2h-3.9V11.1h13.7c6.2,0,10.8,1.2,13.8,3.6
		c3.1,2.4,4.6,5.9,4.6,10.5c0,2-0.4,3.9-1.1,5.6c-0.7,1.7-1.7,3.2-3,4.4c-1.3,1.3-2.9,2.3-4.8,3.1c-1.9,0.8-4,1.4-6.3,1.6
		c0.6,0.4,1.1,0.9,1.6,1.5L196.1,64.7z M172.3,37.5c2.4,0,4.5-0.3,6.4-0.9c1.9-0.6,3.5-1.4,4.8-2.4c1.3-1.1,2.3-2.3,3-3.8
		c0.7-1.5,1-3.2,1-5c0-3.8-1.2-6.6-3.7-8.5c-2.5-1.8-6.1-2.8-10.9-2.8h-9.8v23.4H172.3z"/>
</g>
<g class="st4">
	<path class="st1" d="M248.8,37.8c0,4.1-0.6,7.9-1.9,11.3c-1.2,3.4-3,6.2-5.2,8.6s-4.9,4.2-8.1,5.5c-3.1,1.3-6.6,2-10.4,2
		s-7.2-0.7-10.4-2c-3.1-1.3-5.8-3.1-8.1-5.5c-2.2-2.4-4-5.3-5.2-8.6c-1.2-3.4-1.9-7.1-1.9-11.3c0-4.1,0.6-7.9,1.9-11.2
		c1.2-3.4,3-6.2,5.2-8.6c2.2-2.4,4.9-4.2,8.1-5.5s6.6-2,10.4-2s7.3,0.7,10.4,2c3.1,1.3,5.8,3.1,8.1,5.5s4,5.3,5.2,8.7
		C248.2,30,248.8,33.7,248.8,37.8z M244.8,37.8c0-3.7-0.5-7.1-1.6-10.1c-1-3-2.5-5.5-4.4-7.6c-1.9-2.1-4.2-3.7-6.8-4.8
		c-2.7-1.1-5.6-1.6-8.8-1.6c-3.2,0-6.1,0.5-8.7,1.6c-2.7,1.1-4.9,2.7-6.8,4.8s-3.4,4.6-4.4,7.6c-1,3-1.6,6.3-1.6,10.1
		c0,3.8,0.5,7.1,1.6,10.1c1,3,2.5,5.5,4.4,7.6s4.2,3.6,6.8,4.7c2.7,1.1,5.6,1.6,8.7,1.6c3.2,0,6.1-0.5,8.8-1.6
		c2.7-1.1,4.9-2.7,6.8-4.7c1.9-2.1,3.4-4.6,4.4-7.6C244.3,45,244.8,41.6,244.8,37.8z"/>
	<path class="st1" d="M281.1,17.6c-0.2,0.4-0.6,0.6-1,0.6c-0.3,0-0.8-0.2-1.3-0.7c-0.5-0.5-1.2-1-2.1-1.6c-0.9-0.6-2-1.1-3.3-1.6
		c-1.3-0.5-3-0.7-4.9-0.7c-1.9,0-3.7,0.3-5.1,0.8s-2.7,1.3-3.7,2.3c-1,1-1.8,2.1-2.3,3.3c-0.5,1.3-0.8,2.6-0.8,4
		c0,1.8,0.4,3.3,1.2,4.5c0.8,1.2,1.8,2.2,3,3s2.7,1.5,4.3,2.1c1.6,0.6,3.2,1.1,4.9,1.7s3.3,1.2,4.9,1.8c1.6,0.7,3,1.5,4.3,2.5
		c1.3,1,2.3,2.3,3,3.7s1.2,3.3,1.2,5.5c0,2.2-0.4,4.4-1.2,6.3c-0.8,2-1.9,3.7-3.4,5.2c-1.5,1.5-3.3,2.6-5.4,3.5
		c-2.1,0.8-4.5,1.3-7.3,1.3c-3.5,0-6.6-0.6-9.1-1.9s-4.8-3-6.7-5.1l1.1-1.7c0.3-0.4,0.7-0.6,1.1-0.6c0.2,0,0.5,0.2,0.9,0.5
		s0.8,0.7,1.3,1.1c0.5,0.4,1.1,0.9,1.8,1.4c0.7,0.5,1.5,1,2.5,1.4c0.9,0.4,2,0.8,3.2,1.1s2.6,0.5,4.1,0.5c2.1,0,4-0.3,5.7-1
		c1.7-0.6,3.1-1.5,4.2-2.6c1.1-1.1,2-2.4,2.6-4c0.6-1.5,0.9-3.2,0.9-4.9c0-1.9-0.4-3.5-1.2-4.7c-0.8-1.2-1.8-2.2-3-3.1
		c-1.3-0.8-2.7-1.5-4.3-2.1c-1.6-0.6-3.3-1.1-4.9-1.6c-1.7-0.5-3.3-1.1-4.9-1.8c-1.6-0.7-3-1.5-4.3-2.5c-1.3-1-2.3-2.3-3-3.8
		c-0.8-1.5-1.2-3.4-1.2-5.7c0-1.8,0.3-3.5,1-5.2s1.7-3.1,3-4.4c1.3-1.3,2.9-2.3,4.9-3.1c1.9-0.8,4.1-1.2,6.6-1.2
		c2.8,0,5.3,0.4,7.5,1.3c2.2,0.9,4.2,2.2,6,4.1L281.1,17.6z"/>
	<path class="st1" d="M321.7,61.4l-0.1,3.2h-32.1V11.1h32.1v3.2h-28.2V36h23.5v3.1h-23.5v22.3H321.7z"/>
</g>
<g class="st4">
	<path class="st1" d="M391.3,11.1v53.6h-3.9V39h-33.6v25.7h-3.9V11.1h3.9v25h33.6v-25H391.3z"/>
	<path class="st1" d="M404.2,64.7h-3.9V11.1h3.9V64.7z"/>
</g>
<g class="st4">
	<path class="st1" d="M443.2,61.4v3.3h-29.3V11.1h3.9v50.3H443.2z"/>
	<path class="st1" d="M477,61.4v3.3h-29.3V11.1h3.9v50.3H477z"/>
</g>
<g>
	<defs>
		<path id="SVGID_7_" d="M333.6,330.8v753.8c0,0,45.4-1,69.5,4.8c13.9,3.3,28.2,9.4,38.2,13c4.1,1.5,3.3,3-0.3,2.1
			c-26.1-7-45.6-20.9-107.4-12.7v25.2c0,0,87.4-7.7,185.9,21.2s160.3,38.6,199,32.8s85-21.2,125.5-42.5
			c17.7-9.3,46.5-24.3,80.6-38.6V330.8H333.6z M731.2,1149.6c-13.7,3.9-36.9,9.2-60,8.6c-16.4-0.6-32.7-2.9-48.6-7
			c-0.6-0.1-1-0.7-0.9-1.3s0.7-1,1.3-0.9c15.8,2.4,31.8,3.5,47.8,3.4c22.2-0.4,45.8-3.1,59.9-4.9c0.6-0.1,1.2,0.3,1.3,0.9
			S731.7,1149.5,731.2,1149.6L731.2,1149.6z M750.7,1119.2c-14.7,6.9-31.1,9.4-47.2,7.3c-0.5-0.1-0.9-0.5-0.8-1.1
			c0.1-0.4,0.4-0.7,0.8-0.8c10.3-1.2,31.1-3.8,46.5-7.4c0.5-0.2,1.1,0.1,1.3,0.6S751.2,1119,750.7,1119.2L750.7,1119.2z
			 M831.5,1115.9c-9.8,5.3-19,11.5-25.3,15.3c-10.5,6.3-25.2,10.4-33.6,12.7c-0.5,0.2-1-0.1-1.2-0.6c-0.2-0.5,0.1-1,0.6-1.2
			c9-4.1,22.8-10.6,31.9-15.4c6.8-3.6,17.5-8.5,26.9-12.6c0.5-0.2,1,0,1.2,0.5C832.1,1115.2,831.9,1115.7,831.5,1115.9z
			 M406.8,1142.6c4.8,1.4,14.5,5.7,20,5.9s5.1,3.6,0,3.9s-9.6-2.7-20-5.5s-30.7-0.3-34.8,0s-7.7-1.9-7.2-5.6s7.2-3.4,7.2-3.4
			S402,1141.2,406.8,1142.6L406.8,1142.6z M492.6,1158.3c15.5-0.6,39.6,4.6,58.3,8.7c29.9,6.7,59.7,16,75.3,18
			c24.8,3.2,74.9,3.9,96.9,1.6c0,0,6.7,1.6,0,4.5s-74,2.2-97.2-0.7s-75.7-18-97.5-21.9s-26.8-3.3-35.7-4.2
			C485.9,1163.8,485.5,1158.6,492.6,1158.3L492.6,1158.3z M813.3,1158.3c13.5-5.2,37.7-19.6,41.5-22.2s5.5,1.6,2.6,2.9
			s-14.2,9-17.7,11s-16.8,9.3-24.8,13.2s-27,10.3-32.5,10.6s-1.9-3.5-1.9-3.5S799.7,1163.5,813.3,1158.3L813.3,1158.3z"/>
	</defs>
	<clipPath id="SVGID_8_">
		<use xlink:href="#SVGID_7_"  style="overflow:visible;"/>
	</clipPath>
	<g class="st5">
	</g>
</g>
</svg>
