<svg id="Layer_1" data-name="Layer 1" xmlns="http://www.w3.org/2000/svg" viewBox="0 0 455.75 188.84"><defs><style>.cls-1{fill:#202945;}</style></defs><g id="Logo"><path class="cls-1" d="M23.57,180.35a1.34,1.34,0,0,1,1,.43l2.89,3a11.89,11.89,0,0,1-4.76,3.75,16.57,16.57,0,0,1-6.78,1.27,16.24,16.24,0,0,1-6.43-1.22,14,14,0,0,1-4.82-3.38,14.8,14.8,0,0,1-3-5.1,18.69,18.69,0,0,1-1.06-6.4,16.88,16.88,0,0,1,1.21-6.48,14.93,14.93,0,0,1,8.58-8.41,18.17,18.17,0,0,1,6.68-1.19,17,17,0,0,1,3.34.31,16,16,0,0,1,2.92.87,13.24,13.24,0,0,1,2.51,1.31,12.61,12.61,0,0,1,2,1.7l-2.46,3.31a3.65,3.65,0,0,1-.56.55,1.51,1.51,0,0,1-.91.25,1.62,1.62,0,0,1-.74-.18,6.37,6.37,0,0,1-.73-.42l-.85-.54a7.19,7.19,0,0,0-1.11-.54,10.06,10.06,0,0,0-1.49-.42,10.58,10.58,0,0,0-2-.17,9.14,9.14,0,0,0-3.63.7,8.09,8.09,0,0,0-2.82,2,9.4,9.4,0,0,0-1.83,3.17,12.33,12.33,0,0,0-.66,4.17,13,13,0,0,0,.66,4.3,9.32,9.32,0,0,0,1.79,3.16,7.66,7.66,0,0,0,2.65,2,7.87,7.87,0,0,0,3.24.67,14.3,14.3,0,0,0,1.81-.1,7.14,7.14,0,0,0,1.53-.33,7.4,7.4,0,0,0,1.34-.62,8.51,8.51,0,0,0,1.28-.94,3,3,0,0,1,.57-.36,1.5,1.5,0,0,1,.62-.13Z"/><path class="cls-1" d="M40.1,171.81H43a7.55,7.55,0,0,0,2.54-.38,4.55,4.55,0,0,0,1.72-1.05,3.91,3.91,0,0,0,1-1.56,6.11,6.11,0,0,0,.31-1.94,4.06,4.06,0,0,0-1.35-3.24A6.31,6.31,0,0,0,43,162.47H40.1v9.34Zm0,5v11.65H32.8V157H43a21,21,0,0,1,5.83.71,11.12,11.12,0,0,1,3.93,1.95,7.38,7.38,0,0,1,2.22,3,9.85,9.85,0,0,1,.69,3.72,10.16,10.16,0,0,1-.41,2.9,8.85,8.85,0,0,1-1.22,2.51,9.73,9.73,0,0,1-2,2.07,10.86,10.86,0,0,1-2.71,1.49,6.8,6.8,0,0,1,1.37.91,5.5,5.5,0,0,1,1.11,1.31l6.7,11H52a2.8,2.8,0,0,1-2.64-1.38L44.08,178a2.22,2.22,0,0,0-.81-.87,2.76,2.76,0,0,0-1.31-.26Z"/><path class="cls-1" d="M73.47,176.45h8.6l-2.89-8.62-.66-1.93c-.25-.75-.5-1.55-.75-2.41-.23.88-.46,1.69-.71,2.44s-.48,1.4-.69,1.94l-2.9,8.58Zm20.23,12H88a2.67,2.67,0,0,1-1.57-.44,2.29,2.29,0,0,1-.85-1.14l-1.86-5.49h-12l-1.86,5.49a2.54,2.54,0,0,1-.84,1.1,2.46,2.46,0,0,1-1.54.48h-5.7L74,157h7.48L93.7,188.49Z"/><polygon class="cls-1" points="117.64 157 117.64 162.62 104.72 162.62 104.72 170.6 115.48 170.6 115.48 176.24 104.72 176.24 104.72 188.49 97.38 188.49 97.38 157 117.64 157 117.64 157"/><polygon class="cls-1" points="146.3 157 146.3 162.8 137.44 162.8 137.44 188.49 130.14 188.49 130.14 162.8 121.28 162.8 121.28 157 146.3 157 146.3 157"/><path class="cls-1" d="M166.52,175.8c.27.6.52,1.2.77,1.82.24-.63.5-1.25.77-1.85s.56-1.18.85-1.74L177,158.11a2.45,2.45,0,0,1,.44-.64,1.57,1.57,0,0,1,.51-.34,1.83,1.83,0,0,1,.64-.1H185v31.46h-6.43V170.38q0-1.32.12-2.85l-8.34,16.18a2.78,2.78,0,0,1-1,1.15,2.9,2.9,0,0,1-1.51.39h-1a2.89,2.89,0,0,1-1.5-.39,2.74,2.74,0,0,1-1-1.15l-8.39-16.2c.06.5.1,1,.13,1.5s.05,1,.05,1.37v18.11h-6.44V157H156a1.83,1.83,0,0,1,.64.1,1.57,1.57,0,0,1,.51.34,2.45,2.45,0,0,1,.44.64l8.11,16c.28.54.56,1.11.83,1.7Z"/><path class="cls-1" d="M199.51,176.45h8.6l-2.9-8.62c-.18-.55-.4-1.19-.66-1.93s-.5-1.55-.74-2.41c-.23.88-.47,1.69-.71,2.44s-.48,1.4-.7,1.94l-2.89,8.58Zm20.23,12h-5.67a2.64,2.64,0,0,1-1.56-.44,2.31,2.31,0,0,1-.86-1.14l-1.85-5.49h-12L196,186.91a2.4,2.4,0,0,1-.84,1.1,2.45,2.45,0,0,1-1.53.48h-5.71L200.07,157h7.48l12.19,31.49Z"/><path class="cls-1" d="M230.72,171.81h2.94a7.53,7.53,0,0,0,2.53-.38,4.47,4.47,0,0,0,1.72-1.05,3.91,3.91,0,0,0,1-1.56,5.85,5.85,0,0,0,.31-1.94,4.06,4.06,0,0,0-1.35-3.24,6.28,6.28,0,0,0-4.18-1.17h-2.94v9.34Zm0,5v11.65h-7.31V157h10.25a21,21,0,0,1,5.82.71,11.12,11.12,0,0,1,3.93,1.95,7.38,7.38,0,0,1,2.22,3,9.85,9.85,0,0,1,.69,3.72,10.16,10.16,0,0,1-.41,2.9,8.85,8.85,0,0,1-1.22,2.51,9.73,9.73,0,0,1-2,2.07,10.86,10.86,0,0,1-2.71,1.49,6.8,6.8,0,0,1,1.37.91,5.5,5.5,0,0,1,1.11,1.31l6.7,11h-6.61a2.8,2.8,0,0,1-2.64-1.38L234.69,178a2.22,2.22,0,0,0-.81-.87,2.73,2.73,0,0,0-1.31-.26Z"/><path class="cls-1" d="M260.58,169.76h1.17a2.66,2.66,0,0,0,2.33-1l7.09-10.29a3,3,0,0,1,1.33-1.14,4.73,4.73,0,0,1,1.83-.31h6.35l-9.34,12.73a6.16,6.16,0,0,1-1,1.15,7.48,7.48,0,0,1-1.1.76,5.51,5.51,0,0,1,1.5.83,5.59,5.59,0,0,1,1.24,1.41l9.51,14.61h-6.53a5.48,5.48,0,0,1-1.07-.09,2.61,2.61,0,0,1-.76-.25,2.25,2.25,0,0,1-.57-.43,3.33,3.33,0,0,1-.45-.57l-7.13-11a2.18,2.18,0,0,0-1-.85,4.34,4.34,0,0,0-1.61-.25h-1.77v13.4h-7.3V157h7.3v12.76Z"/><polygon class="cls-1" points="325.67 188.49 318.32 188.49 318.32 175.18 305.53 175.18 305.53 188.49 298.18 188.49 298.18 157 305.53 157 305.53 170.17 318.32 170.17 318.32 157 325.67 157 325.67 188.49 325.67 188.49"/><path class="cls-1" d="M355.58,172.74a13.76,13.76,0,0,0-.6-4.21,9.1,9.1,0,0,0-1.74-3.16,7.43,7.43,0,0,0-2.78-2,9.56,9.56,0,0,0-3.74-.69,9.71,9.71,0,0,0-3.77.69,7.47,7.47,0,0,0-2.79,2,9.1,9.1,0,0,0-1.74,3.16,15.11,15.11,0,0,0,0,8.43,9.14,9.14,0,0,0,1.74,3.17,7.56,7.56,0,0,0,2.79,2,9.9,9.9,0,0,0,3.77.68,9.74,9.74,0,0,0,3.74-.68,7.52,7.52,0,0,0,2.78-2A9.14,9.14,0,0,0,355,177a13.74,13.74,0,0,0,.6-4.22Zm7.48,0a16.84,16.84,0,0,1-1.18,6.35,15.48,15.48,0,0,1-3.31,5.11,15.21,15.21,0,0,1-5.16,3.4,18.69,18.69,0,0,1-13.39,0,15.26,15.26,0,0,1-5.17-3.4,15.07,15.07,0,0,1-3.33-5.11,17.7,17.7,0,0,1,0-12.71,15,15,0,0,1,3.33-5.1,15.38,15.38,0,0,1,5.17-3.39,17.64,17.64,0,0,1,6.7-1.23,17.37,17.37,0,0,1,6.69,1.24,15,15,0,0,1,8.47,8.5,16.86,16.86,0,0,1,1.18,6.34Z"/><path class="cls-1" d="M384.62,175.8c.26.6.52,1.2.76,1.82.25-.63.51-1.25.78-1.85s.56-1.18.84-1.74l8.09-15.92a2.45,2.45,0,0,1,.44-.64,1.57,1.57,0,0,1,.51-.34,1.77,1.77,0,0,1,.63-.1h6.41v31.46h-6.44V170.38c0-.88.05-1.83.13-2.85l-8.34,16.18a2.74,2.74,0,0,1-1.05,1.15,2.89,2.89,0,0,1-1.5.39h-1a2.9,2.9,0,0,1-1.51-.39,2.78,2.78,0,0,1-1-1.15L374,167.51c.06.5.1,1,.13,1.5s0,1,0,1.37v18.11h-6.44V157h6.41a1.83,1.83,0,0,1,.64.1,1.57,1.57,0,0,1,.51.34,2.45,2.45,0,0,1,.44.64l8.1,16c.29.54.57,1.11.84,1.7Z"/><polygon class="cls-1" points="429.67 157 429.67 162.62 416.74 162.62 416.74 169.97 426.64 169.97 426.64 175.37 416.74 175.37 416.74 182.87 429.67 182.87 429.67 188.49 409.39 188.49 409.39 157 429.67 157 429.67 157"/><path class="cls-1" d="M453.35,163.4a2.68,2.68,0,0,1-.68.78,1.54,1.54,0,0,1-.92.26,2.34,2.34,0,0,1-1.07-.31l-1.29-.71a11.2,11.2,0,0,0-1.66-.7,6.57,6.57,0,0,0-2.12-.31,4.57,4.57,0,0,0-3.05.87,3,3,0,0,0-1,2.37,2.13,2.13,0,0,0,.61,1.57,5.24,5.24,0,0,0,1.59,1.09,16.83,16.83,0,0,0,2.24.83c.85.25,1.71.53,2.59.84a26.19,26.19,0,0,1,2.58,1.09,8.54,8.54,0,0,1,2.24,1.6A7.37,7.37,0,0,1,455,175a8.3,8.3,0,0,1,.61,3.36,10.77,10.77,0,0,1-.76,4.08,9.43,9.43,0,0,1-2.19,3.32A10.23,10.23,0,0,1,449.1,188a13.23,13.23,0,0,1-4.78.81,14.67,14.67,0,0,1-3-.31,17.23,17.23,0,0,1-2.95-.85,16.25,16.25,0,0,1-2.68-1.31,11.12,11.12,0,0,1-2.19-1.68l2.16-3.42a1.67,1.67,0,0,1,.67-.62,1.9,1.9,0,0,1,.93-.24,2.48,2.48,0,0,1,1.31.41l1.49.91a12.13,12.13,0,0,0,1.91.9,7,7,0,0,0,2.55.42,4.86,4.86,0,0,0,3.09-.88,3.32,3.32,0,0,0,1.11-2.78,2.64,2.64,0,0,0-.61-1.79,4.73,4.73,0,0,0-1.59-1.15,14.79,14.79,0,0,0-2.23-.79c-.84-.24-1.7-.49-2.58-.77a18.93,18.93,0,0,1-2.57-1,8.07,8.07,0,0,1-2.23-1.62,7.49,7.49,0,0,1-1.59-2.51,9.83,9.83,0,0,1-.61-3.71,8.71,8.71,0,0,1,.72-3.45,8.93,8.93,0,0,1,2.09-3,10.24,10.24,0,0,1,3.39-2.1,12.52,12.52,0,0,1,4.61-.79,16.43,16.43,0,0,1,2.82.23,15.22,15.22,0,0,1,2.6.66,14.26,14.26,0,0,1,2.3,1.06,10.31,10.31,0,0,1,1.92,1.4l-1.82,3.39Z"/><polygon class="cls-1" points="455.75 133.92 0.53 133.92 0.53 131.52 455.75 131.52 455.75 133.92 455.75 133.92"/><path class="cls-1" d="M43.9,47.05a.93.93,0,0,1,.67.28L46.15,49a27.65,27.65,0,0,1-3.77,3.33,22.27,22.27,0,0,1-4.46,2.52A25.87,25.87,0,0,1,32.6,56.5a33.09,33.09,0,0,1-6.37.57A27,27,0,0,1,15.6,55a23.65,23.65,0,0,1-8.3-5.76,26,26,0,0,1-5.39-9A34.44,34.44,0,0,1,0,28.52a32.83,32.83,0,0,1,2-11.6,26.76,26.76,0,0,1,5.52-9A24.57,24.57,0,0,1,16,2.07,28.28,28.28,0,0,1,27,0,26.85,26.85,0,0,1,37.11,1.78a27.33,27.33,0,0,1,8,5L43.94,8.56A1.11,1.11,0,0,1,43,9a3.21,3.21,0,0,1-1.54-.87,21.45,21.45,0,0,0-2.95-1.91,26,26,0,0,0-4.72-1.91A23.08,23.08,0,0,0,27,3.47a23.93,23.93,0,0,0-9.25,1.74,20.25,20.25,0,0,0-7.22,5A22.82,22.82,0,0,0,5.8,18.06,30.44,30.44,0,0,0,4.1,28.52,30.32,30.32,0,0,0,5.82,39.09,23.08,23.08,0,0,0,10.53,47a20.5,20.5,0,0,0,7.08,4.93,22.59,22.59,0,0,0,8.82,1.71,32.83,32.83,0,0,0,5.34-.39A21.33,21.33,0,0,0,36.09,52a19.4,19.4,0,0,0,3.67-1.93,27.69,27.69,0,0,0,3.35-2.68,2.2,2.2,0,0,1,.39-.26A1,1,0,0,1,43.9,47.05Z"/><path class="cls-1" d="M82.71,53v3.43H52.22V.63h4.06V53Z"/><path class="cls-1" d="M140.34,56.44h-3.11a1.4,1.4,0,0,1-.91-.29,2,2,0,0,1-.55-.77l-6.55-16.21H101.81L95.26,55.38a1.74,1.74,0,0,1-.55.75,1.49,1.49,0,0,1-.95.31H90.68L113.52.63h4ZM128,36.17,116.64,8a27.42,27.42,0,0,1-1.15-3.32c-.16.64-.33,1.23-.51,1.8A16.45,16.45,0,0,1,114.39,8L103,36.17Z"/><path class="cls-1" d="M183.37,56.44H179.9a2.48,2.48,0,0,1-1.12-.22,2.12,2.12,0,0,1-.85-.8L160,32.78a5.48,5.48,0,0,0-.65-.75,2.52,2.52,0,0,0-.75-.5,4,4,0,0,0-1-.25,9.5,9.5,0,0,0-1.41-.08h-7.29V56.44h-4.06V.63h14.27q9.63,0,14.42,3.73t4.79,10.94a15.11,15.11,0,0,1-1.1,5.84,13.82,13.82,0,0,1-3.18,4.64,16.67,16.67,0,0,1-5,3.25,23.83,23.83,0,0,1-6.6,1.7,6.41,6.41,0,0,1,1.69,1.57ZM158.6,28.2a22.73,22.73,0,0,0,6.65-.89,14.39,14.39,0,0,0,5-2.54,11,11,0,0,0,3.09-4,12.5,12.5,0,0,0,1.07-5.25q0-6-3.89-8.83T159.15,3.83H148.94V28.2Z"/><path class="cls-1" d="M191.53,26.39h3.31a12.23,12.23,0,0,0,1.3-.06,4.29,4.29,0,0,0,1-.22,2.91,2.91,0,0,0,.83-.45,9.86,9.86,0,0,0,.81-.73L221.31,1.78a3.28,3.28,0,0,1,1.16-.91,3.52,3.52,0,0,1,1.36-.24h3.24L202.69,25.68a12.2,12.2,0,0,1-1.32,1.22,5.13,5.13,0,0,1-1.28.71,4.75,4.75,0,0,1,1.5.73,8.77,8.77,0,0,1,1.34,1.28L228.6,56.44h-3.27A2.45,2.45,0,0,1,223,55.38L199.38,31.24q-.44-.43-.81-.75a3.78,3.78,0,0,0-.83-.53,3.88,3.88,0,0,0-1.06-.32,10.91,10.91,0,0,0-1.56-.1h-3.59v26.9h-4.06V.63h4.06Z"/><path class="cls-1" d="M261.5,7.42a1.13,1.13,0,0,1-1,.67,2.32,2.32,0,0,1-1.32-.73A16.85,16.85,0,0,0,257,5.74a17.41,17.41,0,0,0-3.45-1.64,17.28,17.28,0,0,0-10.45.12,11.19,11.19,0,0,0-3.87,2.37,10,10,0,0,0-2.36,3.47A10.76,10.76,0,0,0,236,14.2a8.46,8.46,0,0,0,1.2,4.69,10.77,10.77,0,0,0,3.18,3.16,20.21,20.21,0,0,0,4.47,2.19q2.5.89,5.15,1.75t5.15,1.92a18.5,18.5,0,0,1,4.48,2.62,12.11,12.11,0,0,1,3.17,3.88,12.35,12.35,0,0,1,1.2,5.74,18.16,18.16,0,0,1-1.2,6.61,15.43,15.43,0,0,1-3.49,5.38,16.34,16.34,0,0,1-5.6,3.61,20.33,20.33,0,0,1-7.57,1.32,21.43,21.43,0,0,1-9.51-2,22.35,22.35,0,0,1-7-5.34l1.1-1.74a1.42,1.42,0,0,1,1.11-.59,1.59,1.59,0,0,1,.9.47l1.35,1.17A23.68,23.68,0,0,0,236,50.58a15.85,15.85,0,0,0,2.56,1.5,18.54,18.54,0,0,0,3.36,1.17,18,18,0,0,0,4.29.47,16.33,16.33,0,0,0,5.92-1,12.89,12.89,0,0,0,4.4-2.74,11.63,11.63,0,0,0,2.74-4.12,13.73,13.73,0,0,0,.95-5.11A9,9,0,0,0,259,35.87a10.37,10.37,0,0,0-3.17-3.19,20.44,20.44,0,0,0-4.48-2.15c-1.67-.58-3.38-1.15-5.15-1.7s-3.47-1.17-5.14-1.85a18.19,18.19,0,0,1-4.48-2.62,12.11,12.11,0,0,1-3.17-4,13.09,13.09,0,0,1-1.21-6A14.18,14.18,0,0,1,233.3,9a13.58,13.58,0,0,1,3.11-4.59,15.47,15.47,0,0,1,5.07-3.2A18.51,18.51,0,0,1,248.36,0a20.8,20.8,0,0,1,7.79,1.38,18.68,18.68,0,0,1,6.29,4.22Z"/><path class="cls-1" d="M288.91.63a32.21,32.21,0,0,1,8.29,1A15.62,15.62,0,0,1,303,4.36a11.18,11.18,0,0,1,3.4,4.47,15.61,15.61,0,0,1,1.1,6,12.12,12.12,0,0,1-.77,4.26,13.07,13.07,0,0,1-2.21,3.79,14,14,0,0,1-3.55,3,17,17,0,0,1-4.83,2q6.58.95,10.12,4.35a11.94,11.94,0,0,1,3.53,9,15.64,15.64,0,0,1-1.26,6.39,13.13,13.13,0,0,1-3.67,4.81,17,17,0,0,1-5.92,3,28.15,28.15,0,0,1-8,1h-18.1V.63Zm-12,3.2V26.74H289a19.81,19.81,0,0,0,6.61-1,13,13,0,0,0,4.49-2.61,10.1,10.1,0,0,0,2.59-3.67,11.17,11.17,0,0,0,.83-4.22q0-5.64-3.57-8.54t-11-2.89Zm14,49.38q7.33,0,11.11-3.18t3.76-8.93a10.89,10.89,0,0,0-1-4.75,9.87,9.87,0,0,0-2.9-3.59,13.25,13.25,0,0,0-4.66-2.27A22.68,22.68,0,0,0,291,29.7h-14V53.21Z"/><path class="cls-1" d="M336.83,53.56a17.52,17.52,0,0,0,7.2-1.4,15.52,15.52,0,0,0,5.39-3.88,17.23,17.23,0,0,0,3.37-5.86A22.31,22.31,0,0,0,354,35.14V.63h4V35.14a25,25,0,0,1-1.46,8.62,20.63,20.63,0,0,1-4.21,7,19.19,19.19,0,0,1-6.66,4.68,23.83,23.83,0,0,1-17.63,0,19.33,19.33,0,0,1-6.67-4.68,20.45,20.45,0,0,1-4.2-7,25,25,0,0,1-1.46-8.62V.63h4.07V35.1a22,22,0,0,0,1.16,7.28,17.19,17.19,0,0,0,3.35,5.86,15.44,15.44,0,0,0,5.37,3.9A17.35,17.35,0,0,0,336.83,53.56Z"/><path class="cls-1" d="M404,56.44h-3.47a2.48,2.48,0,0,1-1.12-.22,2.12,2.12,0,0,1-.85-.8L380.65,32.78A5.48,5.48,0,0,0,380,32a2.52,2.52,0,0,0-.75-.5,4,4,0,0,0-1-.25,9.5,9.5,0,0,0-1.41-.08h-7.29V56.44h-4.06V.63h14.27q9.63,0,14.42,3.73T399,15.3a15.11,15.11,0,0,1-1.1,5.84,13.82,13.82,0,0,1-3.18,4.64,16.67,16.67,0,0,1-5,3.25,23.83,23.83,0,0,1-6.6,1.7,6.41,6.41,0,0,1,1.69,1.57ZM379.23,28.2a22.73,22.73,0,0,0,6.65-.89,14.39,14.39,0,0,0,5-2.54,11,11,0,0,0,3.09-4A12.5,12.5,0,0,0,395,15.54q0-6-3.89-8.83T379.78,3.83H369.57V28.2Z"/><path class="cls-1" d="M453.15,31.12V51a34.3,34.3,0,0,1-8.92,4.54,33.58,33.58,0,0,1-10.65,1.57,32.84,32.84,0,0,1-11.91-2,25.34,25.34,0,0,1-9-5.76,25,25,0,0,1-5.72-9,33,33,0,0,1-2-11.75,33.58,33.58,0,0,1,1.95-11.74,25.14,25.14,0,0,1,5.6-9A24.87,24.87,0,0,1,421.32,2,31.63,31.63,0,0,1,433,0a37.24,37.24,0,0,1,5.9.43,27.21,27.21,0,0,1,5,1.29,23.5,23.5,0,0,1,4.34,2.09,28.71,28.71,0,0,1,3.86,2.86L451,8.4a1.13,1.13,0,0,1-1.66.43,7.73,7.73,0,0,1-1.7-1.1,17.22,17.22,0,0,0-3-1.81,26.13,26.13,0,0,0-4.8-1.7,27.74,27.74,0,0,0-7-.75A26.53,26.53,0,0,0,423,5.21a20.61,20.61,0,0,0-7.49,5,21.77,21.77,0,0,0-4.77,7.88,30.69,30.69,0,0,0-1.68,10.46,31.26,31.26,0,0,0,1.68,10.57,21.59,21.59,0,0,0,4.85,8,20.77,20.77,0,0,0,7.71,5A28.32,28.32,0,0,0,433.5,53.8a31.24,31.24,0,0,0,4.6-.32,29.15,29.15,0,0,0,4-.88,28.11,28.11,0,0,0,3.71-1.42c1.19-.57,2.41-1.21,3.65-1.92v-15H438.79a1.05,1.05,0,0,1-.73-.28.82.82,0,0,1-.3-.63V31.12Z"/><path class="cls-1" d="M92.51,79.41H81.42v29.65h-2.3V79.41H68V77.47H92.51Z"/><path class="cls-1" d="M123.21,93.25a19.11,19.11,0,0,1-1.09,6.64A14.7,14.7,0,0,1,119,105a13.56,13.56,0,0,1-4.77,3.26,16.89,16.89,0,0,1-12.25,0A13.48,13.48,0,0,1,97.27,105a14.55,14.55,0,0,1-3.08-5.09,20.53,20.53,0,0,1,0-13.26,14.65,14.65,0,0,1,3.08-5.09A13.64,13.64,0,0,1,102,78.27a16.82,16.82,0,0,1,12.25,0A13.72,13.72,0,0,1,119,81.53a14.84,14.84,0,0,1,3.08,5.1A19.08,19.08,0,0,1,123.21,93.25Zm-2.36,0a18.06,18.06,0,0,0-.92-5.94,12.66,12.66,0,0,0-2.59-4.46,11.28,11.28,0,0,0-4-2.81A14.26,14.26,0,0,0,103,80a11.41,11.41,0,0,0-4,2.81,12.85,12.85,0,0,0-2.61,4.46,19.67,19.67,0,0,0,0,11.89A12.8,12.8,0,0,0,99,103.65a11.23,11.23,0,0,0,4,2.79,14.4,14.4,0,0,0,10.34,0,11.11,11.11,0,0,0,4-2.79,12.61,12.61,0,0,0,2.59-4.45A18,18,0,0,0,120.85,93.25Z"/><path class="cls-1" d="M170.68,77.47l-9.94,31.59h-2.05l-9.33-27.42c-.12-.37-.23-.76-.32-1.16-.09.4-.19.79-.31,1.16l-9.35,27.42h-2l-10-31.59h1.9a.78.78,0,0,1,.82.6l8,26c.17.6.31,1.28.45,2,.07-.39.15-.75.22-1.09a8.78,8.78,0,0,1,.27-1l8.93-26a1,1,0,0,1,.31-.43.89.89,0,0,1,.54-.17h.62a.81.81,0,0,1,.52.16,1.29,1.29,0,0,1,.31.44l8.93,26a9.59,9.59,0,0,1,.28.94c.08.34.16.7.23,1.07.08-.37.15-.72.21-1.06s.14-.65.22-1l8-26a.78.78,0,0,1,.3-.43.94.94,0,0,1,.55-.17Z"/><path class="cls-1" d="M200.79,77.47v31.59h-1.07a1.14,1.14,0,0,1-.48-.1,1.32,1.32,0,0,1-.37-.35L178.36,81.19c0,.45.06.88.06,1.28v26.59h-2V77.47h1.14a1.22,1.22,0,0,1,.48.07,1.07,1.07,0,0,1,.37.35l20.47,27.35c0-.45-.06-.87-.06-1.27V77.47Z"/><path class="cls-1" d="M245,103.74a.53.53,0,0,1,.38.16l.9,1a15.32,15.32,0,0,1-2.14,1.89,12.83,12.83,0,0,1-2.52,1.42,14.13,14.13,0,0,1-3,.92,18.44,18.44,0,0,1-3.61.32,15.34,15.34,0,0,1-6-1.15,13.38,13.38,0,0,1-4.7-3.26,14.73,14.73,0,0,1-3-5.1,19.45,19.45,0,0,1-1.09-6.65,18.58,18.58,0,0,1,1.12-6.56,15.29,15.29,0,0,1,3.13-5.11,13.81,13.81,0,0,1,4.82-3.3,16,16,0,0,1,6.21-1.17,15.26,15.26,0,0,1,5.73,1A15.5,15.5,0,0,1,245.76,81l-.7,1a.6.6,0,0,1-.55.27,1.76,1.76,0,0,1-.87-.49A11.23,11.23,0,0,0,242,80.65a13.75,13.75,0,0,0-2.67-1.09,13.33,13.33,0,0,0-3.82-.49,13.48,13.48,0,0,0-5.24,1,11.55,11.55,0,0,0-4.09,2.81,13.1,13.1,0,0,0-2.66,4.46,18.83,18.83,0,0,0,0,11.9,13,13,0,0,0,2.67,4.46,11.56,11.56,0,0,0,4,2.79,12.9,12.9,0,0,0,5,1,18.4,18.4,0,0,0,3-.22,12.42,12.42,0,0,0,2.44-.67,11.12,11.12,0,0,0,2.08-1.1,16,16,0,0,0,1.9-1.52,1,1,0,0,1,.22-.14A.46.46,0,0,1,245,103.74Z"/><path class="cls-1" d="M271.41,107.16l-.05,1.9H252.43V77.47h18.93v1.89H254.73V92.13h13.84V94H254.73v13.17Z"/><path class="cls-1" d="M302.71,77.47v31.59h-1.07a1.07,1.07,0,0,1-.48-.1,1.2,1.2,0,0,1-.37-.35L280.27,81.19a11.6,11.6,0,0,1,.07,1.28v26.59h-2V77.47h1.14a1.22,1.22,0,0,1,.48.07,1.28,1.28,0,0,1,.37.35l20.47,27.35a11.43,11.43,0,0,1-.07-1.27V77.47Z"/><path class="cls-1" d="M332.58,79.41h-11.1v29.65h-2.29V79.41H308V77.47h24.56Z"/><path class="cls-1" d="M356.87,107.16l0,1.9H337.89V77.47h18.94v1.89H340.19V92.13H354V94H340.19v13.17Z"/><path class="cls-1" d="M385.58,109.06h-2a1.35,1.35,0,0,1-.64-.13,1.26,1.26,0,0,1-.48-.45L372.36,95.66a3.92,3.92,0,0,0-.36-.42,1.52,1.52,0,0,0-.43-.28,2.07,2.07,0,0,0-.56-.15,5.91,5.91,0,0,0-.79,0h-4.13v14.29h-2.3V77.47h8.08q5.44,0,8.16,2.11a7.35,7.35,0,0,1,2.71,6.19,8.45,8.45,0,0,1-.62,3.31,7.87,7.87,0,0,1-1.8,2.62,9.42,9.42,0,0,1-2.83,1.84,13.23,13.23,0,0,1-3.74,1,3.65,3.65,0,0,1,1,.89Zm-14-16a13.17,13.17,0,0,0,3.76-.5,8.19,8.19,0,0,0,2.81-1.44,6.22,6.22,0,0,0,1.76-2.26,7,7,0,0,0,.6-3,5.83,5.83,0,0,0-2.2-5,10.72,10.72,0,0,0-6.42-1.63h-5.78v13.8Z"/></g></svg>