<svg xmlns="http://www.w3.org/2000/svg" xmlns:xlink="http://www.w3.org/1999/xlink" width="230" height="140" viewBox="0 0 230 140">
  <defs>
    <clipPath id="clip-B3">
      <rect width="230" height="140"/>
    </clipPath>
  </defs>
  <g id="B3" clip-path="url(#clip-B3)">
    <g id="Group_85" data-name="Group 85" transform="translate(-325.059 -274.799)">
      <g id="Group_83" data-name="Group 83" transform="translate(325.059 274.799)">
        <g id="Group_81" data-name="Group 81">
          <g id="Group_80" data-name="Group 80" transform="translate(0 18.64)">
            <g id="Group_78" data-name="Group 78">
              <path id="Path_317" data-name="Path 317" d="M343.8,306.113a1.182,1.182,0,0,1,.423.079,1.161,1.161,0,0,1,.406.274l2.362,2.485a9.8,9.8,0,0,1-3.888,3.059,13.585,13.585,0,0,1-5.53,1.031,13.165,13.165,0,0,1-5.245-.994A11.365,11.365,0,0,1,328.4,309.3a12.114,12.114,0,0,1-2.477-4.163,15.384,15.384,0,0,1-.863-5.227,13.77,13.77,0,0,1,.988-5.282,12.168,12.168,0,0,1,7-6.867,14.753,14.753,0,0,1,5.449-.97,13.9,13.9,0,0,1,2.724.254,13.3,13.3,0,0,1,2.39.706,11.227,11.227,0,0,1,2.045,1.075,9.985,9.985,0,0,1,1.658,1.384l-2.011,2.7a2.615,2.615,0,0,1-.458.449,1.2,1.2,0,0,1-.74.2,1.333,1.333,0,0,1-.6-.142,6.738,6.738,0,0,1-.6-.345l-.7-.439a5.286,5.286,0,0,0-.9-.44,7.329,7.329,0,0,0-1.218-.345,8.311,8.311,0,0,0-1.631-.141,7.462,7.462,0,0,0-2.963.573,6.477,6.477,0,0,0-2.3,1.64,7.608,7.608,0,0,0-1.5,2.583,10.11,10.11,0,0,0-.538,3.4,10.558,10.558,0,0,0,.538,3.509A7.7,7.7,0,0,0,333.161,306a6.248,6.248,0,0,0,2.16,1.595,6.453,6.453,0,0,0,2.644.546,12.545,12.545,0,0,0,1.482-.079,6.029,6.029,0,0,0,1.244-.274,5.651,5.651,0,0,0,1.093-.5,7.412,7.412,0,0,0,1.049-.766,2.162,2.162,0,0,1,.458-.293A1.226,1.226,0,0,1,343.8,306.113Z" transform="translate(-325.059 -286.788)" fill="#1a1818"/>
              <path id="Path_318" data-name="Path 318" d="M347.244,303.15v9.5h-5.959V286.961h8.358a17.135,17.135,0,0,1,4.751.575,8.946,8.946,0,0,1,3.209,1.595,6.037,6.037,0,0,1,1.807,2.416,7.988,7.988,0,0,1,.565,3.034,8.147,8.147,0,0,1-.335,2.362,7.159,7.159,0,0,1-1,2.053,7.742,7.742,0,0,1-1.622,1.684,8.6,8.6,0,0,1-2.213,1.216,5.721,5.721,0,0,1,1.12.742,4.486,4.486,0,0,1,.908,1.075l5.466,8.94h-5.4a2.286,2.286,0,0,1-2.15-1.129l-4.268-7.458a1.809,1.809,0,0,0-.661-.706,2.217,2.217,0,0,0-1.067-.21Zm0-4.11h2.4a6.134,6.134,0,0,0,2.071-.308,3.745,3.745,0,0,0,1.4-.855,3.277,3.277,0,0,0,.793-1.279,4.931,4.931,0,0,0,.246-1.579,3.307,3.307,0,0,0-1.1-2.644,5.125,5.125,0,0,0-3.41-.952h-2.4Z" transform="translate(-315.012 -286.681)" fill="#1a1818"/>
              <path id="Path_319" data-name="Path 319" d="M381.912,312.653h-4.621a2.132,2.132,0,0,1-1.277-.361,1.865,1.865,0,0,1-.7-.926l-1.517-4.479h-9.767l-1.517,4.479a2.037,2.037,0,0,1-1.94,1.287h-4.655l9.945-25.692h6.1Zm-16.5-9.82h7.018l-2.362-7.035q-.231-.67-.539-1.579t-.607-1.966q-.282,1.076-.583,1.992t-.564,1.588Z" transform="translate(-305.742 -286.681)" fill="#1a1818"/>
              <path id="Path_320" data-name="Path 320" d="M390.364,286.961v4.586H379.82v6.506H388.6v4.6H379.82v10h-6V286.961Z" transform="translate(-294.551 -286.681)" fill="#1a1818"/>
              <path id="Path_321" data-name="Path 321" d="M406.287,286.961v4.726h-7.23v20.965H393.1V291.687h-7.228v-4.726Z" transform="translate(-287.009 -286.681)" fill="#1a1818"/>
              <path id="Path_322" data-name="Path 322" d="M413.949,302.294c.219.484.426.976.627,1.482q.3-.775.635-1.507t.686-1.422l6.6-12.991a2.1,2.1,0,0,1,.359-.52,1.155,1.155,0,0,1,.416-.274,1.407,1.407,0,0,1,.518-.089h5.228v25.672h-5.253V297.87q0-1.076.105-2.328l-6.807,13.206a2.247,2.247,0,0,1-.855.936,2.375,2.375,0,0,1-1.226.317h-.811a2.37,2.37,0,0,1-1.224-.317,2.24,2.24,0,0,1-.857-.936l-6.841-13.224c.047.411.083.821.105,1.226s.036.779.036,1.12v14.775h-5.254V286.973h5.228a1.41,1.41,0,0,1,.52.089,1.163,1.163,0,0,1,.415.274,2.1,2.1,0,0,1,.361.52l6.613,13.044Q413.623,301.57,413.949,302.294Z" transform="translate(-278.062 -286.673)" fill="#1a1818"/>
              <path id="Path_323" data-name="Path 323" d="M445.422,312.653H440.8a2.138,2.138,0,0,1-1.279-.361,1.865,1.865,0,0,1-.7-.926l-1.516-4.479h-9.769l-1.517,4.479a2.033,2.033,0,0,1-1.94,1.287h-4.655l9.945-25.692h6.1Zm-16.5-9.82h7.018l-2.362-7.035q-.231-.67-.538-1.579t-.609-1.966q-.282,1.076-.581,1.992t-.565,1.588Z" transform="translate(-265.991 -286.681)" fill="#1a1818"/>
              <path id="Path_324" data-name="Path 324" d="M443.294,303.15v9.5h-5.96V286.961h8.36a17.142,17.142,0,0,1,4.751.575,8.982,8.982,0,0,1,3.211,1.595,6.033,6.033,0,0,1,1.805,2.416,7.988,7.988,0,0,1,.565,3.034,8.144,8.144,0,0,1-.335,2.362,7.121,7.121,0,0,1-1,2.053,7.633,7.633,0,0,1-1.622,1.684,8.566,8.566,0,0,1-2.212,1.216,5.673,5.673,0,0,1,1.12.742,4.523,4.523,0,0,1,.908,1.075l5.466,8.94h-5.4a2.289,2.289,0,0,1-2.154-1.129l-4.267-7.458a1.813,1.813,0,0,0-.662-.706,2.21,2.21,0,0,0-1.065-.21Zm0-4.11h2.4a6.123,6.123,0,0,0,2.069-.308,3.74,3.74,0,0,0,1.4-.855,3.277,3.277,0,0,0,.793-1.279,4.887,4.887,0,0,0,.246-1.579,3.311,3.311,0,0,0-1.1-2.644,5.133,5.133,0,0,0-3.412-.952h-2.4Z" transform="translate(-254.697 -286.681)" fill="#1a1818"/>
              <path id="Path_325" data-name="Path 325" d="M458.345,297.366h.95a2.169,2.169,0,0,0,1.906-.827l5.784-8.394a2.453,2.453,0,0,1,1.083-.936,3.954,3.954,0,0,1,1.49-.248h5.185l-7.618,10.389a5.092,5.092,0,0,1-.845.933,5.339,5.339,0,0,1-.9.618,4.267,4.267,0,0,1,2.238,1.833l7.759,11.919h-5.325a4.653,4.653,0,0,1-.873-.07,2.228,2.228,0,0,1-.625-.211,1.858,1.858,0,0,1-.46-.345,3.434,3.434,0,0,1-.369-.466l-5.819-8.941a1.757,1.757,0,0,0-.8-.7,3.505,3.505,0,0,0-1.315-.2h-1.444v10.931h-5.96V286.961h5.96Z" transform="translate(-245.378 -286.681)" fill="#1a1818"/>
            </g>
            <g id="Group_79" data-name="Group 79" transform="translate(50.781 40.749)">
              <path id="Path_326" data-name="Path 326" d="M378.59,337.82h-6V326.958H362.157V337.82h-6V312.128h6v10.74h10.437v-10.74h6Z" transform="translate(-356.161 -311.846)" fill="#1a1818"/>
              <path id="Path_327" data-name="Path 327" d="M399.061,325.074a13.86,13.86,0,0,1-.96,5.183,12.238,12.238,0,0,1-6.914,6.948,15.358,15.358,0,0,1-10.923,0,12.5,12.5,0,0,1-4.221-2.777,12.345,12.345,0,0,1-2.715-4.171,14.428,14.428,0,0,1,0-10.368,12.256,12.256,0,0,1,2.715-4.161,12.528,12.528,0,0,1,4.221-2.769,14.368,14.368,0,0,1,5.466-1.006,14.2,14.2,0,0,1,5.457,1.015,12.625,12.625,0,0,1,4.208,2.775,12.486,12.486,0,0,1,2.706,4.161A13.826,13.826,0,0,1,399.061,325.074Zm-6.1,0a11.131,11.131,0,0,0-.5-3.431,7.3,7.3,0,0,0-1.418-2.583,6.14,6.14,0,0,0-2.267-1.622,7.775,7.775,0,0,0-3.051-.565,7.9,7.9,0,0,0-3.076.565,6.116,6.116,0,0,0-2.275,1.622,7.277,7.277,0,0,0-1.418,2.583,12.217,12.217,0,0,0,0,6.877,7.234,7.234,0,0,0,1.418,2.583,6.046,6.046,0,0,0,2.275,1.616,8.048,8.048,0,0,0,3.076.554,7.925,7.925,0,0,0,3.051-.554,6.069,6.069,0,0,0,2.267-1.616,7.258,7.258,0,0,0,1.418-2.583A11.175,11.175,0,0,0,392.962,325.074Z" transform="translate(-346.128 -311.954)" fill="#1a1818"/>
              <path id="Path_328" data-name="Path 328" d="M405,327.459q.323.726.625,1.483.3-.775.635-1.507c.222-.491.452-.962.688-1.422l6.6-12.991a2.065,2.065,0,0,1,.361-.521,1.181,1.181,0,0,1,.413-.274,1.461,1.461,0,0,1,.521-.087h5.228v25.672h-5.256V323.036c0-.717.037-1.491.107-2.328l-6.807,13.208a2.237,2.237,0,0,1-.855.936,2.374,2.374,0,0,1-1.224.317h-.811a2.382,2.382,0,0,1-1.227-.317,2.258,2.258,0,0,1-.855-.936L396.3,320.691c.045.411.079.821.105,1.226s.034.779.034,1.119v14.777h-5.254V312.14h5.227a1.455,1.455,0,0,1,.521.087,1.2,1.2,0,0,1,.415.274,2.153,2.153,0,0,1,.361.521l6.613,13.044C404.555,326.512,404.78,326.978,405,327.459Z" transform="translate(-334.476 -311.839)" fill="#1a1818"/>
              <path id="Path_329" data-name="Path 329" d="M428.74,312.128v4.584H418.194v6h8.077v4.407h-8.077v6.119H428.74v4.584H412.2V312.128Z" transform="translate(-321.462 -311.846)" fill="#1a1818"/>
              <path id="Path_330" data-name="Path 330" d="M440.54,317.456a2.285,2.285,0,0,1-.555.635,1.242,1.242,0,0,1-.75.212,1.841,1.841,0,0,1-.873-.256c-.312-.17-.664-.363-1.057-.575a8.976,8.976,0,0,0-1.349-.572,5.407,5.407,0,0,0-1.728-.256,3.707,3.707,0,0,0-2.5.716,2.424,2.424,0,0,0-.821,1.93,1.77,1.77,0,0,0,.494,1.286,4.247,4.247,0,0,0,1.3.882,13.688,13.688,0,0,0,1.833.678c.688.207,1.391.434,2.108.687a19.462,19.462,0,0,1,2.107.892,6.967,6.967,0,0,1,1.833,1.305,6.057,6.057,0,0,1,1.3,1.93,6.872,6.872,0,0,1,.494,2.741,8.941,8.941,0,0,1-.619,3.334,7.8,7.8,0,0,1-1.789,2.707,8.336,8.336,0,0,1-2.892,1.815,10.829,10.829,0,0,1-3.905.661,12.465,12.465,0,0,1-2.442-.248,14.159,14.159,0,0,1-2.406-.7,13.756,13.756,0,0,1-2.187-1.065,9.3,9.3,0,0,1-1.781-1.375l1.765-2.787a1.4,1.4,0,0,1,.544-.51,1.539,1.539,0,0,1,.759-.2,2.019,2.019,0,0,1,1.067.335c.359.223.763.471,1.216.74a9.6,9.6,0,0,0,1.561.74,5.809,5.809,0,0,0,2.081.337,3.952,3.952,0,0,0,2.521-.716,2.717,2.717,0,0,0,.9-2.265,2.15,2.15,0,0,0-.494-1.464,3.86,3.86,0,0,0-1.3-.933,11.885,11.885,0,0,0-1.826-.652q-1.022-.284-2.1-.627a15.291,15.291,0,0,1-2.1-.847,6.574,6.574,0,0,1-1.823-1.323,6.147,6.147,0,0,1-1.3-2.045,8.094,8.094,0,0,1-.494-3.025,7.166,7.166,0,0,1,.581-2.821,7.308,7.308,0,0,1,1.71-2.45A8.465,8.465,0,0,1,430.4,312.6a10.268,10.268,0,0,1,3.757-.643,13.934,13.934,0,0,1,2.3.186,12.038,12.038,0,0,1,2.124.546,11.585,11.585,0,0,1,1.878.865,8.585,8.585,0,0,1,1.559,1.137Z" transform="translate(-313.937 -311.954)" fill="#1a1818"/>
            </g>
          </g>
          <rect id="Rectangle_50" data-name="Rectangle 50" width="229.999" height="1.959" fill="#1a1818"/>
          <rect id="Rectangle_51" data-name="Rectangle 51" width="229.999" height="1.959" transform="translate(0 100.769)" fill="#1a1818"/>
        </g>
        <g id="Group_82" data-name="Group 82" transform="translate(183.337 53.552)">
          <path id="Path_331" data-name="Path 331" d="M437.766,315.536a7.02,7.02,0,0,1,.253-1.89,7.183,7.183,0,0,1,.714-1.7,6.833,6.833,0,0,1,1.112-1.438,7.36,7.36,0,0,1,1.438-1.112,7.059,7.059,0,0,1,7.16,0,7.361,7.361,0,0,1,1.438,1.112,7,7,0,0,1,1.112,1.438,7.179,7.179,0,0,1,.714,1.7,7.157,7.157,0,0,1,0,3.769,7.007,7.007,0,0,1-1.826,3.128,7.359,7.359,0,0,1-1.438,1.112,7.048,7.048,0,0,1-7.16,0,7.358,7.358,0,0,1-1.438-1.112,6.891,6.891,0,0,1-1.112-1.433,7.115,7.115,0,0,1-.714-1.69A6.967,6.967,0,0,1,437.766,315.536Zm.97,0a6.318,6.318,0,0,0,.215,1.661,6.233,6.233,0,0,0,.612,1.491,6.154,6.154,0,0,0,.952,1.258,6.011,6.011,0,0,0,2.7,1.588,6.105,6.105,0,0,0,1.642.219,5.987,5.987,0,0,0,2.4-.486,6.151,6.151,0,0,0,1.953-1.326,6.281,6.281,0,0,0,1.312-1.972,6.188,6.188,0,0,0,.481-2.434,6.361,6.361,0,0,0-.837-3.172,6.292,6.292,0,0,0-.955-1.268,5.985,5.985,0,0,0-1.239-.976,6.144,6.144,0,0,0-1.472-.627,6.033,6.033,0,0,0-1.647-.223,5.9,5.9,0,0,0-2.4.491,6.079,6.079,0,0,0-1.943,1.341,6.329,6.329,0,0,0-1.779,4.435Zm4.722.874v3.439h-1.516v-8.666h2.8a4.122,4.122,0,0,1,2.479.607,2.1,2.1,0,0,1,.806,1.792,2.39,2.39,0,0,1-.52,1.554,2.72,2.72,0,0,1-1.551.884,1.1,1.1,0,0,1,.288.243,2.258,2.258,0,0,1,.228.34l2.215,3.245h-1.438a.526.526,0,0,1-.476-.243l-1.953-2.934a.616.616,0,0,0-.211-.194.788.788,0,0,0-.374-.068Zm0-1.108h1.129a3.5,3.5,0,0,0,.908-.1,1.543,1.543,0,0,0,.6-.3,1.109,1.109,0,0,0,.329-.476,1.908,1.908,0,0,0,.1-.651,2.015,2.015,0,0,0-.091-.632.981.981,0,0,0-.3-.447,1.385,1.385,0,0,0-.551-.262,3.446,3.446,0,0,0-.845-.087h-1.282Z" transform="translate(-437.766 -308.425)" fill="#1a1818"/>
        </g>
      </g>
      <g id="Group_84" data-name="Group 84" transform="translate(349.928 394.904)">
        <path id="Path_332" data-name="Path 332" d="M349.074,350.119v5.007h-.4a6.247,6.247,0,0,0-.688-2.3,3.586,3.586,0,0,0-1.414-1.355,3.933,3.933,0,0,0-1.9-.5,2.593,2.593,0,0,0-1.836.677,2.065,2.065,0,0,0-.725,1.545,1.825,1.825,0,0,0,.46,1.2,11.75,11.75,0,0,0,3.148,2.134,22.081,22.081,0,0,1,2.77,1.671,4.1,4.1,0,0,1,1.142,1.371,3.608,3.608,0,0,1,.4,1.653,3.742,3.742,0,0,1-1.276,2.835,4.616,4.616,0,0,1-3.282,1.19,6.849,6.849,0,0,1-1.184-.1,11.372,11.372,0,0,1-1.371-.389,6.061,6.061,0,0,0-1.32-.335.554.554,0,0,0-.421.16,1.268,1.268,0,0,0-.228.661h-.4v-4.965h.4a7.015,7.015,0,0,0,.746,2.333,3.582,3.582,0,0,0,1.436,1.287,4.446,4.446,0,0,0,2.118.512,3.016,3.016,0,0,0,2.108-.7,2.186,2.186,0,0,0,.774-1.666,2.248,2.248,0,0,0-.295-1.078,3.218,3.218,0,0,0-.912-1.014,25.755,25.755,0,0,0-2.273-1.36,22.176,22.176,0,0,1-2.643-1.66,4.494,4.494,0,0,1-1.19-1.367,3.379,3.379,0,0,1-.4-1.642,3.567,3.567,0,0,1,1.195-2.686,4.262,4.262,0,0,1,3.042-1.125,6.065,6.065,0,0,1,2.443.567,2.548,2.548,0,0,0,.844.266.635.635,0,0,0,.453-.165,1.317,1.317,0,0,0,.283-.667Z" transform="translate(-340.418 -349.747)" fill="#1a1818"/>
        <path id="Path_333" data-name="Path 333" d="M350.893,355v7.855a3.609,3.609,0,0,0,.133,1.223.941.941,0,0,0,.4.453,2.1,2.1,0,0,0,.955.149v.385h-4.749v-.385a2.187,2.187,0,0,0,.96-.139.948.948,0,0,0,.39-.458,3.46,3.46,0,0,0,.144-1.227v-3.768a13.47,13.47,0,0,0-.1-2.06.846.846,0,0,0-.236-.474.66.66,0,0,0-.437-.134,2.133,2.133,0,0,0-.725.16l-.149-.384L350.423,355Zm-.886-5.112a1.075,1.075,0,0,1,1.078,1.077,1.055,1.055,0,0,1-.316.768,1.03,1.03,0,0,1-.763.322,1.1,1.1,0,0,1-1.09-1.09,1.034,1.034,0,0,1,.316-.763A1.048,1.048,0,0,1,350.007,349.889Z" transform="translate(-336.047 -349.889)" fill="#1a1818"/>
        <path id="Path_334" data-name="Path 334" d="M354.317,355.115q1.717-2.069,3.277-2.069a2.353,2.353,0,0,1,1.376.4,2.69,2.69,0,0,1,.918,1.318,6.133,6.133,0,0,1,.235,1.964V360.9a3.5,3.5,0,0,0,.149,1.26.866.866,0,0,0,.379.416,2.136,2.136,0,0,0,.965.149v.385h-4.833v-.385h.2a1.638,1.638,0,0,0,.955-.207,1.088,1.088,0,0,0,.379-.614,6.409,6.409,0,0,0,.042-1v-4a4.067,4.067,0,0,0-.346-1.938,1.237,1.237,0,0,0-1.169-.6,3.524,3.524,0,0,0-2.529,1.388V360.9a3.7,3.7,0,0,0,.117,1.227.994.994,0,0,0,.411.455,2.562,2.562,0,0,0,1.062.142v.385h-4.835v-.385h.214a1.151,1.151,0,0,0,1.009-.379,2.753,2.753,0,0,0,.261-1.446v-3.629a15.806,15.806,0,0,0-.079-2.145.921.921,0,0,0-.246-.523.666.666,0,0,0-.442-.139,2.056,2.056,0,0,0-.716.16l-.16-.384,2.945-1.195h.46Z" transform="translate(-333.92 -347.934)" fill="#1a1818"/>
        <path id="Path_335" data-name="Path 335" d="M360.632,359.547a3.215,3.215,0,0,1-1.857-2.958,3.342,3.342,0,0,1,1.093-2.5,3.9,3.9,0,0,1,2.8-1.044,4.267,4.267,0,0,1,2.422.683h2.071a2.725,2.725,0,0,1,.533.026.19.19,0,0,1,.108.091.665.665,0,0,1,.063.342.951.951,0,0,1-.053.384.216.216,0,0,1-.112.086,2.268,2.268,0,0,1-.539.032h-1.269a3.293,3.293,0,0,1-.449,4.3,3.964,3.964,0,0,1-2.808.971,5.507,5.507,0,0,1-1.483-.212,2.793,2.793,0,0,0-.635.709,1.116,1.116,0,0,0-.167.516.5.5,0,0,0,.177.353,1.3,1.3,0,0,0,.688.246c.2.028.7.053,1.495.073q2.2.056,2.85.151a2.678,2.678,0,0,1,1.585.737,2.008,2.008,0,0,1,.593,1.472,3.093,3.093,0,0,1-1.13,2.264,6.112,6.112,0,0,1-4.346,1.559,6.228,6.228,0,0,1-3.48-.929q-.8-.534-.8-1.111a1.2,1.2,0,0,1,.118-.512,5.915,5.915,0,0,1,.746-1.1c.05-.065.413-.447,1.088-1.153a3.337,3.337,0,0,1-.784-.593.872.872,0,0,1-.23-.591,1.76,1.76,0,0,1,.3-.876A6.924,6.924,0,0,1,360.632,359.547Zm-.107,3.564a5.158,5.158,0,0,0-.758,1.014,1.815,1.815,0,0,0-.256.865,1.082,1.082,0,0,0,.619.9,5.909,5.909,0,0,0,3.085.662,4.771,4.771,0,0,0,2.834-.678,1.863,1.863,0,0,0,.913-1.448.808.808,0,0,0-.546-.789,7.118,7.118,0,0,0-2.2-.279A35.326,35.326,0,0,1,360.526,363.111Zm1.964-9.553a1.669,1.669,0,0,0-1.324.63,2.939,2.939,0,0,0-.533,1.932,4.153,4.153,0,0,0,.725,2.615,1.713,1.713,0,0,0,1.409.7,1.679,1.679,0,0,0,1.334-.609,2.881,2.881,0,0,0,.523-1.911,4.265,4.265,0,0,0-.737-2.657A1.69,1.69,0,0,0,362.49,353.558Z" transform="translate(-329.4 -347.934)" fill="#1a1818"/>
        <path id="Path_336" data-name="Path 336" d="M368.129,349.889v12.966a3.532,3.532,0,0,0,.134,1.216.951.951,0,0,0,.41.455,2.391,2.391,0,0,0,1.036.154v.385h-4.793v-.385a2.049,2.049,0,0,0,.918-.139.913.913,0,0,0,.384-.458,3.573,3.573,0,0,0,.139-1.227v-8.88a15.331,15.331,0,0,0-.074-2.034.879.879,0,0,0-.241-.517.62.62,0,0,0-.421-.139,2,2,0,0,0-.7.17l-.181-.372,2.915-1.195Z" transform="translate(-325.172 -349.889)" fill="#1a1818"/>
        <path id="Path_337" data-name="Path 337" d="M370.1,357.021a5.015,5.015,0,0,0,1.057,3.415,3.219,3.219,0,0,0,2.508,1.239,2.723,2.723,0,0,0,1.669-.528,3.9,3.9,0,0,0,1.19-1.81l.33.215a5.087,5.087,0,0,1-1.3,2.662,3.482,3.482,0,0,1-2.7,1.2,3.95,3.95,0,0,1-3.017-1.37,5.264,5.264,0,0,1-1.253-3.689,5.577,5.577,0,0,1,1.286-3.912,4.2,4.2,0,0,1,3.229-1.4,3.61,3.61,0,0,1,2.7,1.083,3.973,3.973,0,0,1,1.056,2.9Zm0-.62h4.526a4.205,4.205,0,0,0-.223-1.323,2.132,2.132,0,0,0-.8-.939,2.008,2.008,0,0,0-1.106-.342,2.194,2.194,0,0,0-1.585.69A2.977,2.977,0,0,0,370.1,356.4Z" transform="translate(-322.754 -347.939)" fill="#1a1818"/>
        <path id="Path_338" data-name="Path 338" d="M381.788,351.113V356.8h2.636a1.878,1.878,0,0,0,1.329-.4,2.652,2.652,0,0,0,.56-1.584h.4v4.9h-.4a2.9,2.9,0,0,0-.219-1.239,1.4,1.4,0,0,0-.576-.593,2.391,2.391,0,0,0-1.095-.2h-2.636v4.548a4.777,4.777,0,0,0,.139,1.451.944.944,0,0,0,.448.458,2.011,2.011,0,0,0,.981.257h.523v.4h-6.211v-.4h.512a1.546,1.546,0,0,0,1.3-.523,3.239,3.239,0,0,0,.256-1.643v-9.351a4.808,4.808,0,0,0-.138-1.451.96.96,0,0,0-.437-.458,1.984,1.984,0,0,0-.983-.258h-.512v-.4h10.769l.138,3.18H388.2a4.344,4.344,0,0,0-.646-1.488,2.13,2.13,0,0,0-.907-.688,4.844,4.844,0,0,0-1.671-.214Z" transform="translate(-317.052 -349.62)" fill="#1a1818"/>
        <path id="Path_339" data-name="Path 339" d="M390.884,361.7a16.368,16.368,0,0,1-1.89,1.346,2.9,2.9,0,0,1-1.227.266,2.2,2.2,0,0,1-1.669-.693,2.546,2.546,0,0,1-.657-1.826,2.329,2.329,0,0,1,.321-1.239,4.237,4.237,0,0,1,1.52-1.365,23.656,23.656,0,0,1,3.6-1.558v-.385a3.176,3.176,0,0,0-.465-2.006,1.676,1.676,0,0,0-1.349-.546,1.514,1.514,0,0,0-1.069.364,1.092,1.092,0,0,0-.406.832l.023.618a1.062,1.062,0,0,1-.251.758.857.857,0,0,1-.656.267.822.822,0,0,1-.646-.279,1.082,1.082,0,0,1-.251-.756,2.18,2.18,0,0,1,.939-1.686,4.052,4.052,0,0,1,2.636-.769,4.574,4.574,0,0,1,2.134.437,2.005,2.005,0,0,1,.929,1.035,5.843,5.843,0,0,1,.193,1.878v3.321a14.793,14.793,0,0,0,.053,1.713.711.711,0,0,0,.175.421.42.42,0,0,0,.283.107.6.6,0,0,0,.3-.074,6.851,6.851,0,0,0,.865-.78v.6q-1.2,1.6-2.285,1.6a1.034,1.034,0,0,1-.832-.364A1.947,1.947,0,0,1,390.884,361.7Zm0-.695v-3.726a20.891,20.891,0,0,0-2.081.908,3.59,3.59,0,0,0-1.208.981,1.9,1.9,0,0,0-.361,1.12,1.832,1.832,0,0,0,.458,1.278,1.391,1.391,0,0,0,1.056.505A3.879,3.879,0,0,0,390.884,361.008Z" transform="translate(-312.182 -347.934)" fill="#1a1818"/>
        <path id="Path_340" data-name="Path 340" d="M394.468,355.127q1.066-1.066,1.26-1.227a3.79,3.79,0,0,1,1.035-.63,2.932,2.932,0,0,1,1.1-.223,2.438,2.438,0,0,1,1.58.533,2.655,2.655,0,0,1,.886,1.548,7.223,7.223,0,0,1,1.857-1.681,3.291,3.291,0,0,1,1.559-.4,2.438,2.438,0,0,1,1.381.4,2.663,2.663,0,0,1,.955,1.308,5.873,5.873,0,0,1,.233,1.941V360.9a3.878,3.878,0,0,0,.139,1.26.909.909,0,0,0,.4.4,2,2,0,0,0,.941.165v.385h-4.825v-.385h.2a1.7,1.7,0,0,0,.983-.245.953.953,0,0,0,.351-.544,6.7,6.7,0,0,0,.044-1.036V356.7a3.567,3.567,0,0,0-.288-1.686,1.447,1.447,0,0,0-1.334-.683,2.526,2.526,0,0,0-1.137.283,6.109,6.109,0,0,0-1.383,1.049l-.021.118.021.46V360.9a4.025,4.025,0,0,0,.112,1.248.9.9,0,0,0,.421.411,2.43,2.43,0,0,0,1.057.165v.385h-4.942v-.385a2.288,2.288,0,0,0,1.116-.191,1,1,0,0,0,.421-.576,5.66,5.66,0,0,0,.053-1.057V356.7a3.188,3.188,0,0,0-.351-1.72,1.509,1.509,0,0,0-1.313-.683,2.367,2.367,0,0,0-1.141.311,4.4,4.4,0,0,0-1.367,1.056V360.9a3.569,3.569,0,0,0,.134,1.248.919.919,0,0,0,.393.434,2.562,2.562,0,0,0,1.062.142v.385h-4.835v-.385a2.166,2.166,0,0,0,.939-.142.933.933,0,0,0,.406-.46,3.539,3.539,0,0,0,.138-1.222v-3.735a13.472,13.472,0,0,0-.1-2.081.852.852,0,0,0-.235-.486.662.662,0,0,0-.437-.134,2.041,2.041,0,0,0-.716.16l-.16-.384,2.947-1.195h.458Z" transform="translate(-308.637 -347.934)" fill="#1a1818"/>
        <path id="Path_341" data-name="Path 341" d="M405.263,355v7.855a3.609,3.609,0,0,0,.133,1.223.948.948,0,0,0,.4.453,2.11,2.11,0,0,0,.955.149v.385H402v-.385a2.187,2.187,0,0,0,.96-.139.929.929,0,0,0,.389-.458,3.422,3.422,0,0,0,.144-1.227v-3.768a13.558,13.558,0,0,0-.094-2.06.835.835,0,0,0-.236-.474.659.659,0,0,0-.437-.134,2.126,2.126,0,0,0-.725.16l-.149-.384L404.793,355Zm-.886-5.112a1.073,1.073,0,0,1,1.077,1.077,1.054,1.054,0,0,1-.314.768,1.028,1.028,0,0,1-.763.322,1.083,1.083,0,1,1,0-2.166Z" transform="translate(-301.903 -349.889)" fill="#1a1818"/>
        <path id="Path_342" data-name="Path 342" d="M409,349.889v12.966a3.531,3.531,0,0,0,.134,1.216.951.951,0,0,0,.41.455,2.387,2.387,0,0,0,1.036.154v.385h-4.793v-.385a2.049,2.049,0,0,0,.918-.139.914.914,0,0,0,.384-.458,3.574,3.574,0,0,0,.139-1.227v-8.88a15.325,15.325,0,0,0-.074-2.034.9.9,0,0,0-.24-.517.628.628,0,0,0-.423-.139,2,2,0,0,0-.7.17l-.181-.372,2.913-1.195Z" transform="translate(-299.547 -349.889)" fill="#1a1818"/>
        <path id="Path_343" data-name="Path 343" d="M409.033,353.224h4.558v.4h-.223a1.078,1.078,0,0,0-.721.207.658.658,0,0,0-.241.518,2.917,2.917,0,0,0,.353,1.153l2.38,4.931,2.188-5.4a2.276,2.276,0,0,0,.181-.865.461.461,0,0,0-.075-.288.553.553,0,0,0-.267-.186,1.948,1.948,0,0,0-.64-.07v-.4h3.18v.4a1.522,1.522,0,0,0-.609.17,1.781,1.781,0,0,0-.469.479,7.217,7.217,0,0,0-.363.823l-3.982,9.756a5.032,5.032,0,0,1-1.509,2.145,2.979,2.979,0,0,1-1.8.727,1.489,1.489,0,0,1-1.035-.364,1.092,1.092,0,0,1-.406-.831.935.935,0,0,1,.293-.722,1.147,1.147,0,0,1,.806-.272,2.866,2.866,0,0,1,.96.235,2.285,2.285,0,0,0,.533.16,1.106,1.106,0,0,0,.7-.332,3.5,3.5,0,0,0,.763-1.281l.693-1.7-3.512-7.374a5.532,5.532,0,0,0-.512-.823,1.546,1.546,0,0,0-1.227-.8Z" transform="translate(-297.38 -347.824)" fill="#1a1818"/>
        <path id="Path_344" data-name="Path 344" d="M423.429,357.038h6.724V352.9a4.79,4.79,0,0,0-.139-1.462.953.953,0,0,0-.447-.458,1.961,1.961,0,0,0-.972-.258h-.512v-.4h6.19v.4h-.513a2.023,2.023,0,0,0-.97.246.888.888,0,0,0-.465.517,5.113,5.113,0,0,0-.125,1.415v9.34a4.777,4.777,0,0,0,.139,1.451.95.95,0,0,0,.439.458,2.01,2.01,0,0,0,.981.257h.513v.4h-6.19v-.4h.512a1.539,1.539,0,0,0,1.292-.523,3.152,3.152,0,0,0,.266-1.643v-4.409h-6.724v4.409a4.776,4.776,0,0,0,.139,1.451.937.937,0,0,0,.448.458,1.946,1.946,0,0,0,.97.257h.525v.4h-6.2v-.4h.512a1.55,1.55,0,0,0,1.3-.523,3.257,3.257,0,0,0,.256-1.643V352.9a4.847,4.847,0,0,0-.139-1.462.956.956,0,0,0-.439-.458,2.01,2.01,0,0,0-.981-.258h-.512v-.4h6.2v.4h-.525a2.023,2.023,0,0,0-.97.246.915.915,0,0,0-.458.517,4.929,4.929,0,0,0-.13,1.415Z" transform="translate(-290.918 -349.62)" fill="#1a1818"/>
        <path id="Path_345" data-name="Path 345" d="M434.011,353.046a4.328,4.328,0,0,1,3.564,1.686,5.174,5.174,0,0,1,1.143,3.31,6.222,6.222,0,0,1-.63,2.655,4.471,4.471,0,0,1-4.194,2.712,4.14,4.14,0,0,1-3.512-1.762,5.444,5.444,0,0,1-1.1-3.329,5.909,5.909,0,0,1,.667-2.675,4.563,4.563,0,0,1,1.755-1.962A4.516,4.516,0,0,1,434.011,353.046Zm-.33.695a2.214,2.214,0,0,0-1.137.335,2.345,2.345,0,0,0-.923,1.179,5.678,5.678,0,0,0-.353,2.166,7.548,7.548,0,0,0,.848,3.682,2.528,2.528,0,0,0,2.236,1.55,2.087,2.087,0,0,0,1.708-.855,4.848,4.848,0,0,0,.672-2.934,6.689,6.689,0,0,0-1.122-4.1A2.307,2.307,0,0,0,433.681,353.741Z" transform="translate(-284.551 -347.934)" fill="#1a1818"/>
        <path id="Path_346" data-name="Path 346" d="M439.1,355.127c.711-.711,1.132-1.12,1.258-1.227a3.825,3.825,0,0,1,1.036-.63,2.927,2.927,0,0,1,1.1-.223,2.438,2.438,0,0,1,1.58.533,2.655,2.655,0,0,1,.886,1.548,7.252,7.252,0,0,1,1.857-1.681,3.29,3.29,0,0,1,1.558-.4,2.439,2.439,0,0,1,1.383.4,2.663,2.663,0,0,1,.955,1.308,5.87,5.87,0,0,1,.233,1.941V360.9a3.878,3.878,0,0,0,.139,1.26.909.909,0,0,0,.4.4,2,2,0,0,0,.941.165v.385h-4.825v-.385h.2a1.691,1.691,0,0,0,.981-.245.947.947,0,0,0,.353-.544,6.709,6.709,0,0,0,.044-1.036V356.7a3.569,3.569,0,0,0-.288-1.686,1.447,1.447,0,0,0-1.334-.683,2.526,2.526,0,0,0-1.137.283,6.108,6.108,0,0,0-1.383,1.049l-.021.118.021.46V360.9a4.021,4.021,0,0,0,.112,1.248.9.9,0,0,0,.421.411,2.43,2.43,0,0,0,1.057.165v.385h-4.94v-.385a2.285,2.285,0,0,0,1.114-.191,1.011,1.011,0,0,0,.423-.576,5.9,5.9,0,0,0,.052-1.057V356.7a3.171,3.171,0,0,0-.353-1.72,1.506,1.506,0,0,0-1.312-.683,2.358,2.358,0,0,0-1.142.311,4.365,4.365,0,0,0-1.367,1.056V360.9a3.624,3.624,0,0,0,.133,1.248.939.939,0,0,0,.4.434,2.562,2.562,0,0,0,1.062.142v.385H435.85v-.385a2.166,2.166,0,0,0,.939-.142.929.929,0,0,0,.4-.46,3.485,3.485,0,0,0,.139-1.222v-3.735a13.455,13.455,0,0,0-.1-2.081A.862.862,0,0,0,437,354.6a.661.661,0,0,0-.439-.134,2.048,2.048,0,0,0-.714.16l-.16-.384,2.947-1.195h.458Z" transform="translate(-280.584 -347.934)" fill="#1a1818"/>
        <path id="Path_347" data-name="Path 347" d="M448.1,357.021a5.006,5.006,0,0,0,1.056,3.415,3.219,3.219,0,0,0,2.508,1.239,2.723,2.723,0,0,0,1.669-.528,3.9,3.9,0,0,0,1.19-1.81l.33.215a5.087,5.087,0,0,1-1.3,2.662,3.482,3.482,0,0,1-2.7,1.2,3.948,3.948,0,0,1-3.017-1.37,5.264,5.264,0,0,1-1.253-3.689,5.577,5.577,0,0,1,1.286-3.912,4.2,4.2,0,0,1,3.229-1.4,3.61,3.61,0,0,1,2.7,1.083,3.967,3.967,0,0,1,1.056,2.9Zm0-.62h4.526a4.24,4.24,0,0,0-.225-1.323,2.132,2.132,0,0,0-.8-.939,2.008,2.008,0,0,0-1.106-.342,2.193,2.193,0,0,0-1.584.69A2.961,2.961,0,0,0,448.1,356.4Z" transform="translate(-273.841 -347.939)" fill="#1a1818"/>
      </g>
    </g>
  </g>
</svg>
