<?xml version="1.0" encoding="utf-8"?>
<!-- Generator: Adobe Illustrator 26.3.1, SVG Export Plug-In . SVG Version: 6.00 Build 0)  -->
<svg version="1.1" xmlns="http://www.w3.org/2000/svg" xmlns:xlink="http://www.w3.org/1999/xlink" x="0px" y="0px"
	 viewBox="0 0 500 340" style="enable-background:new 0 0 500 340;" xml:space="preserve">
<style type="text/css">
	.st0{fill:none;}
	.st1{fill:#202945;}
	.st2{font-family:'Lato-Semibold';}
	.st3{font-size:46px;}
</style>
<g id="Layer_1">
</g>
<g id="LATO_Light">
	<g>
		<rect x="7.3" y="259.5" class="st0" width="485.5" height="50.9"/>
		<text transform="matrix(1 0 0 1 41.4743 293.5657)" class="st1 st2 st3">Single Family Home</text>
		<g>
			<path class="st1" d="M47,87.1c0.3,0,0.6,0.1,0.9,0.2c0.3,0.1,0.6,0.3,0.9,0.6l5,5.3c-2.2,2.9-4.9,5-8.2,6.5
				c-3.3,1.5-7.2,2.2-11.7,2.2c-4.1,0-7.8-0.7-11.1-2.1c-3.3-1.4-6.1-3.4-8.3-5.8c-2.3-2.5-4-5.4-5.2-8.8C7.9,81.6,7.3,78,7.3,74
				c0-4.1,0.7-7.8,2.1-11.2c1.4-3.4,3.3-6.3,5.8-8.8c2.5-2.5,5.5-4.4,9-5.8c3.5-1.4,7.3-2.1,11.5-2.1c2,0,4,0.2,5.8,0.5
				c1.8,0.4,3.5,0.9,5.1,1.5c1.6,0.6,3,1.4,4.3,2.3c1.3,0.9,2.5,1.9,3.5,2.9l-4.3,5.7c-0.3,0.4-0.6,0.7-1,1
				c-0.4,0.3-0.9,0.4-1.6,0.4c-0.4,0-0.9-0.1-1.3-0.3c-0.4-0.2-0.8-0.4-1.3-0.7c-0.4-0.3-0.9-0.6-1.5-0.9c-0.5-0.3-1.2-0.6-1.9-0.9
				c-0.7-0.3-1.6-0.5-2.6-0.7c-1-0.2-2.1-0.3-3.5-0.3c-2.3,0-4.4,0.4-6.3,1.2c-1.9,0.8-3.5,2-4.9,3.5c-1.4,1.5-2.4,3.3-3.2,5.5
				c-0.8,2.1-1.1,4.5-1.1,7.2c0,2.8,0.4,5.3,1.1,7.4c0.8,2.2,1.8,4,3.1,5.5c1.3,1.5,2.8,2.6,4.6,3.4c1.7,0.8,3.6,1.2,5.6,1.2
				c1.1,0,2.2-0.1,3.1-0.2c0.9-0.1,1.8-0.3,2.6-0.6c0.8-0.3,1.6-0.6,2.3-1.1c0.7-0.4,1.5-1,2.2-1.6c0.3-0.3,0.6-0.5,1-0.6
				C46.2,87.2,46.6,87.1,47,87.1L47,87.1z"/>
			<path class="st1" d="M75.5,72.4h5.1c1.7,0,3.2-0.2,4.4-0.7c1.2-0.4,2.2-1,3-1.8c0.8-0.8,1.3-1.7,1.7-2.7c0.3-1,0.5-2.1,0.5-3.3
				c0-2.4-0.8-4.3-2.3-5.6c-1.6-1.3-4-2-7.2-2h-5.1V72.4L75.5,72.4z M75.5,81.1v20.1H62.9V46.8h17.7c3.9,0,7.3,0.4,10.1,1.2
				c2.8,0.8,5,1.9,6.8,3.4c1.8,1.4,3,3.2,3.8,5.1c0.8,2,1.2,4.1,1.2,6.4c0,1.8-0.2,3.4-0.7,5c-0.5,1.6-1.2,3-2.1,4.3
				c-0.9,1.3-2.1,2.5-3.4,3.6c-1.4,1-2.9,1.9-4.7,2.6c0.8,0.4,1.6,0.9,2.4,1.6c0.7,0.6,1.4,1.4,1.9,2.3l11.6,18.9H96
				c-2.1,0-3.6-0.8-4.6-2.4l-9-15.8c-0.4-0.7-0.9-1.2-1.4-1.5c-0.5-0.3-1.3-0.4-2.3-0.4H75.5L75.5,81.1z"/>
			<path class="st1" d="M133.2,80.4h14.9l-5-14.9c-0.3-0.9-0.7-2.1-1.1-3.3c-0.4-1.3-0.9-2.7-1.3-4.2c-0.4,1.5-0.8,2.9-1.2,4.2
				c-0.4,1.3-0.8,2.4-1.2,3.4L133.2,80.4L133.2,80.4z M168.2,101.2h-9.8c-1.1,0-2-0.3-2.7-0.8c-0.7-0.5-1.2-1.2-1.5-2L151,89h-20.7
				l-3.2,9.5c-0.2,0.7-0.7,1.3-1.5,1.9c-0.7,0.6-1.6,0.8-2.7,0.8h-9.9l21.1-54.4h12.9L168.2,101.2L168.2,101.2z"/>
			<polygon class="st1" points="209.6,46.8 209.6,56.5 187.2,56.5 187.2,70.3 205.8,70.3 205.8,80 187.2,80 187.2,101.2 
				174.5,101.2 174.5,46.8 209.6,46.8 			"/>
			<polygon class="st1" points="259.1,46.8 259.1,56.8 243.8,56.8 243.8,101.2 231.2,101.2 231.2,56.8 215.9,56.8 215.9,46.8 
				259.1,46.8 			"/>
			<path class="st1" d="M294.1,79.3c0.5,1,0.9,2.1,1.3,3.1c0.4-1.1,0.9-2.2,1.3-3.2c0.5-1,1-2,1.5-3l14-27.5
				c0.2-0.5,0.5-0.8,0.8-1.1c0.3-0.3,0.6-0.5,0.9-0.6c0.3-0.1,0.7-0.2,1.1-0.2c0.4,0,0.9,0,1.4,0h9.6v54.4h-11.1V69.9
				c0-1.5,0.1-3.2,0.2-4.9l-14.4,28c-0.5,0.9-1.1,1.5-1.8,2c-0.8,0.4-1.6,0.7-2.6,0.7h-1.7c-1,0-1.8-0.2-2.6-0.7
				c-0.8-0.5-1.4-1.1-1.8-2l-14.5-28c0.1,0.9,0.2,1.7,0.2,2.6c0,0.9,0.1,1.6,0.1,2.4v31.3h-11.1V46.8h9.6c0.5,0,1,0,1.4,0
				c0.4,0,0.8,0.1,1.1,0.2c0.3,0.1,0.6,0.3,0.9,0.6c0.3,0.3,0.5,0.6,0.8,1.1l14,27.6C293.1,77.3,293.6,78.2,294.1,79.3L294.1,79.3z"
				/>
			<path class="st1" d="M351.1,80.4H366l-5-14.9c-0.3-0.9-0.7-2.1-1.1-3.3c-0.4-1.3-0.9-2.7-1.3-4.2c-0.4,1.5-0.8,2.9-1.2,4.2
				c-0.4,1.3-0.8,2.4-1.2,3.4L351.1,80.4L351.1,80.4z M386.1,101.2h-9.8c-1.1,0-2-0.3-2.7-0.8c-0.7-0.5-1.2-1.2-1.5-2l-3.2-9.5
				h-20.7l-3.2,9.5c-0.3,0.7-0.7,1.3-1.5,1.9c-0.7,0.6-1.6,0.8-2.6,0.8H331l21.1-54.4H365L386.1,101.2L386.1,101.2z"/>
			<path class="st1" d="M405,72.4h5.1c1.7,0,3.2-0.2,4.4-0.7c1.2-0.4,2.2-1,3-1.8c0.8-0.8,1.3-1.7,1.7-2.7c0.3-1,0.5-2.1,0.5-3.3
				c0-2.4-0.8-4.3-2.3-5.6c-1.6-1.3-4-2-7.2-2H405V72.4L405,72.4z M405,81.1v20.1h-12.6V46.8h17.7c3.9,0,7.3,0.4,10.1,1.2
				c2.8,0.8,5,1.9,6.8,3.4c1.8,1.4,3,3.2,3.8,5.1c0.8,2,1.2,4.1,1.2,6.4c0,1.8-0.2,3.4-0.7,5c-0.5,1.6-1.2,3-2.1,4.3
				c-0.9,1.3-2.1,2.5-3.4,3.6c-1.4,1-2.9,1.9-4.7,2.6c0.8,0.4,1.6,0.9,2.4,1.6c0.7,0.6,1.4,1.4,1.9,2.3l11.6,18.9h-11.4
				c-2.1,0-3.6-0.8-4.6-2.4l-9-15.8c-0.4-0.7-0.9-1.2-1.4-1.5c-0.5-0.3-1.3-0.4-2.3-0.4H405L405,81.1z"/>
			<path class="st1" d="M456.7,68.8h2c1.9,0,3.2-0.6,4-1.8L475,49.3c0.7-1,1.4-1.6,2.3-2c0.9-0.3,1.9-0.5,3.2-0.5h11l-16.1,22
				c-0.6,0.8-1.2,1.5-1.8,2c-0.6,0.5-1.3,1-1.9,1.3c0.9,0.3,1.8,0.8,2.6,1.4c0.8,0.6,1.5,1.4,2.1,2.4l16.4,25.3h-11.3
				c-0.7,0-1.3,0-1.8-0.2c-0.5-0.1-1-0.2-1.3-0.4c-0.4-0.2-0.7-0.4-1-0.7c-0.3-0.3-0.5-0.6-0.8-1l-12.3-18.9c-0.4-0.7-1-1.2-1.7-1.5
				c-0.7-0.3-1.6-0.4-2.8-0.4h-3.1v23.2H444V46.8h12.6V68.8L456.7,68.8z"/>
			<polygon class="st1" points="161.5,187.5 148.8,187.5 148.8,164.5 126.6,164.5 126.6,187.5 113.9,187.5 113.9,133.1 126.6,133.1 
				126.6,155.9 148.8,155.9 148.8,133.1 161.5,133.1 161.5,187.5 			"/>
			<path class="st1" d="M213.2,160.3c0-2.7-0.4-5.1-1.1-7.3c-0.7-2.2-1.7-4-3-5.5c-1.3-1.5-2.9-2.6-4.8-3.4c-1.9-0.8-4-1.2-6.5-1.2
				c-2.4,0-4.6,0.4-6.5,1.2c-1.9,0.8-3.5,1.9-4.8,3.4c-1.3,1.5-2.3,3.3-3,5.5c-0.7,2.2-1,4.6-1,7.3c0,2.7,0.3,5.1,1,7.3
				c0.7,2.2,1.7,4,3,5.5c1.3,1.5,2.9,2.6,4.8,3.4c1.9,0.8,4.1,1.2,6.5,1.2c2.4,0,4.6-0.4,6.5-1.2c1.9-0.8,3.5-1.9,4.8-3.4
				c1.3-1.5,2.3-3.3,3-5.5C212.8,165.4,213.2,163,213.2,160.3L213.2,160.3z M226.1,160.3c0,3.9-0.7,7.6-2,11
				c-1.4,3.4-3.3,6.3-5.7,8.8c-2.5,2.5-5.4,4.5-8.9,5.9c-3.5,1.4-7.3,2.1-11.6,2.1c-4.2,0-8.1-0.7-11.6-2.1
				c-3.5-1.4-6.5-3.4-8.9-5.9c-2.5-2.5-4.4-5.4-5.8-8.8c-1.4-3.4-2-7-2-11c0-3.9,0.7-7.6,2-11c1.4-3.4,3.3-6.3,5.8-8.8
				c2.5-2.5,5.5-4.4,8.9-5.9c3.5-1.4,7.3-2.1,11.6-2.1c4.2,0,8.1,0.7,11.6,2.2c3.5,1.4,6.4,3.4,8.9,5.9c2.5,2.5,4.4,5.4,5.7,8.8
				C225.4,152.7,226.1,156.4,226.1,160.3L226.1,160.3z"/>
			<path class="st1" d="M263.4,165.6c0.5,1,0.9,2.1,1.3,3.1c0.4-1.1,0.9-2.2,1.3-3.2c0.5-1,1-2,1.5-3l14-27.5
				c0.2-0.5,0.5-0.8,0.8-1.1c0.3-0.3,0.6-0.5,0.9-0.6c0.3-0.1,0.7-0.2,1.1-0.2c0.4,0,0.9,0,1.4,0h9.6v54.4h-11.1v-31.3
				c0-1.5,0.1-3.2,0.2-4.9l-14.4,28c-0.4,0.9-1,1.5-1.8,2c-0.8,0.4-1.6,0.7-2.6,0.7h-1.7c-1,0-1.8-0.2-2.6-0.7
				c-0.8-0.4-1.4-1.1-1.8-2l-14.5-28c0.1,0.9,0.2,1.7,0.2,2.6c0,0.9,0.1,1.7,0.1,2.4v31.3h-11.1v-54.4h9.6c0.5,0,1,0,1.4,0
				c0.4,0,0.8,0.1,1.1,0.2c0.3,0.1,0.6,0.3,0.9,0.6c0.3,0.3,0.5,0.6,0.8,1.1l14,27.6C262.4,163.6,262.9,164.6,263.4,165.6
				L263.4,165.6z"/>
			<polygon class="st1" points="341.2,133.1 341.2,142.8 318.9,142.8 318.9,155.5 336,155.5 336,164.9 318.9,164.9 318.9,177.8 
				341.2,177.8 341.2,187.5 306.2,187.5 306.2,133.1 341.2,133.1 			"/>
			<path class="st1" d="M382.2,144.2c-0.4,0.6-0.8,1-1.2,1.3c-0.4,0.3-0.9,0.4-1.6,0.4c-0.6,0-1.2-0.2-1.8-0.5
				c-0.7-0.4-1.4-0.8-2.2-1.2c-0.8-0.4-1.8-0.9-2.9-1.2c-1.1-0.4-2.3-0.5-3.7-0.5c-2.4,0-4.1,0.5-5.3,1.5c-1.2,1-1.7,2.4-1.7,4.1
				c0,1.1,0.3,2,1,2.7c0.7,0.7,1.6,1.3,2.7,1.9c1.1,0.5,2.4,1,3.9,1.4c1.5,0.4,2.9,0.9,4.5,1.5c1.5,0.5,3,1.2,4.5,1.9
				c1.5,0.7,2.8,1.6,3.9,2.8c1.1,1.1,2.1,2.5,2.7,4.1c0.7,1.6,1,3.5,1,5.8c0,2.5-0.4,4.9-1.3,7.1c-0.9,2.2-2.1,4.1-3.8,5.7
				c-1.7,1.6-3.7,2.9-6.1,3.8c-2.4,0.9-5.2,1.4-8.3,1.4c-1.7,0-3.4-0.2-5.2-0.5c-1.8-0.3-3.5-0.8-5.1-1.5c-1.6-0.6-3.2-1.4-4.6-2.3
				c-1.4-0.9-2.7-1.8-3.8-2.9l3.7-5.9c0.3-0.5,0.7-0.8,1.2-1.1c0.5-0.3,1-0.4,1.6-0.4c0.7,0,1.5,0.2,2.3,0.7c0.8,0.5,1.6,1,2.6,1.6
				c1,0.6,2.1,1.1,3.3,1.6c1.2,0.5,2.7,0.7,4.4,0.7c2.3,0,4.1-0.5,5.3-1.5c1.3-1,1.9-2.6,1.9-4.8c0-1.3-0.3-2.3-1-3.1
				c-0.7-0.8-1.6-1.5-2.7-2c-1.1-0.5-2.4-1-3.9-1.4c-1.4-0.4-2.9-0.8-4.4-1.3c-1.5-0.5-3-1.1-4.4-1.8c-1.4-0.7-2.7-1.6-3.9-2.8
				c-1.1-1.2-2-2.6-2.7-4.3c-0.7-1.7-1-3.9-1-6.4c0-2,0.4-4,1.2-6c0.8-1.9,2-3.7,3.6-5.2c1.6-1.5,3.6-2.7,5.9-3.6
				c2.3-0.9,5-1.4,8-1.4c1.7,0,3.3,0.1,4.9,0.4c1.6,0.3,3.1,0.6,4.5,1.2c1.4,0.5,2.7,1.1,4,1.8c1.2,0.7,2.3,1.5,3.3,2.4L382.2,144.2
				L382.2,144.2z"/>
			<g>
				<polygon class="st1" points="492.7,9.2 7.3,9.2 7.3,5 492.7,5 492.7,9.2 				"/>
				<polygon class="st1" points="492.7,225.8 7.3,225.8 7.3,221.7 492.7,221.7 492.7,225.8 				"/>
			</g>
			<path class="st1" d="M405.9,135h2.4c0.8,0,1.4-0.1,1.9-0.2c0.5-0.1,1-0.4,1.3-0.6c0.3-0.3,0.6-0.6,0.7-1c0.1-0.4,0.2-0.9,0.2-1.4
				c0-0.5-0.1-1-0.2-1.3c-0.1-0.4-0.3-0.7-0.6-0.9c-0.3-0.2-0.7-0.4-1.2-0.6c-0.5-0.1-1.1-0.2-1.8-0.2h-2.7V135L405.9,135z
				 M405.9,137.3v7.3h-3.2v-18.4h5.9c2.4,0,4.1,0.4,5.3,1.3c1.1,0.9,1.7,2.1,1.7,3.8c0,1.3-0.4,2.4-1.1,3.3
				c-0.7,0.9-1.8,1.5-3.3,1.9c0.2,0.1,0.4,0.3,0.6,0.5c0.2,0.2,0.3,0.4,0.5,0.7l4.7,6.9h-3c-0.5,0-0.8-0.2-1-0.5l-4.1-6.2
				c-0.1-0.2-0.3-0.3-0.4-0.4c-0.2-0.1-0.4-0.1-0.8-0.1H405.9L405.9,137.3z M395.9,135.5c0,1.2,0.2,2.4,0.5,3.5
				c0.3,1.1,0.7,2.2,1.3,3.2c0.6,1,1.2,1.9,2,2.7c0.8,0.8,1.6,1.5,2.6,2c1,0.6,2,1,3.1,1.3c1.1,0.3,2.3,0.5,3.5,0.5
				c1.8,0,3.5-0.3,5.1-1c1.6-0.7,3-1.6,4.1-2.8c1.2-1.2,2.1-2.6,2.8-4.2c0.7-1.6,1-3.3,1-5.2c0-1.2-0.2-2.4-0.5-3.5
				c-0.3-1.1-0.7-2.2-1.3-3.2c-0.6-1-1.2-1.9-2-2.7c-0.8-0.8-1.7-1.5-2.6-2.1c-1-0.6-2-1-3.1-1.3c-1.1-0.3-2.3-0.5-3.5-0.5
				c-1.8,0-3.5,0.3-5.1,1c-1.6,0.7-3,1.6-4.1,2.8c-1.2,1.2-2.1,2.6-2.8,4.2C396.3,131.9,395.9,133.6,395.9,135.5L395.9,135.5z
				 M393.9,135.5c0-1.4,0.2-2.7,0.5-4c0.4-1.3,0.9-2.5,1.5-3.6c0.7-1.1,1.4-2.1,2.4-3c0.9-0.9,1.9-1.7,3-2.4
				c1.1-0.7,2.3-1.2,3.6-1.5c1.3-0.4,2.6-0.5,4-0.5c1.4,0,2.7,0.2,4,0.5c1.3,0.4,2.5,0.9,3.6,1.5c1.1,0.7,2.1,1.4,3,2.4
				c0.9,0.9,1.7,1.9,2.4,3c0.6,1.1,1.2,2.3,1.5,3.6c0.4,1.3,0.5,2.6,0.5,4c0,1.4-0.2,2.7-0.5,4c-0.4,1.3-0.9,2.5-1.5,3.6
				c-0.7,1.1-1.4,2.1-2.4,3c-0.9,0.9-1.9,1.7-3,2.4c-1.1,0.7-2.3,1.2-3.6,1.5c-1.3,0.4-2.6,0.5-4,0.5c-1.4,0-2.7-0.2-4-0.5
				c-1.3-0.4-2.5-0.9-3.6-1.5c-1.1-0.7-2.1-1.4-3-2.4c-0.9-0.9-1.7-1.9-2.4-3c-0.6-1.1-1.2-2.3-1.5-3.6
				C394.1,138.2,393.9,136.8,393.9,135.5L393.9,135.5z"/>
		</g>
	</g>
</g>
<g id="_x3C_Layer_x3E_">
</g>
</svg>
