<svg xmlns="http://www.w3.org/2000/svg" xmlns:xlink="http://www.w3.org/1999/xlink" width="265" height="77" viewBox="0 0 265 77">
  <defs>
    <clipPath id="clip-B3_23">
      <rect width="265" height="77"/>
    </clipPath>
  </defs>
  <g id="B3_23" data-name="B3 – 23" clip-path="url(#clip-B3_23)">
    <g id="Group_37" data-name="Group 37" transform="translate(-117.685 -364.173)">
      <path id="Path_170" data-name="Path 170" d="M131.618,435.607a.838.838,0,0,1,.3.056.8.8,0,0,1,.289.194l1.68,1.767a6.959,6.959,0,0,1-2.765,2.175,9.652,9.652,0,0,1-3.93.734,9.361,9.361,0,0,1-3.729-.708,8.081,8.081,0,0,1-2.8-1.956,8.6,8.6,0,0,1-1.761-2.959,10.909,10.909,0,0,1-.614-3.716,9.786,9.786,0,0,1,.7-3.756,8.646,8.646,0,0,1,4.976-4.881,10.5,10.5,0,0,1,3.874-.69,9.887,9.887,0,0,1,1.937.181,9.476,9.476,0,0,1,1.7.5,8.044,8.044,0,0,1,1.454.764,7.054,7.054,0,0,1,1.179.985l-1.43,1.918a1.794,1.794,0,0,1-.326.319.849.849,0,0,1-.527.145.94.94,0,0,1-.426-.1,4.711,4.711,0,0,1-.426-.245l-.495-.313a3.732,3.732,0,0,0-.639-.312,5.222,5.222,0,0,0-.865-.246,5.983,5.983,0,0,0-1.16-.1,5.3,5.3,0,0,0-2.106.408,4.612,4.612,0,0,0-1.636,1.166,5.409,5.409,0,0,0-1.066,1.836,7.2,7.2,0,0,0-.382,2.42,7.525,7.525,0,0,0,.382,2.495,5.507,5.507,0,0,0,1.041,1.837,4.429,4.429,0,0,0,1.536,1.133,4.576,4.576,0,0,0,1.88.388,8.933,8.933,0,0,0,1.053-.055,4.3,4.3,0,0,0,.884-.2,4.018,4.018,0,0,0,.777-.357,5.178,5.178,0,0,0,.746-.545,1.529,1.529,0,0,1,.326-.208.872.872,0,0,1,.364-.08Z" fill="#fff"/>
      <path id="Path_171" data-name="Path 171" d="M141.208,430.654h1.705a4.337,4.337,0,0,0,1.472-.219,2.642,2.642,0,0,0,1-.608,2.311,2.311,0,0,0,.564-.908,3.5,3.5,0,0,0,.176-1.123,2.352,2.352,0,0,0-.784-1.88,3.642,3.642,0,0,0-2.425-.677h-1.705v5.415Zm0,2.922v6.756H136.97V422.067h5.943a12.177,12.177,0,0,1,3.378.408,6.368,6.368,0,0,1,2.282,1.134,4.3,4.3,0,0,1,1.285,1.717,5.7,5.7,0,0,1,.4,2.157,5.826,5.826,0,0,1-.238,1.68,5.107,5.107,0,0,1-.709,1.46,5.461,5.461,0,0,1-1.154,1.2,6.087,6.087,0,0,1-1.573.866,4.058,4.058,0,0,1,.8.526,3.164,3.164,0,0,1,.645.765l3.886,6.356h-3.836a1.628,1.628,0,0,1-1.529-.8l-3.034-5.3a1.276,1.276,0,0,0-.47-.5,1.567,1.567,0,0,0-.758-.15Z" fill="#fff"/>
      <path id="Path_172" data-name="Path 172" d="M160.563,433.35h4.99l-1.68-5q-.163-.479-.382-1.123t-.433-1.4q-.2.765-.413,1.416t-.4,1.129l-1.68,4.977Zm11.735,6.982h-3.286a1.512,1.512,0,0,1-.908-.257,1.324,1.324,0,0,1-.5-.658l-1.078-3.185h-6.945l-1.079,3.185a1.446,1.446,0,0,1-1.378.915h-3.31l7.071-18.265h4.337l7.071,18.265Z" fill="#fff"/>
      <path id="Path_173" data-name="Path 173" d="M186.187,422.067v3.259h-7.5v4.627h6.243v3.273h-6.243v7.107h-4.262V422.067Z" fill="#fff"/>
      <path id="Path_174" data-name="Path 174" d="M202.811,422.067v3.36h-5.14v14.906h-4.237V425.426h-5.139v-3.36Z" fill="#fff"/>
      <path id="Path_175" data-name="Path 175" d="M214.537,432.972q.232.516.445,1.054.213-.552.452-1.072t.489-1.01l4.689-9.237a1.485,1.485,0,0,1,.256-.37.84.84,0,0,1,.295-.194,1.017,1.017,0,0,1,.369-.062h3.717v18.251h-3.735V429.827c0-.51.025-1.061.075-1.656l-4.838,9.39a1.617,1.617,0,0,1-.609.666,1.694,1.694,0,0,1-.871.225h-.577a1.694,1.694,0,0,1-.871-.225,1.608,1.608,0,0,1-.608-.666l-4.864-9.4c.033.293.058.583.075.872s.025.553.025.8v10.505h-3.736V422.081h3.717a1.018,1.018,0,0,1,.37.062.84.84,0,0,1,.295.194,1.54,1.54,0,0,1,.257.37l4.7,9.274c.166.317.328.648.482.991Z" fill="#fff"/>
      <path id="Path_176" data-name="Path 176" d="M233.674,433.35h4.99l-1.681-5q-.162-.479-.382-1.123t-.433-1.4q-.2.765-.413,1.416t-.4,1.129l-1.68,4.977Zm11.734,6.982h-3.285a1.517,1.517,0,0,1-.909-.257,1.33,1.33,0,0,1-.5-.658l-1.078-3.185H232.7l-1.078,3.185a1.446,1.446,0,0,1-1.379.915H226.93L234,422.067h4.338l7.07,18.265Z" fill="#fff"/>
      <path id="Path_177" data-name="Path 177" d="M251.776,430.654h1.706a4.341,4.341,0,0,0,1.472-.219,2.65,2.65,0,0,0,1-.608,2.311,2.311,0,0,0,.564-.908,3.47,3.47,0,0,0,.176-1.123,2.349,2.349,0,0,0-.784-1.88,3.642,3.642,0,0,0-2.425-.677h-1.706v5.415Zm0,2.922v6.756h-4.237V422.067h5.943a12.177,12.177,0,0,1,3.378.408,6.39,6.39,0,0,1,2.283,1.134,4.282,4.282,0,0,1,1.283,1.717,5.683,5.683,0,0,1,.4,2.157,5.758,5.758,0,0,1-.238,1.68,5.053,5.053,0,0,1-.708,1.46,5.438,5.438,0,0,1-1.154,1.2,6.08,6.08,0,0,1-1.572.866,4.021,4.021,0,0,1,.8.526,3.165,3.165,0,0,1,.645.765l3.887,6.356h-3.836a1.628,1.628,0,0,1-1.53-.8l-3.034-5.3a1.269,1.269,0,0,0-.47-.5,1.564,1.564,0,0,0-.758-.15Z" fill="#fff"/>
      <path id="Path_178" data-name="Path 178" d="M269.1,429.464h.676a1.542,1.542,0,0,0,1.355-.589l4.112-5.968a1.756,1.756,0,0,1,.77-.665,2.82,2.82,0,0,1,1.059-.175h3.687l-5.417,7.384a3.57,3.57,0,0,1-.6.664,3.785,3.785,0,0,1-.639.44,3.216,3.216,0,0,1,.87.482,3.184,3.184,0,0,1,.721.821l5.516,8.474h-3.786a3.25,3.25,0,0,1-.62-.05,1.586,1.586,0,0,1-.444-.149,1.311,1.311,0,0,1-.327-.246,2.454,2.454,0,0,1-.263-.331l-4.138-6.357a1.236,1.236,0,0,0-.57-.495,2.5,2.5,0,0,0-.934-.144H269.1v7.772h-4.237V422.067H269.1v7.4Z" fill="#fff"/>
      <path id="Path_179" data-name="Path 179" d="M306.86,440.332H302.6V432.61h-7.42v7.723h-4.263V422.067h4.263V429.7h7.42v-7.635h4.263v18.266Z" fill="#fff"/>
      <path id="Path_180" data-name="Path 180" d="M324.21,431.194a7.9,7.9,0,0,0-.352-2.439,5.184,5.184,0,0,0-1.008-1.836,4.341,4.341,0,0,0-1.612-1.154,5.532,5.532,0,0,0-2.168-.4,5.611,5.611,0,0,0-2.187.4,4.323,4.323,0,0,0-1.618,1.154,5.169,5.169,0,0,0-1.009,1.836,8.687,8.687,0,0,0,0,4.889,5.157,5.157,0,0,0,1.009,1.837,4.263,4.263,0,0,0,1.618,1.147,5.705,5.705,0,0,0,2.187.4,5.624,5.624,0,0,0,2.168-.4,4.281,4.281,0,0,0,1.612-1.147,5.171,5.171,0,0,0,1.008-1.837,7.936,7.936,0,0,0,.352-2.45Zm4.337,0a9.842,9.842,0,0,1-.683,3.685,8.7,8.7,0,0,1-4.915,4.939,10.9,10.9,0,0,1-7.765,0,8.7,8.7,0,0,1-4.933-4.939,10.271,10.271,0,0,1,0-7.371,8.772,8.772,0,0,1,1.93-2.959,8.938,8.938,0,0,1,3-1.968,10.213,10.213,0,0,1,3.886-.714,10.1,10.1,0,0,1,3.879.721,8.958,8.958,0,0,1,2.991,1.973,8.848,8.848,0,0,1,1.924,2.959,9.815,9.815,0,0,1,.683,3.674Z" fill="#fff"/>
      <path id="Path_181" data-name="Path 181" d="M341.051,432.972q.232.516.446,1.054.211-.552.451-1.072t.488-1.01l4.69-9.237a1.485,1.485,0,0,1,.256-.37.837.837,0,0,1,.294-.194,1.022,1.022,0,0,1,.37-.062h3.718v18.251h-3.737V429.827c0-.51.026-1.061.076-1.656l-4.84,9.39a1.588,1.588,0,0,1-.608.666,1.69,1.69,0,0,1-.87.225h-.576a1.7,1.7,0,0,1-.873-.225,1.615,1.615,0,0,1-.608-.666l-4.863-9.4c.033.293.058.583.075.872s.025.553.025.8v10.505h-3.736V422.081h3.717a1.013,1.013,0,0,1,.369.062.831.831,0,0,1,.295.194,1.57,1.57,0,0,1,.258.37l4.7,9.274q.252.476.483.991Z" fill="#fff"/>
      <path id="Path_182" data-name="Path 182" d="M367.184,422.067v3.259h-7.5v4.263h5.742v3.134h-5.742v4.35h7.5v3.259h-11.76V422.067Z" fill="#fff"/>
      <path id="Path_183" data-name="Path 183" d="M380.923,425.778a1.618,1.618,0,0,1-.395.451.88.88,0,0,1-.534.151,1.306,1.306,0,0,1-.62-.182c-.222-.121-.472-.258-.752-.408a6.314,6.314,0,0,0-.958-.407,3.846,3.846,0,0,0-1.229-.182,2.64,2.64,0,0,0-1.774.509,1.723,1.723,0,0,0-.584,1.372,1.267,1.267,0,0,0,.351.914,3,3,0,0,0,.923.627,9.549,9.549,0,0,0,1.3.483q.734.221,1.5.488a13.594,13.594,0,0,1,1.5.635,4.936,4.936,0,0,1,1.3.927,4.325,4.325,0,0,1,.922,1.373,4.873,4.873,0,0,1,.351,1.948,6.389,6.389,0,0,1-.439,2.371,5.587,5.587,0,0,1-1.272,1.924,5.93,5.93,0,0,1-2.058,1.291,7.712,7.712,0,0,1-2.776.47,8.816,8.816,0,0,1-1.735-.177,10.155,10.155,0,0,1-1.711-.494,9.786,9.786,0,0,1-1.555-.758,6.548,6.548,0,0,1-1.266-.978l1.254-1.98a.986.986,0,0,1,.387-.364,1.1,1.1,0,0,1,.54-.138,1.429,1.429,0,0,1,.758.238q.383.238.865.526a6.956,6.956,0,0,0,1.11.527,4.173,4.173,0,0,0,1.479.239,2.811,2.811,0,0,0,1.792-.509,1.934,1.934,0,0,0,.64-1.611,1.529,1.529,0,0,0-.351-1.04,2.724,2.724,0,0,0-.921-.664,8.53,8.53,0,0,0-1.3-.463q-.728-.2-1.492-.446a10.88,10.88,0,0,1-1.492-.6,4.642,4.642,0,0,1-1.3-.939,4.384,4.384,0,0,1-.922-1.454,5.757,5.757,0,0,1-.352-2.151,5.1,5.1,0,0,1,.414-2.005,5.187,5.187,0,0,1,1.216-1.742,6,6,0,0,1,1.968-1.223,7.281,7.281,0,0,1,2.671-.457,9.88,9.88,0,0,1,1.636.132,8.541,8.541,0,0,1,1.51.387,8.331,8.331,0,0,1,1.336.615,6.167,6.167,0,0,1,1.108.808l-1.052,1.969Z" fill="#fff"/>
      <path id="Path_184" data-name="Path 184" d="M382.315,408.677H118.253v-1.393H382.315v1.393Z" fill="#fff"/>
      <g id="Group_31" data-name="Group 31">
        <path id="Path_185" data-name="Path 185" d="M125.374,364.509q5.232,0,7.889,2.29a8.156,8.156,0,0,1,2.658,6.534,8.672,8.672,0,0,1-.735,3.592,8.091,8.091,0,0,1-2.1,2.826,9.747,9.747,0,0,1-3.319,1.849,13.646,13.646,0,0,1-4.391.661h-5.525v11.976h-2.164V364.509Zm0,16.03a10.55,10.55,0,0,0,3.509-.546,7.786,7.786,0,0,0,2.637-1.513,6.569,6.569,0,0,0,1.659-2.28,7.035,7.035,0,0,0,.578-2.867,6.652,6.652,0,0,0-2.1-5.273q-2.1-1.85-6.282-1.849h-5.525v14.328Z" fill="#fff"/>
        <path id="Path_186" data-name="Path 186" d="M159.324,394.237h-1.849a1.381,1.381,0,0,1-.6-.116,1.161,1.161,0,0,1-.451-.431l-9.538-12.059a2.965,2.965,0,0,0-.347-.4,1.359,1.359,0,0,0-.4-.262,2.056,2.056,0,0,0-.525-.137,5.6,5.6,0,0,0-.746-.042h-3.887v13.446h-2.164V364.509h7.606q5.125,0,7.678,1.986a6.935,6.935,0,0,1,2.553,5.83,7.97,7.97,0,0,1-.589,3.109,7.278,7.278,0,0,1-1.691,2.468,8.829,8.829,0,0,1-2.668,1.733,12.614,12.614,0,0,1-3.519.9,3.4,3.4,0,0,1,.9.84ZM146.13,379.2a12.242,12.242,0,0,0,3.54-.473,7.637,7.637,0,0,0,2.648-1.355,5.872,5.872,0,0,0,1.649-2.122,6.658,6.658,0,0,0,.567-2.794,5.473,5.473,0,0,0-2.07-4.706,10.042,10.042,0,0,0-6.039-1.534h-5.442V379.2Z" fill="#fff"/>
      </g>
      <g id="Group_32" data-name="Group 32">
        <path id="Path_187" data-name="Path 187" d="M165.837,394.237h-2.164V364.509h2.164Z" fill="#fff"/>
        <path id="Path_188" data-name="Path 188" d="M200,364.509v29.728h-1.87V368.9a11.245,11.245,0,0,1,.063-1.155l-11.7,20.777a.915.915,0,0,1-.84.546h-.336a.917.917,0,0,1-.841-.546L172.454,367.7a11.756,11.756,0,0,1,.063,1.2v25.337h-1.89V364.509h1.491a1.36,1.36,0,0,1,.463.063.765.765,0,0,1,.336.337l12,20.672a8.547,8.547,0,0,1,.546,1.26c.084-.223.175-.444.273-.661s.2-.424.316-.62l11.659-20.651a.746.746,0,0,1,.347-.337,1.449,1.449,0,0,1,.473-.063Z" fill="#fff"/>
      </g>
      <g id="Group_33" data-name="Group 33">
        <path id="Path_189" data-name="Path 189" d="M226.11,394.237h-1.849a1.385,1.385,0,0,1-.6-.116,1.168,1.168,0,0,1-.451-.431l-9.538-12.059a2.966,2.966,0,0,0-.347-.4,1.359,1.359,0,0,0-.4-.262,2.056,2.056,0,0,0-.525-.137,5.6,5.6,0,0,0-.746-.042h-3.887v13.446H205.6V364.509h7.606q5.126,0,7.679,1.986a6.937,6.937,0,0,1,2.552,5.83,7.988,7.988,0,0,1-.588,3.109,7.307,7.307,0,0,1-1.691,2.468,8.842,8.842,0,0,1-2.668,1.733,12.622,12.622,0,0,1-3.52.9,3.4,3.4,0,0,1,.9.84ZM212.916,379.2a12.237,12.237,0,0,0,3.54-.473,7.628,7.628,0,0,0,2.648-1.355,5.861,5.861,0,0,0,1.649-2.122,6.642,6.642,0,0,0,.567-2.794,5.475,5.475,0,0,0-2.069-4.706,10.046,10.046,0,0,0-6.04-1.534h-5.442V379.2Z" fill="#fff"/>
      </g>
      <g id="Group_34" data-name="Group 34">
        <path id="Path_190" data-name="Path 190" d="M255.333,379.363a18.041,18.041,0,0,1-1.029,6.25,13.862,13.862,0,0,1-2.9,4.79,12.819,12.819,0,0,1-4.486,3.067,15.881,15.881,0,0,1-11.523,0,12.84,12.84,0,0,1-4.475-3.067,13.861,13.861,0,0,1-2.9-4.79,19.431,19.431,0,0,1,0-12.479,13.857,13.857,0,0,1,2.9-4.791,12.961,12.961,0,0,1,4.475-3.078,14.767,14.767,0,0,1,5.756-1.092,14.945,14.945,0,0,1,5.767,1.082,12.728,12.728,0,0,1,4.486,3.078,13.967,13.967,0,0,1,2.9,4.8A17.964,17.964,0,0,1,255.333,379.363Zm-2.227,0a16.973,16.973,0,0,0-.861-5.589,11.942,11.942,0,0,0-2.437-4.2,10.506,10.506,0,0,0-3.781-2.636,13.4,13.4,0,0,0-9.727,0,10.612,10.612,0,0,0-3.793,2.636,12.012,12.012,0,0,0-2.458,4.2,18.4,18.4,0,0,0,0,11.187,12.02,12.02,0,0,0,2.458,4.192,10.5,10.5,0,0,0,3.793,2.626,13.548,13.548,0,0,0,9.727,0,10.4,10.4,0,0,0,3.781-2.626,11.95,11.95,0,0,0,2.437-4.192A16.935,16.935,0,0,0,253.106,379.363Z" fill="#fff"/>
        <path id="Path_191" data-name="Path 191" d="M273.464,368.123a.593.593,0,0,1-.547.357,1.2,1.2,0,0,1-.7-.389,9.363,9.363,0,0,0-1.166-.861,9.256,9.256,0,0,0-1.839-.872,9.226,9.226,0,0,0-5.567.063,5.958,5.958,0,0,0-2.059,1.26,5.37,5.37,0,0,0-1.26,1.85,5.738,5.738,0,0,0-.431,2.2,4.508,4.508,0,0,0,.641,2.5,5.754,5.754,0,0,0,1.691,1.681,10.931,10.931,0,0,0,2.385,1.166q1.333.473,2.741.935t2.742,1.019a9.887,9.887,0,0,1,2.384,1.4,6.412,6.412,0,0,1,1.691,2.069,6.557,6.557,0,0,1,.641,3.057,9.614,9.614,0,0,1-.641,3.519,8.215,8.215,0,0,1-1.859,2.868,8.731,8.731,0,0,1-2.983,1.922,10.825,10.825,0,0,1-4.034.7,11.4,11.4,0,0,1-5.063-1.04,11.938,11.938,0,0,1-3.719-2.847l.589-.924a.739.739,0,0,1,.588-.315.841.841,0,0,1,.483.252q.294.252.715.619t1.008.8a8.352,8.352,0,0,0,1.365.8,9.7,9.7,0,0,0,1.786.62,9.475,9.475,0,0,0,2.29.252,8.705,8.705,0,0,0,3.152-.536,6.88,6.88,0,0,0,2.342-1.46,6.19,6.19,0,0,0,1.46-2.195,7.315,7.315,0,0,0,.5-2.721,4.8,4.8,0,0,0-.64-2.6,5.524,5.524,0,0,0-1.692-1.7,10.909,10.909,0,0,0-2.384-1.145q-1.335-.462-2.742-.9t-2.741-.988a9.41,9.41,0,0,1-2.385-1.4,6.374,6.374,0,0,1-1.691-2.122,7.038,7.038,0,0,1-.641-3.183,7.537,7.537,0,0,1,.567-2.878,7.175,7.175,0,0,1,1.66-2.447,8.133,8.133,0,0,1,2.7-1.7,9.837,9.837,0,0,1,3.666-.641,11.079,11.079,0,0,1,4.149.736,9.945,9.945,0,0,1,3.351,2.247Z" fill="#fff"/>
        <path id="Path_192" data-name="Path 192" d="M296.215,392.451l-.042,1.786H278.358V364.509h17.815V366.3H280.522v12.017h13.025v1.744H280.522v12.395Z" fill="#fff"/>
      </g>
      <g id="Group_35" data-name="Group 35">
        <path id="Path_193" data-name="Path 193" d="M334.387,364.509v29.728h-2.165V379.993H313.609v14.244h-2.164V364.509h2.164v13.866h18.613V364.509Z" fill="#fff"/>
        <path id="Path_194" data-name="Path 194" d="M341.34,394.237h-2.163V364.509h2.163Z" fill="#fff"/>
      </g>
      <g id="Group_36" data-name="Group 36">
        <path id="Path_195" data-name="Path 195" d="M363.186,392.409v1.828H346.947V364.509h2.164v27.9Z" fill="#fff"/>
        <path id="Path_196" data-name="Path 196" d="M382.136,392.409v1.828H365.9V364.509h2.163v27.9Z" fill="#fff"/>
      </g>
    </g>
  </g>
</svg>
