<svg xmlns="http://www.w3.org/2000/svg" viewBox="0 0 141.53 82.64"><defs><style>.cls-1{fill:#231f20;}</style></defs><g id="Layer_2" data-name="Layer 2"><g id="_Layer_" data-name="&lt;Layer&gt;"><path class="cls-1" d="M10.38,75.19a3.26,3.26,0,0,1,.35-1.13,2.63,2.63,0,0,1,.65-.84,2.85,2.85,0,0,1,.93-.53,3.48,3.48,0,0,1,1.13-.18,3.69,3.69,0,0,1,1.07.16,2.55,2.55,0,0,1,.89.48,2.33,2.33,0,0,1,.6.78A2.45,2.45,0,0,1,16.22,75a2.42,2.42,0,0,1-.15.88,2.06,2.06,0,0,1-.41.68,2.43,2.43,0,0,1-.61.49,3.34,3.34,0,0,1-.78.31,2.72,2.72,0,0,1,1.65.84,2.36,2.36,0,0,1,.55,1.6,2.66,2.66,0,0,1-.24,1.13,2.86,2.86,0,0,1-.67.9,3.27,3.27,0,0,1-1,.59,3.7,3.7,0,0,1-1.26.21,3.79,3.79,0,0,1-1.41-.22,2.72,2.72,0,0,1-.93-.6,2.83,2.83,0,0,1-.57-.81,8.16,8.16,0,0,1-.33-.9l.27-.11a.45.45,0,0,1,.23,0,.21.21,0,0,1,.18.16,2.07,2.07,0,0,1,.1.26,2.5,2.5,0,0,0,.17.4,2.55,2.55,0,0,0,.29.44,2,2,0,0,0,.45.42,2.24,2.24,0,0,0,.64.31,3,3,0,0,0,.9.12,2.67,2.67,0,0,0,1.1-.21,2.4,2.4,0,0,0,.79-.54,2,2,0,0,0,.48-.73,2.05,2.05,0,0,0,.16-.78,2.32,2.32,0,0,0-.15-.84,1.47,1.47,0,0,0-.48-.68,2.35,2.35,0,0,0-.88-.45,4.83,4.83,0,0,0-1.36-.16V77.2A3.6,3.6,0,0,0,14.08,77a2.36,2.36,0,0,0,.82-.43,1.72,1.72,0,0,0,.49-.65,1.9,1.9,0,0,0,.17-.83,2.31,2.31,0,0,0-.17-.91,1.79,1.79,0,0,0-1.16-1,2.76,2.76,0,0,0-.82-.12,2.39,2.39,0,0,0-.86.15,2.23,2.23,0,0,0-.71.39,2.51,2.51,0,0,0-.51.61,2.9,2.9,0,0,0-.28.78.29.29,0,0,1-.11.2.38.38,0,0,1-.22,0Z"/><path class="cls-1" d="M25,77.58a7.9,7.9,0,0,1-.28,2.25A4.6,4.6,0,0,1,24,81.4a3,3,0,0,1-1.13.93,3.23,3.23,0,0,1-2.76,0A3,3,0,0,1,19,81.4a4.79,4.79,0,0,1-.76-1.57,9.22,9.22,0,0,1,0-4.51A4.79,4.79,0,0,1,19,73.75a3,3,0,0,1,1.13-.93,3.23,3.23,0,0,1,2.76,0,3,3,0,0,1,1.13.93,4.6,4.6,0,0,1,.76,1.57A8,8,0,0,1,25,77.58Zm-.7,0a7.7,7.7,0,0,0-.23-2.06,4.22,4.22,0,0,0-.62-1.4,2.34,2.34,0,0,0-.91-.79,2.44,2.44,0,0,0-2.19,0,2.49,2.49,0,0,0-.91.79,4.44,4.44,0,0,0-.62,1.4,9.34,9.34,0,0,0,0,4.12A4.48,4.48,0,0,0,19.45,81a2.49,2.49,0,0,0,.91.79,2.52,2.52,0,0,0,2.19,0,2.34,2.34,0,0,0,.91-.79,4.26,4.26,0,0,0,.62-1.39A7.75,7.75,0,0,0,24.31,77.58Z"/><path class="cls-1" d="M30.13,73h-2v5.42h-.42V73h-2V72.6h4.49Z"/><path class="cls-1" d="M35.56,72.6v5.77h-.42V75.6H31.52v2.77H31.1V72.6h.42v2.69h3.62V72.6Z"/><path class="cls-1" d="M48.75,82.53h-.56a.28.28,0,0,1-.16,0,.5.5,0,0,1-.1-.14l-1.16-2.87H41.91l-1.17,2.87a.31.31,0,0,1-.09.14.34.34,0,0,1-.17,0h-.55L44,72.63h.7Zm-2.2-3.6-2-5a4,4,0,0,1-.2-.59,3,3,0,0,1-.1.32,2.31,2.31,0,0,1-.1.28l-2,5Z"/><path class="cls-1" d="M58,72.63v9.9H57.7a.33.33,0,0,1-.15,0,.4.4,0,0,1-.12-.11L51,73.8c0,.14,0,.27,0,.4v8.33h-.63v-9.9h.36l.15,0a.37.37,0,0,1,.11.11l6.42,8.57c0-.13,0-.27,0-.39V72.63Z"/><path class="cls-1" d="M68.6,72.63v9.9h-.33a.33.33,0,0,1-.15,0,.4.4,0,0,1-.12-.11L61.57,73.8c0,.14,0,.27,0,.4v8.33H61v-9.9h.36l.15,0a.37.37,0,0,1,.11.11L68,81.33c0-.13,0-.27,0-.39V72.63Z"/><path class="cls-1" d="M72.25,82.53h-.72v-9.9h.72Z"/><path class="cls-1" d="M82.71,72.63l-4.09,9.9H78l-4.08-9.9h.56a.21.21,0,0,1,.16.05.24.24,0,0,1,.1.14L78.1,81c0,.11.07.22.11.33s.07.24.1.36l.09-.36c0-.11.07-.22.12-.33l3.36-8.21a.28.28,0,0,1,.1-.14.31.31,0,0,1,.17-.05Z"/><path class="cls-1" d="M90.3,81.94v.59H84.35v-9.9h5.94v.59H85.07v4h4.34v.58H85.07v4.13Z"/><path class="cls-1" d="M99.31,82.53h-.62a.4.4,0,0,1-.2,0,.39.39,0,0,1-.15-.14l-3.18-4-.11-.13a.42.42,0,0,0-.14-.09.43.43,0,0,0-.17,0l-.25,0h-1.3v4.48h-.72v-9.9H95a4.14,4.14,0,0,1,2.56.66,2.33,2.33,0,0,1,.85,1.94,2.71,2.71,0,0,1-.2,1,2.55,2.55,0,0,1-.56.82,3.11,3.11,0,0,1-.89.58,4.18,4.18,0,0,1-1.17.3,1.13,1.13,0,0,1,.3.28Zm-4.4-5a3.92,3.92,0,0,0,1.18-.16,2.36,2.36,0,0,0,.88-.45,1.92,1.92,0,0,0,.55-.71,2.12,2.12,0,0,0,.19-.93A1.84,1.84,0,0,0,97,73.7a3.35,3.35,0,0,0-2-.51H93.19v4.33Z"/><path class="cls-1" d="M105.78,73.83a.19.19,0,0,1-.18.12.41.41,0,0,1-.24-.13,2.46,2.46,0,0,0-.39-.29,3.18,3.18,0,0,0-.61-.29,2.6,2.6,0,0,0-.9-.13,2.75,2.75,0,0,0-.95.15,2.23,2.23,0,0,0-.69.42,1.85,1.85,0,0,0-.56,1.35,1.54,1.54,0,0,0,.21.84,1.91,1.91,0,0,0,.57.56,3.88,3.88,0,0,0,.79.39l.91.31a9.15,9.15,0,0,1,.92.34,3.41,3.41,0,0,1,.79.46,2.21,2.21,0,0,1,.56.69,2.14,2.14,0,0,1,.22,1,3,3,0,0,1-.22,1.17,2.67,2.67,0,0,1-.61,1,3.12,3.12,0,0,1-1,.64,3.52,3.52,0,0,1-1.34.23,3.8,3.8,0,0,1-1.69-.34,4.07,4.07,0,0,1-1.24-1l.2-.31a.23.23,0,0,1,.19-.1.22.22,0,0,1,.16.08l.24.21.34.26a2.44,2.44,0,0,0,.45.27,3.8,3.8,0,0,0,.6.21,3.48,3.48,0,0,0,.76.08,2.89,2.89,0,0,0,1.05-.18,2.21,2.21,0,0,0,.78-.49,2,2,0,0,0,.49-.73,2.44,2.44,0,0,0,.17-.9,1.65,1.65,0,0,0-.22-.87,1.76,1.76,0,0,0-.56-.56,3.5,3.5,0,0,0-.8-.39l-.91-.3c-.31-.1-.62-.21-.91-.33a3.15,3.15,0,0,1-.8-.46,2.18,2.18,0,0,1-.56-.71,2.38,2.38,0,0,1-.21-1.06,2.45,2.45,0,0,1,.19-1,2.24,2.24,0,0,1,.55-.81,2.57,2.57,0,0,1,.9-.57,3.32,3.32,0,0,1,1.22-.22,3.77,3.77,0,0,1,1.38.25,3.25,3.25,0,0,1,1.12.75Z"/><path class="cls-1" d="M115.85,82.53h-.56a.28.28,0,0,1-.16,0,.5.5,0,0,1-.1-.14l-1.16-2.87H109l-1.16,2.87a.45.45,0,0,1-.1.14.34.34,0,0,1-.17,0H107l4.06-9.9h.7Zm-2.19-3.6-2-5a4,4,0,0,1-.2-.59l-.09.32c0,.1-.07.19-.11.28l-2,5Z"/><path class="cls-1" d="M124.32,82.53h-.61a.4.4,0,0,1-.2,0,.29.29,0,0,1-.15-.14l-3.18-4-.12-.13a.38.38,0,0,0-.13-.09.47.47,0,0,0-.17,0l-.25,0h-1.3v4.48h-.72v-9.9H120a4.11,4.11,0,0,1,2.55.66,2.3,2.3,0,0,1,.85,1.94,2.71,2.71,0,0,1-.19,1,2.43,2.43,0,0,1-.57.82,3.06,3.06,0,0,1-.88.58,4.17,4.17,0,0,1-1.18.3,1,1,0,0,1,.3.28Zm-4.39-5a3.92,3.92,0,0,0,1.18-.16,2.44,2.44,0,0,0,.88-.45,1.92,1.92,0,0,0,.55-.71,2.27,2.27,0,0,0,.19-.93A1.84,1.84,0,0,0,122,73.7a3.35,3.35,0,0,0-2-.51h-1.82v4.33Z"/><path class="cls-1" d="M128.76,78.45v4.08h-.71V78.45l-3.67-5.82H125a.27.27,0,0,1,.16,0,.47.47,0,0,1,.11.13l2.83,4.55.17.31c.05.1.09.2.13.3,0-.1.08-.2.13-.3a3.07,3.07,0,0,1,.16-.31l2.83-4.55a.4.4,0,0,1,.1-.12.25.25,0,0,1,.17-.05h.63Z"/><path class="cls-1" d="M11.58,23.92a.85.85,0,0,1,.26,0,.92.92,0,0,1,.25.17l1.46,1.54a6.17,6.17,0,0,1-2.4,1.89,8.52,8.52,0,0,1-3.42.63,8.17,8.17,0,0,1-3.24-.61,7.15,7.15,0,0,1-2.43-1.7A7.6,7.6,0,0,1,.53,23.32,9.64,9.64,0,0,1,0,20.09a8.45,8.45,0,0,1,.61-3.26,7.69,7.69,0,0,1,1.7-2.57,7.89,7.89,0,0,1,2.62-1.67A9.14,9.14,0,0,1,8.3,12a8.61,8.61,0,0,1,3.16.59,7.56,7.56,0,0,1,1.26.67,5.68,5.68,0,0,1,1,.85L12.5,15.77a1.85,1.85,0,0,1-.28.28.76.76,0,0,1-.46.12.81.81,0,0,1-.37-.09,2.85,2.85,0,0,1-.37-.21l-.43-.27a3.13,3.13,0,0,0-.55-.27,4.32,4.32,0,0,0-.76-.22,5.78,5.78,0,0,0-1-.08,4.7,4.7,0,0,0-1.83.35,3.92,3.92,0,0,0-1.42,1A4.68,4.68,0,0,0,4.1,18a6.25,6.25,0,0,0-.33,2.1,6.6,6.6,0,0,0,.33,2.17A4.72,4.72,0,0,0,5,23.85a3.8,3.8,0,0,0,1.34,1A4.07,4.07,0,0,0,8,25.18a8.51,8.51,0,0,0,.92-.05A4.24,4.24,0,0,0,9.65,25a3.47,3.47,0,0,0,.68-.31,6.19,6.19,0,0,0,.65-.47,1.07,1.07,0,0,1,.28-.19A.88.88,0,0,1,11.58,23.92Z"/><path class="cls-1" d="M19.91,22.16V28H16.23V12.16h5.16a10.42,10.42,0,0,1,2.93.36,5.4,5.4,0,0,1,2,1A3.66,3.66,0,0,1,27.42,15a5.21,5.21,0,0,1,.14,3.34A4.65,4.65,0,0,1,27,19.6a5.22,5.22,0,0,1-1,1,5.55,5.55,0,0,1-1.36.75,3.15,3.15,0,0,1,.69.45,3.07,3.07,0,0,1,.56.67L29.21,28H25.87a1.39,1.39,0,0,1-1.32-.7l-2.64-4.6a1.1,1.1,0,0,0-.41-.44,1.31,1.31,0,0,0-.66-.13Zm0-2.54h1.48a3.75,3.75,0,0,0,1.28-.19,2.13,2.13,0,0,0,.86-.53,1.85,1.85,0,0,0,.49-.79,3,3,0,0,0,.16-1,2,2,0,0,0-.69-1.63,3.1,3.1,0,0,0-2.1-.59H19.91Z"/><path class="cls-1" d="M46.91,28H44.06a1.32,1.32,0,0,1-.79-.22,1.13,1.13,0,0,1-.43-.58l-.94-2.76h-6l-.94,2.76a1.22,1.22,0,0,1-.42.56,1.24,1.24,0,0,1-.77.24H30.86L37,12.16h3.77ZM36.72,22h4.33L39.6,17.62l-.34-1c-.12-.37-.25-.77-.37-1.21q-.18.66-.36,1.23c-.12.38-.24.71-.35,1Z"/><path class="cls-1" d="M59,12.16V15H52.47v4h5.42v2.85H52.47V28h-3.7V12.16Z"/><path class="cls-1" d="M73.42,12.16v2.92H69V28H65.27V15.08H60.81V12.16Z"/><path class="cls-1" d="M83.61,21.64c.13.29.26.6.38.91.13-.32.26-.63.4-.93s.28-.59.42-.88l4.07-8a1.26,1.26,0,0,1,.23-.32.7.7,0,0,1,.25-.17.83.83,0,0,1,.32-.06h3.23V28H89.67V18.9c0-.44,0-.92.06-1.43l-4.2,8.15a1.36,1.36,0,0,1-.53.58,1.46,1.46,0,0,1-.76.2h-.5a1.45,1.45,0,0,1-.75-.2,1.36,1.36,0,0,1-.53-.58l-4.23-8.16c0,.25,0,.5.07.75s0,.48,0,.69V28H75.07V12.17H78.3a.88.88,0,0,1,.33.06.79.79,0,0,1,.25.17,1,1,0,0,1,.22.32l4.09,8.06C83.33,21.05,83.47,21.34,83.61,21.64Z"/><path class="cls-1" d="M110.42,28h-2.85a1.32,1.32,0,0,1-.79-.22,1.13,1.13,0,0,1-.43-.58l-.94-2.76h-6l-.94,2.76a1.22,1.22,0,0,1-.42.56,1.24,1.24,0,0,1-.77.24H94.37l6.14-15.87h3.77ZM100.23,22h4.34l-1.46-4.34-.34-1c-.12-.37-.25-.77-.37-1.21q-.18.66-.36,1.23c-.12.38-.24.71-.35,1Z"/><path class="cls-1" d="M116,22.16V28h-3.68V12.16h5.16a10.42,10.42,0,0,1,2.93.36,5.4,5.4,0,0,1,2,1A3.66,3.66,0,0,1,123.47,15a5.21,5.21,0,0,1,.14,3.34A4.65,4.65,0,0,1,123,19.6a5.22,5.22,0,0,1-1,1,5.55,5.55,0,0,1-1.36.75,3.15,3.15,0,0,1,.69.45,3.07,3.07,0,0,1,.56.67L125.26,28h-3.34a1.39,1.39,0,0,1-1.32-.7L118,22.73a1.1,1.1,0,0,0-.41-.44,1.31,1.31,0,0,0-.66-.13Zm0-2.54h1.48a3.75,3.75,0,0,0,1.28-.19,2.13,2.13,0,0,0,.86-.53,1.85,1.85,0,0,0,.49-.79,3,3,0,0,0,.16-1,2,2,0,0,0-.69-1.63,3.1,3.1,0,0,0-2.1-.59H116Z"/><path class="cls-1" d="M131,18.59h.58a1.34,1.34,0,0,0,1.18-.51l3.57-5.19a1.55,1.55,0,0,1,.67-.57,2.3,2.3,0,0,1,.92-.16h3.2l-4.7,6.42a3.24,3.24,0,0,1-.52.57,3.33,3.33,0,0,1-.56.39,2.93,2.93,0,0,1,.76.41,2.61,2.61,0,0,1,.62.72l4.8,7.36h-3.29a2.83,2.83,0,0,1-.54,0,1.78,1.78,0,0,1-.39-.13,1,1,0,0,1-.28-.22,2.15,2.15,0,0,1-.23-.28l-3.59-5.53a1.15,1.15,0,0,0-.5-.43,2.23,2.23,0,0,0-.81-.12H131V28h-3.68V12.16H131Z"/><path class="cls-1" d="M45,53.2h-3.7V46.49H34.8V53.2H31.1V37.33h3.7V44h6.45V37.33H45Z"/><path class="cls-1" d="M63.79,45.26a8.67,8.67,0,0,1-.59,3.2,7.51,7.51,0,0,1-4.27,4.29,9.5,9.5,0,0,1-6.75,0A7.79,7.79,0,0,1,49.58,51a7.58,7.58,0,0,1-1.68-2.58,9,9,0,0,1,0-6.4,7.35,7.35,0,0,1,1.68-2.57,7.64,7.64,0,0,1,2.6-1.71,9.5,9.5,0,0,1,6.75,0,7.82,7.82,0,0,1,2.6,1.72,7.61,7.61,0,0,1,1.67,2.57A8.58,8.58,0,0,1,63.79,45.26Zm-3.76,0a7,7,0,0,0-.31-2.12,4.5,4.5,0,0,0-.88-1.6,3.85,3.85,0,0,0-1.4-1,4.85,4.85,0,0,0-1.88-.35,5,5,0,0,0-1.9.35,3.85,3.85,0,0,0-1.4,1,4.35,4.35,0,0,0-.88,1.6,7.44,7.44,0,0,0,0,4.25A4.31,4.31,0,0,0,52.26,49a3.63,3.63,0,0,0,1.4,1,5,5,0,0,0,1.9.34A4.85,4.85,0,0,0,57.44,50a3.63,3.63,0,0,0,1.4-1,4.45,4.45,0,0,0,.88-1.59A7,7,0,0,0,60,45.26Z"/><path class="cls-1" d="M74.66,46.8c.13.3.26.61.38.92q.19-.48.39-.93c.14-.31.28-.6.43-.88l4.07-8a1.27,1.27,0,0,1,.23-.33.67.67,0,0,1,.25-.16.79.79,0,0,1,.32-.06H84V53.2H80.72V44.07q0-.66.06-1.44l-4.2,8.16a1.42,1.42,0,0,1-.53.58,1.45,1.45,0,0,1-.76.19h-.5a1.51,1.51,0,0,1-.76-.19,1.4,1.4,0,0,1-.52-.58l-4.23-8.17c0,.26,0,.51.07.76s0,.48,0,.69V53.2H66.12V37.34h3.23a.79.79,0,0,1,.32.06.71.71,0,0,1,.26.16,1.57,1.57,0,0,1,.22.33l4.09,8C74.38,46.22,74.52,46.5,74.66,46.8Z"/><path class="cls-1" d="M97.36,37.33v2.83H90.84v3.7h5v2.73h-5v3.78h6.52V53.2H87.14V37.33Z"/><path class="cls-1" d="M109.29,40.55a1.4,1.4,0,0,1-.34.4.84.84,0,0,1-.47.13,1.18,1.18,0,0,1-.53-.16l-.66-.36a5.92,5.92,0,0,0-.83-.35,3.49,3.49,0,0,0-1.07-.16,2.32,2.32,0,0,0-1.54.44,1.52,1.52,0,0,0-.51,1.2,1.1,1.1,0,0,0,.31.79,2.55,2.55,0,0,0,.8.54,7,7,0,0,0,1.13.42c.43.13.86.27,1.31.43a13.31,13.31,0,0,1,1.3.55,4.32,4.32,0,0,1,1.13.81,3.61,3.61,0,0,1,.8,1.19,4.29,4.29,0,0,1,.3,1.69,5.43,5.43,0,0,1-.38,2.06,4.81,4.81,0,0,1-1.1,1.67A5.09,5.09,0,0,1,107.15,53a6.73,6.73,0,0,1-2.41.41,7.89,7.89,0,0,1-1.51-.15,9.43,9.43,0,0,1-1.49-.43,9.94,9.94,0,0,1-1.35-.66,6,6,0,0,1-1.1-.85l1.09-1.72a1,1,0,0,1,.34-.32,1,1,0,0,1,.47-.12,1.22,1.22,0,0,1,.66.21l.75.46a5.34,5.34,0,0,0,1,.45,3.6,3.6,0,0,0,1.29.21,2.47,2.47,0,0,0,1.56-.44,1.67,1.67,0,0,0,.55-1.4,1.32,1.32,0,0,0-.3-.9,2.43,2.43,0,0,0-.8-.58,7.44,7.44,0,0,0-1.13-.4l-1.3-.39a8.92,8.92,0,0,1-1.29-.52A4.14,4.14,0,0,1,101,45a3.83,3.83,0,0,1-.8-1.26,5.11,5.11,0,0,1-.31-1.87,4.41,4.41,0,0,1,.36-1.74,4.5,4.5,0,0,1,1.06-1.51A5.08,5.08,0,0,1,103,37.55a6.45,6.45,0,0,1,2.32-.39,8.25,8.25,0,0,1,1.42.11,7.61,7.61,0,0,1,1.31.34,6.83,6.83,0,0,1,1.16.53,5.87,5.87,0,0,1,1,.7Z"/><rect class="cls-1" width="141.53" height="1.21"/><rect class="cls-1" y="63.15" width="141.53" height="1.21"/><path class="cls-1" d="M112.71,38a4.52,4.52,0,0,1,.15-1.17,4.86,4.86,0,0,1,.44-1.05,4.35,4.35,0,0,1,1.58-1.57,4.2,4.2,0,0,1,1-.45,4.6,4.6,0,0,1,2.33,0,4.11,4.11,0,0,1,1,.45,4.35,4.35,0,0,1,1.58,1.57,4.86,4.86,0,0,1,.44,1.05,4.52,4.52,0,0,1,.15,1.17,4.45,4.45,0,0,1-.15,1.16,4.86,4.86,0,0,1-.44,1,4.19,4.19,0,0,1-.69.88,4.25,4.25,0,0,1-.89.69,4.37,4.37,0,0,1-3.38.44,4.17,4.17,0,0,1-1-.44,4.25,4.25,0,0,1-.89-.69,4.19,4.19,0,0,1-.69-.88,4.86,4.86,0,0,1-.44-1A4.45,4.45,0,0,1,112.71,38Zm.6,0a3.9,3.9,0,0,0,.51,1.95,4,4,0,0,0,.58.77,4.08,4.08,0,0,0,.77.6,3.58,3.58,0,0,0,.9.38,3.81,3.81,0,0,0,1,.14,3.69,3.69,0,0,0,1.48-.3,3.75,3.75,0,0,0,1.21-.82,3.94,3.94,0,0,0,.81-1.22,3.76,3.76,0,0,0,.3-1.5,3.88,3.88,0,0,0-.14-1,4,4,0,0,0-.38-.93,3.81,3.81,0,0,0-.59-.78,3.76,3.76,0,0,0-.77-.61,3.88,3.88,0,0,0-.91-.38,3.38,3.38,0,0,0-1-.14,3.69,3.69,0,0,0-2.69,1.13,4,4,0,0,0-.8,1.23A3.8,3.8,0,0,0,113.31,38Zm2.91.54v2.12h-.93V35.33H117a2.59,2.59,0,0,1,1.54.38,1.28,1.28,0,0,1,.49,1.1,1.43,1.43,0,0,1-.32,1,1.63,1.63,0,0,1-1,.55.65.65,0,0,1,.18.15,1.1,1.1,0,0,1,.14.21l1.37,2h-.89a.32.32,0,0,1-.29-.15l-1.21-1.81a.37.37,0,0,0-.13-.12.45.45,0,0,0-.23,0Zm0-.69h.7a2.23,2.23,0,0,0,.56-.06.91.91,0,0,0,.37-.18.71.71,0,0,0,.21-.3,1.2,1.2,0,0,0,.06-.4,1.14,1.14,0,0,0-.06-.39.64.64,0,0,0-.18-.27.84.84,0,0,0-.34-.17,2.58,2.58,0,0,0-.53-.05h-.79Z"/></g></g></svg>