<svg xmlns="http://www.w3.org/2000/svg" width="15.719" height="17.436" viewBox="0 0 15.719 17.436">
  <g id="Group_30" data-name="Group 30" transform="translate(-3226.674 502.245)">
    <path id="Path_300" data-name="Path 300" d="M3231.785-492.772h5.517v-1.582h-5.517Zm0-2.152h5.517v-1.562h-5.517Zm-2.23-2.333,4.969-3.022,4.99,3v5.741h-9.959Zm4.969-4.988-7.849,4.9v1.709h1.095v5.883h13.509v-5.883h1.115v-1.709Z" transform="translate(0)" fill="#282828"/>
    <path id="Path_301" data-name="Path 301" d="M3237.095-390.47v1.433h.72v-.144h-.562v-.529h.523v-.143h-.523v-.475h.557v-.143Z" transform="translate(-9.144 -98.081)" fill="#282828"/>
    <path id="Path_302" data-name="Path 302" d="M3245.489-389.414a1.277,1.277,0,0,0,.111-.574c0-.329-.052-.715-.478-.715s-.468.386-.468.715c0,.4.054.781.473.781a.439.439,0,0,0,.286-.1l.161.133.08-.1Zm-.195.01a.272.272,0,0,1-.172.053c-.245.009-.306-.255-.3-.574,0-.414.044-.634.309-.634s.305.22.309.634a1.167,1.167,0,0,1-.065.411l-.134-.107-.084.1Z" transform="translate(-15.777 -97.877)" fill="#282828"/>
    <path id="Path_303" data-name="Path 303" d="M3254.528-390.468h.159v1.03c0,.112.017.294.271.294s.274-.182.271-.294v-1.03h.159v1.087c0,.256-.17.38-.431.38s-.429-.123-.429-.38Z" transform="translate(-24.442 -98.083)" fill="#282828"/>
    <path id="Path_304" data-name="Path 304" d="M3262.961-389.039h.177l.1-.413h.453l.112.413h.175l-.4-1.433h-.211Zm.7-.556h-.378l.189-.763h0Z" transform="translate(-31.841 -98.08)" fill="#282828"/>
    <path id="Path_305" data-name="Path 305" d="M3272.757-389.039v-1.433h.159v1.291h.584v.143Z" transform="translate(-40.437 -98.079)" fill="#282828"/>
    <path id="Path_306" data-name="Path 306" d="M3284.39-389.039v-1.433h.159v.6h.547v-.6h.159v1.433h-.159v-.691h-.547v.691Z" transform="translate(-50.645 -98.079)" fill="#282828"/>
    <path id="Path_307" data-name="Path 307" d="M3293.6-389.988c0,.4.054.782.473.782s.47-.384.472-.782c0-.328-.05-.714-.468-.714s-.476.386-.476.714m.78,0c0,.414-.044.634-.307.634s-.306-.22-.308-.634c0-.319.06-.576.3-.576s.314.256.312.576" transform="translate(-58.729 -97.878)" fill="#282828"/>
    <path id="Path_308" data-name="Path 308" d="M3303.477-390.468h.159v1.03c0,.112.016.294.271.294s.274-.182.271-.294v-1.03h.159v1.087c0,.256-.17.38-.431.38s-.43-.123-.43-.38Z" transform="translate(-67.394 -98.083)" fill="#282828"/>
    <path id="Path_309" data-name="Path 309" d="M3313.207-390.294a.22.22,0,0,0-.227-.262c-.231,0-.256.145-.256.256a.189.189,0,0,0,.136.195l.227.085c.271.1.32.2.32.386a.4.4,0,0,1-.445.429.391.391,0,0,1-.392-.227.781.781,0,0,1-.03-.262h.158c-.008.212.032.346.271.346a.241.241,0,0,0,.274-.25c0-.219-.089-.22-.233-.276-.078-.03-.2-.07-.281-.11a.321.321,0,0,1-.17-.325.376.376,0,0,1,.4-.392c.262,0,.423.135.408.4Z" transform="translate(-75.346 -97.88)" fill="#282828"/>
    <rect id="Rectangle_1488" data-name="Rectangle 1488" width="0.159" height="1.433" transform="translate(3238.345 -488.551)" fill="#282828"/>
    <path id="Path_310" data-name="Path 310" d="M3326.659-390.468h.159v1.433h-.261l-.4-1.147a1.074,1.074,0,0,1-.054-.216h0c0,.072,0,.147,0,.22v1.143h-.159v-1.433h.258l.407,1.173c.018.044.031.09.05.157h0c0-.052,0-.107,0-.16Z" transform="translate(-87.109 -98.083)" fill="#282828"/>
    <path id="Path_311" data-name="Path 311" d="M3336.033-389.233h-.122v-.224h0a.318.318,0,0,1-.328.247c-.427,0-.459-.424-.459-.761s.059-.736.474-.736a.4.4,0,0,1,.426.446h-.161c0-.176-.076-.3-.257-.3-.314-.005-.317.354-.317.6,0,.217-.012.6.27.611s.322-.256.319-.484h-.319v-.144h.478Z" transform="translate(-95.16 -97.874)" fill="#282828"/>
    <path id="Path_312" data-name="Path 312" d="M3229.748-375.037c0,.523.07,1.028.62,1.028s.618-.505.621-1.028c0-.432-.066-.939-.615-.939s-.625.507-.625.939m1.024.005c0,.545-.057.834-.4.834s-.4-.289-.4-.834c0-.42.078-.756.4-.756s.411.336.409.756" transform="translate(-2.697 -110.8)" fill="#282828"/>
    <path id="Path_313" data-name="Path 313" d="M3243.031-373.784v-.8h.125a1.439,1.439,0,0,0,.488-.055.508.508,0,0,0,.266-.505.526.526,0,0,0-.153-.4.644.644,0,0,0-.439-.123h-.5v1.883Zm0-1.7h.216c.253-.005.447.038.447.342,0,.323-.173.363-.46.367h-.2Z" transform="translate(-14.17 -111.071)" fill="#282828"/>
    <path id="Path_314" data-name="Path 314" d="M3254.432-373.784v-.8h.125a1.44,1.44,0,0,0,.488-.055.508.508,0,0,0,.266-.505.526.526,0,0,0-.154-.4.644.644,0,0,0-.439-.123h-.5v1.883Zm0-1.7h.216c.253-.005.447.038.447.342,0,.323-.173.363-.46.367h-.2Z" transform="translate(-24.174 -111.071)" fill="#282828"/>
    <path id="Path_315" data-name="Path 315" d="M3265.075-375.037c0,.523.07,1.028.62,1.028s.618-.505.621-1.028c0-.432-.066-.939-.615-.939s-.625.507-.625.939m1.024.005c0,.545-.057.834-.4.834s-.4-.289-.4-.834c0-.42.078-.756.4-.756s.411.336.409.756" transform="translate(-33.697 -110.8)" fill="#282828"/>
    <path id="Path_316" data-name="Path 316" d="M3278.359-374.612h.365c.246,0,.321.161.321.349a1.722,1.722,0,0,0,.065.479h.244v-.042c-.05,0-.065-.083-.073-.118-.02-.141-.032-.279-.04-.42-.03-.251-.091-.329-.334-.351v-.005a.4.4,0,0,0,.362-.409c.012-.435-.239-.538-.634-.538h-.485v1.883h.209Zm0-.867h.294c.141,0,.394.008.4.331a.323.323,0,0,1-.365.347h-.329Z" transform="translate(-45.169 -111.071)" fill="#282828"/>
    <path id="Path_317" data-name="Path 317" d="M3288.858-375.669h1.184v.188h-.488v1.7h-.209v-1.7h-.487Z" transform="translate(-54.566 -111.069)" fill="#282828"/>
    <path id="Path_318" data-name="Path 318" d="M3300.464-375.668h.209v1.354c0,.148.023.386.356.386s.36-.238.357-.386v-1.354h.209v1.429c0,.336-.224.5-.566.5s-.564-.163-.564-.5Z" transform="translate(-64.75 -111.07)" fill="#282828"/>
    <path id="Path_319" data-name="Path 319" d="M3313.852-375.668h.209v1.884h-.342l-.528-1.508a1.585,1.585,0,0,1-.07-.283h0c0,.1,0,.194,0,.289v1.5h-.208v-1.884h.338l.536,1.543a2.115,2.115,0,0,1,.065.206h.005c0-.068-.005-.141-.005-.211Z" transform="translate(-75.674 -111.07)" fill="#282828"/>
    <rect id="Rectangle_1489" data-name="Rectangle 1489" width="0.209" height="1.884" transform="translate(3238.826 -486.738)" fill="#282828"/>
    <path id="Path_320" data-name="Path 320" d="M3329.865-375.669h1.184v.188h-.488v1.7h-.209v-1.7h-.487Z" transform="translate(-90.549 -111.069)" fill="#282828"/>
    <path id="Path_321" data-name="Path 321" d="M3340.705-374.723l.442-.944h.23l-.57,1.153v.73h-.209v-.73l-.564-1.153h.231Z" transform="translate(-99.473 -111.07)" fill="#282828"/>
  </g>
</svg>
