<svg xmlns="http://www.w3.org/2000/svg" xmlns:xlink="http://www.w3.org/1999/xlink" width="262" height="76" viewBox="0 0 262 76">
  <defs>
    <clipPath id="clip-B3_10">
      <rect width="262" height="76"/>
    </clipPath>
  </defs>
  <g id="B3_10" data-name="B3 – 10" clip-path="url(#clip-B3_10)">
    <g id="Group_19" data-name="Group 19" transform="translate(-119.499 -364.657)">
      <path id="Path_37" data-name="Path 37" d="M133.167,435.53a.821.821,0,0,1,.3.055.79.79,0,0,1,.284.192l1.657,1.743a6.862,6.862,0,0,1-2.727,2.146,9.546,9.546,0,0,1-3.877.723,9.23,9.23,0,0,1-3.679-.7,7.966,7.966,0,0,1-2.758-1.93,8.487,8.487,0,0,1-1.738-2.919,10.79,10.79,0,0,1-.6-3.665,9.67,9.67,0,0,1,.692-3.706,8.661,8.661,0,0,1,1.935-2.912,8.755,8.755,0,0,1,2.975-1.9,10.355,10.355,0,0,1,3.822-.68,9.779,9.779,0,0,1,1.91.178,9.461,9.461,0,0,1,1.676.495,7.981,7.981,0,0,1,1.434.754,6.919,6.919,0,0,1,1.163.973l-1.41,1.892a1.852,1.852,0,0,1-.322.315.845.845,0,0,1-.519.142.935.935,0,0,1-.421-.1,4.575,4.575,0,0,1-.42-.241l-.488-.308a3.6,3.6,0,0,0-.631-.309,5.136,5.136,0,0,0-.853-.242,5.831,5.831,0,0,0-1.144-.1,5.211,5.211,0,0,0-2.078.4,4.528,4.528,0,0,0-1.614,1.149,5.356,5.356,0,0,0-1.052,1.812,7.118,7.118,0,0,0-.377,2.388,7.44,7.44,0,0,0,.377,2.461,5.425,5.425,0,0,0,1.027,1.811,4.385,4.385,0,0,0,1.515,1.12,4.54,4.54,0,0,0,1.856.382,8.891,8.891,0,0,0,1.038-.055,4.333,4.333,0,0,0,.872-.192,3.91,3.91,0,0,0,.766-.353,5.04,5.04,0,0,0,.737-.537,1.482,1.482,0,0,1,.321-.2.852.852,0,0,1,.359-.079Z" fill="#141f35"/>
      <path id="Path_38" data-name="Path 38" d="M142.628,430.644h1.682a4.277,4.277,0,0,0,1.452-.216,2.615,2.615,0,0,0,.984-.6,2.283,2.283,0,0,0,.556-.9,3.425,3.425,0,0,0,.174-1.107,2.319,2.319,0,0,0-.773-1.854,3.6,3.6,0,0,0-2.393-.669h-1.682v5.343Zm0,2.882v6.665h-4.181V422.172h5.863a12.035,12.035,0,0,1,3.333.4,6.288,6.288,0,0,1,2.251,1.12,4.222,4.222,0,0,1,1.267,1.694,5.608,5.608,0,0,1,.4,2.128,5.741,5.741,0,0,1-.235,1.657,5.02,5.02,0,0,1-.7,1.44,5.408,5.408,0,0,1-1.138,1.181,6.015,6.015,0,0,1-1.552.853,4.021,4.021,0,0,1,.786.519,3.1,3.1,0,0,1,.636.755l3.834,6.27H149.4a1.606,1.606,0,0,1-1.509-.791l-2.993-5.231a1.263,1.263,0,0,0-.464-.495,1.537,1.537,0,0,0-.748-.148Z" fill="#141f35"/>
      <path id="Path_39" data-name="Path 39" d="M161.723,433.3h4.922l-1.657-4.935q-.162-.471-.377-1.107t-.427-1.379q-.2.754-.408,1.4c-.14.429-.273.8-.4,1.113l-1.657,4.911Zm11.576,6.887h-3.241a1.5,1.5,0,0,1-.9-.253,1.3,1.3,0,0,1-.488-.649l-1.064-3.142h-6.851l-1.065,3.142a1.425,1.425,0,0,1-1.359.9h-3.266l6.976-18.019h4.279l6.975,18.019Z" fill="#141f35"/>
      <path id="Path_40" data-name="Path 40" d="M187,422.172v3.216h-7.4v4.564h6.159v3.229h-6.159v7.012h-4.2v-18.02Z" fill="#141f35"/>
      <path id="Path_41" data-name="Path 41" d="M203.4,422.172v3.314H198.33v14.705h-4.18V425.486h-5.07v-3.314Z" fill="#141f35"/>
      <path id="Path_42" data-name="Path 42" d="M214.97,432.93q.229.51.439,1.04.21-.543.445-1.057c.156-.344.318-.675.483-1l4.625-9.112a1.5,1.5,0,0,1,.253-.365.843.843,0,0,1,.291-.192.994.994,0,0,1,.365-.061h3.666v18.005h-3.684V429.828c0-.5.024-1.047.074-1.633l-4.774,9.263a1.576,1.576,0,0,1-.6.656,1.662,1.662,0,0,1-.859.223h-.569a1.663,1.663,0,0,1-.86-.223,1.577,1.577,0,0,1-.6-.656l-4.8-9.276q.048.434.074.861c.016.284.025.546.025.785v10.363H205.28V422.186h3.667a.994.994,0,0,1,.365.061.843.843,0,0,1,.291.192,1.5,1.5,0,0,1,.253.365l4.638,9.149q.246.469.476.977Z" fill="#141f35"/>
      <path id="Path_43" data-name="Path 43" d="M233.849,433.3h4.922l-1.657-4.935q-.162-.471-.377-1.107t-.427-1.379q-.2.754-.408,1.4c-.14.429-.273.8-.4,1.113l-1.657,4.911Zm11.576,6.887h-3.24a1.5,1.5,0,0,1-.9-.253,1.3,1.3,0,0,1-.488-.649l-1.064-3.142h-6.851l-1.065,3.142a1.425,1.425,0,0,1-1.359.9H227.2l6.975-18.019h4.279l6.975,18.019Z" fill="#141f35"/>
      <path id="Path_44" data-name="Path 44" d="M251.708,430.644h1.682a4.281,4.281,0,0,0,1.452-.216,2.615,2.615,0,0,0,.984-.6,2.3,2.3,0,0,0,.557-.9,3.452,3.452,0,0,0,.173-1.107,2.319,2.319,0,0,0-.773-1.854,3.6,3.6,0,0,0-2.393-.669h-1.682v5.343Zm0,2.882v6.665h-4.181V422.172h5.863a12.035,12.035,0,0,1,3.333.4,6.3,6.3,0,0,1,2.251,1.12,4.222,4.222,0,0,1,1.267,1.694,5.589,5.589,0,0,1,.4,2.128,5.707,5.707,0,0,1-.235,1.657,4.994,4.994,0,0,1-.7,1.44,5.431,5.431,0,0,1-1.138,1.181,6,6,0,0,1-1.552.853,3.992,3.992,0,0,1,.786.519,3.127,3.127,0,0,1,.637.755l3.834,6.27h-3.784a1.606,1.606,0,0,1-1.51-.791l-2.993-5.231a1.249,1.249,0,0,0-.464-.495,1.535,1.535,0,0,0-.747-.148Z" fill="#141f35"/>
      <path id="Path_45" data-name="Path 45" d="M268.8,429.47h.667a1.52,1.52,0,0,0,1.336-.582L274.86,423a1.738,1.738,0,0,1,.759-.656,2.8,2.8,0,0,1,1.046-.173H280.3l-5.344,7.285a3.572,3.572,0,0,1-.593.655,3.743,3.743,0,0,1-.631.434,3,3,0,0,1,1.57,1.285l5.442,8.36h-3.735a3.169,3.169,0,0,1-.612-.049,1.523,1.523,0,0,1-.438-.148,1.289,1.289,0,0,1-.323-.242,2.332,2.332,0,0,1-.259-.327l-4.082-6.271a1.222,1.222,0,0,0-.563-.488,2.451,2.451,0,0,0-.921-.142H268.8v7.667h-4.181V422.172H268.8v7.3Z" fill="#141f35"/>
      <path id="Path_46" data-name="Path 46" d="M306.05,440.191h-4.205v-7.618h-7.32v7.618h-4.206v-18.02h4.206V429.7h7.32v-7.532h4.205v18.02Z" fill="#141f35"/>
      <path id="Path_47" data-name="Path 47" d="M323.166,431.177a7.8,7.8,0,0,0-.348-2.407,5.092,5.092,0,0,0-.994-1.811,4.293,4.293,0,0,0-1.59-1.138,5.468,5.468,0,0,0-2.139-.4,5.543,5.543,0,0,0-2.158.4,4.282,4.282,0,0,0-1.6,1.138,5.093,5.093,0,0,0-.995,1.811,8.553,8.553,0,0,0,0,4.823,5.081,5.081,0,0,0,.995,1.812,4.224,4.224,0,0,0,1.6,1.132,5.638,5.638,0,0,0,2.158.389,5.561,5.561,0,0,0,2.139-.389,4.234,4.234,0,0,0,1.59-1.132,5.079,5.079,0,0,0,.994-1.812,7.819,7.819,0,0,0,.348-2.416Zm4.278,0a9.691,9.691,0,0,1-.674,3.635,8.585,8.585,0,0,1-4.848,4.872,10.758,10.758,0,0,1-7.661,0,8.593,8.593,0,0,1-4.866-4.872,10.131,10.131,0,0,1,0-7.272,8.637,8.637,0,0,1,1.9-2.919,8.786,8.786,0,0,1,2.962-1.941,10.716,10.716,0,0,1,7.661.006,8.818,8.818,0,0,1,2.95,1.947,8.718,8.718,0,0,1,1.9,2.919,9.661,9.661,0,0,1,.674,3.625Z" fill="#141f35"/>
      <path id="Path_48" data-name="Path 48" d="M339.78,432.93c.153.34.3.686.44,1.04q.209-.543.445-1.057c.156-.344.316-.675.482-1l4.626-9.112a1.445,1.445,0,0,1,.253-.365.821.821,0,0,1,.29-.192.994.994,0,0,1,.365-.061h3.667v18.005h-3.686V429.828c0-.5.025-1.047.075-1.633l-4.775,9.263a1.551,1.551,0,0,1-.6.656,1.655,1.655,0,0,1-.858.223h-.569a1.671,1.671,0,0,1-.861-.223,1.581,1.581,0,0,1-.6-.656l-4.8-9.276c.033.289.057.576.074.861s.024.546.024.785v10.363H330.09V422.186h3.667a.981.981,0,0,1,.364.061.837.837,0,0,1,.292.192,1.526,1.526,0,0,1,.253.365l4.638,9.149q.248.469.476.977Z" fill="#141f35"/>
      <path id="Path_49" data-name="Path 49" d="M365.56,422.172v3.216h-7.4v4.205h5.665v3.092h-5.665v4.292h7.4v3.215h-11.6v-18.02Z" fill="#141f35"/>
      <path id="Path_50" data-name="Path 50" d="M379.114,425.833a1.574,1.574,0,0,1-.389.445.863.863,0,0,1-.526.149,1.282,1.282,0,0,1-.612-.18l-.742-.4a6.3,6.3,0,0,0-.946-.4,3.768,3.768,0,0,0-1.212-.18,2.6,2.6,0,0,0-1.749.5,1.7,1.7,0,0,0-.577,1.353,1.247,1.247,0,0,0,.347.9,2.963,2.963,0,0,0,.91.618,9.526,9.526,0,0,0,1.285.476q.724.217,1.479.483a13.591,13.591,0,0,1,1.478.625,4.916,4.916,0,0,1,1.285.915,4.263,4.263,0,0,1,.91,1.354,4.81,4.81,0,0,1,.346,1.923,6.281,6.281,0,0,1-.433,2.338,5.522,5.522,0,0,1-1.255,1.9,5.861,5.861,0,0,1-2.029,1.273,7.589,7.589,0,0,1-2.739.463,8.667,8.667,0,0,1-1.713-.174,9.994,9.994,0,0,1-1.687-.488,9.644,9.644,0,0,1-1.534-.747,6.555,6.555,0,0,1-1.25-.965L369,436.061a.972.972,0,0,1,.382-.358,1.086,1.086,0,0,1,.532-.137,1.41,1.41,0,0,1,.748.235q.378.236.854.519a6.771,6.771,0,0,0,1.095.52,4.091,4.091,0,0,0,1.459.236,2.776,2.776,0,0,0,1.768-.5,1.908,1.908,0,0,0,.631-1.589,1.5,1.5,0,0,0-.347-1.027,2.657,2.657,0,0,0-.908-.654,8.331,8.331,0,0,0-1.28-.459q-.719-.2-1.472-.438a10.716,10.716,0,0,1-1.472-.6,4.592,4.592,0,0,1-1.279-.927,4.33,4.33,0,0,1-.91-1.435,5.689,5.689,0,0,1-.347-2.121,5.017,5.017,0,0,1,.409-1.978,5.1,5.1,0,0,1,1.2-1.719A5.913,5.913,0,0,1,372,422.426a7.18,7.18,0,0,1,2.635-.451,9.83,9.83,0,0,1,1.614.13,8.348,8.348,0,0,1,1.489.383,8.021,8.021,0,0,1,1.318.606,6.044,6.044,0,0,1,1.094.8l-1.039,1.942Z" fill="#141f35"/>
      <path id="Path_51" data-name="Path 51" d="M380.488,408.963H119.982v-1.374H380.488v1.374Z" fill="#141f35"/>
      <g id="Group_15" data-name="Group 15">
        <path id="Path_52" data-name="Path 52" d="M142.883,389.721a.487.487,0,0,1,.357.148l.841.9a14.23,14.23,0,0,1-2.007,1.775,12.209,12.209,0,0,1-2.374,1.345,13.991,13.991,0,0,1-2.837.861,17.56,17.56,0,0,1-3.393.305,14.464,14.464,0,0,1-5.661-1.082,12.677,12.677,0,0,1-4.423-3.067,13.865,13.865,0,0,1-2.868-4.8,18.3,18.3,0,0,1-1.019-6.261,17.438,17.438,0,0,1,1.05-6.177,14.193,14.193,0,0,1,2.942-4.8,13.052,13.052,0,0,1,4.538-3.109,15.049,15.049,0,0,1,5.841-1.1,14.414,14.414,0,0,1,5.4.945,14.6,14.6,0,0,1,4.285,2.668l-.651.946a.586.586,0,0,1-.525.252,1.7,1.7,0,0,1-.82-.462,10.863,10.863,0,0,0-1.575-1.019,13.425,13.425,0,0,0-2.511-1.019,12.352,12.352,0,0,0-3.6-.462,12.788,12.788,0,0,0-4.927.924,10.887,10.887,0,0,0-3.845,2.647,12.22,12.22,0,0,0-2.511,4.2,17.71,17.71,0,0,0,.011,11.2,12.29,12.29,0,0,0,2.511,4.191,10.821,10.821,0,0,0,3.771,2.626,12,12,0,0,0,4.7.914,17.324,17.324,0,0,0,2.847-.21,11.18,11.18,0,0,0,2.3-.63,10.318,10.318,0,0,0,1.954-1.03,14.6,14.6,0,0,0,1.785-1.429,1.293,1.293,0,0,1,.211-.136A.464.464,0,0,1,142.883,389.721Z" fill="#141f35"/>
        <path id="Path_53" data-name="Path 53" d="M167.9,394.722h-1.849a1.384,1.384,0,0,1-.6-.116,1.187,1.187,0,0,1-.451-.43l-9.538-12.06a2.907,2.907,0,0,0-.347-.4,1.362,1.362,0,0,0-.4-.263,2.066,2.066,0,0,0-.526-.136,5.561,5.561,0,0,0-.746-.043h-3.886v13.447H147.4V364.993h7.605q5.127,0,7.679,1.985a6.937,6.937,0,0,1,2.553,5.831,8.007,8.007,0,0,1-.588,3.109,7.3,7.3,0,0,1-1.691,2.469,8.847,8.847,0,0,1-2.669,1.733,12.641,12.641,0,0,1-3.519.9,3.441,3.441,0,0,1,.9.841Zm-13.194-15.043a12.237,12.237,0,0,0,3.54-.473,7.638,7.638,0,0,0,2.648-1.355,5.845,5.845,0,0,0,1.649-2.122,6.642,6.642,0,0,0,.567-2.794,5.478,5.478,0,0,0-2.069-4.707,10.056,10.056,0,0,0-6.041-1.533h-5.441v12.984Z" fill="#141f35"/>
        <path id="Path_54" data-name="Path 54" d="M196.878,379.847a18.037,18.037,0,0,1-1.03,6.25,13.858,13.858,0,0,1-2.9,4.79,12.8,12.8,0,0,1-4.486,3.068,15.883,15.883,0,0,1-11.524,0,12.824,12.824,0,0,1-4.475-3.068,13.843,13.843,0,0,1-2.9-4.79,19.434,19.434,0,0,1,0-12.48,13.861,13.861,0,0,1,2.9-4.79,12.971,12.971,0,0,1,4.475-3.078,14.751,14.751,0,0,1,5.757-1.092,14.952,14.952,0,0,1,5.767,1.082,12.727,12.727,0,0,1,4.486,3.078,13.988,13.988,0,0,1,2.9,4.8A17.978,17.978,0,0,1,196.878,379.847Zm-2.227,0a16.972,16.972,0,0,0-.862-5.589,11.957,11.957,0,0,0-2.437-4.2,10.5,10.5,0,0,0-3.782-2.636,13.4,13.4,0,0,0-9.727,0,10.611,10.611,0,0,0-3.793,2.636,11.979,11.979,0,0,0-2.457,4.2,18.359,18.359,0,0,0,0,11.188,11.974,11.974,0,0,0,2.457,4.191,10.49,10.49,0,0,0,3.793,2.627,13.549,13.549,0,0,0,9.727,0,10.381,10.381,0,0,0,3.782-2.627,11.951,11.951,0,0,0,2.437-4.191A16.945,16.945,0,0,0,194.651,379.847Z" fill="#141f35"/>
        <path id="Path_55" data-name="Path 55" d="M238.624,364.993l-9.35,29.729h-1.933l-8.782-25.8q-.168-.525-.294-1.093-.126.568-.294,1.093l-8.8,25.8h-1.912l-9.37-29.729h1.785a.734.734,0,0,1,.778.567l7.5,24.434q.231.842.421,1.912.1-.546.21-1.019a7.937,7.937,0,0,1,.251-.893l8.4-24.434a.887.887,0,0,1,.294-.4.778.778,0,0,1,.5-.168h.588a.733.733,0,0,1,.484.157,1.064,1.064,0,0,1,.294.41l8.4,24.434a7.89,7.89,0,0,1,.263.883q.116.483.221,1.008c.07-.35.136-.682.2-1s.129-.612.2-.893l7.5-24.434a.74.74,0,0,1,.283-.4.825.825,0,0,1,.515-.168Z" fill="#141f35"/>
      </g>
      <g id="Group_16" data-name="Group 16">
        <path id="Path_56" data-name="Path 56" d="M265.535,364.993v29.729h-1.008a.961.961,0,0,1-.452-.095,1.055,1.055,0,0,1-.346-.326l-19.308-25.8q.063.63.063,1.2v25.023h-1.891V364.993h1.071a1.12,1.12,0,0,1,.452.073,1.054,1.054,0,0,1,.347.326l19.266,25.737a11.772,11.772,0,0,1-.064-1.2V364.993Z" fill="#141f35"/>
        <path id="Path_57" data-name="Path 57" d="M304,392.936l-.041,1.786H286.146V364.993h17.816v1.786H288.309V378.8h13.027v1.744H288.309v12.4Z" fill="#141f35"/>
        <path id="Path_58" data-name="Path 58" d="M333.333,394.722h-1.66a.729.729,0,0,1-.483-.158,1.036,1.036,0,0,1-.294-.41l-3.488-8.635h-14.6l-3.487,8.635a.906.906,0,0,1-.294.4.786.786,0,0,1-.505.168h-1.639l12.165-29.729h2.122Zm-6.576-10.8L320.706,368.9a15,15,0,0,1-.609-1.765q-.126.5-.274.956a8.612,8.612,0,0,1-.315.83l-6.05,15Z" fill="#141f35"/>
      </g>
      <g id="Group_17" data-name="Group 17">
        <path id="Path_59" data-name="Path 59" d="M352.91,368.607a.593.593,0,0,1-.546.357,1.208,1.208,0,0,1-.7-.389,9.029,9.029,0,0,0-3.005-1.733,9.225,9.225,0,0,0-5.567.063,5.934,5.934,0,0,0-2.059,1.26,5.365,5.365,0,0,0-1.261,1.849,5.764,5.764,0,0,0-.43,2.206,4.5,4.5,0,0,0,.641,2.5,5.754,5.754,0,0,0,1.691,1.681,10.944,10.944,0,0,0,2.384,1.166q1.335.474,2.742.935t2.742,1.019a9.886,9.886,0,0,1,2.384,1.4,6.419,6.419,0,0,1,1.692,2.07,6.565,6.565,0,0,1,.64,3.057,9.639,9.639,0,0,1-.64,3.519,8.241,8.241,0,0,1-1.86,2.868,8.732,8.732,0,0,1-2.983,1.922,10.829,10.829,0,0,1-4.034.7,11.4,11.4,0,0,1-5.063-1.04,11.911,11.911,0,0,1-3.719-2.847l.588-.924a.74.74,0,0,1,.589-.316.84.84,0,0,1,.483.253q.294.252.714.619t1.009.8a8.348,8.348,0,0,0,1.365.8,9.668,9.668,0,0,0,1.786.62,9.48,9.48,0,0,0,2.29.252,8.692,8.692,0,0,0,3.151-.536,6.875,6.875,0,0,0,2.343-1.46,6.19,6.19,0,0,0,1.46-2.2,7.319,7.319,0,0,0,.5-2.721,4.8,4.8,0,0,0-.64-2.595,5.556,5.556,0,0,0-1.691-1.7,10.985,10.985,0,0,0-2.385-1.145q-1.335-.461-2.742-.9t-2.741-.988a9.41,9.41,0,0,1-2.385-1.4,6.389,6.389,0,0,1-1.692-2.122,7.039,7.039,0,0,1-.64-3.183,7.537,7.537,0,0,1,.567-2.878,7.146,7.146,0,0,1,1.66-2.447,8.138,8.138,0,0,1,2.7-1.7,9.826,9.826,0,0,1,3.667-.641,11.1,11.1,0,0,1,4.149.735,9.963,9.963,0,0,1,3.351,2.248Z" fill="#141f35"/>
      </g>
      <g id="Group_18" data-name="Group 18">
        <path id="Path_60" data-name="Path 60" d="M380.5,366.821H370.059v27.9h-2.164v-27.9h-10.5v-1.828H380.5Z" fill="#141f35"/>
      </g>
    </g>
  </g>
</svg>
