<svg xmlns="http://www.w3.org/2000/svg" viewBox="0 0 254 143.9"><defs><style>.cls-1{fill:#43833d;}.cls-2{fill:#fff;}</style></defs><g id="Layer_2" data-name="Layer 2"><g id="Layer_1-2" data-name="Layer 1"><g id="Path_1743" data-name="Path 1743"><path class="cls-1" d="M0,0H254L178.4,143.9H0Z"/></g><g id="Kitchens"><path class="cls-2" d="M35.25,40.9H49c9.72,0,11.37,3.4,11.37,13.83,0,11.21-1.81,13-7.18,13.74v.16c6.32,1.18,7.58,3.32,7.58,13,0,12.32-1.58,16.28-13.11,16.28H35.25Zm7.9,24.49h4.59c4.73,0,5.21-1,5.21-10.27,0-6.48-1-8.06-6.08-8.06H43.15Zm0,26.38h4.9c4.5,0,5.29-1.34,5.29-10.34,0-8.62-.71-9.88-5.05-9.88H43.15Z"/><path class="cls-2" d="M65.59,66.45c0-5.85,3.55-8.61,10.58-8.61,6.8,0,10.51,2.68,10.51,9.63V98h-7V93.9c-.87.87-1.34,1.66-2.13,2.45a7.75,7.75,0,0,1-5.3,2.13c-4.42,0-7.26-1.34-7.26-10.82,0-8,.63-9.8,2.68-11.93,1.74-1.82,3-2.45,11.54-2.45v-6.4c0-2.29-.56-3.79-3.09-3.79-2,0-3.16.87-3.16,3.32V70H65.59Zm11.3,12c-3.48,0-4.43,1.9-4.43,8.14,0,5.85.55,6.64,2.92,6.64,2.53,0,3.88-1.9,3.88-4.59V78.45Z"/><path class="cls-2" d="M93.48,63.52H89.76V58.31h3.72V50.8l7.42-2.6V58.31h4.58v5.21H100.9V89.2c0,3,1.34,3.55,3.56,3.55a5.49,5.49,0,0,0,1.89-.24v5.22c-.87.08-2.76.24-4.82.24-5.92,0-8-1.74-8-5.3Z"/><path class="cls-2" d="M108.17,40.9h7.42V61.6h.16a6.12,6.12,0,0,1,2.61-2.85,8.09,8.09,0,0,1,3.79-.94c3.71,0,6.95,2,6.95,7.82V97.94h-7.42V67.08c0-2.06-.56-3.56-2.85-3.56-1.81,0-3.24,1.11-3.24,4.19V98h-7.42Z"/><path class="cls-2" d="M146.17,71.11v-3.8c0-3.08-.64-4.26-2.61-4.26S141,63.9,141,66.68c0,4,.32,4.27,5.3,8.61,5.76,5.06,6.87,6.72,6.87,12.48,0,7.75-2.69,10.67-10.59,10.67-5.69,0-8.84-2.37-8.84-8.14V84.69h6.95v5.45c0,2.45,1,3.09,2.76,3.09,2.45,0,2.77-1.27,2.77-4.43,0-4.26-.24-4.9-4.51-8.53l-1.63-1.37c-5.92-5.06-6-5.69-6-11.14,0-7.5,3.63-9.87,10.27-9.87,5.53,0,8.45,2.44,8.45,7.18v6.09Z"/></g></g></g></svg>