<svg xmlns="http://www.w3.org/2000/svg" viewBox="0 0 340.82 143.9"><defs><style>.cls-1{fill:#326585;}.cls-2{fill:#fff;}</style></defs><g id="Layer_2" data-name="Layer 2"><g id="Layer_1-2" data-name="Layer 1"><g id="Path_1742" data-name="Path 1742"><path class="cls-1" d="M0,0H340.82L265.25,143.9H0Z"/></g><g id="Exteriors"><path class="cls-2" d="M35.44,39.21H49.19c9.71,0,11.37,3.4,11.37,13.83,0,11.21-1.82,13-7.19,13.74v.16C59.69,68.12,61,70.26,61,80c0,12.33-1.58,16.28-13.12,16.28H35.44Zm7.9,24.49h4.58c4.74,0,5.21-1,5.21-10.27,0-6.48-1-8.06-6.08-8.06H43.34Zm0,26.39h4.9c4.5,0,5.29-1.35,5.29-10.35,0-8.61-.71-9.88-5.06-9.88H43.34Z"/><path class="cls-2" d="M65.62,66.78c0-6.71,3.87-10.66,10.74-10.66,5.93,0,10.82,2.53,10.82,9.87v12.8H73v8.45C73,91,74.31,92,76.68,92c2.76,0,3.55-2,3.55-5.13V83.21h7v5.61c0,4-2.84,7.9-11.06,7.9-5.6,0-10.5-2.53-10.5-9.87ZM73,73.57h7.19V65.83c0-3.55-1-5-3.55-5-2.77,0-3.64,1.5-3.64,4.34Z"/><path class="cls-2" d="M92.16,65.28c0-5.84,2.61-9.16,7-9.16a8.85,8.85,0,0,1,3.72.79,6.28,6.28,0,0,1,2.84,2.53h.16V39.21h7.42v57h-7V93.4h-.16A8,8,0,0,1,103,95.85a9.23,9.23,0,0,1-3.87.87c-4.34,0-7-3.32-7-9.16Zm7.43,21c0,4.58,1.26,5.69,3.24,5.69,1.5,0,3-1.26,3-4.19v-20c0-4.9-1.35-6.48-3.4-6.48-1.66,0-2.84,1.11-2.84,5.37Z"/><path class="cls-2" d="M118.55,56.59h7V60.7h.16c1.73-3.71,3-4.58,6.63-4.58v7.42c-3.71,0-6.32,1-6.32,5.14V96.25H118.6Z"/><path class="cls-2" d="M134.58,66.78c0-6.71,3.87-10.66,10.51-10.66,5.69,0,10.58,2.53,10.58,9.87V86.06c0,6.71-3.87,10.66-10.5,10.66-5.69,0-10.59-2.53-10.59-9.87ZM142,86.53c0,3.16.79,5,3.16,5s3.08-1.82,3.08-5V66.31c0-3.16-.79-5-3.08-5s-3.16,1.82-3.16,5Z"/><path class="cls-2" d="M160.89,66.78c0-6.71,3.87-10.66,10.51-10.66,5.68,0,10.58,2.53,10.58,9.87V86.06c0,6.71-3.87,10.66-10.51,10.66-5.68,0-10.58-2.53-10.58-9.87Zm7.42,19.75c0,3.16.79,5,3.16,5s3.09-1.82,3.09-5V66.31c0-3.16-.79-5-3.09-5s-3.16,1.82-3.16,5Z"/><path class="cls-2" d="M187.91,56.59h7v3.32H195a8.31,8.31,0,0,1,7-3.79,7.51,7.51,0,0,1,6.47,3.79A7.35,7.35,0,0,1,215,56.12c4,0,7.27,2,7.27,7.82V96.25h-7.43V65.36c0-2-.55-3.55-2.84-3.55-1.82,0-3.24,1.1-3.24,4.18V96.25h-7.42V65.36c0-2-.56-3.55-2.85-3.55-1.82,0-3.24,1.1-3.24,4.18V96.25h-7.42Z"/><path class="cls-2" d="M240,69.39V65.6c0-3.08-.63-4.27-2.6-4.27s-2.53.87-2.53,3.63c0,4,.32,4.27,5.29,8.61,5.77,5.06,6.88,6.72,6.88,12.49,0,7.74-2.69,10.66-10.59,10.66-5.69,0-8.85-2.37-8.85-8.14V83h7v5.45c0,2.44,1,3.08,2.77,3.08,2.45,0,2.76-1.27,2.76-4.43,0-4.26-.23-4.89-4.5-8.53L234,77.13c-5.92-5.06-6-5.69-6-11.14,0-7.5,3.63-9.87,10.27-9.87,5.53,0,8.45,2.45,8.45,7.19v6.08Z"/></g></g></g></svg>