<svg xmlns="http://www.w3.org/2000/svg" viewBox="0 0 325.87 143.9"><defs><style>.cls-1{fill:#385061;}.cls-2{fill:#fff;}</style></defs><g id="Layer_2" data-name="Layer 2"><g id="Layer_1-2" data-name="Layer 1"><g id="Path_1742" data-name="Path 1742"><path class="cls-1" d="M0,0H325.87L250.3,143.9H0Z"/></g><g id="Exteriors"><path class="cls-2" d="M35.44,39.21H56.93v6.64H43.34V63.7h12.8v6.64H43.34V89.61H56.93v6.64H35.44Z"/><path class="cls-2" d="M65.77,75.31,58.11,56.59h8.22L70.2,68.76h.16l4.5-12.17h7L74,76.26l8.45,20H74.31l-4.74-14h-.16l-4.74,14H57.24Z"/><path class="cls-2" d="M86.39,61.81H82.68V56.59h3.71v-7.5l7.43-2.61V56.59H98.4v5.22H93.82V87.48c0,3,1.34,3.55,3.55,3.55a6.11,6.11,0,0,0,1.9-.23V96c-.87.08-2.77.24-4.82.24-5.92,0-8.06-1.74-8.06-5.3Z"/><path class="cls-2" d="M100.77,66.78c0-6.71,3.87-10.66,10.74-10.66,5.93,0,10.83,2.53,10.83,9.87v12.8H108.2v8.45c0,3.71,1.26,4.74,3.63,4.74,2.76,0,3.55-2,3.55-5.13V83.21h7v5.61c0,4-2.85,7.9-11.06,7.9-5.61,0-10.51-2.53-10.51-9.87Zm7.43,6.8h7.18V65.83c0-3.55-1-5-3.55-5-2.76,0-3.63,1.5-3.63,4.34Z"/><path class="cls-2" d="M127.39,56.59h7V60.7h.16c1.74-3.71,3-4.58,6.64-4.58v7.42c-3.71,0-6.32,1-6.32,5.14V96.25h-7.43Z"/><path class="cls-2" d="M143.75,39.21h7.42v7.9h-7.42Zm0,17.38h7.42V96.25h-7.42Z"/><path class="cls-2" d="M156.7,66.78c0-6.71,3.87-10.66,10.51-10.66,5.69,0,10.58,2.53,10.58,9.87V86.06c0,6.71-3.87,10.66-10.5,10.66-5.69,0-10.59-2.53-10.59-9.87Zm7.43,19.75c0,3.16.79,5,3.16,5s3.08-1.82,3.08-5V66.31c0-3.16-.79-5-3.08-5s-3.16,1.82-3.16,5Z"/><path class="cls-2" d="M183.09,56.59H190V60.7h.16c1.73-3.71,3-4.58,6.63-4.58v7.42c-3.71,0-6.32,1-6.32,5.14V96.25h-7.42Z"/><path class="cls-2" d="M210.89,69.39V65.6c0-3.08-.63-4.27-2.6-4.27s-2.53.87-2.53,3.64c0,4,.32,4.26,5.29,8.61,5.77,5,6.87,6.71,6.87,12.48,0,7.74-2.68,10.66-10.58,10.66-5.69,0-8.85-2.37-8.85-8.13V83h6.95v5.45c0,2.45,1,3.08,2.77,3.08,2.45,0,2.76-1.27,2.76-4.43,0-4.26-.23-4.89-4.5-8.53l-1.66-1.42c-5.92-5.06-6-5.69-6-11.14,0-7.5,3.63-9.87,10.27-9.87,5.53,0,8.45,2.45,8.45,7.19v6.08Z"/></g></g></g></svg>