<svg xmlns="http://www.w3.org/2000/svg" viewBox="0 0 315.87 143.9"><defs><style>.cls-1{fill:#607534;}.cls-2{fill:#fff;}</style></defs><g id="Layer_2" data-name="Layer 2"><g id="Layer_1-2" data-name="Layer 1"><g id="Path_1743" data-name="Path 1743"><path class="cls-1" d="M0,0H315.87L240.3,143.9H0Z"/></g><g id="Kitchens"><path class="cls-2" d="M35.25,40.9h7.9v26h.16l12.48-26h7.9L50.42,67.71,64.64,98H55.79L43.31,69.45h-.16V98h-7.9Z"/><path class="cls-2" d="M67.41,40.9h7.42v7.9H67.41Zm0,17.38h7.42V97.93H67.41Z"/><path class="cls-2" d="M81.86,63.52H78.15V58.31h3.71V50.8l7.43-2.6V58.31h4.58v5.21H89.29V89.2c0,3,1.34,3.55,3.55,3.55a6.11,6.11,0,0,0,1.9-.23v5.21c-.87.08-2.76.23-4.82.23-5.92,0-8.06-1.73-8.06-5.29Z"/><path class="cls-2" d="M95.53,68.5c0-6.71,3.87-10.66,10.43-10.66,6.71,0,9.64,3.31,9.64,7.9v5.92h-7V67.31c0-3-1.1-4.26-2.84-4.26s-2.84,1.58-2.84,4.66v21.8c0,2.37.87,3.72,2.84,3.72s2.84-1.43,2.84-3.87V84.62h7v6c0,6-5,7.82-9.56,7.82-5.61,0-10.51-2.53-10.51-9.88Z"/><path class="cls-2" d="M119.94,40.9h7.43V61.6h.15a6.12,6.12,0,0,1,2.61-2.85,8.21,8.21,0,0,1,3.79-.94c3.72,0,7,2,7,7.82v32.3H133.5V67.08c0-2-.55-3.56-2.85-3.56-1.81,0-3.23,1.11-3.23,4.19V98H120Z"/><path class="cls-2" d="M145.93,68.5c0-6.71,3.87-10.66,10.74-10.66,5.93,0,10.83,2.52,10.83,9.87v12.8H153.36V89c0,3.71,1.26,4.74,3.63,4.74,2.76,0,3.55-2,3.55-5.14V84.9h7v5.61c0,4-2.85,7.9-11.06,7.9-5.61,0-10.51-2.53-10.51-9.88Zm7.43,6.79h7.18V67.55c0-3.55-1-5-3.55-5-2.76,0-3.63,1.5-3.63,4.34Z"/><path class="cls-2" d="M172.55,58.31h6.95v3.32h.16a7.3,7.3,0,0,1,2.85-2.77,7.68,7.68,0,0,1,4-1c3.72,0,7,2,7,7.82V98h-7.43V67.08c0-2-.55-3.56-2.84-3.56-1.82,0-3.24,1.11-3.24,4.19V98h-7.43Z"/><path class="cls-2" d="M210.55,71.11v-3.8c0-3.08-.63-4.26-2.61-4.26s-2.52.87-2.52,3.63c0,4,.31,4.27,5.29,8.61,5.77,5.06,6.87,6.72,6.87,12.49,0,7.74-2.68,10.66-10.58,10.66-5.69,0-8.85-2.37-8.85-8.14V84.69h6.95v5.45c0,2.45,1,3.09,2.77,3.09,2.44,0,2.76-1.27,2.76-4.43,0-4.26-.24-4.9-4.5-8.53l-1.66-1.37c-5.93-5.06-6-5.69-6-11.14,0-7.51,3.64-9.87,10.27-9.87,5.53,0,8.46,2.45,8.46,7.19v6.08Z"/></g></g></g></svg>