<svg xmlns="http://www.w3.org/2000/svg" viewBox="0 0 424.2 143.9"><defs><style>.cls-1{fill:#803031;}.cls-2{fill:#fff;}</style></defs><g id="Layer_2" data-name="Layer 2"><g id="Layer_1-2" data-name="Layer 1"><g id="Path_1742" data-name="Path 1742"><path class="cls-1" d="M0,0H424.2L348.63,143.9H0Z"/></g><g id="Exteriors"><path class="cls-2" d="M35.44,39.21h7.9v50.4H56.61v6.64H35.44Z"/><path class="cls-2" d="M60.32,39.21h7.43v7.9H60.32Zm0,17.38h7.43V96.25H60.32Z"/><path class="cls-2" d="M71.07,56.59h7.66l5.13,32.23H84l5.14-32.23h7.42L87.74,96.25H79.05Z"/><path class="cls-2" d="M99.9,39.21h7.43v7.9H99.9Zm0,17.38h7.43V96.25H99.9Z"/><path class="cls-2" d="M112.94,56.59h7v3.32h.16a7.48,7.48,0,0,1,2.84-2.77,7.68,7.68,0,0,1,4-1c3.71,0,7,2,7,7.82V96.25h-7.42V65.36c0-2-.56-3.55-2.85-3.55-1.82,0-3.24,1.1-3.24,4.18V96.25H113Z"/><path class="cls-2" d="M139.88,99.88h7.42V103c0,2.29.71,3.4,2.77,3.4,1.89,0,2.76-1.19,2.76-4.5V92h-.16c-1.5,2.37-3.63,3.32-6.55,3.32-4.35,0-7-3.32-7-9.16V65.28c0-5.84,2.61-9.16,7-9.16,3.31,0,5,1.1,7,4h.16V56.59h6.95v43.53c0,7-3.48,11-10.67,11-5.37,0-9.71-2.06-9.71-7.9Zm6.71-15.48c0,4.58,1.26,5.69,3.24,5.69,1.5,0,3-1.27,3-4.19V65.52c0-2.77-1.18-4.19-3.32-4.19-1.74,0-2.92.79-2.92,4.11Z"/><path class="cls-2" d="M179.61,79.74h7.9V84.4c0,3.79,1.42,6.16,4.58,6.16,4.19,0,5.22-2.84,5.22-6.56,0-4.82-.24-6.4-8.46-14.53-5-5.06-9.24-9.64-9.24-17.38,0-9.32,4.35-13.35,13-13.35a13.46,13.46,0,0,1,9.24,3.16c1.34,1.26,2.29,3.24,2.29,7.27v5.37h-7.43V50c0-3.24-1.34-5.14-4.42-5.14-3.24,0-4.74,1.82-4.74,6.24,0,3.87.79,6.24,8.06,13.83,7.74,8,9.16,10.82,9.16,17.69,0,8.93-3.47,14.06-12.87,14.06-7.27,0-12.25-3.08-12.25-10.19Z"/><path class="cls-2" d="M209.39,56.59h7V61h.15a7.07,7.07,0,0,1,7-4.9c4.35,0,7,3.32,7,9.16v22.3c0,5.84-2.61,9.16-7,9.16A9.48,9.48,0,0,1,216.82,94v16.58h-7.43Zm7.43,30.73c0,2.92,1.5,4.19,3,4.19,2,0,3.24-1.11,3.24-5.69V67.18c0-4.27-1.18-5.37-2.84-5.37-2.06,0-3.4,1.58-3.4,6.47Z"/><path class="cls-2" d="M235.62,64.73c0-5.85,3.56-8.61,10.59-8.61,6.79,0,10.5,2.68,10.5,9.64V96.25h-6.95V92.14c-.87.87-1.34,1.66-2.13,2.45a7.73,7.73,0,0,1-5.29,2.13c-4.43,0-7.27-1.34-7.27-10.82,0-8,.63-9.8,2.68-11.93,1.74-1.82,3-2.45,11.54-2.45v-6.4c0-2.29-.56-3.79-3.08-3.79-2.06,0-3.16.87-3.16,3.32v3.63h-7.43Zm11.3,12c-3.48,0-4.43,1.89-4.43,8.13,0,5.85.56,6.64,2.93,6.64,2.52,0,3.87-1.9,3.87-4.58V76.74Z"/><path class="cls-2" d="M261.06,66.78c0-6.71,3.87-10.66,10.43-10.66s9.63,3.32,9.63,7.9v5.92h-6.95V65.6c0-3-1.1-4.27-2.84-4.27s-2.85,1.58-2.85,4.66V87.8c0,2.36.87,3.71,2.85,3.71s2.84-1.42,2.84-3.87V82.9h6.95v6c0,6-5,7.82-9.56,7.82-5.6,0-10.5-2.53-10.5-9.87Z"/><path class="cls-2" d="M285.15,66.78c0-6.71,3.87-10.66,10.75-10.66,5.92,0,10.82,2.53,10.82,9.87v12.8H292.58v8.45c0,3.71,1.26,4.74,3.63,4.74,2.77,0,3.56-2,3.56-5.13V83.21h7v5.61c0,4-2.84,7.9-11.06,7.9-5.61,0-10.51-2.53-10.51-9.87Zm7.43,6.8h7.19V65.83c0-3.55-1-5-3.56-5-2.76,0-3.63,1.5-3.63,4.34Z"/><path class="cls-2" d="M323.47,69.39V65.6c0-3.08-.64-4.27-2.61-4.27s-2.53.87-2.53,3.64c0,4,.32,4.26,5.29,8.61,5.77,5,6.88,6.71,6.88,12.48,0,7.74-2.69,10.66-10.59,10.66-5.69,0-8.85-2.37-8.85-8.13V83h7v5.45c0,2.45,1,3.08,2.76,3.08,2.45,0,2.77-1.27,2.77-4.43,0-4.26-.24-4.89-4.51-8.53l-1.66-1.42c-5.92-5.06-6-5.69-6-11.14,0-7.5,3.63-9.87,10.27-9.87,5.53,0,8.45,2.45,8.45,7.19v6.08Z"/></g></g></g></svg>