<svg xmlns="http://www.w3.org/2000/svg" viewBox="0 0 607.66 143.9"><defs><style>.cls-1{fill:#694160;}.cls-2{fill:#fff;}</style></defs><g id="Layer_2" data-name="Layer 2"><g id="Layer_1-2" data-name="Layer 1"><g id="Path_1742" data-name="Path 1742"><path class="cls-1" d="M0,0H607.66L532.09,143.9H0Z"/></g><g id="Exteriors"><path class="cls-2" d="M35.2,53.75c0-8,2.61-15,13.35-15C58.74,38.74,62,44,62,52.88V81.71c0,8-2.6,15-13.43,15-10.11,0-13.35-5.29-13.35-14.14Zm7.9,29.3c0,4.9,2.21,7.51,5.45,7.51s5.53-2.61,5.53-7.51V53.12c0-5.61-1.89-8.22-5.53-8.22s-5.45,2.61-5.45,8.22Z"/><path class="cls-2" d="M88.29,96.25h-7V92.93h-.16a7.38,7.38,0,0,1-2.84,2.76,7.68,7.68,0,0,1-4,1c-3.71,0-7-2-7-7.82V56.59h7.42V87.48c0,2,.55,3.55,2.85,3.55,1.81,0,3.23-1.1,3.23-4.18V56.59h7.43Z"/><path class="cls-2" d="M95.08,61.81H91.37V56.59h3.71v-7.5l7.43-2.61V56.59h4.58v5.22h-4.58V87.48c0,3,1.34,3.55,3.55,3.55a6.11,6.11,0,0,0,1.9-.23V96c-.87.08-2.76.24-4.82.24-5.92,0-8.06-1.74-8.06-5.3Z"/><path class="cls-2" d="M109.7,65.28c0-5.84,2.61-9.16,7-9.16a8.77,8.77,0,0,1,3.71.79,6.3,6.3,0,0,1,2.85,2.53h.15V39.21h7.43v57h-7V93.4h-.16a8.08,8.08,0,0,1-3.16,2.45,9.23,9.23,0,0,1-3.87.87c-4.34,0-7-3.32-7-9.16Zm7.42,21c0,4.58,1.27,5.69,3.24,5.69,1.5,0,3-1.26,3-4.19v-20c0-4.9-1.34-6.48-3.39-6.48-1.66,0-2.85,1.11-2.85,5.37Z"/><path class="cls-2" d="M136,66.78c0-6.71,3.87-10.66,10.5-10.66,5.69,0,10.59,2.53,10.59,9.87V86.06c0,6.71-3.87,10.66-10.51,10.66-5.69,0-10.58-2.53-10.58-9.87Zm7.42,19.75c0,3.16.79,5,3.16,5s3.08-1.82,3.08-5V66.31c0-3.16-.79-5-3.08-5s-3.16,1.82-3.16,5Z"/><path class="cls-2" d="M162.31,66.78c0-6.71,3.87-10.66,10.51-10.66,5.69,0,10.58,2.53,10.58,9.87V86.06c0,6.71-3.87,10.66-10.5,10.66-5.69,0-10.59-2.53-10.59-9.87Zm7.43,19.75c0,3.16.79,5,3.16,5s3.08-1.82,3.08-5V66.31c0-3.16-.79-5-3.08-5s-3.16,1.82-3.16,5Z"/><path class="cls-2" d="M188.7,56.59h7V60.7h.16c1.73-3.71,3-4.58,6.63-4.58v7.42c-3.71,0-6.32,1-6.32,5.14V96.25H188.7Z"/><path class="cls-2" d="M219.74,39.21h7.9v50.4h13.27v6.64H219.74Z"/><path class="cls-2" d="M244.63,39.21h7.42v7.9h-7.42Zm0,17.38h7.42V96.25h-7.42Z"/><path class="cls-2" d="M255.37,56.59H263l5.14,32.23h.16l5.13-32.23h7.43L272,96.25h-8.69Z"/><path class="cls-2" d="M284.21,39.21h7.42v7.9h-7.42Zm0,17.38h7.42V96.25h-7.42Z"/><path class="cls-2" d="M297.24,56.59h6.95v3.32h.16a7.48,7.48,0,0,1,2.84-2.77,7.68,7.68,0,0,1,4-1c3.72,0,6.95,2,6.95,7.82V96.25h-7.42V65.36c0-2-.55-3.55-2.85-3.55-1.81,0-3.23,1.1-3.23,4.18V96.25h-7.43Z"/><path class="cls-2" d="M324.18,99.88h7.42V103c0,2.29.71,3.4,2.77,3.4,1.9,0,2.76-1.19,2.76-4.5V92H337c-1.5,2.37-3.64,3.32-6.56,3.32-4.35,0-6.95-3.32-6.95-9.16V65.28c0-5.84,2.6-9.16,6.95-9.16,3.32,0,5.06,1.1,7,4h.16V56.59h6.95v43.53c0,7-3.48,11-10.66,11-5.38,0-9.72-2.06-9.72-7.9Zm6.71-15.48c0,4.58,1.27,5.69,3.24,5.69,1.5,0,3-1.27,3-4.19V65.52c0-2.77-1.18-4.19-3.31-4.19-1.74,0-2.93.79-2.93,4.11Z"/><path class="cls-2" d="M363.91,79.74h7.9V84.4c0,3.79,1.42,6.16,4.59,6.16,4.18,0,5.21-2.84,5.21-6.56,0-4.82-.24-6.4-8.45-14.53-5.06-5.06-9.25-9.64-9.25-17.38,0-9.32,4.35-13.35,13-13.35a13.41,13.41,0,0,1,9.24,3.16c1.34,1.26,2.29,3.24,2.29,7.27v5.37H381V50c0-3.23-1.35-5.13-4.43-5.13-3.24,0-4.74,1.82-4.74,6.24,0,3.87.79,6.24,8.06,13.82C387.61,73,389,75.79,389,82.66c0,8.93-3.47,14.06-12.87,14.06-7.27,0-12.25-3.08-12.25-10.19Z"/><path class="cls-2" d="M393.7,56.59h6.95V61h.16a7,7,0,0,1,7-4.9c4.34,0,7,3.32,7,9.16v22.3c0,5.84-2.61,9.16-7,9.16A9.5,9.5,0,0,1,401.12,94v16.59H393.7Zm7.42,30.73c0,2.92,1.5,4.19,3,4.19,2,0,3.24-1.11,3.24-5.69V67.18c0-4.27-1.18-5.37-2.84-5.37-2.06,0-3.4,1.58-3.4,6.47Z"/><path class="cls-2" d="M419.92,64.73c0-5.85,3.56-8.61,10.59-8.61,6.79,0,10.51,2.68,10.51,9.63v30.5h-7V92.14c-.87.87-1.34,1.66-2.13,2.45a7.73,7.73,0,0,1-5.29,2.13c-4.43,0-7.27-1.34-7.27-10.82,0-8,.63-9.8,2.69-11.93,1.73-1.82,3-2.45,11.53-2.45v-6.4c0-2.29-.55-3.79-3.08-3.79-2.05,0-3.16.87-3.16,3.32v3.63h-7.43Zm11.3,12c-3.48,0-4.42,1.9-4.42,8.14,0,5.85.55,6.64,2.92,6.64,2.53,0,3.87-1.9,3.87-4.58V76.73Z"/><path class="cls-2" d="M445.36,66.78c0-6.71,3.87-10.66,10.43-10.66s9.64,3.32,9.64,7.9v5.92h-6.95V65.6c0-3-1.11-4.27-2.85-4.27s-2.84,1.58-2.84,4.66v21.8c0,2.37.87,3.72,2.84,3.72s2.85-1.42,2.85-3.87V82.9h6.95v6c0,6-5,7.82-9.56,7.82-5.61,0-10.51-2.53-10.51-9.87Z"/><path class="cls-2" d="M469.46,66.78c0-6.71,3.87-10.66,10.74-10.66,5.92,0,10.82,2.53,10.82,9.87v12.8H476.88v8.45c0,3.71,1.27,4.74,3.63,4.74,2.77,0,3.56-2,3.56-5.13V83.21H491v5.61c0,4-2.84,7.9-11.06,7.9-5.61,0-10.5-2.53-10.5-9.87Zm7.42,6.79h7.19V65.83c0-3.55-1-5-3.56-5-2.76,0-3.63,1.5-3.63,4.34Z"/><path class="cls-2" d="M507.77,69.39V65.6c0-3.08-.63-4.27-2.61-4.27s-2.53.87-2.53,3.63c0,4,.32,4.27,5.3,8.61,5.76,5.06,6.87,6.72,6.87,12.49,0,7.74-2.69,10.66-10.59,10.66-5.68,0-8.84-2.37-8.84-8.14V83h6.95v5.45c0,2.44,1,3.08,2.76,3.08,2.45,0,2.77-1.27,2.77-4.43,0-4.26-.24-4.89-4.5-8.53l-1.66-1.42c-5.93-5.06-6-5.69-6-11.14,0-7.5,3.64-9.87,10.27-9.87,5.53,0,8.45,2.45,8.45,7.19v6.08Z"/></g></g></g></svg>