<svg xmlns="http://www.w3.org/2000/svg" xmlns:xlink="http://www.w3.org/1999/xlink" width="256" height="161" viewBox="0 0 256 161">
  <defs>
    <clipPath id="clip-path">
      <rect id="Rectangle_64" data-name="Rectangle 64" width="255.717" height="161" fill="none"/>
    </clipPath>
    <clipPath id="clip-B3">
      <rect width="256" height="161"/>
    </clipPath>
  </defs>
  <g id="B3" clip-path="url(#clip-B3)">
    <g id="Group_112" data-name="Group 112" transform="translate(0.078)">
      <g id="Group_111" data-name="Group 111" clip-path="url(#clip-path)">
        <path id="Path_1201" data-name="Path 1201" d="M26.146,95.771c0-6.222-5.034-12.444-15.87-12.444H0c.139,7.271,0,42.926,0,47.051H5.313v-44.6l.35-.42c10.906-.839,15.521,5.1,15.521,10.906,0,6.641-5.1,12.3-13.633,12.3l-.56.559a23.546,23.546,0,0,0,4.965,0c3.7,6.432,10.486,17.827,12.514,21.253h6.153c-4.894-7.62-10.487-16.289-13.494-21.952,5.8-1.818,9.019-6.223,9.019-12.654" transform="translate(0 -22.641)" fill="#fff"/>
        <path id="Path_1202" data-name="Path 1202" d="M55.9,93.034h-.441l-13.8,33.427h1.419l4.8-11.551H60.995c1.566,3.915,3.279,8.369,4.4,11.551h4.21c-2.007-4.649-8.222-19.333-12.481-29.952-.537-1.321-1.224-3.475-1.224-3.475m-7.487,20.458,6.067-15.27v.587s3.329,8.222,5.922,14.683Z" transform="translate(-11.32 -25.278)" fill="#fff"/>
        <path id="Path_1203" data-name="Path 1203" d="M89.156,93.7c.1,5.09-.049,30.05-.049,32.938h3.719c0-9.348-.049-23.541-.049-32.938Z" transform="translate(-24.211 -25.46)" fill="#fff"/>
        <path id="Path_1204" data-name="Path 1204" d="M131.289,127.23c-.245-9.4-.048-24.128-.048-33.525h-1.567c.1,5.09.1,24.275.1,27.163l-.343-.832S109.412,96.446,107.406,93.7h-2.1l.294,2.5c.049,7.1,0,27.8,0,30.441h1.566v-27.5l-.343-1.077s20.947,25.3,24.471,29.17" transform="translate(-28.611 -25.46)" fill="#fff"/>
        <path id="Path_1205" data-name="Path 1205" d="M192.558,93.431l-10.424,27.8v-.587L172.394,92.7h-.44l-10.131,28.435v-.588s-6.265-18.255-9.445-27.114h-3.867c1.762,4.845,6.656,19.332,10.914,29.952.489,1.322,1.224,3.475,1.224,3.475h.44l9.984-28.435a3.974,3.974,0,0,0,.049.784c1.713,4.943,4.454,13.752,8.614,24.176.538,1.322,1.272,3.475,1.272,3.475h.391l12.676-33.427Z" transform="translate(-40.352 -25.186)" fill="#fff"/>
        <path id="Path_1206" data-name="Path 1206" d="M221.62,93.034h-.441l-13.8,33.427H208.8l4.8-11.551H226.71c1.566,3.915,3.279,8.369,4.4,11.551h4.21c-2.006-4.649-8.222-19.333-12.48-29.952-.538-1.321-1.224-3.475-1.224-3.475m-7.488,20.458,6.068-15.27v.587s3.328,8.222,5.922,14.683Z" transform="translate(-56.346 -25.278)" fill="#fff"/>
        <path id="Path_1207" data-name="Path 1207" d="M242.726,95.027h11.5v31.617H257.9c0-9.4.049-22.171.049-31.617h12.089V93.706H243.069Z" transform="translate(-65.95 -25.461)" fill="#fff"/>
        <path id="Path_1208" data-name="Path 1208" d="M290.7,125.272l-.049-14.634c4.7-.1,8.662-.049,11.5.2v-1.812c-2.839.343-9.005.293-11.452.293V95.026s11.158-.049,13.508.245l-.587-1.566H287.077v32.938h18.892l.586-1.664c-2.446.441-15.856.293-15.856.293" transform="translate(-78.001 -25.46)" fill="#fff"/>
        <path id="Path_1209" data-name="Path 1209" d="M333.675,111.276c4.062-1.272,6.314-4.356,6.314-8.859,0-4.356-3.524-8.711-11.11-8.711h-7.194c.1,5.089,0,30.05,0,32.938h3.72V95.419l.244-.294c7.635-.588,10.865,3.572,10.865,7.635,0,4.649-3.572,8.614-9.543,8.614l-.392.391a16.524,16.524,0,0,0,3.475,0c2.594,4.5,7.341,12.48,8.761,14.878h4.307c-3.426-5.335-7.341-11.4-9.446-15.368" transform="translate(-87.404 -25.461)" fill="#fff"/>
        <path id="Path_1210" data-name="Path 1210" d="M136.556,168.905c0-6.222-5.035-12.444-15.87-12.444H110.41c.139,7.271,0,42.926,0,47.051h5.312v-44.6l.35-.419c10.906-.839,15.52,5.1,15.52,10.906,0,6.641-5.1,12.3-13.633,12.3l-.56.56a23.553,23.553,0,0,0,4.965,0c3.7,6.432,10.485,17.827,12.514,21.253h6.152c-4.894-7.62-10.487-16.29-13.494-21.952,5.8-1.818,9.02-6.223,9.02-12.654" transform="translate(-29.999 -42.512)" fill="#fff"/>
        <path id="Path_1211" data-name="Path 1211" d="M178.2,166.839c.049,2.741,0,13.9,0,20.408,0,6.02-3.867,10.817-10.082,10.817-6.167,0-9.593-4.552-9.544-10.621v-20.6h-3.817v20.408c0,7.929,4.649,13.166,12.626,13.166,6.265,0,9.055-4.21,10.67-7.439,0,2.349.538,6.069.538,6.8h3.083c-.293-9.4.147-23.541.147-32.938Z" transform="translate(-42.05 -45.331)" fill="#fff"/>
        <path id="Path_1212" data-name="Path 1212" d="M228.276,166.839H226.71c.1,5.09.1,24.275.1,27.162l-.342-.832s-20.017-23.589-22.024-26.33h-2.1l.294,2.5c.049,7.1,0,27.8,0,30.441H204.2V172.271l-.342-1.076s20.947,25.3,24.47,29.169c-.245-9.4-.048-24.128-.048-33.525" transform="translate(-54.976 -45.331)" fill="#fff"/>
        <path id="Path_1213" data-name="Path 1213" d="M142.711,11.92c-.036.06-.069.121-.1.181-.169.291-.334.584-.492.882-.048.091-.094.184-.141.275-.138.271-.274.543-.4.82-.052.113-.1.227-.154.342-.116.259-.228.519-.334.783-.053.13-.1.261-.155.392q-.145.379-.28.764c-.05.143-.1.285-.145.43-.082.249-.158.5-.232.754-.044.153-.089.305-.13.459-.067.249-.128.5-.187.752-.038.161-.076.32-.111.482-.053.252-.1.505-.146.76-.029.163-.061.326-.087.491-.042.261-.075.526-.109.791-.02.159-.044.318-.06.478-.031.288-.051.58-.071.871-.01.139-.024.277-.032.416q-.034.648-.035,1.3a24.261,24.261,0,0,0,1.913,9.476q.461,1.092,1.025,2.128.281.518.586,1.02a24.358,24.358,0,0,0,41.64,0q.306-.5.586-1.02.563-1.035,1.025-2.128A24.358,24.358,0,0,0,163.645,0c-.4,0-.807.011-1.206.031-.138.007-.274.02-.411.028-.261.017-.521.034-.779.06-.168.016-.332.039-.5.058-.224.026-.448.052-.67.085-.182.026-.362.059-.543.09-.2.034-.406.068-.607.108s-.379.079-.567.121-.372.083-.557.129-.395.1-.591.154q-.255.07-.508.144c-.205.061-.409.125-.613.192-.153.05-.3.1-.456.154-.214.074-.428.151-.639.231-.133.051-.266.1-.4.157-.224.09-.447.181-.668.277-.109.048-.218.1-.326.147-.24.109-.478.218-.714.335-.073.036-.143.074-.216.111-.268.135-.534.272-.8.417h0a24.453,24.453,0,0,0-8.524,7.86l-.02.031q-.326.492-.628,1m33.861,6.63c0,4.352-2.2,7.437-6.189,8.686l-.084.026.041.078c1.778,3.349,4.895,8.185,7.91,12.861.485.753.966,1.5,1.438,2.234H175.6c-.412-.7-1.1-1.845-1.932-3.233-2.1-3.5-4.971-8.3-6.786-11.449l-.023-.039-.044,0c-.154.008-.323.019-.5.031-.494.031-1.054.067-1.61.067a7.912,7.912,0,0,1-1.168-.074l.266-.265a9.827,9.827,0,0,0,6.95-2.554,8.267,8.267,0,0,0,2.526-6.033c0-2.939-1.754-6.429-6.676-7.41a14.333,14.333,0,0,0-2.788-.262c-.438,0-.894.017-1.356.053l-.184.02-.058.006-.065.007V21.411a9.156,9.156,0,0,1-3.52,3c0-8.9-.007-13.741-.01-14.4h7.038c7.536,0,10.908,4.288,10.908,8.538m-14.416,6.518v2.947c-.524-.92-.974-1.734-1.342-2.425a12,12,0,0,0,1.342-.522m2.584,2.818c.166,0,.333,0,.5-.009-.165.006-.332.009-.5.009m.6,5.678c-.682-1.129-1.339-2.229-1.952-3.273.613,1.044,1.269,2.144,1.952,3.273m-1.232-5.7c.2.012.4.019.6.019-.2,0-.4-.007-.6-.019m-.72-.079a5.718,5.718,0,0,0,.573.068,5.718,5.718,0,0,1-.573-.068m-1.161-6.356a9.019,9.019,0,0,1-1.587,1.752,9,9,0,0,0,1.587-1.753Zm.06.041a9.337,9.337,0,0,0,1.626-5.329,8.03,8.03,0,0,0-1.5-4.724l.058-.007c.455-.035.907-.052,1.342-.052a14.178,14.178,0,0,1,2.726.253,8.616,8.616,0,0,1,.847,2.252,8.746,8.746,0,0,1,.214,1.9,12.994,12.994,0,0,1-.205,2.309,9.013,9.013,0,0,1-5.2,6.812,11.988,11.988,0,0,1-1.511.59l-.084.026.042.077c.407.767.918,1.69,1.521,2.745,1.355,2.371,3.159,5.384,5.216,8.715,1.035,1.677,3.018,4.8,3.419,5.427l-4.444,0c-.794-1.342-2.422-4.114-4.065-6.923-1.208-2.065-2.5-4.279-3.663-6.283-.675-1.163-1.308-2.256-1.856-3.207l-.023-.039-.044,0c-.171.009-.359.02-.559.034-.552.035-1.178.075-1.8.075a8.816,8.816,0,0,1-1.323-.084l.311-.311a12.1,12.1,0,0,0,5.26-1.132,9.312,9.312,0,0,0,3.693-3.121m.182-10.133q.7-.054,1.348-.052a14.148,14.148,0,0,1,2.774.261,14.148,14.148,0,0,0-2.774-.261q-.649,0-1.348.052m-.315,31.092-3.513-.007,0-12.862c1.125,1.936,2.359,4.051,3.518,6.032Zm-5.992-16.313-.414.025.414-.025m-.637.038c-.129.007-.259.013-.392.019.133-.006.264-.012.392-.019m-.589.027c-.184.006-.37.01-.556.011.186,0,.371-.005.556-.011m10.477,1.684c.121-.005.24-.01.358-.017-.117.007-.236.012-.358.017m.54-.027.379-.023-.379.023M153.3,25.657l-.432.432a6.347,6.347,0,0,0,.639.077,6.321,6.321,0,0,1-.639-.077l.432-.432a13.209,13.209,0,0,0,2.829-.3,13.209,13.209,0,0,1-2.829.3m1.039.541c-.226,0-.449-.008-.667-.021.218.013.441.021.667.021M155.412,6.15c4.765,0,8.067,1.562,10.037,3.79h-4.534C158.968,8.354,156,7.4,151.846,7.717l-.27.019v34.78h-4c-.036-.031-.072-.061-.107-.092,0-3.519.106-30.348,0-36.155.044-.04.091-.078.135-.117Z" transform="translate(-37.849 0)" fill="#fff"/>
      </g>
    </g>
  </g>
</svg>
