<svg xmlns="http://www.w3.org/2000/svg" xmlns:xlink="http://www.w3.org/1999/xlink" width="256" height="161" viewBox="0 0 256 161">
  <defs>
    <clipPath id="clip-path">
      <rect id="Rectangle_63" data-name="Rectangle 63" width="255.795" height="161.048" fill="none"/>
    </clipPath>
    <clipPath id="clip-B3_5">
      <rect width="256" height="161"/>
    </clipPath>
  </defs>
  <g id="B3_5" data-name="B3 – 5" clip-path="url(#clip-B3_5)">
    <g id="Group_109" data-name="Group 109">
      <g id="Group_108" data-name="Group 108" clip-path="url(#clip-path)">
        <path id="Path_1182" data-name="Path 1182" d="M24.477,130.391c-2.028-3.427-8.812-14.826-12.518-21.26a23.545,23.545,0,0,1-4.966,0l.56-.559c8.531,0,13.636-5.665,13.636-12.308,0-5.8-4.616-11.749-15.525-10.91l-.35.42v44.617H0C0,126.265.14,90.6,0,83.326H10.28c10.84,0,15.875,6.224,15.875,12.448,0,6.434-3.217,10.84-9.022,12.658,3.007,5.665,8.6,14.336,13.5,21.959Z" transform="translate(0 -22.622)" fill="#184c71"/>
        <path id="Path_1183" data-name="Path 1183" d="M65.407,126.47c-1.126-3.183-2.84-7.638-4.406-11.554H47.881l-4.8,11.554h-1.42L55.468,93.033h.441s.686,2.154,1.224,3.476c4.26,10.623,10.477,25.311,12.484,29.962ZM60.414,113.5c-2.595-6.463-5.924-14.688-5.924-14.688v-.587L48.419,113.5Z" transform="translate(-11.311 -25.257)" fill="#184c71"/>
        <path id="Path_1184" data-name="Path 1184" d="M89.106,126.652c0-2.889.147-27.856.049-32.948h3.623c0,9.4.049,23.6.049,32.948Z" transform="translate(-24.191 -25.439)" fill="#184c71"/>
        <path id="Path_1185" data-name="Path 1185" d="M129.779,120.875c0-2.889,0-22.08-.1-27.171h1.567c0,9.4-.2,24.136.048,33.535-3.525-3.867-24.478-29.177-24.478-29.177l.343,1.076v27.514H105.6c0-2.644.049-23.353,0-30.45l-.294-2.5h2.105c2.007,2.741,22.03,26.338,22.03,26.338Z" transform="translate(-28.588 -25.439)" fill="#184c71"/>
        <path id="Path_1186" data-name="Path 1186" d="M181.018,126.868s-.734-2.154-1.273-3.476c-4.161-10.428-6.9-19.24-8.616-24.184a3.915,3.915,0,0,1-.05-.783l-9.987,28.443h-.44s-.734-2.154-1.224-3.476c-4.259-10.624-9.155-25.115-10.918-29.962h3.868c3.182,8.861,9.448,27.122,9.448,27.122v.588L171.961,92.7h.441l9.742,27.955v.587L192.572,93.43h1.518l-12.68,33.437Z" transform="translate(-40.319 -25.166)" fill="#184c71"/>
        <path id="Path_1187" data-name="Path 1187" d="M231.122,126.47c-1.126-3.183-2.84-7.638-4.406-11.554H213.6l-4.8,11.554h-1.42l13.805-33.437h.441s.686,2.154,1.224,3.476c4.26,10.623,10.477,25.311,12.484,29.962ZM226.129,113.5c-2.595-6.463-5.924-14.688-5.924-14.688v-.587l-6.07,15.275Z" transform="translate(-56.3 -25.257)" fill="#184c71"/>
        <path id="Path_1188" data-name="Path 1188" d="M254.231,126.652V95.026h-11.5l.343-1.322h26.975v1.322H257.951c0,9.449-.049,22.227-.049,31.626Z" transform="translate(-65.897 -25.439)" fill="#184c71"/>
        <path id="Path_1189" data-name="Path 1189" d="M287.077,126.652V93.7h16.547l.587,1.566c-2.35-.294-13.512-.245-13.512-.245V109.32c2.448,0,8.616.05,11.455-.294v1.813c-2.839-.245-6.805-.294-11.5-.2l.05,14.638s13.414.147,15.861-.294l-.587,1.665Z" transform="translate(-77.937 -25.439)" fill="#184c71"/>
        <path id="Path_1190" data-name="Path 1190" d="M338.819,126.652c-1.419-2.4-6.168-10.378-8.763-14.883a16.44,16.44,0,0,1-3.477,0l.392-.391c5.973,0,9.546-3.966,9.546-8.617,0-4.064-3.231-8.224-10.868-7.637l-.245.294v31.234h-3.721c0-2.889.1-27.856,0-32.948h7.2c7.588,0,11.113,4.357,11.113,8.714,0,4.5-2.252,7.588-6.315,8.861,2.105,3.966,6.022,10.036,9.449,15.372Z" transform="translate(-87.332 -25.439)" fill="#184c71"/>
        <path id="Path_1191" data-name="Path 1191" d="M134.886,203.525c-2.028-3.427-8.812-14.826-12.518-21.26a23.546,23.546,0,0,1-4.966,0l.56-.559c8.531,0,13.636-5.665,13.636-12.308,0-5.8-4.616-11.749-15.525-10.909l-.35.42v44.616h-5.315c0-4.126.14-39.791,0-47.065h10.28c10.84,0,15.875,6.224,15.875,12.448,0,6.434-3.217,10.84-9.022,12.658,3.007,5.665,8.6,14.336,13.5,21.959Z" transform="translate(-29.974 -42.477)" fill="#184c71"/>
        <path id="Path_1192" data-name="Path 1192" d="M178.6,199.786c0-.734-.538-4.455-.538-6.805-1.616,3.232-4.407,7.442-10.673,7.442-7.979,0-12.63-5.238-12.63-13.169V166.838h3.819v20.61c-.05,6.071,3.377,10.624,9.546,10.624,6.217,0,10.085-4.8,10.085-10.819,0-6.511.049-17.673,0-20.415h3.623c0,9.4-.441,23.549-.147,32.948Z" transform="translate(-42.015 -45.294)" fill="#184c71"/>
        <path id="Path_1193" data-name="Path 1193" d="M226.814,194.009c0-2.889,0-22.079-.1-27.171h1.567c0,9.4-.2,24.136.048,33.535-3.525-3.867-24.478-29.177-24.478-29.177l.343,1.076v27.514H202.63c0-2.644.049-23.353,0-30.45l-.294-2.5h2.105c2.007,2.742,22.03,26.338,22.03,26.338Z" transform="translate(-54.931 -45.294)" fill="#184c71"/>
        <path id="Path_1194" data-name="Path 1194" d="M188,24.352A24.352,24.352,0,1,1,163.652,0,24.352,24.352,0,0,1,188,24.352" transform="translate(-37.818)" fill="#002639"/>
        <path id="Path_1195" data-name="Path 1195" d="M170.215,37.6V34.263a11.958,11.958,0,0,1-1.521.594c.425.8.942,1.73,1.521,2.744" transform="translate(-45.798 -9.302)" fill="#fff"/>
        <path id="Path_1196" data-name="Path 1196" d="M172.764,31.115l-.388.387a16.2,16.2,0,0,0,3.436,0c2.564,4.453,7.339,12.351,8.741,14.723h4.26c-3.388-5.274-7.34-11.287-9.42-15.206,4.016-1.257,6.243-4.307,6.243-8.759,0-4.306-3.484-8.613-10.985-8.613h-.213a8.916,8.916,0,0,1,1.143,1.612c4.6.916,6.62,4.154,6.62,7.34,0,4.6-3.533,8.517-9.436,8.517" transform="translate(-46.798 -3.705)" fill="#fff"/>
        <path id="Path_1197" data-name="Path 1197" d="M165.756,53.432l3.66.007V46.508c-1.209-2.067-2.5-4.28-3.664-6.285,0,7,0,13.209,0,13.209" transform="translate(-44.999 -10.92)" fill="#fff"/>
        <path id="Path_1198" data-name="Path 1198" d="M158.462,8.443h-7.946c.109,5.621,0,33.187,0,36.376h4.108V10.029l.27-.019c4.155-.319,7.124.637,9.072,2.224H168.5c-1.97-2.229-5.273-3.791-10.04-3.791" transform="translate(-40.863 -2.292)" fill="#427d9d"/>
        <path id="Path_1199" data-name="Path 1199" d="M172.511,41.222c-1.9-3.079-3.763-6.172-5.216-8.715-.579-1.013-1.1-1.942-1.521-2.744a11.959,11.959,0,0,0,1.521-.594A9.045,9.045,0,0,0,172.54,22.3a12.98,12.98,0,0,0,.206-2.323,8.82,8.82,0,0,0-.216-1.917,8.712,8.712,0,0,0-.871-2.3,15.085,15.085,0,0,0-4.123-.208l-.185.02a7.988,7.988,0,0,1,1.557,4.785,9.137,9.137,0,0,1-5.28,8.387,12.046,12.046,0,0,1-5.26,1.126l-.432.433a18.19,18.19,0,0,0,3.837,0c.549.951,1.182,2.044,1.857,3.208,1.164,2,2.456,4.218,3.664,6.285,1.756,3,3.337,5.693,4.087,6.961l4.62,0s-2.328-3.656-3.49-5.539" transform="translate(-42.877 -4.208)" fill="#427d9d"/>
        <path id="Path_1200" data-name="Path 1200" d="M172.633,13.647h-6.9c0,.188.007,7.154.011,14.6a9.3,9.3,0,0,0,3.666-3.1V15.076l.058-.006.185-.02a15.108,15.108,0,0,1,4.123.208,8.911,8.911,0,0,0-1.143-1.611" transform="translate(-44.994 -3.705)" fill="#fff"/>
      </g>
    </g>
  </g>
</svg>
