<svg id="Layer_1" data-name="Layer 1" xmlns="http://www.w3.org/2000/svg" xmlns:xlink="http://www.w3.org/1999/xlink" viewBox="0 0 388.46 264.26"><defs><style>.cls-1{fill:none;}.cls-2{clip-path:url(#clip-path);}.cls-3{fill:#fff;}.cls-4{fill:#303352;}</style><clipPath id="clip-path"><rect class="cls-1" x="0.98" y="-294.26" width="388.46" height="179.16"/></clipPath></defs><path class="cls-3" d="M261,64.19A64.27,64.27,0,0,0,196.84,0h-8.16V128.39h8.16A64.27,64.27,0,0,0,261,64.19Zm-68.87,60.72V3.48h4.68a60.72,60.72,0,0,1,0,121.43Z"/><path class="cls-3" d="M202,60.62v.5h-.43V60.6H202a20.45,20.45,0,0,1-4-3.75v.36h-.44v-.52h.33a14.86,14.86,0,0,1-1.07-1.56v7.43H205A33,33,0,0,1,202,60.62Zm-2.17,0v.52h-.44V60.6Zm-2.06,0h.43v.52h-.43Z"/><path class="cls-3" d="M198.45,84.51v.14a15.81,15.81,0,0,0,13.16,7.23c5.7,0,10.57-2.53,12.72-6.84H204.86v-.53h19.71a11.61,11.61,0,0,0,1-4.68,11.21,11.21,0,0,0-.54-3.49H209.32v-.52H224.8c-1.93-4.91-7.43-7.42-13.28-10-2-.87-3.85-1.77-5.62-2.75h-9.06v9.26h.41v.52h-.41v3h8.24v.52h-8.24v5.55a19.32,19.32,0,0,0,1.51,2.62ZM222,72.34h.44v.52H222Zm-1.52,0H221v.52h-.44Zm-1.74,0h.44v.52h-.44Zm-1.52,0h.44v.52h-.44Zm-2.39,0h.43v.52h-.43Zm-3,0h1.73v.52h-1.73Zm-1.41,0h.43v.52h-.43Zm-11.53.52h-.43v-.52h.43Zm1.63,0h-.43v-.52h.43Zm2.18,0h-.44v-.52h.44Zm1.63,0h-.44v-.52h.44Zm2.5,3.48h-.44v-.52h.44Zm1.52,0h-.44v-.52h.44Zm-3.05-4h3.81v.52h-3.81Zm-1.41,12.17V85h-.43v-.53Zm-1.63,0V85h-.43v-.53Zm-2.17,0V85h-.44v-.53Z"/><path class="cls-3" d="M204.53,33.69h-7.69v6.77A15.71,15.71,0,0,1,204.53,33.69Zm-4.89,2.56v.52h-.43v-.52Zm-2.06,0H198v.52h-.44Z"/><path class="cls-3" d="M212.15,32.25a19.54,19.54,0,0,1,7.4,1.44h24.29a56.52,56.52,0,0,0-9.65-11.26h-1V21.9h.36a55.92,55.92,0,0,0-8.32-6h-3.45v-.53h2.54a55.82,55.82,0,0,0-27.52-7.23v7.23h13.24v.53H196.84v6h3.78v.53h-3.78v2.95h1.83v.53h-1.83v2.95h6.39v.52h-6.39v4.31h7.69A19.53,19.53,0,0,1,212.15,32.25ZM239,28.86h.43v.52H239Zm-1.52.52H237v-.52h.44Zm-.87-4H237v.53h-.43Zm-24.89,4h-.43v-.52h.43Zm1.74,0H213v-.52h.44Zm2.71,0h-.43v-.52h.43Zm19.89,0h-.43v-.52h.43Zm-.86-4h.43v.53h-.43Zm-.55,4H219.86v-.52h14.78Zm-3.15-7.48h.43v.53h-.43Zm-2,0H230v.53h-.44Zm-1.95,0H228v.53h-.43Zm-1.42,0h.44v.53h-.44Zm-6.3-6.52h.43v.53h-.43Zm-1.74,0h.43v.53h-.43Zm-2.39,0h.43v.53h-.43Zm-.22,6.52h9.68v.53h-9.68Zm-2-6.52H214v.53h-.44Zm-.43,6.52h.43v.53h-.43Zm-1.52-6.52H212v.53h-.43Zm-1.2,6.52h.44v.53h-.44Zm-.76,3.48h24.57v.53H209.64Zm-.32,4h-.44v-.52h.44Zm-.66-7.48h.44v.53h-.44Zm-1.41,3.48h.44v.53h-.44Zm-.54,3.48h.44v.52h-.44Zm-.44-7h.44v.53h-.44Zm-1.08,7.48h-.44v-.52h.44Zm-.65-4H205v.53h-.43Zm-.44-3.48h.43v.53h-.43Zm-3.26,4h-.43v-.53h.43Zm1.74-3.48h-.44V21.9h.44Zm.65,3.48h-.43v-.53h.43Z"/><path class="cls-3" d="M196.84,120.23a55.91,55.91,0,0,0,18.15-3H196.84Z"/><path class="cls-3" d="M225.4,103.73v-.52h11.65c1-1.09,2.08-2.22,3-3.39h-.24v-.53h.43v.28a56.85,56.85,0,0,0,4.7-6.71h-1.87v-.52h2.17a55.54,55.54,0,0,0,6.25-16H247.8v-.52h3.86c.23-1.07.43-2.15.59-3.24v-.24h0a56.14,56.14,0,0,0,.6-8.15c0-.37,0-.74,0-1.11h-.16v-.52h.15a56.65,56.65,0,0,0-.48-5.87v.52h-3v-.52h3a55.4,55.4,0,0,0-2-9h-5.1v-.52h4.93a56.49,56.49,0,0,0-4.51-10.35H243v-.52h2.4c-.5-.87-1-1.72-1.57-2.56H219.55a20.81,20.81,0,0,1,4.54,2.56h8.38v.52h-7.69a20.84,20.84,0,0,1,4.2,4.42l-2.6,2h6.09v.52h-6.76l-.27.21s-.06-.08-.14-.21h-2.72v-.52h2.33a16.21,16.21,0,0,0-12.48-6.44H212c-7.41.11-12.18,4.49-12.46,10.35h.14v.52h-.16v0c0,4,1.9,6.76,4.95,9.1v-.07h3.81v.52H205a40.59,40.59,0,0,0,6,3.39h4.25v.52h-3.14c1,.48,2.09,1,3.18,1.43h.4v.17c6,2.67,10.26,5.63,12.52,9.61h5.09v.52h-4.79a14,14,0,0,1,1.1,3h.21v.52h-.09a16.84,16.84,0,0,1,.36,3.49,16.49,16.49,0,0,1-.67,4.68h.94V85h-1.08c-2.3,7-9.27,11.35-17.71,11.35a19.6,19.6,0,0,1-11.37-3.53h-3.4v10.35h13.67v.52H196.84v9h6.28v.53h-6.28v3.39h19.64a56.57,56.57,0,0,0,7.37-3.39H218v-.53h6.75a56.48,56.48,0,0,0,11.79-9ZM203,43.21h.44v.52H203Zm.44,3.91v.52H203v-.52Zm-2.07-3.91h.44v.52h-.44Zm0,3.91h.44v.52h-.44Zm36.09,52.7h-4.78v-.53h4.78Zm-2.5-24h.44v.52H235Zm-.22-12.74v-.52h.44v.52Zm4.9,12.74v.52H236.6v-.52Zm-2-3v-.52h.43v.52Zm.43-9.78v-.52h.43v.52Zm1.09,9.78v-.52h.43v.52Zm-2.39-9.78h-.44v-.52h.44Zm-.33,29.26v.52h-.44v-.52Zm-.11-19.48H236v-.52h.43Zm1.52,20h-.43v-.52h.43Zm1,7h-.43v-.53h.43Zm.44-15.31h.43V85h-.43Zm.54,8.35h-.44v-.52h.44Zm.22-29.78h-.44v-.52h.44Zm-4.46-2V60.6h6v.52Zm5.76,1.44v.52H241v-.52Zm-.87,9.78H241v.52h-.44Zm1.31,20.52h-.44v-.52h.44Zm.65-7.82h-1.74v-.53h1.74Zm.65-22h-.43v-.52h.43Zm.55,13.26h-.44v-.52h.44Zm-.55-19.13v-.52h.43v.52ZM244.21,85h-.44v-.53h.44Zm1.2-8.7H245v-.52h.44ZM246.6,85h-.44v-.53h.44Zm.22-8.7h-.44v-.52h.44Zm.11-3.48h-3.05v-.52h3.05Zm.43-9.78h-3v-.52h3Zm.76,21.43V85h-.43v-.53ZM251.6,60.6H252v.52h-.43Zm-.65,2h.43v.52H251Zm-.44,9.78H251v.52h-.44Zm-.65-11.74h.43v.52h-.43Zm-.44,2h.44v.52h-.44ZM249,72.34h.43v.52H249Zm-1.3-15.65h.43v.52h-.43Zm-1.74,0h.43v.52H246Zm2.82,3.91v.52h-5.11V60.6Zm-4.89-13v-.52h.44v.52Zm.76,9.57v-.52h.44v.52Zm3.48-14h.43v.52h-.43Zm-5.11,0h3.05v.52H243Zm-.54,3.91h.43v.52h-.43Zm-.22,25.22h.44v.52h-.44Zm-.1,4h-.44v-.52h.44Zm-.77-40.09h.44v.52h-.44Zm0,7h.44v.52h-.44Zm0,13.48h.44v.52h-.44Zm-.65-9.57h.43v.52h-.43Zm-.54,10.09h-.44v-.52h.44Zm-.55-21h.44v.52h-.44Zm0,7h.44v.52h-.44Zm-.43,3.91h.43v.52h-.43Zm-.87-10.87h.43v.52h-.43Zm0,7h.43v.52h-.43Zm-1.52-7h.43v.52h-.43Zm0,7h.43v.52h-.43Zm-1.74-7h.43v.52h-.43Zm0,7h.43v.52h-.43Zm-1,3.91h3.05v.52H234.1Zm-.65-10.87h.43v.52h-.43Zm0,7h.43v.52h-.43Zm-1,3.91h.43v.52h-.43Zm-1.74,0h.43v.52h-.43Zm-1.31,0h.44v.52h-.44Zm-1.52,0h.44v.52h-.44Zm-1.74,0h.44v.52h-.44Zm12.61,9.57v.52H222.58v-.52ZM234.1,84.51h.43V85h-.43Zm-.43-23.39V60.6h.43v.52Zm.65,11.74v-.52h.43v.52ZM232.69,60.6v.52h-3.05V60.6Zm-4,0v.52h-.43V60.6Zm-1.52,0v.52h-.43V60.6Zm-1.74,0v.52H225V60.6Zm-.86-13.48H225v.52h-.43Zm-3.38-3.91h.44v.52h-.44Zm-1.52,0h.44v.52h-.44Zm-1.74,0h.44v.52h-.44Zm-1.52,0h.44v.52h-.44Zm-2.39,0h.43v.52H214Zm-5.76,4.43h-3.81v-.52h3.81Zm0-3.91h-3.81v-.52h3.81ZM210,57.21h-.43v-.52H210Zm0-9.57h-1v-.52h1Zm0-3.91h-.43v-.52H210Zm2.72,13.48H211v-.52h1.74Zm0-9.57H211v-.52h1.74Zm0-3.91H211v-.52h1.74Zm1.73,13.48H214v-.52h.43Zm-.75-9.57v-.52h9.88v.52Zm4.67,9v.52h-.44v-.52Zm-2,0h.44v.52h-.44Zm.65,4.43h-.43V60.6H217Zm1.09,2h-.43v-.52h.43Zm1.52,0h-.43v-.52h.43Zm.11-2H218V60.6h1.74Zm.33-3.91h-.44v-.52h.44Zm1.3,5.87H221v-.52h.43Zm.11-2h-.44V60.6h.44Zm.11-3.91h-.44v-.52h.44Zm1.3,5.87h-.43v-.52h.43Zm1-2h-.43V60.6h.43Zm0,2v-.52h9.89v.52Zm9.35,12.74h.44v.52h-.44Zm-1.3,0h.43v.52h-.43Zm-.22,8.69h.43V85h-.43Zm-1.3-8.69h.43v.52h-.43Zm-5,16.52h9.68v.52H225.4Zm-23.47,7v.53h-.44v-.53Zm-2.72,0v.53h-.43v-.53Zm-2.17,0h.43v.53H197Zm15,4.44v-.52h.44v.52Zm2,0v-.52h.43v.52Zm-.65,9.57h-.44v-.53h.44Zm-1.74,0h-.44v-.53h.44Zm-2.39-.53v.53h-.44v-.53Zm-2.18,0v.53h-.43v-.53Zm-2.39,0h.44v.53h-.44Zm11.41.53h-.43v-.53h.43Zm.11-9.57v-.52h.44v.52Zm-12.28-3.91v-.53h26.41v.53ZM219,103.73h-.44v-.52H219Zm1.74,0h-.44v-.52h.44Zm2.72,0H223v-.52h.44Z"/><path class="cls-3" d="M196.84,90v2.33h2.63A24.34,24.34,0,0,1,196.84,90Z"/><path class="cls-3" d="M183.47,113.36h-6.28v-.52h6.28v-9H169.8v-.52h13.67V92.93H169.8V92.4h13.67v-16h-8.24v-.52h8.24V72.93h-.41V72.4h.41V63.14h-12.7v-.52h12.7V33.75h-47c-.54.84-1.06,1.7-1.57,2.57h2.4v.52h-2.7a55.9,55.9,0,0,0-4.51,10.35H135v.52h-5.1a55.28,55.28,0,0,0-2,9h3v.52h-3v-.52a54.23,54.23,0,0,0-.47,5.87h.15v.52h-.17c0,.37,0,.74,0,1.12a56.11,56.11,0,0,0,.6,8.14h0v.24c.16,1.09.36,2.17.59,3.24h3.86v.52h-3.74a55.54,55.54,0,0,0,6.25,16h2.17v.53h-1.87a57.09,57.09,0,0,0,4.7,6.7v-.27h.43v.52h-.24c1,1.18,2,2.3,3.06,3.39h11.64v.52H143.76a56.19,56.19,0,0,0,11.79,9h6.75v.52h-5.84a56.09,56.09,0,0,0,7.38,3.39h19.63Zm-2-41h.43v.53h-.43Zm-1.63,0h.43v.53h-.43Zm-2.17,0h.43v.53h-.43Zm-1.64,0h.44v.53H176Zm-19.12,31.39v-.52h.43v.52Zm2.71,0v-.52H160v.52Zm1.74,0v-.52h.44v.52Zm2.39,0v-.52h.44v.52Zm2.18,0v-.52h.43v.52Zm2,0v-.52h.44v.52Zm10.54-3.91v-.52h.44v.52Zm2.72,0v-.52h.44v.52Zm2.17,0h-.43v-.52h.43ZM178.06,85.1v-.52h.44v.52Zm2.17,0v-.52h.44v.52Zm2.07,0h-.44v-.52h.44Zm-5.87-.52h.43v.52h-.43Zm-1,0v.52H155.23v-.52Zm-7.17,7.82v.53h-.44V92.4Zm-2,0v.53h-.43V92.4Zm-2.17,0v.53h-.44V92.4Zm-2.39,0v.53h-.44V92.4Zm-1.74,0v.53h-.44V92.4Zm-2.72,0v.53h-.43V92.4ZM172,76.4v-.52h.44v.52Zm1.53,0v-.52h.43v.52Zm-2.29-4H175v.53h-3.81ZM171,75.88v.52H150.45v-.52ZM156.43,62.62v.52h-9.89v-.52Zm-8.8-1.43v-.53h3v.53Zm4,0v-.53h.43v.53Zm1.52,0v-.53h.43v.53Zm1.74,0v-.53h.43v.53Zm2,11.21v.53H147V72.4Zm-.43-11.21v-.53h.44v.53Zm-6.52,23.39h1.74v.52h-1.74Zm0-8.7v.52h-.44v-.52Zm-1.74,8.7h.43v.52h-.43ZM148,76.4v-.52h.43v.52Zm-.87-.52v.52h-.44v-.52Zm-.44-14.69h-.43v-.53h.43Zm-.43,23.39v.52h-.43v-.52ZM146,72.93h-.43V72.4H146Zm-.43-9.79h-.44v-.52h.44Zm-.22,12.74v.52h-.43v-.52Zm-.11,16.52h9.68v.53h-9.68Zm7.4-7.3v-.52h.43v.52Zm5.21-22h-.43v-.52h.43Zm.44,9.26v.53h-.44V72.4Zm1.08-9.26h-.43v-.52h.43Zm.44,9.26v.53h-.44V72.4Zm-.54-11.21h-.44v-.53h.44Zm-.11-3.92h-.44v-.52h.44Zm3.48,5.87h-.44v-.52h.44Zm.43,9.26v.53h-.43V72.4Zm-.65-15.13H162v-.52h.44Zm-.11,3.39v.53h-1.74v-.53ZM161.1,72.4h.44v.53h-.44Zm-.43-9.26v-.52h.43v.52Zm0-5.87h-.44v-.52h.44Zm3,3.39v.53h-.43v-.53Zm-.21-3.39v-.52h.43v.52ZM165,63.14h-.44v-.52H165Zm.43,9.26v.53H165V72.4Zm2.61-9.26h-1.74v-.52h1.74Zm.44,9.26v.53h-1.74V72.4Zm1-9.26H169v-.52h.43Zm.43,9.26v.53h-.43V72.4ZM165,61.19v-.53h10.65v.53Zm.87-3.92v-.52h.43v.52Zm10.75,3.92v-.53h.44v.53Zm4.25,0h-.44v-.53h.44Zm-2.18,0h-.43v-.53h.43Zm3.8,0h-.43v-.53h.43Zm-.21-4.44h.43v.52h-.43Zm-1.2-9h-.43v-.52h.43Zm0,9v.52h-.43v-.52Zm-2.17-9h-.43v-.52h.43Zm0,9v.52h-.43v-.52Zm-1.63-9h-.44v-.52h.44Zm-.44,9h.44v.52h-.44Zm5.87-9h-.43v-.52h.43Zm-.43-4.44h.43v.53h-.43Zm-1.2-6.43h-.43v-.52h.43Zm0,6.43v.53h-.43v-.53Zm-2.17-6.43h-.43v-.52h.43Zm0,6.43v.53h-.43v-.53Zm-1.63-6.43h-.44v-.52h.44Zm-.44,6.43h.44v.53h-.44Zm5.87-6.43h-.43v-.52h.43Zm-10.65-.52h3.81v.52h-3.81Zm0,7h3.81v.53h-3.81Zm0,3.92h3.81v.52h-3.81Zm0,9.56h3.81v.52h-3.81Zm-1.74-20.43h.43v.52h-.43Zm0,7h.43v.53h-.43Zm0,3.92h1v.52h-1Zm0,9.56h.43v.52h-.43Zm-2.71-20.43h1.73v.52h-1.73Zm0,7h1.73v.53h-1.73Zm0,3.92h1.73v.52h-1.73Zm0,9.56h1.73v.52h-1.73Zm-1-9h-9.88v-.52h9.88Zm-.75-11.39h.43v.52h-.43Zm0,7h.43v.53h-.43Zm-2.39-7h.43v.52h-.43Zm0,7h.43v.53h-.43Zm-1.53-7h.44v.52H162Zm0,7h.44v.53H162Zm-1.74-7h.44v.52h-.44Zm0,7h.44v.53h-.44Zm-1.52-7h.44v.52h-.44Zm0,7h.44v.53h-.44Zm-10.87-7h9.89v.52h-9.89Zm0,7h9.89v.53h-9.89Zm7.93,3.92v.52h-.43v-.52Zm-1.62,0v.52h-.44v-.52Zm-1.74,0v.52H152v-.52Zm-1.52,0v.52h-.44v-.52Zm-1.31,0v.52h-.43v-.52Zm-2.17,0h.43v.52h-.43Zm-1-10.87h.43v.52h-.43Zm0,7h.43v.53h-.43Zm-1.63-7h.43v.52h-.43Zm1.41,10.87v.52h-3v-.52Zm-1.41-3.92h.43v.53h-.43Zm-1.74-7h.44v.52h-.44Zm0,7h.44v.53h-.44Zm-1.52-7H142v.52h-.43Zm0,7H142v.53h-.43Zm0,13.48h16.19v.52H141.54Zm-1.31-20.43h.44v.52h-.44Zm.87,10.87v.52h-.43v-.52Zm-.87-3.92h.44v.53h-.44Zm-.11,13.48h.44v.52h-.44Zm-1-9.56h.43v.52h-.43Zm-.65-10.87h.43v.52h-.43Zm0,7h.43v.53h-.43Zm0,13.48h.43v.52h-.43Zm-.33,19.13h.43v.52h-.43Zm-.76-28.69h.43v.52h-.43Zm-5.22-3.39h-.43v-.53h.43Zm2.06,0v-.53h3.05v.53Zm2.18,3.39v.52H136v-.52Zm-.76,9.56v.52h-.44v-.52Zm-1.74,0h.44v.52h-.44Zm-1.74,0h.44v.52h-.44Zm-3.48,4.44h-.43v-.53h.43Zm.22,1.43h.44v.52h-.44Zm.87,10.31h-.43V72.4h.43ZM130,60.66h.43v.53H130Zm.43,2h.44v.52h-.44Zm.87,10.31h-.43V72.4h.43Zm.22-11.74v-.53h5.11v.53Zm1.09,23.91h-.44v-.52h.44ZM133,62.62h3v.52h-3Zm.43,9.78h3.05v.53h-3.05Zm.11,3.48h.44v.52h-.44Zm.66,9.22h-.44v-.52h.44Zm1.19-8.7h-.43v-.52h.43Zm1.2,8.7h-.44v-.52h.44Zm.54-8.7h-.44v-.52h.44Zm-.32-19.13v-.52h.43v.52Zm.43,5.35h.44v.52h-.44Zm.44,9.78h.43v.53h-.43Zm1.3,20.53h-.43V92.4h.43Zm.65-7.83h-1.74v-.52h1.74Zm.22-12.17h-.43V72.4h.43Zm-.87-9.79v-.52h.44v.52Zm-.22-2v-.53h6v.53Zm5,14.69v.52h-3v-.52Zm-3-2.95V72.4h.43v.53Zm1.52-9.79h-.43v-.52h.43Zm.44,9.26v.53h-.44V72.4Zm.87-9.26v-.52h.43v.52Zm.32,29.26h.44v.53h-.44Zm.11-19.47V72.4h.44v.53Zm-3.7-9.79v-.52h.44v.52Zm.66,29.79h-.44V92.4h.44Zm.1-7.83h-.43v-.52H141Zm.88,14.78h-.44v-.52h.44Zm.54-7.48h.43v.53h-.43Zm5.22,7.48h-4.79v-.52h4.79Zm2.39,0v-.52h26.41v.52Zm14.24,13.48v-.52h.43v.52Zm2.71,0v-.52h.44v.52Zm1.74,0v-.52h.44v.52Zm2.39,0v-.52h.44v.52Zm2.18,0v-.52h.43v.52Zm1.95,0v-.52h.44v.52Z"/><path class="cls-3" d="M183.47,117.27H165.32a56,56,0,0,0,18.15,3Z"/><path class="cls-3" d="M183.47,29.45h-6.39v-.53h6.39V26h-1.83v-.52h1.83v-3h-3.78V22h3.78V16H170.23v-.52h13.24V8.22A55.71,55.71,0,0,0,156,15.45h2.55V16H155a56.1,56.1,0,0,0-8.31,6h.35v.52h-1a56.52,56.52,0,0,0-9.65,11.26h47Zm-4-4h.43V26h-.43ZM177.73,22h.44v.52h-.44Zm-.65,3.48h.43V26h-.43Zm-35.76,4h-.43v-.53h.43Zm2,0h-.44v-.53h.44Zm.43-3.48h-.43v-.52h.43Zm25.76-4h.44v.52h-.44Zm-1.19-6.52h.43V16h-.43Zm-2,0h.44V16h-.44Zm.87,6.52v.52h-.43V22Zm-3-6.52h.43V16h-.43Zm-2.39,0h.43V16h-.43Zm-1.74,0h.43V16H160ZM155.13,22h9.67v.52h-9.67Zm-1.42,0h.44v.52h-.44Zm-1.41,0h.43v.52h-.43Zm-2,0h.44v.52h-.44Zm-2,0h.43v.52h-.43Zm-3.7,7.48h-.43v-.53h.43Zm.44-3.48h-.44v-.52h.44Zm15.32,3.48H145.67v-.53h14.78Zm4.13,0h-.43v-.53h.43Zm2.72,0h-.44v-.53h.44Zm1.74,0h-.44v-.53H169ZM170.67,26H146.1v-.52h24.57Zm.76,3.48H171v-.53h.44Zm.22-7h-.44V22h.44ZM173.06,26h-.43v-.52h.43Zm.54,3.48h-.43v-.53h.43Zm.44-7h-.44V22H174Zm1.52,7h-.44v-.53h.44Zm.21-3.48h-.43v-.52h.43Zm.44-3.48h-.43V22h.43Z"/><path class="cls-4" d="M112,255.28A17.5,17.5,0,0,1,105,254a18.27,18.27,0,0,1-4.93-3A20.25,20.25,0,0,1,97,247.54a27.53,27.53,0,0,1-1.52-2.45l2.1-2.2A27.07,27.07,0,0,0,99,245.24a19.06,19.06,0,0,0,2.77,3.12,15.72,15.72,0,0,0,4.27,2.72,14.54,14.54,0,0,0,6,1.13,14.82,14.82,0,0,0,6-1.2,10.55,10.55,0,0,0,4.41-3.58,11.21,11.21,0,0,0,.53-10.81,10.51,10.51,0,0,0-3.09-3.39,22.88,22.88,0,0,0-4.38-2.4c-1.62-.68-3.31-1.34-5-2-1.18-.42-2.44-.94-3.79-1.55a18.58,18.58,0,0,1-3.84-2.33,11.35,11.35,0,0,1-3-3.51,10.49,10.49,0,0,1-1.16-5.11,13,13,0,0,1,1-5.1,13.21,13.21,0,0,1,2.8-4.2,12.93,12.93,0,0,1,4.3-2.85,14.1,14.1,0,0,1,5.47-1,14.25,14.25,0,0,1,5.59,1,14.76,14.76,0,0,1,4.24,2.65,12.72,12.72,0,0,1,2.68,3.24l-2,2.07a10.35,10.35,0,0,0-2.23-2.83A12,12,0,0,0,117,207.1a12.36,12.36,0,0,0-4.74-.88,10.32,10.32,0,0,0-5.67,1.49,10,10,0,0,0-3.55,3.82,10.36,10.36,0,0,0-1.22,4.86,7.67,7.67,0,0,0,1,4,9,9,0,0,0,2.54,2.74,17.63,17.63,0,0,0,3.42,1.87c1.24.51,2.46,1,3.66,1.37,1.86.67,3.69,1.4,5.47,2.19a23.69,23.69,0,0,1,4.86,2.85,12.17,12.17,0,0,1,3.45,4.09,12.64,12.64,0,0,1,1.28,5.93,13.16,13.16,0,0,1-2.08,7.52,13.31,13.31,0,0,1-5.6,4.72A18.69,18.69,0,0,1,112,255.28Z"/><path class="cls-4" d="M143.47,255.28a6,6,0,0,1-5-2.21,9.82,9.82,0,0,1-1.75-6.22V225.58h-3v-2.44h3V211.52H140v11.62h8v2.44h-8v21.15A7.21,7.21,0,0,0,141,251a3.54,3.54,0,0,0,3.05,1.47,5.13,5.13,0,0,0,3.25-1l.82,2.58a7.21,7.21,0,0,1-2.13.93A9.13,9.13,0,0,1,143.47,255.28Z"/><path class="cls-4" d="M168.49,255.28a14.89,14.89,0,0,1-7.93-2.14,15.48,15.48,0,0,1-5.57-5.89,18.77,18.77,0,0,1,0-17.06,15.35,15.35,0,0,1,5.56-5.88,15,15,0,0,1,8-2.14,15.26,15.26,0,0,1,8,2.16,13.46,13.46,0,0,1,5.36,6v-7.15h3.22v31.17h-3.22v-7.22a15,15,0,0,1-5.5,6A14.67,14.67,0,0,1,168.49,255.28Zm.66-2.86a12.7,12.7,0,0,0,6.69-1.75,12.4,12.4,0,0,0,4.56-4.85,16,16,0,0,0,0-14.2,12.44,12.44,0,0,0-4.56-4.84,13.64,13.64,0,0,0-13.37,0,12.56,12.56,0,0,0-4.58,4.84,15.89,15.89,0,0,0,0,14.18,12.35,12.35,0,0,0,11.26,6.62Z"/><path class="cls-4" d="M202.27,255.28a6,6,0,0,1-5-2.21,9.76,9.76,0,0,1-1.75-6.22V225.58h-2.95v-2.44h2.95V211.52h3.23v11.62h8v2.44h-8v21.15a7.21,7.21,0,0,0,1.06,4.25,3.54,3.54,0,0,0,3,1.47,5.15,5.15,0,0,0,3.25-1L207,254a7.21,7.21,0,0,1-2.13.93A9.13,9.13,0,0,1,202.27,255.28Z"/><path class="cls-4" d="M215.63,217a2.22,2.22,0,0,1-1.13-.3,2.3,2.3,0,0,1-.82-.82,2.3,2.3,0,0,1,0-2.27,2.44,2.44,0,0,1,.82-.81,2.3,2.3,0,0,1,2.27,0,2.61,2.61,0,0,1,.81.81,2.3,2.3,0,0,1,0,2.27,2.44,2.44,0,0,1-.81.82A2.21,2.21,0,0,1,215.63,217ZM214,254.31V223.14h3.23v31.17Z"/><path class="cls-4" d="M242.56,255.28a17.81,17.81,0,0,1-8.66-2.1,15.77,15.77,0,0,1-6.08-5.83,17.69,17.69,0,0,1,0-17.25,15.9,15.9,0,0,1,6.1-5.83,18.84,18.84,0,0,1,17.29,0,15.83,15.83,0,0,1,6.1,5.83,17.66,17.66,0,0,1,0,17.25,15.83,15.83,0,0,1-6.1,5.83A17.79,17.79,0,0,1,242.56,255.28Zm0-2.95a14,14,0,0,0,7.05-1.75,12.9,12.9,0,0,0,4.87-4.83,14.77,14.77,0,0,0,0-14.06,13,13,0,0,0-4.87-4.82,15.06,15.06,0,0,0-14.09,0,12.88,12.88,0,0,0-4.87,4.82,14.7,14.7,0,0,0,0,14.06,12.83,12.83,0,0,0,4.87,4.83A14,14,0,0,0,242.56,252.33Z"/><path class="cls-4" d="M267.73,254.31V223.14H271v4.45a9.72,9.72,0,0,1,3.82-3.82,12.73,12.73,0,0,1,6.68-1.6,12.3,12.3,0,0,1,6.21,1.48,9.6,9.6,0,0,1,3.95,4.32,15.94,15.94,0,0,1,1.37,6.95v19.39h-3.23V235.5c0-3.45-.79-6.08-2.39-7.9a8.5,8.5,0,0,0-6.74-2.72,10.44,10.44,0,0,0-5.2,1.21,8.74,8.74,0,0,0-3.32,3.2,8.25,8.25,0,0,0-1.15,4.23v20.79Z"/><path class="cls-4" d="M20,193.44V143.22H30.65a25.62,25.62,0,0,1,10,1.92A24.74,24.74,0,0,1,54,158.47a26.29,26.29,0,0,1,0,19.75,24.57,24.57,0,0,1-13.44,13.32,25.79,25.79,0,0,1-10,1.9Zm3.31-3h7.15a22.28,22.28,0,0,0,8.68-1.69,21.87,21.87,0,0,0,13.42-20.44,22.48,22.48,0,0,0-1.67-8.7,21.55,21.55,0,0,0-4.71-7,22,22,0,0,0-7-4.7,22.28,22.28,0,0,0-8.68-1.69H23.28Z"/><path class="cls-4" d="M78.64,194.41a14.94,14.94,0,0,1-7.93-2.14,15.55,15.55,0,0,1-5.57-5.89,18.81,18.81,0,0,1,0-17.06,15.37,15.37,0,0,1,5.55-5.87,15,15,0,0,1,8-2.15,15.33,15.33,0,0,1,8,2.16,13.35,13.35,0,0,1,5.35,6v-7.16h3.23v31.17H92v-7.21a15.05,15.05,0,0,1-5.49,6A14.7,14.7,0,0,1,78.64,194.41Zm.67-2.86A12.66,12.66,0,0,0,86,189.8,12.28,12.28,0,0,0,90.56,185a16,16,0,0,0,0-14.2A12.39,12.39,0,0,0,86,165.91a13.62,13.62,0,0,0-13.36,0,12.48,12.48,0,0,0-4.58,4.84,15.89,15.89,0,0,0,0,14.18,12.35,12.35,0,0,0,11.26,6.62Z"/><path class="cls-4" d="M105.85,193.44V162.27h3.23v4.66a10,10,0,0,1,3.71-4.21,10.24,10.24,0,0,1,5.48-1.42,14,14,0,0,1,2.66.26,11.23,11.23,0,0,1,2.3.68L121.92,165a8.6,8.6,0,0,0-2-.64,11.74,11.74,0,0,0-2.18-.21,8.27,8.27,0,0,0-4.18,1.14,9.92,9.92,0,0,0-3.25,2.95,6.68,6.68,0,0,0-1.24,3.85v21.37Z"/><path class="cls-4" d="M129.16,193.44V162.27h3.23v4.45a9.78,9.78,0,0,1,3.82-3.82,12.73,12.73,0,0,1,6.68-1.6,12.3,12.3,0,0,1,6.21,1.48,9.6,9.6,0,0,1,4,4.32,15.8,15.8,0,0,1,1.37,7v19.39H151.2V174.63q0-5.17-2.39-7.9a8.52,8.52,0,0,0-6.74-2.72,10.38,10.38,0,0,0-5.21,1.22,8.62,8.62,0,0,0-3.31,3.19,8.17,8.17,0,0,0-1.16,4.23v20.79Z"/><path class="cls-4" d="M179,194.41a17.23,17.23,0,0,1-8.7-2.17,16,16,0,0,1-6-5.88,16.18,16.18,0,0,1-2.16-8.32,16.8,16.8,0,0,1,1.27-6.57,16.62,16.62,0,0,1,3.5-5.33,16.2,16.2,0,0,1,5.17-3.56,15.54,15.54,0,0,1,6.26-1.28,15.88,15.88,0,0,1,8,2,15.67,15.67,0,0,1,5.76,5.59,16.89,16.89,0,0,1,2.39,8.12v.54c0,.15,0,.33,0,.53H165.32a13.86,13.86,0,0,0,1.76,7,12.65,12.65,0,0,0,4.89,4.82,14.25,14.25,0,0,0,7.11,1.75,14.44,14.44,0,0,0,6.86-1.61,12.89,12.89,0,0,0,4.94-4.56l2.44,1.36a15.19,15.19,0,0,1-6,5.57A17.66,17.66,0,0,1,179,194.41Zm-13.51-18.87h25.78a13,13,0,0,0-2.19-5.9,13.14,13.14,0,0,0-4.57-4.1,12.53,12.53,0,0,0-6.08-1.5,12.82,12.82,0,0,0-10.75,5.58A13.14,13.14,0,0,0,165.47,175.54Z"/><path class="cls-4" d="M210,194.41a11.51,11.51,0,0,1-6.74-2,12.59,12.59,0,0,1-4.42-5.74l1.94-1.61a11.74,11.74,0,0,0,3.76,5,8.88,8.88,0,0,0,5.43,1.8,8.57,8.57,0,0,0,3.9-.9,7.18,7.18,0,0,0,2.86-2.54,7.09,7.09,0,0,0,1.07-3.93,4.85,4.85,0,0,0-.95-3.18,7.54,7.54,0,0,0-2.77-2q-1.81-.82-4.41-1.83a41.79,41.79,0,0,1-3.91-1.78,9.56,9.56,0,0,1-3.13-2.53,6,6,0,0,1-1.24-3.91,7.19,7.19,0,0,1,1.2-4.08,8.48,8.48,0,0,1,3.32-2.84,10.58,10.58,0,0,1,4.77-1,10,10,0,0,1,4.91,1.23A11.41,11.41,0,0,1,219.4,166l-1.77,1.73a7.81,7.81,0,0,0-7-3.95,6.65,6.65,0,0,0-4.51,1.49,4.83,4.83,0,0,0-1.73,3.86,4,4,0,0,0,1,2.79,8.2,8.2,0,0,0,2.64,1.84c1.09.5,2.3,1,3.62,1.52a53.14,53.14,0,0,1,4.91,2.1,8.56,8.56,0,0,1,3.23,2.63,7.35,7.35,0,0,1,1.14,4.34,9.84,9.84,0,0,1-1.41,5.31,9.51,9.51,0,0,1-3.9,3.5A12.52,12.52,0,0,1,210,194.41Z"/><path class="cls-4" d="M235.44,194.41a6,6,0,0,1-5-2.2,9.87,9.87,0,0,1-1.75-6.23V164.71h-3v-2.44h3V150.65h3.23v11.62h8v2.44h-8v21.15a7.21,7.21,0,0,0,1.06,4.25,3.54,3.54,0,0,0,3.05,1.47,5.13,5.13,0,0,0,3.25-1l.83,2.58a7.45,7.45,0,0,1-2.13.93A9.25,9.25,0,0,1,235.44,194.41Z"/><path class="cls-4" d="M261.91,194.41a17.75,17.75,0,0,1-8.65-2.1,15.73,15.73,0,0,1-6.09-5.83,17.66,17.66,0,0,1,0-17.25,15.83,15.83,0,0,1,6.1-5.83,18.82,18.82,0,0,1,17.28,0,15.92,15.92,0,0,1,6.11,5.83,17.66,17.66,0,0,1,0,17.25,15.92,15.92,0,0,1-6.11,5.83A17.76,17.76,0,0,1,261.91,194.41Zm0-2.95a14,14,0,0,0,7-1.75,12.88,12.88,0,0,0,4.87-4.82,14.79,14.79,0,0,0,0-14.07A13,13,0,0,0,269,166a15.06,15.06,0,0,0-14.09,0,13,13,0,0,0-4.87,4.82,14.79,14.79,0,0,0,0,14.07,12.88,12.88,0,0,0,4.87,4.82A14,14,0,0,0,261.91,191.46Z"/><path class="cls-4" d="M297.43,193.44l-14.82-31.17h3.68l12.15,26.3,10.28-26.3h2.13l10.26,26.3,12.14-26.3h3.69l-14.79,31.17H320l-10.23-25.81-10.26,25.81Z"/><path class="cls-4" d="M343.24,193.44V162.27h3.22v4.45a9.85,9.85,0,0,1,3.82-3.82,12.76,12.76,0,0,1,6.68-1.6,12.25,12.25,0,0,1,6.21,1.48,9.56,9.56,0,0,1,4,4.32,15.94,15.94,0,0,1,1.37,7v19.39h-3.23V174.63c0-3.45-.79-6.08-2.39-7.9a8.5,8.5,0,0,0-6.74-2.72,10.34,10.34,0,0,0-5.2,1.22,8.65,8.65,0,0,0-3.32,3.19,8.26,8.26,0,0,0-1.16,4.23v20.79Z"/></svg>