<svg xmlns="http://www.w3.org/2000/svg" width="245.655" height="127.659" viewBox="0 0 245.655 127.659">
  <g id="Group_184" data-name="Group 184" transform="translate(-84.949 -96)">
    <g id="Group_178" data-name="Group 178" transform="translate(84.949 129.936)">
      <g id="Group_176" data-name="Group 176">
        <g id="Group_175" data-name="Group 175">
          <g id="Group_173" data-name="Group 173">
            <path id="Path_1086" data-name="Path 1086" d="M116.927,186.607c0,11.532-7.034,16.52-14.476,16.52h-2.78v-5.806h1.145c5.724,0,9.077-4.743,9.077-10.141V151.849h-6.3c-6.952,0-12.268,5.48-12.268,11.532,0,4.5,2.617,8.751,8.26,10.713v5.4H97.3c-7.279-2.29-12.35-8.5-12.35-16.111,0-8.587,7.361-17.339,20.038-17.339h4.906v-.981c0-5.889,3.763-11.613,12.759-11.613h1.309v5.806h-1.39c-3.435,0-5.643,2.536-5.643,6.133v.654h10.3c11.613,0,17.42,8.1,17.42,15.948a15.151,15.151,0,0,1-10.96,14.64l8.915,20.855c3.844,8.915,4.989,9.9,11.123,9.9h.736v5.807h-1.145c-11.041,0-13.659-5.07-18.32-15.948l-8.423-19.628h-9.65ZM127.8,151.849H116.927V171.8H127.8c5.806,0,9.978-3.926,9.978-9.814S133.611,151.849,127.8,151.849Z" transform="translate(-84.949 -133.448)" fill="#1d2844"/>
            <path id="Path_1087" data-name="Path 1087" d="M186.988,201.129a18.964,18.964,0,0,1-13.331,5.069c-13.085,0-19.218-9.9-19.218-19.791,0-10.059,6.379-20.2,17.828-20.2,9.487,0,14.312,6.134,14.312,13.085a17.121,17.121,0,0,1-2.535,8.833H160.9c.491,9.487,7.852,12.84,13.331,12.84a17.331,17.331,0,0,0,10.142-3.762Zm-6.461-21.755a7.726,7.726,0,0,0-8.015-8.016c-5.806,0-10.386,4.99-11.368,11.532h18.728A10.684,10.684,0,0,0,180.526,179.374Z" transform="translate(-91.465 -136.52)" fill="#1d2844"/>
            <path id="Path_1088" data-name="Path 1088" d="M219.272,203.722l-7.851,1.309c-5.889,0-11.123-1.88-11.123-10.468V170.928h-7.688v-5.234l7.688-.654,1.227-11.286h5.152v11.94H217.8v5.234H206.677v21.754c0,5.562,2.29,7.116,6.543,7.116l6.052-.9Z" transform="translate(-95.045 -135.352)" fill="#1d2844"/>
            <path id="Path_1089" data-name="Path 1089" d="M248.863,172.013a19.107,19.107,0,0,0-2.943-.326,7.421,7.421,0,0,0-5.4,2.616l-6.789,7.034v23.881h-6.38V166.534l5.561-.327.818,8.751,4.825-5.07c1.964-2.126,4.334-3.68,7.116-3.68a14.19,14.19,0,0,1,3.189.409Z" transform="translate(-98.303 -136.52)" fill="#1d2844"/>
            <path id="Path_1090" data-name="Path 1090" d="M283.1,201.129a18.962,18.962,0,0,1-13.331,5.069c-13.086,0-19.219-9.9-19.219-19.791,0-10.059,6.379-20.2,17.829-20.2,9.486,0,14.312,6.134,14.312,13.085a17.122,17.122,0,0,1-2.536,8.833H257.008c.49,9.487,7.851,12.84,13.331,12.84A17.329,17.329,0,0,0,280.48,197.2Zm-6.46-21.755a7.726,7.726,0,0,0-8.015-8.016c-5.807,0-10.387,4.99-11.369,11.532h18.729A10.684,10.684,0,0,0,276.636,179.374Z" transform="translate(-100.478 -136.52)" fill="#1d2844"/>
            <path id="Path_1091" data-name="Path 1091" d="M324.612,205.463l-4.416.736c-2.7,0-6.053-1.226-6.707-4.743l-.163-.9h-.082c-3.762,3.843-7.932,5.642-11.776,5.642-6.461,0-11.123-3.843-11.123-10.386,0-8.015,8.1-13.412,22.409-13.822v-3.026c0-5.479-2.944-7.606-6.87-7.606-3.107,0-7.36,2.045-9.814,3.354l-2.208-4.58c4.253-2.372,8.915-3.926,13.085-3.926,6.543,0,12.186,3.762,12.186,12.922v14.23c0,5.889.163,7.933,2.78,7.933l2.7-.327Zm-11.859-19.055c-10.632.327-16.193,3.762-16.193,9.323,0,3.926,3.353,5.234,5.807,5.234,3.843,0,7.933-3.107,10.386-5.234Z" transform="translate(-104.21 -136.52)" fill="#1d2844"/>
            <path id="Path_1092" data-name="Path 1092" d="M353.194,203.722l-7.852,1.309c-5.888,0-11.122-1.88-11.122-10.468V170.928h-7.688v-5.234l7.688-.654,1.227-11.286H340.6v11.94h11.123v5.234H340.6v21.754c0,5.562,2.29,7.116,6.543,7.116l6.052-.9Z" transform="translate(-107.603 -135.352)" fill="#1d2844"/>
          </g>
          <g id="Group_174" data-name="Group 174" transform="translate(77.829 81)">
            <path id="Path_1093" data-name="Path 1093" d="M183.267,235.355h-2.749l-.971-2.462h-5l-.971,2.462h-2.749l4.852-12.327h2.731Zm-4.6-4.69-.935-2.534-.664-1.941h-.036l-.665,1.941-.934,2.534Z" transform="translate(-170.832 -222.849)" fill="#1d2844"/>
            <path id="Path_1094" data-name="Path 1094" d="M196.174,225.292h-3.486v10.064H189.7V225.292h-3.486v-2.264h9.956Z" transform="translate(-172.275 -222.849)" fill="#1d2844"/>
            <path id="Path_1095" data-name="Path 1095" d="M227.316,223.028l-4.6,12.327h-2.066l-2.247-7.008-.79-2.57h-.018l-.791,2.57-2.264,7.008H212.49l-4.6-12.327h3.072l1.977,6.506.556,2.048h.036l2.534-8.554h3.073l2.534,8.554h.036l.556-2.048,1.977-6.506Z" transform="translate(-174.307 -222.849)" fill="#1d2844"/>
            <path id="Path_1096" data-name="Path 1096" d="M242.24,235.355h-8.356V223.028h8.033v2.264h-5.05v2.8h4.116v2.264h-4.116v2.732h5.374Z" transform="translate(-176.745 -222.849)" fill="#1d2844"/>
            <path id="Path_1097" data-name="Path 1097" d="M252.3,235.553a8.977,8.977,0,0,1-4.493-1.114v-2.462c2.228,1.042,3.235,1.312,4.349,1.312.989,0,1.725-.342,1.725-1.186,0-.881-1.4-1.42-2.067-1.833-1.671-.88-3.755-1.94-3.755-4.133,0-1.58,1.545-3.306,4.223-3.306a7.512,7.512,0,0,1,3.612.9v2.391a8.013,8.013,0,0,0-3.5-1.025c-1.025,0-1.348.449-1.348,1.042,0,1.043,2.282,1.888,3.36,2.444,1.258.647,2.588,1.492,2.588,3.4C256.987,234.457,254.6,235.553,252.3,235.553Z" transform="translate(-178.05 -222.83)" fill="#1d2844"/>
            <path id="Path_1098" data-name="Path 1098" d="M272.055,225.292h-3.486v10.064h-2.983V225.292H262.1v-2.264h9.956Z" transform="translate(-179.39 -222.849)" fill="#1d2844"/>
            <path id="Path_1099" data-name="Path 1099" d="M285.875,225.292h-5.049v2.984h4.115v2.264h-4.115v4.816h-2.983V223.028h8.033Z" transform="translate(-180.867 -222.849)" fill="#1d2844"/>
            <path id="Path_1100" data-name="Path 1100" d="M294.565,235.355h-2.982V223.028h2.982Z" transform="translate(-182.155 -222.849)" fill="#1d2844"/>
            <path id="Path_1101" data-name="Path 1101" d="M308.9,235.355h-8.357V223.028h8.034v2.264h-5.05v2.8h4.116v2.264h-4.116v2.732H308.9Z" transform="translate(-182.996 -222.849)" fill="#1d2844"/>
            <path id="Path_1102" data-name="Path 1102" d="M323.143,235.355h-8.3V223.028h2.982v10.064h5.32Z" transform="translate(-184.336 -222.849)" fill="#1d2844"/>
            <path id="Path_1103" data-name="Path 1103" d="M334.18,235.355h-5.5V223.028h5.391a5.946,5.946,0,0,1,6.093,6.2A5.828,5.828,0,0,1,334.18,235.355Zm-.738-10.064h-1.779v7.8h1.744c2.911,0,3.792-1.958,3.792-3.9C337.2,227.269,336.318,225.292,333.442,225.292Z" transform="translate(-185.634 -222.849)" fill="#1d2844"/>
            <path id="Path_1104" data-name="Path 1104" d="M350.383,235.553a8.974,8.974,0,0,1-4.492-1.114v-2.462c2.228,1.042,3.234,1.312,4.349,1.312.988,0,1.725-.342,1.725-1.186,0-.881-1.4-1.42-2.067-1.833-1.671-.88-3.756-1.94-3.756-4.133,0-1.58,1.546-3.306,4.223-3.306a7.512,7.512,0,0,1,3.612.9v2.391a8.007,8.007,0,0,0-3.5-1.025c-1.024,0-1.348.449-1.348,1.042,0,1.043,2.283,1.888,3.361,2.444,1.258.647,2.587,1.492,2.587,3.4C355.074,234.457,352.684,235.553,350.383,235.553Z" transform="translate(-187.248 -222.83)" fill="#1d2844"/>
          </g>
        </g>
      </g>
      <g id="Group_177" data-name="Group 177" transform="translate(61.878 0.024)">
        <path id="Path_1105" data-name="Path 1105" d="M166.239,137h-5.417V152.57h-2.177V137H153.23v-1.8h13.009Z" transform="translate(-153.23 -133.637)" fill="#1d2844"/>
        <path id="Path_1106" data-name="Path 1106" d="M179.425,152.408h-1.974v-7.746c0-1.923-.507-2.632-1.8-2.632a3.775,3.775,0,0,0-2.3,1.24l-1.949,1.721v7.417h-1.974V133.577l1.974-.1v9.543L173,141.626a4.76,4.76,0,0,1,3.113-1.291,3.173,3.173,0,0,1,3.316,3.341Z" transform="translate(-154.749 -133.475)" fill="#1d2844"/>
        <path id="Path_1107" data-name="Path 1107" d="M192.908,151.852a5.868,5.868,0,0,1-4.126,1.57c-4.049,0-5.948-3.063-5.948-6.125,0-3.113,1.974-6.252,5.517-6.252,2.936,0,4.43,1.9,4.43,4.05a5.3,5.3,0,0,1-.785,2.734h-7.163a4,4,0,0,0,4.126,3.974,5.362,5.362,0,0,0,3.138-1.164Zm-2-6.732a2.391,2.391,0,0,0-2.48-2.48c-1.8,0-3.214,1.544-3.518,3.569h5.8A3.321,3.321,0,0,0,190.908,145.119Z" transform="translate(-156.006 -134.185)" fill="#1d2844"/>
      </g>
    </g>
    <g id="Group_181" data-name="Group 181" transform="translate(85.262 96)">
      <g id="Group_180" data-name="Group 180">
        <g id="Group_179" data-name="Group 179">
          <path id="Path_1108" data-name="Path 1108" d="M94.377,105.366a.549.549,0,0,1,.4.17l1.145,1.2a4.743,4.743,0,0,1-1.884,1.483,6.581,6.581,0,0,1-2.68.5,6.383,6.383,0,0,1-2.542-.482,5.509,5.509,0,0,1-1.906-1.334,5.858,5.858,0,0,1-1.2-2.016,7.442,7.442,0,0,1-.419-2.533,6.669,6.669,0,0,1,.478-2.56,5.968,5.968,0,0,1,1.337-2.012,6.043,6.043,0,0,1,2.055-1.316A7.157,7.157,0,0,1,91.805,96a6.735,6.735,0,0,1,1.319.123,6.536,6.536,0,0,1,1.158.343,5.493,5.493,0,0,1,.991.521,4.764,4.764,0,0,1,.8.672L95.1,98.965a1.238,1.238,0,0,1-.222.218.585.585,0,0,1-.359.1.647.647,0,0,1-.291-.068,3.282,3.282,0,0,1-.29-.168l-.337-.213a2.537,2.537,0,0,0-.436-.213,3.54,3.54,0,0,0-.59-.167,3.975,3.975,0,0,0-.79-.069,3.6,3.6,0,0,0-1.435.278,3.128,3.128,0,0,0-1.116.795,3.669,3.669,0,0,0-.726,1.251,4.9,4.9,0,0,0-.261,1.649,5.118,5.118,0,0,0,.261,1.7,3.733,3.733,0,0,0,.709,1.252,3.033,3.033,0,0,0,1.047.773,3.144,3.144,0,0,0,1.282.264,6.211,6.211,0,0,0,.718-.037,2.964,2.964,0,0,0,.6-.133,2.665,2.665,0,0,0,.529-.244,3.481,3.481,0,0,0,.508-.371,1.006,1.006,0,0,1,.222-.142A.593.593,0,0,1,94.377,105.366Z" transform="translate(-85.294 -96)" fill="#1d2844"/>
          <path id="Path_1109" data-name="Path 1109" d="M102.231,104V108.6H99.343V96.151h4.051a8.28,8.28,0,0,1,2.3.278,4.337,4.337,0,0,1,1.556.773,2.924,2.924,0,0,1,.875,1.17,3.887,3.887,0,0,1,.274,1.471,3.962,3.962,0,0,1-.162,1.145,3.457,3.457,0,0,1-.483,1,3.723,3.723,0,0,1-.787.817,4.16,4.16,0,0,1-1.072.589,2.817,2.817,0,0,1,.543.359,2.155,2.155,0,0,1,.44.521l2.65,4.333h-2.615a1.109,1.109,0,0,1-1.042-.546L103.8,104.44a.881.881,0,0,0-.321-.343,1.065,1.065,0,0,0-.517-.1Zm0-1.991h1.163a2.947,2.947,0,0,0,1-.15,1.8,1.8,0,0,0,.68-.414,1.588,1.588,0,0,0,.384-.62,2.378,2.378,0,0,0,.12-.765,1.6,1.6,0,0,0-.534-1.281,2.488,2.488,0,0,0-1.653-.461h-1.163Z" transform="translate(-86.611 -96.014)" fill="#1d2844"/>
          <path id="Path_1110" data-name="Path 1110" d="M124.612,108.6h-2.239a1.036,1.036,0,0,1-.62-.175.905.905,0,0,1-.337-.449l-.735-2.17h-4.733l-.736,2.17a.984.984,0,0,1-.94.623h-2.256l4.819-12.45h2.956Zm-8-4.759h3.4l-1.145-3.409c-.074-.217-.161-.472-.261-.766s-.2-.611-.295-.952q-.136.521-.282.965c-.1.3-.188.554-.274.769Z" transform="translate(-87.8 -96.014)" fill="#1d2844"/>
          <path id="Path_1111" data-name="Path 1111" d="M135.533,96.151v2.221h-5.11v3.154h4.256v2.23h-4.256V108.6h-2.905V96.151Z" transform="translate(-89.253 -96.014)" fill="#1d2844"/>
          <path id="Path_1112" data-name="Path 1112" d="M147.841,96.151v2.29h-3.5V108.6h-2.888V98.441h-3.5v-2.29Z" transform="translate(-90.231 -96.014)" fill="#1d2844"/>
          <path id="Path_1113" data-name="Path 1113" d="M156.992,103.585q.159.352.3.719c.1-.25.2-.494.307-.73s.219-.467.333-.689l3.2-6.3a1.044,1.044,0,0,1,.175-.253.58.58,0,0,1,.2-.132.686.686,0,0,1,.252-.043h2.534V108.6h-2.546v-7.16c0-.348.017-.723.051-1.128l-3.3,6.4a1.1,1.1,0,0,1-.414.454,1.159,1.159,0,0,1-.594.153H157.1a1.157,1.157,0,0,1-.594-.153,1.092,1.092,0,0,1-.414-.454l-3.316-6.409q.034.3.052.594c.011.2.017.378.017.543v7.16H150.3V96.161h2.534a.69.69,0,0,1,.252.043.584.584,0,0,1,.2.132,1.044,1.044,0,0,1,.176.253l3.2,6.321Q156.834,103.235,156.992,103.585Z" transform="translate(-91.39 -96.015)" fill="#1d2844"/>
          <path id="Path_1114" data-name="Path 1114" d="M179.6,108.6h-2.238a1.034,1.034,0,0,1-.62-.175.905.905,0,0,1-.337-.449l-.735-2.17h-4.734l-.735,2.17a.984.984,0,0,1-.94.623h-2.256l4.819-12.45h2.956Zm-8-4.759H175l-1.145-3.409c-.074-.217-.161-.472-.261-.766s-.2-.611-.295-.952q-.136.521-.282.965c-.1.3-.188.554-.274.769Z" transform="translate(-92.957 -96.014)" fill="#1d2844"/>
          <path id="Path_1115" data-name="Path 1115" d="M185.4,104V108.6h-2.888V96.151h4.051a8.287,8.287,0,0,1,2.3.278,4.34,4.34,0,0,1,1.555.773,2.915,2.915,0,0,1,.875,1.17,3.869,3.869,0,0,1,.274,1.471,3.931,3.931,0,0,1-.162,1.145,3.458,3.458,0,0,1-.483,1,3.7,3.7,0,0,1-.787.817,4.154,4.154,0,0,1-1.071.589,2.81,2.81,0,0,1,.542.359,2.179,2.179,0,0,1,.44.521l2.649,4.333H190.08a1.109,1.109,0,0,1-1.043-.546l-2.068-3.614a.875.875,0,0,0-.321-.343,1.063,1.063,0,0,0-.516-.1Zm0-1.991h1.163a2.947,2.947,0,0,0,1-.15,1.8,1.8,0,0,0,.68-.414,1.58,1.58,0,0,0,.385-.62,2.378,2.378,0,0,0,.12-.765,1.6,1.6,0,0,0-.535-1.281,2.486,2.486,0,0,0-1.653-.461H185.4Z" transform="translate(-94.41 -96.014)" fill="#1d2844"/>
          <path id="Path_1116" data-name="Path 1116" d="M198.428,101.193h.46a1.051,1.051,0,0,0,.923-.4l2.8-4.068a1.2,1.2,0,0,1,.525-.453,1.927,1.927,0,0,1,.722-.12h2.513l-3.692,5.033a2.491,2.491,0,0,1-.41.453,2.6,2.6,0,0,1-.436.3,2.232,2.232,0,0,1,.594.328,2.194,2.194,0,0,1,.491.56l3.76,5.776H204.1a2.257,2.257,0,0,1-.422-.034,1.085,1.085,0,0,1-.3-.1.9.9,0,0,1-.222-.167,1.661,1.661,0,0,1-.179-.227l-2.82-4.333a.845.845,0,0,0-.389-.337,1.691,1.691,0,0,0-.637-.1h-.7v5.3H195.54V96.151h2.888Z" transform="translate(-95.632 -96.014)" fill="#1d2844"/>
          <path id="Path_1117" data-name="Path 1117" d="M226,108.6H223.1v-5.263h-5.058V108.6h-2.905V96.151h2.905v5.2H223.1v-5.2H226Z" transform="translate(-97.47 -96.014)" fill="#1d2844"/>
          <path id="Path_1118" data-name="Path 1118" d="M242.1,102.358a6.705,6.705,0,0,1-.466,2.512,5.933,5.933,0,0,1-3.35,3.367,7.44,7.44,0,0,1-5.293,0,6.061,6.061,0,0,1-2.046-1.346,5.992,5.992,0,0,1-1.315-2.021,7,7,0,0,1,0-5.025,5.955,5.955,0,0,1,1.315-2.016,6.092,6.092,0,0,1,2.046-1.341A6.949,6.949,0,0,1,235.64,96a6.863,6.863,0,0,1,2.644.492,6.109,6.109,0,0,1,2.039,1.345,6.042,6.042,0,0,1,1.311,2.016A6.688,6.688,0,0,1,242.1,102.358Zm-2.956,0a5.394,5.394,0,0,0-.24-1.663,3.544,3.544,0,0,0-.687-1.251,2.975,2.975,0,0,0-1.1-.786,3.761,3.761,0,0,0-1.478-.274,3.823,3.823,0,0,0-1.491.274,2.949,2.949,0,0,0-1.1.786,3.517,3.517,0,0,0-.688,1.251,5.924,5.924,0,0,0,0,3.333,3.5,3.5,0,0,0,.688,1.251,2.91,2.91,0,0,0,1.1.782,3.89,3.89,0,0,0,1.491.269,3.827,3.827,0,0,0,1.478-.269,2.936,2.936,0,0,0,1.1-.782,3.528,3.528,0,0,0,.687-1.251A5.417,5.417,0,0,0,239.144,102.358Z" transform="translate(-98.785 -96)" fill="#1d2844"/>
          <path id="Path_1119" data-name="Path 1119" d="M252.151,103.585c.105.235.206.474.3.719.1-.25.2-.494.308-.73s.218-.467.333-.689l3.2-6.3a1,1,0,0,1,.175-.253.568.568,0,0,1,.2-.132.69.69,0,0,1,.252-.043h2.534V108.6h-2.546v-7.16c0-.348.017-.723.052-1.128l-3.3,6.4a1.091,1.091,0,0,1-.414.454,1.158,1.158,0,0,1-.594.153h-.393a1.157,1.157,0,0,1-.594-.153,1.1,1.1,0,0,1-.414-.454l-3.315-6.409c.023.2.039.4.051.594s.017.378.017.543v7.16h-2.547V96.161h2.533a.688.688,0,0,1,.253.043.588.588,0,0,1,.2.132,1.07,1.07,0,0,1,.175.253l3.2,6.321Q251.994,103.235,252.151,103.585Z" transform="translate(-100.313 -96.015)" fill="#1d2844"/>
          <path id="Path_1120" data-name="Path 1120" d="M271.671,96.151v2.221h-5.111v2.906h3.914v2.136h-3.914v2.965h5.111V108.6h-8.016V96.151Z" transform="translate(-102.02 -96.014)" fill="#1d2844"/>
          <path id="Path_1121" data-name="Path 1121" d="M282.021,98.666a1.1,1.1,0,0,1-.268.308.608.608,0,0,1-.364.1.891.891,0,0,1-.422-.124l-.513-.278a4.369,4.369,0,0,0-.653-.277,2.616,2.616,0,0,0-.837-.124,1.8,1.8,0,0,0-1.209.347,1.173,1.173,0,0,0-.4.935.863.863,0,0,0,.239.623,2.044,2.044,0,0,0,.629.427,6.541,6.541,0,0,0,.888.329q.5.151,1.021.333a9.293,9.293,0,0,1,1.021.432,3.4,3.4,0,0,1,.888.632,2.949,2.949,0,0,1,.628.936,3.324,3.324,0,0,1,.239,1.329,4.328,4.328,0,0,1-.3,1.615,3.779,3.779,0,0,1-.867,1.312,4.054,4.054,0,0,1-1.4.88,5.25,5.25,0,0,1-1.892.32,6.053,6.053,0,0,1-1.183-.12,6.925,6.925,0,0,1-1.166-.338,6.6,6.6,0,0,1-1.06-.517,4.489,4.489,0,0,1-.863-.666l.855-1.35a.688.688,0,0,1,.264-.247.745.745,0,0,1,.369-.094.977.977,0,0,1,.517.162c.174.108.37.227.589.359a4.747,4.747,0,0,0,.757.359,2.841,2.841,0,0,0,1.008.163,1.919,1.919,0,0,0,1.223-.347,1.319,1.319,0,0,0,.436-1.1,1.038,1.038,0,0,0-.239-.71,1.857,1.857,0,0,0-.628-.452,5.752,5.752,0,0,0-.884-.316q-.5-.139-1.017-.3a7.512,7.512,0,0,1-1.018-.411,3.2,3.2,0,0,1-.884-.641,3.007,3.007,0,0,1-.629-.991,3.938,3.938,0,0,1-.238-1.465,3.466,3.466,0,0,1,.282-1.367,3.526,3.526,0,0,1,.828-1.188,4.072,4.072,0,0,1,1.342-.834,4.964,4.964,0,0,1,1.82-.312,6.724,6.724,0,0,1,1.116.091,5.767,5.767,0,0,1,1.029.264,5.648,5.648,0,0,1,.91.42,4.163,4.163,0,0,1,.756.55Z" transform="translate(-103.006 -96)" fill="#1d2844"/>
        </g>
      </g>
    </g>
  </g>
</svg>
