<svg xmlns="http://www.w3.org/2000/svg" xmlns:xlink="http://www.w3.org/1999/xlink" width="207.371" height="56.023" viewBox="0 0 207.371 56.023">
  <defs>
    <linearGradient id="linear-gradient" x1="0.5" y1="1" x2="0.5" gradientUnits="objectBoundingBox">
      <stop offset="0" stop-color="#00366a"/>
      <stop offset="0.208" stop-color="#005692"/>
      <stop offset="0.447" stop-color="#0076b9"/>
      <stop offset="0.667" stop-color="#008dd5"/>
      <stop offset="0.858" stop-color="#009ce6"/>
      <stop offset="1" stop-color="#00a1ed"/>
    </linearGradient>
    <linearGradient id="linear-gradient-10" x1="0.5" y1="-0.04" x2="0.5" y2="1.011" gradientUnits="objectBoundingBox">
      <stop offset="0" stop-color="#adc71f"/>
      <stop offset="0.994" stop-color="#5aaa33"/>
    </linearGradient>
    <linearGradient id="linear-gradient-11" x1="0.5" y1="-0.273" x2="0.5" y2="1.039" xlink:href="#linear-gradient-10"/>
    <linearGradient id="linear-gradient-12" x1="0.5" y1="-0.268" x2="0.5" y2="1.021" xlink:href="#linear-gradient-10"/>
    <linearGradient id="linear-gradient-15" x1="0.5" y1="-0.666" x2="0.5" y2="0.854" xlink:href="#linear-gradient-10"/>
  </defs>
  <g id="Group_402" data-name="Group 402" transform="translate(-149.495 -462.883)">
    <g id="Group_400" data-name="Group 400" transform="translate(149.495 462.883)">
      <path id="Path_1904" data-name="Path 1904" d="M167.48,476.241h-7.61v-5.087a9.114,9.114,0,0,0-.244-2.768,1.047,1.047,0,0,0-1.075-.551,1.123,1.123,0,0,0-1.193.669,10.169,10.169,0,0,0-.254,2.893v13.592a9.468,9.468,0,0,0,.254,2.783,1.081,1.081,0,0,0,1.139.651,1.069,1.069,0,0,0,1.111-.652,10.658,10.658,0,0,0,.262-3.062V481.03h7.61v1.141a22.516,22.516,0,0,1-.642,6.444A6.583,6.583,0,0,1,164,491.945a9.712,9.712,0,0,1-5.413,1.43,11.215,11.215,0,0,1-5.513-1.211,5.89,5.89,0,0,1-2.874-3.352,22,22,0,0,1-.705-6.445v-8.55a38.039,38.039,0,0,1,.217-4.744A6.643,6.643,0,0,1,151,466.028a7.179,7.179,0,0,1,2.982-2.3,12.2,12.2,0,0,1,9.932.458,6.245,6.245,0,0,1,2.874,3.24,19.48,19.48,0,0,1,.687,6.037Z" transform="translate(-149.495 -462.883)" fill="url(#linear-gradient)"/>
      <path id="Path_1905" data-name="Path 1905" d="M179.5,469.362l-.289,3.154q1.59-3.389,4.609-3.587v8.44a6.115,6.115,0,0,0-2.946.544,2.271,2.271,0,0,0-1.157,1.51,27.062,27.062,0,0,0-.217,4.454v9.472h-7.3V469.362Z" transform="translate(-151.7 -463.47)" fill="url(#linear-gradient)"/>
      <path id="Path_1906" data-name="Path 1906" d="M193.362,478.653h-6.851v-1.608a11.349,11.349,0,0,1,.642-4.294,5.957,5.957,0,0,1,2.576-2.665,12.028,12.028,0,0,1,10.61.154,5.106,5.106,0,0,1,2.26,3.216,50.485,50.485,0,0,1,.379,7.855v12.037h-7.1V491.21a4.452,4.452,0,0,1-4.247,2.571,6.162,6.162,0,0,1-3.516-1.075q-1.6-1.074-1.6-4.708v-1.97q0-2.692.85-3.669a11.962,11.962,0,0,1,4.212-2.277q3.6-1.41,3.85-1.9a5.063,5.063,0,0,0,.253-1.988,6.7,6.7,0,0,0-.28-2.449.963.963,0,0,0-.931-.57c-.495,0-.8.161-.922.479a9.714,9.714,0,0,0-.181,2.485Zm2.313,3.29a5.412,5.412,0,0,0-2.033,2.151,8.538,8.538,0,0,0-.28,2.495,7.267,7.267,0,0,0,.244,2.4.953.953,0,0,0,.967.543.9.9,0,0,0,.895-.424,6.877,6.877,0,0,0,.208-2.232Z" transform="translate(-153.09 -463.47)" fill="url(#linear-gradient)"/>
      <path id="Path_1907" data-name="Path 1907" d="M216.708,463.564v3.705a9.023,9.023,0,0,0-2.666.208q-.408.207-.407,1.184v.759h3.073v3.8h-1.735v19.611h-7.3V473.216h-1.5v-3.8h1.5a19.415,19.415,0,0,1,.163-3.163,2.713,2.713,0,0,1,.8-1.419,4.124,4.124,0,0,1,1.8-.949,14.461,14.461,0,0,1,3.6-.325Z" transform="translate(-155 -462.949)" fill="url(#linear-gradient)"/>
      <path id="Path_1908" data-name="Path 1908" d="M227.955,465.865v3.779h1.97v3.8h-1.97v12.833a6.892,6.892,0,0,0,.244,2.639q.244.271,2.033.271v3.868h-2.946a20.985,20.985,0,0,1-3.561-.209,3.782,3.782,0,0,1-1.88-.957,3.173,3.173,0,0,1-1.012-1.718,30.4,30.4,0,0,1-.2-4.545V473.439h-1.573v-3.8h1.573v-3.779Z" transform="translate(-156.252 -463.173)" fill="url(#linear-gradient)"/>
      <path id="Path_1909" data-name="Path 1909" d="M240.087,469.362l-.126,2.282a5.887,5.887,0,0,1,2.024-2.037,5.25,5.25,0,0,1,2.675-.679,5.182,5.182,0,0,1,4.609,2.716,6.582,6.582,0,0,1,2.078-2.037,4.98,4.98,0,0,1,2.567-.679,5.037,5.037,0,0,1,3.081.9,3.976,3.976,0,0,1,1.564,2.215,18.592,18.592,0,0,1,.344,4.256v17.044h-7.086V477.713a19.644,19.644,0,0,0-.209-3.806.917.917,0,0,0-.966-.731.953.953,0,0,0-1,.723,18.04,18.04,0,0,0-.227,3.814v15.635h-7.085V478.111a28.049,28.049,0,0,0-.172-4.23.871.871,0,0,0-.95-.705,1.1,1.1,0,0,0-.831.37,1.433,1.433,0,0,0-.38.9q-.037.534-.036,2.268v16.629h-7.086V469.362Z" transform="translate(-157.594 -463.47)" fill="url(#linear-gradient)"/>
      <path id="Path_1910" data-name="Path 1910" d="M270.976,478.653h-6.85v-1.608a11.348,11.348,0,0,1,.642-4.294,5.959,5.959,0,0,1,2.575-2.665,12.03,12.03,0,0,1,10.611.154,5.1,5.1,0,0,1,2.259,3.216,50.369,50.369,0,0,1,.379,7.855v12.037h-7.1V491.21a4.452,4.452,0,0,1-4.248,2.571,6.165,6.165,0,0,1-3.516-1.075q-1.6-1.074-1.6-4.708v-1.97q0-2.692.85-3.669a11.965,11.965,0,0,1,4.211-2.277q3.6-1.41,3.851-1.9a5.063,5.063,0,0,0,.253-1.988,6.72,6.72,0,0,0-.28-2.449.964.964,0,0,0-.931-.57c-.495,0-.8.161-.922.479a9.7,9.7,0,0,0-.181,2.485Zm2.314,3.29a5.416,5.416,0,0,0-2.034,2.151,8.538,8.538,0,0,0-.28,2.495,7.292,7.292,0,0,0,.244,2.4.954.954,0,0,0,.968.543.9.9,0,0,0,.895-.424,6.877,6.877,0,0,0,.208-2.232Z" transform="translate(-160.629 -463.47)" fill="url(#linear-gradient)"/>
      <path id="Path_1911" data-name="Path 1911" d="M292.448,469.362l-.289,3.154q1.59-3.389,4.609-3.587v8.44a6.115,6.115,0,0,0-2.946.544,2.27,2.27,0,0,0-1.157,1.51,26.914,26.914,0,0,0-.218,4.454v9.472h-7.3V469.362Z" transform="translate(-162.671 -463.47)" fill="url(#linear-gradient)"/>
      <path id="Path_1912" data-name="Path 1912" d="M315.546,468.841l-2.964,9.553,3.85,14.432h-7.022l-2.278-10.453-.009,10.453h-7.3V463.564h7.3l.009,12.284,2.278-7.007Z" transform="translate(-164.096 -462.949)" fill="url(#linear-gradient)"/>
    </g>
    <g id="Group_401" data-name="Group 401" transform="translate(262.049 488.164)">
      <path id="Path_1913" data-name="Path 1913" d="M291.834,502.271h-7.608v-2.657a13.162,13.162,0,0,0-.218-3.145,1.137,1.137,0,0,0-1.988-.09,8.854,8.854,0,0,0-.253,2.784v14.043a8.4,8.4,0,0,0,.253,2.595.987.987,0,0,0,1.012.624,1.116,1.116,0,0,0,1.13-.705,8.232,8.232,0,0,0,.3-2.747V509.5h-1.536v-4.447h8.91v15.708h-4.782l-.7-2.1a5.323,5.323,0,0,1-1.962,2.033,5.537,5.537,0,0,1-2.793.677,7.265,7.265,0,0,1-3.592-.931,6.85,6.85,0,0,1-2.542-2.3,7.3,7.3,0,0,1-1.085-2.882,34.685,34.685,0,0,1-.217-4.529v-8.694a29.119,29.119,0,0,1,.451-6.092,6.258,6.258,0,0,1,2.594-3.48,9.1,9.1,0,0,1,5.54-1.581,10.32,10.32,0,0,1,5.548,1.373,6.488,6.488,0,0,1,2.875,3.264,17.274,17.274,0,0,1,.668,5.485Z" transform="translate(-274.158 -490.884)" stroke="#478929" stroke-width="0.5" fill="url(#linear-gradient-10)"/>
      <path id="Path_1914" data-name="Path 1914" d="M304.062,497.363l-.29,3.155q1.59-3.388,4.61-3.588v8.441a6.12,6.12,0,0,0-2.947.542,2.276,2.276,0,0,0-1.157,1.51,27.093,27.093,0,0,0-.217,4.456v9.472h-7.3V497.363Z" transform="translate(-276.353 -491.471)" stroke="#478929" stroke-width="0.5" fill="url(#linear-gradient-11)"/>
      <path id="Path_1915" data-name="Path 1915" d="M327.949,509.781H318.5v5.187a5.739,5.739,0,0,0,.236,2.1.913.913,0,0,0,.9.47,1.1,1.1,0,0,0,1.111-.624,6.807,6.807,0,0,0,.281-2.412v-3.164h6.923v1.772a15.852,15.852,0,0,1-.281,3.416,6.939,6.939,0,0,1-1.31,2.548,6.367,6.367,0,0,1-2.611,2.033,10.088,10.088,0,0,1-3.968.679,11.531,11.531,0,0,1-4.085-.669,6.538,6.538,0,0,1-2.757-1.835,6.644,6.644,0,0,1-1.364-2.566,16.587,16.587,0,0,1-.38-4.077v-6.995a11.914,11.914,0,0,1,.85-4.961,5.832,5.832,0,0,1,2.784-2.784,9.822,9.822,0,0,1,4.447-.966,9.934,9.934,0,0,1,5.07,1.166,6.412,6.412,0,0,1,2.8,3.091,14.487,14.487,0,0,1,.8,5.414Zm-7.32-3.9v-1.753a8.885,8.885,0,0,0-.2-2.405.785.785,0,0,0-.814-.541c-.506,0-.82.154-.94.46a9.551,9.551,0,0,0-.181,2.486v1.753Z" transform="translate(-277.755 -491.471)" stroke="#478929" stroke-width="0.5" fill="url(#linear-gradient-12)"/>
      <path id="Path_1916" data-name="Path 1916" d="M348.91,509.781h-9.454v5.187a5.746,5.746,0,0,0,.235,2.1.915.915,0,0,0,.9.47,1.1,1.1,0,0,0,1.111-.624,6.806,6.806,0,0,0,.281-2.412v-3.164h6.923v1.772a15.852,15.852,0,0,1-.281,3.416,6.953,6.953,0,0,1-1.31,2.548,6.376,6.376,0,0,1-2.612,2.033,10.084,10.084,0,0,1-3.967.679,11.54,11.54,0,0,1-4.085-.669,6.528,6.528,0,0,1-2.756-1.835,6.646,6.646,0,0,1-1.365-2.566,16.639,16.639,0,0,1-.379-4.077v-6.995a11.9,11.9,0,0,1,.851-4.961,5.834,5.834,0,0,1,2.783-2.784,9.824,9.824,0,0,1,4.447-.966A9.938,9.938,0,0,1,345.3,498.1a6.414,6.414,0,0,1,2.8,3.091,14.484,14.484,0,0,1,.805,5.414Zm-7.321-3.9v-1.753a8.9,8.9,0,0,0-.2-2.405.787.787,0,0,0-.814-.541q-.758,0-.94.46a9.615,9.615,0,0,0-.181,2.486v1.753Z" transform="translate(-279.791 -491.471)" stroke="#478929" stroke-width="0.5" fill="url(#linear-gradient-12)"/>
      <path id="Path_1917" data-name="Path 1917" d="M360.784,497.363l-.126,2.209a5.448,5.448,0,0,1,1.944-1.982,5.2,5.2,0,0,1,2.646-.661,5.03,5.03,0,0,1,3.074.885,3.949,3.949,0,0,1,1.536,2.233,20.368,20.368,0,0,1,.344,4.491V521.35h-7.3V504.738a15.45,15.45,0,0,0-.163-3.019q-.163-.542-.9-.541a.9.9,0,0,0-.976.622,15.689,15.689,0,0,0-.2,3.336V521.35h-7.3V497.363Z" transform="translate(-281.85 -491.471)" stroke="#478929" stroke-width="0.5" fill="url(#linear-gradient-11)"/>
    </g>
    <path id="Path_1918" data-name="Path 1918" d="M362.094,479.106c.216-6.71-6.121-12.458-18.66-8.279a29.228,29.228,0,0,1-20.223-1.078c3.142,16.982,15.263,24.211,24.957,23.932,8.538-.246,13.008-7.454,13.806-12.23-13.1,9.049-22.307,2.771-23.635.541C344.9,486.524,357.022,484.76,362.094,479.106Zm8.851-11.4c-1.138,11.7-9.2,12.554-7.545,13.3a12.273,12.273,0,0,0,10.074-11.216C373.643,468.335,371.21,465,370.945,467.709Z" transform="translate(-16.873 -0.369)" stroke="#478929" stroke-width="0.5" fill="url(#linear-gradient-15)"/>
  </g>
</svg>
