<svg id="Group_405" data-name="Group 405" xmlns="http://www.w3.org/2000/svg" width="68.575" height="80.004" viewBox="0 0 68.575 80.004">
  <path id="Path_1926" data-name="Path 1926" d="M-170.777,214.146a1.417,1.417,0,0,0,.713.191,1.43,1.43,0,0,0,1.239-.714l2.857-4.95a1.43,1.43,0,0,0-.523-1.951,1.429,1.429,0,0,0-1.952.523l-2.857,4.95A1.426,1.426,0,0,0-170.777,214.146Z" transform="translate(217.922 -202.128)" fill="#195eb2"/>
  <path id="Path_1927" data-name="Path 1927" d="M-195.246,236.141-200.2,239a1.427,1.427,0,0,0-.523,1.952,1.426,1.426,0,0,0,1.239.714,1.43,1.43,0,0,0,.713-.19l4.95-2.857a1.431,1.431,0,0,0,.523-1.953A1.429,1.429,0,0,0-195.246,236.141Z" transform="translate(205.312 -189.518)" fill="#195eb2"/>
  <path id="Path_1928" data-name="Path 1928" d="M-163.108,220.664a1.43,1.43,0,0,0,.713-.19l4.95-2.857a1.431,1.431,0,0,0,.523-1.953,1.431,1.431,0,0,0-1.951-.523l-4.95,2.857a1.427,1.427,0,0,0-.523,1.952A1.427,1.427,0,0,0-163.108,220.664Z" transform="translate(220.903 -198.52)" fill="#195eb2"/>
  <path id="Path_1929" data-name="Path 1929" d="M-195.42,227.878a1.429,1.429,0,0,0-1.429-1.429h-5.715a1.428,1.428,0,0,0-1.429,1.429,1.427,1.427,0,0,0,1.429,1.429h5.715A1.428,1.428,0,0,0-195.42,227.878Z" transform="translate(203.992 -193.59)" fill="#195eb2"/>
  <path id="Path_1930" data-name="Path 1930" d="M-154.849,226.449h-5.715a1.428,1.428,0,0,0-1.429,1.429,1.427,1.427,0,0,0,1.429,1.429h5.715a1.428,1.428,0,0,0,1.429-1.429A1.429,1.429,0,0,0-154.849,226.449Z" transform="translate(221.995 -193.59)" fill="#195eb2"/>
  <path id="Path_1931" data-name="Path 1931" d="M-200.2,217.616l4.95,2.857a1.43,1.43,0,0,0,.713.19,1.43,1.43,0,0,0,1.239-.714,1.43,1.43,0,0,0-.523-1.952l-4.95-2.857a1.429,1.429,0,0,0-1.951.523A1.428,1.428,0,0,0-200.2,217.616Z" transform="translate(205.312 -198.52)" fill="#195eb2"/>
  <path id="Path_1932" data-name="Path 1932" d="M-189.443,213.623a1.426,1.426,0,0,0,1.239.714,1.417,1.417,0,0,0,.713-.191,1.429,1.429,0,0,0,.523-1.951l-2.857-4.95a1.431,1.431,0,0,0-1.952-.523,1.427,1.427,0,0,0-.523,1.951Z" transform="translate(208.921 -202.128)" fill="#195eb2"/>
  <path id="Path_1933" data-name="Path 1933" d="M-179.563,212.021a1.428,1.428,0,0,0,1.429-1.429v-5.715a1.429,1.429,0,0,0-1.429-1.429,1.428,1.428,0,0,0-1.429,1.429v5.715A1.427,1.427,0,0,0-179.563,212.021Z" transform="translate(213.851 -203.449)" fill="#195eb2"/>
  <path id="Path_1934" data-name="Path 1934" d="M-173.134,211.449a22.884,22.884,0,0,0-22.858,22.858,22.9,22.9,0,0,0,7.365,16.8,12.761,12.761,0,0,1,4.064,9.369v.98a4.278,4.278,0,0,0,2.857,4.023v7.406a4.289,4.289,0,0,0,4.286,4.286h.263a4.278,4.278,0,0,0,4.023,2.857,4.276,4.276,0,0,0,4.022-2.857h.264a4.29,4.29,0,0,0,4.286-4.286v-7.406a4.28,4.28,0,0,0,2.857-4.023v-.98a12.765,12.765,0,0,1,4.063-9.369,22.9,22.9,0,0,0,7.366-16.8A22.885,22.885,0,0,0-173.134,211.449Zm-1.429,60h7.143v1.429a1.429,1.429,0,0,1-1.429,1.429h-8.572a1.429,1.429,0,0,1-1.429-1.429v-7.143h11.429v2.857h-7.143a1.428,1.428,0,0,0-1.429,1.429A1.427,1.427,0,0,0-174.562,271.452ZM-159.577,249a15.617,15.617,0,0,0-4.984,11.469v.98a1.429,1.429,0,0,1-1.429,1.429h-5.715V241.419c2.472-.136,6.382-.829,9.189-3.636,3.459-3.459,3.713-8.6,3.663-10.648a1.433,1.433,0,0,0-1.394-1.394c-2.054-.051-7.19.206-10.648,3.663a13.277,13.277,0,0,0-3.489,7.708,11.613,11.613,0,0,0-1.352-1.631c-3.8-3.8-9.473-4.06-11.715-4.024a1.43,1.43,0,0,0-1.393,1.394c-.056,2.257.224,7.917,4.023,11.715,3.14,3.142,7.547,3.875,10.258,4V262.88h-5.715a1.429,1.429,0,0,1-1.429-1.429v-.98A15.619,15.619,0,0,0-186.692,249a20.047,20.047,0,0,1-6.443-14.7,20.024,20.024,0,0,1,20-20,20.025,20.025,0,0,1,20,20A20.049,20.049,0,0,1-159.577,249Zm-12.093-10.443a11.153,11.153,0,0,1,2.8-7.135,11.153,11.153,0,0,1,7.135-2.8,11.144,11.144,0,0,1-2.8,7.135A11.152,11.152,0,0,1-171.671,238.559Zm-2.92,7.15c-2.272-.126-5.789-.744-8.209-3.164s-3.039-5.937-3.164-8.209c2.271.126,5.789.743,8.209,3.164S-174.717,243.438-174.591,245.709Z" transform="translate(207.421 -200.02)" fill="#195eb2"/>
  <path id="Path_1935" data-name="Path 1935" d="M-157.444,239l-4.95-2.857a1.428,1.428,0,0,0-1.952.523,1.428,1.428,0,0,0,.523,1.953l4.95,2.857a1.43,1.43,0,0,0,.713.19,1.43,1.43,0,0,0,1.239-.714A1.43,1.43,0,0,0-157.444,239Z" transform="translate(220.903 -189.518)" fill="#195eb2"/>
</svg>
