<svg id="Group_406" data-name="Group 406" xmlns="http://www.w3.org/2000/svg" width="93.334" height="80" viewBox="0 0 93.334 80">
  <path id="Path_1936" data-name="Path 1936" d="M-42.738,256.439a32.044,32.044,0,0,0-3.365-.483,5.046,5.046,0,0,1-3.122-1.435l-7.243-7.242a6.186,6.186,0,0,0-4.248-1.8l-1.773-13.492a5.228,5.228,0,0,0-5.173-4.538,5.222,5.222,0,0,0-5.217,5.217v25.582a8.32,8.32,0,0,0,2.105,5.537l11.65,13.105a1.654,1.654,0,0,0,1.245.56,1.666,1.666,0,0,0,1.107-.422,1.667,1.667,0,0,0,.138-2.353l-11.648-13.105a4.992,4.992,0,0,1-1.263-3.322V232.666a1.887,1.887,0,0,1,1.887-1.883,1.888,1.888,0,0,1,1.867,1.638l1.835,13.968a5.756,5.756,0,0,0-.483.32,5.865,5.865,0,0,0-2.145,4.232,5.839,5.839,0,0,0,1.7,4.42l11.6,11.6a1.665,1.665,0,0,0,2.357,0,1.668,1.668,0,0,0,0-2.357l-11.6-11.6a2.519,2.519,0,0,1-.73-1.895,2.489,2.489,0,0,1,.927-1.818,2.658,2.658,0,0,1,3.507.345l7.242,7.24a8.389,8.389,0,0,0,5.178,2.4,28.391,28.391,0,0,1,3.008.432,13.261,13.261,0,0,1,10.517,13.04v13.035a1.666,1.666,0,0,0,1.667,1.667,1.667,1.667,0,0,0,1.667-1.667V272.748A16.6,16.6,0,0,0-42.738,256.439Z" transform="translate(72.88 -207.45)" fill="#195eb2"/>
  <path id="Path_1937" data-name="Path 1937" d="M-4.766,227.449a5.229,5.229,0,0,0-5.172,4.537l-1.773,13.492a6.187,6.187,0,0,0-4.245,1.8l-7.252,7.25a5.034,5.034,0,0,1-3.107,1.428,31.742,31.742,0,0,0-3.457.5A16.585,16.585,0,0,0-42.88,272.743v13.04a1.666,1.666,0,0,0,1.667,1.667,1.667,1.667,0,0,0,1.667-1.667v-13.04A13.243,13.243,0,0,1-29.1,259.723a28.724,28.724,0,0,1,3.092-.448,8.367,8.367,0,0,0,5.163-2.392l7.25-7.25a2.657,2.657,0,0,1,3.505-.342,2.481,2.481,0,0,1,.925,1.818A2.512,2.512,0,0,1-9.9,253l-11.6,11.6a1.665,1.665,0,0,0,0,2.357,1.665,1.665,0,0,0,2.357,0l11.6-11.6a5.844,5.844,0,0,0,1.7-4.42,5.846,5.846,0,0,0-2.145-4.23,5.4,5.4,0,0,0-.483-.322l1.837-13.97a1.887,1.887,0,0,1,1.87-1.637,1.886,1.886,0,0,1,1.883,1.883v25.582a5,5,0,0,1-1.263,3.322l-11.648,13.105a1.665,1.665,0,0,0,.138,2.353,1.652,1.652,0,0,0,1.107.422,1.657,1.657,0,0,0,1.245-.56l11.648-13.105a8.313,8.313,0,0,0,2.107-5.537V232.666A5.225,5.225,0,0,0-4.766,227.449Z" transform="translate(92.88 -207.45)" fill="#195eb2"/>
  <path id="Path_1938" data-name="Path 1938" d="M-1.169,216.834a1.662,1.662,0,0,0-.817-1.167,1.678,1.678,0,0,0-1.423-.108c-6.373,2.447-12.957,1.7-19.318.987s-12.377-1.395-17.894,1.022a22.822,22.822,0,0,0-12.45,12.8,18.178,18.178,0,0,0-.742,9.983,25.3,25.3,0,0,0-6.952,9.493,1.667,1.667,0,0,0,.943,2.16,1.661,1.661,0,0,0,.608.115,1.664,1.664,0,0,0,1.55-1.058,21.312,21.312,0,0,1,4.967-7.245c.107.242.2.488.313.725,3.413,6.893,11.027,10.883,19.217,10.883a25.655,25.655,0,0,0,10.077-2.073C-8.064,246.926.874,228.774-1.169,216.834Zm-48.225,26.225a14.348,14.348,0,0,1-.65-1.557,38.126,38.126,0,0,1,24.1-7.7,1.685,1.685,0,0,0,1.732-1.6,1.666,1.666,0,0,0-1.6-1.732,41.52,41.52,0,0,0-24.989,7.51,15.022,15.022,0,0,1,.862-6.483A19.492,19.492,0,0,1-39.283,220.62a19.286,19.286,0,0,1,7.838-1.4,76.415,76.415,0,0,1,8.343.64c6.123.692,12.432,1.4,18.862-.5.562,10.5-7.547,25.535-20.16,30.925C-34.153,254.447-45.361,251.2-49.395,243.059Z" transform="translate(80.88 -215.449)" fill="#195eb2"/>
</svg>
