<svg xmlns="http://www.w3.org/2000/svg" width="87.934" height="80" viewBox="0 0 87.934 80">
  <path id="Path_1939" data-name="Path 1939" d="M-395.475,246.437h-.011l-4.228.031c3.823-6.572,5.763-13,5.763-19.22a25.326,25.326,0,0,0-25.3-25.3,24.349,24.349,0,0,0-18.669,8.647,24.352,24.352,0,0,0-18.669-8.647,25.327,25.327,0,0,0-25.3,25.3c0,6.274,1.975,12.751,5.861,19.38h-3.16a1.526,1.526,0,0,0-1.525,1.525,1.526,1.526,0,0,0,1.525,1.525h5.082a90.16,90.16,0,0,0,13.933,15.838,140.726,140.726,0,0,0,21.483,16.221,1.531,1.531,0,0,0,.775.212,1.531,1.531,0,0,0,.775-.212,140.762,140.762,0,0,0,21.477-16.221,89.89,89.89,0,0,0,14.025-15.983l6.169-.046a1.525,1.525,0,0,0,1.514-1.537A1.525,1.525,0,0,0-395.475,246.437Zm-83.358-19.189A22.273,22.273,0,0,1-456.585,205a21.472,21.472,0,0,1,17.095,8.48,1.615,1.615,0,0,0,1.208.581l.756,0a1.524,1.524,0,0,0,1.187-.581A21.475,21.475,0,0,1-419.248,205,22.273,22.273,0,0,1-397,227.248c0,6.669-2.539,13.194-6.348,19.247l-17.818.133a1.526,1.526,0,0,0-1.116.5l-5.8,6.366-6.085-30.075a1.524,1.524,0,0,0-1.415-1.22,1.527,1.527,0,0,0-1.534,1.068l-7.229,23.133-4.386-12.309a1.523,1.523,0,0,0-1.339-1.01,1.5,1.5,0,0,0-1.458.833l-6.447,12.716H-472.4C-476.258,240.537-478.834,233.966-478.834,227.248Zm40.923,51.387c-3.909-2.433-21.637-13.949-32.438-28.957h13.308a1.526,1.526,0,0,0,1.36-.836l5.265-10.386,4.726,13.262a1.542,1.542,0,0,0,1.467,1.014,1.527,1.527,0,0,0,1.426-1.071l6.817-21.815,5.5,27.2a1.525,1.525,0,0,0,1.087,1.168,1.552,1.552,0,0,0,.407.055,1.525,1.525,0,0,0,1.127-.5l7.377-8.1,15.08-.113C-416.185,264.627-433.994,276.2-437.91,278.635Z" transform="translate(481.884 -201.949)" fill="#195eb2"/>
</svg>
