<svg id="Group_404" data-name="Group 404" xmlns="http://www.w3.org/2000/svg" width="73.847" height="80" viewBox="0 0 73.847 80">
  <path id="Path_1924" data-name="Path 1924" d="M-498.9,201.05a30.8,30.8,0,0,0-30.763,30.132c-1.721,1.743-8.234,8.32-10.928,11.037a4.664,4.664,0,0,0-1.011,5.158,4.634,4.634,0,0,0,4.34,2.9h4.516v13.846a7.7,7.7,0,0,0,7.692,7.692h10.769v7.692a1.538,1.538,0,0,0,1.538,1.539,1.538,1.538,0,0,0,1.539-1.539v-9.231a1.538,1.538,0,0,0-1.539-1.538h-12.308a4.621,4.621,0,0,1-4.615-4.615V248.742A1.538,1.538,0,0,0-531.2,247.2h-6.054a1.6,1.6,0,0,1-1.5-1.008,1.633,1.633,0,0,1,.352-1.809c11.822-11.923,11.815-11.923,11.815-12.568A27.724,27.724,0,0,1-498.9,204.127,27.724,27.724,0,0,1-471.2,231.819a27.424,27.424,0,0,1-8.746,20.158,1.534,1.534,0,0,0-.485,1.12v26.414a1.538,1.538,0,0,0,1.538,1.539,1.538,1.538,0,0,0,1.539-1.539V253.753a30.443,30.443,0,0,0,9.231-21.934A30.8,30.8,0,0,0-498.9,201.05Z" transform="translate(541.974 -201.05)" fill="#195eb2"/>
  <path id="Path_1925" data-name="Path 1925" d="M-490.951,211.1a1.536,1.536,0,0,0-1.3.252c-4.483,3.323-9.691,4.066-14.729,4.785-5.1.728-9.917,1.417-13.811,4.6a19.232,19.232,0,0,0-7.118,13.031,15.758,15.758,0,0,0,2.559,10.211,20.12,20.12,0,0,0-2.62,8.523,1.539,1.539,0,0,0,1.446,1.626l.091,0a1.539,1.539,0,0,0,1.534-1.449,16.726,16.726,0,0,1,1.668-6.18,16.778,16.778,0,0,0,11.718,4.514,20.459,20.459,0,0,0,12.739-4.548c10.3-8.258,13.158-25.032,8.842-34.514A1.541,1.541,0,0,0-490.951,211.1Zm-9.749,32.963c-6.637,5.323-15.935,5.134-20.943-.337a27.219,27.219,0,0,1,17.035-11.165,1.538,1.538,0,0,0,1.222-1.8,1.535,1.535,0,0,0-1.8-1.222,30.485,30.485,0,0,0-18.308,11.535,12.844,12.844,0,0,1-1.352-7.04,16.145,16.145,0,0,1,6-10.917c3.231-2.64,7.635-3.269,12.3-3.935,4.615-.659,9.78-1.4,14.472-4.248C-489.245,223.576-492.068,237.139-500.7,244.062Z" transform="translate(549.513 -195.665)" fill="#195eb2"/>
</svg>
