<svg xmlns="http://www.w3.org/2000/svg" xmlns:xlink="http://www.w3.org/1999/xlink" viewBox="0 0 380.41 96.74"><defs><style>.cls-1{fill:none;}.cls-2{clip-path:url(#clip-path);}.cls-3{fill:#303452;}.cls-4{clip-path:url(#clip-path-2);}.cls-5{fill:#447897;}.cls-6{fill:#edbc68;}</style><clipPath id="clip-path" transform="translate(-4.03 -41.21)"><rect class="cls-1" width="388.46" height="179.16"/></clipPath><clipPath id="clip-path-2" transform="translate(-4.03 -41.21)"><rect class="cls-1" x="4.03" y="41.21" width="380.41" height="96.74"/></clipPath></defs><g id="Layer_2" data-name="Layer 2"><g id="Layer_1-2" data-name="Layer 1"><g class="cls-2"><path class="cls-3" d="M124.31,83h5.39a16.45,16.45,0,0,0,16.64-16.67,16.93,16.93,0,0,0-1.26-6.56,16.22,16.22,0,0,0-3.54-5.3,16.57,16.57,0,0,0-11.84-4.81h-5.39V83Zm-2.5,2.25V47.36h8.05a19.26,19.26,0,0,1,7.51,1.45,18.61,18.61,0,0,1,10.11,10,19.77,19.77,0,0,1,0,14.89,18.32,18.32,0,0,1-4.05,6,18.7,18.7,0,0,1-6.07,4,19.62,19.62,0,0,1-7.51,1.43Z" transform="translate(-4.03 -41.21)"/><path class="cls-3" d="M166.53,83.78a9.56,9.56,0,0,0,5-1.32A9.27,9.27,0,0,0,175,78.8a12.05,12.05,0,0,0,0-10.69,9.24,9.24,0,0,0-3.44-3.65,10.26,10.26,0,0,0-10.07,0A9.33,9.33,0,0,0,158,68.11a11.95,11.95,0,0,0,0,10.68,9.32,9.32,0,0,0,8.49,5ZM166,85.93a11.18,11.18,0,0,1-6-1.61,11.65,11.65,0,0,1-4.2-4.44,14.13,14.13,0,0,1,0-12.85A11.58,11.58,0,0,1,160,62.6,11.29,11.29,0,0,1,166,61a11.61,11.61,0,0,1,6.06,1.63,10.16,10.16,0,0,1,4,4.5V61.72h2.43V85.2h-2.43V79.77A11.33,11.33,0,0,1,172,84.3,11.08,11.08,0,0,1,166,85.93Z" transform="translate(-4.03 -41.21)"/><path class="cls-3" d="M186.52,85.2V61.72H189v3.51a7.62,7.62,0,0,1,2.8-3.18A7.77,7.77,0,0,1,195.88,61a10.54,10.54,0,0,1,2,.2,8,8,0,0,1,1.73.52l-1,2.06a5.87,5.87,0,0,0-1.5-.48,8.51,8.51,0,0,0-1.64-.16,6.18,6.18,0,0,0-3.15.86,7.28,7.28,0,0,0-2.45,2.22,5.08,5.08,0,0,0-.94,2.9V85.2Z" transform="translate(-4.03 -41.21)"/><path class="cls-3" d="M204.09,85.2V61.72h2.43v3.35a7.36,7.36,0,0,1,2.88-2.88,9.66,9.66,0,0,1,5-1.21,9.21,9.21,0,0,1,4.68,1.12,7.19,7.19,0,0,1,3,3.25,12,12,0,0,1,1,5.24V85.2h-2.43V71a8.76,8.76,0,0,0-1.8-6A6.39,6.39,0,0,0,213.81,63a7.89,7.89,0,0,0-3.92.92,6.59,6.59,0,0,0-2.5,2.41,6.22,6.22,0,0,0-.87,3.19V85.2Z" transform="translate(-4.03 -41.21)"/><path class="cls-3" d="M231.45,71.72h19.42a9.71,9.71,0,0,0-1.65-4.45,9.91,9.91,0,0,0-3.44-3.09,9.51,9.51,0,0,0-4.59-1.13,9.71,9.71,0,0,0-9.74,8.67Zm10.18,14.21a13,13,0,0,1-6.56-1.63,12,12,0,0,1-4.49-4.43A12.17,12.17,0,0,1,229,73.6a12.89,12.89,0,0,1,1-5,12.38,12.38,0,0,1,2.64-4,12.07,12.07,0,0,1,3.9-2.68,11.51,11.51,0,0,1,4.71-1,12,12,0,0,1,6,1.53,11.81,11.81,0,0,1,4.33,4.21,12.53,12.53,0,0,1,1.8,6.12v.4a2.89,2.89,0,0,1,0,.4H231.33a10.51,10.51,0,0,0,1.33,5.28,9.65,9.65,0,0,0,3.68,3.63,10.78,10.78,0,0,0,5.36,1.32,10.92,10.92,0,0,0,5.17-1.21,9.78,9.78,0,0,0,3.73-3.44l1.83,1a11.58,11.58,0,0,1-4.5,4.2,13.37,13.37,0,0,1-6.3,1.48Z" transform="translate(-4.03 -41.21)"/><path class="cls-3" d="M265,85.93a8.63,8.63,0,0,1-5.08-1.52,9.57,9.57,0,0,1-3.34-4.32l1.47-1.22a8.75,8.75,0,0,0,2.83,3.76A6.67,6.67,0,0,0,265,84a6.47,6.47,0,0,0,2.93-.68,5.42,5.42,0,0,0,2.16-1.92,5.33,5.33,0,0,0,.8-3,3.67,3.67,0,0,0-.71-2.4,5.72,5.72,0,0,0-2.09-1.48c-.91-.41-2-.87-3.32-1.38a28,28,0,0,1-2.95-1.34,7.17,7.17,0,0,1-2.36-1.9,4.57,4.57,0,0,1-.93-3,5.42,5.42,0,0,1,.9-3.07,6.32,6.32,0,0,1,2.5-2.14,8,8,0,0,1,3.59-.8,7.57,7.57,0,0,1,3.71.93,8.67,8.67,0,0,1,2.88,2.63l-1.33,1.31a5.91,5.91,0,0,0-5.26-3A5,5,0,0,0,262.11,64a3.67,3.67,0,0,0-1.31,2.91,3,3,0,0,0,.75,2.1,6.17,6.17,0,0,0,2,1.39q1.25.57,2.73,1.14c1.42.54,2.66,1.07,3.7,1.59a6.49,6.49,0,0,1,2.44,2,5.54,5.54,0,0,1,.86,3.27,7.4,7.4,0,0,1-1.07,4A7.1,7.1,0,0,1,269.25,85a9.38,9.38,0,0,1-4.25.92Z" transform="translate(-4.03 -41.21)"/><path class="cls-3" d="M284.17,85.93a4.5,4.5,0,0,1-3.75-1.66,7.37,7.37,0,0,1-1.32-4.69v-16h-2.22V61.72h2.22V53h2.43v8.76h6v1.83h-6V79.49a5.38,5.38,0,0,0,.81,3.2,2.65,2.65,0,0,0,2.29,1.11,3.88,3.88,0,0,0,2.45-.78l.62,2a5.6,5.6,0,0,1-1.6.7,7,7,0,0,1-1.93.26Z" transform="translate(-4.03 -41.21)"/><path class="cls-3" d="M304.12,83.71a10.56,10.56,0,0,0,5.31-1.32,9.69,9.69,0,0,0,3.67-3.63,11.15,11.15,0,0,0,0-10.6,9.69,9.69,0,0,0-3.67-3.63,11.34,11.34,0,0,0-10.62,0,9.76,9.76,0,0,0-3.67,3.63,11.15,11.15,0,0,0,0,10.6,9.76,9.76,0,0,0,3.67,3.63,10.59,10.59,0,0,0,5.31,1.32Zm0,2.22a13.33,13.33,0,0,1-6.52-1.58A11.88,11.88,0,0,1,293,80a13.38,13.38,0,0,1,0-13,12,12,0,0,1,4.6-4.39,14.14,14.14,0,0,1,13,0,12,12,0,0,1,4.6,4.39,13.34,13.34,0,0,1,0,13,12,12,0,0,1-4.6,4.39,13.37,13.37,0,0,1-6.53,1.58Z" transform="translate(-4.03 -41.21)"/><polygon class="cls-3" points="326.86 43.99 315.69 20.51 318.46 20.51 327.62 40.32 335.37 20.51 336.97 20.51 344.7 40.32 353.85 20.51 356.63 20.51 345.48 43.99 343.87 43.99 336.17 24.54 328.44 43.99 326.86 43.99 326.86 43.99"/><path class="cls-3" d="M365.4,85.2V61.72h2.43v3.35a7.36,7.36,0,0,1,2.88-2.88,9.68,9.68,0,0,1,5-1.21,9.21,9.21,0,0,1,4.68,1.12,7.19,7.19,0,0,1,3,3.25,12,12,0,0,1,1,5.24V85.2H382V71a8.76,8.76,0,0,0-1.8-6A6.39,6.39,0,0,0,375.12,63a7.89,7.89,0,0,0-3.92.92,6.59,6.59,0,0,0-2.5,2.41,6.22,6.22,0,0,0-.87,3.19V85.2Z" transform="translate(-4.03 -41.21)"/><path class="cls-3" d="M131.14,131.8a13.25,13.25,0,0,1-5.22-1,13.6,13.6,0,0,1-3.71-2.29,14.59,14.59,0,0,1-2.35-2.59,18.58,18.58,0,0,1-1.15-1.85l1.58-1.65a20.29,20.29,0,0,0,1.1,1.76,14.06,14.06,0,0,0,2.09,2.36,11.88,11.88,0,0,0,3.21,2,12,12,0,0,0,9-.06,7.75,7.75,0,0,0,3.33-2.7,8.42,8.42,0,0,0,.4-8.14,7.77,7.77,0,0,0-2.33-2.55,16.79,16.79,0,0,0-3.3-1.81c-1.22-.52-2.49-1-3.81-1.48-.88-.33-1.84-.72-2.85-1.17a14.15,14.15,0,0,1-2.89-1.76,8.49,8.49,0,0,1-2.24-2.65,7.88,7.88,0,0,1-.87-3.85,9.71,9.71,0,0,1,.76-3.84,9.71,9.71,0,0,1,5.34-5.31,11.47,11.47,0,0,1,8.34,0,11.29,11.29,0,0,1,3.2,2,9.52,9.52,0,0,1,2,2.44l-1.46,1.56a7.76,7.76,0,0,0-1.69-2.13,8.94,8.94,0,0,0-2.7-1.7,9.31,9.31,0,0,0-3.57-.67A7.78,7.78,0,0,0,127.09,96a7.56,7.56,0,0,0-2.67,2.87,7.82,7.82,0,0,0-.92,3.66,5.78,5.78,0,0,0,.74,3,6.59,6.59,0,0,0,1.91,2.06,12.84,12.84,0,0,0,2.58,1.41c.93.39,1.85.73,2.75,1,1.41.51,2.79,1.06,4.13,1.66a17.76,17.76,0,0,1,3.66,2.14,9.21,9.21,0,0,1,2.6,3.08,9.6,9.6,0,0,1,1,4.48,9.69,9.69,0,0,1-5.79,9.22,14,14,0,0,1-5.91,1.21Z" transform="translate(-4.03 -41.21)"/><path class="cls-3" d="M154.88,131.8a4.49,4.49,0,0,1-3.75-1.66,7.37,7.37,0,0,1-1.32-4.69v-16h-2.23v-1.84h2.23V98.82h2.43v8.76h6v1.84h-6v15.94a5.4,5.4,0,0,0,.8,3.2,2.66,2.66,0,0,0,2.29,1.11,3.89,3.89,0,0,0,2.46-.78l.62,2a6,6,0,0,1-1.61.7,7.34,7.34,0,0,1-1.92.26Z" transform="translate(-4.03 -41.21)"/><path class="cls-3" d="M174.23,129.65a9.53,9.53,0,0,0,5-1.32,9.27,9.27,0,0,0,3.44-3.66,12.07,12.07,0,0,0,0-10.7,9.31,9.31,0,0,0-3.44-3.65,10.31,10.31,0,0,0-10.06,0,9.4,9.4,0,0,0-3.45,3.65,11.88,11.88,0,0,0,0,10.69,9.31,9.31,0,0,0,8.48,5Zm-.5,2.15a11.33,11.33,0,0,1-6-1.61,11.81,11.81,0,0,1-4.2-4.44,14.23,14.23,0,0,1,0-12.86,11.64,11.64,0,0,1,4.19-4.42,11.26,11.26,0,0,1,6-1.62,11.46,11.46,0,0,1,6.05,1.63,10.1,10.1,0,0,1,4,4.49v-5.39h2.43v23.49h-2.43v-5.44a11.34,11.34,0,0,1-4.14,4.53,11.11,11.11,0,0,1-6,1.64Z" transform="translate(-4.03 -41.21)"/><path class="cls-3" d="M199.18,131.8a4.5,4.5,0,0,1-3.75-1.66,7.37,7.37,0,0,1-1.32-4.69v-16h-2.22v-1.84h2.22V98.82h2.43v8.76h6v1.84h-6v15.94a5.4,5.4,0,0,0,.81,3.2,2.65,2.65,0,0,0,2.29,1.11,3.88,3.88,0,0,0,2.45-.78l.62,2a5.76,5.76,0,0,1-1.6.7,7.36,7.36,0,0,1-1.93.26Z" transform="translate(-4.03 -41.21)"/><path class="cls-3" d="M208,131.07V107.58h2.44v23.49Zm1.22-28.14a1.7,1.7,0,0,1-1.47-2.56,1.81,1.81,0,0,1,.62-.61,1.7,1.7,0,0,1,1.71,0,2,2,0,0,1,.61.61,1.7,1.7,0,0,1,0,1.71,1.81,1.81,0,0,1-.61.62,1.65,1.65,0,0,1-.86.23Z" transform="translate(-4.03 -41.21)"/><path class="cls-3" d="M229.54,129.58a10.56,10.56,0,0,0,5.31-1.32,9.58,9.58,0,0,0,3.67-3.64,11.13,11.13,0,0,0,0-10.59,9.58,9.58,0,0,0-3.67-3.64,11.4,11.4,0,0,0-10.61,0,9.58,9.58,0,0,0-3.67,3.64,11.06,11.06,0,0,0,0,10.59,9.58,9.58,0,0,0,3.67,3.64,10.55,10.55,0,0,0,5.3,1.32Zm0,2.22a13.44,13.44,0,0,1-6.52-1.58,12,12,0,0,1-4.59-4.39,12.41,12.41,0,0,1-1.68-6.5,12.24,12.24,0,0,1,1.7-6.5,12,12,0,0,1,4.59-4.4,14.22,14.22,0,0,1,13,0,12,12,0,0,1,4.6,4.4,13.28,13.28,0,0,1,0,13,12.05,12.05,0,0,1-4.6,4.39,13.48,13.48,0,0,1-6.53,1.58Z" transform="translate(-4.03 -41.21)"/><g class="cls-4"><path class="cls-3" d="M248.51,131.07V107.58h2.43v3.35a7.49,7.49,0,0,1,2.88-2.88,9.68,9.68,0,0,1,5-1.2,9.31,9.31,0,0,1,4.68,1.11,7.22,7.22,0,0,1,3,3.26,12,12,0,0,1,1,5.24v14.61h-2.44V116.89a8.78,8.78,0,0,0-1.8-6,6.42,6.42,0,0,0-5.08-2,7.89,7.89,0,0,0-3.92.92,6.52,6.52,0,0,0-2.5,2.41,6.2,6.2,0,0,0-.87,3.19v15.66Z" transform="translate(-4.03 -41.21)"/><path class="cls-3" d="M52.8,135.33V43.83h3.53a45.75,45.75,0,0,1,0,91.5Zm51.9-45.75A48.43,48.43,0,0,0,56.33,41.21H50.18V138h6.15A48.43,48.43,0,0,0,104.7,89.58Z" transform="translate(-4.03 -41.21)"/></g><path class="cls-5" d="M57.05,86.87h.33v.4h-.33v-.4Zm1.55,0v.4h-.32v-.4Zm1.64,0v.38h-.33v-.4h.31a15.66,15.66,0,0,1-3-2.83v.28h-.32v-.4h.24a10.5,10.5,0,0,1-.8-1.17v5.6h6.12a24.16,24.16,0,0,1-2.21-1.46Z" transform="translate(-4.03 -41.21)"/><path class="cls-5" d="M58.77,104.89v.4h-.33v-.4Zm1.64,0v.4h-.33v-.4Zm1.23,0v.4h-.33v-.4Zm1.06-9.17h2.87v.39H62.7v-.39Zm2.29,3h-.33v-.39H65v.39Zm-1.14,0h-.33v-.39h.33v.39ZM62,96.11h-.32v-.39H62v.39Zm-1.23,0h-.32v-.39h.32v.39Zm-1.64,0h-.32v-.39h.32v.39Zm-1.22,0h-.33v-.39h.33v.39Zm8.68-.39h.33v.39h-.33v-.39Zm1.06,0h1.31v.39H67.61v-.39Zm2.3,0h.32v.39h-.32v-.39Zm1.8,0H72v.39h-.33v-.39Zm1.14,0h.33v.39h-.33v-.39Zm1.32,0h.32v.39h-.32v-.39Zm1.14,0h.33v.39h-.33v-.39Zm-17.77,9.17v.1a11.9,11.9,0,0,0,9.92,5.45c4.29,0,8-1.9,9.58-5.15H62.37v-.4H77.22a8.73,8.73,0,0,0,.72-3.53,8.39,8.39,0,0,0-.41-2.63H65.73v-.39H77.39c-1.44-3.7-5.59-5.59-10-7.53-1.48-.65-2.9-1.33-4.23-2.07H56.33v7h.31v.39h-.31v2.23h6.2v.39h-6.2v4.19a14.31,14.31,0,0,0,1.14,2Z" transform="translate(-4.03 -41.21)"/><path class="cls-5" d="M56.89,68.53h.32v.39h-.32v-.39Zm1.55,0v.39h-.33v-.39Zm3.68-1.94H56.33V71.7a11.8,11.8,0,0,1,5.79-5.11Z" transform="translate(-4.03 -41.21)"/><path class="cls-5" d="M61.14,60.73h-.32v-.39h.32v.39Zm-.49-2.62h-.33v-.4h.33v.4Zm-1.31,2.62H59v-.39h.32v.39Zm2.46-3h.33v.4H61.8v-.4Zm.33,2.63h.33v.39h-.33v-.39Zm.49,3h-.33V63h.33v.39Zm.82-5.64h.32v.4h-.32v-.4ZM63.77,63h.32v.39h-.32V63Zm.4-2.62h.33v.39h-.33v-.39Zm1.07-2.63h.33v.4h-.33v-.4Zm.49,5.64H65.4V63h.33v.39Zm.24-3H84.49v.39H66v-.39Zm.58-2.63h.33v.4h-.33v-.4Zm.9-4.91h.33v.39h-.33V52.8Zm1.15,4.91h.32v.4H68.6v-.4Zm.32-4.91h.33v.39h-.33V52.8Zm1.48,4.91h7.29v.4H70.4v-.4Zm.16-4.91h.33v.39h-.33V52.8Zm1.8,0h.33v.39h-.33V52.8Zm1.31,0H74v.39h-.33V52.8Zm4.75,4.91h.33v.4h-.33v-.4Zm1.07,0h.33v.4h-.33v-.4Zm1.47,0h.33v.4H81v-.4Zm1.48,0h.33v.4h-.33v-.4Zm2.37,5.64H73.67V63H84.81v.39Zm.41-3h.33v.39h-.33v-.39Zm.66,3h-.33V63h.33v.39Zm-15,0h-.33V63h.33v.39Zm-2,0h-.32V63h.32v.39Zm-1.31,0h-.32V63h.32v.39Zm18.76-3h.32v.39h-.32v-.39Zm.65,3h-.33V63h.33v.39ZM88.09,63h.33v.39h-.33V63ZM67.86,65.51a14.91,14.91,0,0,1,5.58,1.08h18.3a42.41,42.41,0,0,0-7.27-8.48h-.72v-.4H84a43.78,43.78,0,0,0-6.27-4.52h-2.6V52.8h1.91a42,42,0,0,0-20.73-5.45V52.8h10v.39h-10v4.52h2.85v.4H56.33v2.23H57.7v.39H56.33V63h4.81v.39H56.33v3.24h5.79a14.83,14.83,0,0,1,5.74-1.08Z" transform="translate(-4.03 -41.21)"/><path class="cls-5" d="M56.33,131.81A42.06,42.06,0,0,0,70,129.53H56.33v2.28Z" transform="translate(-4.03 -41.21)"/><path class="cls-5" d="M76.38,119.37h-.33V119h.33v.39Zm-2,0H74V119h.33v.39Zm-1.31,0h-.33V119H73v.39Zm-11.38-2.94V116h19.9v.4Zm9.25,2.94V119h.33v.39Zm-.08,7.21h-.33v-.39h.33v.39Zm-8.6-.39h.32v.39h-.32v-.39Zm1.8,0v.39h-.33v-.39Zm1.64,0v.39h-.33v-.39Zm1.8.39h-.33v-.39h.33v.39Zm1.31,0h-.33v-.39h.33v.39Zm.49-7.21V119h.33v.39Zm-1.47,0V119h.32v.39ZM56.48,116h.32v.4h-.32V116Zm1.63,0v.4h-.32V116Zm2,0v.4h-.33V116Zm17.69-5.24h7.29v.39H77.85v-.39Zm3.77-12.45H82v.39h-.33v-.39Zm1,6.55h.33v.4H82.6v-.4Zm.17-6.55h.33v.39h-.33v-.39Zm1,0h.33v.39h-.33v-.39Zm-7-9.6v-.39h7.45v.39Zm0-1.47h-.32v-.4h.32v.4ZM76,88.74h-.33v-.39H76v.39Zm-1-4.42h-.32v-.4H75v.4Zm-.08,3h-.33v-.4h.33v.4Zm-.08,1.47h-.33v-.39h.33v.39Zm-1-4.42h-.33v-.4h.33v.4Zm-.25,3H72.28v-.4h1.31v.4Zm-.08,1.47h-.33v-.39h.33v.39Zm-1.15,0H72v-.39h.32v.39Zm-.82-1.47h-.32v-.4h.32v.4Zm-.49-3.35h.33v.4h-.33v-.4Zm1.48,0v.4H72.2v-.4ZM69,77.11v-.39h7.45v.39Zm.57,7.21h-.33v-.4h.33v.4ZM68.27,74.16H67v-.39h1.31v.39Zm0,3H67v-.39h1.31v.39Zm0,7.21H67v-.4h1.31v.4Zm-2-10.16H65.9v-.39h.32v.39Zm0,3h-.74v-.39h.74v.39Zm0,7.21H65.9v-.4h.32v.4ZM64.91,74.16H62v-.39h2.87v.39Zm0,3H62v-.39h2.87v.39Zm4.34-3.34h.33v.39h-.33v-.39Zm1.8,0h.33v.39h-.33v-.39Zm1.15,0h.33v.39H72.2v-.39Zm1.31,0h.33v.39h-.33v-.39Zm1.15,0H75v.39h-.32v-.39Zm2.54,3h.33v.39H77.2v-.39Zm.65,10.15v.4h-.33v-.4Zm1.31,0v.4h-.33v-.4Zm1.15,0v.4H80v-.4Zm3,0v.4H81.05v-.4Zm1.23,9.24v-.39h.33v.39Zm-.49-8.84v-.4h.33v.4Zm.32,17.62h.33v.4H84.4v-.4Zm3.53-21v.4H75.72v-.4Zm-9.51-7.2h.33v.39h-.33v-.39Zm1.31,0h.33v.39h-.33v-.39Zm1.15,0h.33v.39h-.33v-.39Zm1,0h.33v.39h-.33v-.39Zm1.31,0h.33v.39h-.33v-.39Zm.74-3h.33v.39h-.33v-.39Zm0-5.24h.33v.39h-.33v-.39Zm.5,8.19H86.7v.39H84.41v-.39Zm.73-3h.33v.39h-.33v-.39Zm0-5.24h.33v.39h-.33v-.39Zm1.31,5.24h.33v.39h-.33v-.39Zm0-5.24h.33v.39h-.33v-.39Zm1.15,5.24h.33v.39H87.6v-.39Zm0-5.24h.33v.39H87.6v-.39Zm.65,8.19h.33v.39h-.33v-.39Zm.33-3h.33v.39h-.33v-.39Zm0-5.24h.33v.39h-.33v-.39ZM89,84.32h-.33v-.4H89v.4Zm.41-7.6h.33v.39H89.4v-.39Zm.49,7.2h.33v.4h-.33v-.4Zm0-10.15h.33v.39h-.33v-.39Zm0-5.24h.33v.39h-.33v-.39Zm.58,30.2h-.33v-.39h.33v.39Zm.08-3h.32v.39h-.32v-.39Zm.16-19H91v.39h-.33v-.39Zm.41-3h2.3v.39h-2.3v-.39Zm3.85,0h.33v.39H95v-.39ZM92.35,84.32v-.4h.33v.4Zm-.57-7.21v-.39h.32v.39Zm3.68,9.76v.4H91.61v-.4Zm-2.13-3h.33v.4h-.33v-.4Zm1.31,0H95v.4h-.33v-.4Zm1,11.8H96v.39h-.33v-.39ZM96,88.35h.33v.39H96v-.39Zm.33-1.48h.33v.4h-.33v-.4Zm.49,8.85h.33v.39h-.33v-.39Zm.33-7.37h.33v.39H97.1v-.39Zm.49-1.48h.33v.4h-.33v-.4Zm-2.62,18v.4h-.33v-.4ZM94.4,88.74H92.1v-.39h2.3v.39Zm-.33,7.37H91.78v-.39h2.29v.39ZM94,98.73h-.33v-.39H94v.39Zm-.17,6.56h-.33v-.4h.33v.4Zm-.9-6.56H92.6v-.39h.32v.39Zm-.9,6.56h-.33v-.4H92v.4Zm-.82-21v-.4h.33v.4Zm.41,14.41h-.32v-.39h.32v.39Zm-.41-10h-.33v-.39h.33v.39Zm-.49,16.55H89.4v-.4h1.31v.4Zm-.49,5.89h-.33v-.39h.33v.39Zm-1-15.46h.32v.39h-.32v-.39Zm.65-7.37v.39h-.33v-.39Zm-4.34-1.08v-.4h4.5v.4Zm3.36,1.47h-.33v-.39h.33v.39Zm-.17,22.44h-.32v-.39h.32v.39Zm-.4-6.29h.32v.4h-.32v-.4ZM88,116.43h-.33V116H88v.4Zm-.74-5.25h-.33v-.39h.33v.39ZM86.12,96.11H85.8v-.39h.32v.39Zm.09,14.68v.39h-.33v-.39Zm.24-22.05h-.33v-.39h.33v.39Zm1.8,7.37v-.39h.33v.39Zm-.82-7.37v-.39h.33v.39Zm-.32,7.37v-.39h.32v.39Zm1.47,2.23v.39H86.29v-.39Zm-3.68-9.6v-.39h.32v.39Zm.16,9.6h.33v.39h-.33v-.39Zm1.88,18.09h-3.6V116h3.6v.4ZM59.75,76.72h.33v.39h-.33v-.39Zm0-3h.33v.39h-.33v-.39Zm1.56,3v.39H61v-.39Zm-.33-3h.33v.39H61v-.39Zm16.87,45.6V119h8.77c.8-.82,1.57-1.67,2.3-2.55h-.18V116h.33v.21a42.45,42.45,0,0,0,3.54-5.06H91.2v-.39h1.64a42,42,0,0,0,4.71-12.06H94.73v-.39h2.91c.17-.81.32-1.62.44-2.44v-.18h0a41.47,41.47,0,0,0,.45-6.14c0-.28,0-.56,0-.84h-.12v-.39h.11a42.72,42.72,0,0,0-.35-4.42v.39h-2.3v-.4h2.29a41.67,41.67,0,0,0-1.48-6.81H92.84v-.39h3.71a42,42,0,0,0-3.4-7.8h-2v-.39h1.8c-.37-.66-.77-1.3-1.18-1.94H73.44a15.86,15.86,0,0,1,3.42,1.94h6.31v.39H77.38a15.91,15.91,0,0,1,3.17,3.33l-2,1.52h4.58v.39H78.08l-.2.16a1.39,1.39,0,0,1-.11-.16h-2v-.39h1.76a12.23,12.23,0,0,0-9.4-4.85h-.36c-5.58.08-9.18,3.38-9.39,7.8h.11v.39h-.13v0c0,3,1.43,5.09,3.73,6.85v-.06h2.87v.4H62.5A30.84,30.84,0,0,0,67,86.87h3.2v.4H67.87l2.39,1.07h.3v.13c4.51,2,7.73,4.24,9.44,7.24h3.83v.39H80.22a10.44,10.44,0,0,1,.83,2.23h.16v.39h-.07a13,13,0,0,1,.27,2.63,12.54,12.54,0,0,1-.5,3.53h.71v.4H80.8c-1.73,5.28-7,8.56-13.34,8.56a14.75,14.75,0,0,1-8.57-2.67H56.33V119h10.3v.39H56.33v6.82h4.73v.39H56.33v2.56H71.12a41.84,41.84,0,0,0,5.56-2.56h-4.4v-.39h5.08a42.53,42.53,0,0,0,8.89-6.82Z" transform="translate(-4.03 -41.21)"/><g class="cls-4"><path class="cls-5" d="M56.33,109v1.76h2a17.19,17.19,0,0,1-2-1.76Z" transform="translate(-4.03 -41.21)"/><path class="cls-6" d="M40.05,126.63v-.39h.32v.39Zm-1.48,0v-.39h.33v.39Zm-1.64,0v-.39h.33v.39Zm-1.8,0v-.39h.33v.39Zm-1.31,0v-.39h.33v.39Zm-2.05,0v-.39h.33v.39ZM21.05,116.47v-.39H41v.39Zm-1.81,0h-3.6v-.39h3.6v.39Zm-3.93-5.63h.33v.39h-.33v-.39Zm-.41,5.63h-.33v-.39h.33v.39Zm-.66-11.14h-.32v-.39h.32v.39Zm-.07,5.9h-.33v-.39h.33v.39Zm-.5-22.44V88.4H14v.39Zm2.79,7.37v-.39h.33v.39Zm-.08,14.68h.32v.39h-.32v-.39Zm-.25-22V88.4h.33v.39Zm-.65,7v.39h-.33v-.39Zm-.33-7h-.33V88.4h.33v.39ZM14,96.16v-.39h.33v.39Zm2.29,2.23v.39H14v-.39ZM12.53,87.32v-.4H17v.4Zm.16,1.47V88.4H13v.39Zm.66,7.37H13v-.39h.33v.39Zm-.17,9.17H11.87v-.39h1.31v.39Zm-.49,5.9h-.33v-.39h.33v.39Zm-1-15.46H12v.39h-.33v-.39Zm-.33-7.37h.33v.39h-.33V88.4Zm-.33-4V84h.33v.4Zm.25,14.41H11v-.39h.33v.39Zm-.41,6.55h-.33v-.39h.33v.39ZM10,98.78H9.66v-.39H10v.39Zm-.9,6.55H8.76v-.39h.33v.39Zm-.5-6.94h.33v.39H8.59v-.39Zm-.08-2.62H10.8v.39H8.51v-.39ZM8.18,88.4h2.3v.39H8.18V88.4Zm-.24,16.93H7.61v-.39h.33v.39Zm-.82-18v-.4H11v.4ZM7,96.16H6.63v-.39H7v.39ZM6.3,88.4h.33v.39H6.3V88.4ZM6,86.92H6.3v.4H6v-.4Zm-.16,9.24H5.48v-.39h.33v.39ZM5.16,88.4h.32v.39H5.16V88.4ZM5,87.32H4.66v-.4H5v.4ZM7.61,84h.33v.4H7.61V84Zm1.31,0h.33v.4H8.92V84Zm1.31,0v.4H9.91V84Zm.57-7.2v.39h-.32v-.39ZM9.17,74.21v-.39h2.29v.39Zm-1.56,0H7.29v-.39h.32v.39Zm3.93,2.56h.33v.39h-.33v-.39Zm.57,21.62h.33v.39h-.33v-.39ZM12.36,84h.33v.4h-.33V84Zm0-10.15h.33v.39h-.33v-.39Zm0-5.24h.33V69h-.33v-.39Zm.49,8.19h.33v.39h-.33v-.39Zm.74,7.2h.33v.4h-.33V84Zm.08-10.15H14v.39h-.33v-.39Zm.66,3v.39H14v-.39Zm-.66-8.19H14V69h-.33v-.39Zm1,15.39h12.2v.4H14.66V84Zm0-10.15H15v.39h-.32v-.39Zm0-5.24H15V69h-.32v-.39Zm1.14,5.24h.33v.39H15.8v-.39Zm0-5.24h.33V69H15.8v-.39Zm1.31,5.24h.33v.39h-.33v-.39Zm1.07,3v.39h-2.3v-.39Zm-1.07-8.19h.33V69h-.33v-.39Zm1.23,5.24h.33v.39h-.33v-.39Zm0-5.24h.33V69h-.33v-.39Zm.74,8.19h.33v.39h-.33v-.39Zm1.64,0v.39h-.33v-.39Zm1,0v.39h-.33v-.39Zm1.15,0v.39h-.33v-.39Zm1.31,0v.39h-.33v-.39Zm1.22,0v.39h-.32v-.39Zm-6-3h7.45v.39H19.41v-.39Zm0-5.24h7.45V69H19.41v-.39Zm8.19,5.24h.32v.39H27.6v-.39Zm0-5.24h.32V69H27.6v-.39Zm1.14,5.24h.33v.39h-.33v-.39Zm0-5.24h.33V69h-.33v-.39Zm1.31,5.24h.33v.39h-.33v-.39Zm0-5.24h.33V69h-.33v-.39Zm1.15,5.24h.33v.39H31.2v-.39Zm0-5.24h.33V69H31.2v-.39ZM33,73.82h.33v.39H33v-.39Zm0-5.24h.33V69H33v-.39Zm.57,8.58H26.12v-.39h7.45v.39ZM34.31,84h1.31v.4H34.31V84Zm0-7.2h1.31v.39H34.31v-.39Zm0-3h1.31v.39H34.31v-.39Zm0-5.24h1.31V69H34.31v-.39Zm2,15.39h.33v.4h-.33V84Zm0-7.2h.74v.39h-.74v-.39Zm0-3h.33v.39h-.33v-.39Zm0-5.24h.33V69h-.33v-.39ZM37.67,84h2.87v.4H37.67V84Zm0-7.2h2.87v.39H37.67v-.39Zm0-3h2.87v.39H37.67v-.39Zm0-5.24h2.87V69H37.67v-.39Zm8,.39h-.33v-.39h.33V69Zm-4.43,4.85h.33v.39h-.33v-.39ZM41.6,69h-.33v-.39h.33V69Zm1.23,4.85v.39H42.5v-.39Zm0-4.85H42.5v-.39h.33V69Zm1.64,4.85v.39h-.33v-.39Zm0-4.85h-.33v-.39h.33V69Zm.9,4.85h.33v.39h-.33v-.39Zm.33,3.34h-.33v-.39h.33v.39ZM41.27,84h.33v.4h-.33V84Zm.33-6.81h-.33v-.39h.33v.39ZM42.83,84v.4H42.5V84Zm0-6.81H42.5v-.39h.33v.39ZM44.47,84v.4h-.33V84Zm0-6.81h-.33v-.39h.33v.39Zm.9,6.81h.33v.4h-.33V84Zm.16,3.35H45.2v-.4h.33v.4Zm-2.86,0h-.33v-.4h.33v.4Zm1.64,0H44v-.4h.33v.4Zm-3.2,0v-.4h.33v.4ZM33,84.37V84h.33v.4Zm-.65,2.95v-.4h8v.4ZM36,95.77v.39H35.7v-.39Zm-.33-7h-.32V88.4h.32v.39Zm-.73,7v.39H33.66v-.39Zm-.33-7H33.33V88.4h1.31v.39Zm-2,7v.39h-.33v-.39Zm-.33-7H32V88.4h.33v.39ZM31.2,84.37V84h.33v.4Zm.16,2.55v.4H31v-.4Zm-2.29-2.55h-.33V84h.33v.4Zm0,4.42V88.4h.33v.39Zm.33,7h.33v.39H29.4v-.39Zm.9-8.85v.4H29v-.4Zm.08-2.55h-.33V84h.33v.4Zm.49,11.4v.39h-.32v-.39Zm-.32-7h-.33V88.4h.33v.39Zm-2.63-4.42H27.6V84h.32v.4ZM28,87.32h-.33v-.4H28v.4Zm.41,8.45v.39h-.33v-.39Zm-.33-7h-.33V88.4h.33v.39Zm-.82,7v.39h-.33v-.39Zm-.33-7h-.33V88.4h.33v.39ZM23,105.33v-.39h.33v.39Zm-5.57,5.51h7.29v.39H17.44v-.39Zm.08-12.45v.39h-.33v-.39Zm.16-9.6h-.32V88.4h.32v.39ZM18,96.16h-.33v-.39H18v.39Zm.17,8.78v.39h-.33v-.39Zm.32-17.62h-.32v-.4h.32v.4Zm.33,11.07v.39H18.5v-.39Zm.66.39v-.39h.32v.39Zm.16,6.16H20v.39h-.33v-.39ZM21,98.39v.39h-.33v-.39Zm0,6.55h1.31v.39H21v-.39Zm4.92-17.62v-.4h.32v.4Zm.32,8.45v.39H18.75v-.39Zm-1.47-8.45v-.4h.33v.4Zm-1.31,0v-.4h.33v.4Zm-1.15,0v-.4h.33v.4Zm-3,0v-.4h2.3v.4Zm6.63,1.08v.39H18.42V88.4Zm11,10v.39H21.37v-.39ZM37,95.77h2.87v.39H37v-.39Zm1.73,3v-.39h.32v.39Zm-1.15,0v-.39h.33v.39ZM26.53,110.84v.39H26.2v-.39Zm2,0v.39h-.33v-.39Zm1.31,0v.39h-.33v-.39Zm1.8,0v.39h-.33v-.39Zm1.64,0v.39H33v-.39Zm1.47,0v.39h-.32v-.39Zm5.41-5.9v.39H25v-.39Zm.74,0h.32v.39H41v-.39Zm4.42.39H45v-.39h.33v.39Zm-1.56,0v-.39h.33v.39Zm-1.63,0v-.39h.32v.39Zm3.93,11.14h-.33v-.39h.33v.39Zm-1.64,0v-.39h.32v.39Zm-2,0v-.39h.33v.39Zm-7.94,3V119h.32v.39Zm-1.48,0V119h.33v.39Zm-1.64,0V119h.33v.39Zm-1.8,0V119h.33v.39Zm-1.31,0V119h.33v.39Zm-2.05,0V119h.33v.39ZM40.62,95.77H41v.39h-.33v-.39Zm1.23,0h.33v.39h-.33v-.39Zm1.64,0h.32v.39h-.32v-.39Zm1.22,0H45v.39h-.33v-.39Zm1.55,30.86H41.52v-.39h4.74v-6.82H36V119H46.26v-7.8H36v-.39H46.26V98.78H40.05v-.39h6.21V96.16h-.32v-.39h.32v-7H36.69V88.4h9.57V66.64H10.84c-.41.63-.8,1.28-1.18,1.94h1.8V69h-2A41.76,41.76,0,0,0,6,76.77H9.74v.39H5.9A41.67,41.67,0,0,0,4.42,84H6.71v.4H4.42V84a40.5,40.5,0,0,0-.36,4.43h.11v.39H4.05c0,.28,0,.56,0,.84a43,43,0,0,0,.45,6.14h0V96c.12.82.27,1.63.44,2.44H7.86v.39H5a41.78,41.78,0,0,0,4.71,12.06h1.63v.39H10a42.34,42.34,0,0,0,3.54,5v-.2h.33v.39h-.18c.73.89,1.5,1.74,2.3,2.56h8.77v.39h-8.4a42.53,42.53,0,0,0,8.89,6.82H30.3v.39H25.9a42.38,42.38,0,0,0,5.56,2.55h14.8v-2.55Z" transform="translate(-4.03 -41.21)"/></g><path class="cls-6" d="M46.26,129.58H32.58a42.12,42.12,0,0,0,13.68,2.28v-2.28Z" transform="translate(-4.03 -41.21)"/><path class="cls-6" d="M40.78,58.16h-.32v-.4h.32v.4Zm-.33,2.62h-.32v-.4h.32v.4Zm-.16,2.62H40V63h.33v.39Zm-1.14-5.24h-.33v-.4h.33v.4Zm-.33,5.24h-.33V63h.33v.39Zm-.41-2.62h-.33v-.4h.33v.4Zm-1.07-2.62H37v-.4h.32v.4Zm-.16,5.24h-.33V63h.33v.39Zm-.57-2.62H18.1v-.4H36.61v.4ZM35.38,63.4h-.33V63h.33v.39Zm-1.31,0h-.33V63h.33v.39Zm-2,0h-.33V63H32v.39Zm-3.11,0H17.77V63H28.91v.39ZM17.36,60.78H17v-.4h.33v.4ZM17,63.4H16.7V63H17v.39Zm2.79-5.64h.32v.4h-.32v-.4Zm1.47,0h.33v.4h-.33v-.4Zm1.48,0h.32v.4h-.32v-.4Zm1.06,0h.33v.4h-.33v-.4Zm1.06,0h7.29v.4H24.89v-.4Zm3.69-4.91h.33v.39h-.33v-.39Zm1.31,0h.33v.39h-.33v-.39Zm1.8,0H32v.39h-.33v-.39ZM34,57.76v.4h-.33v-.4Zm-.66-4.91h.33v.39h-.33v-.39Zm1.47,0h.33v.39H34.8v-.39Zm.91,4.91H36v.4h-.32v-.4Zm-19.42,3H16v-.4h.32v.4ZM16,63.4h-.33V63H16v.39Zm-1.48,0h-.32V63h.32v.39Zm26.95-3h.32v.4h-.32v-.4Zm.49-2.62h.33v.4h-.33v-.4Zm1.31,2.62h.33v.4h-.33v-.4Zm3,3H41.44V63h4.82V60.78H44.88v-.4h1.38V58.16H43.4v-.4h2.86V53.24h-10v-.39h10V47.4a42,42,0,0,0-20.74,5.45h1.91v.39h-2.6a43,43,0,0,0-6.27,4.52h.27v.4h-.72a42.41,42.41,0,0,0-7.27,8.48H46.26V63.4Z" transform="translate(-4.03 -41.21)"/></g></g></g></svg>