<svg xmlns="http://www.w3.org/2000/svg" width="568.932" height="114.371" viewBox="0 0 568.932 114.371">
  <g id="Group_26" data-name="Group 26" transform="translate(-51.063 -674.83)">
    <g id="Group_25" data-name="Group 25">
      <g id="Group_24" data-name="Group 24" transform="translate(0 3)">
        <g id="Group_18" data-name="Group 18" transform="translate(0 1.721)">
          <g id="Group_17" data-name="Group 17">
            <g id="Path_947" data-name="Path 947">
              <path id="Path_1010" data-name="Path 1010" d="M79.792,773.856a1.8,1.8,0,0,1,.648.122,1.7,1.7,0,0,1,.62.419l3.623,3.809a15.04,15.04,0,0,1-5.958,4.687,20.824,20.824,0,0,1-8.474,1.581,20.187,20.187,0,0,1-8.037-1.524,17.425,17.425,0,0,1-6.027-4.218,18.556,18.556,0,0,1-3.8-6.377,23.588,23.588,0,0,1-1.323-8.01,21.061,21.061,0,0,1,1.514-8.094,18.864,18.864,0,0,1,4.226-6.365,19.077,19.077,0,0,1,6.5-4.159,22.6,22.6,0,0,1,8.35-1.486,21.258,21.258,0,0,1,4.174.39,20.4,20.4,0,0,1,3.663,1.082,17.157,17.157,0,0,1,3.134,1.648,15.135,15.135,0,0,1,2.541,2.122l-3.082,4.136a4.03,4.03,0,0,1-.7.687,1.833,1.833,0,0,1-1.134.31,2.044,2.044,0,0,1-.921-.216,10.2,10.2,0,0,1-.918-.529l-1.067-.672a7.916,7.916,0,0,0-1.377-.675,11.211,11.211,0,0,0-1.866-.529,12.7,12.7,0,0,0-2.5-.216,11.427,11.427,0,0,0-4.541.878,9.9,9.9,0,0,0-3.526,2.514,11.667,11.667,0,0,0-2.3,3.958,15.543,15.543,0,0,0-.824,5.216,16.259,16.259,0,0,0,.824,5.377,11.888,11.888,0,0,0,2.243,3.96,9.585,9.585,0,0,0,3.313,2.444,9.9,9.9,0,0,0,4.052.836,19.332,19.332,0,0,0,2.27-.122,9.351,9.351,0,0,0,1.906-.419,8.665,8.665,0,0,0,1.675-.769,11.435,11.435,0,0,0,1.608-1.174,3.26,3.26,0,0,1,.7-.449A1.863,1.863,0,0,1,79.792,773.856Z" fill="#fff"/>
            </g>
            <g id="Path_948" data-name="Path 948">
              <path id="Path_1011" data-name="Path 1011" d="M100.462,769.479v14.563H91.328V744.67h12.809a26.24,26.24,0,0,1,7.283.881,13.705,13.705,0,0,1,4.918,2.444,9.223,9.223,0,0,1,2.769,3.7,12.251,12.251,0,0,1,.866,4.65,12.5,12.5,0,0,1-.514,3.62,10.969,10.969,0,0,1-1.526,3.146,11.858,11.858,0,0,1-2.489,2.581,13.157,13.157,0,0,1-3.39,1.864,8.768,8.768,0,0,1,1.717,1.136,6.739,6.739,0,0,1,1.39,1.648l8.377,13.7H115.27a3.511,3.511,0,0,1-3.3-1.73l-6.539-11.429a2.786,2.786,0,0,0-1.012-1.082,3.393,3.393,0,0,0-1.635-.323Zm0-6.3h3.675a9.433,9.433,0,0,0,3.176-.471,5.752,5.752,0,0,0,2.149-1.31,5.028,5.028,0,0,0,1.216-1.96,7.56,7.56,0,0,0,.377-2.419,5.067,5.067,0,0,0-1.69-4.052q-1.686-1.459-5.228-1.459h-3.675Z" fill="#fff"/>
            </g>
            <g id="Path_949" data-name="Path 949">
              <path id="Path_1012" data-name="Path 1012" d="M167.479,784.042H160.4a3.272,3.272,0,0,1-1.958-.553,2.862,2.862,0,0,1-1.067-1.419l-2.325-6.864h-14.97l-2.325,6.864a3.117,3.117,0,0,1-2.97,1.973h-7.135l15.241-39.372h9.35Zm-25.3-15.05h10.757l-3.623-10.782-.824-2.419q-.474-1.392-.93-3.012-.432,1.648-.893,3.052c-.305.938-.6,1.749-.864,2.432Z" fill="#fff"/>
            </g>
            <g id="Path_950" data-name="Path 950">
              <path id="Path_1013" data-name="Path 1013" d="M197.419,744.67V751.7H181.261v9.97h13.458v7.059H181.261v15.32h-9.189V744.67Z" fill="#fff"/>
            </g>
            <g id="Path_951" data-name="Path 951">
              <path id="Path_1014" data-name="Path 1014" d="M233.251,744.67v7.243h-11.08v32.129h-9.134V751.913H201.961V744.67Z" fill="#fff"/>
            </g>
            <g id="Path_952" data-name="Path 952">
              <path id="Path_1015" data-name="Path 1015" d="M258.529,768.179q.5,1.113.96,2.271.459-1.188.97-2.31t1.055-2.179l10.107-19.908a3.221,3.221,0,0,1,.553-.8,1.762,1.762,0,0,1,.638-.419,2.152,2.152,0,0,1,.794-.136h8.012v39.346h-8.052V761.4q0-1.65.161-3.568L263.3,778.07a3.46,3.46,0,0,1-1.31,1.434,3.655,3.655,0,0,1-1.878.486h-1.243a3.66,3.66,0,0,1-1.878-.486,3.467,3.467,0,0,1-1.31-1.434L245.2,757.8c.072.63.124,1.258.161,1.878s.055,1.194.055,1.717v22.645h-8.052V744.7h8.012a2.184,2.184,0,0,1,.8.136,1.777,1.777,0,0,1,.635.419,3.247,3.247,0,0,1,.553.8l10.134,19.99Q258.03,767.07,258.529,768.179Z" fill="#fff"/>
            </g>
            <g id="Path_953" data-name="Path 953">
              <path id="Path_1016" data-name="Path 1016" d="M325.072,784.042H317.99a3.272,3.272,0,0,1-1.958-.553,2.862,2.862,0,0,1-1.067-1.419l-2.323-6.864h-14.97l-2.325,6.864a3.124,3.124,0,0,1-2.973,1.973h-7.133l15.24-39.373h9.35Zm-25.291-15.049h10.754l-3.62-10.782q-.354-1.027-.824-2.419t-.933-3.012q-.432,1.648-.891,3.052t-.866,2.432Z" fill="#fff"/>
            </g>
            <g id="Path_954" data-name="Path 954">
              <path id="Path_1017" data-name="Path 1017" d="M338.8,769.479v14.563h-9.134V744.67H342.48a26.258,26.258,0,0,1,7.28.881,13.751,13.751,0,0,1,4.921,2.444,9.234,9.234,0,0,1,2.767,3.7,12.251,12.251,0,0,1,.866,4.65,12.5,12.5,0,0,1-.514,3.62,10.9,10.9,0,0,1-1.529,3.146,11.775,11.775,0,0,1-2.486,2.581,13.186,13.186,0,0,1-3.39,1.864,8.561,8.561,0,0,1,1.715,1.136,6.822,6.822,0,0,1,1.4,1.648l8.377,13.7h-8.271a3.5,3.5,0,0,1-3.3-1.73l-6.539-11.429a2.779,2.779,0,0,0-1.015-1.082,3.382,3.382,0,0,0-1.633-.323Zm0-6.3h3.677a9.4,9.4,0,0,0,3.171-.471,5.731,5.731,0,0,0,2.149-1.31,5.014,5.014,0,0,0,1.218-1.96,7.56,7.56,0,0,0,.377-2.419,5.073,5.073,0,0,0-1.687-4.052q-1.691-1.459-5.228-1.459H338.8Z" fill="#fff"/>
            </g>
            <g id="Path_955" data-name="Path 955">
              <path id="Path_1018" data-name="Path 1018" d="M376.147,760.615H377.6a3.322,3.322,0,0,0,2.921-1.271l8.864-12.861a3.759,3.759,0,0,1,1.66-1.434,6.069,6.069,0,0,1,2.283-.38h7.945L389.6,760.588a7.822,7.822,0,0,1-1.3,1.432,8.2,8.2,0,0,1-1.38.948,6.527,6.527,0,0,1,3.432,2.809l11.888,18.266H394.08a7.214,7.214,0,0,1-1.337-.107,3.448,3.448,0,0,1-.958-.323,2.805,2.805,0,0,1-.7-.529,5.341,5.341,0,0,1-.566-.715l-8.918-13.7a2.679,2.679,0,0,0-1.231-1.067,5.321,5.321,0,0,0-2.012-.31h-2.213v16.752h-9.134V744.67h9.134Z" fill="#fff"/>
            </g>
            <g id="Path_956" data-name="Path 956">
              <path id="Path_1019" data-name="Path 1019" d="M457.534,784.042h-9.189V767.4h-16v16.645h-9.189V744.67h9.189v16.456h16V744.67h9.189Z" fill="#fff"/>
            </g>
            <g id="Path_957" data-name="Path 957">
              <path id="Path_1020" data-name="Path 1020" d="M504.282,764.345a21.187,21.187,0,0,1-1.471,7.943,18.763,18.763,0,0,1-10.593,10.648,23.54,23.54,0,0,1-16.74,0,18.79,18.79,0,0,1-10.633-10.648,22.147,22.147,0,0,1,0-15.888,18.889,18.889,0,0,1,4.161-6.377,19.238,19.238,0,0,1,6.471-4.243,21.988,21.988,0,0,1,8.377-1.538,21.739,21.739,0,0,1,8.362,1.553,19.3,19.3,0,0,1,6.447,4.253,19.063,19.063,0,0,1,4.146,6.38A21.111,21.111,0,0,1,504.282,764.345Zm-9.347,0a17,17,0,0,0-.759-5.258,11.177,11.177,0,0,0-2.171-3.958,9.414,9.414,0,0,0-3.476-2.486,11.9,11.9,0,0,0-4.672-.864,12.081,12.081,0,0,0-4.715.864,9.327,9.327,0,0,0-3.486,2.486,11.117,11.117,0,0,0-2.176,3.958,18.725,18.725,0,0,0,0,10.539,11.072,11.072,0,0,0,2.176,3.96,9.208,9.208,0,0,0,3.486,2.474,12.34,12.34,0,0,0,4.715.849,12.141,12.141,0,0,0,4.672-.849,9.293,9.293,0,0,0,3.476-2.474,11.124,11.124,0,0,0,2.171-3.96,17.03,17.03,0,0,0,.758-5.281Z" fill="#fff"/>
            </g>
            <g id="Path_958" data-name="Path 958">
              <path id="Path_1021" data-name="Path 1021" d="M531.236,768.179q.5,1.113.96,2.271c.3-.792.63-1.561.973-2.31s.692-1.474,1.052-2.179l10.107-19.908a3.145,3.145,0,0,1,.556-.8,1.736,1.736,0,0,1,.633-.419,2.142,2.142,0,0,1,.8-.136h8.015v39.346h-8.055V761.4q0-1.65.164-3.568L536,778.07a3.417,3.417,0,0,1-1.313,1.434,3.631,3.631,0,0,1-1.876.486h-1.243a3.65,3.65,0,0,1-1.878-.486,3.487,3.487,0,0,1-1.313-1.434L517.9,757.8c.07.63.124,1.258.161,1.878s.052,1.194.052,1.717v22.645h-8.05V744.7h8.01a2.141,2.141,0,0,1,.8.136,1.789,1.789,0,0,1,.638.419,3.321,3.321,0,0,1,.553.8L530.2,766.044Q530.736,767.07,531.236,768.179Z" fill="#fff"/>
            </g>
            <g id="Path_959" data-name="Path 959">
              <path id="Path_1022" data-name="Path 1022" d="M587.567,744.67V751.7H571.4v9.189H583.78v6.754H571.4v9.377h16.164v7.025h-25.35V744.67Z" fill="#fff"/>
            </g>
            <g id="Path_960" data-name="Path 960">
              <path id="Path_1023" data-name="Path 1023" d="M617.18,752.67a3.4,3.4,0,0,1-.849.973,1.905,1.905,0,0,1-1.151.325,2.819,2.819,0,0,1-1.335-.392c-.479-.26-1.017-.553-1.623-.878a13.472,13.472,0,0,0-2.067-.878,8.258,8.258,0,0,0-2.648-.392,5.7,5.7,0,0,0-3.824,1.1,3.715,3.715,0,0,0-1.258,2.958,2.724,2.724,0,0,0,.757,1.97,6.477,6.477,0,0,0,1.988,1.352,21.273,21.273,0,0,0,2.809,1.04c1.057.318,2.131.667,3.231,1.055a29.69,29.69,0,0,1,3.228,1.365,10.7,10.7,0,0,1,2.809,2,9.316,9.316,0,0,1,1.99,2.958,10.536,10.536,0,0,1,.754,4.2,13.688,13.688,0,0,1-.945,5.107,12,12,0,0,1-2.742,4.149,12.752,12.752,0,0,1-4.434,2.782,16.6,16.6,0,0,1-5.983,1.012,19.348,19.348,0,0,1-3.742-.377,22.337,22.337,0,0,1-3.69-1.067,21.3,21.3,0,0,1-3.35-1.635,14.2,14.2,0,0,1-2.73-2.107l2.7-4.271a2.146,2.146,0,0,1,.836-.782,2.338,2.338,0,0,1,1.164-.3,3.086,3.086,0,0,1,1.633.514q.826.513,1.866,1.134a14.8,14.8,0,0,0,2.392,1.136,8.978,8.978,0,0,0,3.186.516,6.083,6.083,0,0,0,3.866-1.1,4.168,4.168,0,0,0,1.377-3.471,3.287,3.287,0,0,0-.757-2.243,5.812,5.812,0,0,0-1.985-1.432,18.289,18.289,0,0,0-2.8-1q-1.57-.435-3.216-.958a23.894,23.894,0,0,1-3.218-1.3,10.173,10.173,0,0,1-2.794-2.025,9.487,9.487,0,0,1-1.984-3.132,12.488,12.488,0,0,1-.757-4.638,10.968,10.968,0,0,1,.893-4.32,11.185,11.185,0,0,1,2.62-3.757,12.888,12.888,0,0,1,4.244-2.635,15.663,15.663,0,0,1,5.754-.985,21.278,21.278,0,0,1,3.529.283,18.241,18.241,0,0,1,3.253.836,17.751,17.751,0,0,1,2.881,1.325,13.267,13.267,0,0,1,2.39,1.742Z" fill="#fff"/>
            </g>
          </g>
        </g>
        <g id="The_Village_at_Cabin_Branch" data-name="The Village at Cabin Branch" style="isolation: isolate">
          <g id="Group_28" data-name="Group 28" style="isolation: isolate">
            <path id="Path_1024" data-name="Path 1024" d="M74.256,675.226h-7.98V697.24h-3.71V675.226H54.551V672.11h19.7Z" fill="#fff"/>
            <path id="Path_1025" data-name="Path 1025" d="M99.858,672.11v25.13H96.131V685.918H83.023V697.24H79.278V672.11h3.745v11.1H96.131v-11.1Z" fill="#fff"/>
            <path id="Path_1026" data-name="Path 1026" d="M123.062,694.213l-.017,3.027H107.471V672.11h15.574v3.028h-11.83V683.1h9.52v2.921h-9.52v8.191Z" fill="#fff"/>
            <path id="Path_1027" data-name="Path 1027" d="M158.745,672.11l-10.221,25.13h-3.341l-10.221-25.13h2.975a1.236,1.236,0,0,1,.8.245,1.545,1.545,0,0,1,.464.63l6.79,17.08q.246.63.481,1.382t.429,1.575c.118-.547.245-1.073.385-1.575s.291-.962.455-1.382l6.772-17.08a1.362,1.362,0,0,1,.447-.612,1.217,1.217,0,0,1,.8-.263Z" fill="#fff"/>
            <path id="Path_1028" data-name="Path 1028" d="M167.022,697.24h-3.745V672.11h3.745Z" fill="#fff"/>
            <path id="Path_1029" data-name="Path 1029" d="M189,694.107v3.133H174.617V672.11h3.728v22Z" fill="#fff"/>
            <path id="Path_1030" data-name="Path 1030" d="M208.427,694.107v3.133H194.042V672.11h3.728v22Z" fill="#fff"/>
            <path id="Path_1031" data-name="Path 1031" d="M234.187,697.24h-2.871a1.267,1.267,0,0,1-.8-.245,1.364,1.364,0,0,1-.455-.63l-2.223-5.827H216.757l-2.223,5.827a1.419,1.419,0,0,1-.455.6,1.232,1.232,0,0,1-.8.271H210.4l10.01-25.13h3.763Zm-7.368-9.362-3.727-9.748a21.533,21.533,0,0,1-.8-2.52q-.193.753-.394,1.4t-.394,1.155l-3.71,9.713Z" fill="#fff"/>
            <path id="Path_1032" data-name="Path 1032" d="M258.547,685.008v9.8a14.3,14.3,0,0,1-4.06,2.039,15.638,15.638,0,0,1-4.69.674,15.242,15.242,0,0,1-5.5-.946,12.12,12.12,0,0,1-4.191-2.642,11.586,11.586,0,0,1-2.668-4.06,13.974,13.974,0,0,1-.937-5.2,14.591,14.591,0,0,1,.9-5.224,11.44,11.44,0,0,1,2.581-4.059,11.664,11.664,0,0,1,4.069-2.625,14.6,14.6,0,0,1,5.364-.937,16.011,16.011,0,0,1,2.791.228,13.136,13.136,0,0,1,2.389.647,11.551,11.551,0,0,1,2.039,1.007,12.142,12.142,0,0,1,1.741,1.321l-1.067,1.68a1.071,1.071,0,0,1-.648.508,1.1,1.1,0,0,1-.875-.194c-.3-.174-.638-.379-1.007-.612a7.6,7.6,0,0,0-1.312-.647,11,11,0,0,0-1.776-.508,11.975,11.975,0,0,0-2.4-.21,9.847,9.847,0,0,0-3.727.674,7.821,7.821,0,0,0-2.835,1.934,8.62,8.62,0,0,0-1.8,3.036,11.851,11.851,0,0,0-.63,3.981,12.066,12.066,0,0,0,.664,4.139,8.69,8.69,0,0,0,1.882,3.1,7.961,7.961,0,0,0,2.957,1.935,10.85,10.85,0,0,0,3.894.664,11.8,11.8,0,0,0,1.566-.1,11.2,11.2,0,0,0,1.391-.271,9.6,9.6,0,0,0,1.287-.438q.621-.262,1.234-.577V687.86h-3.711a.785.785,0,0,1-.568-.21.7.7,0,0,1-.219-.525v-2.117Z" fill="#fff"/>
            <path id="Path_1033" data-name="Path 1033" d="M280.562,694.213l-.017,3.027H264.97V672.11h15.575v3.028h-11.83V683.1h9.519v2.921h-9.519v8.191Z" fill="#fff"/>
            <path id="Path_1034" data-name="Path 1034" d="M316.349,697.24h-2.87a1.268,1.268,0,0,1-.8-.245,1.371,1.371,0,0,1-.455-.63L310,690.538H298.919l-2.223,5.827a1.418,1.418,0,0,1-.455.6,1.229,1.229,0,0,1-.8.271h-2.871l10.01-25.13h3.763Zm-7.368-9.362-3.727-9.748a21.533,21.533,0,0,1-.8-2.52q-.193.753-.394,1.4t-.394,1.155l-3.71,9.713Z" fill="#fff"/>
            <path id="Path_1035" data-name="Path 1035" d="M335.547,675.226h-7.981V697.24h-3.71V675.226h-8.014V672.11h19.7Z" fill="#fff"/>
            <path id="Path_1036" data-name="Path 1036" d="M367.308,691.851a.713.713,0,0,1,.542.245l1.469,1.609a10.482,10.482,0,0,1-3.753,2.817,12.9,12.9,0,0,1-5.329,1,12.468,12.468,0,0,1-4.943-.946,10.885,10.885,0,0,1-3.78-2.642,11.877,11.877,0,0,1-2.424-4.06,15.129,15.129,0,0,1-.858-5.2,14.443,14.443,0,0,1,.9-5.2,11.912,11.912,0,0,1,2.528-4.06,11.4,11.4,0,0,1,3.894-2.643,12.918,12.918,0,0,1,5.013-.945,12.208,12.208,0,0,1,4.761.875,11.987,11.987,0,0,1,3.622,2.328l-1.224,1.733a1.045,1.045,0,0,1-.307.314.851.851,0,0,1-.482.123,1.378,1.378,0,0,1-.778-.333,11.183,11.183,0,0,0-1.173-.743,9.2,9.2,0,0,0-1.794-.744,9.048,9.048,0,0,0-2.659-.333,8.76,8.76,0,0,0-3.431.656,7.588,7.588,0,0,0-2.685,1.891,8.553,8.553,0,0,0-1.75,3.027,12.311,12.311,0,0,0-.622,4.051,11.931,11.931,0,0,0,.647,4.078,8.963,8.963,0,0,0,1.785,3.027,7.59,7.59,0,0,0,2.678,1.89,8.485,8.485,0,0,0,3.325.647,13.212,13.212,0,0,0,1.952-.13,8.409,8.409,0,0,0,1.592-.394,6.919,6.919,0,0,0,1.373-.674,9.091,9.091,0,0,0,1.278-.989,1.432,1.432,0,0,1,.3-.2A.737.737,0,0,1,367.308,691.851Z" fill="#fff"/>
            <path id="Path_1037" data-name="Path 1037" d="M395.2,697.24h-2.87a1.27,1.27,0,0,1-.8-.245,1.371,1.371,0,0,1-.455-.63l-2.222-5.827H377.772l-2.222,5.827a1.427,1.427,0,0,1-.455.6,1.234,1.234,0,0,1-.8.271h-2.87l10.01-25.13h3.762Zm-7.367-9.362-3.728-9.748a21.552,21.552,0,0,1-.8-2.52q-.193.753-.4,1.4t-.393,1.155l-3.71,9.713Z" fill="#fff"/>
            <path id="Path_1038" data-name="Path 1038" d="M407.924,672.11a15.756,15.756,0,0,1,4.052.455,7.642,7.642,0,0,1,2.773,1.313,5.212,5.212,0,0,1,1.6,2.073,7.025,7.025,0,0,1,.516,2.757,5.524,5.524,0,0,1-.28,1.75,5.1,5.1,0,0,1-.858,1.566,6.2,6.2,0,0,1-1.453,1.3,8.427,8.427,0,0,1-2.064.962q5.477,1.086,5.477,5.723a7.069,7.069,0,0,1-.6,2.931,6.411,6.411,0,0,1-1.733,2.284,8.008,8.008,0,0,1-2.8,1.487,12.551,12.551,0,0,1-3.781.525h-9.047V672.11Zm-4.462,2.923v8.225h4.287a6.3,6.3,0,0,0,4.087-1.112,4.247,4.247,0,0,0,.06-6.133,6.517,6.517,0,0,0-3.972-.98Zm5.25,19.25a7.769,7.769,0,0,0,2.424-.333,4.526,4.526,0,0,0,1.644-.91,3.457,3.457,0,0,0,.937-1.374,4.937,4.937,0,0,0,.3-1.741,3.629,3.629,0,0,0-1.3-2.948,6.192,6.192,0,0,0-4.007-1.077h-5.25v8.383Z" fill="#fff"/>
            <path id="Path_1039" data-name="Path 1039" d="M427.611,697.24h-3.745V672.11h3.745Z" fill="#fff"/>
            <path id="Path_1040" data-name="Path 1040" d="M455.786,672.11v25.13H453.9a1.5,1.5,0,0,1-.726-.157,2.147,2.147,0,0,1-.587-.508l-14.192-18.357c.023.315.044.624.061.928s.027.588.027.857V697.24h-3.273V672.11h1.925a1.824,1.824,0,0,1,.735.114,1.606,1.606,0,0,1,.542.516l14.228,18.375c-.035-.338-.062-.668-.078-.988s-.027-.622-.027-.9V672.11Z" fill="#fff"/>
            <path id="Path_1041" data-name="Path 1041" d="M481.825,672.11a15.756,15.756,0,0,1,4.052.455,7.634,7.634,0,0,1,2.773,1.313,5.212,5.212,0,0,1,1.6,2.073,7.007,7.007,0,0,1,.517,2.757,5.5,5.5,0,0,1-.281,1.75,5.073,5.073,0,0,1-.857,1.566,6.225,6.225,0,0,1-1.453,1.3,8.434,8.434,0,0,1-2.065.962q5.478,1.086,5.478,5.723a7.054,7.054,0,0,1-.6,2.931,6.408,6.408,0,0,1-1.732,2.284,8.022,8.022,0,0,1-2.8,1.487,12.544,12.544,0,0,1-3.78.525h-9.047V672.11Zm-4.462,2.923v8.225h4.287a6.3,6.3,0,0,0,4.087-1.112,4.248,4.248,0,0,0,.061-6.133,6.522,6.522,0,0,0-3.973-.98Zm5.25,19.25a7.765,7.765,0,0,0,2.424-.333,4.531,4.531,0,0,0,1.645-.91,3.465,3.465,0,0,0,.936-1.374,4.937,4.937,0,0,0,.3-1.741,3.629,3.629,0,0,0-1.3-2.948,6.19,6.19,0,0,0-4.007-1.077h-5.25v8.383Z" fill="#fff"/>
            <path id="Path_1042" data-name="Path 1042" d="M516.615,697.24H513.29a1.552,1.552,0,0,1-1.452-.787l-6.213-8.716a1.86,1.86,0,0,0-.647-.621,2.347,2.347,0,0,0-1.05-.183h-2.433V697.24h-3.727V672.11h7.245a15.47,15.47,0,0,1,4.191.5,8.129,8.129,0,0,1,2.9,1.417,5.654,5.654,0,0,1,1.7,2.214,7.866,7.866,0,0,1,.148,5.372,6.453,6.453,0,0,1-1.182,2.075,7.454,7.454,0,0,1-1.9,1.584,9.322,9.322,0,0,1-2.537,1.014,3.856,3.856,0,0,1,1.207,1.173ZM504.89,684.221a8.286,8.286,0,0,0,2.529-.351,5.122,5.122,0,0,0,1.828-.988,4.075,4.075,0,0,0,1.1-1.523,5.035,5.035,0,0,0,.368-1.951,3.881,3.881,0,0,0-1.427-3.273,6.933,6.933,0,0,0-4.278-1.1h-3.518v9.188Z" fill="#fff"/>
            <path id="Path_1043" data-name="Path 1043" d="M541.955,697.24h-2.87a1.27,1.27,0,0,1-.8-.245,1.371,1.371,0,0,1-.455-.63l-2.222-5.827H524.525l-2.222,5.827a1.427,1.427,0,0,1-.455.6,1.234,1.234,0,0,1-.8.271h-2.87l10.01-25.13h3.762Zm-7.367-9.362-3.728-9.748a21.547,21.547,0,0,1-.8-2.52q-.194.753-.4,1.4t-.393,1.155l-3.71,9.713Z" fill="#fff"/>
            <path id="Path_1044" data-name="Path 1044" d="M567.067,672.11v25.13h-1.89a1.506,1.506,0,0,1-.726-.157,2.147,2.147,0,0,1-.587-.508l-14.192-18.357c.023.315.044.624.061.928s.027.588.027.857V697.24h-3.273V672.11h1.925a1.824,1.824,0,0,1,.735.114,1.6,1.6,0,0,1,.542.516l14.228,18.375c-.035-.338-.062-.668-.078-.988s-.027-.622-.027-.9V672.11Z" fill="#fff"/>
            <path id="Path_1045" data-name="Path 1045" d="M592.231,691.851a.711.711,0,0,1,.542.245l1.47,1.609a10.482,10.482,0,0,1-3.753,2.817,12.9,12.9,0,0,1-5.329,1,12.465,12.465,0,0,1-4.943-.946,10.889,10.889,0,0,1-3.781-2.642,11.891,11.891,0,0,1-2.423-4.06,15.1,15.1,0,0,1-.858-5.2,14.443,14.443,0,0,1,.9-5.2,11.912,11.912,0,0,1,2.528-4.06,11.405,11.405,0,0,1,3.893-2.643,12.926,12.926,0,0,1,5.014-.945,12.208,12.208,0,0,1,4.761.875,11.986,11.986,0,0,1,3.622,2.328l-1.225,1.733a1.042,1.042,0,0,1-.306.314.851.851,0,0,1-.482.123,1.378,1.378,0,0,1-.778-.333,11.292,11.292,0,0,0-1.173-.743,9.2,9.2,0,0,0-1.794-.744,9.048,9.048,0,0,0-2.659-.333,8.757,8.757,0,0,0-3.431.656,7.587,7.587,0,0,0-2.685,1.891,8.553,8.553,0,0,0-1.75,3.027,12.31,12.31,0,0,0-.622,4.051,11.932,11.932,0,0,0,.647,4.078,8.963,8.963,0,0,0,1.785,3.027,7.59,7.59,0,0,0,2.678,1.89,8.482,8.482,0,0,0,3.325.647,13.187,13.187,0,0,0,1.951-.13,8.4,8.4,0,0,0,1.593-.394,6.918,6.918,0,0,0,1.373-.674,9.09,9.09,0,0,0,1.278-.989,1.425,1.425,0,0,1,.3-.2A.744.744,0,0,1,592.231,691.851Z" fill="#fff"/>
            <path id="Path_1046" data-name="Path 1046" d="M619.986,672.11v25.13h-3.727V685.918H603.151V697.24h-3.745V672.11h3.745v11.1h13.108v-11.1Z" fill="#fff"/>
          </g>
        </g>
        <g id="Line_1" data-name="Line 1">
          <rect id="Rectangle_12" data-name="Rectangle 12" width="568" height="3" transform="translate(51.567 720.24)" fill="#fff"/>
        </g>
      </g>
    </g>
  </g>
</svg>
