<svg xmlns="http://www.w3.org/2000/svg" width="411.252" height="156.903" viewBox="0 0 411.252 156.903">
  <g id="Group_6" data-name="Group 6" transform="translate(-65.61 -270.661)">
    <g id="Group_4" data-name="Group 4" transform="translate(65.61 270.661)">
      <g id="Group_3" data-name="Group 3">
        <g id="Group_1" data-name="Group 1">
          <path id="Path_1" data-name="Path 1" d="M119.143,359.655c0,19.305-11.775,27.656-24.234,27.656H90.254v-9.72h1.917c9.583,0,15.2-7.942,15.2-16.978V301.466H96.827c-11.638,0-20.537,9.174-20.537,19.305,0,7.53,4.381,14.649,13.829,17.936v9.036H86.284C74.1,343.91,65.61,333.5,65.61,320.772c0-14.376,12.323-29.026,33.544-29.026h8.214V290.1c0-9.857,6.3-19.442,21.359-19.442h2.191v9.721h-2.328c-5.75,0-9.448,4.244-9.448,10.268v1.1H136.4c19.442,0,29.163,13.554,29.163,26.7a25.362,25.362,0,0,1-18.347,24.507l14.923,34.914c6.435,14.924,8.352,16.567,18.621,16.567h1.232v9.721H180.07c-18.484,0-22.864-8.489-30.668-26.7l-14.1-32.861H119.143Zm18.21-58.189h-18.21v33.407h18.21c9.721,0,16.7-6.572,16.7-16.43S147.075,301.466,137.353,301.466Z" transform="translate(-65.61 -270.661)" fill="#fff"/>
          <path id="Path_2" data-name="Path 2" d="M291.54,409.946c-6.983,6.708-15.609,8.488-22.318,8.488-21.906,0-32.174-16.566-32.174-33.133,0-16.84,10.679-33.818,29.847-33.818,15.882,0,23.96,10.269,23.96,21.906a28.658,28.658,0,0,1-4.244,14.787H247.864c.822,15.882,13.144,21.495,22.317,21.495,5.613,0,11.365-2.19,16.978-6.3Zm-10.817-36.42c0-7.12-4.929-13.418-13.417-13.418-9.721,0-17.388,8.352-19.031,19.305h31.353A17.888,17.888,0,0,0,280.723,373.526Z" transform="translate(-131.626 -301.783)" fill="#fff"/>
          <path id="Path_3" data-name="Path 3" d="M375.861,404.412l-13.144,2.19c-9.858,0-18.62-3.148-18.62-17.525V349.509h-12.87v-8.763l12.87-1.1,2.054-18.894h8.626v19.989H373.4v8.763h-18.62v36.419c0,9.311,3.833,11.911,10.953,11.911l10.132-1.505Z" transform="translate(-167.891 -289.952)" fill="#fff"/>
          <path id="Path_4" data-name="Path 4" d="M452.952,361.2a31.931,31.931,0,0,0-4.928-.547c-3.423,0-6.435,1.642-9.036,4.381l-11.364,11.774v39.98H416.944V352.031l9.311-.548,1.369,14.65,8.078-8.489c3.287-3.559,7.257-6.161,11.912-6.161a23.778,23.778,0,0,1,5.339.684Z" transform="translate(-200.899 -301.783)" fill="#fff"/>
          <path id="Path_5" data-name="Path 5" d="M528.656,409.946c-6.983,6.708-15.608,8.488-22.318,8.488-21.906,0-32.174-16.566-32.174-33.133,0-16.84,10.68-33.818,29.847-33.818,15.882,0,23.96,10.269,23.96,21.906a28.657,28.657,0,0,1-4.244,14.787H484.98c.822,15.882,13.144,21.495,22.317,21.495,5.613,0,11.365-2.19,16.978-6.3Zm-10.817-36.42c0-7.12-4.929-13.418-13.417-13.418-9.721,0-17.388,8.352-19.031,19.305h31.353A17.874,17.874,0,0,0,517.839,373.526Z" transform="translate(-222.932 -301.783)" fill="#fff"/>
          <path id="Path_6" data-name="Path 6" d="M629.717,417.2l-7.393,1.232c-4.519,0-10.132-2.053-11.228-7.941l-.274-1.506h-.136c-6.3,6.435-13.281,9.447-19.716,9.447-10.816,0-18.62-6.434-18.62-17.388,0-13.417,13.555-22.453,37.514-23.139v-5.065c0-9.173-4.929-12.733-11.5-12.733-5.2,0-12.323,3.423-16.43,5.614l-3.7-7.668c7.12-3.97,14.924-6.572,21.906-6.572,10.953,0,20.4,6.3,20.4,21.633v23.824c0,9.858.274,13.281,4.655,13.281l4.519-.549Zm-19.853-31.9c-17.8.548-27.109,6.3-27.109,15.608,0,6.572,5.613,8.762,9.721,8.762,6.435,0,13.281-5.2,17.388-8.762Z" transform="translate(-260.741 -301.783)" fill="#fff"/>
          <path id="Path_7" data-name="Path 7" d="M706.266,404.412l-13.144,2.19c-9.858,0-18.62-3.148-18.62-17.525V349.509H661.631v-8.763l12.871-1.1,2.054-18.894h8.626v19.989H703.8v8.763h-18.62v36.419c0,9.311,3.833,11.911,10.953,11.911l10.132-1.505Z" transform="translate(-295.121 -289.952)" fill="#fff"/>
        </g>
        <g id="Group_2" data-name="Group 2" transform="translate(130.294 135.603)">
          <path id="Path_8" data-name="Path 8" d="M298.312,512.307h-4.6l-1.625-4.122h-8.363l-1.625,4.122h-4.6l8.123-20.638h4.573Zm-7.7-7.851-1.564-4.242-1.113-3.249h-.061l-1.112,3.249-1.565,4.242Z" transform="translate(-277.494 -491.368)" fill="#fff"/>
          <path id="Path_9" data-name="Path 9" d="M332.121,495.459h-5.837v16.847h-4.994V495.459h-5.836v-3.79h16.666Z" transform="translate(-292.112 -491.368)" fill="#fff"/>
          <path id="Path_10" data-name="Path 10" d="M401.442,491.669l-7.7,20.638h-3.46l-3.76-11.733-1.324-4.3h-.03l-1.323,4.3-3.792,11.733h-3.429l-7.7-20.638h5.145l3.309,10.891.933,3.429h.06l4.242-14.32h5.145L392,505.989h.06l.933-3.429,3.31-10.891Z" transform="translate(-312.7 -491.368)" fill="#fff"/>
          <path id="Path_11" data-name="Path 11" d="M447.043,512.307h-13.99V491.669H446.5v3.79h-8.455v4.693h6.89v3.79h-6.89v4.574h9Z" transform="translate(-337.395 -491.368)" fill="#fff"/>
          <path id="Path_12" data-name="Path 12" d="M474.915,512.479a15.037,15.037,0,0,1-7.521-1.865v-4.122c3.731,1.745,5.415,2.2,7.281,2.2,1.655,0,2.888-.571,2.888-1.986,0-1.474-2.347-2.377-3.461-3.068-2.8-1.474-6.287-3.249-6.287-6.919,0-2.647,2.588-5.536,7.07-5.536a12.567,12.567,0,0,1,6.047,1.5v4c-3.279-1.535-4.814-1.715-5.866-1.715-1.716,0-2.257.752-2.257,1.745,0,1.745,3.821,3.159,5.626,4.092,2.106,1.082,4.333,2.5,4.333,5.685C482.768,510.645,478.766,512.479,474.915,512.479Z" transform="translate(-350.619 -491.18)" fill="#fff"/>
          <path id="Path_13" data-name="Path 13" d="M519.33,495.459h-5.836v16.847H508.5V495.459h-5.836v-3.79H519.33Z" transform="translate(-364.201 -491.368)" fill="#fff"/>
          <path id="Path_14" data-name="Path 14" d="M554.952,495.459H546.5v4.994h6.89v3.79H546.5v8.062H541.5V491.669h13.448Z" transform="translate(-379.157 -491.368)" fill="#fff"/>
          <path id="Path_15" data-name="Path 15" d="M580.4,512.307H575.4V491.669H580.4Z" transform="translate(-392.211 -491.368)" fill="#fff"/>
          <path id="Path_16" data-name="Path 16" d="M611.5,512.307h-13.99V491.669h13.448v3.79h-8.454v4.693h6.89v3.79h-6.89v4.574h9Z" transform="translate(-400.725 -491.368)" fill="#fff"/>
          <path id="Path_17" data-name="Path 17" d="M646.684,512.307h-13.9V491.669h4.994v16.848h8.905Z" transform="translate(-414.306 -491.368)" fill="#fff"/>
          <path id="Path_18" data-name="Path 18" d="M676.136,512.307H666.93V491.669h9.025c6.679,0,10.2,5.174,10.2,10.379C686.154,507.193,682.785,512.307,676.136,512.307ZM674.9,495.459h-2.979v13.057h2.918c4.874,0,6.348-3.279,6.348-6.529C681.19,498.768,679.716,495.459,674.9,495.459Z" transform="translate(-427.455 -491.368)" fill="#fff"/>
          <path id="Path_19" data-name="Path 19" d="M716.912,512.479a15.037,15.037,0,0,1-7.521-1.865v-4.122c3.731,1.745,5.415,2.2,7.281,2.2,1.654,0,2.888-.571,2.888-1.986,0-1.474-2.347-2.377-3.46-3.068-2.8-1.474-6.288-3.249-6.288-6.919,0-2.647,2.588-5.536,7.069-5.536a12.567,12.567,0,0,1,6.048,1.5v4c-3.28-1.535-4.814-1.715-5.867-1.715-1.715,0-2.256.752-2.256,1.745,0,1.745,3.82,3.159,5.626,4.092,2.106,1.082,4.332,2.5,4.332,5.685C724.764,510.645,720.763,512.479,716.912,512.479Z" transform="translate(-443.805 -491.18)" fill="#fff"/>
        </g>
      </g>
    </g>
    <g id="Group_5" data-name="Group 5" transform="translate(169.199 270.703)">
      <path id="Path_20" data-name="Path 20" d="M255.847,278.01h-9.068v26.059h-3.644V278.01h-9.067V275h21.78Z" transform="translate(-234.067 -272.374)" fill="#fff"/>
      <path id="Path_21" data-name="Path 21" d="M290.768,302.424h-3.305V289.458c0-3.22-.848-4.407-3.009-4.407-1.525,0-2.881,1.186-3.856,2.076l-3.262,2.882v12.415H274.03V270.9l3.305-.17V286.7l2.67-2.331a7.97,7.97,0,0,1,5.211-2.161,5.312,5.312,0,0,1,5.552,5.593Z" transform="translate(-249.456 -270.729)" fill="#fff"/>
      <path id="Path_22" data-name="Path 22" d="M323.968,307.5a9.822,9.822,0,0,1-6.906,2.627c-6.78,0-9.958-5.127-9.958-10.254,0-5.212,3.305-10.466,9.237-10.466,4.915,0,7.415,3.178,7.415,6.78a8.869,8.869,0,0,1-1.313,4.576H310.452a6.688,6.688,0,0,0,6.907,6.652,8.979,8.979,0,0,0,5.254-1.949Zm-3.347-11.271a4,4,0,0,0-4.153-4.153c-3.008,0-5.381,2.585-5.89,5.975h9.7A5.549,5.549,0,0,0,320.621,296.225Z" transform="translate(-262.191 -277.92)" fill="#fff"/>
    </g>
  </g>
</svg>
