<svg id="_360_View" data-name="360 View" xmlns="http://www.w3.org/2000/svg" width="29.773" height="29.773" viewBox="0 0 29.773 29.773">
  <circle id="Ellipse_52" data-name="Ellipse 52" cx="14.886" cy="14.886" r="14.886" fill="#195eb2"/>
  <g id="Group_723" data-name="Group 723" transform="translate(-30.833 -22.273)">
    <path id="Path_2462" data-name="Path 2462" d="M50.258,31.727l-4.566-3.034-4.563,3.032,0,.641v5.187l4.56,2.723,4.56-2.723V32.366Zm-4.566-1.582,2.883,1.842-2.883,1.722-2.883-1.722Zm-3.375,2.928L45.1,34.735v3.807L42.317,36.88Zm6.75,3.807-2.782,1.662V34.735l2.782-1.662Z" fill="#fff"/>
    <g id="Group_722" data-name="Group 722">
      <path id="Path_2463" data-name="Path 2463" d="M44.443,43.268c-3.939-.3-7.058-1.986-7.058-3.881a3.059,3.059,0,0,1,1.756-2.374L38.521,36A4.161,4.161,0,0,0,36.2,39.387c0,2.608,3.518,4.74,8.256,5.069l.014,1.172,3.049-1.807-3.09-1.737Z" fill="#ffde28"/>
      <path id="Path_2464" data-name="Path 2464" d="M51.627,35.348l-.457,1.094c1.806.755,2.885,1.856,2.885,2.945,0,1.531-2.043,2.982-5.082,3.611l.241,1.161c3.66-.759,6.025-2.631,6.025-4.772C55.239,37.781,53.923,36.309,51.627,35.348Z" fill="#fff"/>
    </g>
  </g>
</svg>
