<?xml version="1.0" encoding="utf-8"?>
<!-- Generator: Adobe Illustrator 24.1.0, SVG Export Plug-In . SVG Version: 6.00 Build 0)  -->
<svg version="1.1" id="Layer_1" xmlns="http://www.w3.org/2000/svg" xmlns:xlink="http://www.w3.org/1999/xlink" x="0px" y="0px"
	 viewBox="0 0 66.4 54.8" style="enable-background:new 0 0 66.4 54.8;" xml:space="preserve">
<style type="text/css">
	.st0{fill:#FFFFFF;}
</style>
<g id="Layer_2_1_">
	<g id="Layer_1-2">
		<path class="st0" d="M13.6,35.2v-1.8h2.7v1.9c-0.1,1,0.2,1.9,0.7,2.7c0.5,0.7,1.4,1,2.2,1c2,0,3-1.3,3-3.9v-2c0.1-1-0.2-2-0.8-2.8
			c-0.6-0.7-1.5-1-2.4-1h-1.5v-2.6h1.7c0.9,0,1.7-0.4,2.2-1c0.6-0.7,0.9-1.6,0.8-2.5v-1.1c0-2.7-1-4-3-4c-0.9-0.1-1.7,0.3-2.2,1
			c-0.5,0.8-0.8,1.8-0.7,2.8v1.3h-2.7V22c-0.1-1.7,0.4-3.4,1.4-4.7c1.1-1.2,2.7-1.8,4.3-1.7c1.6-0.1,3.2,0.5,4.3,1.7
			c1,1.3,1.6,3,1.4,4.7v0.6c0,1.2-0.2,2.3-0.8,3.4c-0.5,0.9-1.3,1.6-2.3,1.9c2.1,0.8,3.1,2.5,3.1,5.3v2c0.1,1.7-0.4,3.4-1.5,4.7
			c-1.1,1.2-2.7,1.8-4.3,1.7c-1.6,0.1-3.2-0.5-4.3-1.7C14.1,38.6,13.5,36.9,13.6,35.2z"/>
		<path class="st0" d="M27.7,35.2v-13c-0.1-1.7,0.4-3.5,1.5-4.9c1.1-1.2,2.8-1.8,4.4-1.7c1.6-0.1,3.3,0.5,4.4,1.7
			c1,1.4,1.5,3,1.4,4.7v0.5h-2.7v-0.7c0-2.4-1-3.7-3-3.7c-0.9-0.1-1.8,0.3-2.4,1c-0.6,0.9-0.8,2-0.8,3.1V28c0.6-1.7,2.3-2.9,4.1-2.7
			c1.4-0.1,2.7,0.5,3.6,1.6c0.9,1.3,1.3,2.9,1.2,4.5v3.9c0.1,1.7-0.4,3.4-1.5,4.7c-1.1,1.2-2.7,1.8-4.4,1.7
			c-1.6,0.1-3.3-0.5-4.4-1.7C28.2,38.6,27.6,36.9,27.7,35.2z M30.6,35.4c-0.1,1,0.2,1.9,0.7,2.7c0.6,0.7,1.4,1.1,2.3,1
			c0.9,0.1,1.7-0.3,2.3-1c0.5-0.8,0.8-1.8,0.8-2.7v-3.8c0.1-1-0.2-1.9-0.8-2.7c-0.6-0.7-1.4-1.1-2.3-1c-0.9-0.1-1.7,0.3-2.3,1
			c-0.5,0.8-0.8,1.8-0.7,2.7V35.4z"/>
		<path class="st0" d="M41.9,35.2V22c-0.1-1.7,0.4-3.4,1.5-4.7c1.1-1.2,2.7-1.8,4.3-1.7c1.7-0.1,3.3,0.5,4.4,1.7
			c1.1,1.3,1.6,3,1.5,4.7v13.2c0.1,1.7-0.4,3.4-1.5,4.7c-1.1,1.2-2.7,1.8-4.4,1.7c-1.6,0.1-3.2-0.5-4.3-1.7
			C42.3,38.6,41.8,36.9,41.9,35.2z M44.7,35.4c-0.1,1,0.2,1.9,0.8,2.7c1.2,1.3,3.3,1.3,4.5,0c0,0,0,0,0,0c0.5-0.8,0.8-1.8,0.8-2.7
			V21.9c0-2.5-1-3.7-3-3.7c-0.9,0-1.7,0.3-2.3,1c-0.6,0.8-0.8,1.8-0.8,2.8L44.7,35.4z"/>
		<path class="st0" d="M55.1,17.1c-1.5,0-2.7-1.2-2.7-2.8c0-1.5,1.2-2.7,2.8-2.7c1.5,0,2.7,1.2,2.7,2.8c0,0,0,0,0,0
			C57.8,15.9,56.6,17.1,55.1,17.1z M55.1,13.1c-0.7,0-1.3,0.6-1.3,1.3s0.6,1.3,1.3,1.3c0.7,0,1.3-0.6,1.3-1.3c0,0,0,0,0,0
			C56.3,13.7,55.8,13.1,55.1,13.1z"/>
		<path class="st0" d="M23.9,44.5l8.6,5.7l-9.2,4.6l0.1-2.2c-2.3-0.4-4.6-0.8-6.9-1.4c-2.8-0.7-5.5-1.6-8.2-2.7
			c-1.4-0.6-2.7-1.3-3.9-2.1c-1.4-0.9-2.6-2.1-3.5-3.5C0.3,42,0,41,0,40c0-1,0.3-2,0.8-2.9c0.9-1.4,2.1-2.6,3.6-3.4
			c2.7-1.4,5.4-2.5,8.3-3.3v3.3c-2.2,0.8-4.4,1.8-6.4,2.9c-0.9,0.6-1.7,1.4-2.2,2.3c-0.3,0.6-0.3,1.4,0.2,2c0.6,0.8,1.5,1.5,2.4,2
			c1.1,0.6,2.2,1.1,3.4,1.5c4.5,1.4,9.1,2.2,13.8,2.4L23.9,44.5z"/>
		<path class="st0" d="M66,41.8c-0.7,1.5-1.8,2.8-3.2,3.8c-1.2,0.8-2.5,1.5-3.8,2.1c-2.6,1.1-5.3,1.9-8.1,2.5
			c-5.4,1.2-11,1.7-16.5,1.8v-3.4c2.7,0,5.3-0.2,8-0.4c2.7-0.2,5.3-0.6,7.9-1.2c2.6-0.5,5.1-1.3,7.5-2.2c1.1-0.5,2.2-1.1,3.2-1.8
			c0.9-0.6,1.6-1.4,2.1-2.3c0.3-0.8,0.2-1.7-0.4-2.4c-0.7-0.9-1.6-1.7-2.6-2.2c-1-0.6-3.3-2-4.4-2.4v-2.8c2,0.8,4,1.7,5.8,2.8
			c1.4,0.7,2.6,1.7,3.6,2.9c0.6,0.7,1,1.5,1.2,2.4C66.5,39.8,66.4,40.8,66,41.8z"/>
		<path class="st0" d="M42.5,10.2L34,4.6L43.1,0L43,2.2c2.3,0.3,4.6,0.8,6.9,1.4c2.8,0.7,5.5,1.6,8.2,2.7c1.4,0.6,2.7,1.3,3.9,2.1
			c1.4,0.9,2.6,2.1,3.5,3.5c0.5,0.9,0.8,1.9,0.8,2.9c0,1-0.3,2-0.8,2.9C64.7,19,63.4,20.2,62,21c-2.1,1.3-4.3,2.5-6.6,3.4v-3.2
			c1.7-0.8,3.2-1.8,4.7-2.9c0.9-0.6,1.7-1.4,2.2-2.3c0.4-0.6,0.3-1.4-0.2-2c-0.6-0.8-1.5-1.5-2.4-2c-1.1-0.6-2.2-1.1-3.4-1.5
			C51.9,9,47.3,8.2,42.6,8L42.5,10.2z"/>
		<path class="st0" d="M0.4,13.1c0.7-1.5,1.8-2.8,3.2-3.8C4.7,8.5,6,7.8,7.4,7.2c2.6-1.1,5.3-1.9,8.1-2.5c5.4-1.2,11-1.7,16.5-1.7
			v3.4c-2.7,0-5.4,0.2-8,0.4c-2.7,0.2-5.3,0.6-7.9,1.2c-2.6,0.5-5.1,1.2-7.5,2.2c-1.2,0.5-2.3,1-3.3,1.8c-0.9,0.6-1.6,1.4-2.1,2.3
			C2.8,15,3,15.9,3.6,16.5c0.7,0.9,1.6,1.7,2.6,2.3c1,0.6,4.6,2,5.7,2.4V24c-2.4-0.8-4.8-1.7-7.1-2.8c-1.4-0.7-2.6-1.7-3.6-2.9
			c-0.5-0.7-0.9-1.5-1.1-2.4C-0.1,14.9,0,14,0.4,13.1z"/>
	</g>
</g>
</svg>
