<svg id="Layer_1" data-name="Layer 1" xmlns="http://www.w3.org/2000/svg" viewBox="0 0 129.36 151.45"><defs><style>.cls-1{fill:#fcde18;}.cls-2{fill:#fdde20;}</style></defs><path class="cls-1" d="M5.85,92.72A17.49,17.49,0,0,1,18.11,62.77a17.37,17.37,0,0,1,12.36,5.12L47,84.46V18.26a17.64,17.64,0,0,1,35.28,0v66.2L98.88,67.89A17.48,17.48,0,1,1,123.5,92.72L64.68,150.57Z"/><path class="cls-2" d="M64.68,1.26a17,17,0,0,1,17,17V86l2.14-2.15,15.5-15.49a16.85,16.85,0,1,1,23.73,23.93L64.68,149.68,6.29,92.27A16.85,16.85,0,1,1,30,68.34l15.5,15.49L47.67,86V18.26a17,17,0,0,1,17-17m0-1.26A18.27,18.27,0,0,0,46.41,18.26V82.94L30.92,67.45A18.11,18.11,0,1,0,5.41,93.17l59.27,58.28L124,93.17A18.11,18.11,0,1,0,98.44,67.45L82.94,82.94V18.26A18.26,18.26,0,0,0,64.68,0Z"/></svg>