<svg xmlns="http://www.w3.org/2000/svg" width="29.224" height="28.516" viewBox="0 0 29.224 28.516">
  <path id="Path_1004" data-name="Path 1004" d="M1605.714,594.982a1.453,1.453,0,0,0-1.452-1.452h-.888v-.707a1.4,1.4,0,0,0-1.393-1.393h-5.393a1.516,1.516,0,0,0-1.515,1.515v.585h-14.679V583.7a2.683,2.683,0,0,1,2.68-2.68h.235a2.684,2.684,0,0,1,2.663,2.381,2.825,2.825,0,0,0-2.207,2.753v.963h5.641v-.963a2.824,2.824,0,0,0-2.7-2.818,3.42,3.42,0,0,0-3.4-3.051h-.235a3.419,3.419,0,0,0-3.415,3.415v9.831h-1.719a1.451,1.451,0,0,0-.367,2.855v3.685a6.686,6.686,0,0,0,6.6,6.678v.66a1.393,1.393,0,0,0,2.786,0v-.658h8.78v.658a1.393,1.393,0,0,0,2.786,0v-.687a6.688,6.688,0,0,0,6.075-6.651v-3.677A1.453,1.453,0,0,0,1605.714,594.982Zm-17.043-8.829v.228H1584.5v-.228a2.085,2.085,0,1,1,4.171,0Zm13.968,6.671v.707h-1.316v-.707a.658.658,0,1,1,1.316,0Zm-6.831.121a.78.78,0,0,1,.78-.78h4.165a1.384,1.384,0,0,0-.166.658v6.04h-3.114a.368.368,0,1,0,0,.735h3.07a.78.78,0,0,1-.736.525h-3.22a.78.78,0,0,1-.78-.779Zm-18.585,2.037a.717.717,0,0,1,.717-.717h17.133V595.7h-17.133A.718.718,0,0,1,1577.224,594.982Zm9,12.425a.658.658,0,1,1-1.316,0v-.658h1.316Zm11.566,0a.658.658,0,1,1-1.316,0v-.658h1.316Zm.131-1.393h-13.668a5.951,5.951,0,0,1-5.944-5.945v-3.636h16.765v2.911a1.516,1.516,0,0,0,1.113,1.459v.47a.368.368,0,0,0,.735,0v-.414h.395v.414a.367.367,0,1,0,.735,0v-.414h.4v.414a.368.368,0,0,0,.735,0v-.414h.394v.414a.367.367,0,1,0,.735,0v-.5a1.516,1.516,0,0,0,1.01-1.426v-2.911h2.542v3.636A5.951,5.951,0,0,1,1597.92,606.014Zm6.341-10.315h-2.939v-1.434h2.939a.717.717,0,0,1,0,1.434Z" transform="translate(-1576.489 -580.285)" fill="#1a1818"/>
</svg>
