<svg xmlns="http://www.w3.org/2000/svg" width="32.413" height="27.557" viewBox="0 0 32.413 27.557">
  <g id="Group_187" data-name="Group 187" transform="translate(0)">
    <path id="Path_998" data-name="Path 998" d="M1616.5,161.186h-.309v-6.121a1.747,1.747,0,0,0-1.733-1.757h-24.275a1.746,1.746,0,0,0-1.732,1.757v6.121h-.443a1.963,1.963,0,0,0-1.961,1.961V171.1h32.413v-7.956A1.963,1.963,0,0,0,1616.5,161.186Zm-27.212-6.121a.909.909,0,0,1,.9-.92h24.275a.909.909,0,0,1,.9.92v6.121h-2.276v-1.311a2.1,2.1,0,0,0-2.093-2.094h-5.017a2.1,2.1,0,0,0-2.094,2.094v1.311h-3.215v-1.311a2.1,2.1,0,0,0-2.094-2.094h-5.017a2.1,2.1,0,0,0-2.094,2.094v1.311h-2.167Zm22.953,6.121h-7.53v-1.311a1.258,1.258,0,0,1,1.257-1.256h5.017a1.258,1.258,0,0,1,1.256,1.256Zm-12.419,0h-7.53v-1.311a1.258,1.258,0,0,1,1.257-1.256h5.017a1.258,1.258,0,0,1,1.256,1.256Zm-11.813.837H1616.5a1.125,1.125,0,0,1,1.123,1.123v1.377h-30.739v-1.377A1.125,1.125,0,0,1,1588.006,162.024Zm-1.123,8.242v-4.9h30.739v4.9Z" transform="translate(-1586.045 -143.546)" fill="#fff"/>
    <path id="Path_999" data-name="Path 999" d="M1684.138,112.857h2.8a.419.419,0,0,0,0-.837h-1.793l2.089-2.089a.419.419,0,0,0-.3-.715h-2.67a.419.419,0,0,0,0,.837h1.66l-2.089,2.089a.419.419,0,0,0,.3.715Z" transform="translate(-1672.037 -104.727)" fill="#fff"/>
    <path id="Path_1000" data-name="Path 1000" d="M1735.506,76.989h4.471a.419.419,0,0,0,0-.837h-3.46l3.756-3.756a.419.419,0,0,0-.3-.715h-4.258a.419.419,0,0,0,0,.837h3.247l-3.756,3.756a.419.419,0,0,0,.3.715Z" transform="translate(-1717.261 -71.681)" fill="#fff"/>
  </g>
</svg>
