<svg id="Layer_1" data-name="Layer 1" xmlns="http://www.w3.org/2000/svg" viewBox="0 0 60 60"><defs><style>.cls-1{fill:#005eb7;}.cls-2{fill:#ffde00;}.cls-3{fill:#231f20;}</style></defs><rect class="cls-1" x="0.39" y="0.39" width="59.22" height="59.22" rx="29.61"/><rect class="cls-2" x="14.2" y="17.79" width="31.59" height="24.41" rx="3.12"/><path class="cls-3" d="M42.68,43.21H17.32a4.13,4.13,0,0,1-4.12-4.12V20.91a4.13,4.13,0,0,1,4.12-4.12H42.68a4.13,4.13,0,0,1,4.12,4.12V39.09A4.13,4.13,0,0,1,42.68,43.21ZM17.32,18.79a2.12,2.12,0,0,0-2.12,2.12V39.09a2.12,2.12,0,0,0,2.12,2.12H42.68a2.12,2.12,0,0,0,2.12-2.12V20.91a2.12,2.12,0,0,0-2.12-2.12Z"/><line class="cls-2" x1="24.79" y1="28.82" x2="19.59" y2="35.31"/><path class="cls-3" d="M19.59,36.31a1,1,0,0,1-.63-.22,1,1,0,0,1-.15-1.4l5.2-6.5A1,1,0,0,1,25.42,28a1,1,0,0,1,.15,1.4l-5.2,6.5A1,1,0,0,1,19.59,36.31Z"/><line class="cls-2" x1="35.21" y1="28.82" x2="40.41" y2="35.31"/><path class="cls-3" d="M40.41,36.31a1,1,0,0,1-.78-.37l-5.2-6.5a1,1,0,0,1,.15-1.4,1,1,0,0,1,1.41.15l5.2,6.5a1,1,0,0,1-.15,1.4A1,1,0,0,1,40.41,36.31Z"/><path class="cls-3" d="M30,33.94a1,1,0,0,1-.62-.21L19,25.47a1,1,0,0,1-.17-1.4,1,1,0,0,1,1.41-.17L30,31.67l9.79-7.77A1,1,0,0,1,41,25.47L30.62,33.73A1,1,0,0,1,30,33.94Z"/></svg>