<svg id="Group_188" data-name="Group 188" xmlns="http://www.w3.org/2000/svg" width="32.108" height="14.403" viewBox="0 0 32.108 14.403">
  <path id="Path_1001" data-name="Path 1001" d="M1640.607,448.146a2.5,2.5,0,1,0,2.5,2.5A2.5,2.5,0,0,0,1640.607,448.146Zm0,4.179a1.683,1.683,0,1,1,1.683-1.683A1.685,1.685,0,0,1,1640.607,452.325Z" transform="translate(-1633.721 -438.735)" fill="#fff"/>
  <path id="Path_1002" data-name="Path 1002" d="M1796.851,448.146a2.5,2.5,0,1,0,2.5,2.5A2.5,2.5,0,0,0,1796.851,448.146Zm0,4.179a1.683,1.683,0,1,1,1.683-1.683A1.685,1.685,0,0,1,1796.851,452.325Z" transform="translate(-1771.827 -438.735)" fill="#fff"/>
  <path id="Path_1003" data-name="Path 1003" d="M1632.059,376.727l-.32-.262a.128.128,0,0,1-.047-.1V373.6a.946.946,0,0,0-.611-.882l-2.714-1.018a5.923,5.923,0,0,0-1.667-2.261,8.026,8.026,0,0,0-1.684-1.115.442.442,0,0,0-.047-.023,14.171,14.171,0,0,0-6.124-1.23c-7.14,0-9.461,3.527-9.978,4.536h-2.592a7.534,7.534,0,0,0-5.095,2.366.626.626,0,0,0-.171.431v2.078h-.083a.631.631,0,0,0-.63.63v1.642a.631.631,0,0,0,.63.63h1.914a.406.406,0,0,0,.406-.406,3.935,3.935,0,1,1,7.87,0,.406.406,0,0,0,.406.406h9.456a.406.406,0,0,0,.406-.406,3.935,3.935,0,0,1,7.87,0,.406.406,0,0,0,.406.406.333.333,0,0,1,.134,0h1.667a.943.943,0,0,0,.942-.942v-.993A.939.939,0,0,0,1632.059,376.727Zm-4.63-5.115h-2.2v-2.236a6.923,6.923,0,0,1,.895.642A5.532,5.532,0,0,1,1627.429,371.613Zm-3.015-2.669v2.669h-6.008v-3.718c.144,0,.29-.005.438-.005A13.323,13.323,0,0,1,1624.414,368.943Zm-13.121,1.091a11.23,11.23,0,0,1,6.3-2.1v3.682h-7.782A6.634,6.634,0,0,1,1611.294,370.035Zm20.3,8.414a.129.129,0,0,1-.129.129h-1.413a4.747,4.747,0,0,0-9.459,0h-8.678a4.747,4.747,0,0,0-9.459,0h-1.344V377.3h.083a.631.631,0,0,0,.63-.63v-2.187a6.656,6.656,0,0,1,4.453-2.058h21.7l2.823,1.059a.129.129,0,0,1,.084.121v2.761a.938.938,0,0,0,.345.729l.32.262a.128.128,0,0,1,.047.1Z" transform="translate(-1600.296 -367.077)" fill="#fff"/>
</svg>
