<svg xmlns="http://www.w3.org/2000/svg" width="20" height="19" viewBox="0 0 21.133 19.372">
  <path id="heart" d="M17.782,29.946a1.434,1.434,0,0,1-.512-.094c-.227-.084-2.278-.922-5.107-4.084-1.492-1.668-4.89-5.957-4.228-9.78a4.9,4.9,0,0,1,2.607-3.543c3.179-1.726,5.8.673,7.241,2.385,1.429-1.711,4.057-4.1,7.241-2.385a4.9,4.9,0,0,1,2.607,3.543c.661,3.823-2.737,8.112-4.228,9.78-2.829,3.162-4.88,4-5.107,4.084A1.434,1.434,0,0,1,17.782,29.946Z" transform="translate(-7.216 -11.199)" fill="none" stroke="#195eb2" stroke-width="1.25"/>
</svg>
