<svg xmlns="http://www.w3.org/2000/svg" width="20.429" height="18.731" viewBox="0 0 20.429 18.731" id="heartSVG">
  <path id="heart" d="M17.43,29.3a1.383,1.383,0,0,1-.494-.091c-.219-.081-2.2-.889-4.926-3.939-1.439-1.609-4.717-5.746-4.079-9.433a4.728,4.728,0,0,1,2.514-3.418c3.066-1.665,5.6.65,6.984,2.3,1.378-1.651,3.913-3.958,6.984-2.3a4.728,4.728,0,0,1,2.514,3.418c.638,3.688-2.64,7.825-4.079,9.433-2.728,3.05-4.707,3.858-4.926,3.939A1.383,1.383,0,0,1,17.43,29.3Z" transform="translate(-7.216 -11.199)" fill="none" stroke="#fff" stroke-width="1.25"/>
</svg>
