<svg xmlns="http://www.w3.org/2000/svg" width="23.435" height="22.804" viewBox="0 0 23.435 22.804">
  <path id="Home" d="M22.154,15.487a1.07,1.07,0,0,0-.088-1.531L12.039,5.183a1.25,1.25,0,0,0-1.63.019L.349,14.424A1.064,1.064,0,0,0,.3,15.953l.252.263a1.1,1.1,0,0,0,1.51.116l.752-.673v9.858A1.094,1.094,0,0,0,3.909,26.61H7.83a1.094,1.094,0,0,0,1.094-1.094v-6.9h5v6.9a1.034,1.034,0,0,0,1.028,1.094h4.156a1.094,1.094,0,0,0,1.094-1.094V15.8l.464.407c.256.225.793.045,1.2-.4Z" transform="translate(0.5 -4.306)" fill="none" stroke="#000" stroke-width="1"/>
</svg>
