<svg xmlns="http://www.w3.org/2000/svg" width="22.941" height="22.644" viewBox="0 0 22.941 22.644">
  <g id="Group_26" data-name="Group 26" transform="translate(-723.558 -887.957)">
    <path id="Path_285" data-name="Path 285" d="M847.167,1008.468a5.723,5.723,0,0,1-3.134.931" transform="translate(-108.938 -108.971)" fill="none" stroke="#262626" stroke-linecap="round" stroke-linejoin="round" stroke-width="1"/>
    <path id="Path_286" data-name="Path 286" d="M782.36,898.855a6.035,6.035,0,0,1-1.9-4.413,5.85,5.85,0,1,1,11.7,0,6.075,6.075,0,0,1-.63,2.705" transform="translate(-51.216 0)" fill="none" stroke="#262626" stroke-linecap="round" stroke-linejoin="round" stroke-width="1"/>
    <path id="Path_287" data-name="Path 287" d="M888.829,1022.481l-2.257,1.448,1.418,2.312,2.257-1.448-1.418-2.312Z" transform="translate(-147.564 -121.695)" fill="none" stroke="#262626" stroke-linecap="round" stroke-linejoin="round" stroke-width="1"/>
    <path id="Path_288" data-name="Path 288" d="M846.451,987.363l2.547,3.9,6.443-4.406-2.317-3.544c1.3-.83,1.253-1.636.231-1.8l-6.925-1.074-.016.062-.062-.009-1.744,6.939c-.2,1.285,1.217.169,1.843-.068Z" transform="translate(-109.443 -83.52)" fill="none" stroke="#262626" stroke-linecap="round" stroke-linejoin="round" stroke-width="1"/>
    <path id="Path_289" data-name="Path 289" d="M726.685,970.623c.963-1.813,3.443-2.336,5.539-1.169s3.015,3.582,2.052,5.395a3.706,3.706,0,0,1-4.138,1.695c-1.044,1.965-2.078,3.892-3.136,5.851l-2.273.688-.672-2.327,1.158-.35.027-.051-.336-1.162,1.116-.306.024-.044-.329-1.139,1.113-.337,1.039-1.956a3.98,3.98,0,0,1-1.185-4.786Z" transform="translate(0 -72.981)" fill="none" stroke="#262626" stroke-linecap="round" stroke-linejoin="round" stroke-width="1"/>
    <path id="Path_290" data-name="Path 290" d="M796.144,992.937a.451.451,0,0,1,.619-.187.473.473,0,0,1,.183.633.451.451,0,0,1-.619.187.473.473,0,0,1-.183-.633Z" transform="translate(-65.405 -94.647)" fill="none" stroke="#262626" stroke-linecap="round" stroke-linejoin="round" stroke-width="1"/>
    <path id="Path_291" data-name="Path 291" d="M874.33,1003.345a.451.451,0,0,1,.619-.187.473.473,0,0,1,.183.634.451.451,0,0,1-.619.187.472.472,0,0,1-.183-.633Z" transform="translate(-136.397 -104.097)" fill="none" stroke="#262626" stroke-linecap="round" stroke-linejoin="round" stroke-width="1"/>
  </g>
</svg>
