<svg id="Layer_1" data-name="Layer 1" xmlns="http://www.w3.org/2000/svg" viewBox="0 0 140.79 179.18"><defs><style>.cls-1{fill:#235fad;}</style></defs><title>Share_blue</title><path class="cls-1" d="M120.57,49.14H93.93v10h26.64a10.23,10.23,0,0,1,10.22,10.22V159a10.23,10.23,0,0,1-10.22,10.22H20.21A10.22,10.22,0,0,1,10,159V69.36A10.22,10.22,0,0,1,20.21,59.14H46.86v-10H20.21A20.24,20.24,0,0,0,0,69.36V159a20.24,20.24,0,0,0,20.21,20.22H120.57A20.24,20.24,0,0,0,140.79,159V69.36A20.24,20.24,0,0,0,120.57,49.14Z"/><path class="cls-1" d="M43.51,38.91,65.39,17v95.38a5,5,0,0,0,10,0V17.12L97.23,39a5,5,0,0,0,7.07-7.07L73.88,1.46a5,5,0,0,0-7.07,0L36.44,31.84a5,5,0,1,0,7.07,7.07Z"/></svg>