<svg xmlns="http://www.w3.org/2000/svg" width="28.033" height="28.033" viewBox="0 0 28.033 28.033">
  <path id="Path_997" data-name="Path 997" d="M1626.921-417.882l-2.705-11.306a.42.42,0,0,0-.111-.2l-3.328-3.328a.42.42,0,0,0-.2-.111l-11.306-2.706a.42.42,0,0,0-.41.128l-1.056,1.183a.419.419,0,0,0,.016.575l6.646,6.646L1599.18-411.71a.949.949,0,0,0-.28.676.949.949,0,0,0,.28.676l2.568,2.568a.949.949,0,0,0,.676.28.949.949,0,0,0,.676-.28l15.29-15.29,6.773,6.773a.419.419,0,0,0,.3.123h.012a.419.419,0,0,0,.3-.14l1.056-1.183A.418.418,0,0,0,1626.921-417.882Zm-3.782-11.131-4.75,4.75L1615.653-427l4.75-4.75Zm-14.444-4.945.626-.7,10.335,2.473-4.595,4.595Zm6.775,12.614-1.6-1.6a.418.418,0,0,0-.592,0,.418.418,0,0,0,0,.592l1.6,1.6-2.015,2.015-1.6-1.6a.418.418,0,0,0-.592,0,.419.419,0,0,0,0,.592l1.6,1.6-1.992,1.992-1.6-1.6a.418.418,0,0,0-.592,0,.418.418,0,0,0,0,.592l1.6,1.6-1.9,1.9-1.6-1.6a.418.418,0,0,0-.592,0,.419.419,0,0,0,0,.592l1.6,1.6-1.992,1.992-1.6-1.6a.419.419,0,0,0-.592,0,.419.419,0,0,0,0,.592l1.6,1.6-2.1,2.1a.119.119,0,0,1-.168,0l-2.568-2.568a.119.119,0,0,1,0-.168l15.289-15.289,2.736,2.736Zm9.971,4.133-6.46-6.46,4.594-4.595,2.481,10.366Z" transform="translate(-1598.9 435.542)" fill="#1a1818"/>
</svg>
