<?xml version="1.0" encoding="utf-8"?>
<!-- Generator: Adobe Illustrator 25.4.1, SVG Export Plug-In . SVG Version: 6.00 Build 0)  -->
<svg version="1.1" id="Layer_1" xmlns="http://www.w3.org/2000/svg" xmlns:xlink="http://www.w3.org/1999/xlink" x="0px" y="0px"
	 viewBox="0 0 388.5 215.9" style="enable-background:new 0 0 388.5 215.9;" xml:space="preserve">
<style type="text/css">
	.st0{clip-path:url(#SVGID_00000067238621900439880590000013171570508269653401_);}
	.st1{fill:#1D2944;}
</style>
<g>
	<defs>
		<rect id="SVGID_1_" x="1.5" y="0.5" width="385.5" height="215.2"/>
	</defs>
	<clipPath id="SVGID_00000008856067650556343070000017045371365147718031_">
		<use xlink:href="#SVGID_1_"  style="overflow:visible;"/>
	</clipPath>
	<g style="clip-path:url(#SVGID_00000008856067650556343070000017045371365147718031_);">
		<polygon class="st1" points="1.5,171.3 386.7,171.3 386.7,173.4 1.5,173.4 1.5,171.3 		"/>
	</g>
</g>
<path class="st1" d="M56.3,143.2c0.1,0,0.1-0.1,0.1-0.2l-2.5-7.1c-0.1-0.4-0.3-0.4-0.4,0l-2.3,7.2c-0.1,0.1,0,0.2,0.1,0.2
	L56.3,143.2z M53.5,132.6c0.3-0.9,0.4-1,0.6-1s0.3,0.1,0.6,1c0.4,1,4.6,11.9,6.2,16c1,2.4,1.7,2.8,2.3,2.9c0.3,0.1,0.7,0.2,1.1,0.2
	c0.2,0,0.3,0,0.3,0.2s-0.2,0.2-0.5,0.2s-2.3,0-4.2-0.1c-0.5,0-0.8,0-0.8-0.2s0.1-0.2,0.2-0.2s0.3-0.3,0.2-0.7l-2.5-6.5
	c0-0.1-0.1-0.2-0.2-0.2h-5.7c-0.1,0-0.2,0.1-0.3,0.2l-1.6,4.5c-0.2,0.6-0.3,1.2-0.4,1.8c0,0.5,0.5,0.8,1,0.8H50
	c0.2,0,0.3,0.1,0.3,0.2s-0.2,0.2-0.4,0.2c-0.6,0-1.8-0.1-2.1-0.1s-1.8,0.1-3,0.1c-0.3,0-0.5-0.1-0.5-0.2s0.1-0.2,0.2-0.2
	s0.5,0,0.8,0c1.2-0.2,1.8-1.2,2.2-2.5L53.5,132.6L53.5,132.6z"/>
<path class="st1" d="M74,144.3c0,2.6,0,4.6,0.1,5.8c0.1,0.8,0.2,1.4,1,1.5c0.4,0.1,1,0.1,1.2,0.1s0.2,0.1,0.2,0.2s-0.1,0.2-0.4,0.2
	c-1.4,0-3.1-0.1-3.2-0.1s-1.8,0.1-2.6,0.1c-0.3,0-0.4-0.1-0.4-0.2s0-0.2,0.2-0.2c0.3,0,0.5,0,0.8-0.1c0.5-0.1,0.7-0.7,0.8-1.5
	c0.1-1.1,0.1-3.2,0.1-5.8v-11.2l-3.9,0.1c-1.7,0-2.3,0.2-2.7,0.8c-0.2,0.3-0.3,0.5-0.4,0.8c-0.1,0.2-0.2,0.3-0.3,0.3
	s-0.1-0.1-0.1-0.2s0.5-2.5,0.6-2.8s0.2-0.5,0.3-0.5c0.4,0.2,0.8,0.3,1.2,0.3c0.8,0.1,1.8,0.1,2.1,0.1h9.9c0.6,0,1.3,0,1.9-0.1
	c0.4-0.1,0.6-0.1,0.7-0.1s0.1,0.2,0.1,0.3c0,0.8-0.1,2.6-0.1,2.9s-0.1,0.3-0.2,0.3s-0.2-0.1-0.2-0.4v-0.3c-0.1-0.8-0.7-1.4-3.3-1.4
	l-3.3-0.1V144.3z"/>
<path class="st1" d="M99.4,149.4c-2.2-2-3.3-4.9-3.2-7.8c0-2.7,1.1-5.3,3-7.2c1.6-1.6,4-2.8,8.1-2.8c1.3,0,2.6,0.1,3.8,0.3
	c0.9,0.2,1.8,0.3,2.7,0.4c0.3,0,0.3,0.1,0.3,0.3s-0.1,0.5-0.1,1.5s0,2.3-0.1,2.7s-0.1,0.6-0.2,0.6s-0.2-0.2-0.2-0.6
	c0-1-0.4-2-1.1-2.7c-1.6-1.1-3.4-1.6-5.3-1.5c-3.5,0-5.2,1-6.1,1.9c-1.9,1.9-2.4,4.2-2.4,6.9c-0.1,5.3,4.1,9.6,9.4,9.7
	c0,0,0.1,0,0.1,0c2,0,3.6-0.2,4.6-1.3c0.5-0.6,0.9-1.4,1-2.2c0-0.3,0.1-0.4,0.3-0.4s0.2,0.2,0.2,0.4c-0.1,1.1-0.3,2.3-0.6,3.4
	c-0.2,0.5-0.2,0.6-0.7,0.8c-1.5,0.5-3.2,0.7-4.8,0.6C104.2,152.3,101.6,151.3,99.4,149.4L99.4,149.4z"/>
<path class="st1" d="M129.1,143.2c0.1,0,0.1-0.1,0.1-0.2l-2.5-7.1c-0.1-0.4-0.3-0.4-0.4,0L124,143c0,0.1,0,0.2,0.1,0.2L129.1,143.2z
	 M126.4,132.6c0.3-0.9,0.4-1,0.6-1s0.3,0.1,0.6,1c0.4,1,4.6,11.9,6.2,16c1,2.4,1.7,2.8,2.3,2.9c0.3,0.1,0.7,0.2,1.1,0.2
	c0.2,0,0.3,0,0.3,0.2s-0.2,0.2-0.5,0.2s-2.3,0-4.2-0.1c-0.5,0-0.8,0-0.8-0.2s0.1-0.2,0.2-0.2s0.3-0.3,0.2-0.7l-2.5-6.5
	c0-0.1-0.1-0.2-0.2-0.2h-5.7c-0.1,0-0.2,0.1-0.3,0.2l-1.6,4.5c-0.2,0.6-0.3,1.2-0.4,1.8c0,0.5,0.6,0.8,1,0.8h0.3
	c0.2,0,0.3,0.1,0.3,0.2s-0.2,0.2-0.4,0.2c-0.6,0-1.8-0.1-2.1-0.1s-1.8,0.1-3,0.1c-0.3,0-0.5-0.1-0.5-0.2s0.1-0.2,0.2-0.2
	s0.6,0,0.8,0c1.2-0.2,1.8-1.2,2.2-2.5L126.4,132.6L126.4,132.6z"/>
<path class="st1" d="M145.2,143c0,2,0,5.3,0,5.7c0.1,1.3,0.1,1.7,0.9,2.1c0.7,0.3,1.5,0.4,2.3,0.4c1.9,0.1,3.6-1.4,3.7-3.3
	c0-0.2,0-0.3,0-0.5c0.1-2.1-0.9-4.1-2.6-5.3c-0.7-0.5-1.4-0.7-2.2-0.8c-0.3,0-1.7,0-2.1,0c-0.1,0-0.2,0-0.2,0.2L145.2,143L145.2,143
	z M145.2,140.2c0,0.1,0.1,0.3,0.2,0.3c0.5,0.1,1.1,0.1,1.6,0.1c1.5,0,1.9-0.1,2.4-0.7c0.6-0.7,1-1.7,0.9-2.7c0-2.2-1-4.6-3.6-4.6
	c-0.4,0-0.9,0-1.3,0.1c-0.2,0-0.3,0.1-0.3,0.3L145.2,140.2L145.2,140.2z M143.1,139.6c0-4.1,0-4.9,0-5.7s-0.3-1.3-1.1-1.5
	c-0.3,0-0.6-0.1-0.9-0.1c-0.1,0-0.2-0.1-0.2-0.2s0.1-0.2,0.4-0.2c1.2,0,2.9,0.1,3,0.1c0.6,0,1.7-0.1,2.9-0.1c4.3,0,5.3,2.6,5.3,4
	c0,2.2-1.2,3.5-2.5,4.8c2,0.6,4.6,2.5,4.6,5.6c0,2.8-2.2,5.8-6.8,5.8c-0.3,0-1.1-0.1-1.9-0.1s-1.5-0.1-1.6-0.1s-0.5,0-1.1,0
	s-1.1,0.1-1.5,0.1s-0.4-0.1-0.4-0.2s0.1-0.2,0.2-0.2c0.3,0,0.5,0,0.8-0.1c0.5-0.1,0.7-0.7,0.8-1.5c0.1-1.1,0.1-3.2,0.1-5.8
	L143.1,139.6L143.1,139.6z"/>
<path class="st1" d="M165.1,144.3c0,2.6,0,4.6,0.1,5.8c0.1,0.8,0.2,1.4,1,1.5c0.4,0.1,1,0.1,1.2,0.1s0.2,0.1,0.2,0.2
	s-0.1,0.2-0.4,0.2c-1.4,0-3.1-0.1-3.2-0.1s-1.8,0.1-2.6,0.1c-0.3,0-0.4-0.1-0.4-0.2s0.1-0.2,0.2-0.2c0.3,0,0.5,0,0.8-0.1
	c0.5-0.1,0.7-0.7,0.8-1.5c0.1-1.1,0.1-3.2,0.1-5.8v-4.7c0-4.1,0-4.9-0.1-5.7s-0.3-1.4-0.9-1.5c-0.3-0.1-0.5-0.1-0.8-0.1
	c-0.1,0-0.2-0.1-0.2-0.2s0.1-0.2,0.4-0.2c0.9,0,2.5,0.1,2.7,0.1s1.8-0.1,2.6-0.1c0.3,0,0.4,0,0.4,0.2s-0.1,0.2-0.2,0.2
	c-0.2,0-0.4,0-0.7,0.1c-0.7,0.1-0.9,0.6-1,1.5s-0.1,1.6-0.1,5.7L165.1,144.3L165.1,144.3z"/>
<path class="st1" d="M177.2,148.3c0.1,2.2,0.3,2.9,1,3.1c0.4,0.1,0.9,0.2,1.3,0.2c0.1,0,0.2,0.1,0.2,0.2s-0.2,0.2-0.5,0.2
	c-1.5,0-2.6-0.1-2.8-0.1s-1.4,0.1-2.5,0.1c-0.3,0-0.4,0-0.4-0.2s0.1-0.2,0.2-0.2c0.4,0,0.7-0.1,1.1-0.2c0.7-0.2,0.8-0.9,0.8-3.4
	v-15.2c0-1,0.1-1.3,0.3-1.3s0.7,0.6,0.9,0.9c0.4,0.4,4.3,4.7,8.4,9.1c2.6,2.8,5.5,6,6.4,6.9l-0.3-13.4c0-1.7-0.2-2.3-1-2.5
	c-0.4-0.1-0.9-0.1-1.3-0.1c-0.2,0-0.2-0.1-0.2-0.2s0.2-0.2,0.5-0.2c1.2,0,2.5,0.1,2.8,0.1s1.2-0.1,2.2-0.1c0.3,0,0.5,0,0.5,0.2
	s-0.1,0.2-0.3,0.2c-0.2,0-0.4,0-0.6,0.1c-0.9,0.2-1,0.8-1,2.4v15.5c0,1.7-0.1,1.9-0.2,1.9s-0.5-0.3-1.9-1.7
	c-0.3-0.3-4.1-4.1-6.9-7.2c-3.1-3.3-6.1-6.6-6.9-7.6L177.2,148.3L177.2,148.3z"/>
<path class="st1" d="M216.2,143c0,2,0,5.3,0,5.7c0.1,1.3,0.1,1.7,0.9,2.1c0.7,0.3,1.5,0.4,2.3,0.4c1.9,0.1,3.6-1.4,3.7-3.3
	c0-0.1,0-0.3,0-0.4c0.1-2.1-0.9-4.1-2.6-5.3c-0.7-0.5-1.4-0.7-2.2-0.8c-0.3,0-1.7,0-2.1,0c-0.1,0-0.2,0-0.2,0.2L216.2,143L216.2,143
	z M216.2,140.2c0,0.1,0.1,0.3,0.2,0.3c0.5,0.1,1.1,0.1,1.6,0.1c1.5,0,1.9-0.1,2.4-0.7c0.6-0.7,1-1.7,1-2.7c0-2.2-1-4.6-3.6-4.6
	c-0.4,0-0.9,0-1.3,0.1c-0.2,0-0.3,0.1-0.3,0.3L216.2,140.2L216.2,140.2z M214.1,139.6c0-4.1,0-4.9-0.1-5.7s-0.3-1.3-1.1-1.5
	c-0.3,0-0.6-0.1-0.9-0.1c-0.1,0-0.2-0.1-0.2-0.2s0.1-0.2,0.4-0.2c1.2,0,2.9,0.1,3,0.1c0.6,0,1.7-0.1,2.9-0.1c4.3,0,5.3,2.6,5.3,4
	c0,2.2-1.2,3.5-2.5,4.8c2,0.6,4.6,2.5,4.6,5.6c0,2.8-2.2,5.8-6.8,5.8c-0.3,0-1.1-0.1-1.9-0.1s-1.5-0.1-1.6-0.1s-0.5,0-1.1,0
	s-1.1,0.1-1.5,0.1s-0.4-0.1-0.4-0.2s0.1-0.2,0.2-0.2c0.3,0,0.5,0,0.8-0.1c0.5-0.1,0.7-0.7,0.8-1.5c0.1-1.1,0.1-3.2,0.1-5.8
	L214.1,139.6L214.1,139.6z"/>
<path class="st1" d="M236,141.9c0,0.1,0.1,0.2,0.2,0.3c0.9,0.3,1.8,0.5,2.8,0.4c0.7,0,1.4-0.1,2-0.5c0.9-0.6,1.6-2.1,1.6-4.1
	c0-3.3-1.8-5.3-4.6-5.3c-0.6,0-1.2,0-1.8,0.2c-0.1,0-0.2,0.2-0.2,0.3L236,141.9L236,141.9z M233.9,139.6c0-4.1,0-4.9-0.1-5.7
	s-0.3-1.3-1.1-1.5c-0.3,0-0.6-0.1-0.9-0.1c-0.1,0-0.2-0.1-0.2-0.2s0.1-0.2,0.4-0.2c1.2,0,2.9,0.1,3,0.1c0.3,0,2.3-0.1,3.1-0.1
	c1.7-0.1,3.4,0.3,4.9,1.2c1.1,0.9,1.8,2.2,1.8,3.6c0,2-0.8,3.9-3.2,6.1c2.2,2.8,4,5.1,5.5,6.8c0.8,1,2,1.7,3.2,1.9
	c0.3,0.1,0.7,0.1,1,0.1c0.1,0,0.2,0.1,0.2,0.2s-0.2,0.2-0.6,0.2H249c-1,0.1-1.9-0.1-2.8-0.5c-1.1-0.6-2.1-1.9-3.6-3.9
	c-1.1-1.5-2.4-3.2-2.9-3.9c-0.1-0.1-0.2-0.2-0.3-0.2l-3.3-0.1c-0.1,0-0.2,0.1-0.2,0.2v0.6c0,2.6,0,4.6,0.1,5.8
	c0.1,0.8,0.2,1.4,1,1.5c0.4,0.1,0.9,0.1,1.2,0.1s0.2,0.1,0.2,0.2s-0.1,0.2-0.4,0.2c-1.5,0-3.1-0.1-3.3-0.1s-1.7,0.1-2.5,0.1
	c-0.3,0-0.4-0.1-0.4-0.2s0-0.2,0.2-0.2c0.3,0,0.5,0,0.8-0.1c0.5-0.1,0.7-0.7,0.8-1.5c0.1-1.1,0.1-3.2,0.1-5.8L233.9,139.6
	L233.9,139.6z"/>
<path class="st1" d="M262.5,143.2c0.1,0,0.1-0.1,0.1-0.2l-2.5-7.1c-0.1-0.4-0.3-0.4-0.4,0l-2.3,7.2c-0.1,0.1,0,0.2,0.1,0.2
	L262.5,143.2z M259.8,132.6c0.3-0.9,0.4-1,0.6-1s0.3,0.1,0.6,1c0.4,1,4.6,11.9,6.2,16c1,2.4,1.7,2.8,2.3,2.9
	c0.3,0.1,0.7,0.2,1.1,0.2c0.2,0,0.3,0,0.3,0.2s-0.2,0.2-0.5,0.2s-2.3,0-4.1-0.1c-0.5,0-0.8,0-0.8-0.2s0.1-0.2,0.2-0.2
	s0.3-0.3,0.2-0.7l-2.5-6.5c0-0.1-0.1-0.2-0.2-0.2h-5.7c-0.1,0-0.2,0.1-0.3,0.2l-1.6,4.5c-0.2,0.6-0.3,1.2-0.4,1.8
	c0,0.5,0.6,0.8,1,0.8h0.3c0.2,0,0.3,0.1,0.3,0.2s-0.2,0.2-0.4,0.2c-0.6,0-1.8-0.1-2.1-0.1s-1.7,0.1-3,0.1c-0.3,0-0.5-0.1-0.5-0.2
	s0.1-0.2,0.2-0.2s0.6,0,0.8,0c1.2-0.2,1.8-1.2,2.2-2.5L259.8,132.6L259.8,132.6z"/>
<path class="st1" d="M277.2,148.3c0,2.2,0.3,2.9,1,3.1c0.4,0.1,0.9,0.2,1.3,0.2c0.1,0,0.2,0.1,0.2,0.2s-0.2,0.2-0.5,0.2
	c-1.5,0-2.6-0.1-2.8-0.1s-1.4,0.1-2.5,0.1c-0.3,0-0.4,0-0.4-0.2s0.1-0.2,0.2-0.2c0.4,0,0.7-0.1,1.1-0.2c0.7-0.2,0.8-0.9,0.8-3.4
	v-15.2c0-1,0.1-1.3,0.3-1.3s0.7,0.6,0.9,0.9c0.4,0.4,4.4,4.7,8.4,9.1c2.6,2.8,5.5,6,6.4,6.9l-0.3-13.4c0-1.7-0.2-2.3-1-2.5
	c-0.4-0.1-0.9-0.1-1.3-0.1c-0.2,0-0.2-0.1-0.2-0.2s0.2-0.2,0.5-0.2c1.2,0,2.5,0.1,2.8,0.1s1.2-0.1,2.2-0.1c0.3,0,0.5,0,0.5,0.2
	s-0.1,0.2-0.3,0.2c-0.2,0-0.4,0-0.6,0.1c-0.9,0.2-1,0.8-1,2.4l-0.1,15.5c0,1.7,0,1.9-0.2,1.9s-0.5-0.3-1.9-1.7
	c-0.3-0.3-4.1-4.1-6.9-7.2c-3.1-3.3-6.1-6.6-6.9-7.6L277.2,148.3L277.2,148.3z"/>
<path class="st1" d="M303.3,149.4c-2.2-2-3.3-4.9-3.2-7.8c0-2.7,1.1-5.3,3-7.2c1.6-1.6,4-2.8,8.1-2.8c1.3,0,2.6,0.1,3.8,0.3
	c0.9,0.2,1.8,0.3,2.7,0.4c0.3,0,0.4,0.1,0.4,0.3s-0.1,0.5-0.1,1.5s0,2.3-0.1,2.7s-0.1,0.6-0.2,0.6s-0.2-0.2-0.2-0.6
	c0-1-0.4-2-1.1-2.7c-1.6-1.1-3.4-1.6-5.3-1.5c-3.5,0-5.2,1-6.1,1.9c-1.9,1.9-2.4,4.2-2.4,6.9c-0.1,5.3,4.1,9.6,9.4,9.7
	c0,0,0.1,0,0.1,0c2,0,3.5-0.2,4.6-1.3c0.5-0.6,0.9-1.4,1-2.2c0-0.3,0.1-0.4,0.3-0.4s0.2,0.2,0.2,0.4c-0.1,1.1-0.3,2.3-0.6,3.4
	c-0.2,0.5-0.2,0.6-0.7,0.8c-1.5,0.5-3.2,0.7-4.8,0.6C308.1,152.3,305.5,151.3,303.3,149.4L303.3,149.4z"/>
<path class="st1" d="M342.4,144.3c0,2.6,0,4.6,0.1,5.8c0.1,0.8,0.2,1.4,1,1.5c0.4,0.1,1,0.1,1.2,0.1s0.2,0.1,0.2,0.2
	s-0.1,0.2-0.4,0.2c-1.5,0-3.1-0.1-3.2-0.1s-1.8,0.1-2.6,0.1c-0.3,0-0.4-0.1-0.4-0.2s0-0.2,0.2-0.2c0.3,0,0.5,0,0.8-0.1
	c0.5-0.1,0.7-0.7,0.8-1.5c0.1-1.1,0.1-3.2,0.1-5.8v-2.8c0-0.1-0.1-0.2-0.1-0.2h-11.2c-0.1,0-0.1,0-0.2,0.1c0,0,0,0,0,0v2.8
	c0,2.6,0,4.6,0.1,5.8c0.1,0.8,0.2,1.4,1,1.5c0.4,0.1,1,0.1,1.2,0.1s0.2,0.1,0.2,0.2s-0.1,0.2-0.4,0.2c-1.5,0-3.1-0.1-3.2-0.1
	s-1.8,0.1-2.6,0.1c-0.3,0-0.4-0.1-0.4-0.2s0-0.2,0.2-0.2c0.3,0,0.5,0,0.8-0.1c0.5-0.1,0.7-0.7,0.8-1.5c0.1-1.1,0.1-3.2,0.1-5.8v-4.7
	c0-4.1,0-4.9-0.1-5.7s-0.3-1.3-1.1-1.5c-0.3,0-0.6-0.1-0.9-0.1c-0.1,0-0.2-0.1-0.2-0.2s0.1-0.2,0.4-0.2c1.2,0,2.9,0.1,3,0.1
	s1.8-0.1,2.6-0.1c0.3,0,0.4,0,0.4,0.2s-0.1,0.2-0.2,0.2c-0.2,0-0.4,0-0.7,0.1c-0.7,0.1-0.9,0.6-1,1.5s0,1.6,0,5.7v0.6
	c0,0.1,0,0.1,0.1,0.2c0,0,0,0,0,0H340c0.1,0,0.1,0,0.1-0.2v-0.6c0-4.1,0-4.9,0-5.7s-0.3-1.3-1.1-1.5c-0.3,0-0.6-0.1-0.9-0.1
	c-0.1,0-0.2-0.1-0.2-0.2s0.1-0.2,0.4-0.2c1.2,0,2.9,0.1,3,0.1s1.8-0.1,2.6-0.1c0.3,0,0.4,0,0.4,0.2s-0.1,0.2-0.2,0.2
	c-0.2,0-0.4,0-0.7,0.1c-0.7,0.1-0.9,0.6-1,1.5s0,1.6,0,5.7L342.4,144.3L342.4,144.3z"/>
<path class="st1" d="M24.2,90.7c0,5.8,0,10.7,0.3,13.2c0.2,1.8,0.5,3.1,2.4,3.3c0.9,0.1,1.8,0.2,2.7,0.2c0.4,0,0.5,0.2,0.5,0.4
	s-0.3,0.5-1,0.5c-3.4,0-7.2-0.2-7.5-0.2s-4.1,0.2-6,0.2c-0.7,0-1-0.1-1-0.5c0-0.2,0.1-0.4,0.5-0.4c0.6,0,1.2-0.1,1.8-0.2
	c1.2-0.2,1.5-1.6,1.8-3.3c0.3-2.6,0.3-7.4,0.3-13.2V64.9L10,65c-3.8,0.1-5.2,0.5-6.2,2c-0.4,0.6-0.7,1.2-1,1.9
	c-0.2,0.5-0.4,0.6-0.6,0.6s-0.3-0.2-0.3-0.6c0-0.6,1.2-5.8,1.3-6.3s0.4-1.2,0.6-1.2c0.9,0.4,1.8,0.6,2.7,0.7
	c1.8,0.2,4.1,0.3,4.8,0.3h22.9c1.4,0,2.9-0.1,4.3-0.3c0.9-0.1,1.5-0.3,1.7-0.3s0.3,0.4,0.3,0.7c0,1.8-0.2,6-0.2,6.7
	s-0.2,0.8-0.4,0.8s-0.4-0.2-0.5-1l-0.1-0.7c-0.2-1.8-1.7-3.2-7.5-3.3L24.2,65C24.2,65,24.2,90.7,24.2,90.7z"/>
<path class="st1" d="M82.9,93.3c0,5,0.1,9.1,0.3,11.2c0.2,1.5,0.3,2.5,2,2.7c0.8,0.1,1.6,0.2,2.4,0.2c0.2,0,0.5,0.1,0.5,0.4
	c0,0,0,0,0,0.1c0,0.2-0.3,0.4-0.9,0.4c-2.9,0-6.3-0.2-6.7-0.2s-3.7,0.2-5.3,0.2c-0.6,0-0.9-0.1-0.9-0.4c0-0.2,0.2-0.4,0.4-0.4
	c0,0,0,0,0,0c0.5,0,1.1-0.1,1.6-0.2c1.1-0.2,1.3-1.3,1.5-2.8c0.2-2.1,0.2-6,0.2-11v-5.2c0-0.2-0.1-0.3-0.3-0.3H55.3
	c-0.2,0-0.3,0.1-0.3,0.3v5.2c0,5,0,9,0.2,11.1c0.2,1.5,0.4,2.5,2,2.7c0.8,0.1,1.6,0.2,2.4,0.2c0.2,0,0.4,0.2,0.4,0.4c0,0,0,0,0,0
	c0,0.2-0.2,0.4-0.9,0.4c-3,0-6.4-0.2-6.6-0.2s-3.7,0.2-5.4,0.2c-0.5,0-0.8-0.1-0.8-0.4c0-0.2,0.2-0.4,0.4-0.4c0,0,0,0,0,0
	c0.6,0,1.1-0.1,1.6-0.2c1-0.2,1.2-1.2,1.4-2.7c0.3-3.7,0.4-7.5,0.3-11.2v-9.1c0-8,0-9.5-0.1-11.2s-0.4-2.6-2.2-2.9
	C47.2,70,46.6,70,46,70c-0.2,0-0.4-0.2-0.4-0.4c0-0.3,0.2-0.4,0.8-0.4c2.4,0,5.8,0.1,6.2,0.1s3.7-0.1,5.3-0.1c0.6,0,0.9,0.1,0.9,0.4
	c0,0.2-0.2,0.4-0.4,0.4c-0.4,0-0.9,0-1.3,0.1c-1.5,0.3-1.8,1-1.9,2.9C55,74.6,55,76.2,55,84.3v1.1c0,0.3,0.1,0.3,0.3,0.3h22.4
	c0.2,0,0.3,0,0.3-0.3v-1.1c0-8.1-0.1-9.6-0.1-11.3s-0.4-2.6-2.1-2.9C75.2,70,74.5,70,73.9,70c-0.2,0-0.4-0.2-0.4-0.4
	c0-0.3,0.2-0.4,0.8-0.4c2.4,0,5.9,0.1,6.1,0.1s3.7-0.1,5.3-0.1c0.6,0,0.9,0.1,0.9,0.4c0,0.2-0.2,0.4-0.5,0.4c-0.4,0-0.9,0-1.3,0.1
	c-1.4,0.3-1.7,1-1.8,2.9c-0.1,1.6-0.1,3.1-0.1,11.2V93.3L82.9,93.3z"/>
<path class="st1" d="M97.5,84.1c0-8,0-9.5-0.1-11.2s-0.4-2.6-2.2-2.9C94.6,70,94,70,93.4,70c-0.2,0-0.4-0.2-0.4-0.4
	c0-0.3,0.2-0.4,0.8-0.4c2.4,0,5.9,0.1,6.2,0.1s11.6,0.1,12.8,0c0.8-0.1,1.6-0.2,2.4-0.3c0.2-0.1,0.5-0.2,0.7-0.2
	c0.2,0,0.2,0.2,0.2,0.5c-0.2,0.8-0.3,1.6-0.4,2.4c-0.1,0.5-0.2,2.8-0.3,3.4c-0.1,0.2-0.2,0.6-0.5,0.6s-0.4-0.2-0.4-0.7
	c0-0.6-0.1-1.2-0.3-1.8c-0.4-0.8-0.9-1.2-3.8-1.6c-0.9-0.1-7.1-0.2-7.8-0.2c-0.2,0-0.3,0.2-0.3,0.6V86c0,0.4,0,0.5,0.3,0.5
	c0.7,0,7.8,0,9-0.1s2.1-0.2,2.6-0.7c0.4-0.4,0.6-0.7,0.8-0.7s0.3,0.1,0.3,0.4c-0.2,0.9-0.3,1.9-0.4,2.9c-0.1,1-0.2,3-0.2,3.4
	s-0.1,1-0.5,1s-0.4-0.2-0.4-0.5c0-0.6-0.1-1.2-0.2-1.7c-0.2-0.7-0.7-1.3-2.8-1.6c-1.5-0.2-7.2-0.2-8.1-0.2c-0.2,0-0.3,0.1-0.4,0.3
	c0,0,0,0.1,0,0.1v4.3c0,1.8-0.1,7.8,0,8.8c0.1,3.5,1.1,4.2,6.4,4.2c1.8,0.1,3.6-0.1,5.4-0.6c1.4-0.6,2.1-1.5,2.4-3.6
	c0.1-0.6,0.2-0.8,0.6-0.8s0.4,0.4,0.4,0.8c-0.1,1.7-0.4,3.3-0.7,5c-0.4,1.3-0.9,1.3-3,1.3c-4,0-7.1-0.1-9.3-0.2s-3.7-0.1-4.4-0.1
	c-0.1,0-1.2,0-2.3,0.1s-2.2,0.1-3.1,0.1c-0.6,0-0.8-0.1-0.8-0.4c0-0.2,0.2-0.4,0.4-0.4c0,0,0,0,0,0c0.6-0.1,1.1-0.1,1.6-0.2
	c1-0.2,1.2-1.2,1.4-2.7c0.3-3.7,0.4-7.5,0.3-11.2L97.5,84.1L97.5,84.1z"/>
<path class="st1" d="M166.8,100.9c3.5-8.2,11.7-29.5,13.1-33.8c0.3-0.7,0.5-1.5,0.6-2.3c0-0.6-0.3-1.1-0.8-1.4
	c-0.8-0.2-1.5-0.3-2.3-0.2c-0.4,0-0.7-0.1-0.7-0.4s0.4-0.5,1.3-0.5c2.4,0,5.2,0.2,6,0.2c0.4,0,3-0.2,4.8-0.2c0.7,0,1,0.1,1,0.4
	s-0.2,0.4-0.7,0.4c-1,0-2,0.2-2.9,0.7c-0.8,0.6-1.7,1.6-3.4,5.7c-0.7,1.7-3.7,9-6.8,16.5c-3.7,8.9-6.5,15.5-7.9,18.5
	c-1.7,3.7-1.9,4.6-2.6,4.6s-1-0.9-2.2-3.8L148.3,68c-1.4-3.4-2.3-4.1-4.4-4.7c-0.8-0.2-1.5-0.3-2.3-0.2c-0.4,0-0.5-0.2-0.5-0.4
	s0.6-0.4,1.6-0.4c2.9,0,6.4,0.2,7.1,0.2s3.4-0.2,5.7-0.2c1.1,0,1.6,0.1,1.6,0.4s-0.2,0.4-0.6,0.4c-0.8,0-1.6,0.1-2.3,0.3
	c-0.5,0.2-0.8,0.7-0.8,1.2c0.4,1.7,0.9,3.4,1.6,5.1L166.8,100.9L166.8,100.9z"/>
<path class="st1" d="M204.1,93.3c0,5,0,9.1,0.2,11.2c0.2,1.5,0.4,2.5,1.9,2.7c0.8,0.1,1.6,0.2,2.4,0.2c0.2,0,0.4,0.2,0.4,0.4
	c0,0,0,0,0,0c0,0.2-0.2,0.4-0.9,0.4c-3,0-6.5-0.2-6.7-0.2s-3.7,0.2-5.3,0.2c-0.6,0-0.9-0.1-0.9-0.4c0-0.2,0.2-0.4,0.4-0.4
	c0,0,0,0,0,0c0.6,0,1.1-0.1,1.6-0.2c1-0.2,1.2-1.2,1.4-2.7c0.2-2.1,0.3-6.2,0.3-11.2v-9.1c0-8,0-9.5-0.1-11.2s-0.6-2.6-1.7-2.8
	c-0.5-0.1-1.1-0.2-1.6-0.2c-0.2,0-0.4-0.2-0.4-0.4c0-0.3,0.2-0.4,0.9-0.4c1.8,0,5.1,0.1,5.4,0.1s3.7-0.1,5.4-0.1
	c0.6,0,0.9,0.1,0.9,0.4c0,0.2-0.2,0.4-0.4,0.4c-0.4,0-0.9,0-1.3,0.1c-1.5,0.3-1.8,1-1.9,2.9c-0.1,1.6-0.1,3.1-0.1,11.2L204.1,93.3
	L204.1,93.3z"/>
<path class="st1" d="M223.5,93.4c0,7.6,0.1,10.7,1.1,11.7s2.9,1.2,7.1,1.2c2.8,0,5.2-0.1,6.5-1.6c0.7-0.8,1.1-1.9,1.3-2.9
	c0.1-0.4,0.2-0.7,0.5-0.7s0.4,0.2,0.4,0.8c-0.1,1.7-0.4,3.5-0.8,5.2c-0.4,1.2-0.6,1.4-3.4,1.4c-3.8,0-6.8-0.1-9.3-0.2
	s-4.3-0.1-5.9-0.1c-0.2,0-1.2,0-2.2,0.1s-2.3,0.1-3.1,0.1c-0.6,0-0.9-0.1-0.9-0.4c0-0.2,0.2-0.4,0.4-0.4c0,0,0,0,0,0
	c0.6,0,1.1-0.1,1.6-0.2c1-0.2,1.1-1.2,1.4-2.7c0.3-3.7,0.4-7.5,0.3-11.2v-9.1c0-8,0-9.5-0.1-11.2s-0.4-2.6-2.2-2.9
	c-0.6-0.1-1.2-0.1-1.8-0.1c-0.2,0-0.4-0.2-0.4-0.4c0-0.3,0.2-0.4,0.9-0.4c2.4,0,5.8,0.1,6.1,0.1s4.3-0.1,5.9-0.1
	c0.6,0,0.9,0.1,0.9,0.4s-0.2,0.4-0.4,0.4c-0.4,0-1.2,0.1-1.8,0.1c-1.6,0.3-1.9,1.1-2,2.9c-0.1,1.6-0.1,3.1-0.1,11.2L223.5,93.4
	L223.5,93.4z"/>
<path class="st1" d="M254.3,93.4c0,7.6,0.1,10.7,1.1,11.7c1,0.9,2.9,1.2,7.1,1.2c2.8,0,5.2-0.1,6.5-1.6c0.7-0.8,1.1-1.9,1.3-2.9
	c0.1-0.4,0.2-0.7,0.5-0.7s0.4,0.2,0.4,0.8c-0.1,1.7-0.4,3.5-0.8,5.2c-0.4,1.2-0.5,1.4-3.4,1.4c-3.8,0-6.8-0.1-9.3-0.2
	s-4.3-0.1-5.9-0.1c-0.2,0-1.2,0-2.2,0.1s-2.2,0.1-3.1,0.1c-0.5,0-0.9-0.1-0.9-0.4c0-0.2,0.2-0.4,0.4-0.4c0,0,0,0,0,0
	c0.6,0,1.1-0.1,1.6-0.2c1-0.2,1.2-1.2,1.4-2.7c0.3-3.7,0.4-7.5,0.3-11.2v-9.1c0-8,0-9.5-0.1-11.2s-0.4-2.6-2.2-2.9
	c-0.6-0.1-1.2-0.1-1.8-0.1c-0.2,0-0.4-0.2-0.4-0.4c0-0.3,0.2-0.4,0.9-0.4c2.4,0,5.8,0.1,6.1,0.1s4.3-0.1,5.9-0.1
	c0.5,0,0.9,0.1,0.9,0.4s-0.2,0.4-0.4,0.4c-0.4,0-1.2,0.1-1.8,0.1c-1.6,0.3-1.9,1.1-2,2.9c-0.1,1.6-0.1,3.1-0.1,11.2L254.3,93.4
	L254.3,93.4z"/>
<path class="st1" d="M302.9,91.8c0.2,0,0.2-0.1,0.2-0.4l-5.3-14.2c-0.3-0.8-0.6-0.8-0.9,0l-5,14.2c-0.1,0.2,0,0.4,0.2,0.4H302.9z
	 M296.9,70.2c0.7-1.7,0.9-2,1.3-2c0.5,0,0.7,0.7,1.3,1.9c1,2.2,9.6,23.6,12.9,31.5c2,4.6,3.4,5.3,4.6,5.7c0.7,0.2,1.4,0.3,2.1,0.3
	c0.3,0,0.7,0.1,0.7,0.4s-0.6,0.4-1.2,0.4c-0.8,0-4.8,0-8.5-0.1c-1-0.1-1.9-0.1-1.9-0.4s0.1-0.2,0.4-0.4c0.5-0.2,0.7-0.8,0.5-1.3
	c0,0,0-0.1,0-0.1l-4.8-11.9c-0.1-0.2-0.2-0.3-0.5-0.3h-12.4c-0.3,0-0.5,0.2-0.5,0.4l-3,8.3c-0.5,1.1-0.7,2.3-0.8,3.5
	c0,1,0.9,1.4,1.8,1.4h0.5c0.4,0,0.5,0.2,0.5,0.4s-0.3,0.4-0.8,0.4c-1.3,0-4.2-0.2-4.8-0.2s-3.2,0.2-5.4,0.2c-0.7,0-1-0.1-1-0.4
	c0-0.3,0.2-0.4,0.5-0.4c0.5,0,1.1-0.1,1.6-0.1c2.4-0.3,3.5-2.1,4.5-4.8L296.9,70.2L296.9,70.2z"/>
<path class="st1" d="M350.2,95.1c0-4.2-0.1-4.8-2.3-5.2c-0.6-0.1-1.2-0.1-1.8-0.1c-0.2,0-0.4-0.2-0.4-0.4c0-0.4,0.2-0.4,0.9-0.4
	c2.4,0,6,0.1,6.3,0.1s3.6-0.1,5.2-0.1c0.6,0,0.9,0.1,0.9,0.4c0,0.2-0.2,0.4-0.4,0.4c-0.4,0-0.9,0-1.3,0.1c-1.5,0.2-1.9,1-2,2.9
	c-0.1,1.7-0.1,3.2-0.1,5.4v5.8c0,2.4-0.1,2.4-0.7,2.8c-3.4,1.8-8.3,2.3-11.4,2.3c-4.1,0-11.7-0.5-17.7-5.6
	c-3.3-2.7-6.4-8.3-6.4-14.8c0-8.3,4.2-14.2,9-17s10.2-3.3,14.3-3.3c2.8,0,5.5,0.3,8.2,0.8c1.4,0.3,2.9,0.5,4.3,0.6
	c0.5,0,0.7,0.2,0.7,0.5c0,0.7-0.3,2.1-0.3,7.3c0,0.9-0.2,1.1-0.6,1.1s-0.4-0.3-0.4-0.8c-0.1-1.2-0.5-2.4-1.2-3.4
	c-1.3-2-5.4-4-12.4-4c-3.2,0-7.1,0.2-11.2,3.3c-3.1,2.4-5.3,7-5.3,13c0,5.3,2,10.5,5.7,14.3c3.7,3.6,8.6,5.5,13.7,5.4
	c1.9,0,4.4-0.2,5.8-1c0.7-0.4,1.1-0.6,1.1-1.6v-9L350.2,95.1z"/>
<path class="st1" d="M367,84.1c0-8,0-9.5-0.1-11.2s-0.4-2.6-2.2-2.9c-0.6-0.1-1.2-0.1-1.8-0.1c-0.2,0-0.4-0.2-0.4-0.4
	c0-0.3,0.2-0.4,0.9-0.4c2.4,0,5.9,0.1,6.2,0.1s11.6,0.1,12.8,0c0.8-0.1,1.6-0.2,2.4-0.3c0.2-0.1,0.5-0.2,0.7-0.2
	c0.2,0,0.2,0.2,0.2,0.5s-0.3,1-0.4,2.4c-0.1,0.5-0.2,2.8-0.3,3.4c-0.1,0.2-0.2,0.6-0.5,0.6s-0.4-0.2-0.4-0.7c0-0.6-0.1-1.2-0.3-1.8
	c-0.4-0.8-0.9-1.2-3.8-1.6c-0.9-0.1-7.1-0.2-7.7-0.2c-0.2,0-0.3,0.2-0.3,0.6V86c0,0.4,0,0.5,0.3,0.5c0.7,0,7.7,0,9-0.1
	s2.1-0.2,2.6-0.7c0.4-0.4,0.6-0.7,0.8-0.7s0.3,0.1,0.3,0.4s-0.3,1.2-0.4,2.9c-0.1,1-0.2,3-0.2,3.4s-0.1,1-0.5,1s-0.4-0.2-0.4-0.5
	c0-0.6-0.1-1.2-0.2-1.7c-0.2-0.7-0.7-1.3-2.7-1.6c-1.5-0.2-7.2-0.2-8.1-0.2c-0.3,0-0.4,0.2-0.4,0.4v4.3c0,1.8-0.1,7.8,0,8.8
	c0.1,3.5,1.1,4.2,6.4,4.2c1.8,0.1,3.6-0.1,5.4-0.6c1.4-0.6,2.1-1.5,2.4-3.6c0.1-0.6,0.2-0.8,0.5-0.8s0.4,0.4,0.4,0.8
	c-0.1,1.7-0.4,3.3-0.7,5c-0.4,1.3-0.9,1.3-3,1.3c-4,0-7.1-0.1-9.3-0.2s-3.7-0.1-4.5-0.1c-0.1,0-1.2,0-2.3,0.1s-2.3,0.1-3.1,0.1
	c-0.5,0-0.9-0.1-0.9-0.4c0-0.2,0.2-0.4,0.4-0.4c0,0,0,0,0,0c0.6-0.1,1.1-0.1,1.6-0.2c1-0.2,1.2-1.2,1.4-2.7
	c0.3-3.7,0.4-7.5,0.3-11.2L367,84.1L367,84.1z"/>
<path class="st1" d="M36.3,209.2c0.1,0,0.3,0,0.4,0.1c0.1,0.1,0.3,0.2,0.4,0.3l2.2,2.4c-1,1.3-2.2,2.3-3.7,2.9c-1.6,0.7-3.4,1-5.2,1
	c-1.7,0-3.4-0.3-5-0.9c-1.4-0.6-2.7-1.5-3.7-2.6c-1-1.1-1.8-2.5-2.3-3.9c-0.6-1.6-0.8-3.3-0.8-4.9c0-1.7,0.3-3.4,0.9-5
	c0.6-1.5,1.5-2.8,2.6-3.9c1.1-1.1,2.5-2,4-2.6c1.6-0.6,3.4-0.9,5.1-0.9c0.9,0,1.7,0.1,2.6,0.2c0.8,0.2,1.5,0.4,2.3,0.7
	c0.7,0.3,1.3,0.6,1.9,1c0.6,0.4,1.1,0.8,1.6,1.3l-1.9,2.6c-0.1,0.2-0.3,0.3-0.4,0.4c-0.2,0.1-0.5,0.2-0.7,0.2c-0.2,0-0.4,0-0.6-0.1
	c-0.2-0.1-0.4-0.2-0.6-0.3l-0.7-0.4c-0.2-0.2-0.5-0.3-0.8-0.4c-0.4-0.1-0.8-0.3-1.2-0.3c-0.5-0.1-1-0.1-1.5-0.1
	c-1,0-1.9,0.2-2.8,0.5c-0.8,0.4-1.6,0.9-2.2,1.6c-0.6,0.7-1.1,1.5-1.4,2.4c-0.4,1-0.5,2.1-0.5,3.2c0,1.1,0.2,2.3,0.5,3.3
	c0.3,0.9,0.8,1.7,1.4,2.4c0.6,0.6,1.2,1.2,2,1.5c0.8,0.3,1.6,0.5,2.5,0.5c0.5,0,0.9,0,1.4-0.1c0.4,0,0.8-0.1,1.2-0.3
	c0.3-0.1,0.7-0.3,1-0.5c0.4-0.2,0.7-0.5,1-0.7c0.1-0.1,0.3-0.2,0.4-0.3C36,209.2,36.1,209.2,36.3,209.2L36.3,209.2z"/>
<path class="st1" d="M49.1,202.6h2.3c0.7,0,1.4-0.1,2-0.3c0.5-0.2,0.9-0.4,1.3-0.8c0.3-0.3,0.6-0.8,0.8-1.2c0.2-0.5,0.2-1,0.2-1.5
	c0.1-0.9-0.3-1.9-1-2.5c-0.9-0.7-2.1-1-3.2-0.9h-2.3V202.6L49.1,202.6z M49.1,206.5v9h-5.6v-24.3h7.9c1.5,0,3,0.2,4.5,0.5
	c1.1,0.3,2.1,0.8,3,1.5c0.8,0.6,1.3,1.4,1.7,2.3c0.4,0.9,0.5,1.9,0.5,2.9c0,0.8-0.1,1.5-0.3,2.2c-0.2,0.7-0.5,1.3-0.9,1.9
	c-0.4,0.6-0.9,1.1-1.5,1.6c-0.6,0.5-1.3,0.9-2.1,1.1c0.4,0.2,0.7,0.4,1.1,0.7c0.3,0.3,0.6,0.6,0.9,1l5.2,8.4h-5.1
	c-0.8,0.1-1.6-0.4-2-1.1l-4-7c-0.1-0.3-0.4-0.5-0.6-0.7c-0.3-0.1-0.7-0.2-1-0.2L49.1,206.5z"/>
<path class="st1" d="M74.8,206.2h6.6l-2.2-6.6c-0.2-0.4-0.3-0.9-0.5-1.5s-0.4-1.2-0.6-1.9c-0.2,0.7-0.4,1.3-0.6,1.9
	s-0.4,1.1-0.5,1.5L74.8,206.2L74.8,206.2z M90.4,215.4H86c-0.4,0-0.9-0.1-1.2-0.3c-0.3-0.2-0.5-0.5-0.7-0.9l-1.4-4.2h-9.2l-1.4,4.2
	c-0.1,0.3-0.4,0.6-0.7,0.8c-0.3,0.3-0.8,0.4-1.2,0.4h-4.4l9.4-24.3H81L90.4,215.4L90.4,215.4z"/>
<polygon class="st1" points="108.9,191.2 108.9,195.5 98.9,195.5 98.9,201.6 107.2,201.6 107.2,206 98.9,206 98.9,215.4 93.2,215.4 
	93.2,191.2 108.9,191.2 "/>
<polygon class="st1" points="131,191.2 131,195.6 124.1,195.6 124.1,215.4 118.5,215.4 118.5,195.6 111.7,195.6 111.7,191.2 
	131,191.2 "/>
<path class="st1" d="M146.6,205.7c0.2,0.4,0.4,0.9,0.6,1.4c0.2-0.5,0.4-1,0.6-1.4s0.4-0.9,0.6-1.3l6.2-12.3c0.1-0.2,0.2-0.3,0.3-0.5
	c0.1-0.1,0.2-0.2,0.4-0.3c0.2-0.1,0.3-0.1,0.5-0.1h4.9v24.3h-5v-14c0-0.7,0-1.4,0.1-2.2l-6.4,12.5c-0.2,0.4-0.5,0.7-0.8,0.9
	c-0.4,0.2-0.8,0.3-1.2,0.3h-0.8c-0.4,0-0.8-0.1-1.2-0.3c-0.3-0.2-0.6-0.5-0.8-0.9l-6.5-12.5c0,0.4,0.1,0.8,0.1,1.2s0,0.7,0,1.1v14
	h-5v-24.2h4.9c0.2,0,0.3,0,0.5,0.1c0.1,0.1,0.3,0.1,0.4,0.3c0.1,0.1,0.3,0.3,0.4,0.5l6.2,12.3C146.1,204.8,146.3,205.2,146.6,205.7
	L146.6,205.7z"/>
<path class="st1" d="M172,206.2h6.6l-2.2-6.6c-0.1-0.4-0.3-0.9-0.5-1.5s-0.4-1.2-0.6-1.9c-0.2,0.7-0.4,1.3-0.6,1.9s-0.4,1.1-0.5,1.5
	L172,206.2z M187.6,215.4h-4.4c-0.4,0-0.8-0.1-1.2-0.3c-0.3-0.2-0.5-0.5-0.7-0.9l-1.4-4.2h-9.2l-1.4,4.2c-0.3,0.7-1,1.2-1.8,1.2H163
	l9.4-24.3h5.8L187.6,215.4L187.6,215.4z"/>
<path class="st1" d="M196.1,202.6h2.3c0.7,0,1.4-0.1,2-0.3c0.5-0.2,1-0.4,1.3-0.8c0.3-0.3,0.6-0.8,0.8-1.2c0.2-0.5,0.2-1,0.2-1.5
	c0.1-0.9-0.3-1.9-1-2.5c-0.9-0.7-2.1-1-3.2-0.9h-2.3L196.1,202.6L196.1,202.6z M196.1,206.5v9h-5.6v-24.3h7.9c1.5,0,3,0.2,4.5,0.5
	c1.1,0.3,2.1,0.8,3,1.5c0.8,0.6,1.3,1.4,1.7,2.3c0.6,1.6,0.7,3.4,0.2,5.1c-0.2,0.7-0.6,1.4-1,1.9c-0.4,0.6-0.9,1.2-1.5,1.6
	c-0.6,0.5-1.3,0.9-2.1,1.1c0.4,0.2,0.7,0.4,1.1,0.7c0.3,0.3,0.6,0.6,0.9,1l5.2,8.4h-5.1c-0.8,0.1-1.6-0.4-2-1.1l-4-7
	c-0.1-0.3-0.4-0.5-0.6-0.7c-0.3-0.1-0.7-0.2-1-0.2L196.1,206.5z"/>
<path class="st1" d="M219.1,201h0.9c0.7,0.1,1.4-0.2,1.8-0.8l5.5-7.9c0.2-0.4,0.6-0.7,1-0.9c0.5-0.2,0.9-0.2,1.4-0.2h4.9l-7.2,9.8
	c-0.2,0.3-0.5,0.6-0.8,0.9c-0.3,0.2-0.5,0.4-0.9,0.6c0.4,0.2,0.8,0.4,1.2,0.6c0.4,0.3,0.7,0.7,1,1.1l7.3,11.3h-5
	c-0.3,0-0.5,0-0.8-0.1c-0.2,0-0.4-0.1-0.6-0.2c-0.2-0.1-0.3-0.2-0.4-0.3c-0.1-0.1-0.2-0.3-0.4-0.4l-5.5-8.4
	c-0.2-0.3-0.4-0.5-0.8-0.7c-0.4-0.1-0.8-0.2-1.2-0.2h-1.4v10.3h-5.6v-24.3h5.6L219.1,201L219.1,201z"/>
<polygon class="st1" points="269.3,215.4 263.6,215.4 263.6,205.2 253.8,205.2 253.8,215.4 248.1,215.4 248.1,191.2 253.8,191.2 
	253.8,201.3 263.6,201.3 263.6,191.2 269.3,191.2 269.3,215.4 "/>
<path class="st1" d="M292.4,203.3c0-1.1-0.1-2.2-0.5-3.2c-0.3-0.9-0.7-1.7-1.3-2.4c-0.6-0.7-1.3-1.2-2.1-1.5
	c-0.9-0.4-1.9-0.6-2.9-0.5c-1,0-2,0.2-2.9,0.5c-0.8,0.3-1.6,0.9-2.1,1.5c-0.6,0.7-1.1,1.5-1.3,2.4c-0.6,2.1-0.6,4.4,0,6.5
	c0.3,0.9,0.7,1.7,1.3,2.4c0.6,0.7,1.3,1.2,2.1,1.5c0.9,0.4,1.9,0.5,2.9,0.5c1,0,2-0.2,2.9-0.5c0.8-0.3,1.6-0.9,2.1-1.5
	c0.6-0.7,1.1-1.5,1.3-2.4C292.2,205.5,292.4,204.4,292.4,203.3z M298.1,203.3c0,1.7-0.3,3.3-0.9,4.9c-0.6,1.5-1.5,2.8-2.6,3.9
	c-1.1,1.1-2.5,2-4,2.6c-3.3,1.3-7,1.3-10.3,0c-3-1.2-5.4-3.6-6.6-6.6c-1.2-3.2-1.2-6.6,0-9.8c1.2-3,3.6-5.4,6.6-6.6
	c1.6-0.7,3.4-1,5.2-1c1.8,0,3.5,0.3,5.2,1c3,1.2,5.4,3.6,6.5,6.6C297.8,200,298.1,201.6,298.1,203.3L298.1,203.3z"/>
<path class="st1" d="M314.8,205.7c0.2,0.4,0.4,0.9,0.6,1.4c0.2-0.5,0.4-1,0.6-1.4s0.4-0.9,0.6-1.3l6.2-12.3c0.1-0.2,0.2-0.3,0.3-0.5
	c0.1-0.1,0.2-0.2,0.4-0.3c0.2-0.1,0.3-0.1,0.5-0.1h4.9v24.3h-5v-14c0-0.7,0-1.4,0.1-2.2l-6.4,12.5c-0.2,0.4-0.5,0.7-0.8,0.9
	c-0.4,0.2-0.8,0.3-1.2,0.3H315c-0.4,0-0.8-0.1-1.2-0.3c-0.3-0.2-0.6-0.5-0.8-0.9l-6.5-12.5c0,0.4,0.1,0.8,0.1,1.2s0,0.7,0,1.1v14h-5
	v-24.2h4.9c0.2,0,0.3,0,0.5,0.1c0.1,0.1,0.3,0.1,0.4,0.3c0.1,0.1,0.3,0.3,0.3,0.5l6.2,12.3C314.3,204.8,314.5,205.2,314.8,205.7
	L314.8,205.7z"/>
<polygon class="st1" points="349.5,191.2 349.5,195.5 339.5,195.5 339.5,201.2 347.2,201.2 347.2,205.3 339.5,205.3 339.5,211.1 
	349.5,211.1 349.5,215.4 333.9,215.4 333.9,191.2 349.5,191.2 "/>
<path class="st1" d="M367.8,196.1c-0.1,0.2-0.3,0.4-0.5,0.6c-0.2,0.1-0.5,0.2-0.7,0.2c-0.3,0-0.6-0.1-0.8-0.2l-1-0.5
	c-0.4-0.2-0.8-0.4-1.3-0.5c-0.5-0.2-1.1-0.2-1.6-0.2c-0.8-0.1-1.7,0.2-2.4,0.7c-0.5,0.5-0.8,1.1-0.8,1.8c0,0.5,0.2,0.9,0.5,1.2
	c0.4,0.4,0.8,0.6,1.2,0.8c0.6,0.3,1.1,0.5,1.7,0.6c0.6,0.2,1.3,0.4,2,0.6c0.7,0.2,1.4,0.5,2,0.8c0.6,0.3,1.2,0.7,1.7,1.2
	c0.5,0.5,0.9,1.1,1.2,1.8c0.3,0.8,0.5,1.7,0.5,2.6c0,1.1-0.2,2.1-0.6,3.1c-0.4,1-1,1.8-1.7,2.6c-0.8,0.8-1.7,1.3-2.7,1.7
	c-1.2,0.4-2.4,0.6-3.7,0.6c-0.8,0-1.5-0.1-2.3-0.2c-0.8-0.2-1.5-0.4-2.3-0.7c-0.7-0.3-1.4-0.6-2.1-1c-0.6-0.4-1.2-0.8-1.7-1.3
	l1.7-2.6c0.1-0.2,0.3-0.4,0.5-0.5c0.2-0.1,0.5-0.2,0.7-0.2c0.4,0,0.7,0.1,1,0.3l1.1,0.7c0.5,0.3,1,0.5,1.5,0.7
	c0.6,0.2,1.3,0.3,2,0.3c0.8,0.1,1.7-0.2,2.4-0.7c0.6-0.5,0.9-1.3,0.9-2.1c0-0.5-0.1-1-0.5-1.4c-0.3-0.4-0.8-0.7-1.2-0.9
	c-0.6-0.2-1.1-0.5-1.7-0.6c-0.6-0.2-1.3-0.4-2-0.6c-0.7-0.2-1.4-0.5-2-0.8c-0.6-0.3-1.2-0.7-1.7-1.2c-0.5-0.6-1-1.2-1.2-1.9
	c-0.3-0.9-0.5-1.9-0.5-2.9c0-1.9,0.8-3.7,2.2-5c0.8-0.7,1.7-1.3,2.6-1.6c1.1-0.4,2.3-0.6,3.5-0.6c0.7,0,1.5,0.1,2.2,0.2
	c0.7,0.1,1.4,0.3,2,0.5c0.6,0.2,1.2,0.5,1.8,0.8c0.5,0.3,1,0.7,1.5,1.1L367.8,196.1L367.8,196.1z"/>
<path class="st1" d="M379,196.2h1c0.3,0,0.6,0,0.8-0.1c0.2-0.1,0.4-0.1,0.6-0.3c0.1-0.1,0.2-0.3,0.3-0.4c0.1-0.2,0.1-0.4,0.1-0.6
	c0-0.2,0-0.4-0.1-0.6c-0.1-0.2-0.1-0.3-0.3-0.4c-0.1-0.1-0.3-0.2-0.5-0.2c-0.3-0.1-0.5-0.1-0.8-0.1H379V196.2L379,196.2z M379,197.2
	v3.2h-1.4v-8h2.6c0.8-0.1,1.6,0.1,2.3,0.6c0.5,0.4,0.8,1,0.7,1.7c0,0.5-0.2,1-0.5,1.4c-0.4,0.4-0.9,0.7-1.4,0.8
	c0.1,0.1,0.2,0.1,0.3,0.2c0.1,0.1,0.2,0.2,0.2,0.3l2,3h-1.3c-0.2,0-0.3-0.1-0.4-0.2l-1.8-2.7c0-0.1-0.1-0.1-0.2-0.2
	c-0.1-0.1-0.2-0.1-0.4-0.1H379z M374.6,196.4c0,1,0.3,2,0.8,2.9c0.2,0.4,0.5,0.8,0.9,1.2c0.3,0.3,0.7,0.6,1.1,0.9
	c0.4,0.3,0.9,0.4,1.4,0.6c0.5,0.1,1,0.2,1.5,0.2c0.8,0,1.5-0.1,2.2-0.4c0.7-0.3,1.3-0.7,1.8-1.2c1.1-1.1,1.7-2.5,1.6-4.1
	c0-0.5-0.1-1-0.2-1.5c-0.3-1-0.8-1.8-1.5-2.6c-0.3-0.3-0.7-0.6-1.1-0.9c-0.4-0.3-0.9-0.4-1.4-0.6c-0.5-0.1-1-0.2-1.5-0.2
	c-0.8,0-1.5,0.1-2.2,0.4c-0.7,0.3-1.3,0.7-1.8,1.2c-0.5,0.5-0.9,1.1-1.2,1.8C374.8,194.9,374.6,195.7,374.6,196.4L374.6,196.4z
	 M373.8,196.4c0-0.6,0.1-1.2,0.2-1.7c0.1-0.6,0.4-1.1,0.7-1.6c0.3-0.5,0.6-0.9,1-1.3c0.4-0.4,0.8-0.7,1.3-1c0.5-0.3,1-0.5,1.6-0.7
	c0.6-0.2,1.2-0.2,1.7-0.2c0.6,0,1.2,0.1,1.7,0.2c0.5,0.2,1.1,0.4,1.6,0.7c0.5,0.3,0.9,0.6,1.3,1c0.4,0.4,0.7,0.8,1,1.3
	c0.3,0.5,0.5,1,0.6,1.6c0.3,1.1,0.3,2.3,0,3.5c-0.1,0.5-0.4,1.1-0.6,1.6c-0.6,1-1.4,1.8-2.4,2.3c-1.5,0.9-3.3,1.1-5,0.7
	c-0.5-0.2-1.1-0.4-1.6-0.7c-0.5-0.3-0.9-0.6-1.3-1c-0.4-0.4-0.7-0.8-1-1.3C374,198.8,373.7,197.6,373.8,196.4L373.8,196.4z"/>
<path class="st1" d="M194.2,25.1c2.3,1.1,3.2,1.2,6.3,0.3L194.2,25.1z M224.9,24.1c4.1,3,8.6,5.3,13.5,6.8c3.2,1.1,6.4,2,9.5,3.1
	c2.5,0.8,2.5,0.9,1.2,3.1c-0.8-0.2-1.7-0.4-2.6-0.7c-2.2-0.7-4.4-1.4-6.5-2.2c-5.2-2-10.4-4-15.5-6c-0.7-0.3-1.4-0.7-2.1-1.2
	c-2.1-1.6-4.8-2.1-7.3-1.5c-6.3,1.6-12.8,2.2-19.2,1.9c-5.4-0.2-10.9,0.1-16.3,1c-0.6,0.1-1.2,0.3-1.7,0.6c0.9,0.3,1.3,0.5,1.7,0.6
	c2.7,0.6,5.3,1.5,7.8,2.7c2.9,1.5,5.9,3.2,9.3,2.8c0.4,0,1,0.5,2,1c-2.2,0.8-4.6,0.9-6.8,0.3c-2.9-0.9-5.7-1.3-8.1-0.8
	c-1.2-1-2-1.9-3-2.3c-3.4-1.4-6.9-2.6-10.5-3.6c-6-1.4-12.1-2.4-18.1-3.5c-5.2-0.9-10.3-1.7-15.5-2.7s-10.1-2.2-15.1-3.4
	c-1.2-0.3-2.7-0.6-2.9-1.9s-1.4-1.9-2.6-2.5c-2.6-1.2-4.9-2.9-6.9-5c1,0.1,2.1,0.2,3.1,0.4c3,0.9,6,1.8,8.9,3
	c8.6,3.6,17.6,6.2,26.8,7.7c4.4,0.6,8.1-0.1,11.2-2.2c3.3-2.3,7.6-3,11.8-4.2c0.3,0.9,0.6,1.5,0.8,2.1c0,0.1-0.2,0.3-0.4,0.6
	c-1.8-0.8-3-0.1-4.4,0.6c-2.4,1.3-4.9,2.5-7.4,3.7c-0.5,0.3-1,0.6-1.9,1.2c4.1,1,8.3,1.4,12.5,1c4.3-0.5,8.6-0.8,12.9-1.2
	c1.1,0,2.1-0.2,3.1-0.5c5.2-2.4,10.4-4.8,13.3-9.5c2.2-3.2,5.4-5.7,9-7.1c1.2-0.4,2.4-1,3.5-1.7c3.2-2.2,7.6-2.7,11.5-3.9
	c0.8-0.4,1.8,0,2.2,0.8c0,0.1,0,0.1,0.1,0.2c-1.5,0.5-3.7,0.6-4.3,1.6c-1.3,2.3-4.5,2.1-6.4,3.4c-0.4,0.2-0.7,0.5-1.1,0.8
	c2.2,0.8,4.7-0.4,6.4,2.3c-1.3,0.1-2.3,0.3-3.4,0.4c-2,0.1-4.1,0.3-6.1,0.6c-2.6,0.6-5.7,1.2-7.3,2.7c-2.3,2.2-2.9,5.6-4.1,9.2
	c4.5-0.5,8.2-0.9,11.9-1.5c2.1-0.3,4.1-0.8,6-1.5c5.7-2.4,11.7-4.4,17.7-5.8c2-0.6,4-1.3,6-2.1c3.7-1.5,7.4-3,11.1-4.5
	c1.7-0.6,3.6-0.8,5.4-0.3c4.7,0.9,9.4,1.7,14.1,2.5c1.1,0.2,2.3,0.4,3.4,0.7c0.7,0.3,1.3,0.8,1.9,1.2c-3.6,1.2-7.2,0.2-10.5-0.9
	c-4.3-1.5-8-1.1-11.7-0.4c-1.1,0.2-2.2,0.5-3.4,0.8s-2.1,0.6-3.2,0.9c1.1,0.5,2.3,0.8,3.6,0.9c3.5,0.5,7,0.8,10.4,1.5
	c2.3,0.5,4.6,0.8,7,0.8c3.9,0,7.8,0.4,11.7,0.7c0.5,0,1,0.7,1.5,1c-0.4,0.3-0.9,0.5-1.3,0.7c-0.7,0.1-1.3,0.2-2,0.2
	c3.1,2,5.9,3.6,9.4,3.1c0.2,1.8-0.9,2.2-2.4,1.8c-2.8-0.6-5.6-1.4-8.3-2.4c-3.6-1.4-7-3.3-10.9-3c-1.2,0.1-2.6-0.6-4-0.8
	c-2.3-0.5-4.7-0.8-7-1c-5.7-0.4-10.7,0.9-15.8,2.1c-5.7,1.3-11.2,3.2-16.5,5.7C224,23.3,224.4,23.7,224.9,24.1L224.9,24.1z"/>
</svg>
