<?xml version="1.0" encoding="UTF-8"?><svg id="Layer_1" xmlns="http://www.w3.org/2000/svg" viewBox="0 0 236 103"><defs><style>.cls-1{letter-spacing:-.06em;}.cls-1,.cls-2,.cls-3,.cls-4,.cls-5,.cls-6,.cls-7{fill:#25473d;}.cls-1,.cls-2,.cls-4,.cls-5{font-size:40.37px;}.cls-1,.cls-2,.cls-4,.cls-5,.cls-6,.cls-7{font-family:Lato-Light, Lato;font-weight:300;}.cls-2{letter-spacing:-.06em;}.cls-4{letter-spacing:-.08em;}.cls-5{letter-spacing:-.04em;}.cls-6,.cls-7{font-size:22.85px;}.cls-7{letter-spacing:-.06em;}</style></defs><path class="cls-3" d="M14.42,97.88c.09,0,.18,.02,.27,.05,.09,.03,.17,.09,.25,.17l1.48,1.56c-.65,.85-1.46,1.49-2.44,1.92-.98,.43-2.13,.65-3.47,.65-1.22,0-2.32-.21-3.29-.62-.97-.42-1.79-.99-2.47-1.73-.67-.73-1.19-1.6-1.55-2.61-.36-1.01-.54-2.1-.54-3.28s.21-2.31,.62-3.31c.41-1.01,.99-1.87,1.73-2.6,.74-.73,1.63-1.3,2.66-1.7,1.03-.41,2.17-.61,3.42-.61,.6,0,1.17,.05,1.71,.16,.53,.11,1.03,.25,1.5,.44,.46,.19,.89,.41,1.28,.67,.39,.26,.74,.55,1.04,.87l-1.26,1.69c-.08,.1-.18,.2-.29,.28-.11,.08-.27,.13-.46,.13-.13,0-.26-.03-.38-.09-.12-.06-.24-.13-.38-.22-.13-.08-.28-.18-.44-.28-.16-.1-.35-.19-.56-.28-.22-.08-.47-.16-.76-.22-.29-.06-.63-.09-1.02-.09-.68,0-1.3,.12-1.86,.36-.56,.24-1.04,.58-1.44,1.03-.4,.45-.72,.99-.94,1.62-.22,.63-.34,1.35-.34,2.13s.11,1.56,.34,2.2c.23,.64,.53,1.18,.92,1.62,.39,.44,.84,.77,1.35,1,.52,.23,1.07,.34,1.66,.34,.34,0,.65-.02,.93-.05,.28-.03,.54-.09,.78-.17,.24-.08,.47-.19,.69-.32,.22-.13,.44-.29,.66-.48,.09-.07,.18-.13,.29-.18,.1-.05,.21-.07,.32-.07h0Z"/><path class="cls-3" d="M22.88,93.51h1.5c.51,0,.94-.06,1.3-.19,.36-.13,.65-.31,.88-.54,.23-.23,.39-.5,.5-.8,.1-.31,.15-.64,.15-.99,0-.71-.23-1.26-.69-1.66-.46-.4-1.17-.6-2.14-.6h-1.5v4.78h0Zm0,2.58v5.96h-3.74v-16.12h5.24c1.16,0,2.16,.12,2.98,.36,.82,.24,1.49,.57,2.01,1,.52,.43,.9,.93,1.13,1.51,.24,.58,.35,1.22,.35,1.9,0,.52-.07,1.02-.21,1.48-.14,.47-.35,.89-.63,1.29-.28,.39-.62,.75-1.02,1.06-.4,.31-.86,.56-1.39,.76,.25,.13,.48,.28,.7,.46,.22,.18,.41,.41,.57,.67l3.43,5.61h-3.38c-.63,0-1.08-.24-1.35-.71l-2.68-4.68c-.12-.21-.26-.35-.41-.44-.16-.09-.38-.13-.67-.13h-.95Z"/><path class="cls-3" d="M39.96,95.88h4.4l-1.48-4.41c-.1-.28-.21-.61-.34-.99-.13-.38-.26-.79-.38-1.23-.12,.45-.24,.87-.36,1.25-.13,.38-.24,.72-.35,1l-1.48,4.39h0Zm10.35,6.16h-2.9c-.32,0-.59-.08-.8-.23-.21-.15-.36-.34-.44-.58l-.95-2.81h-6.13l-.95,2.81c-.07,.21-.22,.39-.43,.56-.21,.17-.48,.25-.79,.25h-2.92l6.24-16.12h3.83l6.24,16.12h0Z"/><polygon class="cls-3" points="62.57 85.93 62.57 88.81 55.95 88.81 55.95 92.89 61.46 92.89 61.46 95.77 55.95 95.77 55.95 102.05 52.19 102.05 52.19 85.93 62.57 85.93 62.57 85.93"/><polygon class="cls-3" points="77.23 85.93 77.23 88.89 72.7 88.89 72.7 102.05 68.96 102.05 68.96 88.89 64.43 88.89 64.43 85.93 77.23 85.93 77.23 85.93"/><path class="cls-3" d="M87.58,95.55c.14,.3,.27,.61,.39,.93,.12-.32,.26-.64,.4-.95,.14-.31,.28-.6,.43-.89l4.14-8.15c.07-.14,.15-.25,.23-.33,.08-.08,.16-.13,.26-.17,.1-.04,.2-.06,.33-.06h3.28v16.1h-3.3v-9.27c0-.45,.02-.94,.07-1.46l-4.27,8.28c-.13,.26-.31,.45-.54,.59-.22,.13-.48,.2-.77,.2h-.51c-.29,0-.54-.07-.77-.2-.22-.13-.4-.33-.54-.59l-4.29-8.29c.03,.26,.05,.51,.07,.77,.01,.25,.02,.49,.02,.7v9.27h-3.3v-16.1h3.28c.12,0,.23,.02,.33,.06,.1,.04,.18,.09,.26,.17,.08,.08,.15,.19,.23,.33l4.15,8.18c.15,.28,.29,.57,.43,.87h0Z"/><path class="cls-3" d="M104.46,95.88h4.4l-1.48-4.41c-.1-.28-.21-.61-.34-.99-.13-.38-.26-.79-.38-1.23-.12,.45-.24,.87-.36,1.25-.13,.38-.24,.72-.35,1l-1.48,4.39h0Zm10.35,6.16h-2.9c-.32,0-.59-.08-.8-.23-.21-.15-.36-.34-.44-.58l-.95-2.81h-6.13l-.95,2.81c-.07,.21-.22,.39-.43,.56-.21,.17-.48,.25-.79,.25h-2.92l6.24-16.12h3.83l6.24,16.12h0Z"/><path class="cls-3" d="M120.44,93.51h1.5c.51,0,.94-.06,1.3-.19,.36-.13,.65-.31,.88-.54,.23-.23,.39-.5,.5-.8,.1-.31,.16-.64,.16-.99,0-.71-.23-1.26-.69-1.66-.46-.4-1.17-.6-2.14-.6h-1.5v4.78h0Zm0,2.58v5.96h-3.74v-16.12h5.24c1.16,0,2.16,.12,2.98,.36,.82,.24,1.49,.57,2.01,1,.52,.43,.9,.93,1.13,1.51,.24,.58,.35,1.22,.35,1.9,0,.52-.07,1.02-.21,1.48-.14,.47-.35,.89-.62,1.29-.28,.39-.62,.75-1.02,1.06-.4,.31-.86,.56-1.39,.76,.25,.13,.48,.28,.7,.46,.22,.18,.41,.41,.57,.67l3.43,5.61h-3.38c-.63,0-1.08-.24-1.35-.71l-2.68-4.68c-.12-.21-.26-.35-.42-.44-.16-.09-.38-.13-.67-.13h-.95Z"/><path class="cls-3" d="M135.72,92.46h.6c.55,0,.95-.17,1.19-.52l3.63-5.27c.2-.29,.43-.48,.68-.59,.25-.1,.57-.16,.93-.16h3.25l-4.78,6.52c-.17,.24-.35,.43-.53,.59-.18,.15-.37,.28-.56,.39,.28,.1,.54,.25,.77,.43,.23,.18,.44,.42,.64,.72l4.87,7.48h-3.34c-.21,0-.4-.01-.55-.04-.15-.03-.28-.07-.39-.13-.11-.06-.21-.13-.29-.22-.08-.08-.16-.18-.23-.29l-3.65-5.61c-.13-.21-.3-.35-.5-.44-.2-.08-.48-.13-.82-.13h-.91v6.86h-3.74v-16.12h3.74v6.53h0Z"/><polygon class="cls-3" points="169.03 102.05 165.27 102.05 165.27 95.23 158.73 95.23 158.73 102.05 154.97 102.05 154.97 85.93 158.73 85.93 158.73 92.67 165.27 92.67 165.27 85.93 169.03 85.93 169.03 102.05 169.03 102.05"/><path class="cls-3" d="M184.34,93.98c0-.8-.1-1.51-.31-2.15-.21-.64-.5-1.18-.89-1.62-.39-.44-.86-.78-1.42-1.02-.56-.24-1.2-.35-1.91-.35s-1.37,.12-1.93,.35c-.56,.24-1.04,.57-1.43,1.02-.39,.44-.68,.98-.89,1.62-.21,.64-.31,1.35-.31,2.15s.1,1.52,.31,2.16c.21,.64,.5,1.18,.89,1.62,.39,.44,.86,.78,1.43,1.01,.56,.23,1.21,.35,1.93,.35s1.35-.12,1.91-.35c.56-.23,1.03-.57,1.42-1.01,.39-.44,.68-.98,.89-1.62,.21-.64,.31-1.36,.31-2.16h0Zm3.83,0c0,1.16-.2,2.25-.6,3.25-.4,1-.97,1.87-1.7,2.62-.73,.74-1.61,1.32-2.64,1.74-1.03,.42-2.17,.63-3.42,.63s-2.4-.21-3.43-.63c-1.03-.42-1.92-1-2.65-1.74-.73-.74-1.3-1.61-1.7-2.62-.4-1-.6-2.09-.6-3.25s.2-2.25,.6-3.25c.4-1,.97-1.87,1.7-2.61,.73-.74,1.62-1.32,2.65-1.74,1.03-.42,2.17-.63,3.43-.63s2.39,.21,3.42,.64c1.03,.42,1.91,1,2.64,1.74,.73,.74,1.29,1.61,1.7,2.61,.4,1,.6,2.08,.6,3.24h0Z"/><path class="cls-3" d="M199.2,95.55c.14,.3,.27,.61,.39,.93,.12-.32,.26-.64,.4-.95,.14-.31,.28-.6,.43-.89l4.14-8.15c.07-.14,.15-.25,.23-.33,.08-.08,.16-.13,.26-.17,.1-.04,.2-.06,.33-.06h3.28v16.1h-3.3v-9.27c0-.45,.02-.94,.07-1.46l-4.27,8.28c-.13,.26-.31,.45-.54,.59-.22,.13-.48,.2-.77,.2h-.51c-.29,0-.54-.07-.77-.2-.22-.13-.4-.33-.54-.59l-4.29-8.29c.03,.26,.05,.51,.07,.77,.01,.25,.02,.49,.02,.7v9.27h-3.3v-16.1h3.28c.12,0,.23,.02,.33,.06,.1,.04,.18,.09,.26,.17,.08,.08,.15,.19,.23,.33l4.15,8.18c.15,.28,.29,.57,.43,.87h0Z"/><polygon class="cls-3" points="222.26 85.93 222.26 88.81 215.64 88.81 215.64 92.57 220.71 92.57 220.71 95.33 215.64 95.33 215.64 99.17 222.26 99.17 222.26 102.05 211.88 102.05 211.88 85.93 222.26 85.93 222.26 85.93"/><path class="cls-3" d="M234.38,89.2c-.11,.18-.23,.31-.35,.4-.12,.09-.28,.13-.47,.13-.17,0-.35-.05-.55-.16-.2-.11-.42-.23-.66-.36-.25-.13-.53-.25-.85-.36-.32-.11-.68-.16-1.08-.16-.7,0-1.22,.15-1.56,.45-.34,.3-.52,.7-.52,1.21,0,.32,.1,.59,.31,.81,.21,.21,.48,.4,.81,.55,.33,.16,.72,.3,1.15,.43,.43,.13,.87,.27,1.32,.43,.45,.16,.89,.35,1.32,.56,.43,.21,.81,.49,1.15,.82,.34,.33,.61,.74,.81,1.21,.21,.48,.31,1.05,.31,1.72,0,.75-.13,1.44-.39,2.09-.26,.65-.63,1.21-1.12,1.7-.49,.48-1.1,.86-1.81,1.14-.72,.28-1.53,.41-2.45,.41-.5,0-1.01-.05-1.53-.15-.52-.1-1.02-.25-1.51-.44-.49-.19-.95-.41-1.37-.67-.43-.26-.8-.55-1.12-.86l1.11-1.75c.08-.13,.19-.24,.34-.32,.15-.08,.31-.12,.48-.12,.22,0,.44,.07,.67,.21,.23,.14,.48,.3,.76,.46,.28,.17,.61,.33,.98,.46,.37,.14,.8,.21,1.31,.21,.68,0,1.21-.15,1.58-.45,.38-.3,.56-.77,.56-1.42,0-.38-.1-.68-.31-.92-.21-.24-.48-.43-.81-.59-.34-.15-.72-.29-1.14-.41-.43-.12-.87-.25-1.32-.39-.45-.14-.89-.32-1.32-.53-.43-.21-.81-.49-1.14-.83-.34-.34-.61-.77-.81-1.28-.21-.51-.31-1.15-.31-1.9,0-.6,.12-1.19,.37-1.77,.24-.57,.6-1.09,1.07-1.54,.47-.45,1.05-.81,1.74-1.08,.69-.27,1.47-.4,2.36-.4,.49,0,.98,.04,1.44,.12,.47,.08,.91,.19,1.33,.34,.42,.15,.81,.33,1.18,.54,.36,.21,.69,.45,.98,.71l-.93,1.74h0Z"/><polygon class="cls-3" points="235.61 74.12 2.63 74.12 2.63 72.89 235.61 72.89 235.61 74.12 235.61 74.12"/><text class="cls-1" transform="translate(0 34.47)"><tspan x="0" y="0">CL</tspan></text><text class="cls-1" transform="translate(48.24 34.47)"><tspan x="0" y="0">AR</tspan></text><text class="cls-5" transform="translate(94.08 34.47)"><tspan x="0" y="0">KS</tspan></text><text class="cls-4" transform="translate(137.79 34.47)"><tspan x="0" y="0">BU</tspan></text><text class="cls-2" transform="translate(185.2 34.47)"><tspan x="0" y="0">RG</tspan></text><text class="cls-7" transform="translate(36.81 61.39)"><tspan x="0" y="0">TO</tspan></text><text class="cls-6" transform="translate(67.02 61.39)"><tspan x="0" y="0">WN CENTER</tspan></text></svg>