<svg xmlns="http://www.w3.org/2000/svg" xmlns:xlink="http://www.w3.org/1999/xlink" width="266" height="110" viewBox="0 0 266 110">
  <defs>
    <clipPath id="clip-B3_14">
      <rect width="266" height="110"/>
    </clipPath>
  </defs>
  <g id="B3_14" data-name="B3 – 14" clip-path="url(#clip-B3_14)">
    <g id="Group_27" data-name="Group 27" transform="translate(-117.378 -328.974)">
      <path id="Path_61" data-name="Path 61" d="M131.093,433.93a.827.827,0,0,1,.3.056.808.808,0,0,1,.289.2l1.685,1.773a6.978,6.978,0,0,1-2.773,2.182,9.7,9.7,0,0,1-3.943.736,9.408,9.408,0,0,1-3.742-.71,8.121,8.121,0,0,1-2.805-1.963,8.628,8.628,0,0,1-1.767-2.968,10.956,10.956,0,0,1-.616-3.729,9.829,9.829,0,0,1,.7-3.768,8.681,8.681,0,0,1,4.993-4.9,10.55,10.55,0,0,1,3.887-.692,9.873,9.873,0,0,1,1.943.182,9.624,9.624,0,0,1,1.705.5,8.1,8.1,0,0,1,1.459.767,7.058,7.058,0,0,1,1.182.989l-1.434,1.924a1.806,1.806,0,0,1-.327.32.854.854,0,0,1-.528.145.945.945,0,0,1-.428-.1,4.49,4.49,0,0,1-.427-.246l-.5-.313a3.754,3.754,0,0,0-.641-.314,5.276,5.276,0,0,0-.869-.246,5.924,5.924,0,0,0-1.163-.1,5.308,5.308,0,0,0-2.113.409,4.623,4.623,0,0,0-1.642,1.17,5.438,5.438,0,0,0-1.069,1.843,7.212,7.212,0,0,0-.383,2.427,7.553,7.553,0,0,0,.383,2.5,5.517,5.517,0,0,0,1.044,1.842,4.439,4.439,0,0,0,1.541,1.138,4.607,4.607,0,0,0,1.887.39,8.961,8.961,0,0,0,1.056-.057,4.33,4.33,0,0,0,.887-.2,4.043,4.043,0,0,0,.779-.359,5.134,5.134,0,0,0,.749-.546,1.525,1.525,0,0,1,.327-.209.88.88,0,0,1,.365-.08Z" fill="#033d55"/>
      <path id="Path_62" data-name="Path 62" d="M140.715,428.961h1.711a4.366,4.366,0,0,0,1.477-.22,2.659,2.659,0,0,0,1-.61,2.315,2.315,0,0,0,.566-.911,3.521,3.521,0,0,0,.176-1.127,2.358,2.358,0,0,0-.786-1.886,3.656,3.656,0,0,0-2.433-.679h-1.711v5.433Zm0,2.931v6.779h-4.252V420.345h5.963a12.214,12.214,0,0,1,3.389.409,6.376,6.376,0,0,1,2.289,1.139,4.3,4.3,0,0,1,1.289,1.722,5.7,5.7,0,0,1,.4,2.164,5.821,5.821,0,0,1-.239,1.685,5.107,5.107,0,0,1-.711,1.466,5.515,5.515,0,0,1-1.157,1.2,6.163,6.163,0,0,1-1.579.869,4,4,0,0,1,.8.528,3.159,3.159,0,0,1,.647.766l3.9,6.378h-3.849a1.634,1.634,0,0,1-1.534-.8l-3.044-5.32a1.287,1.287,0,0,0-.472-.5,1.575,1.575,0,0,0-.761-.15Z" fill="#033d55"/>
      <path id="Path_63" data-name="Path 63" d="M160.135,431.666h5.006l-1.686-5.019q-.164-.479-.383-1.126t-.434-1.4q-.2.767-.415,1.42t-.4,1.133l-1.685,4.994Zm11.773,7.005h-3.3a1.525,1.525,0,0,1-.912-.258,1.319,1.319,0,0,1-.5-.661l-1.082-3.194h-6.968l-1.082,3.194a1.451,1.451,0,0,1-1.383.919h-3.321l7.094-18.326h4.352l7.094,18.326Z" fill="#033d55"/>
      <path id="Path_64" data-name="Path 64" d="M185.844,420.345v3.27h-7.521v4.642h6.263v3.283h-6.263v7.131h-4.276V420.345Z" fill="#033d55"/>
      <path id="Path_65" data-name="Path 65" d="M202.522,420.345v3.371h-5.157v14.955h-4.251V423.716h-5.156v-3.371Z" fill="#033d55"/>
      <path id="Path_66" data-name="Path 66" d="M214.287,431.286q.234.518.447,1.058c.142-.369.294-.727.453-1.076s.323-.686.491-1.013l4.7-9.267a1.481,1.481,0,0,1,.257-.371.86.86,0,0,1,.3-.2,1.027,1.027,0,0,1,.371-.063h3.729v18.313h-3.747v-10.54c0-.512.025-1.064.075-1.661l-4.855,9.421a1.618,1.618,0,0,1-.61.668,1.706,1.706,0,0,1-.874.226h-.579a1.7,1.7,0,0,1-.874-.226,1.605,1.605,0,0,1-.61-.668l-4.881-9.433c.034.293.059.585.076.874s.026.556.026.8v10.54h-3.749V420.358h3.729a1.029,1.029,0,0,1,.372.063.856.856,0,0,1,.295.2,1.508,1.508,0,0,1,.258.371l4.716,9.3q.252.479.484.994Z" fill="#033d55"/>
      <path id="Path_67" data-name="Path 67" d="M233.488,431.666h5.006l-1.686-5.019q-.163-.479-.383-1.126t-.434-1.4q-.2.767-.415,1.42t-.4,1.133l-1.685,4.994Zm11.773,7.005h-3.3a1.527,1.527,0,0,1-.912-.258,1.319,1.319,0,0,1-.5-.661l-1.082-3.194h-6.968l-1.082,3.194a1.451,1.451,0,0,1-1.383.919h-3.321l7.094-18.326h4.352l7.094,18.326Z" fill="#033d55"/>
      <path id="Path_68" data-name="Path 68" d="M251.65,428.961h1.711a4.362,4.362,0,0,0,1.477-.22,2.663,2.663,0,0,0,1-.61,2.327,2.327,0,0,0,.566-.911,3.493,3.493,0,0,0,.177-1.127,2.359,2.359,0,0,0-.787-1.886,3.659,3.659,0,0,0-2.434-.679H251.65v5.433Zm0,2.931v6.779H247.4V420.345h5.962a12.227,12.227,0,0,1,3.39.409,6.406,6.406,0,0,1,2.29,1.139,4.3,4.3,0,0,1,1.288,1.722,5.7,5.7,0,0,1,.4,2.164,5.787,5.787,0,0,1-.239,1.685,5.079,5.079,0,0,1-.71,1.466,5.475,5.475,0,0,1-1.158,1.2,6.123,6.123,0,0,1-1.578.869,3.964,3.964,0,0,1,.8.528,3.161,3.161,0,0,1,.648.766l3.9,6.378h-3.848a1.635,1.635,0,0,1-1.536-.8l-3.043-5.32a1.287,1.287,0,0,0-.472-.5,1.573,1.573,0,0,0-.76-.15Z" fill="#033d55"/>
      <path id="Path_69" data-name="Path 69" d="M269.033,427.767h.679a1.549,1.549,0,0,0,1.359-.591l4.125-5.988a1.773,1.773,0,0,1,.773-.667,2.841,2.841,0,0,1,1.063-.176h3.7l-5.435,7.409a3.624,3.624,0,0,1-.6.666,3.805,3.805,0,0,1-.641.441,3.292,3.292,0,0,1,.873.483,3.205,3.205,0,0,1,.723.824l5.535,8.5h-3.8a3.181,3.181,0,0,1-.623-.051,1.537,1.537,0,0,1-.446-.15,1.31,1.31,0,0,1-.328-.246,2.4,2.4,0,0,1-.263-.332l-4.152-6.378a1.245,1.245,0,0,0-.572-.5,2.51,2.51,0,0,0-.937-.144h-1.031v7.8h-4.251V420.345h4.251v7.422Z" fill="#033d55"/>
      <path id="Path_70" data-name="Path 70" d="M306.917,438.671h-4.277v-7.748h-7.444v7.748h-4.277V420.345h4.277v7.661h7.444v-7.661h4.277v18.327Z" fill="#033d55"/>
      <path id="Path_71" data-name="Path 71" d="M324.324,429.5a7.916,7.916,0,0,0-.353-2.446,5.191,5.191,0,0,0-1.012-1.843,4.363,4.363,0,0,0-1.616-1.157,5.554,5.554,0,0,0-2.176-.4,5.625,5.625,0,0,0-2.194.4,4.344,4.344,0,0,0-1.624,1.157,5.19,5.19,0,0,0-1.012,1.843,8.719,8.719,0,0,0,0,4.9,5.177,5.177,0,0,0,1.012,1.842,4.288,4.288,0,0,0,1.624,1.152,5.738,5.738,0,0,0,2.194.4,5.666,5.666,0,0,0,2.176-.4,4.307,4.307,0,0,0,1.616-1.152,5.178,5.178,0,0,0,1.012-1.842,7.965,7.965,0,0,0,.353-2.459Zm4.351,0a9.867,9.867,0,0,1-.685,3.7,8.727,8.727,0,0,1-4.931,4.955,10.941,10.941,0,0,1-7.791,0,8.911,8.911,0,0,1-3.012-1.98,8.822,8.822,0,0,1-1.937-2.975,10.31,10.31,0,0,1,0-7.4,8.777,8.777,0,0,1,1.937-2.969,8.942,8.942,0,0,1,3.012-1.974,10.242,10.242,0,0,1,3.9-.717,10.124,10.124,0,0,1,3.892.724,8.742,8.742,0,0,1,4.931,4.948,9.841,9.841,0,0,1,.685,3.686Z" fill="#033d55"/>
      <path id="Path_72" data-name="Path 72" d="M341.221,431.286c.155.345.3.7.447,1.058q.213-.553.453-1.076t.49-1.013l4.705-9.267a1.456,1.456,0,0,1,.257-.371.838.838,0,0,1,.3-.2,1.027,1.027,0,0,1,.371-.063h3.73v18.313H348.22v-10.54c0-.512.026-1.064.077-1.661l-4.856,9.421a1.594,1.594,0,0,1-.611.668,1.7,1.7,0,0,1-.873.226h-.578a1.707,1.707,0,0,1-.875-.226,1.605,1.605,0,0,1-.61-.668l-4.879-9.433c.033.293.057.585.075.874s.024.556.024.8v10.54h-3.747V420.358H335.1a1.016,1.016,0,0,1,.371.063.841.841,0,0,1,.3.2,1.536,1.536,0,0,1,.259.371l4.716,9.3q.252.479.484.994Z" fill="#033d55"/>
      <path id="Path_73" data-name="Path 73" d="M367.44,420.345v3.27h-7.522v4.277h5.761v3.144h-5.761V435.4h7.522v3.27h-11.8V420.345Z" fill="#033d55"/>
      <path id="Path_74" data-name="Path 74" d="M381.225,424.068a1.617,1.617,0,0,1-.4.453.886.886,0,0,1-.536.152,1.319,1.319,0,0,1-.622-.183l-.754-.41a6.441,6.441,0,0,0-.963-.408,3.857,3.857,0,0,0-1.232-.182,2.647,2.647,0,0,0-1.779.51,1.727,1.727,0,0,0-.586,1.377,1.27,1.27,0,0,0,.352.917,3.013,3.013,0,0,0,.926.629,9.61,9.61,0,0,0,1.307.485c.491.147.992.309,1.5.49a13.858,13.858,0,0,1,1.5.635,5.029,5.029,0,0,1,1.307.931,4.329,4.329,0,0,1,.925,1.377,4.9,4.9,0,0,1,.352,1.956,6.364,6.364,0,0,1-.441,2.378,5.585,5.585,0,0,1-1.275,1.931,5.965,5.965,0,0,1-2.064,1.3,7.728,7.728,0,0,1-2.786.471,8.952,8.952,0,0,1-1.741-.176,10.356,10.356,0,0,1-1.717-.5,9.834,9.834,0,0,1-1.559-.76,6.645,6.645,0,0,1-1.272-.981l1.259-1.988a1,1,0,0,1,.389-.364,1.1,1.1,0,0,1,.541-.14,1.436,1.436,0,0,1,.761.24c.256.159.544.335.868.527a6.826,6.826,0,0,0,1.113.529,4.156,4.156,0,0,0,1.484.24,2.824,2.824,0,0,0,1.8-.51,1.941,1.941,0,0,0,.641-1.616,1.534,1.534,0,0,0-.352-1.044,2.728,2.728,0,0,0-.924-.666,8.542,8.542,0,0,0-1.3-.466q-.73-.2-1.5-.446a11.027,11.027,0,0,1-1.5-.605,4.674,4.674,0,0,1-1.3-.943,4.41,4.41,0,0,1-.925-1.459,5.788,5.788,0,0,1-.353-2.158,5.1,5.1,0,0,1,.416-2.011,5.184,5.184,0,0,1,1.22-1.748,6.006,6.006,0,0,1,1.974-1.227,7.308,7.308,0,0,1,2.68-.459,10.06,10.06,0,0,1,1.642.132,8.61,8.61,0,0,1,1.514.39,8.178,8.178,0,0,1,1.341.616,6.211,6.211,0,0,1,1.112.811l-1.056,1.975Z" fill="#033d55"/>
      <path id="Path_75" data-name="Path 75" d="M382.622,406.911H117.684v-1.4H382.622v1.4Z" fill="#033d55"/>
      <g id="Group_20" data-name="Group 20">
        <path id="Path_76" data-name="Path 76" d="M142.927,356.359a.531.531,0,0,1,.39.161l.919.987a15.491,15.491,0,0,1-2.193,1.94,13.356,13.356,0,0,1-2.594,1.469,15.263,15.263,0,0,1-3.1.941,19.168,19.168,0,0,1-3.707.333,15.806,15.806,0,0,1-6.186-1.182,13.846,13.846,0,0,1-4.832-3.352,15.143,15.143,0,0,1-3.133-5.245,19.958,19.958,0,0,1-1.114-6.841,19.054,19.054,0,0,1,1.148-6.749,15.505,15.505,0,0,1,3.213-5.245,14.258,14.258,0,0,1,4.959-3.4,16.439,16.439,0,0,1,6.381-1.2,15.091,15.091,0,0,1,10.582,3.948l-.711,1.033a.641.641,0,0,1-.574.276,1.855,1.855,0,0,1-.9-.5,11.858,11.858,0,0,0-1.722-1.114,14.606,14.606,0,0,0-2.743-1.113,13.476,13.476,0,0,0-3.937-.505A13.953,13.953,0,0,0,127.7,332a11.883,11.883,0,0,0-4.2,2.892,13.351,13.351,0,0,0-2.743,4.591,19.34,19.34,0,0,0,.012,12.235,13.434,13.434,0,0,0,2.743,4.58,11.827,11.827,0,0,0,4.121,2.869,13.1,13.1,0,0,0,5.13,1,18.908,18.908,0,0,0,3.11-.229,12.211,12.211,0,0,0,2.514-.689,11.32,11.32,0,0,0,2.135-1.125,16.247,16.247,0,0,0,1.951-1.561,1.264,1.264,0,0,1,.23-.149A.508.508,0,0,1,142.927,356.359Z" fill="#033d55"/>
        <path id="Path_77" data-name="Path 77" d="M165.515,359.826v2H147.77V329.341h2.365v30.485Z" fill="#033d55"/>
      </g>
      <g id="Group_21" data-name="Group 21">
        <path id="Path_78" data-name="Path 78" d="M199.051,361.823h-1.813a.793.793,0,0,1-.528-.173,1.142,1.142,0,0,1-.322-.447l-3.81-9.435H176.624l-3.811,9.435a.977.977,0,0,1-.321.436.852.852,0,0,1-.551.184H170.15l13.292-32.482h2.318Zm-7.185-11.8-6.611-16.413a16.447,16.447,0,0,1-.666-1.929q-.138.552-.3,1.045a9.281,9.281,0,0,1-.345.907l-6.61,16.39Z" fill="#033d55"/>
        <path id="Path_79" data-name="Path 79" d="M224.094,361.823h-2.02a1.5,1.5,0,0,1-.654-.127,1.285,1.285,0,0,1-.493-.47L210.505,348.05a3.151,3.151,0,0,0-.379-.437,1.47,1.47,0,0,0-.436-.286,2.238,2.238,0,0,0-.574-.15,6.2,6.2,0,0,0-.815-.046h-4.246v14.692H201.69V329.341H210q5.6,0,8.39,2.169a7.58,7.58,0,0,1,2.789,6.37,8.718,8.718,0,0,1-.643,3.4,7.957,7.957,0,0,1-1.848,2.7,9.642,9.642,0,0,1-2.915,1.894,13.785,13.785,0,0,1-3.845.987,3.711,3.711,0,0,1,.987.918Zm-14.415-16.436a13.389,13.389,0,0,0,3.868-.517,8.331,8.331,0,0,0,2.892-1.48,6.4,6.4,0,0,0,1.8-2.319,7.254,7.254,0,0,0,.62-3.053,5.981,5.981,0,0,0-2.262-5.142q-2.261-1.676-6.6-1.676h-5.945v14.187Z" fill="#033d55"/>
      </g>
      <g id="Group_22" data-name="Group 22">
        <path id="Path_80" data-name="Path 80" d="M228.848,344.331h1.928a7.21,7.21,0,0,0,.758-.035,2.541,2.541,0,0,0,.585-.126,1.629,1.629,0,0,0,.482-.264,5.42,5.42,0,0,0,.47-.425l13.108-13.474a1.925,1.925,0,0,1,.677-.528,2.062,2.062,0,0,1,.792-.138h1.883l-14.187,14.577a6.649,6.649,0,0,1-.769.711,3,3,0,0,1-.746.413,2.732,2.732,0,0,1,.872.425,4.757,4.757,0,0,1,.781.746l14.944,15.61H248.52a1.843,1.843,0,0,1-.86-.149,1.8,1.8,0,0,1-.517-.471l-13.727-14.049c-.169-.168-.325-.313-.471-.436a2.142,2.142,0,0,0-1.1-.493,5.784,5.784,0,0,0-.907-.058h-2.089v15.656h-2.365V329.341h2.365Z" fill="#033d55"/>
        <path id="Path_81" data-name="Path 81" d="M269.57,333.289a.647.647,0,0,1-.6.391,1.324,1.324,0,0,1-.769-.425,9.868,9.868,0,0,0-3.283-1.894,10.075,10.075,0,0,0-6.082.069,6.494,6.494,0,0,0-2.25,1.377,5.866,5.866,0,0,0-1.378,2.02,6.311,6.311,0,0,0-.47,2.411,4.921,4.921,0,0,0,.7,2.731,6.308,6.308,0,0,0,1.848,1.837,11.977,11.977,0,0,0,2.605,1.274q1.458.516,3,1.021t3,1.113a10.85,10.85,0,0,1,2.605,1.527A7.011,7.011,0,0,1,270.339,349a7.172,7.172,0,0,1,.7,3.34,10.513,10.513,0,0,1-.7,3.845,8.971,8.971,0,0,1-2.032,3.134,9.523,9.523,0,0,1-3.259,2.1,11.823,11.823,0,0,1-4.408.769,12.46,12.46,0,0,1-5.532-1.136,13.026,13.026,0,0,1-4.063-3.111l.643-1.01a.808.808,0,0,1,.643-.344.921.921,0,0,1,.527.275q.322.276.781.677t1.1.873a9.039,9.039,0,0,0,1.492.872,10.506,10.506,0,0,0,1.951.677,10.333,10.333,0,0,0,2.5.276,9.485,9.485,0,0,0,3.444-.586,7.525,7.525,0,0,0,2.559-1.6,6.759,6.759,0,0,0,1.6-2.4,7.97,7.97,0,0,0,.551-2.972,5.239,5.239,0,0,0-.7-2.835,6.027,6.027,0,0,0-1.848-1.86,11.937,11.937,0,0,0-2.6-1.251q-1.458-.5-3-.987t-3-1.079a10.327,10.327,0,0,1-2.6-1.526,7,7,0,0,1-1.848-2.319,7.687,7.687,0,0,1-.7-3.478,8.239,8.239,0,0,1,.62-3.145,7.83,7.83,0,0,1,1.813-2.674,8.936,8.936,0,0,1,2.95-1.859,10.745,10.745,0,0,1,4.006-.7,12.13,12.13,0,0,1,4.533.8,10.877,10.877,0,0,1,3.662,2.456Z" fill="#033d55"/>
      </g>
      <g id="Group_23" data-name="Group 23">
        <path id="Path_82" data-name="Path 82" d="M285.522,329.341a18.671,18.671,0,0,1,4.821.551,9.137,9.137,0,0,1,3.374,1.618,6.524,6.524,0,0,1,1.974,2.606,8.983,8.983,0,0,1,.643,3.489,7.012,7.012,0,0,1-.447,2.479,7.663,7.663,0,0,1-1.286,2.2,8.172,8.172,0,0,1-2.066,1.756,9.98,9.98,0,0,1-2.813,1.136,10.359,10.359,0,0,1,5.889,2.537,6.934,6.934,0,0,1,2.054,5.222,9.076,9.076,0,0,1-.734,3.719,7.529,7.529,0,0,1-2.135,2.8,9.734,9.734,0,0,1-3.444,1.756,16.229,16.229,0,0,1-4.637.609H276.179V329.341Zm-6.978,1.859v13.337h7.024a11.422,11.422,0,0,0,3.845-.573,7.637,7.637,0,0,0,2.617-1.515,5.9,5.9,0,0,0,1.5-2.135,6.494,6.494,0,0,0,.482-2.457,6.024,6.024,0,0,0-2.077-4.969q-2.077-1.687-6.416-1.688Zm8.149,28.741q4.269,0,6.462-1.849a6.425,6.425,0,0,0,2.192-5.2,6.34,6.34,0,0,0-.586-2.766,5.778,5.778,0,0,0-1.687-2.089,7.865,7.865,0,0,0-2.709-1.32,13.3,13.3,0,0,0-3.65-.459h-8.171v13.682Z" fill="#033d55"/>
        <path id="Path_83" data-name="Path 83" d="M313.412,360.147a10.286,10.286,0,0,0,4.189-.815,8.977,8.977,0,0,0,3.133-2.261,9.941,9.941,0,0,0,1.964-3.409,12.909,12.909,0,0,0,.676-4.235V329.341h2.342v20.086a14.537,14.537,0,0,1-.849,5.016,12.02,12.02,0,0,1-2.445,4.063,11.287,11.287,0,0,1-3.88,2.72,13.828,13.828,0,0,1-10.261,0,11.273,11.273,0,0,1-3.879-2.72,11.969,11.969,0,0,1-2.444-4.063,14.514,14.514,0,0,1-.85-5.016V329.341h2.364V349.4a12.883,12.883,0,0,0,.678,4.235,10.044,10.044,0,0,0,1.951,3.409,9,9,0,0,0,3.121,2.273A10.177,10.177,0,0,0,313.412,360.147Z" fill="#033d55"/>
      </g>
      <g id="Group_24" data-name="Group 24">
        <path id="Path_84" data-name="Path 84" d="M352.5,361.823h-2.02a1.5,1.5,0,0,1-.654-.127,1.287,1.287,0,0,1-.494-.47L338.912,348.05a3.08,3.08,0,0,0-.378-.437,1.474,1.474,0,0,0-.437-.286,2.23,2.23,0,0,0-.573-.15,6.208,6.208,0,0,0-.815-.046h-4.247v14.692H330.1V329.341h8.31q5.6,0,8.39,2.169a7.579,7.579,0,0,1,2.789,6.37,8.719,8.719,0,0,1-.643,3.4,7.971,7.971,0,0,1-1.848,2.7,9.642,9.642,0,0,1-2.915,1.894,13.794,13.794,0,0,1-3.845.987,3.726,3.726,0,0,1,.987.918Zm-14.416-16.436a13.384,13.384,0,0,0,3.868-.517,8.331,8.331,0,0,0,2.892-1.48,6.4,6.4,0,0,0,1.8-2.319,7.253,7.253,0,0,0,.62-3.053,5.984,5.984,0,0,0-2.262-5.142q-2.26-1.676-6.6-1.676h-5.946v14.187Z" fill="#033d55"/>
        <path id="Path_85" data-name="Path 85" d="M381.1,347.085v11.547a19.743,19.743,0,0,1-5.188,2.64,19.54,19.54,0,0,1-6.2.918,19.2,19.2,0,0,1-6.932-1.182,14.836,14.836,0,0,1-5.246-3.352,14.575,14.575,0,0,1-3.328-5.245,19.258,19.258,0,0,1-1.16-6.841,19.512,19.512,0,0,1,1.137-6.829,14.664,14.664,0,0,1,3.259-5.234,14.5,14.5,0,0,1,5.131-3.351,18.385,18.385,0,0,1,6.772-1.182,21.733,21.733,0,0,1,3.431.252,15.941,15.941,0,0,1,2.927.746,13.835,13.835,0,0,1,2.526,1.217,17.1,17.1,0,0,1,2.249,1.664l-.643,1.01a.661.661,0,0,1-.964.253,4.629,4.629,0,0,1-.987-.643,10.142,10.142,0,0,0-1.767-1.056,15.169,15.169,0,0,0-2.79-.987,16.187,16.187,0,0,0-4.051-.436,15.479,15.479,0,0,0-5.728,1.01,12.107,12.107,0,0,0-4.361,2.892,12.826,12.826,0,0,0-2.777,4.591,17.851,17.851,0,0,0-.976,6.083,18.186,18.186,0,0,0,.976,6.152,12.668,12.668,0,0,0,2.823,4.637,12.257,12.257,0,0,0,4.488,2.916,16.539,16.539,0,0,0,5.945,1.01,18.032,18.032,0,0,0,2.674-.184,16.83,16.83,0,0,0,2.342-.516,15.242,15.242,0,0,0,2.158-.827q1.044-.494,2.123-1.113V348.9h-6.221a.6.6,0,0,1-.425-.161.492.492,0,0,1-.172-.367v-1.286Z" fill="#033d55"/>
      </g>
      <g id="Group_25" data-name="Group 25">
        <path id="Path_86" data-name="Path 86" d="M171.221,375.183h-6.458v17.256h-1.338V375.183h-6.5v-1.13h14.293Z" fill="#033d55"/>
        <path id="Path_87" data-name="Path 87" d="M189.087,383.239a11.166,11.166,0,0,1-.637,3.866,8.552,8.552,0,0,1-1.793,2.962,7.913,7.913,0,0,1-2.774,1.9,9.811,9.811,0,0,1-7.127,0,7.926,7.926,0,0,1-2.768-1.9,8.552,8.552,0,0,1-1.793-2.962,12.025,12.025,0,0,1,0-7.718,8.557,8.557,0,0,1,1.793-2.963,8,8,0,0,1,2.768-1.9,9.107,9.107,0,0,1,3.56-.676,9.246,9.246,0,0,1,3.567.669,7.877,7.877,0,0,1,2.774,1.9,8.621,8.621,0,0,1,1.793,2.969A11.117,11.117,0,0,1,189.087,383.239Zm-1.378,0a10.493,10.493,0,0,0-.532-3.456,7.4,7.4,0,0,0-1.508-2.6,6.485,6.485,0,0,0-2.338-1.63,8.293,8.293,0,0,0-6.017,0,6.555,6.555,0,0,0-2.345,1.63,7.411,7.411,0,0,0-1.52,2.6,11.372,11.372,0,0,0,0,6.919,7.406,7.406,0,0,0,1.52,2.592,6.493,6.493,0,0,0,2.345,1.625,8.389,8.389,0,0,0,6.017,0,6.424,6.424,0,0,0,2.338-1.625,7.4,7.4,0,0,0,1.508-2.592A10.481,10.481,0,0,0,187.709,383.239Z" fill="#033d55"/>
      </g>
      <g id="Group_26" data-name="Group 26">
        <path id="Path_88" data-name="Path 88" d="M216.708,374.053l-5.782,18.386h-1.2L204.3,376.483q-.1-.326-.182-.676-.077.351-.182.676l-5.444,15.956h-1.182l-5.795-18.386h1.1a.454.454,0,0,1,.481.351l4.638,15.111q.144.52.26,1.183.066-.339.13-.631a4.972,4.972,0,0,1,.156-.552l5.2-15.111a.55.55,0,0,1,.181-.247.487.487,0,0,1,.312-.1h.364a.452.452,0,0,1,.3.1.645.645,0,0,1,.182.254l5.2,15.111a4.877,4.877,0,0,1,.163.546c.047.2.093.407.136.624.043-.217.085-.423.124-.618s.079-.378.123-.552L215.2,374.4a.457.457,0,0,1,.175-.247.512.512,0,0,1,.318-.1Z" fill="#033d55"/>
        <path id="Path_89" data-name="Path 89" d="M234.236,374.053v18.386h-.624a.592.592,0,0,1-.279-.059.653.653,0,0,1-.214-.2l-11.941-15.956c.026.26.039.506.039.74v15.476h-1.17V374.053h.663a.686.686,0,0,1,.279.045.649.649,0,0,1,.215.2l11.915,15.917c-.026-.26-.04-.507-.04-.741V374.053Z" fill="#033d55"/>
        <path id="Path_90" data-name="Path 90" d="M259.989,389.346a.3.3,0,0,1,.221.091l.52.559a8.835,8.835,0,0,1-1.241,1.1,7.61,7.61,0,0,1-1.468.832,8.66,8.66,0,0,1-1.755.532,10.82,10.82,0,0,1-2.1.189,8.933,8.933,0,0,1-3.5-.67,7.842,7.842,0,0,1-2.735-1.9,8.59,8.59,0,0,1-1.774-2.969,11.309,11.309,0,0,1-.629-3.872,10.784,10.784,0,0,1,.649-3.82A8.787,8.787,0,0,1,248,376.45a8.085,8.085,0,0,1,2.807-1.923,9.294,9.294,0,0,1,3.612-.682,8.9,8.9,0,0,1,3.339.585,9.019,9.019,0,0,1,2.651,1.65l-.4.585a.363.363,0,0,1-.325.156,1.049,1.049,0,0,1-.506-.286,6.723,6.723,0,0,0-.975-.631,8.367,8.367,0,0,0-1.553-.63,7.652,7.652,0,0,0-2.228-.285,7.908,7.908,0,0,0-3.047.571,6.718,6.718,0,0,0-2.378,1.637,7.549,7.549,0,0,0-1.552,2.6,10.95,10.95,0,0,0,.006,6.926A7.61,7.61,0,0,0,249,389.314a6.71,6.71,0,0,0,2.333,1.624,7.414,7.414,0,0,0,2.9.565,10.652,10.652,0,0,0,1.76-.13,6.807,6.807,0,0,0,1.423-.39,6.432,6.432,0,0,0,1.209-.636,9.252,9.252,0,0,0,1.1-.884.769.769,0,0,1,.13-.084A.285.285,0,0,1,259.989,389.346Z" fill="#033d55"/>
        <path id="Path_91" data-name="Path 91" d="M275.334,391.334l-.026,1.1H264.29V374.053h11.018v1.1h-9.68v7.433h8.056v1.078h-8.056v7.666Z" fill="#033d55"/>
        <path id="Path_92" data-name="Path 92" d="M293.551,374.053v18.386h-.624a.594.594,0,0,1-.279-.059.653.653,0,0,1-.214-.2l-11.941-15.956c.026.26.039.506.039.74v15.476h-1.17V374.053h.663a.683.683,0,0,1,.279.045.649.649,0,0,1,.215.2l11.915,15.917q-.039-.39-.039-.741V374.053Z" fill="#033d55"/>
        <path id="Path_93" data-name="Path 93" d="M310.936,375.183h-6.458v17.256H303.14V375.183h-6.5v-1.13h14.293Z" fill="#033d55"/>
        <path id="Path_94" data-name="Path 94" d="M325.073,391.334l-.026,1.1H314.028V374.053h11.019v1.1h-9.68v7.433h8.056v1.078h-8.056v7.666Z" fill="#033d55"/>
        <path id="Path_95" data-name="Path 95" d="M341.782,392.439h-1.143a.852.852,0,0,1-.371-.072.718.718,0,0,1-.279-.266l-5.9-7.458a1.72,1.72,0,0,0-.214-.247.869.869,0,0,0-.247-.163,1.261,1.261,0,0,0-.325-.084,3.518,3.518,0,0,0-.461-.026h-2.4v8.316H329.1V374.053h4.7a7.662,7.662,0,0,1,4.749,1.228,4.29,4.29,0,0,1,1.579,3.606,4.945,4.945,0,0,1-.364,1.922,4.5,4.5,0,0,1-1.046,1.527,5.451,5.451,0,0,1-1.65,1.072,7.788,7.788,0,0,1-2.177.559,2.09,2.09,0,0,1,.559.52Zm-8.16-9.3a7.574,7.574,0,0,0,2.19-.292,4.722,4.722,0,0,0,1.637-.838,3.633,3.633,0,0,0,1.02-1.312,4.109,4.109,0,0,0,.35-1.729,3.386,3.386,0,0,0-1.279-2.91,6.221,6.221,0,0,0-3.736-.949h-3.366v8.03Z" fill="#033d55"/>
      </g>
    </g>
  </g>
</svg>
