<svg xmlns="http://www.w3.org/2000/svg" width="31.104" height="30.08" viewBox="0 0 31.104 30.08">
  <g id="Group_91" data-name="Group 91" transform="translate(-404.756 881.632)">
    <path id="Path_1066" data-name="Path 1066" d="M435.244-852.784h-2.052v-18.54l.186.161a.616.616,0,0,0,.862-.054l1.462-1.63a.616.616,0,0,0,.156-.446c0-.017,0-.035-.005-.052a.637.637,0,0,0,.005-.121.617.617,0,0,0-.21-.43l-8.692-7.585a.615.615,0,0,0-.492-.146.615.615,0,0,0-.492.146l-1.278,1.115a.625.625,0,0,0-.148-.018H413.281a.616.616,0,0,0-.4.145l-5.229,4.413a.616.616,0,0,0-.181.682.616.616,0,0,0,.578.4h1.814v2.077a.6.6,0,0,0,0,.077.6.6,0,0,0,0,.077v2.663a.6.6,0,0,0,0,.077.6.6,0,0,0,0,.077v2.128a.611.611,0,0,0,.032.2l-4.923,4.156a.616.616,0,0,0-.181.682.616.616,0,0,0,.579.4h1.757v9.336h-1.757a.616.616,0,0,0-.616.616.616.616,0,0,0,.616.616h29.872a.616.616,0,0,0,.616-.616A.616.616,0,0,0,435.244-852.784Zm-8.779-27.49,7.99,6.973-.728.811-6.859-5.951a.615.615,0,0,0-.4-.151.615.615,0,0,0-.4.151L419.2-872.49l-.728-.811Zm-16.729,4.305,3.769-3.181h9.8l-3.645,3.181Zm1.361,4h3.715v1.586H411.1Zm8.642,19.183H408.36v-9.336h11.379Zm0-10.568H407.056l3.769-3.181h8.913Zm0-4.413H411.1v-1.384h4.331a.616.616,0,0,0,.616-.616v-2.818a.616.616,0,0,0-.616-.616H411.1v-1.538h7.15l-.965.842a.616.616,0,0,0-.21.43.63.63,0,0,0,.005.121c0,.017,0,.034-.005.051a.616.616,0,0,0,.156.447l1.462,1.63a.616.616,0,0,0,.862.054l.186-.161Zm6.111,14.981h-1.8v-4.385h1.8Zm.592-5.617h-2.276a2.407,2.407,0,0,1,2.3-1.564,2.407,2.407,0,0,1,2.3,1.564h-2.324Zm2.438,5.617h-1.8v-4.385h1.8Zm3.08,0h-1.848v-4.934a3.57,3.57,0,0,0-3.646-3.48,3.57,3.57,0,0,0-3.646,3.48v4.934h-1.848v-19.609l5.494-4.768,5.5,4.768Z" transform="translate(0 0)" fill="#1361b2"/>
    <path id="Path_1067" data-name="Path 1067" d="M454.666-696.114h5.727a.616.616,0,0,0,.616-.616v-5.137a.616.616,0,0,0-.616-.616h-5.727a.616.616,0,0,0-.616.616v5.137A.616.616,0,0,0,454.666-696.114Zm3.479-5.137h1.632v3.9h-1.632Zm-2.864,0h1.632v3.9h-1.632Z" transform="translate(-43.511 -158.129)" fill="#1361b2"/>
    <path id="Path_1068" data-name="Path 1068" d="M550.97-809.143v4.818h-.6a.616.616,0,0,0-.616.616v2.337a.616.616,0,0,0,.616.616h8.163a.616.616,0,0,0,.616-.616v-2.337a.616.616,0,0,0-.616-.616h-.6v-4.818a.616.616,0,0,0-.616-.616h-5.727A.616.616,0,0,0,550.97-809.143Zm6.945,6.05v1.1h-6.932v-1.1Zm-2.85-5.434H556.7v4.2h-1.632Zm-2.863,0h1.631v4.2H552.2Z" transform="translate(-127.984 -63.44)" fill="#1361b2"/>
  </g>
</svg>
