<svg xmlns="http://www.w3.org/2000/svg" width="29.726" height="29.853" viewBox="0 0 29.726 29.853">
  <g id="Group_95" data-name="Group 95" transform="translate(-1971.431 429.262)">
    <path id="Path_1074" data-name="Path 1074" d="M1972.035-419.658h13.995a.6.6,0,0,0,.6-.6V-421.3a.6.6,0,0,0-.264-.5l-4.608-3.137v-3.724a.6.6,0,0,0-.6-.6h-4.25a.6.6,0,0,0-.6.6v3.724L1971.7-421.8a.6.6,0,0,0-.264.5v1.037A.6.6,0,0,0,1972.035-419.658Zm.6-1.321,4.608-3.137a.6.6,0,0,0,.264-.5v-3.439h3.043v3.439a.6.6,0,0,0,.264.5l4.608,3.137v.114h-12.787Z" transform="translate(0 0)" fill="#195eb2"/>
    <path id="Path_1075" data-name="Path 1075" d="M2109.77-429.262h-13.084a.6.6,0,0,0-.6.6v8.189a.6.6,0,0,0,.6.6h13.084a.6.6,0,0,0,.6-.6v-8.189A.6.6,0,0,0,2109.77-429.262Zm-.6,1.207v2.836h-11.877v-2.836Zm-11.877,6.982v-2.939h11.877v2.939Z" transform="translate(-109.217 0)" fill="#195eb2"/>
    <path id="Path_1076" data-name="Path 1076" d="M2000.554-313.262h-28.519a.6.6,0,0,0-.6.6v14.282a.6.6,0,0,0,.6.6h28.519a.6.6,0,0,0,.6-.6v-14.282A.6.6,0,0,0,2000.554-313.262Zm-13.921,1.207h6.176v13.075h-6.176Zm-1.207,0v3.769h-12.787v-3.769Zm-12.787,4.976h12.787v8.1h-12.787Zm27.312,8.1h-5.934v-13.075h5.934Z" transform="translate(0 -101.637)" fill="#195eb2"/>
    <path id="Path_1077" data-name="Path 1077" d="M2000.689-251.867h-9.307a.6.6,0,0,0-.6.6v4.193a.6.6,0,0,0,.6.6h9.307a.6.6,0,0,0,.6-.6v-4.193A.6.6,0,0,0,2000.689-251.867Zm-.6,4.193h-8.1v-2.985h8.1Z" transform="translate(-16.952 -155.43)" fill="#195eb2"/>
    <path id="Path_1078" data-name="Path 1078" d="M1987.755-291.59h.2a.6.6,0,0,0,.6-.6.6.6,0,0,0-.6-.6h-.2a.6.6,0,0,0-.6.6A.6.6,0,0,0,1987.755-291.59Z" transform="translate(-13.774 -119.568)" fill="#195eb2"/>
    <path id="Path_1079" data-name="Path 1079" d="M2003.988-291.59h.2a.6.6,0,0,0,.6-.6.6.6,0,0,0-.6-.6h-.2a.6.6,0,0,0-.6.6A.6.6,0,0,0,2003.988-291.59Z" transform="translate(-27.997 -119.568)" fill="#195eb2"/>
    <path id="Path_1080" data-name="Path 1080" d="M2125.532-251.867h-.2a.6.6,0,0,0-.6.6.6.6,0,0,0,.6.6h.2a.6.6,0,0,0,.6-.6A.6.6,0,0,0,2125.532-251.867Z" transform="translate(-134.319 -155.43)" fill="#195eb2"/>
    <path id="Path_1081" data-name="Path 1081" d="M2163.01-250.66h.2a.6.6,0,0,0,.6-.6.6.6,0,0,0-.6-.6h-.2a.6.6,0,0,0-.6.6A.6.6,0,0,0,2163.01-250.66Z" transform="translate(-167.329 -155.43)" fill="#195eb2"/>
  </g>
</svg>
