<svg xmlns="http://www.w3.org/2000/svg" width="27.72" height="29.853" viewBox="0 0 27.72 29.853">
  <path id="Path_1086" data-name="Path 1086" d="M475.72,366.393a7.993,7.993,0,0,0-12.99-6.241c-.288-.843-.615-1.676-.972-2.456-1.682-3.673-3.728-5.7-5.762-5.7-4.62,0-8,10.1-8,14.393a8,8,0,0,0,7.463,7.969v2.921a18.617,18.617,0,0,0-3.973,1.429.533.533,0,0,0,.483.951,20.979,20.979,0,0,1,7.687-1.984L457.169,381a.533.533,0,1,0,.853.64l3.027-4.036q.812-.024,1.623,0l3.027,4.036a.533.533,0,1,0,.853-.64l-2.491-3.321a20.979,20.979,0,0,1,7.687,1.984.533.533,0,1,0,.483-.951,18.617,18.617,0,0,0-3.973-1.429v-2.921A8,8,0,0,0,475.72,366.393Zm-8-6.93a6.927,6.927,0,0,1,.533,13.833v-2.418l3.042-3.042a.533.533,0,0,0-.754-.754l-2.289,2.289v-6.176a.533.533,0,0,0-1.066,0v2.978l-1.222-1.222a.533.533,0,0,0-.754.754l1.976,1.976v5.613a6.864,6.864,0,0,1-4.647-2.323,7.948,7.948,0,0,0,1.449-4.577,19.463,19.463,0,0,0-.908-5.135A6.877,6.877,0,0,1,467.724,359.463Zm-18.658,6.93c0-4.163,3.35-13.327,6.93-13.327,2.419,0,4.731,4.184,5.977,8.181.006.019.01.036.017.054a18.646,18.646,0,0,1,.936,5.092,6.935,6.935,0,0,1-6.4,6.9v-4.55l3.042-3.042a.533.533,0,0,0-.754-.754l-2.289,2.289V358.93a.533.533,0,0,0-1.066,0v4.044l-1.222-1.222a.533.533,0,0,0-.754.754l1.976,1.976v4.889l-2.289-2.289a.533.533,0,0,0-.754.754l3.042,3.042V373.3A6.935,6.935,0,0,1,449.066,366.393Zm13.975,10.167a.534.534,0,0,0-.105,0c-.718-.026-1.438-.026-2.155,0a.533.533,0,0,0-.1,0,27.147,27.147,0,0,0-4.151.483v-2.681a7.968,7.968,0,0,0,5.334-2.554,7.916,7.916,0,0,0,5.328,2.551v2.684A27.141,27.141,0,0,0,463.042,376.56Z" transform="translate(-448 -352)" fill="#195eb2"/>
</svg>
