<svg xmlns="http://www.w3.org/2000/svg" width="28" height="27.493" viewBox="0 0 28 27.493">
  <g id="Group_96" data-name="Group 96" transform="translate(30.463 -442.508)">
    <path id="Path_1089" data-name="Path 1089" d="M64.278,462.043a.557.557,0,0,0,.557-.557v-2.821H75.45v2.821a.557.557,0,0,0,1.114,0V445.04a1.419,1.419,0,0,1,2.837,0,.557.557,0,0,0,1.114,0,2.533,2.533,0,0,0-5.065,0v6.824H64.835V445.04a1.419,1.419,0,0,1,2.837,0,.557.557,0,0,0,1.114,0,2.533,2.533,0,0,0-5.065,0v16.445A.557.557,0,0,0,64.278,462.043Zm11.172-9.065v4.573H64.835v-4.573Z" transform="translate(-83.422 0)" fill="#195eb2"/>
    <path id="Path_1090" data-name="Path 1090" d="M-26.468,614.164a4.247,4.247,0,0,0,3.335-1.6,4.247,4.247,0,0,0,3.335,1.6,4.247,4.247,0,0,0,3.335-1.6,4.247,4.247,0,0,0,3.335,1.6,4.248,4.248,0,0,0,3.335-1.6,4.248,4.248,0,0,0,3.335,1.6,4.264,4.264,0,0,0,3.953-2.644.557.557,0,0,0-.3-.728.557.557,0,0,0-.728.3,3.154,3.154,0,0,1-2.923,1.955,3.145,3.145,0,0,1-2.836-1.762.557.557,0,0,0-.5-.31.557.557,0,0,0-.5.31,3.144,3.144,0,0,1-2.836,1.762,3.145,3.145,0,0,1-2.836-1.762.557.557,0,0,0-.5-.31.557.557,0,0,0-.5.31A3.144,3.144,0,0,1-19.8,613.05a3.144,3.144,0,0,1-2.836-1.762.557.557,0,0,0-.5-.31.557.557,0,0,0-.5.31,3.144,3.144,0,0,1-2.836,1.762,3.153,3.153,0,0,1-2.923-1.955.557.557,0,0,0-.728-.3.557.557,0,0,0-.3.727A4.263,4.263,0,0,0-26.468,614.164Z" transform="translate(0 -149.018)" fill="#195eb2"/>
    <path id="Path_1091" data-name="Path 1091" d="M-2.808,653.285a.557.557,0,0,0-.728.3,3.154,3.154,0,0,1-2.923,1.955,3.145,3.145,0,0,1-2.836-1.762.557.557,0,0,0-.5-.31.557.557,0,0,0-.5.31,3.144,3.144,0,0,1-2.836,1.762,3.145,3.145,0,0,1-2.836-1.762.557.557,0,0,0-.5-.31.557.557,0,0,0-.5.31,3.144,3.144,0,0,1-2.836,1.762,3.145,3.145,0,0,1-2.836-1.762.557.557,0,0,0-.5-.31.557.557,0,0,0-.5.31,3.144,3.144,0,0,1-2.836,1.762,3.154,3.154,0,0,1-2.923-1.955.557.557,0,0,0-.728-.3.557.557,0,0,0-.3.728,4.264,4.264,0,0,0,3.952,2.644,4.247,4.247,0,0,0,3.335-1.6,4.248,4.248,0,0,0,3.335,1.6,4.247,4.247,0,0,0,3.335-1.6,4.248,4.248,0,0,0,3.335,1.6,4.247,4.247,0,0,0,3.335-1.6,4.248,4.248,0,0,0,3.335,1.6,4.264,4.264,0,0,0,3.953-2.644A.557.557,0,0,0-2.808,653.285Z" transform="translate(0 -186.655)" fill="#195eb2"/>
  </g>
</svg>
