<svg xmlns="http://www.w3.org/2000/svg" width="29.302" height="29.853" viewBox="0 0 29.302 29.853">
  <path id="Path_1083" data-name="Path 1083" d="M863.989,13.108h-25.82a.6.6,0,0,0,.232-.473V-.124a2.97,2.97,0,0,1,2.967-2.967,2.97,2.97,0,0,1,2.967,2.967c0,.014,0,.026,0,.039l-.428.156A2.682,2.682,0,0,0,842.285,1.9a4.154,4.154,0,0,0-.01,2.256l-.423.154a.606.606,0,1,0,.415,1.139l8.32-3.028a.606.606,0,0,0-.415-1.139l-.359.131a4.156,4.156,0,0,0-1.457-1.723,2.683,2.683,0,0,0-2.419-.354l-.409.149a4.185,4.185,0,0,0-4.16-3.786,4.184,4.184,0,0,0-4.179,4.179V12.635a.6.6,0,0,0,.231.473H835.9a.606.606,0,1,0,0,1.213h1.166a12.26,12.26,0,0,0,1.762,6.47,6.912,6.912,0,0,0,1.871,1.924.6.6,0,0,0-.29.252l-.973,1.672a.606.606,0,1,0,1.048.61l.973-1.672a.6.6,0,0,0,.075-.383,6.933,6.933,0,0,0,3.011.65h10.8a6.933,6.933,0,0,0,3.011-.65.6.6,0,0,0,.075.383l.973,1.672a.606.606,0,1,0,1.048-.61l-.973-1.672a.6.6,0,0,0-.29-.252,6.909,6.909,0,0,0,1.871-1.924,12.26,12.26,0,0,0,1.762-6.47h1.166a.606.606,0,1,0,0-1.213ZM846.351.473a1.5,1.5,0,0,1,1.342.23,2.947,2.947,0,0,1,.974,1.125l-5.244,1.909a2.949,2.949,0,0,1,.023-1.488,1.5,1.5,0,0,1,.88-1.039Zm8.994,22.158h-10.8c-4.462,0-6.152-4.212-6.264-8.311H861.61C861.5,18.419,859.808,22.632,855.346,22.632Z" transform="translate(-835.294 4.303)" fill="#195eb2"/>
</svg>
