<?xml version="1.0" encoding="utf-8"?>
<!-- Generator: Adobe Illustrator 24.2.3, SVG Export Plug-In . SVG Version: 6.00 Build 0)  -->
<svg version="1.1" id="Layer_1" xmlns="http://www.w3.org/2000/svg" xmlns:xlink="http://www.w3.org/1999/xlink" x="30px" y="30px"
	 viewBox="0 0 31.1 30.1" style="enable-background:new 0 0 31.1 30.1;" xml:space="preserve" width="29.726" height="29.853">
<style type="text/css">
	.st0{fill:#1361B2;}
</style>
<g>
	<path class="st0" d="M24,9.1c-0.3,0-0.6,0.3-0.6,0.6v3.6c0,0.3,0.3,0.6,0.6,0.6h3c0.3,0,0.6-0.3,0.6-0.6V9.7c0-0.3-0.3-0.6-0.6-0.6
		H24z M26.4,12.7h-1.8v-2.3h1.8V12.7z"/>
	<path class="st0" d="M7.1,9.1h-3c-0.3,0-0.6,0.3-0.6,0.6v3.6c0,0.3,0.3,0.6,0.6,0.6h3c0.3,0,0.6-0.3,0.6-0.6V9.7
		C7.8,9.4,7.5,9.1,7.1,9.1z M6.5,12.7H4.7v-2.3h1.8V12.7z"/>
	<path class="st0" d="M22.3,2.8l-3.7,3.4c-0.3,0.2-0.3,0.6,0,0.9c0.1,0.1,0.3,0.2,0.5,0.2c0.2,0,0.3-0.1,0.4-0.2l3.2-3l3.2,3
		c0.3,0.2,0.6,0.2,0.9,0s0.2-0.6,0-0.9l-3.7-3.4C22.9,2.6,22.5,2.6,22.3,2.8z"/>
	<path class="st0" d="M12.6,22.6h-3c-0.3,0-0.6,0.3-0.6,0.6v3.6c0,0.3,0.3,0.6,0.6,0.6h3c0.3,0,0.6-0.3,0.6-0.6v-3.6
		C13.3,22.9,13,22.6,12.6,22.6z M12,26.2h-1.8v-2.3H12V26.2z"/>
	<path class="st0" d="M30.4,6.9l-7.2-6.7c-0.2-0.2-0.6-0.2-0.8,0l-6.7,6.2L8.8,0.2C8.6,0,8.2,0,8,0.2L0.7,6.9C0.6,7,0.5,7.1,0.5,7.3
		v22.1c0,0.3,0.3,0.6,0.6,0.6h28.8c0.3,0,0.6-0.3,0.6-0.6V7.3C30.6,7.1,30.5,7,30.4,6.9z M6.5,28.8H4.7v-4.9h1.8V28.8z M14.9,28.8
		H7.8v-5.5c0-0.3-0.3-0.6-0.6-0.6h-3c-0.3,0-0.6,0.3-0.6,0.6v5.5H1.8V7.6l6.6-6.1l6.5,6V28.8z M26.4,28.8h-1.8v-4.9h1.8V28.8z
		 M29.3,28.8h-1.7v-5.5c0-0.3-0.3-0.6-0.6-0.6h-3c-0.3,0-0.6,0.3-0.6,0.6v5.5h-7.2V7.7c0,0,0.1-0.1,0.1-0.2l6.5-6l6.6,6.1V28.8z"/>
	<path class="st0" d="M7.1,15.9h-3c-0.3,0-0.6,0.3-0.6,0.6v3.6c0,0.3,0.3,0.6,0.6,0.6h3c0.3,0,0.6-0.3,0.6-0.6v-3.6
		C7.8,16.1,7.5,15.9,7.1,15.9z M6.5,19.5H4.7v-2.3h1.8V19.5z"/>
	<path class="st0" d="M21.5,9.1h-3c-0.3,0-0.6,0.3-0.6,0.6v3.6c0,0.3,0.3,0.6,0.6,0.6h3c0.3,0,0.6-0.3,0.6-0.6V9.7
		C22.1,9.4,21.8,9.1,21.5,9.1z M20.8,12.7h-1.8v-2.3h1.8V12.7z"/>
	<path class="st0" d="M21.5,15.9h-3c-0.3,0-0.6,0.3-0.6,0.6v3.6c0,0.3,0.3,0.6,0.6,0.6h3c0.3,0,0.6-0.3,0.6-0.6v-3.6
		C22.1,16.1,21.8,15.9,21.5,15.9z M20.8,19.5h-1.8v-2.3h1.8V19.5z"/>
	<path class="st0" d="M4.3,6.2C4,6.4,4,6.8,4.3,7.1c0.1,0.1,0.3,0.2,0.5,0.2c0.2,0,0.3-0.1,0.4-0.2l3.2-3l3.2,3
		c0.3,0.2,0.6,0.2,0.9,0c0.2-0.3,0.2-0.6,0-0.9L8.8,2.8C8.6,2.6,8.2,2.6,8,2.8L4.3,6.2z"/>
	<path class="st0" d="M21.5,22.6h-3c-0.3,0-0.6,0.3-0.6,0.6v3.6c0,0.3,0.3,0.6,0.6,0.6h3c0.3,0,0.6-0.3,0.6-0.6v-3.6
		C22.1,22.9,21.8,22.6,21.5,22.6z M20.8,26.2h-1.8v-2.3h1.8V26.2z"/>
	<path class="st0" d="M12.6,15.9h-3c-0.3,0-0.6,0.3-0.6,0.6v3.6c0,0.3,0.3,0.6,0.6,0.6h3c0.3,0,0.6-0.3,0.6-0.6v-3.6
		C13.3,16.1,13,15.9,12.6,15.9z M12,19.5h-1.8v-2.3H12V19.5z"/>
	<path class="st0" d="M27,15.9h-3c-0.3,0-0.6,0.3-0.6,0.6v3.6c0,0.3,0.3,0.6,0.6,0.6h3c0.3,0,0.6-0.3,0.6-0.6v-3.6
		C27.6,16.1,27.3,15.9,27,15.9z M26.4,19.5h-1.8v-2.3h1.8V19.5z"/>
	<path class="st0" d="M9.6,9.1C9.3,9.1,9,9.4,9,9.7v3.6c0,0.3,0.3,0.6,0.6,0.6h3c0.3,0,0.6-0.3,0.6-0.6V9.7c0-0.3-0.3-0.6-0.6-0.6
		H9.6z M12,12.7h-1.8v-2.3H12V12.7z"/>
</g>
</svg>
