<svg id="GPS" xmlns="http://www.w3.org/2000/svg" width="15.809" height="17.367" viewBox="0 0 15.809 17.367">
  <path id="Path_2443" data-name="Path 2443" d="M-872.416,284.881a3.021,3.021,0,0,0-3.021,3.021c0,1.669,3.021,6.207,3.021,6.207s3.021-4.539,3.021-6.207A3.021,3.021,0,0,0-872.416,284.881Zm0,4.241a1.219,1.219,0,0,1-1.22-1.219,1.22,1.22,0,0,1,1.22-1.22,1.219,1.219,0,0,1,1.219,1.22A1.219,1.219,0,0,1-872.416,289.122Z" transform="translate(884.056 -284.881)" fill="#195eb2"/>
  <g id="Group_720" data-name="Group 720" transform="translate(0 1.657)">
    <path id="Path_2444" data-name="Path 2444" d="M-881.4,447.1v3h2.668a16.568,16.568,0,0,0,.317-2.932l-.048-.073Z" transform="translate(889.651 -438.887)" fill="#262626"/>
    <path id="Path_2445" data-name="Path 2445" d="M-1013.255,447.1h-3.779a7.871,7.871,0,0,0,.743,3h3.343A17.543,17.543,0,0,1-1013.255,447.1Z" transform="translate(1017.034 -438.887)" fill="#262626"/>
    <path id="Path_2446" data-name="Path 2446" d="M-941.7,450.108h2.64v-3h-2.959A16.614,16.614,0,0,0-941.7,450.108Z" transform="translate(946.581 -438.887)" fill="#262626"/>
    <path id="Path_2447" data-name="Path 2447" d="M-824.136,447.2a17.492,17.492,0,0,1-.3,2.913h3.343a7.87,7.87,0,0,0,.743-3h-3.721Z" transform="translate(836.163 -438.887)" fill="#262626"/>
    <path id="Path_2448" data-name="Path 2448" d="M-810.6,388.75h3.244a7.869,7.869,0,0,0-.743-3h-.756c-.152.3-.325.618-.523.969C-809.84,387.544-810.3,388.288-810.6,388.75Z" transform="translate(823.161 -381.264)" fill="#262626"/>
    <path id="Path_2449" data-name="Path 2449" d="M-880.681,385.746h-.714v3h2.459c-.294-.462-.756-1.206-1.222-2.035C-880.356,386.364-880.529,386.042-880.681,385.746Z" transform="translate(889.651 -381.264)" fill="#262626"/>
    <path id="Path_2450" data-name="Path 2450" d="M-1012.948,385.746h-3.343a7.87,7.87,0,0,0-.743,3h3.779A17.543,17.543,0,0,1-1012.948,385.746Z" transform="translate(1017.034 -381.264)" fill="#262626"/>
    <path id="Path_2451" data-name="Path 2451" d="M-942.015,388.75h2.959v-3h-2.64A16.608,16.608,0,0,0-942.015,388.75Z" transform="translate(946.581 -381.264)" fill="#262626"/>
    <path id="Path_2452" data-name="Path 2452" d="M-998.388,508.463a7.927,7.927,0,0,0,4.787,3.562,8.54,8.54,0,0,1-1.674-3.562Z" transform="translate(999.523 -496.511)" fill="#262626"/>
    <path id="Path_2453" data-name="Path 2453" d="M-881.4,508.463v3.758c.971-.271,1.936-1.64,2.5-3.758Z" transform="translate(889.651 -496.511)" fill="#262626"/>
    <path id="Path_2454" data-name="Path 2454" d="M-931.495,512.214v-3.751h-2.469C-933.408,510.562-932.457,511.926-931.495,512.214Z" transform="translate(939.02 -496.511)" fill="#262626"/>
    <path id="Path_2455" data-name="Path 2455" d="M-854.6,512.025a7.927,7.927,0,0,0,4.787-3.562h-3.113A8.539,8.539,0,0,1-854.6,512.025Z" transform="translate(864.489 -496.511)" fill="#262626"/>
    <path id="Path_2456" data-name="Path 2456" d="M-933.967,315.862h2.47V312.11C-932.459,312.4-933.411,313.762-933.967,315.862Z" transform="translate(939.023 -312.11)" fill="#262626"/>
    <path id="Path_2457" data-name="Path 2457" d="M-881.4,360.956h.355c-.146-.313-.262-.588-.355-.829Z" transform="translate(889.651 -357.204)" fill="#262626"/>
    <path id="Path_2458" data-name="Path 2458" d="M-993.6,315.229a7.928,7.928,0,0,0-4.787,3.562h3.113A8.542,8.542,0,0,1-993.6,315.229Z" transform="translate(999.523 -315.039)" fill="#262626"/>
    <path id="Path_2459" data-name="Path 2459" d="M-776.036,373.668l0-.005,0,.005Z" transform="translate(790.71 -369.916)" fill="#262626"/>
    <path id="Path_2460" data-name="Path 2460" d="M-826.661,435.189l.056-.085h-.112Z" transform="translate(838.301 -427.618)" fill="#262626"/>
  </g>
</svg>
