<svg xmlns="http://www.w3.org/2000/svg" width="24.954" height="23.029" viewBox="0 0 24.954 23.029">
  <g id="heart" transform="translate(1.511 1.547)">
    <path id="heart-2" data-name="heart" d="M18.816,31.831a1.583,1.583,0,0,1-.565-.1c-.25-.093-2.516-1.018-5.639-4.509-1.647-1.841-5.4-6.577-4.669-10.8a5.412,5.412,0,0,1,2.878-3.912c3.51-1.905,6.409.744,7.995,2.633,1.578-1.889,4.48-4.53,7.995-2.633a5.412,5.412,0,0,1,2.878,3.912c.73,4.221-3.022,8.957-4.669,10.8-3.123,3.491-5.388,4.416-5.639,4.509A1.583,1.583,0,0,1,18.816,31.831Z" transform="translate(-7.851 -11.849)" fill="none" stroke="#195eb2" stroke-width="3"/>
  </g>
</svg>
