<svg id="Share" xmlns="http://www.w3.org/2000/svg" width="24.555" height="24.91" viewBox="0 0 24.555 24.91">
  <g id="Group_733" data-name="Group 733" transform="translate(2613.463 2947.154) rotate(-90)">
    <path id="Path_2472" data-name="Path 2472" d="M2925.334-2596.238v-9.895a4.245,4.245,0,0,1,4.241-4.24h5.86v-3.09h-5.86a7.339,7.339,0,0,0-7.331,7.33v9.895a7.339,7.339,0,0,0,7.331,7.33h5.86V-2592h-5.86A4.246,4.246,0,0,1,2925.334-2596.238Z" transform="translate(0)" fill="#195eb2"/>
    <path id="Path_2473" data-name="Path 2473" d="M2947.345-2604.382l-2.185,2.185,3.87,3.87h-9.058a1.545,1.545,0,0,0-1.545,1.545,1.545,1.545,0,0,0,1.545,1.545h9.172l-3.985,3.985,2.185,2.185,7.657-7.658Z" transform="translate(-7.849 -4.404)" fill="#195eb2"/>
  </g>
</svg>
