<svg xmlns="http://www.w3.org/2000/svg" xmlns:xlink="http://www.w3.org/1999/xlink" width="270" height="79" viewBox="0 0 270 79">
  <defs>
    <clipPath id="clip-B3_36">
      <rect width="270" height="79"/>
    </clipPath>
  </defs>
  <g id="B3_36" data-name="B3 – 36" clip-path="url(#clip-B3_36)">
    <g id="Group_44" data-name="Group 44" transform="translate(-115.135 -360.008)">
      <path id="Path_292" data-name="Path 292" d="M128.868,433.278a.849.849,0,0,1,.306.057.809.809,0,0,1,.294.2l1.712,1.8a7.089,7.089,0,0,1-2.817,2.215,9.844,9.844,0,0,1-4.005.748,9.535,9.535,0,0,1-3.8-.721,8.226,8.226,0,0,1-2.849-1.993,8.784,8.784,0,0,1-1.795-3.015,11.136,11.136,0,0,1-.625-3.787,9.969,9.969,0,0,1,.715-3.827,8.916,8.916,0,0,1,2-3.007,9.006,9.006,0,0,1,3.072-1.967,10.714,10.714,0,0,1,3.947-.7,10.1,10.1,0,0,1,1.973.184,9.678,9.678,0,0,1,1.731.512,8.127,8.127,0,0,1,1.482.779,7.15,7.15,0,0,1,1.2,1l-1.457,1.954a1.828,1.828,0,0,1-.332.325.861.861,0,0,1-.536.148.98.98,0,0,1-.435-.1,4.8,4.8,0,0,1-.434-.25l-.5-.318a3.837,3.837,0,0,0-.651-.319,5.4,5.4,0,0,0-.882-.25,6.03,6.03,0,0,0-1.182-.1,5.4,5.4,0,0,0-2.146.415,4.708,4.708,0,0,0-1.667,1.188,5.53,5.53,0,0,0-1.086,1.872,7.353,7.353,0,0,0-.389,2.465,7.693,7.693,0,0,0,.389,2.543,5.609,5.609,0,0,0,1.061,1.871,4.522,4.522,0,0,0,1.565,1.156,4.694,4.694,0,0,0,1.916.395,8.825,8.825,0,0,0,1.073-.058,4.351,4.351,0,0,0,.9-.2,4.014,4.014,0,0,0,.791-.364,5.286,5.286,0,0,0,.76-.554,1.55,1.55,0,0,1,.332-.213.893.893,0,0,1,.371-.081Z" transform="translate(0 0.712)" fill="#fff"/>
      <path id="Path_293" data-name="Path 293" d="M138.64,428.231h1.737a4.44,4.44,0,0,0,1.5-.223,2.682,2.682,0,0,0,1.016-.62,2.349,2.349,0,0,0,.575-.925,3.567,3.567,0,0,0,.179-1.144,2.4,2.4,0,0,0-.8-1.916,3.714,3.714,0,0,0-2.471-.69H138.64v5.518Zm0,2.978v6.884h-4.318V419.481h6.055a12.45,12.45,0,0,1,3.442.415,6.485,6.485,0,0,1,2.325,1.157,4.381,4.381,0,0,1,1.31,1.749,5.809,5.809,0,0,1,.408,2.2,5.938,5.938,0,0,1-.242,1.712,5.178,5.178,0,0,1-.722,1.487,5.583,5.583,0,0,1-1.176,1.22,6.255,6.255,0,0,1-1.6.882,4.121,4.121,0,0,1,.812.536,3.179,3.179,0,0,1,.657.779l3.96,6.477H145.64a1.659,1.659,0,0,1-1.559-.818l-3.091-5.4a1.3,1.3,0,0,0-.479-.511,1.6,1.6,0,0,0-.773-.152Z" transform="translate(0 0.712)" fill="#fff"/>
      <path id="Path_294" data-name="Path 294" d="M158.362,430.978h5.084l-1.711-5.1-.39-1.144q-.224-.658-.441-1.425-.2.78-.421,1.443t-.409,1.15l-1.712,5.072Zm11.957,7.115h-3.347a1.55,1.55,0,0,1-.926-.262,1.35,1.35,0,0,1-.505-.671l-1.1-3.245h-7.077l-1.1,3.245a1.474,1.474,0,0,1-1.4.933H151.49l7.205-18.612h4.419l7.205,18.612Z" transform="translate(0 0.712)" fill="#fff"/>
      <path id="Path_295" data-name="Path 295" d="M184.472,419.481V422.8h-7.638v4.714h6.361v3.334h-6.361v7.243H172.49V419.481Z" transform="translate(0.06 0.712)" fill="#fff"/>
      <path id="Path_296" data-name="Path 296" d="M201.41,419.481V422.9h-5.237v15.188h-4.318V422.9h-5.237v-3.424Z" transform="translate(0.076 0.712)" fill="#fff"/>
      <path id="Path_297" data-name="Path 297" d="M213.359,430.593q.237.525.454,1.074c.144-.374.3-.739.46-1.092s.328-.7.5-1.03l4.778-9.411a1.511,1.511,0,0,1,.261-.377.848.848,0,0,1,.3-.2,1.009,1.009,0,0,1,.376-.064h3.787v18.6h-3.806v-10.7q0-.779.077-1.686l-4.93,9.567a1.652,1.652,0,0,1-.62.679,1.727,1.727,0,0,1-.888.229h-.588a1.721,1.721,0,0,1-.887-.229,1.632,1.632,0,0,1-.62-.679l-4.957-9.58q.051.447.077.888c.017.3.026.564.026.811v10.7h-3.807v-18.6h3.788a1.018,1.018,0,0,1,.377.064.853.853,0,0,1,.3.2,1.538,1.538,0,0,1,.262.377l4.789,9.45q.256.484.492,1.009Z" transform="translate(0.096 0.712)" fill="#fff"/>
      <path id="Path_298" data-name="Path 298" d="M232.859,430.978h5.084l-1.712-5.1q-.167-.487-.389-1.144t-.442-1.425q-.2.78-.421,1.443c-.144.444-.281.828-.408,1.15l-1.712,5.072Zm11.956,7.115h-3.347a1.553,1.553,0,0,1-.926-.262,1.342,1.342,0,0,1-.5-.671l-1.1-3.245h-7.076l-1.1,3.245a1.477,1.477,0,0,1-1.405.933h-3.372l7.2-18.612h4.42l7.2,18.612Z" transform="translate(0.119 0.712)" fill="#fff"/>
      <path id="Path_299" data-name="Path 299" d="M251.3,428.231h1.738a4.44,4.44,0,0,0,1.5-.223,2.689,2.689,0,0,0,1.016-.62,2.349,2.349,0,0,0,.575-.925,3.54,3.54,0,0,0,.179-1.144,2.4,2.4,0,0,0-.8-1.916,3.718,3.718,0,0,0-2.472-.69H251.3v5.518Zm0,2.978v6.884h-4.317V419.481h6.055a12.456,12.456,0,0,1,3.442.415,6.506,6.506,0,0,1,2.326,1.157,4.358,4.358,0,0,1,1.308,1.749,5.771,5.771,0,0,1,.409,2.2,5.87,5.87,0,0,1-.243,1.712,5.149,5.149,0,0,1-.721,1.487,5.583,5.583,0,0,1-1.176,1.22,6.248,6.248,0,0,1-1.6.882,4.114,4.114,0,0,1,.811.536,3.227,3.227,0,0,1,.658.779l3.96,6.477H258.3a1.657,1.657,0,0,1-1.559-.818l-3.091-5.4a1.3,1.3,0,0,0-.48-.511,1.589,1.589,0,0,0-.772-.152Z" transform="translate(0.14 0.712)" fill="#fff"/>
      <path id="Path_300" data-name="Path 300" d="M268.958,427.018h.69a1.571,1.571,0,0,0,1.38-.6l4.189-6.08a1.79,1.79,0,0,1,.785-.678,2.884,2.884,0,0,1,1.08-.179h3.756l-5.519,7.524a3.712,3.712,0,0,1-.613.677,3.885,3.885,0,0,1-.651.448,3.1,3.1,0,0,1,1.621,1.327l5.621,8.636H277.44a3.283,3.283,0,0,1-.633-.052,1.578,1.578,0,0,1-.452-.152,1.309,1.309,0,0,1-.333-.25,2.418,2.418,0,0,1-.268-.338l-4.216-6.477a1.27,1.27,0,0,0-.581-.5,2.541,2.541,0,0,0-.952-.147h-1.047v7.92h-4.317V419.481h4.317v7.537Z" transform="translate(0.159 0.712)" fill="#fff"/>
      <path id="Path_301" data-name="Path 301" d="M307.432,438.093h-4.344v-7.869h-7.561v7.869h-4.344V419.481h4.344v7.78h7.561v-7.78h4.344v18.612Z" transform="translate(0.187 0.712)" fill="#fff"/>
      <path id="Path_302" data-name="Path 302" d="M325.111,428.781a8.033,8.033,0,0,0-.359-2.485,5.274,5.274,0,0,0-1.027-1.871,4.445,4.445,0,0,0-1.642-1.176,5.661,5.661,0,0,0-2.209-.408,5.738,5.738,0,0,0-2.229.408A4.43,4.43,0,0,0,316,424.425a5.276,5.276,0,0,0-1.028,1.871,8.845,8.845,0,0,0,0,4.982A5.258,5.258,0,0,0,316,433.149a4.358,4.358,0,0,0,1.649,1.169,5.814,5.814,0,0,0,2.229.4,5.735,5.735,0,0,0,2.209-.4,4.372,4.372,0,0,0,1.642-1.169,5.257,5.257,0,0,0,1.027-1.871,8.072,8.072,0,0,0,.359-2.5Zm4.419,0a10.02,10.02,0,0,1-.7,3.755,8.861,8.861,0,0,1-5.008,5.033,11.113,11.113,0,0,1-7.912,0,8.874,8.874,0,0,1-5.027-5.033,10.48,10.48,0,0,1,0-7.511,8.933,8.933,0,0,1,1.967-3.015,9.088,9.088,0,0,1,3.06-2.005,10.408,10.408,0,0,1,3.96-.728,10.27,10.27,0,0,1,3.952.735,9.12,9.12,0,0,1,3.048,2.011,9.017,9.017,0,0,1,1.96,3.015,9.995,9.995,0,0,1,.7,3.743Z" transform="translate(0.21 0.712)" fill="#fff"/>
      <path id="Path_303" data-name="Path 303" d="M342.272,430.593q.235.525.454,1.074c.143-.374.3-.739.459-1.092s.327-.7.5-1.03l4.778-9.411a1.486,1.486,0,0,1,.262-.377.823.823,0,0,1,.3-.2,1.015,1.015,0,0,1,.377-.064h3.788v18.6h-3.808v-10.7c0-.519.027-1.081.078-1.686l-4.931,9.567a1.626,1.626,0,0,1-.62.679,1.723,1.723,0,0,1-.887.229h-.587a1.728,1.728,0,0,1-.889-.229,1.645,1.645,0,0,1-.62-.679l-4.955-9.58c.033.3.059.594.076.888s.026.564.026.811v10.7h-3.807v-18.6h3.787a1.015,1.015,0,0,1,.377.064.848.848,0,0,1,.3.2,1.594,1.594,0,0,1,.262.377l4.79,9.45q.255.484.492,1.009Z" transform="translate(0.27 0.712)" fill="#fff"/>
      <path id="Path_304" data-name="Path 304" d="M368.9,419.481V422.8h-7.64v4.344h5.851v3.193h-5.851v4.433h7.64v3.321H356.917V419.481Z" transform="translate(0.27 0.712)" fill="#fff"/>
      <path id="Path_305" data-name="Path 305" d="M382.9,423.262a1.624,1.624,0,0,1-.4.46.891.891,0,0,1-.543.154,1.333,1.333,0,0,1-.632-.185q-.339-.186-.766-.416a6.494,6.494,0,0,0-.978-.415,3.919,3.919,0,0,0-1.251-.185,2.69,2.69,0,0,0-1.807.518,1.755,1.755,0,0,0-.6,1.4,1.289,1.289,0,0,0,.358.932,3.056,3.056,0,0,0,.94.638,9.733,9.733,0,0,0,1.328.493c.5.15,1.007.314,1.527.5a14.114,14.114,0,0,1,1.526.646,5.045,5.045,0,0,1,1.328.946,4.385,4.385,0,0,1,.94,1.4,4.961,4.961,0,0,1,.358,1.986,6.5,6.5,0,0,1-.448,2.415,5.675,5.675,0,0,1-1.3,1.961,6.069,6.069,0,0,1-2.1,1.316,7.864,7.864,0,0,1-2.829.478,9.091,9.091,0,0,1-1.769-.179,10.384,10.384,0,0,1-1.743-.505,9.934,9.934,0,0,1-1.584-.772,6.741,6.741,0,0,1-1.291-1l1.278-2.019a1.016,1.016,0,0,1,.4-.369,1.107,1.107,0,0,1,.549-.142,1.456,1.456,0,0,1,.772.243c.261.162.554.34.882.536a6.887,6.887,0,0,0,1.131.536,4.211,4.211,0,0,0,1.507.244,2.865,2.865,0,0,0,1.826-.518,1.971,1.971,0,0,0,.652-1.641,1.559,1.559,0,0,0-.358-1.061,2.78,2.78,0,0,0-.938-.676,8.661,8.661,0,0,0-1.322-.472q-.742-.207-1.521-.454a11.108,11.108,0,0,1-1.52-.614,4.748,4.748,0,0,1-1.321-.958,4.463,4.463,0,0,1-.939-1.481,5.857,5.857,0,0,1-.359-2.192,5.182,5.182,0,0,1,.422-2.043,5.291,5.291,0,0,1,1.239-1.775,6.111,6.111,0,0,1,2.005-1.246,7.438,7.438,0,0,1,2.722-.466,10.254,10.254,0,0,1,1.667.134,8.77,8.77,0,0,1,1.538.4,8.349,8.349,0,0,1,1.362.626,6.234,6.234,0,0,1,1.129.824l-1.072,2.005Z" transform="translate(0.27 0.712)" fill="#fff"/>
      <path id="Path_306" data-name="Path 306" d="M130.667,383.394q.13-.351.275-.693a5.734,5.734,0,0,1,.319-.648l12.231-21.625a.79.79,0,0,1,.352-.352,1.4,1.4,0,0,1,.485-.067h1.561v31.129h-1.98V364.607a11.784,11.784,0,0,1,.066-1.21l-12.253,21.758a.961.961,0,0,1-.881.571h-.351a.989.989,0,0,1-.88-.571l-12.584-21.779a11.97,11.97,0,0,1,.066,1.231v26.531h-1.958V360.009h1.54a1.492,1.492,0,0,1,.495.067.772.772,0,0,1,.363.352l12.561,21.647a8.937,8.937,0,0,1,.573,1.319Z" fill="#fff"/>
      <path id="Path_307" data-name="Path 307" d="M158.166,379.831h13.947l-6.358-15.73c-.1-.248-.205-.531-.308-.847s-.205-.649-.308-1c-.1.352-.206.686-.308,1s-.2.606-.308.869l-6.357,15.708ZM179,391.138h-1.738a.762.762,0,0,1-.506-.165,1.084,1.084,0,0,1-.308-.429l-3.674-9.041h-15.29l-3.652,9.041a.937.937,0,0,1-.308.418.813.813,0,0,1-.528.176H151.28l12.737-31.129h2.244L179,391.138Z" fill="#fff"/>
      <path id="Path_308" data-name="Path 308" d="M200.294,360.009v1.914H189.36v29.215h-2.244V361.923h-11v-1.914Z" transform="translate(0.067)" fill="#fff"/>
      <path id="Path_309" data-name="Path 309" d="M223.9,360.009v1.87h-16.39v12.584h13.639v1.826H207.509v12.98H223.9v1.87H205.243V360.009Z" transform="translate(0.097)" fill="#fff"/>
      <path id="Path_310" data-name="Path 310" d="M232.389,360.087a1.018,1.018,0,0,1,.374.341L252.915,387.4c-.044-.441-.065-.865-.065-1.277V360.009h1.979v31.129h-1.078a.95.95,0,0,1-.814-.439L232.7,363.684a12.311,12.311,0,0,1,.066,1.253v26.2H230.8V360.009h1.1a1.236,1.236,0,0,1,.484.078Z" transform="translate(0.127)" fill="#fff"/>
      <path id="Path_311" data-name="Path 311" d="M273.33,378.291v12.847h-2.265V378.291L259.56,360.009h1.957a.8.8,0,0,1,.494.143,1.718,1.718,0,0,1,.364.407l8.909,14.3a9.941,9.941,0,0,1,.528.979q.221.474.4.956.175-.482.4-.956a9.733,9.733,0,0,1,.528-.979l8.888-14.3a1.27,1.27,0,0,1,.329-.4.8.8,0,0,1,.506-.154h1.979L273.33,378.291Z" transform="translate(0.159)" fill="#fff"/>
      <path id="Path_312" data-name="Path 312" d="M326.04,391.138h-2.265V376.223H304.283v14.915h-2.267V360.009h2.267v14.52h19.492v-14.52h2.265v31.129Z" transform="translate(0.205)" fill="#fff"/>
      <path id="Path_313" data-name="Path 313" d="M337.04,391.138h-2.266V360.009h2.266v31.129Z" transform="translate(0.27)" fill="#fff"/>
      <path id="Path_314" data-name="Path 314" d="M348.039,389.224H362.8v1.914H345.8V360.009h2.244v29.215Z" transform="translate(0.27)" fill="#fff"/>
      <path id="Path_315" data-name="Path 315" d="M370.1,389.224h14.761v1.914H367.86V360.009H370.1v29.215Z" transform="translate(0.27)" fill="#fff"/>
      <path id="Path_316" data-name="Path 316" d="M384.952,405.838h-269.7v-1.42h269.7v1.42Z" transform="translate(0 0.411)" fill="#fff"/>
    </g>
  </g>
</svg>
