<svg id="Layer_1" data-name="Layer 1" xmlns="http://www.w3.org/2000/svg" xmlns:xlink="http://www.w3.org/1999/xlink" viewBox="0 0 322.09 188.84"><defs><style>.cls-1{fill:none;}.cls-2{clip-path:url(#clip-path);}.cls-3{fill:#202a45;}</style><clipPath id="clip-path"><rect class="cls-1" x="559.42" y="-361.16" width="375" height="550"/></clipPath></defs><title>B3</title><g class="cls-2"><image width="4000" height="2666" transform="translate(181.18 -422.55) scale(0.26)" xlink:href="../Q2/Links/20200212-064_9099_POWER_HOUSE_ROAD_282819_499075.jpg"/></g><polygon class="cls-3" points="19.55 187.92 19.55 137.67 29.74 137.67 29.74 179.43 49.77 179.43 49.13 187.92 19.55 187.92 19.55 187.92"/><polygon class="cls-3" points="59.6 137.67 69.79 137.67 69.79 187.92 59.6 187.92 59.6 137.67 59.6 137.67"/><path class="cls-3" d="M96,166.05H92.64v14.08h5.59c5.73,0,9.77-1.84,9.77-6.51,0-4.1-3.47-7.57-12-7.57m-1.42-21.16H92.64v14.3h4.11c5.09,0,8.56-2.34,8.56-7s-4.46-7.29-10.76-7.29m3.47,43H82.45V137.67h13c12,0,19.68,5.1,19.68,13.66a10.73,10.73,0,0,1-7.58,10.47c8.07,1.63,10.9,7.22,10.9,11.68,0,9.2-7.78,14.44-20.45,14.44"/><polygon class="cls-3" points="129.43 187.92 129.43 137.67 157.74 137.67 157.74 146.1 139.62 146.1 139.62 158.41 156.6 158.41 156.6 166.62 139.62 166.62 139.62 179.43 159.65 179.43 159.01 187.92 129.43 187.92 129.43 187.92"/><path class="cls-3" d="M185,145.81h-3.47v16.84s3.61.15,6.44.15c4.88,0,8.06-3,8.06-8.14,0-5.59-4.67-8.85-11-8.85m8.56,30.93-5-6.66h-7v17.84h-10.2V137.67H185.4c12.38,0,21.09,5.59,21.09,16.14a13.7,13.7,0,0,1-7.79,12.88l5.17,6.37c5.24,6.29,7.57,7.43,12.53,8.14l-1.35,7.28c-9.55.29-13.16-.84-21.51-11.74"/><polygon class="cls-3" points="229.69 146.16 215.18 146.16 215.18 137.67 255.16 137.67 254.6 146.16 239.88 146.16 239.88 187.92 229.69 187.92 229.69 146.16 229.69 146.16"/><polygon class="cls-3" points="277.38 167.4 258.41 137.67 270.44 137.67 283.18 158.19 295.99 137.67 306.82 137.67 287.57 167.32 287.57 187.92 277.38 187.92 277.38 167.4 277.38 167.4"/><polygon class="cls-3" points="321.04 117.43 0 117.43 0 114.81 321.04 114.81 321.04 117.43 321.04 117.43"/><path class="cls-3" d="M26.34,27.16a1.81,1.81,0,0,1,.6.11,1.71,1.71,0,0,1,.57.39l3.32,3.49a13.68,13.68,0,0,1-5.46,4.3A19.07,19.07,0,0,1,17.6,36.9a18.4,18.4,0,0,1-7.38-1.4A15.93,15.93,0,0,1,4.7,31.64a17,17,0,0,1-3.49-5.85A21.63,21.63,0,0,1,0,18.44,19.35,19.35,0,0,1,1.39,11,17.31,17.31,0,0,1,5.27,5.18a17.53,17.53,0,0,1,6-3.82A20.72,20.72,0,0,1,18.89,0a19.36,19.36,0,0,1,3.82.36,18.8,18.8,0,0,1,3.36,1A16.36,16.36,0,0,1,29,2.86a14.42,14.42,0,0,1,2.33,1.95L28.45,8.6a3.48,3.48,0,0,1-.64.63,1.69,1.69,0,0,1-1,.29,1.93,1.93,0,0,1-.85-.2c-.26-.13-.54-.3-.84-.49l-1-.61a6.72,6.72,0,0,0-1.26-.62,10.35,10.35,0,0,0-1.71-.49,11.9,11.9,0,0,0-2.29-.2,10.44,10.44,0,0,0-4.17.81A9.08,9.08,0,0,0,11.44,10a10.65,10.65,0,0,0-2.11,3.63,14.31,14.31,0,0,0-.76,4.78,15,15,0,0,0,.76,4.93A10.67,10.67,0,0,0,11.39,27a8.86,8.86,0,0,0,3,2.25,9.14,9.14,0,0,0,3.72.76,16.55,16.55,0,0,0,2.08-.11A8.46,8.46,0,0,0,22,29.52a8,8,0,0,0,1.54-.71A10.38,10.38,0,0,0,25,27.73a3.11,3.11,0,0,1,.65-.41,1.79,1.79,0,0,1,.71-.16Z"/><path class="cls-3" d="M45.3,17.37h3.38a8.67,8.67,0,0,0,2.91-.43,5.29,5.29,0,0,0,2-1.2,4.54,4.54,0,0,0,1.11-1.8A6.93,6.93,0,0,0,55,11.72,4.65,4.65,0,0,0,53.47,8a7.15,7.15,0,0,0-4.79-1.34H45.3v10.7Zm0,5.78V36.51H36.93V.4H48.68a23.93,23.93,0,0,1,6.67.8,12.59,12.59,0,0,1,4.52,2.25,8.51,8.51,0,0,1,2.54,3.39,11.45,11.45,0,0,1,.79,4.26,11.65,11.65,0,0,1-.47,3.33,10.12,10.12,0,0,1-1.4,2.88,10.87,10.87,0,0,1-2.28,2.37,12.39,12.39,0,0,1-3.11,1.71,8.07,8.07,0,0,1,1.57,1,6.13,6.13,0,0,1,1.28,1.51l7.68,12.57H58.89a3.22,3.22,0,0,1-3-1.59l-6-10.48a2.45,2.45,0,0,0-.93-1,3.17,3.17,0,0,0-1.49-.29Z"/><path class="cls-3" d="M83.57,22.7h9.87l-3.33-9.89-.75-2.21c-.29-.86-.58-1.78-.86-2.77-.26,1-.53,1.94-.81,2.8s-.55,1.61-.8,2.23L83.57,22.7Zm23.2,13.81h-6.49a3,3,0,0,1-1.8-.51,2.62,2.62,0,0,1-1-1.3l-2.13-6.3H81.64l-2.13,6.3a2.89,2.89,0,0,1-2.73,1.81H70.24L84.22.4h8.57l14,36.11Z"/><polygon class="cls-3" points="134.23 0.4 134.23 6.84 119.41 6.84 119.41 15.98 131.75 15.98 131.75 22.45 119.41 22.45 119.41 36.51 110.98 36.51 110.98 0.4 134.23 0.4 134.23 0.4"/><polygon class="cls-3" points="167.09 0.4 167.09 7.04 156.93 7.04 156.93 36.51 148.56 36.51 148.56 7.04 138.39 7.04 138.39 0.4 167.09 0.4 167.09 0.4"/><path class="cls-3" d="M190.28,22c.3.68.6,1.37.88,2.08.28-.73.58-1.43.89-2.12s.64-1.35,1-2l9.27-18.26a3,3,0,0,1,.5-.73,1.7,1.7,0,0,1,.59-.38,1.83,1.83,0,0,1,.73-.13h7.35V36.51h-7.39V15.74c0-1,.05-2.1.15-3.28L194.65,31a3.19,3.19,0,0,1-1.2,1.31,3.29,3.29,0,0,1-1.72.45h-1.14a3.27,3.27,0,0,1-1.72-.45A3.14,3.14,0,0,1,187.66,31l-9.61-18.59c.06.58.11,1.15.15,1.72s.05,1.1.05,1.58V36.51h-7.39V.42h7.35a1.9,1.9,0,0,1,.73.13,1.67,1.67,0,0,1,.58.38,3.28,3.28,0,0,1,.51.73L189.32,20c.33.62.65,1.28,1,2Z"/><path class="cls-3" d="M228.11,22.7H238l-3.33-9.89-.75-2.21c-.29-.86-.58-1.78-.86-2.77-.26,1-.53,1.94-.81,2.8s-.55,1.61-.8,2.23l-3.32,9.84Zm23.2,13.81h-6.5A3,3,0,0,1,243,36a2.62,2.62,0,0,1-1-1.3l-2.13-6.3H226.18l-2.13,6.3a2.89,2.89,0,0,1-2.73,1.81h-6.54L228.76.4h8.57l14,36.11Z"/><path class="cls-3" d="M263.9,17.37h3.37a8.59,8.59,0,0,0,2.91-.43,5.29,5.29,0,0,0,2-1.2,4.56,4.56,0,0,0,1.12-1.8,6.93,6.93,0,0,0,.35-2.22A4.65,4.65,0,0,0,272.07,8a7.2,7.2,0,0,0-4.8-1.34H263.9v10.7Zm0,5.78V36.51h-8.38V.4h11.75a24,24,0,0,1,6.68.8,12.63,12.63,0,0,1,4.51,2.25A8.42,8.42,0,0,1,281,6.84a11.25,11.25,0,0,1,.79,4.26,11.31,11.31,0,0,1-.47,3.33,9.87,9.87,0,0,1-1.4,2.88,10.87,10.87,0,0,1-2.28,2.37,12.39,12.39,0,0,1-3.11,1.71,8.14,8.14,0,0,1,1.58,1,6.1,6.1,0,0,1,1.27,1.51l7.69,12.57h-7.59a3.21,3.21,0,0,1-3-1.59l-6-10.48a2.52,2.52,0,0,0-.93-1,3.25,3.25,0,0,0-1.5-.29Z"/><path class="cls-3" d="M298.15,15h1.34a3.06,3.06,0,0,0,2.68-1.16l8.13-11.8A3.42,3.42,0,0,1,311.82.74,5.61,5.61,0,0,1,313.91.4h7.29L310.49,15a7.27,7.27,0,0,1-1.19,1.31,7.69,7.69,0,0,1-1.26.87,6.15,6.15,0,0,1,1.72.95,6.35,6.35,0,0,1,1.43,1.62l10.9,16.76h-7.48a7.1,7.1,0,0,1-1.23-.1,3.36,3.36,0,0,1-.88-.3,2.39,2.39,0,0,1-.64-.48,3.89,3.89,0,0,1-.52-.66L303.16,22.4a2.58,2.58,0,0,0-1.13-1,5.1,5.1,0,0,0-1.85-.28h-2V36.51h-8.37V.4h8.37V15Z"/><polygon class="cls-3" points="102.31 93.78 93.88 93.78 93.88 78.52 79.21 78.52 79.21 93.78 70.78 93.78 70.78 57.67 79.21 57.67 79.21 72.77 93.88 72.77 93.88 57.67 102.31 57.67 102.31 93.78 102.31 93.78"/><path class="cls-3" d="M136.61,75.72a15.48,15.48,0,0,0-.7-4.83,10.27,10.27,0,0,0-2-3.63A8.64,8.64,0,0,0,130.73,65a10.89,10.89,0,0,0-4.28-.79,11.14,11.14,0,0,0-4.33.79,8.56,8.56,0,0,0-3.19,2.28,10.29,10.29,0,0,0-2,3.63,17.29,17.29,0,0,0,0,9.67,10.12,10.12,0,0,0,2,3.63,8.42,8.42,0,0,0,3.19,2.27,11.33,11.33,0,0,0,4.33.78,11.07,11.07,0,0,0,4.28-.78,8.5,8.5,0,0,0,3.19-2.27,10.1,10.1,0,0,0,2-3.63,15.5,15.5,0,0,0,.7-4.84Zm8.57,0A19.4,19.4,0,0,1,143.83,83a17.44,17.44,0,0,1-3.8,5.86,17.68,17.68,0,0,1-5.91,3.91,21.62,21.62,0,0,1-15.36,0,17.66,17.66,0,0,1-5.93-3.91A17.34,17.34,0,0,1,109,83a20.33,20.33,0,0,1,0-14.57,17.2,17.2,0,0,1,3.82-5.85,17.62,17.62,0,0,1,5.93-3.89,20.29,20.29,0,0,1,7.69-1.41,20,20,0,0,1,7.67,1.42A17.81,17.81,0,0,1,140,62.6a17.49,17.49,0,0,1,3.8,5.85,19.38,19.38,0,0,1,1.35,7.27Z"/><path class="cls-3" d="M169.91,79.23c.3.68.59,1.37.88,2.08.28-.72.57-1.43.89-2.11s.63-1.36,1-2l9.27-18.26a3.06,3.06,0,0,1,.51-.73,1.57,1.57,0,0,1,.58-.39,2.11,2.11,0,0,1,.73-.12h7.35V93.78H183.7V73q0-1.5.15-3.27L174.28,88.3a3.21,3.21,0,0,1-1.2,1.32,3.33,3.33,0,0,1-1.73.45h-1.13a3.33,3.33,0,0,1-1.73-.45,3.21,3.21,0,0,1-1.2-1.32l-9.62-18.58c.07.57.12,1.15.15,1.72s.05,1.09.05,1.57V93.78h-7.38V57.7h7.34a2,2,0,0,1,.73.12,1.6,1.6,0,0,1,.59.39,3.06,3.06,0,0,1,.51.73L169,77.27c.33.63.65,1.28,1,2Z"/><polygon class="cls-3" points="221.57 57.67 221.57 64.11 206.75 64.11 206.75 72.54 218.1 72.54 218.1 78.74 206.75 78.74 206.75 87.34 221.57 87.34 221.57 93.78 198.32 93.78 198.32 57.67 221.57 57.67 221.57 57.67"/><path class="cls-3" d="M248.73,65a3.18,3.18,0,0,1-.78.89,1.72,1.72,0,0,1-1,.3,2.59,2.59,0,0,1-1.23-.36L244.18,65a12.94,12.94,0,0,0-1.89-.8,7.57,7.57,0,0,0-2.43-.36,5.23,5.23,0,0,0-3.51,1,3.42,3.42,0,0,0-1.15,2.72,2.5,2.5,0,0,0,.69,1.8,5.83,5.83,0,0,0,1.82,1.24,19.49,19.49,0,0,0,2.58,1c1,.29,2,.61,3,1a27.54,27.54,0,0,1,3,1.26,9.77,9.77,0,0,1,2.57,1.83,8.39,8.39,0,0,1,1.82,2.71,9.54,9.54,0,0,1,.7,3.86,12.48,12.48,0,0,1-.87,4.68,11.14,11.14,0,0,1-2.51,3.81,11.75,11.75,0,0,1-4.07,2.55,15.19,15.19,0,0,1-5.49.93,17.67,17.67,0,0,1-3.43-.35,20.2,20.2,0,0,1-3.38-1,19.11,19.11,0,0,1-3.08-1.5,12.65,12.65,0,0,1-2.5-1.93l2.48-3.92a2,2,0,0,1,.76-.71,2.14,2.14,0,0,1,1.07-.28,2.83,2.83,0,0,1,1.5.47l1.71,1a13.11,13.11,0,0,0,2.19,1,8.1,8.1,0,0,0,2.93.48,5.55,5.55,0,0,0,3.54-1,3.83,3.83,0,0,0,1.27-3.18,3,3,0,0,0-.7-2.06A5.36,5.36,0,0,0,240.91,80a16.19,16.19,0,0,0-2.56-.92c-1-.26-1.94-.56-2.95-.88a21.4,21.4,0,0,1-3-1.19,9.23,9.23,0,0,1-2.57-1.86,8.66,8.66,0,0,1-1.82-2.87,11.5,11.5,0,0,1-.69-4.25,10.14,10.14,0,0,1,3.22-7.41,11.73,11.73,0,0,1,3.89-2.42,14.47,14.47,0,0,1,5.28-.9,19,19,0,0,1,3.23.26,16.57,16.57,0,0,1,3,.76,16.78,16.78,0,0,1,2.64,1.22,11.65,11.65,0,0,1,2.19,1.6L248.73,65Z"/><path class="cls-3" d="M264.51,58.91h1.58a5.21,5.21,0,0,0,1.28-.14,2.21,2.21,0,0,0,.84-.42,1.52,1.52,0,0,0,.47-.67,2.81,2.81,0,0,0,.14-.91,2.65,2.65,0,0,0-.13-.89,1.43,1.43,0,0,0-.42-.63,2.13,2.13,0,0,0-.77-.37,5,5,0,0,0-1.19-.12h-1.8v4.15Zm0,1.56V65.3h-2.13V53.12h3.93a5.77,5.77,0,0,1,3.48.86,2.91,2.91,0,0,1,1.13,2.51,3.35,3.35,0,0,1-.73,2.19A3.81,3.81,0,0,1,268,59.92a1.69,1.69,0,0,1,.41.34,3.64,3.64,0,0,1,.32.48l3.11,4.56h-2a.74.74,0,0,1-.67-.34l-2.74-4.12a.89.89,0,0,0-.3-.28,1.15,1.15,0,0,0-.52-.09Zm-6.64-1.23A8.89,8.89,0,0,0,259,63.67a8.59,8.59,0,0,0,1.34,1.77,8.35,8.35,0,0,0,3.79,2.23,8.42,8.42,0,0,0,2.31.31,8.5,8.5,0,0,0,3.38-.68,8.64,8.64,0,0,0,4.59-4.64,8.66,8.66,0,0,0,.68-3.42,9,9,0,0,0-1.18-4.46A8.93,8.93,0,0,0,272.6,53a8.15,8.15,0,0,0-1.74-1.37,8.66,8.66,0,0,0-2.07-.88,8.49,8.49,0,0,0-2.32-.32,8.29,8.29,0,0,0-3.37.69A8.59,8.59,0,0,0,260.37,53a9,9,0,0,0-1.83,2.8,8.83,8.83,0,0,0-.67,3.44Zm-1.36,0a9.76,9.76,0,0,1,.35-2.66,10.07,10.07,0,0,1,1-2.39,9.87,9.87,0,0,1,1.57-2,10.57,10.57,0,0,1,2-1.56,9.91,9.91,0,0,1,10.06,0,10.57,10.57,0,0,1,2,1.56,10.24,10.24,0,0,1,1.57,2,10.5,10.5,0,0,1,1,2.39,9.93,9.93,0,0,1,0,5.3,10.06,10.06,0,0,1-1,2.38,10.15,10.15,0,0,1-3.59,3.58,9.47,9.47,0,0,1-2.38,1,10,10,0,0,1-5.31,0,9.41,9.41,0,0,1-2.37-1,10.19,10.19,0,0,1-2-1.56,9.87,9.87,0,0,1-1.57-2,9.82,9.82,0,0,1-1.35-5Z"/></svg>