<svg xmlns="http://www.w3.org/2000/svg" width="168" height="28.999" viewBox="0 0 168 28.999">
  <g id="Group_246" data-name="Group 246" transform="translate(-306.388 -555.456)">
    <path id="Path_1779" data-name="Path 1779" d="M314.522,576.454a.509.509,0,0,1,.182.033.5.5,0,0,1,.175.118l1.018,1.071A4.212,4.212,0,0,1,314.222,579a5.852,5.852,0,0,1-2.383.445,5.665,5.665,0,0,1-2.261-.429,4.9,4.9,0,0,1-1.7-1.186,5.217,5.217,0,0,1-1.067-1.794,6.615,6.615,0,0,1-.373-2.253,5.941,5.941,0,0,1,.426-2.277,5.305,5.305,0,0,1,1.189-1.789,5.377,5.377,0,0,1,1.828-1.17,6.373,6.373,0,0,1,2.349-.418,6,6,0,0,1,1.174.11,5.72,5.72,0,0,1,1.03.3,4.848,4.848,0,0,1,.882.463,4.3,4.3,0,0,1,.715.6l-.868,1.163a1.083,1.083,0,0,1-.2.194.518.518,0,0,1-.32.087.571.571,0,0,1-.258-.061,2.715,2.715,0,0,1-.258-.149l-.3-.19a2.277,2.277,0,0,0-.387-.189,3.2,3.2,0,0,0-.525-.149,3.59,3.59,0,0,0-.7-.061,3.21,3.21,0,0,0-1.276.248,2.785,2.785,0,0,0-.992.707,3.28,3.28,0,0,0-.646,1.113,4.357,4.357,0,0,0-.232,1.467,4.551,4.551,0,0,0,.232,1.512,3.333,3.333,0,0,0,.631,1.113,2.675,2.675,0,0,0,.931.687,2.785,2.785,0,0,0,1.14.235,5.569,5.569,0,0,0,.638-.033,2.692,2.692,0,0,0,.536-.118,2.439,2.439,0,0,0,.471-.218,3.087,3.087,0,0,0,.452-.33.944.944,0,0,1,.2-.126.531.531,0,0,1,.221-.049Z" transform="translate(-0.017 -3.827)" fill="#004e9e"/>
    <path id="Path_1780" data-name="Path 1780" d="M325.238,573.5h1.034a2.642,2.642,0,0,0,.893-.133,1.608,1.608,0,0,0,.6-.369,1.4,1.4,0,0,0,.342-.551,2.127,2.127,0,0,0,.107-.68,1.424,1.424,0,0,0-.475-1.14,2.211,2.211,0,0,0-1.471-.41h-1.034V573.5Zm0,1.771v4.1h-2.569V568.3h3.6a7.366,7.366,0,0,1,2.048.248,3.868,3.868,0,0,1,1.383.687,2.607,2.607,0,0,1,.779,1.041,3.459,3.459,0,0,1,.243,1.308,3.519,3.519,0,0,1-.144,1.019,3.087,3.087,0,0,1-.429.885,3.3,3.3,0,0,1-.7.725,3.7,3.7,0,0,1-.954.525,2.453,2.453,0,0,1,.483.319,1.928,1.928,0,0,1,.392.463l2.356,3.854H329.4a.987.987,0,0,1-.928-.486l-1.84-3.215a.779.779,0,0,0-.285-.3.955.955,0,0,0-.46-.091Z" transform="translate(-4.918 -3.879)" fill="#004e9e"/>
    <path id="Path_1781" data-name="Path 1781" d="M341.394,575.138h3.025l-1.018-3.032c-.066-.193-.143-.419-.232-.68s-.176-.544-.262-.848q-.121.465-.251.858t-.244.685l-1.018,3.017Zm7.114,4.234h-1.991a.921.921,0,0,1-.551-.156.807.807,0,0,1-.3-.4l-.653-1.931H340.8l-.654,1.931a.876.876,0,0,1-.836.555H337.3l4.287-11.074h2.63l4.287,11.074Z" transform="translate(-9.339 -3.879)" fill="#004e9e"/>
    <path id="Path_1782" data-name="Path 1782" d="M362.337,568.3v1.976h-4.545v2.8h3.785v1.984h-3.785v4.309h-2.584V568.3Z" transform="translate(-14.748 -3.879)" fill="#004e9e"/>
    <path id="Path_1783" data-name="Path 1783" d="M376.054,568.3v2.037h-3.116v9.037h-2.569v-9.037h-3.116V568.3Z" transform="translate(-18.386 -3.879)" fill="#004e9e"/>
    <path id="Path_1784" data-name="Path 1784" d="M387.473,574.913q.141.313.27.639.129-.334.274-.65t.3-.613l2.843-5.6a.9.9,0,0,1,.156-.225.505.505,0,0,1,.179-.118.623.623,0,0,1,.224-.038h2.253v11.065H391.7v-6.369c0-.309.015-.643.045-1l-2.933,5.694a.968.968,0,0,1-.369.4,1.021,1.021,0,0,1-.528.137h-.35a1.022,1.022,0,0,1-.528-.137.967.967,0,0,1-.368-.4l-2.949-5.7c.02.177.036.354.046.528s.015.336.015.482v6.369h-2.265V568.31h2.254a.622.622,0,0,1,.224.038.505.505,0,0,1,.179.118.921.921,0,0,1,.156.225l2.85,5.622q.152.288.292.6Z" transform="translate(-22.695 -3.883)" fill="#004e9e"/>
    <path id="Path_1785" data-name="Path 1785" d="M404.9,575.138h3.025l-1.018-3.032-.232-.68q-.133-.392-.262-.848-.12.465-.251.858t-.244.685l-1.018,3.017Zm7.115,4.234h-1.992a.918.918,0,0,1-.551-.156.808.808,0,0,1-.3-.4l-.653-1.931h-4.211l-.654,1.931a.864.864,0,0,1-.3.385.855.855,0,0,1-.54.17h-2.007L405.1,568.3h2.63l4.287,11.074Z" transform="translate(-28.525 -3.879)" fill="#004e9e"/>
    <path id="Path_1786" data-name="Path 1786" d="M421.287,573.5h1.034a2.645,2.645,0,0,0,.893-.133,1.608,1.608,0,0,0,.6-.369,1.394,1.394,0,0,0,.342-.551,2.106,2.106,0,0,0,.107-.68,1.424,1.424,0,0,0-.475-1.14,2.213,2.213,0,0,0-1.471-.41h-1.034V573.5Zm0,1.771v4.1h-2.568V568.3h3.6a7.361,7.361,0,0,1,2.048.248,3.865,3.865,0,0,1,1.384.687,2.592,2.592,0,0,1,.778,1.041,3.432,3.432,0,0,1,.244,1.308,3.542,3.542,0,0,1-.144,1.019,3.089,3.089,0,0,1-.43.885,3.321,3.321,0,0,1-.7.725,3.707,3.707,0,0,1-.953.525,2.49,2.49,0,0,1,.482.319,1.947,1.947,0,0,1,.392.463l2.356,3.854h-2.325a.987.987,0,0,1-.928-.486l-1.84-3.215a.779.779,0,0,0-.285-.3.955.955,0,0,0-.46-.091Z" transform="translate(-33.933 -3.879)" fill="#004e9e"/>
    <path id="Path_1787" data-name="Path 1787" d="M436.338,572.783h.41a.933.933,0,0,0,.821-.357l2.493-3.618a1.064,1.064,0,0,1,.467-.4,1.711,1.711,0,0,1,.643-.107h2.235l-3.284,4.477a2.2,2.2,0,0,1-.364.4,2.377,2.377,0,0,1-.388.267,1.844,1.844,0,0,1,.965.79l3.344,5.137h-2.295a1.994,1.994,0,0,1-.376-.03.945.945,0,0,1-.27-.091.8.8,0,0,1-.2-.148,1.449,1.449,0,0,1-.16-.2l-2.508-3.853a.75.75,0,0,0-.345-.3,1.505,1.505,0,0,0-.567-.088h-.623v4.712H433.77V568.3h2.568v4.485Z" transform="translate(-38.48 -3.879)" fill="#004e9e"/>
    <path id="Path_1788" data-name="Path 1788" d="M466.065,579.372h-2.584V574.69h-4.5v4.682H456.4V568.3h2.584v4.629h4.5V568.3h2.584v11.074Z" transform="translate(-45.315 -3.879)" fill="#004e9e"/>
    <path id="Path_1789" data-name="Path 1789" d="M481.479,573.779a4.8,4.8,0,0,0-.214-1.479,3.145,3.145,0,0,0-.611-1.113,2.649,2.649,0,0,0-.978-.7,3.348,3.348,0,0,0-1.314-.244,3.405,3.405,0,0,0-1.327.244,2.629,2.629,0,0,0-.98.7,3.126,3.126,0,0,0-.612,1.113,5.265,5.265,0,0,0,0,2.964,3.114,3.114,0,0,0,.612,1.113,2.574,2.574,0,0,0,.98.7,3.457,3.457,0,0,0,1.327.239,3.4,3.4,0,0,0,1.314-.239,2.593,2.593,0,0,0,.978-.7,3.133,3.133,0,0,0,.611-1.113,4.818,4.818,0,0,0,.214-1.485Zm2.629,0a5.96,5.96,0,0,1-.414,2.234,5.276,5.276,0,0,1-2.979,2.995,6.619,6.619,0,0,1-4.708,0,5.283,5.283,0,0,1-2.991-2.995,6.238,6.238,0,0,1,0-4.469,5.331,5.331,0,0,1,1.17-1.794,5.426,5.426,0,0,1,1.821-1.193,6.186,6.186,0,0,1,2.356-.433,6.112,6.112,0,0,1,2.352.438,5.439,5.439,0,0,1,1.813,1.2,5.377,5.377,0,0,1,1.166,1.794,5.939,5.939,0,0,1,.414,2.227Z" transform="translate(-50.21 -3.827)" fill="#004e9e"/>
    <path id="Path_1790" data-name="Path 1790" d="M497.374,574.913q.139.313.269.639.129-.334.274-.65c.095-.211.194-.415.3-.613l2.843-5.6a.9.9,0,0,1,.156-.225.5.5,0,0,1,.178-.118.628.628,0,0,1,.224-.038h2.254v11.065H501.6v-6.369c0-.309.015-.643.046-1l-2.934,5.694a.961.961,0,0,1-.368.4,1.023,1.023,0,0,1-.528.137h-.35a1.028,1.028,0,0,1-.529-.137.971.971,0,0,1-.369-.4l-2.949-5.7c.02.177.035.354.046.528s.015.336.015.482v6.369h-2.265V568.31h2.254a.625.625,0,0,1,.224.038.521.521,0,0,1,.179.118.962.962,0,0,1,.155.225l2.85,5.622c.1.192.2.392.293.6Z" transform="translate(-55.894 -3.883)" fill="#004e9e"/>
    <path id="Path_1791" data-name="Path 1791" d="M519.566,568.3v1.976h-4.545v2.584H518.5v1.9h-3.481V577.4h4.545v1.976h-7.129V568.3Z" transform="translate(-62.243 -3.879)" fill="#004e9e"/>
    <path id="Path_1792" data-name="Path 1792" d="M531.567,570.5a.954.954,0,0,1-.239.274.535.535,0,0,1-.323.091.794.794,0,0,1-.376-.11l-.456-.248a3.872,3.872,0,0,0-.581-.246,2.333,2.333,0,0,0-.745-.11,1.6,1.6,0,0,0-1.076.308,1.045,1.045,0,0,0-.354.832.765.765,0,0,0,.212.554,1.821,1.821,0,0,0,.56.38,5.958,5.958,0,0,0,.79.292q.445.134.909.3a8.387,8.387,0,0,1,.908.385,3.016,3.016,0,0,1,.79.563,2.617,2.617,0,0,1,.559.833,2.956,2.956,0,0,1,.213,1.181,3.84,3.84,0,0,1-.267,1.437,3.354,3.354,0,0,1-.771,1.166,3.6,3.6,0,0,1-1.246.784,4.68,4.68,0,0,1-1.683.284,5.372,5.372,0,0,1-1.052-.107,6.21,6.21,0,0,1-1.037-.3,6,6,0,0,1-.943-.46,4,4,0,0,1-.768-.593l.761-1.2a.6.6,0,0,1,.235-.22.664.664,0,0,1,.327-.084.87.87,0,0,1,.46.145c.155.1.329.2.525.319a4.157,4.157,0,0,0,.672.32,2.531,2.531,0,0,0,.9.145,1.706,1.706,0,0,0,1.087-.309,1.171,1.171,0,0,0,.388-.976.924.924,0,0,0-.213-.631,1.657,1.657,0,0,0-.559-.4,5.085,5.085,0,0,0-.787-.281q-.441-.122-.9-.27a6.561,6.561,0,0,1-.905-.365,2.867,2.867,0,0,1-.786-.57,2.66,2.66,0,0,1-.559-.882,3.5,3.5,0,0,1-.213-1.3,3.082,3.082,0,0,1,.251-1.215,3.152,3.152,0,0,1,.737-1.057,3.631,3.631,0,0,1,1.193-.742,4.424,4.424,0,0,1,1.619-.277,6,6,0,0,1,.992.08,5.194,5.194,0,0,1,.916.235,4.945,4.945,0,0,1,.81.373,3.7,3.7,0,0,1,.672.49l-.638,1.193Z" transform="translate(-65.915 -3.827)" fill="#004e9e"/>
    <path id="Path_1793" data-name="Path 1793" d="M466.482,556.3H306.388v-.845H466.482v.845Z" fill="#004e9e"/>
    <path id="Path_1794" data-name="Path 1794" d="M466.482,596.641H306.388V595.8H466.482v.844Z" transform="translate(0 -12.186)" fill="#004e9e"/>
    <path id="Path_1795" data-name="Path 1795" d="M540.79,568.03h.486a1.5,1.5,0,0,0,.391-.044.669.669,0,0,0,.26-.128.491.491,0,0,0,.142-.205.839.839,0,0,0,.043-.281.848.848,0,0,0-.04-.272.421.421,0,0,0-.129-.193.6.6,0,0,0-.237-.113,1.487,1.487,0,0,0-.364-.038h-.553v1.273Zm0,.477v1.482h-.653v-3.735h1.207a1.777,1.777,0,0,1,1.068.262.906.906,0,0,1,.348.773,1.034,1.034,0,0,1-.224.67,1.175,1.175,0,0,1-.668.381.456.456,0,0,1,.123.1.979.979,0,0,1,.1.147l.954,1.4h-.62a.228.228,0,0,1-.205-.1l-.842-1.265a.271.271,0,0,0-.09-.084.34.34,0,0,0-.161-.029Zm-2.035-.377a2.781,2.781,0,0,0,.092.716,2.669,2.669,0,0,0,.674,1.185,2.6,2.6,0,0,0,1.164.685,2.634,2.634,0,0,0,.708.094,2.58,2.58,0,0,0,1.036-.209,2.653,2.653,0,0,0,.842-.572,2.7,2.7,0,0,0,.566-.85,2.668,2.668,0,0,0,.207-1.049,2.742,2.742,0,0,0-.361-1.367,2.689,2.689,0,0,0-.412-.546,2.561,2.561,0,0,0-.533-.421,2.655,2.655,0,0,0-.635-.27,2.6,2.6,0,0,0-.709-.1,2.544,2.544,0,0,0-1.035.211,2.626,2.626,0,0,0-.838.578,2.74,2.74,0,0,0-.766,1.912Zm-.419,0a3.054,3.054,0,0,1,.417-1.547,2.966,2.966,0,0,1,.479-.62,3.193,3.193,0,0,1,.62-.479,3.044,3.044,0,0,1,3.087,0,3.149,3.149,0,0,1,.619.479,3.023,3.023,0,0,1,.48.62,3.093,3.093,0,0,1,.307.733,3.065,3.065,0,0,1,0,1.625,3,3,0,0,1-.787,1.348,3.152,3.152,0,0,1-.619.479,3.04,3.04,0,0,1-3.087,0,3.2,3.2,0,0,1-.62-.479,2.989,2.989,0,0,1-.479-.618,3.023,3.023,0,0,1-.417-1.541Z" transform="translate(-70.067 -2.903)" fill="#004e9e"/>
  </g>
</svg>
