<svg xmlns="http://www.w3.org/2000/svg" width="76" height="34.561" viewBox="0 0 76 34.561">
  <g id="Group_53" data-name="Group 53" transform="translate(-57.333 -10.747)">
    <g id="Group_46" data-name="Group 46" transform="translate(57.333 17.185)">
      <g id="Group_44" data-name="Group 44">
        <path id="Path_940" data-name="Path 940" d="M63.549,22.7a.4.4,0,0,1,.141.026.383.383,0,0,1,.135.091l.783.824a3.244,3.244,0,0,1-1.29,1.015,4.494,4.494,0,0,1-1.833.342,4.377,4.377,0,0,1-1.74-.329,3.773,3.773,0,0,1-1.3-.914,4.016,4.016,0,0,1-.822-1.38,5.1,5.1,0,0,1-.286-1.733,4.569,4.569,0,0,1,.327-1.753,4.034,4.034,0,0,1,2.322-2.277,4.888,4.888,0,0,1,1.807-.322,4.565,4.565,0,0,1,.9.085,4.434,4.434,0,0,1,.793.234,3.743,3.743,0,0,1,.678.357,3.244,3.244,0,0,1,.55.459l-.666.895a.881.881,0,0,1-.152.149.4.4,0,0,1-.245.067.455.455,0,0,1-.2-.046,2.186,2.186,0,0,1-.2-.115l-.231-.145a1.664,1.664,0,0,0-.3-.146,2.451,2.451,0,0,0-.4-.114,2.746,2.746,0,0,0-.54-.046,2.476,2.476,0,0,0-.983.189,2.152,2.152,0,0,0-.762.544,2.519,2.519,0,0,0-.5.857,3.374,3.374,0,0,0-.178,1.13,3.52,3.52,0,0,0,.178,1.163,2.566,2.566,0,0,0,.486.857,2.063,2.063,0,0,0,.716.529,2.141,2.141,0,0,0,.878.181,3.962,3.962,0,0,0,.49-.027,2.006,2.006,0,0,0,.413-.091,1.825,1.825,0,0,0,.363-.166,2.42,2.42,0,0,0,.348-.255.7.7,0,0,1,.152-.1A.4.4,0,0,1,63.549,22.7Z" transform="translate(-57.333 -16.286)" fill="#fff"/>
        <path id="Path_941" data-name="Path 941" d="M66.806,21.735v3.152H64.83V16.366H67.6a5.684,5.684,0,0,1,1.575.191,2.966,2.966,0,0,1,1.065.529,2,2,0,0,1,.6.8,2.8,2.8,0,0,1,.076,1.79,2.327,2.327,0,0,1-.33.681,2.55,2.55,0,0,1-.538.559,2.871,2.871,0,0,1-.733.4,1.9,1.9,0,0,1,.371.245,1.463,1.463,0,0,1,.3.357L71.8,24.887H70.01a.757.757,0,0,1-.712-.374l-1.416-2.473a.6.6,0,0,0-.22-.234.72.72,0,0,0-.353-.071Zm0-1.362h.8a2.027,2.027,0,0,0,.687-.1,1.252,1.252,0,0,0,.465-.284,1.1,1.1,0,0,0,.263-.424,1.623,1.623,0,0,0,.081-.523,1.1,1.1,0,0,0-.365-.878,1.7,1.7,0,0,0-1.131-.316h-.8Z" transform="translate(-56.116 -16.273)" fill="#fff"/>
        <path id="Path_942" data-name="Path 942" d="M80.211,24.887H78.68a.709.709,0,0,1-.424-.12.618.618,0,0,1-.23-.307l-.5-1.485H74.283l-.5,1.485a.666.666,0,0,1-.228.3.657.657,0,0,1-.416.131H71.592l3.3-8.521h2.024ZM74.738,21.63h2.327L76.282,19.3c-.051-.148-.11-.323-.178-.523s-.136-.418-.2-.652c-.062.237-.127.458-.193.66s-.129.379-.187.527Z" transform="translate(-55.019 -16.273)" fill="#fff"/>
        <path id="Path_943" data-name="Path 943" d="M85.349,16.366v1.52h-3.5v2.158h2.913v1.527H81.851v3.315H79.864V16.366Z" transform="translate(-53.677 -16.273)" fill="#fff"/>
        <path id="Path_944" data-name="Path 944" d="M92.2,16.366v1.568H89.8v6.953H87.826V17.934h-2.4V16.366Z" transform="translate(-52.774 -16.273)" fill="#fff"/>
        <path id="Path_945" data-name="Path 945" d="M96.6,21.452c.072.16.141.324.207.492.066-.171.137-.338.21-.5s.151-.32.229-.472l2.187-4.309a.661.661,0,0,1,.12-.172.377.377,0,0,1,.137-.091.468.468,0,0,1,.172-.029H101.6v8.514H99.856v-4.9c0-.238.012-.5.035-.773l-2.257,4.381a.759.759,0,0,1-.284.31.789.789,0,0,1-.407.106h-.268a.789.789,0,0,1-.407-.106.751.751,0,0,1-.284-.31l-2.269-4.386c.015.137.027.273.035.407s.012.259.012.372v4.9H92.02V16.372h1.733a.475.475,0,0,1,.173.029.387.387,0,0,1,.137.091.69.69,0,0,1,.12.172l2.193,4.327C96.454,21.138,96.53,21.292,96.6,21.452Z" transform="translate(-51.704 -16.272)" fill="#fff"/>
        <path id="Path_946" data-name="Path 946" d="M109.555,24.887h-1.532a.7.7,0,0,1-.424-.12.62.62,0,0,1-.231-.307l-.5-1.485h-3.239l-.5,1.485a.658.658,0,0,1-.228.3.651.651,0,0,1-.415.131h-1.544l3.3-8.521h2.024Zm-5.474-3.257h2.328l-.783-2.334c-.051-.148-.11-.323-.179-.523s-.135-.418-.2-.652c-.063.237-.127.458-.193.66s-.129.379-.187.527Z" transform="translate(-50.258 -16.273)" fill="#fff"/>
        <path id="Path_947" data-name="Path 947" d="M111.184,21.735v3.152h-1.977V16.366h2.773a5.684,5.684,0,0,1,1.575.191,2.975,2.975,0,0,1,1.065.529,2,2,0,0,1,.6.8,2.8,2.8,0,0,1,.076,1.79,2.356,2.356,0,0,1-.33.681,2.55,2.55,0,0,1-.538.559,2.871,2.871,0,0,1-.733.4,1.9,1.9,0,0,1,.371.245,1.463,1.463,0,0,1,.3.357l1.813,2.965H114.39a.759.759,0,0,1-.715-.374l-1.414-2.473a.6.6,0,0,0-.22-.234.723.723,0,0,0-.353-.071Zm0-1.362h.8a2.02,2.02,0,0,0,.686-.1,1.234,1.234,0,0,0,.465-.284,1.085,1.085,0,0,0,.264-.424,1.623,1.623,0,0,0,.081-.523,1.1,1.1,0,0,0-.365-.878,1.7,1.7,0,0,0-1.131-.316h-.8Z" transform="translate(-48.915 -16.273)" fill="#fff"/>
        <path id="Path_948" data-name="Path 948" d="M118.138,19.817h.315a.72.72,0,0,0,.632-.274L121,16.759a.823.823,0,0,1,.359-.31,1.321,1.321,0,0,1,.5-.083h1.719l-2.527,3.445a1.656,1.656,0,0,1-.579.515,1.526,1.526,0,0,1,.407.224,1.483,1.483,0,0,1,.336.384l2.573,3.953H122.02a1.487,1.487,0,0,1-.289-.023.721.721,0,0,1-.207-.07.628.628,0,0,1-.152-.114,1.066,1.066,0,0,1-.122-.156l-1.931-2.965a.574.574,0,0,0-.266-.23,1.142,1.142,0,0,0-.436-.067h-.479v3.625h-1.977V16.366h1.977Z" transform="translate(-47.787 -16.273)" fill="#fff"/>
      </g>
      <g id="Group_45" data-name="Group 45" transform="translate(16.702 13.515)">
        <path id="Path_949" data-name="Path 949" d="M79.142,36.515H77.153v-3.6H73.692v3.6H71.7V27.994h1.989v3.561h3.461V27.994h1.989Z" transform="translate(-71.703 -27.901)" fill="#fff"/>
        <path id="Path_950" data-name="Path 950" d="M88.043,32.264a4.6,4.6,0,0,1-.318,1.719,4.062,4.062,0,0,1-2.293,2.3,5.1,5.1,0,0,1-3.622,0,4.071,4.071,0,0,1-2.3-2.3,4.782,4.782,0,0,1,0-3.438,4.083,4.083,0,0,1,.9-1.381,4.155,4.155,0,0,1,1.4-.918,4.763,4.763,0,0,1,1.812-.332,4.7,4.7,0,0,1,1.81.336,4.2,4.2,0,0,1,1.4.921,4.145,4.145,0,0,1,.9,1.381A4.578,4.578,0,0,1,88.043,32.264Zm-2.024,0a3.69,3.69,0,0,0-.164-1.138,2.437,2.437,0,0,0-.47-.857,2.053,2.053,0,0,0-.752-.538,2.594,2.594,0,0,0-1.012-.187,2.636,2.636,0,0,0-1.02.187,2.042,2.042,0,0,0-.754.538,2.42,2.42,0,0,0-.471.857,4.052,4.052,0,0,0,0,2.282,2.41,2.41,0,0,0,.471.857,2.008,2.008,0,0,0,.754.535,2.658,2.658,0,0,0,1.02.185,2.616,2.616,0,0,0,1.012-.185,2.018,2.018,0,0,0,.752-.535,2.427,2.427,0,0,0,.47-.857A3.707,3.707,0,0,0,86.02,32.264Z" transform="translate(-70.488 -27.914)" fill="#fff"/>
        <path id="Path_951" data-name="Path 951" d="M92.466,33.08c.072.16.141.324.207.492.066-.171.137-.338.212-.5s.15-.32.228-.472L95.3,28.292a.641.641,0,0,1,.12-.172.38.38,0,0,1,.137-.092A.494.494,0,0,1,95.728,28h1.734v8.515H95.72v-4.9c0-.238.012-.5.035-.773L93.5,35.221a.751.751,0,0,1-.284.31.788.788,0,0,1-.407.1h-.268a.788.788,0,0,1-.407-.1.751.751,0,0,1-.284-.31L89.58,30.835c.015.137.027.272.035.407s.012.258.012.372v4.9H87.884V28h1.733a.5.5,0,0,1,.173.029.39.39,0,0,1,.137.092.7.7,0,0,1,.12.172l2.193,4.326C92.318,32.767,92.394,32.92,92.466,33.08Z" transform="translate(-69.077 -27.9)" fill="#fff"/>
        <path id="Path_952" data-name="Path 952" d="M103.08,27.994v1.52h-3.5V31.5h2.678v1.462H99.583v2.029h3.5v1.52H97.594V27.994Z" transform="translate(-67.502 -27.901)" fill="#fff"/>
        <path id="Path_953" data-name="Path 953" d="M108.577,29.738a.752.752,0,0,1-.184.212.414.414,0,0,1-.249.07.6.6,0,0,1-.289-.085l-.351-.191a2.994,2.994,0,0,0-.447-.189,1.774,1.774,0,0,0-.573-.085,1.232,1.232,0,0,0-.828.237.8.8,0,0,0-.272.64.589.589,0,0,0,.164.427,1.4,1.4,0,0,0,.43.292,4.381,4.381,0,0,0,.608.225c.229.069.461.144.7.228a6.42,6.42,0,0,1,.7.3,2.311,2.311,0,0,1,.608.432,2.02,2.02,0,0,1,.43.64,2.272,2.272,0,0,1,.164.909,2.971,2.971,0,0,1-.2,1.105,2.6,2.6,0,0,1-.594.9,2.769,2.769,0,0,1-.959.6,3.611,3.611,0,0,1-1.3.219,4.133,4.133,0,0,1-.809-.081,4.738,4.738,0,0,1-.8-.231,4.558,4.558,0,0,1-.725-.353,3,3,0,0,1-.59-.457l.585-.923a.457.457,0,0,1,.181-.17.512.512,0,0,1,.251-.065.66.66,0,0,1,.353.112c.12.073.253.156.4.245a3.2,3.2,0,0,0,.517.245,1.932,1.932,0,0,0,.69.112,1.312,1.312,0,0,0,.836-.237.9.9,0,0,0,.3-.751.713.713,0,0,0-.164-.486,1.259,1.259,0,0,0-.43-.309,3.931,3.931,0,0,0-.606-.217c-.225-.063-.458-.131-.7-.207a5.13,5.13,0,0,1-.7-.281,2.2,2.2,0,0,1-.606-.438,2.051,2.051,0,0,1-.43-.679,2.692,2.692,0,0,1-.164-1,2.375,2.375,0,0,1,.193-.936,2.442,2.442,0,0,1,.567-.812,2.81,2.81,0,0,1,.918-.571,3.41,3.41,0,0,1,1.246-.213,4.576,4.576,0,0,1,.764.062,3.956,3.956,0,0,1,.7.18,3.864,3.864,0,0,1,.623.287,2.942,2.942,0,0,1,.517.377Z" transform="translate(-66.59 -27.914)" fill="#fff"/>
      </g>
    </g>
    <rect id="Rectangle_1504" data-name="Rectangle 1504" width="76" height="0.65" transform="translate(57.333 10.747)" fill="#fff"/>
    <rect id="Rectangle_1505" data-name="Rectangle 1505" width="76" height="0.65" transform="translate(57.333 44.658)" fill="#fff"/>
  </g>
</svg>
