<svg xmlns="http://www.w3.org/2000/svg" width="248" height="196.945" viewBox="0 0 248 196.945">
  <g id="TheWoodsAtOccoquanOverlook-Logo-Color" transform="translate(0 -154.4)">
    <g id="Group_99994" data-name="Group 99994" transform="translate(72.333 154.4)">
      <path id="Path_5873" data-name="Path 5873" d="M489.167,154.4a51.668,51.668,0,0,0-48.906,68.332,1.455,1.455,0,0,0,.083.248,51.664,51.664,0,0,0,4.745,10.036,1.237,1.237,0,0,0,.248.4c.017.033.05.066.066.1a1.164,1.164,0,0,0,.248.38,52.506,52.506,0,0,0,11.011,12.317,1.591,1.591,0,0,0,.364.3,51.6,51.6,0,0,0,71.622-7.159,1.5,1.5,0,0,0,.3-.347,51.541,51.541,0,0,0,4.034-5.588,1.23,1.23,0,0,0,.232-.364,51.983,51.983,0,0,0,4.745-10.019c.033-.083.066-.182.1-.265A51.7,51.7,0,0,0,489.167,154.4Zm-42.21,76.384a49.637,49.637,0,0,1-3.174-6.448.655.655,0,0,1,.513-.893,61.16,61.16,0,0,0,21.692-7.754c.033-.017.05-.017.083-.033.017,0,.017-.017.033-.017,1.637-.975,3.241-2.017,4.778-3.141a61.533,61.533,0,0,0,15.707-16.732.655.655,0,0,1,1.207.364v9.639a.684.684,0,0,1-.083.314,47.538,47.538,0,0,1-40.159,25.048A.749.749,0,0,1,446.957,230.784Zm42.342-48.41a1.369,1.369,0,0,0-1.5,1.356v4a.543.543,0,0,1-.066.281A58.86,58.86,0,0,1,469.26,210.25c-.959.694-1.934,1.356-2.926,2a.659.659,0,0,1-.926-.231,27.247,27.247,0,1,1,47.517,0,.659.659,0,0,1-.926.231c-.992-.628-1.984-1.29-2.943-2a58.693,58.693,0,0,1-18.451-22.237.543.543,0,0,1-.066-.281V183.8A1.416,1.416,0,0,0,489.3,182.374Zm-1.5,31.017v17.228a.665.665,0,0,1-.827.645,69.469,69.469,0,0,0-17.426-1.918h-.033a.668.668,0,0,1-.314-1.257,50.194,50.194,0,0,0,17.393-15.111A.679.679,0,0,1,487.794,213.391ZM458.53,244.077a.753.753,0,0,1-.314-.132,48.182,48.182,0,0,1-8.548-9.044.669.669,0,0,1,.43-1.058,150.3,150.3,0,0,1,19.476-1.753,66.292,66.292,0,0,1,15.343,1.521c2.513.546,6.217,1.67,8.812,2.5a.662.662,0,0,1-.116,1.29,57.978,57.978,0,0,0-14.285,3.9,44.1,44.1,0,0,1-7.126,2.282A39.3,39.3,0,0,1,458.53,244.077Zm64-2.265a48.849,48.849,0,0,1-57.916,6.564.664.664,0,0,1,.3-1.24,54.051,54.051,0,0,0,7.8-.876,47.2,47.2,0,0,0,7.572-2.414c6.382-2.43,14.252-5.439,28.586-3.439.529.083,1.058.165,1.587.231.132.016.248.033.364.05h.1a44.71,44.71,0,0,0,5.258.314,47.682,47.682,0,0,0,5.787-.364A.693.693,0,0,1,522.531,241.812Zm6.25-7.06q-.794,1.091-1.637,2.133a.7.7,0,0,1-.38.231,46.236,46.236,0,0,1-15.442.893H511.3q-1.19-.2-2.331-.347a78.7,78.7,0,0,1-11.821-3.34c-2.166-.761-4.2-1.405-6.134-1.967a.655.655,0,0,1-.479-.628V213.391a.66.66,0,0,1,1.19-.4,50.294,50.294,0,0,0,36.572,20.7A.673.673,0,0,1,528.781,234.752Zm5.77-10.416a49.629,49.629,0,0,1-3.174,6.448.66.66,0,0,1-.6.331,47.5,47.5,0,0,1-40.159-25.048.742.742,0,0,1-.083-.314v-9.639a.667.667,0,0,1,1.223-.364,61.518,61.518,0,0,0,15.707,16.732c1.554,1.124,3.158,2.182,4.811,3.158l.016.017a.061.061,0,0,0,.05.017,61.354,61.354,0,0,0,21.725,7.771A.651.651,0,0,1,534.551,224.336Zm1.405-3.968a.656.656,0,0,1-.727.463,58.419,58.419,0,0,1-19.691-6.5.659.659,0,0,1-.248-.909,29.979,29.979,0,1,0-52.229.017.669.669,0,0,1-.248.909,58.418,58.418,0,0,1-19.691,6.5.666.666,0,0,1-.727-.463,48.928,48.928,0,1,1,93.562-.017Z" transform="translate(-437.5 -154.4)" fill="#002a46"/>
      <path id="Path_5874" data-name="Path 5874" d="M657.722,672.707a48.85,48.85,0,0,1-57.916,6.564.664.664,0,0,1,.3-1.24,54.039,54.039,0,0,0,7.8-.876,47.192,47.192,0,0,0,7.572-2.414c6.382-2.43,14.252-5.44,28.586-3.439.529.083,1.058.165,1.587.231.132.017.248.033.364.05h.1a44.719,44.719,0,0,0,5.258.314,47.669,47.669,0,0,0,5.787-.364A.693.693,0,0,1,657.722,672.707Z" transform="translate(-572.691 -585.295)" fill="#d2e8e6"/>
      <path id="Path_5875" data-name="Path 5875" d="M554.378,629.5a57.977,57.977,0,0,0-14.285,3.9,44.1,44.1,0,0,1-7.126,2.282,39.746,39.746,0,0,1-13.673.5.753.753,0,0,1-.314-.132A48.182,48.182,0,0,1,510.433,627a.67.67,0,0,1,.43-1.058,150.313,150.313,0,0,1,19.476-1.753,66.289,66.289,0,0,1,15.343,1.521c2.513.546,6.216,1.67,8.812,2.5A.662.662,0,0,1,554.378,629.5Z" transform="translate(-498.264 -546.517)" fill="#d2e8e6"/>
      <path id="Path_5876" data-name="Path 5876" d="M796.542,529.2q-.794,1.091-1.637,2.133a.7.7,0,0,1-.38.232,46.238,46.238,0,0,1-15.442.893h-.017q-1.19-.2-2.331-.347a78.7,78.7,0,0,1-11.821-3.34c-2.166-.76-4.2-1.405-6.134-1.967a.655.655,0,0,1-.479-.628V507.834a.66.66,0,0,1,1.19-.4,50.294,50.294,0,0,0,36.572,20.7A.673.673,0,0,1,796.542,529.2Z" transform="translate(-705.261 -448.843)" fill="#e9dfca"/>
      <path id="Path_5877" data-name="Path 5877" d="M646.014,507.833V525.06a.665.665,0,0,1-.827.645,69.469,69.469,0,0,0-17.426-1.918h-.033a.668.668,0,0,1-.314-1.256,50.193,50.193,0,0,0,17.393-15.112A.679.679,0,0,1,646.014,507.833Z" transform="translate(-595.72 -448.842)" fill="#d7c36c"/>
      <path id="Path_5878" data-name="Path 5878" d="M519.26,403.274v9.639a.685.685,0,0,1-.083.314,47.539,47.539,0,0,1-40.159,25.048.63.63,0,0,1-.6-.331,49.635,49.635,0,0,1-3.174-6.448.655.655,0,0,1,.513-.893,61.161,61.161,0,0,0,21.692-7.754c.033-.017.05-.017.083-.033.017,0,.017-.017.033-.017,1.637-.975,3.241-2.017,4.778-3.141a61.533,61.533,0,0,0,15.707-16.732A.652.652,0,0,1,519.26,403.274Z" transform="translate(-468.965 -361.577)" fill="#d7c36c"/>
      <path id="Path_5879" data-name="Path 5879" d="M802.312,431.576a49.637,49.637,0,0,1-3.174,6.448.66.66,0,0,1-.6.331,47.5,47.5,0,0,1-40.159-25.048.741.741,0,0,1-.083-.314v-9.639a.667.667,0,0,1,1.224-.364,61.516,61.516,0,0,0,15.707,16.732c1.554,1.124,3.158,2.182,4.811,3.158l.017.017a.061.061,0,0,0,.05.017,61.354,61.354,0,0,0,21.725,7.771A.651.651,0,0,1,802.312,431.576Z" transform="translate(-705.261 -361.64)" fill="#e9dfca"/>
      <path id="Path_5880" data-name="Path 5880" d="M549.895,234.3a.656.656,0,0,1-.727.463,58.417,58.417,0,0,1-19.691-6.5.659.659,0,0,1-.248-.909,29.979,29.979,0,1,0-52.229.017.669.669,0,0,1-.248.909,58.418,58.418,0,0,1-19.691,6.5.666.666,0,0,1-.727-.463,48.928,48.928,0,1,1,93.562-.017Z" transform="translate(-451.439 -168.335)" fill="#d2e8e6"/>
      <path id="Path_5881" data-name="Path 5881" d="M639.718,284.78a27.08,27.08,0,0,1-3.489,13.326.659.659,0,0,1-.926.231c-.992-.628-1.984-1.29-2.943-2A58.693,58.693,0,0,1,613.91,274.1a.544.544,0,0,1-.066-.281v-3.935a1.416,1.416,0,0,0-1.24-1.422,1.369,1.369,0,0,0-1.5,1.356v4a.543.543,0,0,1-.066.281,58.86,58.86,0,0,1-18.468,22.237c-.959.694-1.934,1.356-2.926,2a.659.659,0,0,1-.926-.231,27.243,27.243,0,1,1,51.005-13.326Z" transform="translate(-560.805 -240.487)" fill="#e0793f"/>
    </g>
    <g id="Group_99995" data-name="Group 99995" transform="translate(0 290.188)">
      <path id="Path_5882" data-name="Path 5882" d="M24.3,978.7v4.927a14.326,14.326,0,0,0-10.085-3.9V1009.8H10.085V979.725A14.4,14.4,0,0,0,0,983.627V978.7Z" transform="translate(0 -978.204)" fill="#002a46"/>
      <path id="Path_5883" data-name="Path 5883" d="M169.3,1009.8V978.7h4.133v14.351H187.52V978.7h4.133v31.1H187.52V994.076H173.433V1009.8Z" transform="translate(-141.309 -978.204)" fill="#002a46"/>
      <path id="Path_5884" data-name="Path 5884" d="M337.033,979.725v13.326h10.532v1.025H337.033v14.715h3.472a14.542,14.542,0,0,0,10.614-3.9v4.927H332.9V978.7h18.17v4.927c-2.844-2.711-6.266-3.9-10.614-3.9Z" transform="translate(-277.86 -978.204)" fill="#002a46"/>
      <path id="Path_5885" data-name="Path 5885" d="M551.481,985.778l-7.01,22.3H542.6l-10-30.967H537l8.134,25.329,8.035-25.511,7.688,25.511,8.581-25.643h1.108l-10.449,31.149h-1.918Z" transform="translate(-444.543 -976.618)" fill="#002a46"/>
      <path id="Path_5886" data-name="Path 5886" d="M778.708,977.4c9.11,0,15.558,6.4,15.558,15.955s-6.448,15.855-15.558,15.855-15.508-6.316-15.508-15.855S769.6,977.4,778.708,977.4Zm0,1.025c-6.134,0-11.375,6.035-11.375,14.88s5.241,14.88,11.375,14.88,11.424-6.035,11.424-14.88C790.116,984.46,784.826,978.425,778.708,978.425Z" transform="translate(-637.018 -977.119)" fill="#002a46"/>
      <path id="Path_5887" data-name="Path 5887" d="M982.608,977.4c9.11,0,15.558,6.4,15.558,15.955s-6.448,15.855-15.558,15.855-15.508-6.316-15.508-15.855S973.5,977.4,982.608,977.4Zm0,1.025c-6.134,0-11.375,6.035-11.375,14.88s5.241,14.88,11.375,14.88,11.425-6.035,11.425-14.88S988.742,978.425,982.608,978.425Z" transform="translate(-807.206 -977.119)" fill="#002a46"/>
      <path id="Path_5888" data-name="Path 5888" d="M1187.65,978.7c9.556,0,16.8,6.183,16.8,15.723s-5.472,15.376-15.012,15.376H1177.3V978.7Zm-6.217,30.074h8c6.58,0,10.879-6.035,10.879-14.88,0-8.746-6.084-14.169-12.664-14.169h-6.217Z" transform="translate(-982.653 -978.204)" fill="#002a46"/>
      <path id="Path_5889" data-name="Path 5889" d="M1357.936,1007.262,1356.2,994.68c0-.132.5-.364.529-.05,1.769,12.615,7.192,12,11.292,12,4.894,0,8.4-2.844,8.4-6.349,0-8.713-19.857-6.349-19.857-16.269,0-6.316,5.192-8.316,9.325-8.316,3.472,0,6.927.5,10.35.5l1.422,11.639c0,.182-.529.083-.529-.05-1.736-11.59-8-11.061-11.061-11.061-3.373,0-5.952,1.554-5.952,5.059,0,9.771,19.856,5.109,19.856,15.558,0,6.927-6.448,10.3-11.772,10.3-3.29,0-5.373-.4-8.845-.4h-1.422Z" transform="translate(-1131.975 -975.7)" fill="#002a46"/>
      <path id="Path_5890" data-name="Path 5890" d="M159.3,1267.969c0-1.471.909-2.6,4.084-3.422.645-.165,1.372-.314,2.2-.463v-.959c0-1.852-1.108-2.711-2.331-2.711a2.174,2.174,0,0,0-2.116,2.447.742.742,0,0,1-.81.727.763.763,0,0,1-.827-.76c0-1.7,2.959-2.827,4.315-2.827,1.753,0,3.522.529,3.522,3.274v5.456c0,.529.165.909.6.909.314,0,.6-.215.942-.645.05-.1.281.1.248.165a2.824,2.824,0,0,1-2.116,1.207,1.394,1.394,0,0,1-1.405-1.587v-1.372h-.033c-.413,1.323-1.571,2.943-3.373,2.943C160.623,1270.366,159.3,1269.441,159.3,1267.969Zm6.3-1.24v-2.381a17.465,17.465,0,0,0-2.116.463c-2.381.777-2.513,1.918-2.513,2.678a1.87,1.87,0,0,0,1.934,1.868C164.227,1269.358,165.1,1268.3,165.6,1266.729Z" transform="translate(-132.962 -1212.996)" fill="#002a46"/>
      <path id="Path_5891" data-name="Path 5891" d="M222.521,1251.768v-6.977H221l.083-.5c1.587,0,2.6-1.6,2.943-3.373.033-.116.281-.083.281,0v3.29h2.612l-.265.562h-2.381v6.878c0,1.306.513,1.835,1.223,1.835.562,0,1.042-.314,1.62-1.19.05-.083.281.1.248.165-.794,1.24-1.5,1.9-2.48,1.9C223.6,1254.4,222.521,1253.653,222.521,1251.768Z" transform="translate(-184.461 -1197.009)" fill="#002a46"/>
      <path id="Path_5892" data-name="Path 5892" d="M299.68,1241.2a6.748,6.748,0,1,1-6.58,6.762C293.1,1243.911,295.811,1241.2,299.68,1241.2Zm0,.43c-2.6,0-4.828,2.563-4.828,6.316s2.215,6.316,4.828,6.316c2.6,0,4.844-2.563,4.844-6.316S302.276,1241.63,299.68,1241.63Z" transform="translate(-244.641 -1197.304)" fill="#002a46"/>
      <path id="Path_5893" data-name="Path 5893" d="M379.6,1265.324a5.036,5.036,0,0,1,5.109-5.324c1.736,0,3.29,1.207,3.29,2.331a.711.711,0,0,1-.76.727.679.679,0,0,1-.727-.76,1.813,1.813,0,0,0-1.885-2.033c-1.835,0-3.389,1.7-3.389,4.761,0,2.133,1.273,4.249,3.621,4.249,1.62,0,2.645-1.174,3.422-2.447.05-.1.231.083.215.132-.975,1.984-2.166,3.373-4.282,3.373A4.747,4.747,0,0,1,379.6,1265.324Z" transform="translate(-316.839 -1212.996)" fill="#002a46"/>
      <path id="Path_5894" data-name="Path 5894" d="M440.2,1265.324a5.036,5.036,0,0,1,5.109-5.324c1.736,0,3.29,1.207,3.29,2.331a.711.711,0,0,1-.761.727.679.679,0,0,1-.727-.76,1.813,1.813,0,0,0-1.885-2.033c-1.835,0-3.389,1.7-3.389,4.761,0,2.133,1.273,4.249,3.621,4.249,1.62,0,2.645-1.174,3.422-2.447.05-.1.231.083.215.132-.975,1.984-2.166,3.373-4.282,3.373A4.747,4.747,0,0,1,440.2,1265.324Z" transform="translate(-367.42 -1212.996)" fill="#002a46"/>
      <path id="Path_5895" data-name="Path 5895" d="M500.8,1265.191a5.052,5.052,0,1,1,5.026,5.175A4.879,4.879,0,0,1,500.8,1265.191Zm8.349-.016c0-2.794-1.223-4.861-3.323-4.861-2.067,0-3.274,2.067-3.274,4.877s1.207,4.861,3.274,4.861C507.926,1270.052,509.149,1267.986,509.149,1265.175Z" transform="translate(-418.001 -1212.996)" fill="#002a46"/>
      <path id="Path_5896" data-name="Path 5896" d="M568.7,1265.439c0-3.356,2.3-5.439,5.043-5.439a4.252,4.252,0,0,1,2.645.81l.86-.6h.4v12.3c0,.529.149.909.579.909a1.264,1.264,0,0,0,.942-.645c.083-.1.281.1.248.165a2.824,2.824,0,0,1-2.116,1.207,1.394,1.394,0,0,1-1.405-1.587v-3.687a3.707,3.707,0,0,1-3.026,1.5C570.75,1270.383,568.7,1268.812,568.7,1265.439Zm4.844,4.15a2.444,2.444,0,0,0,2.348-1.224l.017-6.927a2.624,2.624,0,0,0-2.05-1.157c-1.521,0-3.406,1.653-3.406,4.877C570.453,1267.936,571.693,1269.589,573.544,1269.589Z" transform="translate(-474.675 -1212.996)" fill="#002a46"/>
      <path id="Path_5897" data-name="Path 5897" d="M628.5,1260.174c.794-.149,1.9-.281,2.711-.43.182-.033.281-.017.281.132v7.176a2.064,2.064,0,0,0,1.934,2.182,2.538,2.538,0,0,0,1.885-1.042l.777-.909v-5.026c0-1.108-.116-1.885-1.223-1.835-.1,0-.1-.248-.017-.265.794-.149,1.9-.281,2.712-.43.182-.033.281-.016.281.132v8.6c0,.529.165.909.6.909.314,0,.6-.215.942-.645.05-.1.281.1.248.165a2.855,2.855,0,0,1-2.133,1.207,1.394,1.394,0,0,1-1.405-1.587v-.777l-.529.645a4.238,4.238,0,0,1-3.158,1.736c-1.471,0-2.662-1.108-2.662-3.075v-4.778c0-1.108-.116-1.885-1.223-1.835C628.414,1260.439,628.414,1260.191,628.5,1260.174Z" transform="translate(-524.535 -1212.756)" fill="#002a46"/>
      <path id="Path_5898" data-name="Path 5898" d="M700,1267.969c0-1.471.909-2.6,4.084-3.422.645-.165,1.372-.314,2.2-.463v-.959c0-1.852-1.108-2.711-2.331-2.711a2.174,2.174,0,0,0-2.116,2.447.742.742,0,0,1-.81.727.763.763,0,0,1-.827-.76c0-1.7,2.959-2.827,4.315-2.827,1.753,0,3.522.529,3.522,3.274v5.456c0,.529.165.909.6.909.314,0,.6-.215.942-.645.05-.1.281.1.248.165a2.823,2.823,0,0,1-2.116,1.207,1.394,1.394,0,0,1-1.405-1.587v-1.372h-.033c-.413,1.323-1.571,2.943-3.373,2.943C701.323,1270.366,700,1269.441,700,1267.969Zm6.283-1.24v-2.381a17.465,17.465,0,0,0-2.116.463c-2.381.777-2.513,1.918-2.513,2.678a1.87,1.87,0,0,0,1.934,1.868C704.91,1269.358,705.8,1268.3,706.283,1266.729Z" transform="translate(-584.267 -1212.996)" fill="#002a46"/>
      <path id="Path_5899" data-name="Path 5899" d="M761.165,1261.107a2.855,2.855,0,0,1,2.133-1.207,1.394,1.394,0,0,1,1.405,1.587v.827l.529-.645a4.238,4.238,0,0,1,3.158-1.736c1.471,0,2.662,1.108,2.662,3.075v5.621c0,.529.165.909.6.909.314,0,.6-.215.942-.645.05-.1.281.1.248.165a2.854,2.854,0,0,1-2.133,1.207,1.394,1.394,0,0,1-1.405-1.587v-5.671a2.064,2.064,0,0,0-1.934-2.182,2.538,2.538,0,0,0-1.885,1.042l-.777.909v7.324h-1.753v-8.548c0-.529-.165-.909-.6-.909-.314,0-.6.215-.942.645C761.347,1261.371,761.115,1261.173,761.165,1261.107Z" transform="translate(-635.313 -1212.912)" fill="#002a46"/>
      <path id="Path_5900" data-name="Path 5900" d="M871.48,1241.2a6.748,6.748,0,1,1-6.58,6.762C864.917,1243.911,867.628,1241.2,871.48,1241.2Zm0,.43c-2.6,0-4.828,2.563-4.828,6.316s2.216,6.316,4.828,6.316c2.6,0,4.844-2.563,4.844-6.316S874.076,1241.63,871.48,1241.63Z" transform="translate(-721.903 -1197.304)" fill="#002a46"/>
      <path id="Path_5901" data-name="Path 5901" d="M957.21,1261.5l-4.232,9.92h-.711l-4.166-9.92H950l3.389,8.118,3.406-8.118Z" transform="translate(-791.347 -1214.248)" fill="#002a46"/>
      <path id="Path_5902" data-name="Path 5902" d="M1009.207,1260c2.414,0,3.67,1.653,3.67,3.009,0,.942-.645,1.719-1.984,1.719h-5.241v.364c0,1.885,1.174,4.216,3.819,4.216,1.653,0,2.678-1.174,3.472-2.447.05-.1.232.083.215.132-.975,1.984-2.166,3.373-4.282,3.373a4.885,4.885,0,0,1-4.977-5.043A5.166,5.166,0,0,1,1009.207,1260Zm.81,4.448a1.673,1.673,0,0,0,1.488-1.868,2.22,2.22,0,0,0-2.381-2.3c-1.753,0-3.158,1.934-3.472,4.167Z" transform="translate(-837.922 -1212.996)" fill="#002a46"/>
      <path id="Path_5903" data-name="Path 5903" d="M1064.637,1269.845v-7.688c0-1.108-.116-1.885-1.223-1.835-.1,0-.1-.248-.017-.265.794-.149,1.9-.281,2.712-.43.182-.033.281-.016.281.132v2.017l.529-.529c1.091-1.091,1.339-1.6,2.381-1.6a2.061,2.061,0,0,1,1.339.5c.545.546-.033,1.372-.661,1.372a.642.642,0,0,1-.5-.215c-.364-.364-.728-.727-1.124-.727a.806.806,0,0,0-.562.265l-1.389,1.372v7.622h-1.769Z" transform="translate(-887.532 -1212.673)" fill="#002a46"/>
      <path id="Path_5904" data-name="Path 5904" d="M1111.789,1248.676c0,.529.165.909.6.909.314,0,.6-.215.942-.645.05-.1.281.1.248.165a2.854,2.854,0,0,1-2.133,1.207,1.394,1.394,0,0,1-1.405-1.587v-10.168c0-1.108-.116-1.885-1.224-1.835-.1,0-.1-.248-.016-.265.794-.149,1.9-.281,2.711-.43.182-.033.281-.016.281.132Z" transform="translate(-925.425 -1192.975)" fill="#002a46"/>
      <path id="Path_5905" data-name="Path 5905" d="M1143.1,1265.191a5.052,5.052,0,1,1,5.026,5.175A4.879,4.879,0,0,1,1143.1,1265.191Zm8.349-.016c0-2.794-1.224-4.861-3.323-4.861-2.067,0-3.274,2.067-3.274,4.877s1.207,4.861,3.274,4.861C1150.209,1270.052,1151.449,1267.986,1151.449,1265.175Z" transform="translate(-954.107 -1212.996)" fill="#002a46"/>
      <path id="Path_5906" data-name="Path 5906" d="M1211,1265.191a5.052,5.052,0,1,1,5.026,5.175A4.879,4.879,0,0,1,1211,1265.191Zm8.349-.016c0-2.794-1.224-4.861-3.323-4.861-2.067,0-3.274,2.067-3.274,4.877s1.207,4.861,3.274,4.861C1218.126,1270.052,1219.349,1267.986,1219.349,1265.175Z" transform="translate(-1010.781 -1212.996)" fill="#002a46"/>
      <path id="Path_5907" data-name="Path 5907" d="M1276.737,1250.147v-11.59c0-1.108-.116-1.885-1.224-1.835-.1,0-.1-.248-.016-.265.794-.149,1.9-.281,2.711-.43.182-.033.281-.016.281.132v8.829l5.043-4.811h.6l-3.522,3.323a3.142,3.142,0,0,1,1.124-.215c1.471,0,2.662,1.108,2.662,3.075v2.3c0,.529.165.909.6.909a1.264,1.264,0,0,0,.942-.645c.083-.1.281.1.248.165a2.854,2.854,0,0,1-2.133,1.207,1.394,1.394,0,0,1-1.405-1.587v-2.546c0-1.471-.727-2.331-1.736-2.331a2.193,2.193,0,0,0-.86.215c-.529.513-1.042.976-1.571,1.488v4.6h-1.736Z" transform="translate(-1064.564 -1192.975)" fill="#002a46"/>
    </g>
  </g>
</svg>
