<svg xmlns="http://www.w3.org/2000/svg" width="28.072" height="24.97" viewBox="0 0 28.072 24.97">
  <g id="Group_650" data-name="Group 650" transform="translate(-388 -1134)">
    <path id="Path_2386" data-name="Path 2386" d="M3983.356,6545.283l-5.116,3.4V6556l5.116,2.784,5.391-3.029v-7.068Z" transform="translate(-3581.32 -5409.619)" fill="#ffde28"/>
    <g id="Group_626" data-name="Group 626" transform="translate(388 1134)">
      <g id="Group_625" data-name="Group 625">
        <path id="Path_2383" data-name="Path 2383" d="M-571.672,479.765l-6.734-4.475-6.728,4.47,0,.945v7.647l6.723,4.016,6.723-4.016v-7.647Zm-6.734-2.334,4.251,2.717-4.251,2.537-4.251-2.537Zm-4.976,4.318,4.1,2.45v5.613l-4.1-2.45Zm9.953,5.613-4.1,2.45V484.2l4.1-2.45Z" transform="translate(592.4 -475.29)"/>
        <g id="Group_624" data-name="Group 624" transform="translate(0 9.813)">
          <path id="Path_2384" data-name="Path 2384" d="M-577.909,493.312c-5.806-.442-10.406-2.928-10.406-5.723,0-1.231.92-2.474,2.589-3.5l-.914-1.489c-2.207,1.355-3.422,3.127-3.422,4.988,0,3.847,5.187,6.988,12.174,7.474l.019,1.729,4.5-2.666-4.556-2.561Z" transform="translate(590.062 -481.635)" fill="#195eb2"/>
          <path id="Path_2385" data-name="Path 2385" d="M-573.376,481.946l-.674,1.611c2.664,1.115,4.254,2.738,4.254,4.342,0,2.257-3.011,4.4-7.493,5.325l.355,1.71c5.4-1.118,8.884-3.879,8.884-7.036C-568.049,485.532-569.991,483.363-573.376,481.946Z" transform="translate(596.121 -481.946)"/>
        </g>
      </g>
    </g>
  </g>
</svg>
