<svg xmlns="http://www.w3.org/2000/svg" width="20.097" height="20.097" viewBox="0 0 20.097 20.097">
  <g id="Group_654" data-name="Group 654" transform="translate(-1052.944 -1864.791)">
    <rect id="Rectangle_2635" data-name="Rectangle 2635" width="18" height="19" transform="translate(1054.178 1865.444)" fill="#ffde28"/>
    <g id="Group_653" data-name="Group 653" transform="translate(1052.944 1864.791)">
      <g id="Group_620" data-name="Group 620">
        <g id="Group_619" data-name="Group 619" transform="translate(1.237 0.778)">
          <rect id="Rectangle_2625" data-name="Rectangle 2625" width="1.234" height="4.305" transform="translate(5.687)" fill="#195eb2"/>
          <path id="Path_2377" data-name="Path 2377" d="M-491.8,483.627h-5.687v1.234h5.687v1.9h1.234v-4.937H-491.8Z" transform="translate(497.49 -474.969)" fill="#195eb2"/>
          <rect id="Rectangle_2626" data-name="Rectangle 2626" width="1.234" height="3.789" transform="translate(5.687 14.265)" fill="#195eb2"/>
          <path id="Path_2378" data-name="Path 2378" d="M-482.09,480.342h-7.664v1.234h2.54v3.09h1.234v-3.09h3.889Z" transform="translate(499.684 -475.39)" fill="#195eb2"/>
          <path id="Path_2379" data-name="Path 2379" d="M-487.213,488.187h-2.54v1.234h2.54v2.511h1.234v-6.257h-1.234Z" transform="translate(499.684 -473.879)" fill="#195eb2"/>
        </g>
        <path id="Path_2380" data-name="Path 2380" d="M-498.454,475.878v20.1h20.1v-20.1Zm1.554,18.541V477.434h16.987v16.986Z" transform="translate(498.454 -475.878)"/>
      </g>
    </g>
  </g>
</svg>
