<svg id="Layer_1" data-name="Layer 1" xmlns="http://www.w3.org/2000/svg" viewBox="0 0 37 37"><defs><style>.cls-1{fill:#231f20;}</style></defs><polygon class="cls-1" points="25.85 14.39 25.85 15.3 28.88 15.3 28.88 18.81 22.45 18.81 22.45 19.72 28.88 19.72 28.88 27.14 18.87 27.14 18.87 23.89 21.26 23.89 21.26 22.97 18.87 22.97 18.87 19.27 17.96 19.27 17.96 27.14 7.95 27.14 7.95 22.27 14.58 22.27 14.58 15.7 13.66 15.7 13.66 21.36 7.95 21.36 7.95 9.86 18 9.86 18 15.3 21.86 15.3 21.86 14.39 18.91 14.39 18.91 8.95 7.04 8.95 7.04 28.05 29.79 28.05 29.79 14.39 25.85 14.39"/><path class="cls-1" d="M18.41.25A18.25,18.25,0,1,1,.16,18.5,18.27,18.27,0,0,1,18.41.25m0-.25a18.5,18.5,0,1,0,18.5,18.5A18.5,18.5,0,0,0,18.41,0Z"/></svg>