<svg xmlns="http://www.w3.org/2000/svg" width="345.034" height="156.903" viewBox="0 0 345.034 156.903">
  <g id="Group_14" data-name="Group 14" transform="translate(-325.059 -274.799)">
    <g id="LATO_Light" data-name="LATO Light" transform="translate(325.059 274.799)">
      <g id="Group_12" data-name="Group 12">
        <g id="Group_11" data-name="Group 11" transform="translate(0 29.229)">
          <g id="Group_9" data-name="Group 9">
            <path id="Path_47" data-name="Path 47" d="M353.281,315.885a1.782,1.782,0,0,1,.636.12,1.749,1.749,0,0,1,.612.412l3.557,3.742a14.748,14.748,0,0,1-5.854,4.605,20.453,20.453,0,0,1-8.326,1.553,19.821,19.821,0,0,1-7.9-1.5,17.113,17.113,0,0,1-5.922-4.142,18.237,18.237,0,0,1-3.73-6.268,23.164,23.164,0,0,1-1.3-7.87,20.732,20.732,0,0,1,1.487-7.953,18.321,18.321,0,0,1,10.539-10.339,22.214,22.214,0,0,1,8.2-1.46,20.938,20.938,0,0,1,4.1.383,20.03,20.03,0,0,1,3.6,1.063,16.906,16.906,0,0,1,3.079,1.619,15.038,15.038,0,0,1,2.5,2.084L355.536,296a3.948,3.948,0,0,1-.69.675,1.8,1.8,0,0,1-1.114.307,2.007,2.007,0,0,1-.9-.215,10.153,10.153,0,0,1-.9-.519l-1.048-.661a7.94,7.94,0,0,0-1.353-.663,11.02,11.02,0,0,0-1.833-.519,12.512,12.512,0,0,0-2.455-.212,11.235,11.235,0,0,0-4.462.863,9.752,9.752,0,0,0-3.464,2.47,11.455,11.455,0,0,0-2.255,3.889,15.223,15.223,0,0,0-.809,5.125,15.9,15.9,0,0,0,.809,5.283,11.6,11.6,0,0,0,2.2,3.891,9.408,9.408,0,0,0,3.252,2.4,9.716,9.716,0,0,0,3.981.822,18.877,18.877,0,0,0,2.231-.12,9.075,9.075,0,0,0,1.872-.412,8.512,8.512,0,0,0,1.646-.756,11.145,11.145,0,0,0,1.58-1.153,3.256,3.256,0,0,1,.69-.441A1.847,1.847,0,0,1,353.281,315.885Z" transform="translate(-325.059 -286.788)" fill="#fff"/>
            <path id="Path_48" data-name="Path 48" d="M350.257,311.336v14.308h-8.972V286.961H353.87a25.8,25.8,0,0,1,7.153.866,13.469,13.469,0,0,1,4.832,2.4,9.09,9.09,0,0,1,2.721,3.637,12.028,12.028,0,0,1,.851,4.569,12.264,12.264,0,0,1-.5,3.557,10.78,10.78,0,0,1-1.5,3.091,11.667,11.667,0,0,1-2.443,2.535,12.954,12.954,0,0,1-3.333,1.831,8.607,8.607,0,0,1,1.687,1.117,6.752,6.752,0,0,1,1.368,1.619l8.23,13.46h-8.126a3.442,3.442,0,0,1-3.238-1.7l-6.426-11.229a2.724,2.724,0,0,0-.995-1.063,3.339,3.339,0,0,0-1.607-.317Zm0-6.188h3.613a9.238,9.238,0,0,0,3.118-.463A5.641,5.641,0,0,0,359.1,303.4a4.934,4.934,0,0,0,1.195-1.926,7.425,7.425,0,0,0,.371-2.377,4.979,4.979,0,0,0-1.66-3.981q-1.657-1.433-5.134-1.433h-3.613Z" transform="translate(-301.727 -286.539)" fill="#fff"/>
            <path id="Path_49" data-name="Path 49" d="M395.055,325.644H388.1a3.211,3.211,0,0,1-1.924-.544,2.807,2.807,0,0,1-1.048-1.395l-2.284-6.743H368.135l-2.284,6.743a3.068,3.068,0,0,1-2.921,1.938h-7.009l14.974-38.683h9.186Zm-24.85-14.786h10.566l-3.557-10.593q-.347-1.009-.812-2.377t-.914-2.96q-.424,1.62-.878,3t-.848,2.392Z" transform="translate(-280.681 -286.539)" fill="#fff"/>
            <path id="Path_50" data-name="Path 50" d="M398.728,286.961v6.9H382.852v9.8h13.221v6.931H382.852v15.052h-9.028V286.961Z" transform="translate(-254.937 -286.539)" fill="#fff"/>
            <path id="Path_51" data-name="Path 51" d="M416.612,286.961v7.116H405.726v31.567h-8.974V294.077H385.869v-7.116Z" transform="translate(-237.617 -286.539)" fill="#fff"/>
            <path id="Path_52" data-name="Path 52" d="M420.935,310.041c.329.729.641,1.47.944,2.231q.45-1.167.956-2.27t1.034-2.141L433.8,288.3a3.151,3.151,0,0,1,.541-.783,1.737,1.737,0,0,1,.626-.412,2.119,2.119,0,0,1,.78-.134h7.872v38.654h-7.909V303.38q0-1.62.158-3.506L425.62,319.759a3.384,3.384,0,0,1-1.287,1.409,3.577,3.577,0,0,1-1.845.478h-1.221a3.568,3.568,0,0,1-1.843-.478,3.373,3.373,0,0,1-1.29-1.409l-10.3-19.911c.071.619.124,1.236.158,1.845s.054,1.173.054,1.687v22.246h-7.911V286.973h7.872a2.123,2.123,0,0,1,.783.134,1.752,1.752,0,0,1,.624.412,3.159,3.159,0,0,1,.544.783l9.957,19.64Q420.443,308.951,420.935,310.041Z" transform="translate(-217.105 -286.522)" fill="#fff"/>
            <path id="Path_53" data-name="Path 53" d="M458.565,325.644H451.61a3.218,3.218,0,0,1-1.926-.544,2.807,2.807,0,0,1-1.048-1.395l-2.282-6.743H431.645l-2.284,6.743a3.062,3.062,0,0,1-2.921,1.938h-7.009L434.4,286.961h9.186Zm-24.85-14.786h10.566l-3.557-10.593q-.347-1.009-.809-2.377t-.917-2.96q-.424,1.62-.875,3t-.851,2.392Z" transform="translate(-189.356 -286.539)" fill="#fff"/>
            <path id="Path_54" data-name="Path 54" d="M446.308,311.336v14.308h-8.974V286.961h12.587a25.811,25.811,0,0,1,7.153.866,13.523,13.523,0,0,1,4.835,2.4,9.084,9.084,0,0,1,2.718,3.637,12.028,12.028,0,0,1,.851,4.569,12.264,12.264,0,0,1-.5,3.557,10.724,10.724,0,0,1-1.5,3.091,11.5,11.5,0,0,1-2.443,2.535,12.9,12.9,0,0,1-3.33,1.831,8.534,8.534,0,0,1,1.687,1.117,6.808,6.808,0,0,1,1.368,1.619l8.231,13.46H460.86a3.447,3.447,0,0,1-3.243-1.7l-6.424-11.229a2.729,2.729,0,0,0-1-1.063,3.328,3.328,0,0,0-1.6-.317Zm0-6.188h3.613a9.223,9.223,0,0,0,3.116-.463,5.632,5.632,0,0,0,2.114-1.287,4.935,4.935,0,0,0,1.195-1.926,7.359,7.359,0,0,0,.371-2.377,4.985,4.985,0,0,0-1.658-3.981q-1.66-1.433-5.137-1.433h-3.613Z" transform="translate(-163.613 -286.539)" fill="#fff"/>
            <path id="Path_55" data-name="Path 55" d="M461.359,302.627h1.431a3.266,3.266,0,0,0,2.869-1.246l8.708-12.638A3.693,3.693,0,0,1,476,287.334a5.95,5.95,0,0,1,2.243-.373h7.806L474.578,302.6a7.667,7.667,0,0,1-1.273,1.4,8.04,8.04,0,0,1-1.353.931,6.421,6.421,0,0,1,3.369,2.76L487,325.644h-8.018a7.012,7.012,0,0,1-1.314-.1,3.358,3.358,0,0,1-.941-.317,2.8,2.8,0,0,1-.692-.519,5.168,5.168,0,0,1-.556-.7l-8.762-13.462a2.646,2.646,0,0,0-1.207-1.048,5.276,5.276,0,0,0-1.979-.3h-2.175v16.459h-8.974V286.961h8.974Z" transform="translate(-141.97 -286.539)" fill="#fff"/>
          </g>
          <g id="Group_10" data-name="Group 10" transform="translate(75.825 61.354)">
            <path id="Path_56" data-name="Path 56" d="M389.932,350.811H380.9V334.457H365.189v16.354h-9.028V312.128h9.028V328.3H380.9V312.128h9.028Z" transform="translate(-356.161 -311.704)" fill="#fff"/>
            <path id="Path_57" data-name="Path 57" d="M412.561,331.709a20.866,20.866,0,0,1-1.446,7.8,18.424,18.424,0,0,1-10.41,10.461,23.124,23.124,0,0,1-16.446,0,18.821,18.821,0,0,1-6.356-4.181,18.588,18.588,0,0,1-4.088-6.28,21.723,21.723,0,0,1,0-15.61,18.456,18.456,0,0,1,4.088-6.266,18.864,18.864,0,0,1,6.356-4.169,21.634,21.634,0,0,1,8.23-1.514,21.379,21.379,0,0,1,8.216,1.529,19.009,19.009,0,0,1,6.336,4.179,18.8,18.8,0,0,1,4.074,6.265A20.817,20.817,0,0,1,412.561,331.709Zm-9.184,0a16.759,16.759,0,0,0-.746-5.166,10.993,10.993,0,0,0-2.136-3.889,9.245,9.245,0,0,0-3.413-2.443,11.707,11.707,0,0,0-4.593-.851,11.89,11.89,0,0,0-4.632.851,9.211,9.211,0,0,0-3.425,2.443,10.954,10.954,0,0,0-2.136,3.889,18.392,18.392,0,0,0,0,10.354,10.89,10.89,0,0,0,2.136,3.889,9.106,9.106,0,0,0,3.425,2.433,12.119,12.119,0,0,0,4.632.834,11.933,11.933,0,0,0,4.593-.834,9.138,9.138,0,0,0,3.413-2.433,10.929,10.929,0,0,0,2.136-3.889A16.827,16.827,0,0,0,403.377,331.709Z" transform="translate(-332.862 -311.954)" fill="#fff"/>
            <path id="Path_58" data-name="Path 58" d="M411.985,335.206q.486,1.093.941,2.233.45-1.167.956-2.27c.334-.739.68-1.448,1.036-2.14l9.93-19.56a3.109,3.109,0,0,1,.544-.785,1.777,1.777,0,0,1,.622-.412,2.2,2.2,0,0,1,.785-.132h7.872v38.654h-7.914V328.545c0-1.08.056-2.245.161-3.506l-10.249,19.886a3.367,3.367,0,0,1-1.287,1.409,3.574,3.574,0,0,1-1.843.478h-1.221a3.586,3.586,0,0,1-1.848-.478,3.4,3.4,0,0,1-1.287-1.409l-10.3-19.911c.068.619.119,1.236.159,1.846s.051,1.173.051,1.685v22.249h-7.911V312.14h7.87a2.19,2.19,0,0,1,.785.132,1.807,1.807,0,0,1,.624.412,3.237,3.237,0,0,1,.544.785l9.957,19.64C411.317,333.779,411.656,334.481,411.985,335.206Z" transform="translate(-305.802 -311.687)" fill="#fff"/>
            <path id="Path_59" data-name="Path 59" d="M437.1,312.128v6.9H421.225v9.03h12.16V334.7h-12.16v9.213H437.1v6.9H412.2V312.128Z" transform="translate(-275.58 -311.704)" fill="#fff"/>
            <path id="Path_60" data-name="Path 60" d="M448.725,320.238a3.439,3.439,0,0,1-.836.956,1.869,1.869,0,0,1-1.129.319,2.773,2.773,0,0,1-1.314-.385c-.47-.256-1-.546-1.592-.866a13.526,13.526,0,0,0-2.031-.861,8.141,8.141,0,0,0-2.6-.385,5.582,5.582,0,0,0-3.757,1.078A3.65,3.65,0,0,0,434.229,323a2.665,2.665,0,0,0,.744,1.936,6.392,6.392,0,0,0,1.953,1.329,20.6,20.6,0,0,0,2.76,1.022c1.036.312,2.094.653,3.174,1.034a29.3,29.3,0,0,1,3.172,1.343,10.491,10.491,0,0,1,2.76,1.965,9.118,9.118,0,0,1,1.953,2.906,10.347,10.347,0,0,1,.744,4.127,13.463,13.463,0,0,1-.931,5.02,11.749,11.749,0,0,1-2.694,4.076,12.551,12.551,0,0,1-4.354,2.733,16.3,16.3,0,0,1-5.88.995,18.767,18.767,0,0,1-3.676-.373,21.311,21.311,0,0,1-3.623-1.048,20.7,20.7,0,0,1-3.294-1.6,14,14,0,0,1-2.682-2.07l2.657-4.2a2.112,2.112,0,0,1,.819-.768,2.317,2.317,0,0,1,1.143-.295,3.04,3.04,0,0,1,1.607.5c.541.336,1.148.71,1.831,1.114a14.456,14.456,0,0,0,2.35,1.114,8.747,8.747,0,0,0,3.133.507,5.951,5.951,0,0,0,3.8-1.078,4.091,4.091,0,0,0,1.355-3.411,3.237,3.237,0,0,0-.743-2.2,5.809,5.809,0,0,0-1.95-1.4,17.9,17.9,0,0,0-2.75-.982q-1.54-.428-3.16-.943a23.032,23.032,0,0,1-3.16-1.275,9.9,9.9,0,0,1-2.745-1.992A9.253,9.253,0,0,1,426.584,328a12.187,12.187,0,0,1-.744-4.554,10.791,10.791,0,0,1,.875-4.247,11,11,0,0,1,2.574-3.689,12.745,12.745,0,0,1,4.169-2.592,15.46,15.46,0,0,1,5.656-.968,20.981,20.981,0,0,1,3.464.28,18.127,18.127,0,0,1,3.2.822,17.443,17.443,0,0,1,2.828,1.3,12.923,12.923,0,0,1,2.348,1.711Z" transform="translate(-258.104 -311.954)" fill="#fff"/>
          </g>
        </g>
        <rect id="Rectangle_4" data-name="Rectangle 4" width="345.033" height="2.95" fill="#fff"/>
        <rect id="Rectangle_5" data-name="Rectangle 5" width="345.033" height="2.95" transform="translate(0 153.953)" fill="#fff"/>
      </g>
    </g>
    <g id="_Layer_" data-name="&lt;Layer&gt;" transform="translate(599.834 356.778)">
      <g id="Group_13" data-name="Group 13">
        <path id="Path_61" data-name="Path 61" d="M437.766,319.133a10.57,10.57,0,0,1,.38-2.845,10.81,10.81,0,0,1,1.075-2.56,10.288,10.288,0,0,1,1.675-2.165,11.09,11.09,0,0,1,2.165-1.675,10.628,10.628,0,0,1,10.781,0,11.086,11.086,0,0,1,2.165,1.675,10.533,10.533,0,0,1,1.675,2.165,10.808,10.808,0,0,1,1.075,2.56,10.624,10.624,0,0,1-2.75,10.386,11.082,11.082,0,0,1-2.165,1.675,10.612,10.612,0,0,1-10.781,0,11.086,11.086,0,0,1-2.165-1.675,10.373,10.373,0,0,1-1.675-2.158,10.7,10.7,0,0,1-1.075-2.545A10.489,10.489,0,0,1,437.766,319.133Zm1.46,0a9.508,9.508,0,0,0,.324,2.5,9.378,9.378,0,0,0,.922,2.245,9.267,9.267,0,0,0,1.434,1.894,9.053,9.053,0,0,0,4.066,2.392,9.2,9.2,0,0,0,2.472.329,9.014,9.014,0,0,0,3.62-.731,9.263,9.263,0,0,0,2.94-2,9.454,9.454,0,0,0,1.975-2.969,9.313,9.313,0,0,0,.724-3.664,9.579,9.579,0,0,0-1.26-4.776A9.474,9.474,0,0,0,455,312.448a9.016,9.016,0,0,0-1.865-1.47,9.254,9.254,0,0,0-2.216-.943,9.088,9.088,0,0,0-2.479-.336,8.877,8.877,0,0,0-3.613.739,9.152,9.152,0,0,0-2.926,2.019,9.531,9.531,0,0,0-2.679,6.678Zm7.109,1.316v5.178h-2.282V312.579h4.213a6.206,6.206,0,0,1,3.733.914,3.167,3.167,0,0,1,1.214,2.7,3.6,3.6,0,0,1-.783,2.341,4.1,4.1,0,0,1-2.336,1.331,1.65,1.65,0,0,1,.434.366,3.4,3.4,0,0,1,.344.512l3.335,4.886h-2.165a.792.792,0,0,1-.717-.366l-2.94-4.418a.929.929,0,0,0-.317-.293,1.188,1.188,0,0,0-.563-.1Zm0-1.668h1.7a5.272,5.272,0,0,0,1.368-.154,2.322,2.322,0,0,0,.907-.446,1.67,1.67,0,0,0,.5-.717,2.874,2.874,0,0,0,.154-.98,3.034,3.034,0,0,0-.137-.951,1.476,1.476,0,0,0-.453-.673,2.084,2.084,0,0,0-.829-.395,5.19,5.19,0,0,0-1.273-.132h-1.931Z" transform="translate(-437.766 -308.425)" fill="#fff"/>
      </g>
    </g>
  </g>
</svg>
