<svg xmlns="http://www.w3.org/2000/svg" width="576" height="85.323" viewBox="0 0 576 85.323">
  <g id="Group_62" data-name="Group 62" transform="translate(-74.813 -143.088)">
    <g id="Group_55" data-name="Group 55" transform="translate(74.813 143.088)">
      <g id="Group_52" data-name="Group 52" transform="translate(101.141 5.426)">
        <path id="Path_1029" data-name="Path 1029" d="M164.688,181.156V147.783h7.1a17.08,17.08,0,0,1,6.624,1.274,16.486,16.486,0,0,1,10.2,15.412,16.8,16.8,0,0,1-1.275,6.574,16.257,16.257,0,0,1-3.57,5.308,16.424,16.424,0,0,1-5.359,3.54,17.2,17.2,0,0,1-6.624,1.264Zm2.2-1.982h4.752a14.707,14.707,0,0,0,5.764-1.123,14.425,14.425,0,0,0,7.8-7.8,15.521,15.521,0,0,0,.01-11.569,14.269,14.269,0,0,0-3.124-4.673,14.618,14.618,0,0,0-10.447-4.246h-4.752Z" transform="translate(-161.956 -147.783)" fill="#202741"/>
        <path id="Path_1030" data-name="Path 1030" d="M199.82,180.183a9.916,9.916,0,0,1-5.269-1.425,10.294,10.294,0,0,1-3.7-3.913,12.495,12.495,0,0,1-.01-11.337,10.231,10.231,0,0,1,3.693-3.9,9.942,9.942,0,0,1,5.289-1.427,10.162,10.162,0,0,1,5.34,1.437,8.91,8.91,0,0,1,3.56,3.964v-4.752h2.143v20.711h-2.143v-4.794a9.971,9.971,0,0,1-3.651,3.994A9.774,9.774,0,0,1,199.82,180.183Zm.445-1.9a8.436,8.436,0,0,0,4.439-1.163,8.191,8.191,0,0,0,3.034-3.227,10.652,10.652,0,0,0,0-9.434,8.2,8.2,0,0,0-3.034-3.216,9.056,9.056,0,0,0-8.879,0,8.268,8.268,0,0,0-3.044,3.216,10.531,10.531,0,0,0,0,9.424,8.222,8.222,0,0,0,7.484,4.4Z" transform="translate(-158.094 -146.164)" fill="#202741"/>
        <path id="Path_1031" data-name="Path 1031" d="M214.071,179.537V158.825h2.145v3.1a6.659,6.659,0,0,1,2.468-2.8,6.829,6.829,0,0,1,3.639-.942,9.12,9.12,0,0,1,1.769.173,7.257,7.257,0,0,1,1.527.454l-.868,1.82a5.406,5.406,0,0,0-1.326-.425,7.731,7.731,0,0,0-1.446-.141,5.517,5.517,0,0,0-2.781.758,6.485,6.485,0,0,0-2.154,1.962,4.424,4.424,0,0,0-.829,2.559v14.2Z" transform="translate(-154.264 -146.164)" fill="#202741"/>
        <path id="Path_1032" data-name="Path 1032" d="M227.477,179.537V158.825h2.144v2.952a6.529,6.529,0,0,1,2.538-2.538,8.51,8.51,0,0,1,4.439-1.062,8.181,8.181,0,0,1,4.126.982,6.4,6.4,0,0,1,2.629,2.871,10.6,10.6,0,0,1,.911,4.622v12.884h-2.145v-12.5a7.731,7.731,0,0,0-1.588-5.248,5.644,5.644,0,0,0-4.48-1.81,6.937,6.937,0,0,0-3.458.809,5.745,5.745,0,0,0-2.2,2.124,5.471,5.471,0,0,0-.769,2.812v13.814Z" transform="translate(-152.176 -146.164)" fill="#202741"/>
        <path id="Path_1033" data-name="Path 1033" d="M257.631,180.183a11.44,11.44,0,0,1-5.785-1.446,10.607,10.607,0,0,1-3.965-3.9,10.762,10.762,0,0,1-1.435-5.533,11.268,11.268,0,0,1,.84-4.368,11.027,11.027,0,0,1,2.327-3.54,10.794,10.794,0,0,1,3.437-2.366,10.283,10.283,0,0,1,4.157-.851,10.6,10.6,0,0,1,5.31,1.345,10.471,10.471,0,0,1,3.821,3.711,11.185,11.185,0,0,1,1.588,5.4v.355c0,.1-.007.218-.02.353H248.551a9.186,9.186,0,0,0,1.172,4.653,8.431,8.431,0,0,0,3.247,3.2,9.483,9.483,0,0,0,4.724,1.164,9.632,9.632,0,0,0,4.561-1.073,8.614,8.614,0,0,0,3.287-3.034l1.617.91a10.152,10.152,0,0,1-3.973,3.7A11.757,11.757,0,0,1,257.631,180.183Zm-8.98-12.539h17.132a8.545,8.545,0,0,0-1.457-3.924A8.705,8.705,0,0,0,261.292,161a8.331,8.331,0,0,0-4.045-1,8.561,8.561,0,0,0-8.6,7.646Z" transform="translate(-149.221 -146.164)" fill="#202741"/>
        <path id="Path_1034" data-name="Path 1034" d="M274.955,180.183a7.641,7.641,0,0,1-4.48-1.344,8.364,8.364,0,0,1-2.943-3.813l1.294-1.071a7.751,7.751,0,0,0,2.5,3.317,5.91,5.91,0,0,0,3.611,1.193,5.713,5.713,0,0,0,2.589-.6,4.762,4.762,0,0,0,1.9-1.69,4.687,4.687,0,0,0,.708-2.607,3.22,3.22,0,0,0-.628-2.114,5,5,0,0,0-1.84-1.3q-1.214-.546-2.933-1.214a27.459,27.459,0,0,1-2.6-1.184,6.413,6.413,0,0,1-2.084-1.679,4.02,4.02,0,0,1-.819-2.6,4.763,4.763,0,0,1,.8-2.711,5.561,5.561,0,0,1,2.205-1.89,7.01,7.01,0,0,1,3.166-.7,6.662,6.662,0,0,1,3.266.819,7.553,7.553,0,0,1,2.538,2.316l-1.173,1.153a5.2,5.2,0,0,0-4.631-2.629,4.434,4.434,0,0,0-2.995.99,3.23,3.23,0,0,0-1.152,2.569,2.634,2.634,0,0,0,.656,1.85,5.43,5.43,0,0,0,1.75,1.224q1.094.5,2.407,1.011,1.881.707,3.266,1.4a5.662,5.662,0,0,1,2.145,1.75,4.876,4.876,0,0,1,.758,2.882,6.525,6.525,0,0,1-.942,3.53,6.269,6.269,0,0,1-2.588,2.325A8.314,8.314,0,0,1,274.955,180.183Z" transform="translate(-145.937 -146.164)" fill="#202741"/>
        <path id="Path_1035" data-name="Path 1035" d="M289.453,181.137a3.977,3.977,0,0,1-3.307-1.465,6.505,6.505,0,0,1-1.164-4.135V161.4h-1.961v-1.618h1.961v-7.727h2.144v7.727h5.3V161.4h-5.3v14.056a4.776,4.776,0,0,0,.708,2.822,2.344,2.344,0,0,0,2.023.98,3.44,3.44,0,0,0,2.165-.687l.544,1.719a5.044,5.044,0,0,1-1.415.616A6.232,6.232,0,0,1,289.453,181.137Z" transform="translate(-143.525 -147.118)" fill="#202741"/>
        <path id="Path_1036" data-name="Path 1036" d="M305.331,180.183a11.82,11.82,0,0,1-5.755-1.4,10.475,10.475,0,0,1-4.045-3.873,11.767,11.767,0,0,1,.01-11.467,10.554,10.554,0,0,1,4.056-3.874,12.515,12.515,0,0,1,11.488,0,10.562,10.562,0,0,1,4.056,3.874,11.731,11.731,0,0,1,0,11.467,10.559,10.559,0,0,1-4.056,3.873A11.82,11.82,0,0,1,305.331,180.183Zm0-1.961a9.33,9.33,0,0,0,4.682-1.163,8.543,8.543,0,0,0,3.236-3.206,9.814,9.814,0,0,0,0-9.344,8.543,8.543,0,0,0-3.236-3.206,10.008,10.008,0,0,0-9.364,0,8.543,8.543,0,0,0-3.236,3.206,9.814,9.814,0,0,0,0,9.344,8.543,8.543,0,0,0,3.236,3.206A9.324,9.324,0,0,0,305.331,178.221Z" transform="translate(-141.807 -146.164)" fill="#202741"/>
        <path id="Path_1037" data-name="Path 1037" d="M325.559,179.449l-9.849-20.711h2.448l8.071,17.475,6.836-17.475h1.415l6.817,17.475,8.069-17.475h2.448l-9.831,20.711h-1.415l-6.8-17.151-6.817,17.151Z" transform="translate(-138.433 -146.077)" fill="#202741"/>
        <path id="Path_1038" data-name="Path 1038" d="M350.57,179.537V158.825h2.145v2.952a6.529,6.529,0,0,1,2.538-2.538,8.51,8.51,0,0,1,4.439-1.062,8.181,8.181,0,0,1,4.126.982,6.4,6.4,0,0,1,2.629,2.871,10.6,10.6,0,0,1,.911,4.622v12.884h-2.145v-12.5a7.731,7.731,0,0,0-1.588-5.248,5.644,5.644,0,0,0-4.48-1.81,6.934,6.934,0,0,0-3.458.809,5.746,5.746,0,0,0-2.2,2.124,5.46,5.46,0,0,0-.769,2.812v13.814Z" transform="translate(-133.003 -146.164)" fill="#202741"/>
        <path id="Path_1039" data-name="Path 1039" d="M173.288,216.883a11.611,11.611,0,0,1-4.6-.838,12.022,12.022,0,0,1-3.277-2.023,12.841,12.841,0,0,1-2.073-2.286,16.731,16.731,0,0,1-1.011-1.628l1.4-1.456a16.741,16.741,0,0,0,.971,1.558,12.28,12.28,0,0,0,1.841,2.073,10.323,10.323,0,0,0,2.832,1.809,9.644,9.644,0,0,0,3.964.75,9.8,9.8,0,0,0,3.984-.8,6.916,6.916,0,0,0,2.933-2.376,7.432,7.432,0,0,0,.354-7.181,6.974,6.974,0,0,0-2.054-2.255,14.96,14.96,0,0,0-2.911-1.6q-1.619-.678-3.357-1.3-1.174-.425-2.518-1.032a12.347,12.347,0,0,1-2.548-1.548,7.5,7.5,0,0,1-1.972-2.336,6.946,6.946,0,0,1-.769-3.4,8.652,8.652,0,0,1,.667-3.388A8.749,8.749,0,0,1,167,184.837a8.622,8.622,0,0,1,2.852-1.891,10.082,10.082,0,0,1,7.352.01,9.916,9.916,0,0,1,2.821,1.759,8.618,8.618,0,0,1,1.78,2.154l-1.294,1.375a7,7,0,0,0-1.486-1.882,8.058,8.058,0,0,0-5.533-2.084,6.844,6.844,0,0,0-3.771.992,6.633,6.633,0,0,0-2.357,2.538,6.885,6.885,0,0,0-.809,3.227,5.1,5.1,0,0,0,.647,2.659,5.956,5.956,0,0,0,1.689,1.82,11.4,11.4,0,0,0,2.276,1.244q1.234.506,2.427.91,1.862.669,3.641,1.457a15.981,15.981,0,0,1,3.227,1.891,8.147,8.147,0,0,1,2.3,2.719,8.42,8.42,0,0,1,.848,3.945,8.5,8.5,0,0,1-5.107,8.132A12.338,12.338,0,0,1,173.288,216.883Z" transform="translate(-162.324 -142.413)" fill="#202741"/>
        <path id="Path_1040" data-name="Path 1040" d="M190.789,216.137a3.976,3.976,0,0,1-3.307-1.465,6.505,6.505,0,0,1-1.164-4.135V196.4h-1.962v-1.618h1.962v-7.727h2.144v7.727h5.3V196.4h-5.3v14.056a4.785,4.785,0,0,0,.707,2.822,2.347,2.347,0,0,0,2.023.98,3.442,3.442,0,0,0,2.166-.687l.544,1.719a5.043,5.043,0,0,1-1.415.616A6.232,6.232,0,0,1,190.789,216.137Z" transform="translate(-158.892 -141.667)" fill="#202741"/>
        <path id="Path_1041" data-name="Path 1041" d="M205.7,215.183a9.916,9.916,0,0,1-5.269-1.425,10.285,10.285,0,0,1-3.7-3.913,12.495,12.495,0,0,1-.01-11.337,10.236,10.236,0,0,1,3.691-3.9,9.949,9.949,0,0,1,5.29-1.427,10.162,10.162,0,0,1,5.34,1.437,8.91,8.91,0,0,1,3.56,3.964v-4.752h2.143v20.711H214.6v-4.794a9.971,9.971,0,0,1-3.651,3.994A9.773,9.773,0,0,1,205.7,215.183Zm.444-1.9a8.437,8.437,0,0,0,4.44-1.163,8.208,8.208,0,0,0,3.034-3.227,10.652,10.652,0,0,0,0-9.434,8.218,8.218,0,0,0-3.034-3.216,9.056,9.056,0,0,0-8.879,0,8.259,8.259,0,0,0-3.044,3.216,10.531,10.531,0,0,0,0,9.424,8.222,8.222,0,0,0,7.482,4.4Z" transform="translate(-157.178 -140.713)" fill="#202741"/>
        <path id="Path_1042" data-name="Path 1042" d="M224.6,216.137a3.977,3.977,0,0,1-3.307-1.465,6.505,6.505,0,0,1-1.164-4.135V196.4h-1.961v-1.618h1.961v-7.727h2.145v7.727h5.3V196.4h-5.3v14.056a4.785,4.785,0,0,0,.707,2.822,2.344,2.344,0,0,0,2.023.98,3.44,3.44,0,0,0,2.165-.687l.546,1.719a5.036,5.036,0,0,1-1.416.616A6.226,6.226,0,0,1,224.6,216.137Z" transform="translate(-153.626 -141.667)" fill="#202741"/>
        <path id="Path_1043" data-name="Path 1043" d="M231.616,190.588a1.444,1.444,0,0,1-.748-.2,1.5,1.5,0,0,1-.547-.546,1.448,1.448,0,0,1-.2-.749,1.428,1.428,0,0,1,.2-.758,1.539,1.539,0,0,1,.547-.536,1.455,1.455,0,0,1,.748-.2,1.439,1.439,0,0,1,.758.2,1.577,1.577,0,0,1,.536.536,1.439,1.439,0,0,1,.2.758,1.459,1.459,0,0,1-.2.749,1.535,1.535,0,0,1-.536.546A1.428,1.428,0,0,1,231.616,190.588Zm-1.073,24.818V194.695h2.145v20.711Z" transform="translate(-151.764 -141.582)" fill="#202741"/>
        <path id="Path_1044" data-name="Path 1044" d="M248.421,215.183a11.816,11.816,0,0,1-5.753-1.4,10.475,10.475,0,0,1-4.045-3.873,11.767,11.767,0,0,1,.01-11.467,10.559,10.559,0,0,1,4.054-3.874,12.517,12.517,0,0,1,11.489,0,10.578,10.578,0,0,1,4.056,3.874,11.731,11.731,0,0,1,0,11.467,10.575,10.575,0,0,1-4.056,3.873A11.825,11.825,0,0,1,248.421,215.183Zm0-1.961a9.332,9.332,0,0,0,4.683-1.163,8.551,8.551,0,0,0,3.236-3.206,9.822,9.822,0,0,0,0-9.344A8.551,8.551,0,0,0,253.1,196.3a10.008,10.008,0,0,0-9.364,0,8.535,8.535,0,0,0-3.236,3.206,9.806,9.806,0,0,0,0,9.344,8.535,8.535,0,0,0,3.236,3.206A9.323,9.323,0,0,0,248.421,213.221Z" transform="translate(-150.671 -140.713)" fill="#202741"/>
        <path id="Path_1045" data-name="Path 1045" d="M261.373,214.537V193.825h2.145v2.952a6.52,6.52,0,0,1,2.538-2.538,8.507,8.507,0,0,1,4.439-1.062,8.184,8.184,0,0,1,4.126.982,6.4,6.4,0,0,1,2.628,2.871,10.582,10.582,0,0,1,.911,4.622v12.884h-2.144v-12.5a7.731,7.731,0,0,0-1.588-5.248,5.644,5.644,0,0,0-4.48-1.81,6.934,6.934,0,0,0-3.458.809,5.746,5.746,0,0,0-2.2,2.124,5.46,5.46,0,0,0-.769,2.812v13.814Z" transform="translate(-146.896 -140.713)" fill="#202741"/>
      </g>
      <g id="Group_54" data-name="Group 54">
        <g id="Group_53" data-name="Group 53">
          <path id="Path_1046" data-name="Path 1046" d="M158.111,185.749a42.71,42.71,0,0,0-42.66-42.661h-5.419v85.323h5.419A42.71,42.71,0,0,0,158.111,185.749ZM112.343,226.1V145.4h3.108a40.35,40.35,0,0,1,0,80.7Z" transform="translate(-69.328 -143.088)" fill="#202741"/>
          <path id="Path_1047" data-name="Path 1047" d="M118.172,178.435v.335h-.289v-.348h.273a13.757,13.757,0,0,1-2.654-2.493v.24h-.289v-.348h.216a10.041,10.041,0,0,1-.71-1.033v4.934h5.4A21.982,21.982,0,0,1,118.172,178.435Zm-1.445-.013v.348h-.289v-.348Zm-1.37,0h.289v.348h-.289Z" transform="translate(-68.597 -138.15)" fill="#2f6686"/>
          <path id="Path_1048" data-name="Path 1048" d="M115.791,193.6v.089a10.494,10.494,0,0,0,8.748,4.806c3.786,0,7.02-1.677,8.453-4.547H120.05V193.6h13.1a7.748,7.748,0,0,0,.633-3.114,7.331,7.331,0,0,0-.365-2.317h-10.4v-.348H133.3c-1.278-3.26-4.933-4.932-8.821-6.639-1.312-.573-2.563-1.178-3.735-1.826H114.72v6.153h.274v.348h-.274v1.964h5.475v.348H114.72v3.688a12.879,12.879,0,0,0,1.008,1.743Zm15.672-8.09h.289v.348h-.289Zm-1.011,0h.289v.348h-.289Zm-1.156,0h.289v.348H129.3Zm-1.011,0h.289v.348h-.289Zm-1.589,0h.289v.348H126.7Zm-2.023,0h1.156v.348h-1.156Zm-.936,0h.289v.348h-.289Zm-7.657.348h-.289v-.348h.289Zm1.081,0h-.289v-.348h.289Zm1.445,0h-.289v-.348h.289Zm1.086,0H119.4v-.348h.289Zm1.659,2.312h-.289v-.348h.289Zm1.011,0h-.289v-.348h.289Zm-2.023-2.659h2.531v.348h-2.531Zm-.936,8.09v.348h-.289V193.6Zm-1.086,0v.348h-.289V193.6Zm-1.445,0v.348h-.289V193.6Z" transform="translate(-68.597 -137.439)" fill="#2f6686"/>
          <path id="Path_1049" data-name="Path 1049" d="M119.832,162.459H114.72v4.5A10.437,10.437,0,0,1,119.832,162.459Zm-3.249,1.7v.348h-.289v-.348Zm-1.37,0h.289v.348h-.289Z" transform="translate(-68.597 -140.071)" fill="#2f6686"/>
          <path id="Path_1050" data-name="Path 1050" d="M124.893,163.788a12.944,12.944,0,0,1,4.918.958h16.142a37.422,37.422,0,0,0-6.411-7.484H138.9v-.348h.237a37.357,37.357,0,0,0-5.527-3.986h-2.3v-.348h1.691a37.057,37.057,0,0,0-18.29-4.8v4.8h8.8v.348h-8.8v3.986h2.514v.348H114.72v1.964h1.216v.348H114.72v1.964h4.25v.348h-4.25v2.861h5.112A13,13,0,0,1,124.893,163.788Zm17.839-2.25h.289v.348h-.289Zm-1.011.348h-.289v-.348h.289Zm-.578-2.659h.289v.348h-.289ZM124.6,161.885h-.289v-.348h.289Zm1.156,0h-.289v-.348h.289Zm1.8,0h-.289v-.348h.289Zm13.22,0h-.289v-.348h.289Zm-.578-2.659h.289v.348H140.2Zm-.362,2.659h-9.824v-.348h9.824Zm-2.094-4.971h.289v.348h-.289Zm-1.3,0h.289v.348h-.289Zm-1.3,0h.289v.348h-.289Zm-.94,0h.289v.348h-.289Zm-4.19-4.334h.289v.348h-.289Zm-1.156,0h.289v.348h-.289Zm-1.589,0h.289v.348h-.289Zm-.144,4.334h6.429v.348h-6.429Zm-1.3-4.334h.289v.348h-.289Zm-.289,4.334h.289v.348h-.289Zm-1.011-4.334h.289v.348h-.289Zm-.794,4.334h.289v.348h-.289Zm-.506,2.312h16.325v.348H123.229Zm-.214,2.659h-.289v-.348h.289Zm-.436-4.971h.289v.348h-.289Zm-.94,2.312h.289v.348h-.289Zm-.358,2.311h.289v.348h-.289Zm-.291-4.623h.289v.348h-.289Zm-.72,4.971h-.289v-.348h.289Zm-.433-2.659h.289v.348h-.289Zm-.291-2.312h.289v.348h-.289Zm-2.165,2.659h-.289v-.348h.289Zm1.153-2.312h-.289v-.348h.289Zm.436,2.312h-.289v-.348h.289Z" transform="translate(-68.597 -142.358)" fill="#2f6686"/>
          <path id="Path_1051" data-name="Path 1051" d="M114.72,212.493a37.178,37.178,0,0,0,12.064-2.009H114.72Z" transform="translate(-68.597 -132.591)" fill="#2f6686"/>
          <path id="Path_1052" data-name="Path 1052" d="M133.7,209.007v-.348h7.738c.7-.725,1.383-1.472,2.027-2.253h-.158v-.348h.289v.181a37.184,37.184,0,0,0,3.121-4.457h-1.242v-.348h1.441a36.962,36.962,0,0,0,4.156-10.632h-2.488v-.348h2.568c.15-.711.282-1.427.391-2.152v-.159h.021a37.483,37.483,0,0,0,.4-5.414c0-.247-.014-.492-.018-.74h-.11v-.348h.1a37.672,37.672,0,0,0-.314-3.9v.346H149.6v-.348h2.023a37.072,37.072,0,0,0-1.311-6.009h-3.388v-.348H150.2a37,37,0,0,0-3-6.876h-1.789v-.348H147q-.5-.867-1.044-1.7H129.811a13.87,13.87,0,0,1,3.017,1.7H138.4v.348H133.29a13.83,13.83,0,0,1,2.79,2.937l-1.726,1.338H138.4v.348h-4.492l-.18.14s-.037-.057-.094-.14h-1.8v-.348h1.55a10.787,10.787,0,0,0-8.293-4.275h-.312c-4.925.07-8.1,2.983-8.282,6.876h.092v.348h-.11v.013a7.3,7.3,0,0,0,3.289,6.043v-.047h2.531v.348h-2.125a27.076,27.076,0,0,0,3.994,2.253h2.824v.348H124.9q1.023.472,2.114.948l.01,0h.252v.116c3.98,1.778,6.819,3.74,8.324,6.386h3.378v.348h-3.182a9.2,9.2,0,0,1,.732,1.964h.139v.348H136.6a11.183,11.183,0,0,1-.2,5.431h.625v.348h-.72c-1.529,4.662-6.16,7.549-11.767,7.549a13.066,13.066,0,0,1-7.561-2.349H114.72v6.876h9.087v.348H114.72v6.009h4.175v.348H114.72v2.253h13.05a36.914,36.914,0,0,0,4.9-2.253h-3.879v-.348h4.484a37.365,37.365,0,0,0,7.834-6.009Zm-14.878-40.222h.289v.348h-.289Zm.289,2.6v.348h-.289v-.348Zm-1.375-2.6h.289v.348h-.289Zm0,2.6h.289v.348h-.289Zm23.982,35.021h-3.178v-.348h3.178Zm-1.659-15.951h.289v.348h-.289Zm-.144-8.465v-.348h.289v.348Zm3.25,8.465v.348h-2.023v-.348Zm-1.3-1.964v-.348h.289v.348Zm.289-6.5v-.348h.289v.348Zm.722,6.5v-.348h.289v.348Zm-1.589-6.5H141v-.348h.289Zm-.216,19.444v.348h-.289v-.348ZM141,188.492h-.289v-.348H141Zm1.011,13.291h-.289v-.348h.289Zm.651,4.623h-.289v-.348h.289Zm.291-10.172h.289v.348h-.289Zm.358,5.549h-.289v-.348h.289Zm.144-19.792h-.289v-.348h.289Zm-2.961-1.3v-.348h3.972v.348Zm3.828.952v.348h-.289v-.348Zm-.578,6.5h.289v.348h-.289Zm.867,13.639h-.289v-.348h.289Zm.433-5.2h-1.156v-.348h1.156Zm.433-14.591h-.289v-.348h.289Zm.364,8.813h-.289v-.348h.289Zm-.364-12.713v-.348h.289v.348Zm.722,18.492h-.289v-.348h.289Zm.8-5.779h-.289v-.348H147Zm.792,5.779H147.5v-.348h.289Zm.147-5.779h-.289v-.348h.289Zm.073-2.312h-2.023v-.348h2.023Zm.289-6.5h-2.023v-.348H148.3Zm.5,14.244v.348h-.289v-.348Zm2.312-15.892h.289v.348h-.289Zm-.433,1.3h.289v.348h-.289Zm-.289,6.5h.289v.348h-.289Zm-.433-7.8h.289v.348h-.289Zm-.289,1.3h.289v.348h-.289Zm-.289,6.5h.289v.348h-.289Zm-.867-10.4h.289v.348h-.289Zm-1.156,0h.289v.348h-.289Zm1.878,2.6v.348h-3.394v-.348Zm-3.248-8.609v-.348h.289v.348Zm.5,6.357v-.348h.289v.348Zm2.312-9.3h.289v.348H148.8Zm-3.392,0h2.023v.348h-2.023Zm-.364,2.6h.289v.348h-.289Zm-.144,16.758h.289v.348H144.9Zm-.069,2.659h-.289v-.348h.289Zm-.509-26.641h.289v.348h-.289Zm0,4.623h.289v.348h-.289Zm0,8.957h.289v.348h-.289Zm-.433-6.357h.289v.348h-.289Zm-.358,6.7h-.289v-.348h.289Zm-.364-13.928h.289v.348h-.289Zm0,4.623h.289v.348h-.289Zm-.289,2.6h.289v.348h-.289Zm-.578-7.223h.289v.348H142.3Zm0,4.623h.289v.348H142.3Zm-1.011-4.623h.289v.348h-.289Zm0,4.623h.289v.348h-.289Zm-1.156-4.623h.289v.348h-.289Zm0,4.623h.289v.348h-.289Zm-.647,2.6h2.023v.348h-2.023Zm-.433-7.223h.289v.348h-.289Zm0,4.623h.289v.348h-.289Zm-.653,2.6h.289v.348H138.4Zm-1.156,0h.289v.348h-.289Zm-.867,0h.289v.348h-.289Zm-1.011,0h.289v.348h-.289Zm-1.156,0h.289v.348h-.289Zm8.379,6.357v.348h-10.76v-.348Zm-3.106,18.492h.289v.348h-.289Zm-.287-15.544v-.348h.289v.348Zm.433,7.8v-.348h.289v.348Zm-1.086-8.149v.348H136.52v-.348Zm-2.672,0v.348h-.289v-.348Zm-1.011,0v.348h-.289v-.348Zm-1.156,0v.348h-.289v-.348Zm-.576-8.957h.289v.348h-.289Zm-2.242-2.6h.289v.348h-.289Zm-1.011,0h.289v.348h-.289Zm-1.156,0h.289v.348h-.289Zm-1.011,0H128v.348h-.289Zm-1.589,0h.289v.348h-.289Zm-3.826,2.948h-2.531v-.348h2.531Zm0-2.6h-2.531v-.348h2.531Zm1.156,8.957h-.289v-.348h.289Zm0-6.357H122.8v-.348h.653Zm0-2.6h-.289v-.348h.289Zm1.8,8.957H124.1v-.348h1.156Zm0-6.357H124.1v-.348h1.156Zm0-2.6H124.1v-.348h1.156Zm1.156,8.957h-.289v-.348h.289Zm-.5-6.357v-.348h6.57v.348Zm3.1,6.009v.348h-.289v-.348Zm-1.3,0H128v.348h-.289Zm.433,2.948h-.289v-.348h.289Zm.722,1.3h-.289v-.348h.289Zm1.011,0h-.289v-.348h.289Zm.073-1.3h-1.156v-.348h1.156Zm.216-2.6h-.289v-.348h.289Zm.867,3.9h-.289v-.348h.289Zm.073-1.3h-.289v-.348h.289Zm.072-2.6h-.289v-.348h.289Zm.867,3.9h-.289v-.348h.289Zm.651-1.3H132.4v-.348h.289Zm0,1.3v-.348h6.57v.348Zm6.212,8.465h.289v.348h-.289Zm-.867,0h.289v.348h-.289Zm-.147,5.779h.289v.348h-.289Zm-.865-5.779h.289v.348h-.289Zm-3.325,10.98h6.428v.348H133.7Zm-15.6,4.623v.348h-.289v-.348Zm-1.806,0v.348h-.289v-.348Zm-1.445,0h.289v.348h-.289Zm9.966,2.948v-.348h.289v.348Zm1.3,0v-.348h.289v.348Zm-.433,6.357H125.4v-.348h.289Zm-1.156,0h-.289v-.348h.289Zm-1.589-.348v.348h-.289v-.348Zm-1.445,0v.348h-.289v-.348Zm-1.589,0h.289v.348h-.289Zm7.585.348H127.2v-.348h.289Zm.072-6.357v-.348h.289v.348Zm-8.16-2.6v-.348h17.55v.348Zm10.038,2.6h-.289v-.348h.289Zm1.156,0h-.289v-.348h.289Zm1.806,0h-.289v-.348h.289Z" transform="translate(-68.597 -140.071)" fill="#2f6686"/>
          <path id="Path_1053" data-name="Path 1053" d="M114.72,194.845v1.546h1.752A15.306,15.306,0,0,1,114.72,194.845Z" transform="translate(-68.597 -135.026)" fill="#2f6686"/>
          <path id="Path_1054" data-name="Path 1054" d="M112.055,215.4h-4.176v-.348h4.176v-6.009h-9.088V208.7h9.088v-6.876h-9.088v-.348h9.088V190.841h-5.476v-.348h5.476V188.53h-.275v-.348h.275v-6.153h-8.441v-.348h8.441V162.495H80.821q-.544.837-1.044,1.7h1.589v.348H79.577a36.968,36.968,0,0,0-3,6.876h3.274v.348H76.465a36.948,36.948,0,0,0-1.309,6.009h2.021v.348H75.154v-.346a37.64,37.64,0,0,0-.314,3.9h.1v.348h-.109c-.006.247-.018.491-.018.74a37.671,37.671,0,0,0,.4,5.414h.021v.16c.109.725.24,1.441.391,2.152h2.568v.348H75.7a36.976,36.976,0,0,0,4.156,10.632H81.3v.348H80.056a37.4,37.4,0,0,0,3.119,4.457V206.1h.289v.348h-.158c.644.78,1.324,1.528,2.028,2.253h7.737v.348H85.664a37.413,37.413,0,0,0,7.835,6.009h4.483v.348H94.1a37.044,37.044,0,0,0,4.9,2.253h13.051Zm-1.361-27.219h.289v.348h-.289Zm-1.081,0h.289v.348h-.289Zm-1.445,0h.289v.348h-.289Zm-1.086,0h.289v.348h-.289ZM94.371,209.044V208.7h.289v.348Zm1.806,0V208.7h.289v.348Zm1.156,0V208.7h.289v.348Zm1.589,0V208.7h.289v.348Zm1.445,0V208.7h.289v.348Zm1.3,0V208.7h.289v.348Zm7-2.6V206.1h.289v.348Zm1.806,0V206.1h.289v.348Zm1.445,0h-.289V206.1h.289Zm-3.465-9.824v-.348h.289v.348Zm1.445,0v-.348h.289v.348Zm1.37,0h-.289v-.348h.289Zm-3.9-.348h.289v.348h-.289Zm-.647,0v.348H93.288v-.348Zm-4.768,5.2v.348h-.289v-.348Zm-1.3,0v.348h-.289v-.348Zm-1.445,0v.348h-.289v-.348Zm-1.589,0v.348h-.289v-.348Zm-1.156,0v.348h-.289v-.348Zm-1.806,0v.348h-.289v-.348Zm9.752-10.632v-.348h.289v.348Zm1.011,0v-.348h.289v.348Zm-1.52-2.659h2.531v.348H103.9Zm-.144,2.312v.348H90.109v-.348Zm-9.679-8.813v.348h-6.57v-.348Zm-5.848-.952v-.348h2.023v.348Zm2.672,0v-.348h.289v.348Zm1.011,0v-.348H92.2v.348Zm1.156,0v-.348h.289v.348Zm1.3,7.453v.348H87.8v-.348Zm-.287-7.453v-.348h.289v.348Zm-4.334,15.544H90.9v.348H89.748Zm0-5.779v.348h-.289v-.348Zm-1.153,5.779h.289v.348h-.289Zm-.147-5.431v-.348h.289v.348Zm-.578-.348v.348h-.289v-.348Zm-.289-9.765h-.289v-.348h.289Zm-.287,15.544v.348H87v-.348Zm-.147-7.742h-.289v-.348h.289Zm-.289-6.5h-.289v-.348h.289Zm-.144,8.465v.348h-.289v-.348Zm-.069,10.98h6.428v.348H86.642Zm4.912-4.853v-.348h.289v.348Zm3.467-14.591h-.289v-.348h.289Zm.289,6.153v.348h-.289v-.348Zm.722-6.153h-.289v-.348h.289Zm.289,6.153v.348h-.289v-.348Zm-.362-7.453h-.289v-.348h.289Zm-.072-2.6H95.6v-.348h.289Zm2.312,3.9h-.289v-.348H98.2Zm.289,6.153v.348H98.2v-.348Zm-.433-10.054h-.289v-.348h.289Zm-.073,2.253v.348H96.827v-.348Zm-.794,7.8h.289v.348h-.289Zm-.289-6.153v-.348h.289v.348Zm0-3.9h-.289v-.348H96.9Zm2.023,2.253v.348h-.289v-.348Zm-.144-2.253v-.348h.289v.348Zm1.011,3.9H99.5v-.348h.289Zm.289,6.153v.348h-.289v-.348Zm1.734-6.153h-1.156v-.348h1.156Zm.289,6.153v.348h-1.156v-.348Zm.647-6.153h-.289v-.348h.289Zm.289,6.153v.348h-.289v-.348Zm-3.248-7.453v-.348h7.079v.348Zm.578-2.6v-.348h.289v.348Zm7.148,2.6v-.348h.289v.348Zm2.82,0h-.289v-.348h.289Zm-1.445,0H108.6v-.348h.289Zm2.525,0h-.289v-.348h.289Zm-.144-2.948h.289v.348h-.289Zm-.792-6.009h-.289v-.348h.289Zm0,6.009v.348h-.289v-.348Zm-1.445-6.009h-.289v-.348h.289Zm0,6.009v.348h-.289v-.348Zm-1.086-6.009h-.289v-.348h.289Zm-.289,6.009h.289v.348h-.289Zm3.9-6.009h-.289v-.348h.289Zm-.289-2.948h.289v.348h-.289Zm-.792-4.275h-.289V164.2h.289Zm0,4.275v.348h-.289v-.348Zm-1.445-4.275h-.289V164.2h.289Zm0,4.275v.348h-.289v-.348Zm-1.086-4.275h-.289V164.2h.289Zm-.289,4.275h.289v.348h-.289Zm3.9-4.275h-.289V164.2h.289Zm-7.079-.348h2.531v.348h-2.531Zm0,4.623h2.531v.348h-2.531Zm0,2.6h2.531v.348h-2.531Zm0,6.357h2.531v.348h-2.531Zm-1.156-13.58h.289v.348h-.289Zm0,4.623h.289v.348h-.289Zm0,2.6h.653v.348h-.653Zm0,6.357h.289v.348h-.289Zm-1.8-13.58h1.156v.348h-1.156Zm0,4.623h1.156v.348h-1.156Zm0,2.6h1.156v.348h-1.156Zm0,6.357h1.156v.348h-1.156Zm-.653-6.009H94.3v-.348h6.57Zm-.5-7.571h.289v.348h-.289Zm0,4.623h.289v.348h-.289ZM98.778,164.2h.289v.348h-.289Zm0,4.623h.289v.348h-.289ZM97.766,164.2h.289v.348h-.289Zm0,4.623h.289v.348h-.289ZM96.611,164.2H96.9v.348h-.289Zm0,4.623H96.9v.348h-.289ZM95.6,164.2h.289v.348H95.6Zm0,4.623h.289v.348H95.6ZM88.376,164.2h6.57v.348h-6.57Zm0,4.623h6.57v.348h-6.57Zm5.27,2.6v.348h-.289v-.348Zm-1.081,0v.348h-.289v-.348Zm-1.156,0v.348h-.289v-.348Zm-1.011,0v.348h-.289v-.348Zm-.867,0v.348h-.289v-.348Zm-1.445,0h.289v.348h-.289Zm-.653-7.223h.289v.348h-.289Zm0,4.623h.289v.348h-.289ZM86.353,164.2h.289v.348h-.289Zm.936,7.223v.348H85.267v-.348Zm-.936-2.6h.289v.348h-.289ZM85.2,164.2h.289v.348H85.2Zm0,4.623h.289v.348H85.2ZM84.186,164.2h.289v.348h-.289Zm0,4.623h.289v.348h-.289Zm0,8.957h10.76v.348H84.186Zm-.867-13.58h.289v.348h-.289Zm.578,7.223v.348h-.289v-.348Zm-.578-2.6h.289v.348h-.289Zm-.075,8.957h.289v.348h-.289Zm-.647-6.357h.289v.348H82.6Zm-.433-7.223h.289v.348h-.289Zm0,4.623h.289v.348h-.289Zm0,8.957h.289v.348h-.289Zm-.22,12.713h.289v.348h-.289Zm-.5-19.07h.289v.348h-.289Zm-3.467-2.253h-.289v-.348h.289Zm1.37,0v-.348h2.023v.348Zm1.445,2.253v.348H80.5v-.348Zm-.5,6.357v.348H80v-.348Zm-1.156,0h.289v.348H79.13Zm-1.156,0h.289v.348h-.289Zm-2.312,2.948h-.289v-.348h.289Zm.144.952H76.1v.348h-.289Zm.578,6.849H76.1v-.348h.289Zm.144-8.149h.289v.348h-.289Zm.289,1.3h.289v.348h-.289Zm.578,6.849h-.289v-.348H77.4Zm.144-7.8v-.348h3.394v.348Zm.722,15.892h-.289v-.348h.289Zm.214-14.939H80.5v.348H78.477Zm.289,6.5h2.023v.348H78.766Zm.073,2.312h.289v.348h-.289Zm.436,6.127h-.289v-.348h.289Zm.792-5.779h-.289v-.348h.289Zm.8,5.779h-.289v-.348h.289Zm.358-5.779h-.289v-.348h.289Zm-.214-12.713v-.348H81.3v.348Zm.289,3.553h.289v.348H81.3Zm.289,6.5h.289v.348h-.289Zm.867,13.639h-.289v-.348h.289Zm.433-5.2H81.73v-.348h1.156Zm.144-8.09h-.289v-.348h.289Zm-.578-6.5v-.348h.289v.348Zm-.144-1.3v-.348H86.28v.348Zm3.32,9.765v.348H83.606v-.348Zm-2.02-1.964v-.348H83.9v.348Zm1.011-6.5h-.289v-.348h.289Zm.289,6.153v.348H84.62v-.348Zm.578-6.153v-.348h.289v.348Zm.216,19.444h.289v.348H85.7Zm.073-12.943v-.348h.289v.348Zm-2.456-6.5v-.348h.289v.348Zm.433,19.792h-.289v-.348h.289Zm.069-5.2h-.289v-.348h.289Zm.58,9.824h-.289V206.1H84.4Zm.362-4.971h.289v.348h-.289Zm3.467,4.971H85.053V206.1h3.178Zm1.589,0V206.1h17.55v.348Zm9.462,8.957v-.348h.289v.348Zm1.806,0v-.348h.289v.348Zm1.156,0v-.348h.289v.348Zm1.589,0v-.348h.289v.348Zm1.445,0v-.348h.289v.348Zm1.3,0v-.348h.289v.348Z" transform="translate(-74.813 -140.065)" fill="#eead51"/>
          <path id="Path_1055" data-name="Path 1055" d="M108.662,210.521H96.6a37.168,37.168,0,0,0,12.064,2.009Z" transform="translate(-71.42 -132.585)" fill="#eead51"/>
          <path id="Path_1056" data-name="Path 1056" d="M111.245,161.923h-4.251v-.348h4.251v-1.964h-1.217v-.348h1.217V157.3H108.73v-.348h2.515v-3.986h-8.8v-.348h8.8v-4.8a37.062,37.062,0,0,0-18.291,4.8h1.691v.348h-2.3a37.356,37.356,0,0,0-5.527,3.986h.237v.348h-.638a37.383,37.383,0,0,0-6.411,7.482h31.234Zm-2.662-2.659h.289v.348h-.289Zm-1.153-2.312h.289v.348h-.289Zm-.436,2.312h.289v.348h-.289Zm-23.762,2.659h-.289v-.348h.289Zm1.3,0h-.289v-.348h.289Zm.289-2.312h-.289v-.348h.289Zm17.119-2.659h.289v.348h-.289Zm-.794-4.334h.289v.348h-.289Zm-1.3,0h.289v.348h-.289Zm.578,4.334v.348h-.289v-.348ZM98.4,152.617h.289v.348H98.4Zm-1.589,0H97.1v.348h-.289Zm-1.156,0h.289v.348h-.289Zm-3.251,4.334h6.429v.348H92.405Zm-.938,0h.289v.348h-.289Zm-.94,0h.289v.348h-.289Zm-1.3,0h.289v.348h-.289Zm-1.3,0h.289v.348h-.289Zm-2.456,4.971h-.289v-.348h.289Zm.289-2.312h-.289v-.348h.289Zm10.186,2.312H86.121v-.348h9.824Zm2.745,0H98.4v-.348h.289Zm1.8,0H100.2v-.348h.289Zm1.156,0h-.289v-.348h.289Zm1.086-2.312H86.41v-.348h16.325Zm.5,2.312h-.289v-.348h.289Zm.147-4.623H103.1v-.348h.289Zm.94,2.312h-.289v-.348h.289Zm.358,2.312h-.289v-.348h.289Zm.291-4.623h-.289v-.348h.289Zm1.009,4.623h-.289v-.348h.289Zm.144-2.312h-.289v-.348h.289Zm.291-2.312h-.289v-.348h.289Z" transform="translate(-74.003 -142.352)" fill="#eead51"/>
        </g>
      </g>
    </g>
    <g id="Group_61" data-name="Group 61" transform="translate(487.244 148.558)">
      <g id="Group_59" data-name="Group 59">
        <g id="Group_58" data-name="Group 58" transform="translate(0 13.857)">
          <g id="Group_56" data-name="Group 56">
            <path id="Path_1057" data-name="Path 1057" d="M445.041,173.605a.843.843,0,0,1,.3.055.816.816,0,0,1,.289.2l1.687,1.774a7,7,0,0,1-2.775,2.183,9.7,9.7,0,0,1-3.947.736,9.4,9.4,0,0,1-3.744-.71,8.114,8.114,0,0,1-2.807-1.964,8.652,8.652,0,0,1-1.768-2.97,10.992,10.992,0,0,1-.616-3.732,9.808,9.808,0,0,1,.705-3.77,8.677,8.677,0,0,1,5-4.9,10.555,10.555,0,0,1,3.889-.692,9.927,9.927,0,0,1,1.944.181,9.494,9.494,0,0,1,1.706.5,8.085,8.085,0,0,1,1.46.767,7.077,7.077,0,0,1,1.184.989l-1.435,1.925a1.827,1.827,0,0,1-.327.32.854.854,0,0,1-.528.146.952.952,0,0,1-.429-.1,4.925,4.925,0,0,1-.428-.245l-.5-.314a3.771,3.771,0,0,0-.641-.314,5.263,5.263,0,0,0-.869-.246,5.931,5.931,0,0,0-1.164-.1,5.326,5.326,0,0,0-2.115.409,4.612,4.612,0,0,0-1.642,1.171,5.423,5.423,0,0,0-1.069,1.843,7.216,7.216,0,0,0-.385,2.429,7.535,7.535,0,0,0,.385,2.5,5.515,5.515,0,0,0,1.044,1.845,4.463,4.463,0,0,0,1.543,1.138,4.606,4.606,0,0,0,1.887.389,8.721,8.721,0,0,0,1.058-.057,4.4,4.4,0,0,0,.888-.194,4.113,4.113,0,0,0,.78-.359,5.291,5.291,0,0,0,.749-.547,1.543,1.543,0,0,1,.327-.209A.87.87,0,0,1,445.041,173.605Z" transform="translate(-431.662 -159.81)" fill="#202741"/>
            <path id="Path_1058" data-name="Path 1058" d="M452.141,171.538v6.784h-4.254V159.984h5.966a12.24,12.24,0,0,1,3.392.409,6.368,6.368,0,0,1,2.291,1.14,4.3,4.3,0,0,1,1.29,1.723,5.7,5.7,0,0,1,.4,2.166,5.814,5.814,0,0,1-.239,1.686,5.111,5.111,0,0,1-.711,1.466,5.508,5.508,0,0,1-1.159,1.2,6.115,6.115,0,0,1-1.579.868,4.08,4.08,0,0,1,.8.529,3.17,3.17,0,0,1,.647.767l3.9,6.382h-3.851a1.635,1.635,0,0,1-1.536-.807l-3.045-5.323a1.291,1.291,0,0,0-.471-.5,1.583,1.583,0,0,0-.762-.15Zm0-2.933h1.712a4.358,4.358,0,0,0,1.479-.22,2.66,2.66,0,0,0,1-.61,2.339,2.339,0,0,0,.566-.913,3.518,3.518,0,0,0,.176-1.126,2.357,2.357,0,0,0-.787-1.887,3.653,3.653,0,0,0-2.435-.681h-1.712Z" transform="translate(-429.135 -159.783)" fill="#202741"/>
            <path id="Path_1059" data-name="Path 1059" d="M481.076,178.322h-3.3a1.522,1.522,0,0,1-.912-.259,1.331,1.331,0,0,1-.5-.661l-1.083-3.2h-6.973l-1.083,3.2a1.454,1.454,0,0,1-1.383.92h-3.323l7.1-18.338h4.355Zm-11.782-7.011h5.01l-1.687-5.022q-.163-.478-.384-1.127t-.433-1.4q-.2.768-.416,1.422t-.4,1.134Z" transform="translate(-426.855 -159.783)" fill="#202741"/>
            <path id="Path_1060" data-name="Path 1060" d="M492.233,159.984v3.272h-7.526V167.9h6.268v3.286h-6.268v7.136h-4.28V159.984Z" transform="translate(-424.066 -159.783)" fill="#202741"/>
            <path id="Path_1061" data-name="Path 1061" d="M507.046,159.984v3.372h-5.16v14.966h-4.254V163.357h-5.16v-3.372Z" transform="translate(-422.191 -159.783)" fill="#202741"/>
            <path id="Path_1062" data-name="Path 1062" d="M516.6,170.931q.232.518.447,1.059.213-.555.452-1.077t.491-1.015l4.707-9.273a1.5,1.5,0,0,1,.258-.371.825.825,0,0,1,.3-.2,1,1,0,0,1,.37-.064h3.732v18.326H523.6V167.773q0-.768.075-1.662l-4.858,9.428a1.608,1.608,0,0,1-.61.667,1.7,1.7,0,0,1-.875.228h-.579a1.7,1.7,0,0,1-.875-.228,1.608,1.608,0,0,1-.61-.667l-4.883-9.44c.034.294.058.586.075.876s.025.555.025.8v10.547h-3.75V159.995h3.732a1.011,1.011,0,0,1,.371.064.83.83,0,0,1,.3.2,1.527,1.527,0,0,1,.258.371l4.72,9.312Q516.365,170.414,516.6,170.931Z" transform="translate(-419.969 -159.781)" fill="#202741"/>
            <path id="Path_1063" data-name="Path 1063" d="M544.586,178.322h-3.3a1.522,1.522,0,0,1-.912-.259,1.332,1.332,0,0,1-.5-.661l-1.082-3.2h-6.973l-1.083,3.2a1.457,1.457,0,0,1-1.385.92h-3.323l7.1-18.338h4.355Zm-11.781-7.011h5.009l-1.686-5.022q-.165-.478-.384-1.127t-.435-1.4q-.2.768-.415,1.422t-.4,1.134Z" transform="translate(-416.963 -159.783)" fill="#202741"/>
            <path id="Path_1064" data-name="Path 1064" d="M548.191,171.538v6.784h-4.254V159.984H549.9a12.242,12.242,0,0,1,3.391.409,6.394,6.394,0,0,1,2.292,1.14,4.306,4.306,0,0,1,1.289,1.723,5.7,5.7,0,0,1,.4,2.166,5.814,5.814,0,0,1-.239,1.686,5.083,5.083,0,0,1-.712,1.466,5.476,5.476,0,0,1-1.158,1.2,6.134,6.134,0,0,1-1.579.868,4.007,4.007,0,0,1,.8.529,3.206,3.206,0,0,1,.65.767l3.9,6.382h-3.852a1.633,1.633,0,0,1-1.536-.807l-3.045-5.323a1.294,1.294,0,0,0-.473-.5,1.581,1.581,0,0,0-.76-.15Zm0-2.933H549.9a4.344,4.344,0,0,0,1.477-.22,2.651,2.651,0,0,0,1-.61,2.328,2.328,0,0,0,.567-.913,3.518,3.518,0,0,0,.176-1.126,2.36,2.36,0,0,0-.786-1.887,3.657,3.657,0,0,0-2.435-.681h-1.713Z" transform="translate(-414.174 -159.783)" fill="#202741"/>
            <path id="Path_1065" data-name="Path 1065" d="M563.242,167.41h.678a1.548,1.548,0,0,0,1.36-.591l4.128-5.991a1.758,1.758,0,0,1,.773-.668,2.823,2.823,0,0,1,1.063-.176h3.7l-5.438,7.414a3.674,3.674,0,0,1-.6.666,3.811,3.811,0,0,1-.643.441,3.262,3.262,0,0,1,.875.483,3.217,3.217,0,0,1,.724.825l5.537,8.509h-3.8a3.313,3.313,0,0,1-.623-.051,1.544,1.544,0,0,1-.446-.15,1.328,1.328,0,0,1-.328-.246,2.391,2.391,0,0,1-.264-.333l-4.154-6.382a1.251,1.251,0,0,0-.573-.5,2.492,2.492,0,0,0-.937-.144h-1.031v7.8h-4.254V159.984h4.254Z" transform="translate(-411.83 -159.783)" fill="#202741"/>
          </g>
          <g id="Group_57" data-name="Group 57" transform="translate(35.945 29.086)">
            <path id="Path_1066" data-name="Path 1066" d="M478.774,203.488h-4.28v-7.753h-7.45v7.753h-4.281V185.15h4.281v7.666h7.45V185.15h4.28Z" transform="translate(-462.763 -184.949)" fill="#202741"/>
            <path id="Path_1067" data-name="Path 1067" d="M498.023,194.341a9.892,9.892,0,0,1-.685,3.7A8.735,8.735,0,0,1,492.4,203a10.963,10.963,0,0,1-7.8,0,8.926,8.926,0,0,1-3.014-1.982,8.826,8.826,0,0,1-1.937-2.977,10.3,10.3,0,0,1,0-7.4,8.763,8.763,0,0,1,1.937-2.97,8.947,8.947,0,0,1,3.014-1.976,10.252,10.252,0,0,1,3.9-.718,10.135,10.135,0,0,1,3.895.725,9.012,9.012,0,0,1,3,1.981,8.912,8.912,0,0,1,1.931,2.97A9.868,9.868,0,0,1,498.023,194.341Zm-4.354,0a7.945,7.945,0,0,0-.354-2.449,5.21,5.21,0,0,0-1.012-1.843,4.382,4.382,0,0,0-1.618-1.158,5.55,5.55,0,0,0-2.177-.4,5.636,5.636,0,0,0-2.2.4,4.366,4.366,0,0,0-1.624,1.158,5.212,5.212,0,0,0-1.014,1.843,8.747,8.747,0,0,0,0,4.908,5.172,5.172,0,0,0,1.014,1.843,4.316,4.316,0,0,0,1.624,1.153,5.745,5.745,0,0,0,2.2.4,5.657,5.657,0,0,0,2.177-.4,4.332,4.332,0,0,0,1.618-1.153,5.171,5.171,0,0,0,1.012-1.843A7.971,7.971,0,0,0,493.669,194.341Z" transform="translate(-460.239 -184.976)" fill="#202741"/>
            <path id="Path_1068" data-name="Path 1068" d="M507.647,196.1q.231.518.446,1.059.213-.553.453-1.076t.49-1.015l4.709-9.273a1.473,1.473,0,0,1,.258-.372.858.858,0,0,1,.295-.2,1.042,1.042,0,0,1,.372-.062H518.4v18.325H514.65V192.939c0-.512.025-1.064.076-1.662l-4.859,9.428a1.6,1.6,0,0,1-.61.668,1.7,1.7,0,0,1-.875.227H507.8a1.7,1.7,0,0,1-.875-.227,1.612,1.612,0,0,1-.61-.668l-4.883-9.439c.034.294.058.586.075.875s.025.556.025.8v10.547h-3.75V185.162h3.731a1.038,1.038,0,0,1,.372.062.874.874,0,0,1,.3.2,1.537,1.537,0,0,1,.258.372l4.72,9.311C507.329,195.421,507.491,195.753,507.647,196.1Z" transform="translate(-457.308 -184.947)" fill="#202741"/>
            <path id="Path_1069" data-name="Path 1069" d="M530.609,185.15v3.272h-7.527V192.7h5.765v3.146h-5.765v4.368h7.527v3.272H518.8V185.15Z" transform="translate(-454.034 -184.949)" fill="#202741"/>
            <path id="Path_1070" data-name="Path 1070" d="M542.51,188.9a1.6,1.6,0,0,1-.4.453.886.886,0,0,1-.535.151,1.314,1.314,0,0,1-.623-.183l-.756-.41a6.311,6.311,0,0,0-.963-.408,3.854,3.854,0,0,0-1.233-.183,2.643,2.643,0,0,0-1.78.511,1.731,1.731,0,0,0-.586,1.378,1.267,1.267,0,0,0,.351.918,3.052,3.052,0,0,0,.927.63,9.713,9.713,0,0,0,1.308.484c.491.148.993.31,1.5.49a14.223,14.223,0,0,1,1.5.637,5,5,0,0,1,1.308.932,4.322,4.322,0,0,1,.926,1.378,4.905,4.905,0,0,1,.352,1.957,6.382,6.382,0,0,1-.441,2.38,5.586,5.586,0,0,1-1.277,1.932,5.961,5.961,0,0,1-2.064,1.3,7.73,7.73,0,0,1-2.788.472,8.988,8.988,0,0,1-1.743-.176,10.221,10.221,0,0,1-1.717-.5,9.817,9.817,0,0,1-1.561-.76,6.6,6.6,0,0,1-1.271-.981l1.259-1.989a1.013,1.013,0,0,1,.39-.364,1.1,1.1,0,0,1,.542-.14,1.434,1.434,0,0,1,.76.239c.258.159.546.336.869.528a6.951,6.951,0,0,0,1.114.529,4.174,4.174,0,0,0,1.485.239,2.828,2.828,0,0,0,1.8-.51,1.942,1.942,0,0,0,.641-1.617,1.53,1.53,0,0,0-.351-1.045,2.741,2.741,0,0,0-.925-.667,8.484,8.484,0,0,0-1.3-.466c-.488-.135-.986-.284-1.5-.446a11.069,11.069,0,0,1-1.5-.606,4.689,4.689,0,0,1-1.3-.943,4.4,4.4,0,0,1-.926-1.461,5.779,5.779,0,0,1-.352-2.159,5.11,5.11,0,0,1,.415-2.012,5.21,5.21,0,0,1,1.221-1.75,6.009,6.009,0,0,1,1.976-1.227,7.305,7.305,0,0,1,2.681-.46,9.948,9.948,0,0,1,1.642.133,8.6,8.6,0,0,1,1.516.389,8.271,8.271,0,0,1,1.341.617,6.165,6.165,0,0,1,1.113.811Z" transform="translate(-452.141 -184.976)" fill="#202741"/>
          </g>
        </g>
        <rect id="Rectangle_18" data-name="Rectangle 18" width="163.569" height="1.398" fill="#202741"/>
        <rect id="Rectangle_19" data-name="Rectangle 19" width="163.569" height="1.398" transform="translate(0 72.984)" fill="#202741"/>
      </g>
      <g id="Group_60" data-name="Group 60" transform="translate(130.262 38.864)">
        <path id="Path_1071" data-name="Path 1071" d="M544.369,186.523a5.01,5.01,0,0,1,.18-1.349,5.125,5.125,0,0,1,.508-1.214,4.957,4.957,0,0,1,.794-1.026,5.261,5.261,0,0,1,1.027-.794,4.978,4.978,0,0,1,2.552-.693,5,5,0,0,1,2.559.693,5.254,5.254,0,0,1,1.026.794,5,5,0,0,1,.794,1.026,5.128,5.128,0,0,1,.51,1.214,5.036,5.036,0,0,1-1.3,4.924,5.255,5.255,0,0,1-1.026.794,5.031,5.031,0,0,1-5.111,0,5.262,5.262,0,0,1-1.027-.794,5,5,0,0,1-.794-1.023,5.073,5.073,0,0,1-.508-1.207A4.972,4.972,0,0,1,544.369,186.523Zm.692,0a4.506,4.506,0,0,0,.154,1.186,4.445,4.445,0,0,0,.437,1.064,4.389,4.389,0,0,0,.678.9,4.306,4.306,0,0,0,1.928,1.134,4.373,4.373,0,0,0,1.173.156,4.268,4.268,0,0,0,1.715-.347,4.4,4.4,0,0,0,1.4-.947,4.482,4.482,0,0,0,.936-1.408,4.415,4.415,0,0,0,.343-1.737,4.541,4.541,0,0,0-.6-2.264,4.491,4.491,0,0,0-.682-.9,4.27,4.27,0,0,0-.884-.7,4.386,4.386,0,0,0-1.051-.447,4.307,4.307,0,0,0-1.175-.159,4.208,4.208,0,0,0-1.713.35,4.357,4.357,0,0,0-1.388.957,4.547,4.547,0,0,0-.929,1.422A4.485,4.485,0,0,0,545.061,186.523Zm3.37.624V189.6H547.35v-6.186h2a2.942,2.942,0,0,1,1.769.433,1.5,1.5,0,0,1,.576,1.279,1.705,1.705,0,0,1-.371,1.11,1.942,1.942,0,0,1-1.107.631.783.783,0,0,1,.206.173,1.7,1.7,0,0,1,.163.243l1.58,2.316h-1.025a.375.375,0,0,1-.34-.173l-1.394-2.094a.439.439,0,0,0-.15-.139.562.562,0,0,0-.267-.049Zm0-.791h.806a2.509,2.509,0,0,0,.648-.073,1.1,1.1,0,0,0,.43-.212.791.791,0,0,0,.235-.34,1.362,1.362,0,0,0,.073-.465,1.438,1.438,0,0,0-.065-.451.7.7,0,0,0-.215-.319,1,1,0,0,0-.393-.187,2.462,2.462,0,0,0-.6-.062h-.915Z" transform="translate(-544.369 -181.447)" fill="#202741"/>
      </g>
    </g>
    <line id="Line_3" data-name="Line 3" y2="85.322" transform="translate(448.777 143.088)" fill="none" stroke="#202741" stroke-miterlimit="10" stroke-width="1"/>
  </g>
</svg>
