<svg id="Layer_1" data-name="Layer 1" xmlns="http://www.w3.org/2000/svg" xmlns:xlink="http://www.w3.org/1999/xlink" viewBox="0 0 251.14 251.14"><defs><style>.cls-1{fill:none;}.cls-2{clip-path:url(#clip-path);}.cls-3{clip-path:url(#clip-path-2);}.cls-4{clip-path:url(#clip-path-3);}.cls-5{clip-path:url(#clip-path-4);}.cls-6{fill:#fff;}.cls-7{clip-path:url(#clip-path-5);}.cls-8{fill:#231f20;}</style><clipPath id="clip-path"><circle class="cls-1" cx="-304.19" cy="-83.97" r="250"/></clipPath><clipPath id="clip-path-2"><polygon class="cls-1" points="960.12 857.81 922.96 853.56 885.79 857.81 848.64 853.56 811.48 857.81 774.32 853.56 737.16 857.81 700 853.56 662.84 857.81 625.68 853.56 588.52 857.81 551.36 853.56 514.2 857.81 477.04 853.56 439.88 857.81 402.72 853.56 365.56 857.81 365.56 -0.27 960.12 -0.27 960.12 857.81"/></clipPath><clipPath id="clip-path-3"><rect class="cls-1" x="434.79" y="210.01" width="525.33" height="592.56"/></clipPath><clipPath id="clip-path-4"><circle class="cls-1" cx="757.15" cy="514.09" r="283.51"/></clipPath><clipPath id="clip-path-5"><rect class="cls-1" x="0.96" y="0.69" width="249.44" height="249.44"/></clipPath><image id="image" width="4000" height="2667" xlink:href="../Q1/Links/20190103-CMH-SAlex-Glendale-160%20copy.jpg"/></defs><title>B3</title><g class="cls-2"><use transform="translate(-811.81 -370.68) scale(0.2)" xlink:href="#image"/></g><g class="cls-3"><use transform="translate(-165.68 -284.03) scale(0.44)" xlink:href="#image"/></g><g class="cls-4"><g class="cls-5"><use transform="translate(154.39 163.7) scale(0.24)" xlink:href="#image"/></g></g><path class="cls-6" d="M239.75,125.41A114.08,114.08,0,1,1,125.68,11.33,114.08,114.08,0,0,1,239.75,125.41Z"/><g class="cls-7"><path d="M125.67,230.55A105.14,105.14,0,1,1,230.82,125.41,105.14,105.14,0,0,1,125.67,230.55m0-216.2A111.06,111.06,0,1,0,236.74,125.41,111.18,111.18,0,0,0,125.67,14.35"/><path d="M125.67,237.82A112.41,112.41,0,1,1,238.09,125.41,112.53,112.53,0,0,1,125.67,237.82m120-107.69,4.71-4.72-4.71-4.71,4.33-5.07-5.07-4.34,3.92-5.39-5.4-3.92L247,96.3l-5.69-3.49,3-5.94-5.94-3,2.55-6.16-6.16-2.55,2.06-6.34-6.34-2.06L232,60.25l-6.48-1.56,1-6.59-6.58-1,.52-6.65-6.65-.52V37.22H207.2l-.53-6.65L200,31.1,199,24.51l-6.59,1-1.55-6.48-6.49,1.56-2.06-6.34L176,16.35l-2.55-6.16-6.16,2.55-3-5.94-5.94,3-3.48-5.68L149.1,7.62l-3.92-5.39-5.39,3.92-4.33-5.07-5.07,4.33L125.67.69,121,5.41l-5.07-4.33-4.33,5.07-5.4-3.92-3.92,5.39L96.56,4.14,93.08,9.82l-6-3-3,5.94L78,10.19,75.4,16.35l-6.35-2.06L67,20.63l-6.48-1.56L59,25.55l-6.58-1-1,6.59-6.64-.53-.53,6.65H37.48v6.67l-6.64.52.52,6.65-6.59,1,1.05,6.59-6.49,1.56,1.56,6.48-6.34,2.06,2.06,6.34-6.16,2.55L13,83.84l-5.94,3,3,5.94L4.4,96.3,7.89,102l-5.4,3.92,3.92,5.39-5.07,4.34,4.33,5.07L1,125.41l4.71,4.72L1.34,135.2l5.07,4.33-3.92,5.39,5.4,3.92L4.4,154.53,10.09,158l-3,5.94L13,167l-2.55,6.16,6.16,2.55L14.55,182l6.34,2.06-1.56,6.49,6.49,1.55-1.05,6.59,6.59,1-.52,6.65,6.64.52v6.67h6.67l.53,6.65,6.67-.53,2.87,6.3,4.76-.76,3.35,6.05L67,230.19l2.06,6.35,6.35-2.06L78,240.64l6.16-2.56,3,5.95,6-3,3.48,5.68,5.68-3.48,3.92,5.39,5.4-3.91,4.33,5.06,5.07-4.33,4.71,4.72,4.72-4.72,5.07,4.33,4.33-5.06,5.39,3.91,3.92-5.39,5.69,3.48,3.48-5.68,5.94,3,3-5.95,6.16,2.55,2.55-6.15,6.34,2.06,2.06-6.35,6.49,1.56,1.55-6.48,6.59,1,1.05-6.58,6.64.52.53-6.65h6.66v-6.67l6.65-.52-.52-6.65,6.58-1-1-6.59,6.48-1.55-1.55-6.49L236.8,182l-2.06-6.34,6.16-2.55L238.35,167l5.94-3-3-5.94,5.69-3.48-3.49-5.69,5.4-3.92-3.92-5.39L250,135.2l-4.33-5.07Z"/></g><polygon class="cls-8" points="59.06 147.19 67.86 147.19 63.51 134.55 59.06 147.19 59.06 147.19"/><path class="cls-8" d="M96.54,113.16a2.61,2.61,0,0,0,2.74-2.9V96.15a2.65,2.65,0,0,0-2.78-2.87,2.62,2.62,0,0,0-2.85,2.87v14.08a2.71,2.71,0,0,0,2.89,2.93"/><path d="M185.18,161.92V160h4.73l-9.62-15.41-8.16,12a4.29,4.29,0,0,0-.94,2.18c0,1,1.51,1.19,2.78,1.19h1.93v1.93h-14V160h1.36c3.33,0,5-2.29,7.06-5.18l.21-.29,8.49-12-12.16-19.46h-4.28v-1.93H182.4v1.93h-4L185,133.69l4.7-6.8a6.19,6.19,0,0,0,1.45-3c0-.49-1-.79-2.49-.79h-1.31v-1.93h12.41v1.93h-1.36c-2.39,0-4,1.21-6.77,5.18l-5.32,7.63L201.45,160h3.83v1.93ZM159.29,116H155V93.65H150.1V90.38h14.12v3.27h-4.93V116Zm-.55,45.93H124.6V160h4.58V123.08H124.6v-1.93h32.56v12.18h-1.93v-1.25c0-4.48-3.12-9-10.08-9h-6.23v16.41h3.46c3.61,0,5.15-2.09,5.15-7V131.4h1.93v18.8h-1.93v-1.76c0-3.49-1.59-7-5.15-7h-3.46V160h7.7c9.7,0,10.19-8.72,10.19-10.47v-1.25h1.93v13.65Zm-38.18-51.86V90.38h4.26v19.88a2.77,2.77,0,0,0,3.08,2.8,2.63,2.63,0,0,0,2.81-2.83V90.38h3.82V110c0,4-2.93,6.36-7,6.36-4.23,0-7-2.39-7-6.33m1.84,51.86H88.25V160h4.59V123.08H88.25v-1.93h19.43v1.93h-5.1V160h6.06c6.14,0,11.83-1.33,11.83-11v-1.59h1.93v14.5Zm-36.52,0H68.1V160h4.34l-3.81-10.87H58.29l-2.61,7.68a4.77,4.77,0,0,0-.37,1.55c0,1.15.67,1.64,2.26,1.64h2v1.93H48.45V160h1.19c1.65-.13,2.69-1.06,3.43-3.1l13.24-36.64h1.48L83,160h2.91v1.93ZM60.26,96.18c0-3.3,1.89-6.23,6.56-6.23,4.44,0,5.89,2.69,5.89,6.16a27.19,27.19,0,0,1-.15,2.73H69.08a20.2,20.2,0,0,0,.11-2.36c0-2.29-.56-3.33-2.3-3.33-1.52,0-2.37.81-2.37,2.52v.24c0,1.58,1.11,3.1,3.15,4.88,3.34,3,5.49,5.7,5.49,9.07v.3c0,3.68-2.64,6.23-6.64,6.23-4.22,0-6.15-2.12-6.15-6.16,0-.61.11-2,.18-2.66H64c-.08.64-.15,1.82-.15,2.49,0,2.12.89,3.1,2.56,3.1s2.44-1,2.44-2.66v-.44c0-1.82-.74-3.23-3.78-5.86-2.81-2.46-4.85-4.92-4.85-7.75v-.27Zm29.13.47c0-4.88,3.33-6.7,7.15-6.7s7,1.75,7,6.7v13.18c0,4.68-3.26,6.56-7,6.56s-7.15-1.88-7.15-6.56V96.65Zm90.39-6.27H184v11.06h6V90.38h4.26V116h-4.26V104.7h-6V116h-4.26V90.38ZM125.67,31.57a93.84,93.84,0,1,0,93.84,93.84,93.84,93.84,0,0,0-93.84-93.84"/><polygon class="cls-6" points="96.43 65.92 93.94 65.92 93.94 78.34 91.78 78.34 91.78 65.92 89.29 65.92 89.29 64.1 96.43 64.1 96.43 65.92 96.43 65.92"/><path class="cls-6" d="M104,67.31a1.42,1.42,0,0,0-1.41-1.6,1.4,1.4,0,0,0-1.44,1.6v7.83a1.45,1.45,0,0,0,1.46,1.63c.87,0,1.39-.62,1.39-1.61V67.31Zm2.17,7.6a3.59,3.59,0,1,1-7.17,0V67.59c0-2.72,1.68-3.73,3.61-3.73s3.56,1,3.56,3.73v7.32Z"/><polygon class="cls-6" points="121.26 64.1 118.89 78.34 116.27 78.34 115.13 70.75 115.07 70.75 113.91 78.34 111.31 78.34 108.97 64.1 111.21 64.1 112.69 75.25 112.79 75.25 114.51 64.1 115.86 64.1 117.53 75.33 117.62 75.33 119.14 64.1 121.26 64.1 121.26 64.1"/><polygon class="cls-6" points="131.04 78.34 129.22 78.34 126.09 69.46 126.02 69.46 126.02 78.34 124.09 78.34 124.09 64.1 126.17 64.1 129.03 72.16 129.11 72.16 129.11 64.1 131.04 64.1 131.04 78.34 131.04 78.34"/><path class="cls-6" d="M141.21,75.12a3.34,3.34,0,0,1-3.57,3.45c-2.14,0-3.32-1.18-3.32-3.43a9.37,9.37,0,0,1,.17-1.59l1.76.11a5.8,5.8,0,0,0-.15,1.39c0,1.18.65,1.72,1.5,1.72a1.33,1.33,0,0,0,1.46-1.48v-.24c0-1-.47-1.65-2.14-3.26-1.42-1.37-2.66-2.85-2.66-4.54V67.1a3.25,3.25,0,0,1,3.53-3.24c2.24,0,3.2,1.35,3.2,3.28a12,12,0,0,1-.13,1.63l-1.76-.11a8.25,8.25,0,0,0,.11-1.32c0-1.27-.51-1.7-1.39-1.7a1.24,1.24,0,0,0-1.4,1.33v.13c0,.88.45,1.44,1.8,2.79,2.41,2.42,3,3.62,3,5.06v.17Z"/><path class="cls-6" d="M153.56,74.41,152.49,67h-.09l-1,7.4Zm2.81,3.93H154.2l-.36-2.11h-2.68l-.31,2.11H148.9l2.51-14.24h2.43l2.53,14.24Z"/><polygon class="cls-6" points="164.21 65.92 161.72 65.92 161.72 78.34 159.56 78.34 159.56 65.92 157.07 65.92 157.07 64.1 164.21 64.1 164.21 65.92 164.21 65.92"/><path class="cls-6" d="M206.67,124.88h.54c.56,0,1.1-.18,1.1-.67s-.28-.72-1-.72a3.54,3.54,0,0,0-.61.05v1.34Zm0,2.41h-.8V123a9,9,0,0,1,1.49-.13,2,2,0,0,1,1.34.34,1.12,1.12,0,0,1,.43.92,1.09,1.09,0,0,1-.82,1v.05a1.34,1.34,0,0,1,.69,1,3,3,0,0,0,.34,1.06h-.82a3.39,3.39,0,0,1-.36-1.11c-.11-.48-.39-.69-1-.69h-.51v1.8Zm.72-5.62a3.37,3.37,0,0,0,.05,6.74,3.22,3.22,0,0,0,3.2-3.36,3.26,3.26,0,0,0-3.23-3.38Zm.05-.72a4.11,4.11,0,1,1,0,8.21,4.11,4.11,0,1,1,0-8.21Z"/></svg>