<?xml version="1.0" encoding="utf-8"?>
<!-- Generator: Adobe Illustrator 25.4.1, SVG Export Plug-In . SVG Version: 6.00 Build 0)  -->
<svg version="1.1" xmlns="http://www.w3.org/2000/svg" xmlns:xlink="http://www.w3.org/1999/xlink" x="0px" y="0px"
	 viewBox="0 0 800 800" style="enable-background:new 0 0 800 800;" xml:space="preserve">
<style type="text/css">
	.st0{fill:#9BB19E;}
	.st1{fill:#4F695E;}
	.st2{display:none;}
	.st3{display:inline;}
	.st4{fill:#5B813F;}
	.st5{fill:#45B298;}
	.st6{fill:#B8CB36;}
</style>
<g id="graphics">
	<g>
		<path class="st0" d="M221.7,438.6c0.4-1.1,0.5-1.3,0.7-1.3s0.3,0.2,0.7,1.2c0.5,1.3,5.7,14.9,7.7,19.9c1.2,2.9,2.1,3.5,2.8,3.7
			c0.5,0.2,1,0.2,1.3,0.2c0.2,0,0.3,0,0.3,0.2c0,0.2-0.3,0.3-0.7,0.3c-0.5,0-2.9,0-5.2-0.1c-0.6,0-1,0-1-0.2c0-0.1,0.1-0.2,0.2-0.2
			c0.2-0.1,0.4-0.4,0.2-0.9l-3.1-8.1c-0.1-0.1-0.1-0.2-0.3-0.2h-7.1c-0.2,0-0.3,0.1-0.3,0.3l-2,5.8c-0.3,0.8-0.5,1.6-0.5,2.2
			c0,0.7,0.7,1,1.3,1h0.3c0.2,0,0.3,0.1,0.3,0.2c0,0.2-0.2,0.3-0.5,0.3c-0.8,0-2.2-0.1-2.6-0.1c-0.4,0-2.2,0.1-3.7,0.1
			c-0.4,0-0.6-0.1-0.6-0.3c0-0.1,0.1-0.2,0.3-0.2c0.2,0,0.7,0,1-0.1c1.5-0.2,2.2-1.5,2.8-3.1L221.7,438.6z M225.1,451.8
			c0.2,0,0.2-0.1,0.1-0.2l-3.1-8.9c-0.2-0.5-0.3-0.5-0.5,0l-2.9,8.9c-0.1,0.2,0,0.2,0.1,0.2H225.1z"/>
		<path class="st0" d="M247.2,453.1c0,3.2,0,5.8,0.2,7.2c0.1,1,0.3,1.7,1.3,1.8c0.5,0.1,1.2,0.1,1.5,0.1c0.2,0,0.3,0.1,0.3,0.2
			c0,0.2-0.2,0.3-0.5,0.3c-1.8,0-3.9-0.1-4.1-0.1s-2.2,0.1-3.2,0.1c-0.4,0-0.5-0.1-0.5-0.3c0-0.1,0.1-0.2,0.3-0.2
			c0.3,0,0.7-0.1,1-0.1c0.7-0.1,0.8-0.9,1-1.8c0.2-1.4,0.2-4,0.2-7.2v-14l-4.9,0.1c-2,0-2.8,0.3-3.4,1.1c-0.4,0.6-0.5,0.8-0.6,1
			c-0.1,0.3-0.2,0.3-0.3,0.3c-0.1,0-0.2-0.1-0.2-0.3c0-0.3,0.7-3.2,0.7-3.4c0.1-0.2,0.2-0.6,0.3-0.6c0.2,0,0.6,0.3,1.5,0.4
			c1,0.1,2.2,0.2,2.6,0.2h12.4c1.1,0,1.8-0.1,2.3-0.2c0.5-0.1,0.8-0.2,0.9-0.2c0.2,0,0.2,0.2,0.2,0.4c0,1-0.1,3.3-0.1,3.6
			c0,0.3-0.1,0.4-0.2,0.4c-0.2,0-0.2-0.1-0.3-0.6l0-0.4c-0.1-1-0.9-1.7-4.1-1.8l-4.2-0.1V453.1z"/>
		<path class="st0" d="M278.9,459.6c-3.2-2.9-4-6.6-4-9.8c0-2.2,0.8-6.1,3.7-9c2-2,5-3.5,10.1-3.5c1.3,0,3.2,0.1,4.8,0.4
			c1.3,0.2,2.3,0.4,3.4,0.5c0.4,0,0.4,0.2,0.4,0.4c0,0.3-0.1,0.7-0.2,1.8c-0.1,1.1-0.1,2.9-0.1,3.4s-0.1,0.7-0.3,0.7
			c-0.2,0-0.3-0.2-0.3-0.7c0-1.3-0.5-2.6-1.4-3.4c-1.2-1-3.7-1.9-6.6-1.9c-4.4,0-6.4,1.3-7.6,2.4c-2.4,2.3-3,5.2-3,8.6
			c0,6.3,4.9,12.1,11.9,12.1c2.5,0,4.4-0.3,5.7-1.7c0.7-0.7,1.1-2.2,1.2-2.8c0.1-0.4,0.1-0.5,0.3-0.5c0.2,0,0.2,0.2,0.2,0.5
			c0,0.2-0.4,3.1-0.7,4.2c-0.2,0.6-0.3,0.7-0.9,1c-1.3,0.5-3.8,0.8-5.9,0.8C284.9,463.2,281.5,461.9,278.9,459.6z"/>
		<path class="st0" d="M312.5,438.6c0.4-1.1,0.5-1.3,0.7-1.3s0.3,0.2,0.7,1.2c0.5,1.3,5.7,14.9,7.7,19.9c1.2,2.9,2.1,3.5,2.8,3.7
			c0.5,0.2,1,0.2,1.3,0.2c0.2,0,0.3,0,0.3,0.2c0,0.2-0.3,0.3-0.7,0.3c-0.5,0-2.9,0-5.2-0.1c-0.6,0-1,0-1-0.2c0-0.1,0.1-0.2,0.2-0.2
			c0.2-0.1,0.4-0.4,0.2-0.9l-3.1-8.1c-0.1-0.1-0.1-0.2-0.3-0.2h-7.1c-0.2,0-0.3,0.1-0.3,0.3l-2,5.8c-0.3,0.8-0.5,1.6-0.5,2.2
			c0,0.7,0.7,1,1.3,1h0.3c0.2,0,0.3,0.1,0.3,0.2c0,0.2-0.2,0.3-0.5,0.3c-0.8,0-2.2-0.1-2.6-0.1c-0.4,0-2.2,0.1-3.7,0.1
			c-0.4,0-0.6-0.1-0.6-0.3c0-0.1,0.1-0.2,0.3-0.2c0.2,0,0.7,0,1-0.1c1.5-0.2,2.2-1.5,2.8-3.1L312.5,438.6z M315.9,451.8
			c0.2,0,0.2-0.1,0.1-0.2l-3.1-8.9c-0.2-0.5-0.3-0.5-0.5,0l-2.9,8.9c-0.1,0.2,0,0.2,0.1,0.2H315.9z"/>
		<path class="st0" d="M333.3,447.3c0-5.1,0-6.1-0.1-7.1c-0.1-1.1-0.3-1.7-1.4-1.9c-0.3-0.1-0.8-0.1-1.1-0.1c-0.1,0-0.3-0.1-0.3-0.2
			c0-0.2,0.2-0.3,0.5-0.3c1.5,0,3.6,0.1,3.7,0.1c0.8,0,2.1-0.1,3.6-0.1c5.4,0,6.6,3.3,6.6,5c0,2.7-1.6,4.3-3.1,5.9
			c2.4,0.8,5.7,3.1,5.7,7c0,3.5-2.8,7.2-8.4,7.2c-0.4,0-1.4-0.1-2.4-0.1c-1-0.1-1.9-0.1-2-0.1c-0.1,0-0.6,0-1.3,0
			c-0.7,0-1.4,0.1-1.9,0.1c-0.4,0-0.5-0.1-0.5-0.3c0-0.1,0.1-0.2,0.3-0.2c0.3,0,0.7-0.1,1-0.1c0.7-0.1,0.8-0.9,1-1.8
			c0.2-1.4,0.2-4,0.2-7.2V447.3z M335.9,448c0,0.2,0.1,0.3,0.2,0.4c0.2,0,0.8,0.1,2,0.1c1.8,0,2.3-0.1,3-0.9c0.7-0.8,1.2-2,1.2-3.3
			c0-2.7-1.2-5.7-4.5-5.7c-0.4,0-1.1,0-1.6,0.2c-0.3,0.1-0.4,0.2-0.4,0.4V448z M335.9,451.5c0,2.5,0,6.6,0,7.1
			c0.1,1.6,0.1,2.1,1.1,2.6c0.9,0.4,2.3,0.5,2.9,0.5c1.8,0,4.7-1,4.7-4.7c0-2-0.7-4.9-3.2-6.6c-1.1-0.8-1.9-0.9-2.7-1
			c-0.4-0.1-2.1-0.1-2.6-0.1c-0.1,0-0.2,0.1-0.2,0.2V451.5z"/>
		<path class="st0" d="M360.7,453.1c0,3.2,0,5.8,0.2,7.2c0.1,1,0.3,1.7,1.3,1.8c0.5,0.1,1.2,0.1,1.5,0.1c0.2,0,0.3,0.1,0.3,0.2
			c0,0.2-0.2,0.3-0.5,0.3c-1.8,0-3.9-0.1-4.1-0.1s-2.2,0.1-3.2,0.1c-0.4,0-0.5-0.1-0.5-0.3c0-0.1,0.1-0.2,0.3-0.2
			c0.3,0,0.7-0.1,1-0.1c0.7-0.1,0.8-0.9,1-1.8c0.2-1.4,0.2-4,0.2-7.2v-5.8c0-5.1,0-6.1-0.1-7.1c-0.1-1.1-0.4-1.7-1.1-1.8
			c-0.4-0.1-0.8-0.1-1-0.1c-0.1,0-0.3-0.1-0.3-0.2c0-0.2,0.2-0.3,0.5-0.3c1.1,0,3.2,0.1,3.3,0.1s2.2-0.1,3.2-0.1
			c0.4,0,0.5,0.1,0.5,0.3c0,0.1-0.1,0.2-0.3,0.2c-0.2,0-0.4,0-0.8,0.1c-0.9,0.2-1.2,0.7-1.2,1.9c-0.1,1.1-0.1,2-0.1,7.1V453.1z"/>
		<path class="st0" d="M375.8,458.2c0.1,2.7,0.4,3.6,1.3,3.8c0.6,0.2,1.4,0.2,1.7,0.2c0.2,0,0.3,0.1,0.3,0.2c0,0.2-0.2,0.3-0.6,0.3
			c-1.9,0-3.2-0.1-3.5-0.1s-1.7,0.1-3.2,0.1c-0.3,0-0.5,0-0.5-0.3c0-0.1,0.1-0.2,0.3-0.2c0.3,0,0.9,0,1.4-0.2c0.8-0.2,1-1.2,1-4.2
			l0-18.9c0-1.3,0.1-1.7,0.4-1.7s0.8,0.7,1.2,1.1c0.5,0.6,5.4,5.9,10.5,11.3c3.3,3.5,6.9,7.5,7.9,8.6l-0.4-16.8
			c0-2.1-0.3-2.9-1.3-3.1c-0.6-0.1-1.4-0.2-1.6-0.2c-0.2,0-0.3-0.1-0.3-0.2c0-0.2,0.3-0.2,0.7-0.2c1.5,0,3.1,0.1,3.4,0.1
			s1.5-0.1,2.8-0.1c0.4,0,0.6,0,0.6,0.2c0,0.1-0.1,0.2-0.4,0.2c-0.2,0-0.4,0-0.8,0.1c-1.1,0.2-1.2,1-1.2,2.9l-0.1,19.3
			c0,2.2-0.1,2.3-0.3,2.3c-0.3,0-0.7-0.4-2.4-2.1c-0.4-0.3-5.1-5.2-8.6-8.9c-3.8-4.1-7.6-8.3-8.6-9.5L375.8,458.2z"/>
		<path class="st0" d="M421.9,447.3c0-5.1,0-6.1-0.1-7.1c-0.1-1.1-0.3-1.7-1.4-1.9c-0.3-0.1-0.8-0.1-1.1-0.1c-0.1,0-0.3-0.1-0.3-0.2
			c0-0.2,0.2-0.3,0.5-0.3c1.5,0,3.6,0.1,3.7,0.1c0.8,0,2.1-0.1,3.6-0.1c5.4,0,6.6,3.3,6.6,5c0,2.7-1.6,4.3-3.1,5.9
			c2.4,0.8,5.7,3.1,5.7,7c0,3.5-2.8,7.2-8.4,7.2c-0.4,0-1.4-0.1-2.4-0.1c-1-0.1-1.9-0.1-2-0.1c-0.1,0-0.6,0-1.3,0
			c-0.7,0-1.4,0.1-1.9,0.1c-0.4,0-0.5-0.1-0.5-0.3c0-0.1,0.1-0.2,0.3-0.2c0.3,0,0.7-0.1,1-0.1c0.7-0.1,0.8-0.9,1-1.8
			c0.2-1.4,0.2-4,0.2-7.2V447.3z M424.5,448c0,0.2,0.1,0.3,0.2,0.4c0.2,0,0.8,0.1,2,0.1c1.8,0,2.3-0.1,3-0.9s1.2-2,1.2-3.3
			c0-2.7-1.2-5.7-4.5-5.7c-0.4,0-1.1,0-1.6,0.2c-0.3,0.1-0.4,0.2-0.4,0.4V448z M424.5,451.5c0,2.5,0,6.6,0,7.1
			c0.1,1.6,0.1,2.1,1.1,2.6c0.9,0.4,2.3,0.5,2.9,0.5c1.8,0,4.7-1,4.7-4.7c0-2-0.7-4.9-3.2-6.6c-1.1-0.8-1.9-0.9-2.7-1
			c-0.4-0.1-2.1-0.1-2.6-0.1c-0.1,0-0.2,0.1-0.2,0.2V451.5z"/>
		<path class="st0" d="M446.5,447.3c0-5.1,0-6.1-0.1-7.1c-0.1-1.1-0.3-1.7-1.4-1.9c-0.3-0.1-0.8-0.1-1.1-0.1c-0.1,0-0.3-0.1-0.3-0.2
			c0-0.2,0.2-0.3,0.5-0.3c1.5,0,3.6,0.1,3.7,0.1c0.4,0,2.9-0.1,3.9-0.1c2.1,0,4.3,0.2,6,1.5c0.8,0.6,2.3,2.2,2.3,4.5
			c0,2.4-1,4.9-4,7.6c2.7,3.5,4.9,6.4,6.9,8.4c1.8,1.9,3.2,2.2,4,2.4c0.6,0.1,1.1,0.1,1.3,0.1c0.2,0,0.3,0.1,0.3,0.2
			c0,0.2-0.2,0.3-0.8,0.3h-2.3c-1.8,0-2.7-0.2-3.5-0.6c-1.4-0.8-2.6-2.4-4.5-4.9c-1.4-1.8-2.9-4-3.6-4.9c-0.1-0.1-0.2-0.2-0.4-0.2
			l-4.1-0.1c-0.2,0-0.2,0.1-0.2,0.3v0.8c0,3.2,0,5.8,0.2,7.2c0.1,1,0.3,1.7,1.3,1.8c0.5,0.1,1.2,0.1,1.5,0.1c0.2,0,0.3,0.1,0.3,0.2
			c0,0.2-0.2,0.3-0.5,0.3c-1.8,0-3.9-0.1-4.1-0.1c0,0-2.1,0.1-3.1,0.1c-0.4,0-0.5-0.1-0.5-0.3c0-0.1,0.1-0.2,0.3-0.2
			c0.3,0,0.7-0.1,1-0.1c0.7-0.1,0.8-0.9,1-1.8c0.2-1.4,0.2-4,0.2-7.2V447.3z M449.2,450.2c0,0.2,0.1,0.3,0.2,0.4
			c0.5,0.3,2,0.5,3.5,0.5c0.8,0,1.7-0.1,2.5-0.6c1.2-0.8,2-2.6,2-5.1c0-4.1-2.2-6.6-5.7-6.6c-1,0-1.9,0.1-2.2,0.2
			c-0.2,0.1-0.3,0.2-0.3,0.4V450.2z"/>
		<path class="st0" d="M478.8,438.6c0.4-1.1,0.5-1.3,0.7-1.3c0.2,0,0.3,0.2,0.7,1.2c0.5,1.3,5.7,14.9,7.7,19.9
			c1.2,2.9,2.1,3.5,2.8,3.7c0.5,0.2,1,0.2,1.3,0.2c0.2,0,0.3,0,0.3,0.2c0,0.2-0.3,0.3-0.7,0.3c-0.5,0-2.9,0-5.2-0.1
			c-0.6,0-1,0-1-0.2c0-0.1,0.1-0.2,0.2-0.2c0.2-0.1,0.4-0.4,0.2-0.9l-3.1-8.1c-0.1-0.1-0.1-0.2-0.3-0.2h-7.1c-0.2,0-0.3,0.1-0.3,0.3
			l-2,5.8c-0.3,0.8-0.5,1.6-0.5,2.2c0,0.7,0.7,1,1.3,1h0.3c0.2,0,0.3,0.1,0.3,0.2c0,0.2-0.2,0.3-0.5,0.3c-0.8,0-2.2-0.1-2.6-0.1
			s-2.2,0.1-3.7,0.1c-0.4,0-0.6-0.1-0.6-0.3c0-0.1,0.1-0.2,0.3-0.2c0.2,0,0.7,0,1-0.1c1.5-0.2,2.2-1.5,2.8-3.1L478.8,438.6z
			 M482.2,451.8c0.2,0,0.2-0.1,0.1-0.2l-3.1-8.9c-0.2-0.5-0.3-0.5-0.5,0l-2.9,8.9c-0.1,0.2,0,0.2,0.1,0.2H482.2z"/>
		<path class="st0" d="M500.5,458.2c0.1,2.7,0.4,3.6,1.3,3.8c0.6,0.2,1.4,0.2,1.7,0.2c0.2,0,0.3,0.1,0.3,0.2c0,0.2-0.2,0.3-0.6,0.3
			c-1.9,0-3.2-0.1-3.5-0.1s-1.7,0.1-3.2,0.1c-0.3,0-0.5,0-0.5-0.3c0-0.1,0.1-0.2,0.3-0.2c0.3,0,0.9,0,1.4-0.2c0.8-0.2,1-1.2,1-4.2
			l0-18.9c0-1.3,0.1-1.7,0.4-1.7s0.8,0.7,1.2,1.1c0.5,0.6,5.4,5.9,10.5,11.3c3.3,3.5,6.9,7.5,7.9,8.6l-0.4-16.8
			c0-2.1-0.3-2.9-1.3-3.1c-0.6-0.1-1.4-0.2-1.6-0.2c-0.2,0-0.3-0.1-0.3-0.2c0-0.2,0.3-0.2,0.7-0.2c1.5,0,3.1,0.1,3.4,0.1
			s1.5-0.1,2.8-0.1c0.4,0,0.6,0,0.6,0.2c0,0.1-0.1,0.2-0.4,0.2c-0.2,0-0.4,0-0.8,0.1c-1.1,0.2-1.2,1-1.2,2.9l-0.1,19.3
			c0,2.2-0.1,2.3-0.3,2.3c-0.3,0-0.7-0.4-2.4-2.1c-0.4-0.3-5.1-5.2-8.6-8.9c-3.8-4.1-7.6-8.3-8.6-9.5L500.5,458.2z"/>
		<path class="st0" d="M533.1,459.6c-3.2-2.9-4-6.6-4-9.8c0-2.2,0.8-6.1,3.7-9c2-2,5-3.5,10.1-3.5c1.3,0,3.2,0.1,4.8,0.4
			c1.3,0.2,2.3,0.4,3.4,0.5c0.4,0,0.4,0.2,0.4,0.4c0,0.3-0.1,0.7-0.2,1.8c-0.1,1.1-0.1,2.9-0.1,3.4s-0.1,0.7-0.3,0.7
			c-0.2,0-0.3-0.2-0.3-0.7c0-1.3-0.5-2.6-1.4-3.4c-1.2-1-3.7-1.9-6.6-1.9c-4.4,0-6.4,1.3-7.6,2.4c-2.4,2.3-3,5.2-3,8.6
			c0,6.3,4.9,12.1,11.9,12.1c2.5,0,4.4-0.3,5.7-1.7c0.7-0.7,1.1-2.2,1.2-2.8c0.1-0.4,0.1-0.5,0.3-0.5c0.2,0,0.2,0.2,0.2,0.5
			c0,0.2-0.4,3.1-0.7,4.2c-0.2,0.6-0.3,0.7-0.9,1c-1.3,0.5-3.8,0.8-5.9,0.8C539,463.2,535.7,461.9,533.1,459.6z"/>
		<path class="st0" d="M581.8,453.1c0,3.2,0,5.8,0.2,7.2c0.1,1,0.3,1.7,1.3,1.8c0.5,0.1,1.2,0.1,1.5,0.1c0.2,0,0.3,0.1,0.3,0.2
			c0,0.2-0.2,0.3-0.5,0.3c-1.8,0-3.9-0.1-4.1-0.1c-0.2,0-2.2,0.1-3.2,0.1c-0.4,0-0.5-0.1-0.5-0.3c0-0.1,0.1-0.2,0.3-0.2
			c0.3,0,0.7-0.1,1-0.1c0.7-0.1,0.8-0.9,1-1.8c0.2-1.4,0.2-4,0.2-7.2v-3.5c0-0.1-0.1-0.2-0.2-0.2h-14c-0.1,0-0.2,0-0.2,0.2v3.5
			c0,3.2,0,5.8,0.2,7.2c0.1,1,0.3,1.7,1.3,1.8c0.5,0.1,1.2,0.1,1.5,0.1c0.2,0,0.3,0.1,0.3,0.2c0,0.2-0.2,0.3-0.5,0.3
			c-1.8,0-3.9-0.1-4.1-0.1c-0.2,0-2.2,0.1-3.2,0.1c-0.4,0-0.5-0.1-0.5-0.3c0-0.1,0.1-0.2,0.3-0.2c0.3,0,0.7-0.1,1-0.1
			c0.7-0.1,0.8-0.9,1-1.8c0.2-1.4,0.2-4,0.2-7.2v-5.8c0-5.1,0-6.1-0.1-7.1c-0.1-1.1-0.3-1.7-1.4-1.9c-0.3-0.1-0.8-0.1-1.1-0.1
			c-0.1,0-0.3-0.1-0.3-0.2c0-0.2,0.2-0.3,0.5-0.3c1.5,0,3.6,0.1,3.7,0.1c0.2,0,2.2-0.1,3.2-0.1c0.4,0,0.5,0.1,0.5,0.3
			c0,0.1-0.1,0.2-0.3,0.2c-0.2,0-0.4,0-0.8,0.1c-0.9,0.2-1.2,0.7-1.2,1.9c-0.1,1.1-0.1,2-0.1,7.1v0.7c0,0.2,0.1,0.2,0.2,0.2h14
			c0.1,0,0.2,0,0.2-0.2v-0.7c0-5.1,0-6.1-0.1-7.1c-0.1-1.1-0.3-1.7-1.4-1.9c-0.3-0.1-0.8-0.1-1.1-0.1c-0.1,0-0.3-0.1-0.3-0.2
			c0-0.2,0.2-0.3,0.5-0.3c1.5,0,3.6,0.1,3.7,0.1c0.2,0,2.2-0.1,3.2-0.1c0.4,0,0.5,0.1,0.5,0.3c0,0.1-0.1,0.2-0.3,0.2
			c-0.2,0-0.4,0-0.8,0.1c-0.9,0.2-1.2,0.7-1.2,1.9c-0.1,1.1-0.1,2-0.1,7.1V453.1z"/>
	</g>
	<g>
		<g>
			<path class="st1" d="M186.4,386.3c0,7.3,0,13.3,0.4,16.5c0.2,2.2,0.7,3.9,3,4.2c1.1,0.2,2.7,0.3,3.4,0.3c0.5,0,0.6,0.2,0.6,0.5
				c0,0.4-0.4,0.6-1.2,0.6c-4.2,0-9-0.2-9.3-0.2s-5.2,0.2-7.4,0.2c-0.8,0-1.2-0.2-1.2-0.6c0-0.2,0.2-0.5,0.6-0.5
				c0.7,0,1.6-0.2,2.3-0.3c1.5-0.3,1.9-2,2.2-4.2c0.4-3.2,0.4-9.2,0.4-16.5v-32.1l-11.2,0.2c-4.7,0.1-6.5,0.6-7.8,2.4
				c-0.8,1.3-1.1,1.8-1.3,2.4c-0.2,0.6-0.5,0.8-0.8,0.8c-0.2,0-0.4-0.2-0.4-0.7c0-0.8,1.5-7.3,1.7-7.9c0.2-0.5,0.5-1.4,0.8-1.4
				c0.5,0,1.3,0.8,3.3,0.9c2.2,0.2,5.1,0.4,6,0.4h28.5c2.4,0,4.2-0.2,5.4-0.4c1.1-0.2,1.8-0.4,2.1-0.4c0.4,0,0.4,0.5,0.4,0.9
				c0,2.3-0.2,7.5-0.2,8.4c0,0.7-0.2,1-0.5,1c-0.4,0-0.5-0.2-0.6-1.3l-0.1-0.8c-0.2-2.3-2.1-4-9.3-4.2l-9.6-0.2V386.3z"/>
			<path class="st1" d="M259.5,389.6c0,6.2,0.1,11.3,0.4,14c0.2,1.9,0.4,3.1,2.4,3.4c0.9,0.2,2.4,0.3,3,0.3c0.5,0,0.6,0.3,0.6,0.5
				c0,0.3-0.4,0.5-1.1,0.5c-3.6,0-7.9-0.2-8.3-0.2c-0.3,0-4.6,0.2-6.6,0.2c-0.8,0-1.1-0.2-1.1-0.5c0-0.2,0.2-0.5,0.5-0.5
				c0.6,0,1.4-0.2,2-0.3c1.4-0.3,1.6-1.6,1.8-3.5c0.3-2.7,0.3-7.5,0.3-13.8v-6.5c0-0.3-0.2-0.4-0.4-0.4h-27.9
				c-0.2,0-0.4,0.1-0.4,0.4v6.5c0,6.2,0,11.2,0.3,13.8c0.2,1.9,0.5,3.1,2.4,3.4c1,0.2,2.4,0.3,3,0.3c0.4,0,0.5,0.3,0.5,0.5
				c0,0.3-0.3,0.5-1.1,0.5c-3.7,0-8-0.2-8.3-0.2c-0.4,0-4.6,0.2-6.7,0.2c-0.7,0-1.1-0.2-1.1-0.5c0-0.2,0.2-0.5,0.5-0.5
				c0.6,0,1.4-0.2,2.1-0.3c1.3-0.3,1.4-1.5,1.7-3.4c0.4-2.7,0.4-7.8,0.4-14v-11.4c0-10,0-11.9-0.2-13.9c-0.2-2.2-0.5-3.3-2.7-3.6
				c-0.5-0.1-1.7-0.2-2.3-0.2c-0.2,0-0.5-0.3-0.5-0.5c0-0.4,0.3-0.5,1.1-0.5c3,0,7.3,0.2,7.7,0.2c0.3,0,4.6-0.2,6.6-0.2
				c0.8,0,1.1,0.2,1.1,0.5c0,0.2-0.3,0.5-0.5,0.5c-0.5,0-0.9,0-1.7,0.2c-1.8,0.4-2.2,1.3-2.4,3.6c-0.1,2.1-0.1,4-0.1,14.1v1.4
				c0,0.4,0.2,0.4,0.4,0.4h27.9c0.2,0,0.4,0,0.4-0.4v-1.4c0-10-0.1-12-0.2-14.1c-0.2-2.2-0.5-3.3-2.7-3.6c-0.5-0.1-1.7-0.2-2.3-0.2
				c-0.3,0-0.5-0.3-0.5-0.5c0-0.4,0.3-0.5,1.1-0.5c3,0,7.3,0.2,7.6,0.2c0.4,0,4.6-0.2,6.6-0.2c0.8,0,1.1,0.2,1.1,0.5
				c0,0.2-0.3,0.5-0.6,0.5c-0.5,0-0.8,0-1.7,0.2c-1.7,0.4-2.1,1.3-2.3,3.6c-0.2,2.1-0.2,3.9-0.2,13.9V389.6z"/>
			<path class="st1" d="M277.8,378.2c0-10,0-11.9-0.2-13.9c-0.2-2.2-0.5-3.3-2.7-3.6c-0.5-0.1-1.7-0.2-2.3-0.2
				c-0.2,0-0.5-0.3-0.5-0.5c0-0.4,0.3-0.5,1.1-0.5c3,0,7.4,0.2,7.8,0.2c0.5,0,14.4,0.1,16,0c1.3-0.1,2.5-0.3,3-0.4
				c0.3-0.1,0.6-0.3,0.9-0.3c0.2,0,0.3,0.3,0.3,0.6c0,0.5-0.4,1.2-0.5,3c-0.1,0.6-0.2,3.5-0.4,4.3c-0.1,0.3-0.3,0.7-0.6,0.7
				c-0.4,0-0.5-0.3-0.5-0.8c0-0.5-0.1-1.5-0.4-2.3c-0.5-1.1-1.1-1.5-4.8-2c-1.1-0.2-8.9-0.2-9.7-0.2c-0.3,0-0.4,0.2-0.4,0.7v17.6
				c0,0.5,0,0.7,0.4,0.7c0.8,0,9.7,0,11.2-0.2c1.6-0.2,2.6-0.2,3.3-0.9c0.5-0.5,0.8-0.8,1-0.8s0.4,0.2,0.4,0.5s-0.4,1.4-0.5,3.6
				c-0.2,1.3-0.3,3.7-0.3,4.2c0,0.5-0.2,1.2-0.6,1.2c-0.3,0-0.5-0.2-0.5-0.6c0-0.6,0-1.3-0.3-2.1c-0.2-0.9-0.8-1.7-3.4-2
				c-1.8-0.2-9-0.3-10.1-0.3c-0.4,0-0.5,0.2-0.5,0.5v5.4c0,2.2-0.1,9.7,0,11c0.2,4.3,1.4,5.2,8,5.2c1.7,0,4.9,0,6.7-0.7
				c1.7-0.8,2.7-1.9,3-4.5c0.2-0.8,0.3-1,0.7-1s0.5,0.5,0.5,1c0,0.5-0.5,4.9-0.9,6.2c-0.5,1.7-1.1,1.7-3.7,1.7
				c-5,0-8.9-0.2-11.6-0.2c-2.8-0.2-4.6-0.2-5.5-0.2c-0.2,0-1.4,0-2.9,0.1c-1.3,0.1-2.8,0.2-3.9,0.2c-0.7,0-1.1-0.2-1.1-0.5
				c0-0.2,0.2-0.5,0.5-0.5c0.6,0,1.4-0.2,2.1-0.3c1.3-0.2,1.4-1.5,1.7-3.4c0.4-2.7,0.4-7.8,0.4-14V378.2z"/>
			<path class="st1" d="M364.1,399.1c4.4-10.2,14.6-36.7,16.3-42.2c0.4-1.1,0.7-2.2,0.7-2.9c0-0.6-0.2-1.4-1-1.7
				c-0.9-0.3-2.1-0.3-2.9-0.3c-0.5,0-0.8-0.1-0.8-0.5c0-0.5,0.5-0.6,1.7-0.6c3,0,6.5,0.2,7.4,0.2c0.5,0,3.7-0.2,5.9-0.2
				c0.8,0,1.3,0.2,1.3,0.5c0,0.4-0.3,0.5-0.9,0.5c-0.5,0-2.2,0-3.6,0.9c-1,0.7-2.1,2-4.2,7.1c-0.8,2.1-4.6,11.2-8.5,20.6
				c-4.6,11.1-8.1,19.3-9.8,23c-2.1,4.6-2.4,5.8-3.2,5.8c-0.9,0-1.3-1.1-2.7-4.7l-18.6-46.6c-1.7-4.3-2.8-5.1-5.5-5.9
				c-1.1-0.3-2.4-0.3-2.9-0.3s-0.6-0.2-0.6-0.5c0-0.5,0.8-0.5,2-0.5c3.6,0,8,0.2,8.9,0.2c0.8,0,4.2-0.2,7.1-0.2
				c1.4,0,2.1,0.2,2.1,0.5c0,0.4-0.2,0.5-0.8,0.5c-0.8,0-2.2,0.1-2.9,0.4c-0.8,0.4-1,1-1,1.5c0,1,0.9,3.3,2.1,6.3L364.1,399.1z"/>
			<path class="st1" d="M408.6,389.6c0,6.2,0,11.3,0.3,14c0.2,1.9,0.5,3.1,2.4,3.4c1,0.2,2.4,0.3,3,0.3c0.4,0,0.5,0.3,0.5,0.5
				c0,0.3-0.3,0.5-1.1,0.5c-3.7,0-8.1-0.2-8.4-0.2c-0.4,0-4.6,0.2-6.6,0.2c-0.7,0-1.1-0.2-1.1-0.5c0-0.2,0.2-0.5,0.5-0.5
				c0.6,0,1.4-0.2,2.1-0.3c1.3-0.3,1.5-1.5,1.7-3.4c0.3-2.7,0.4-7.8,0.4-14v-11.4c0-10,0-11.9-0.2-13.9c-0.2-2.2-0.7-3.2-2.1-3.5
				c-0.8-0.2-1.6-0.2-2.1-0.2c-0.3,0-0.5-0.3-0.5-0.5c0-0.4,0.3-0.5,1.1-0.5c2.2,0,6.4,0.2,6.8,0.2c0.3,0,4.6-0.2,6.7-0.2
				c0.8,0,1.1,0.2,1.1,0.5c0,0.2-0.3,0.5-0.5,0.5c-0.5,0-0.9,0-1.7,0.2c-1.8,0.4-2.2,1.3-2.4,3.6c-0.1,2.1-0.1,3.9-0.1,13.9V389.6z"
				/>
			<path class="st1" d="M432.9,389.7c0,9.5,0.2,13.4,1.4,14.5c1.1,1.1,3.6,1.5,8.9,1.5c3.5,0,6.5-0.1,8.1-2c0.8-1,1.4-2.4,1.6-3.6
				c0.1-0.5,0.3-0.8,0.7-0.8c0.3,0,0.5,0.3,0.5,1c0,0.7-0.5,4.6-1,6.5c-0.5,1.5-0.7,1.7-4.3,1.7c-4.8,0-8.5-0.1-11.6-0.2
				c-3-0.1-5.3-0.2-7.3-0.2c-0.3,0-1.4,0-2.7,0.1c-1.4,0.1-2.8,0.2-3.9,0.2c-0.7,0-1.1-0.2-1.1-0.5c0-0.2,0.2-0.5,0.5-0.5
				c0.6,0,1.4-0.2,2.1-0.3c1.3-0.3,1.4-1.5,1.7-3.4c0.4-2.7,0.4-7.8,0.4-14v-11.4c0-10,0-11.9-0.2-13.9c-0.2-2.2-0.5-3.3-2.7-3.6
				c-0.5-0.1-1.7-0.2-2.3-0.2c-0.2,0-0.5-0.3-0.5-0.5c0-0.4,0.3-0.5,1.1-0.5c3,0,7.2,0.2,7.6,0.2c0.3,0,5.3-0.2,7.4-0.2
				c0.7,0,1.1,0.2,1.1,0.5c0,0.2-0.3,0.5-0.5,0.5c-0.5,0-1.4,0.1-2.2,0.2c-2,0.4-2.4,1.4-2.5,3.6c-0.1,2.1-0.1,3.9-0.1,13.9V389.7z"
				/>
			<path class="st1" d="M471.2,389.7c0,9.5,0.2,13.4,1.4,14.5c1.1,1.1,3.6,1.5,8.9,1.5c3.5,0,6.5-0.1,8.1-2c0.8-1,1.4-2.4,1.6-3.6
				c0.1-0.5,0.3-0.8,0.7-0.8c0.3,0,0.5,0.3,0.5,1c0,0.7-0.5,4.6-1,6.5c-0.5,1.5-0.7,1.7-4.3,1.7c-4.8,0-8.5-0.1-11.6-0.2
				c-3-0.1-5.3-0.2-7.3-0.2c-0.3,0-1.4,0-2.7,0.1c-1.4,0.1-2.8,0.2-3.9,0.2c-0.7,0-1.1-0.2-1.1-0.5c0-0.2,0.2-0.5,0.5-0.5
				c0.6,0,1.4-0.2,2.1-0.3c1.3-0.3,1.4-1.5,1.7-3.4c0.4-2.7,0.4-7.8,0.4-14v-11.4c0-10,0-11.9-0.2-13.9c-0.2-2.2-0.5-3.3-2.7-3.6
				c-0.5-0.1-1.7-0.2-2.3-0.2c-0.2,0-0.5-0.3-0.5-0.5c0-0.4,0.3-0.5,1.1-0.5c3,0,7.2,0.2,7.6,0.2c0.3,0,5.3-0.2,7.4-0.2
				c0.7,0,1.1,0.2,1.1,0.5c0,0.2-0.3,0.5-0.5,0.5c-0.5,0-1.4,0.1-2.2,0.2c-2,0.4-2.4,1.4-2.5,3.6c-0.1,2.1-0.1,3.9-0.1,13.9V389.7z"
				/>
			<path class="st1" d="M524.4,360.8c0.8-2.1,1.1-2.5,1.6-2.5c0.7,0,0.9,0.9,1.6,2.4c1.2,2.7,11.9,29.4,16,39.2
				c2.4,5.8,4.3,6.6,5.7,7.1c1,0.3,2,0.4,2.7,0.4c0.4,0,0.8,0.2,0.8,0.5s-0.8,0.5-1.5,0.5c-1,0-5.9,0-10.6-0.2
				c-1.3-0.1-2.4-0.1-2.4-0.5c0-0.3,0.2-0.3,0.5-0.5c0.4-0.2,1.1-0.7,0.6-1.7l-6-14.8c-0.2-0.3-0.2-0.4-0.6-0.4h-15.4
				c-0.3,0-0.5,0.2-0.7,0.5l-3.8,10.3c-0.6,1.6-1,3.2-1,4.3c0,1.3,1.1,1.7,2.3,1.7h0.6c0.5,0,0.7,0.2,0.7,0.5c0,0.4-0.4,0.5-1,0.5
				c-1.6,0-5.2-0.2-6-0.2c-0.7,0-4,0.2-6.8,0.2c-0.8,0-1.3-0.2-1.3-0.5c0-0.3,0.3-0.5,0.6-0.5c0.5,0,1.4-0.1,2-0.2
				c3-0.4,4.3-2.7,5.6-5.9L524.4,360.8z M531.8,387.7c0.3,0,0.3-0.2,0.2-0.5l-6.6-17.7c-0.4-1-0.8-1-1.1,0l-6.2,17.7
				c-0.1,0.3,0,0.5,0.2,0.5H531.8z"/>
			<path class="st1" d="M590.8,391.9c0-5.2-0.2-6-2.9-6.5c-0.5-0.1-1.7-0.2-2.3-0.2c-0.2,0-0.5-0.3-0.5-0.5c0-0.5,0.3-0.5,1.1-0.5
				c3,0,7.5,0.2,7.9,0.2c0.3,0,4.5-0.2,6.5-0.2c0.8,0,1.1,0.1,1.1,0.5c0,0.2-0.3,0.5-0.5,0.5c-0.5,0-0.9,0-1.7,0.2
				c-1.8,0.3-2.4,1.3-2.5,3.6c-0.1,2.1-0.1,4-0.1,6.7v7.2c0,3-0.1,3-0.9,3.5c-4.3,2.2-10.3,2.9-14.2,2.9c-5.1,0-14.6-0.6-22-6.9
				c-4.1-3.4-8-10.3-8-18.4c0-10.3,5.2-17.6,11.2-21.2c6-3.6,12.7-4.1,17.8-4.1c4.3,0,9,0.8,10.3,1.1c1.4,0.3,3.7,0.7,5.4,0.7
				c0.7,0,0.8,0.3,0.8,0.6c0,0.9-0.4,2.7-0.4,9.1c0,1.1-0.3,1.4-0.8,1.4c-0.4,0-0.5-0.4-0.5-1c-0.1-0.8-0.5-2.7-1.5-4.3
				c-1.7-2.4-6.8-5-15.4-5c-4,0-8.9,0.3-14,4.2c-3.9,3-6.6,8.7-6.6,16.3c0,9.1,4.7,15.7,7.1,17.9c5.3,4.9,10.9,6.8,17.1,6.8
				c2.4,0,5.5-0.2,7.2-1.2c0.8-0.5,1.4-0.8,1.4-2V391.9z"/>
			<path class="st1" d="M611.7,378.2c0-10,0-11.9-0.2-13.9c-0.2-2.2-0.5-3.3-2.7-3.6c-0.5-0.1-1.7-0.2-2.3-0.2
				c-0.2,0-0.5-0.3-0.5-0.5c0-0.4,0.3-0.5,1.1-0.5c3,0,7.4,0.2,7.8,0.2c0.5,0,14.4,0.1,16,0c1.3-0.1,2.5-0.3,3-0.4
				c0.3-0.1,0.6-0.3,0.9-0.3c0.2,0,0.3,0.3,0.3,0.6c0,0.5-0.4,1.2-0.5,3c-0.1,0.6-0.2,3.5-0.4,4.3c-0.1,0.3-0.3,0.7-0.6,0.7
				c-0.4,0-0.5-0.3-0.5-0.8c0-0.5-0.1-1.5-0.4-2.3c-0.5-1.1-1.1-1.5-4.8-2c-1.1-0.2-8.9-0.2-9.7-0.2c-0.3,0-0.4,0.2-0.4,0.7v17.6
				c0,0.5,0,0.7,0.4,0.7c0.8,0,9.7,0,11.2-0.2c1.6-0.2,2.6-0.2,3.3-0.9c0.5-0.5,0.8-0.8,1-0.8c0.2,0,0.4,0.2,0.4,0.5
				s-0.4,1.4-0.5,3.6c-0.2,1.3-0.3,3.7-0.3,4.2c0,0.5-0.2,1.2-0.6,1.2c-0.3,0-0.5-0.2-0.5-0.6c0-0.6,0-1.3-0.3-2.1
				c-0.2-0.9-0.8-1.7-3.4-2c-1.8-0.2-9-0.3-10.1-0.3c-0.4,0-0.5,0.2-0.5,0.5v5.4c0,2.2-0.1,9.7,0,11c0.2,4.3,1.4,5.2,8,5.2
				c1.7,0,4.9,0,6.7-0.7c1.7-0.8,2.7-1.9,3-4.5c0.2-0.8,0.3-1,0.7-1s0.5,0.5,0.5,1c0,0.5-0.5,4.9-0.9,6.2c-0.5,1.7-1.1,1.7-3.7,1.7
				c-5,0-8.9-0.2-11.6-0.2c-2.8-0.2-4.6-0.2-5.5-0.2c-0.2,0-1.4,0-2.9,0.1c-1.3,0.1-2.8,0.2-3.9,0.2c-0.7,0-1.1-0.2-1.1-0.5
				c0-0.2,0.2-0.5,0.5-0.5c0.6,0,1.4-0.2,2.1-0.3c1.3-0.2,1.4-1.5,1.7-3.4c0.4-2.7,0.4-7.8,0.4-14V378.2z"/>
		</g>
	</g>
	<g>
		<path class="st1" d="M431.8,302.8c5,3.9,10.8,6.5,16.9,8.5c4,1.3,8,2.5,11.9,3.8c3.1,1.1,3.1,1.1,1.5,3.9c-1-0.3-2.1-0.5-3.2-0.8
			c-2.7-0.9-5.5-1.7-8.2-2.8c-6.5-2.4-13-5-19.4-7.5c-0.9-0.4-1.8-0.9-2.6-1.5c-3-2-5.8-2.6-9.1-1.9c-7.7,1.7-15.6,2.9-24,2.4
			c-7-0.4-13.7,0.3-20.3,1.2c-0.6,0.1-1.1,0.4-2.2,0.7c1.1,0.4,1.6,0.6,2.2,0.7c3.4,0.7,6.5,1.8,9.7,3.4c3.6,1.9,7.4,3.9,11.7,3.4
			c0.5-0.1,1.3,0.6,2.5,1.3c-3.1,1-5.8,1.2-8.5,0.4c-3.7-1.1-7.2-1.6-10.2-1c-1.5-1.2-2.5-2.4-3.7-2.9c-4.3-1.7-8.7-3.5-13.1-4.5
			c-7.5-1.8-15.1-3-22.6-4.4c-6.4-1.2-12.9-2.1-19.3-3.4c-6.3-1.2-12.6-2.8-18.8-4.3c-1.4-0.3-3.4-0.7-3.6-2.4
			c-0.2-1.9-1.7-2.4-3.3-3.2c-3-1.5-5.9-3.2-8.6-6.2c1.8,0.2,2.9,0.2,3.9,0.5c3.7,1.2,7.5,2.2,11.1,3.7c10.9,4.4,22,8,33.5,9.7
			c5.5,0.8,10.2-0.1,13.9-2.7c4.1-2.8,9.5-3.7,14.7-5.2c0.4,1.1,0.7,1.9,1,2.6c0.1,0.2-0.2,0.4-0.4,0.7c-2.2-1-3.8-0.1-5.5,0.7
			c-3,1.6-6.2,3.1-9.2,4.6c-0.7,0.3-1.3,0.8-2.3,1.5c5.8,1.2,10.7,1.8,15.6,1.2c5.3-0.6,10.8-1,16.1-1.5c1.3-0.1,2.8-0.2,3.9-0.7
			c6.5-3,13-6,16.6-11.9c2.5-3.9,6.5-6.8,11.2-8.9c1.5-0.6,3.1-1.2,4.3-2.1c4.1-2.8,9.5-3.3,14.4-4.9c1.1-0.3,2.1-0.3,2.9,1.3
			c-1.8,0.6-4.7,0.7-5.4,2c-1.6,2.9-5.6,2.6-8,4.3c-0.4,0.3-0.8,0.6-1.4,1c2.8,1,5.8-0.5,8,2.8c-1.6,0.2-2.9,0.4-4.2,0.5
			c-2.5,0.2-5.3,0.2-7.6,0.8c-3.2,0.8-7.1,1.4-9.1,3.4c-2.9,2.8-3.6,7-5.1,11.5c5.6-0.7,10.2-1.2,14.8-1.9c2.6-0.4,5.2-1,7.5-1.9
			c7-3,14.4-5.4,22.1-7.3c2.6-0.6,5.1-1.6,7.5-2.6c4.7-1.8,9.3-3.8,13.9-5.7c2-0.8,4.3-0.9,6.8-0.4c5.9,1.1,11.7,2.1,17.6,3.1
			c1.4,0.2,2.8,0.5,4.2,0.9c0.8,0.2,1.4,0.9,2.4,1.6c-4.6,1.5-9,0.3-13.1-1.1c-5.4-1.9-10-1.4-14.7-0.5c-1.4,0.2-2.8,0.6-4.2,1
			c-1.3,0.4-2.7,0.8-4,1.2c1.7,0.8,3.1,0.9,4.5,1.1c4.3,0.6,8.7,0.9,13,1.9c3,0.7,5.8,1,8.7,1c4.8,0,9.7,0.4,14.6,0.8
			c0.6,0,1.3,0.8,1.9,1.3c-0.5,0.3-1,0.7-1.6,0.9c-0.7,0.2-1.5,0.1-2.5,0.2c3.8,2.6,7.4,4.6,11.7,3.8c0.3,2.2-1.1,2.7-3,2.3
			c-3.5-0.8-7-1.7-10.3-3c-4.5-1.7-8.7-4.1-13.6-3.7c-1.5,0.1-3.3-0.7-5-1c-2.9-0.5-5.9-1.1-8.7-1.3c-7.1-0.4-13.4,1.2-19.7,2.6
			c-7.3,1.7-14.1,4-20.6,7.2C430.8,301.9,431.2,302.4,431.8,302.8z M393.5,304.1c2.9,1.4,4,1.5,7.8,0.4
			C398.9,304.4,396.5,304.3,393.5,304.1z"/>
	</g>
	<g class="st2">
		<g class="st3">
			<path class="st4" d="M527.3,315.5c-4.1-1.7-8.2-4.5-10.6-8.1c-0.9-1.3-1.1-3.1-1.5-4.6c-0.2-0.5-2.3-4.2-2.6-4.2
				c3-0.4,5.7-1.8,8.7-2.3c3.3-0.5,7.1-1,10.3,0.2c4.3,1.7,7.7,4.7,10.2,8.4c1.3,1.8,2.3,3.8,3.3,5.8c0.5,0.9,3.1,5.7,2.4,6.7
				c-0.1,0.1-5.5-0.9-6.6-0.8c-4.5,0.4-8.1,0.7-12.5-0.9C528,315.8,527.6,315.7,527.3,315.5z"/>
		</g>
		<g class="st3">
			<path class="st5" d="M447.3,265.7c-3.5-0.2-6.6,0.9-9.4,3c-0.6,0.5-7.1,5.9-7.1,6c3.5,2.7,6.5,5.3,11.3,4.9c4-0.3,8.4-1.8,12-3.9
				c1.8-1.1,6.6-3.6,7-6.1c-2.2,0.7-3.6-0.8-5.8-1.5C452.8,266.8,449.9,266,447.3,265.7z"/>
		</g>
		<g class="st3">
			<path class="st6" d="M410.4,328.5c-3.1-0.4-5.8-2.5-7.9-4.7c-1-1.1-1.6-2.1-2.2-3.4c-0.2-0.4-1.6-3.3-1.9-3.3
				c1.9,0,3.9-2.2,5.6-3.1c2.6-1.4,4.9-1.2,7.7-0.6c3.6,0.7,6.7,2.4,9.9,4.1c1.4,0.7,3.5,2.3,5.2,2.2
				C423.1,323.9,416.3,328.3,410.4,328.5z"/>
		</g>
	</g>
</g>
<g id="Layer_1">
</g>
</svg>
