<?xml version="1.0" encoding="utf-8"?>
<!-- Generator: Adobe Illustrator 23.0.3, SVG Export Plug-In . SVG Version: 6.00 Build 0)  -->
<svg version="1.1" id="Capa_1" xmlns="http://www.w3.org/2000/svg" xmlns:xlink="http://www.w3.org/1999/xlink" x="0px" y="0px"
	 viewBox="0 0 404.7 476.2" style="enable-background:new 0 0 404.7 476.2;" xml:space="preserve">
<style type="text/css">
	.st0{fill:#064925;}
</style>
<g>
	<g>
		<path class="st0" d="M399.1,364.5l5.6-119c0-22.4-18.3-40.7-40.9-40.7c-7.2,0-13.9,1.9-19.8,5.2c-2.6-19.9-19.8-35.3-40.6-35.3
			c-7.2,0-13.9,1.9-19.8,5.1c-2.7-19.9-19.8-35.3-40.6-35.3c-7,0-13.6,1.8-19.4,4.9V95.9c0-22.4-18.3-40.7-40.9-40.7
			c-22.5,0-40.7,18.3-40.7,40.7v205.4l-70.5-51.3c-18.8-14.1-45.5-12.2-62.2,4.4c-12.5,12.5-12.5,32.8,0,45.3l142.2,142.2
			c22.2,22.2,51.6,34.4,83,34.4H282c31.3,0,60.7-12.2,82.9-34.3C385.5,421.2,397.7,393.7,399.1,364.5z M282,454.9h-47.5
			c-25.6,0-49.7-10-67.9-28.1L24.4,284.5c-4.2-4.2-4.2-10.9,0-15.1c9.2-9.2,23.9-10.2,34.4-2.3l87.5,63.8c3.2,2.4,7.5,2.7,11.1,0.9
			c3.6-1.8,5.8-5.5,5.8-9.5V95.9c0-10.7,8.7-19.4,19.6-19.4c5.4,0,10.2,2.2,13.7,5.7c3.5,3.5,5.7,8.4,5.7,13.7v150.9
			c0,5.9,4.8,10.7,10.7,10.7c2.9,0,5.6-1.2,7.5-3.1c1.9-1.9,3.1-4.6,3.1-7.6v-61.6c0-10.7,8.7-19.4,19.6-19.4
			c10.7,0,19.4,8.7,19.4,19.4v61.7c0,5.9,4.8,10.7,10.7,10.7c2.9,0,5.6-1.2,7.5-3.1c1.9-1.9,3.1-4.6,3.1-7.6v-31.5
			c0-10.7,8.7-19.4,19.6-19.4c10.7,0,19.4,8.7,19.4,19.4v31.6c0,0,0,0,0,0v0c0,0,0,0,0,0c0,0,0,0,0,0l0,0c0,0,0,0,0,0
			c0.2,5.8,4.9,10.4,10.7,10.4c5.9,0,10.7-4.8,10.7-10.7v-1.3c0-5.2,2-10.1,5.7-13.7c3.7-3.7,8.5-5.7,13.9-5.7
			c10.7,0,19.4,8.7,19.4,18.9l-5.6,118.6c-1.1,23.9-11.1,46.3-28,63.3C331.7,444.9,307.6,454.9,282,454.9z"/>
	</g>
</g>
<g>
	<g>
		<path class="st0" d="M272.5,129.9c13.3-35.3,4.8-75.3-21.8-101.8c-37.4-37.4-98.3-37.4-135.8,0C88.4,54.6,79.9,94.6,93.2,129.9
			c0.6,1.5,1.4,2.7,2.4,3.8c2.9,2.9,7.3,4,11.3,2.4c5.5-2.1,8.3-8.3,6.2-13.8c-10.4-27.5-3.7-58.6,16.9-79.2
			c29.1-29.1,76.5-29.1,105.6,0c20.6,20.6,27.3,51.7,16.9,79.2c-2.1,5.5,0.7,11.7,6.2,13.7C264.2,138.2,270.4,135.4,272.5,129.9z"/>
	</g>
</g>
</svg>
