<svg xmlns="http://www.w3.org/2000/svg" xmlns:xlink="http://www.w3.org/1999/xlink" width="331" height="70" viewBox="0 0 331 70">
  <defs>
    <clipPath id="clip-B3_31">
      <rect width="331" height="70"/>
    </clipPath>
  </defs>
  <g id="B3_31" data-name="B3 – 31" clip-path="url(#clip-B3_31)">
    <g id="Group_42" data-name="Group 42" transform="translate(-84.585 -342.604)">
      <path id="Path_246" data-name="Path 246" d="M99.913,359.633a11.543,11.543,0,1,0,11.542,11.543,11.549,11.549,0,0,0-11.542-11.543Zm15.2,24.6c0,14.507-9.588,17.029-15.517,17.029-5.866,0-11.48-2.27-14.444-6.117l2.964-2.776a13.713,13.713,0,0,0,11.48,5.488c11.543,0,11.732-10.092,11.732-13.373v-4.036H111.2a12.582,12.582,0,0,1-11.038,5.677c-8.578,0-15.58-6.749-15.58-14.949s7-14.949,15.58-14.949A12.582,12.582,0,0,1,111.2,361.9h.126v-4.92h3.785v27.249Z" transform="translate(0 0.107)" fill="#202944"/>
      <path id="Path_247" data-name="Path 247" d="M147.225,369.1c0-5.172-4.479-9.462-10.092-9.462-8.263,0-10.6,7.948-10.6,9.462Zm2.9,11.543c-2.964,4.415-7.443,6.244-12.615,6.244-8.893,0-14.759-6.371-14.759-15.39,0-8.7,6.055-15.265,14.57-15.265,8.957,0,13.687,6.875,13.687,13.625V372.5H126.536c0,3.154,2.208,10.975,11.039,10.975a11.7,11.7,0,0,0,9.776-5.172l2.775,2.334Z" transform="translate(0 0.068)" fill="#202944"/>
      <path id="Path_248" data-name="Path 248" d="M173.154,383.476c7.128,0,11.542-5.362,11.542-11.921s-4.414-11.922-11.542-11.922-11.543,5.362-11.543,11.922,4.416,11.921,11.543,11.921Zm0-27.249c8.956,0,15.327,6.434,15.327,15.328s-6.371,15.327-15.327,15.327-15.327-6.434-15.327-15.327,6.37-15.328,15.327-15.328Z" transform="translate(0.041 0.068)" fill="#202944"/>
      <path id="Path_249" data-name="Path 249" d="M196.939,365.184c0-2.145-.315-6.686-.315-8.2h3.783c.064,2.145.127,4.542.253,5.11,1.893-3.407,4.92-5.867,9.272-5.867a8.852,8.852,0,0,1,2.208.316l-.441,3.721a4.679,4.679,0,0,0-1.451-.252c-6.561,0-9.524,4.541-9.524,10.218v15.895h-3.785V365.184Z" transform="translate(0.06 0.066)" fill="#202944"/>
      <path id="Path_250" data-name="Path 250" d="M230.887,359.633a11.543,11.543,0,1,0,11.543,11.543,11.548,11.548,0,0,0-11.543-11.543Zm15.2,24.6c0,14.507-9.587,17.029-15.516,17.029-5.866,0-11.48-2.27-14.443-6.117l2.963-2.776a13.711,13.711,0,0,0,11.48,5.488c11.543,0,11.732-10.092,11.732-13.373v-4.036h-.126a12.583,12.583,0,0,1-11.039,5.677c-8.577,0-15.579-6.749-15.579-14.949s7-14.949,15.579-14.949a12.583,12.583,0,0,1,11.039,5.677h.126v-4.92h3.784v27.249Z" transform="translate(0.074 0.107)" fill="#202944"/>
      <path id="Path_251" data-name="Path 251" d="M256,356.984h3.784v29.141H256V356.984Zm1.891-14.38a2.838,2.838,0,1,1-2.838,2.838,2.827,2.827,0,0,1,2.838-2.838Z" transform="translate(0.089)" fill="#202944"/>
      <path id="Path_252" data-name="Path 252" d="M285.581,371.492c-6.309,0-12.616,1.576-12.616,6.559,0,3.6,3.47,5.425,6.622,5.425,8.074,0,10.156-5.172,10.156-10.029v-1.955Zm7.568,2.4a89.274,89.274,0,0,0,.568,12.237h-3.534a28.329,28.329,0,0,1-.376-4.73h-.127c-2.145,3.72-5.3,5.487-10.219,5.487-4.982,0-10.28-2.46-10.28-8.641,0-8.894,10.406-9.777,16.147-9.777h4.415V366.7c0-5.047-3.532-7.065-8.2-7.065a13.161,13.161,0,0,0-8.9,3.281l-2.207-2.587a17,17,0,0,1,11.1-4.1c7.065,0,11.6,3.154,11.6,10.534v7.127Z" transform="translate(0.102 0.068)" fill="#202944"/>
      <path id="Path_253" data-name="Path 253" d="M319.649,365.184c0-2.145-.316-6.686-.316-8.2h3.785c.063,2.145.125,4.542.252,5.11,1.891-3.407,4.919-5.867,9.272-5.867a8.836,8.836,0,0,1,2.206.316l-.44,3.721a4.678,4.678,0,0,0-1.45-.252c-6.561,0-9.525,4.541-9.525,10.218v15.895h-3.784V365.184Z" transform="translate(0.127 0.066)" fill="#202944"/>
      <path id="Path_254" data-name="Path 254" d="M353.218,383.476c7.128,0,11.543-5.362,11.543-11.921s-4.415-11.922-11.543-11.922-11.543,5.362-11.543,11.922,4.415,11.921,11.543,11.921Zm0-27.249c8.957,0,15.327,6.434,15.327,15.328s-6.37,15.327-15.327,15.327-15.327-6.434-15.327-15.327,6.37-15.328,15.327-15.328Z" transform="translate(0.17 0.068)" fill="#202944"/>
      <path id="Path_255" data-name="Path 255" d="M372.9,356.984h4.163l7.064,24.41h.126l8.137-24.41h3.595l8.64,24.41h.126l6.875-24.41h3.784l-8.578,29.14h-3.91l-8.7-23.842H394.1l-8.137,23.842h-3.91l-9.146-29.14Z" transform="translate(0.17 0.069)" fill="#202944"/>
      <path id="Path_256" data-name="Path 256" d="M257.935,404.5l-1.356,3.467h2.728l-1.372-3.467Zm-.946-3.248h2.033l4.856,11.16H261.1l-.962-2.364h-4.334l-.93,2.364h-2.71l4.822-11.16Z" transform="translate(0.089 0.194)" fill="#202944"/>
      <path id="Path_257" data-name="Path 257" d="M267.687,403.426H264.5V401.25h8.829v2.176h-3.185v8.984h-2.458v-8.984Z" transform="translate(0.095 0.194)" fill="#202944"/>
      <path id="Path_258" data-name="Path 258" d="M282.024,401.25h2.68l1.78,7.156h.032l2.332-7.156h2.286l2.318,7.346h.031l1.875-7.346h2.49l-3.262,11.16H292.4l-2.459-7.724H289.9l-2.459,7.724h-2.112l-3.31-11.16Z" transform="translate(0.107 0.194)" fill="#202944"/>
      <path id="Path_259" data-name="Path 259" d="M305.159,404.5l-1.355,3.467h2.726l-1.371-3.467Zm-.945-3.248h2.032l4.855,11.16h-2.774l-.961-2.364h-4.335l-.931,2.364h-2.71l4.824-11.16Z" transform="translate(0.114 0.194)" fill="#202944"/>
      <path id="Path_260" data-name="Path 260" d="M314.292,401.25h2.459v8.89h4.554v2.27h-7.014V401.25Z" transform="translate(0.121 0.194)" fill="#202944"/>
      <path id="Path_261" data-name="Path 261" d="M325.35,403.426h-3.185V401.25h8.829v2.176h-3.186v8.984H325.35v-8.984Z" transform="translate(0.125 0.194)" fill="#202944"/>
      <path id="Path_262" data-name="Path 262" d="M334.31,401.25h7.58v2.27h-5.123v2.08h4.84v2.27h-4.84v2.269h5.406v2.27H334.31V401.25Z" transform="translate(0.131 0.194)" fill="#202944"/>
      <path id="Path_263" data-name="Path 263" d="M348.581,405.868h1.45c.9,0,2.064-.031,2.064-1.245,0-1.119-1.009-1.292-1.906-1.292h-1.608v2.537Zm-2.46-4.618h4.319c2.286,0,4.209.789,4.209,3.389a2.873,2.873,0,0,1-2.412,3.058l2.837,4.713h-2.948l-2.332-4.461h-1.213v4.461h-2.46V401.25Z" transform="translate(0.138 0.194)" fill="#202944"/>
      <path id="Path_264" data-name="Path 264" d="M367.411,405.868h1.451c.9,0,2.064-.031,2.064-1.245,0-1.119-1.009-1.292-1.907-1.292h-1.608v2.537Zm-2.458-4.618h4.319c2.285,0,4.207.789,4.207,3.389a2.873,2.873,0,0,1-2.41,3.058l2.836,4.713h-2.948l-2.332-4.461h-1.214v4.461h-2.458V401.25Z" transform="translate(0.17 0.194)" fill="#202944"/>
      <path id="Path_265" data-name="Path 265" d="M377.238,401.25h7.581v2.27H379.7v2.08h4.839v2.27H379.7v2.269H385.1v2.27h-7.864V401.25Z" transform="translate(0.17 0.194)" fill="#202944"/>
      <path id="Path_266" data-name="Path 266" d="M389.146,401.25h7.58v2.27H391.6v2.08h4.84v2.27H391.6v2.269h5.406v2.27h-7.864V401.25Z" transform="translate(0.17 0.194)" fill="#202944"/>
      <path id="Path_267" data-name="Path 267" d="M403.417,410.139h1.277c2.285,0,4-.865,4-3.4,0-2.19-1.749-3.215-3.83-3.215h-1.451v6.619Zm-2.459-8.889h3.688c3.6,0,6.606,1.53,6.606,5.612,0,3.609-2.948,5.548-6.275,5.548h-4.019V401.25Z" transform="translate(0.17 0.194)" fill="#202944"/>
      <path id="Path_268" data-name="Path 268" d="M173.084,412.41H161.833V401.159h11.251V412.41Z" transform="translate(0.041 0.194)" fill="#202944"/>
      <path id="Path_269" data-name="Path 269" d="M187.213,412.41H175.962V401.159h11.251V412.41Z" transform="translate(0.049 0.194)" fill="#eb8e22"/>
      <path id="Path_270" data-name="Path 270" d="M201.342,412.41H190.091V401.159h11.251V412.41Z" transform="translate(0.056 0.194)" fill="#68c7d0"/>
    </g>
  </g>
</svg>
