<svg xmlns="http://www.w3.org/2000/svg" xmlns:xlink="http://www.w3.org/1999/xlink" width="210" height="109" viewBox="0 0 210 109">
  <defs>
    <clipPath id="clip-B3_9">
      <rect width="210" height="109"/>
    </clipPath>
  </defs>
  <g id="B3_9" data-name="B3 – 9" clip-path="url(#clip-B3_9)">
    <g id="Group_13" data-name="Group 13" transform="translate(-145.918 -355.799)">
      <g id="Group_9" data-name="Group 9">
        <g id="Group_7" data-name="Group 7">
          <g id="Group_6" data-name="Group 6">
            <g id="Group_4" data-name="Group 4">
              <path id="Path_1" data-name="Path 1" d="M173.171,430.028c0,9.828-5.994,14.079-12.337,14.079h-2.37v-4.948h.976c4.879,0,7.737-4.043,7.737-8.643V400.4H161.81c-5.925,0-10.456,4.67-10.456,9.828,0,3.834,2.231,7.458,7.04,9.131v4.6h-1.951c-6.2-1.952-10.525-7.249-10.525-13.732,0-7.318,6.273-14.777,17.077-14.777h4.182v-.836c0-5.018,3.206-9.9,10.873-9.9h1.115v4.949h-1.184c-2.928,0-4.81,2.161-4.81,5.228v.557h8.783c9.9,0,14.846,6.9,14.846,13.592a12.912,12.912,0,0,1-9.34,12.477l7.6,17.774c3.276,7.6,4.252,8.434,9.48,8.434h.627v4.949h-.975c-9.41,0-11.641-4.322-15.614-13.592L181.4,422.361h-8.225Zm9.271-29.624h-9.271v17.008h9.271c4.948,0,8.5-3.346,8.5-8.365A8.275,8.275,0,0,0,182.442,400.4Z" fill="#fff"/>
              <path id="Path_2" data-name="Path 2" d="M227.328,439.786a16.158,16.158,0,0,1-11.361,4.321c-11.153,0-16.38-8.433-16.38-16.867,0-8.574,5.437-17.217,15.195-17.217,8.086,0,12.2,5.228,12.2,11.153a14.59,14.59,0,0,1-2.161,7.528H205.094c.418,8.085,6.691,10.943,11.361,10.943a14.778,14.778,0,0,0,8.643-3.206Zm-5.506-18.541a6.585,6.585,0,0,0-6.831-6.831c-4.949,0-8.852,4.252-9.689,9.829h15.962A9.1,9.1,0,0,0,221.822,421.245Z" fill="#fff"/>
              <path id="Path_3" data-name="Path 3" d="M251.793,442.992l-6.691,1.115c-5.019,0-9.48-1.6-9.48-8.921V415.042H229.07v-4.461l6.552-.558,1.046-9.619h4.391v10.177h9.479v4.461h-9.479v18.54c0,4.74,1.951,6.065,5.576,6.065l5.158-.767Z" fill="#fff"/>
              <path id="Path_4" data-name="Path 4" d="M274.236,414.972a16.292,16.292,0,0,0-2.509-.279,6.327,6.327,0,0,0-4.6,2.231l-5.786,5.994v20.353H255.9V410.3l4.74-.279.7,7.458,4.113-4.321c1.673-1.812,3.694-3.137,6.064-3.137a12.112,12.112,0,0,1,2.718.349Z" fill="#fff"/>
              <path id="Path_5" data-name="Path 5" d="M301.559,439.786a16.159,16.159,0,0,1-11.362,4.321c-11.152,0-16.38-8.433-16.38-16.867,0-8.574,5.437-17.217,15.2-17.217,8.086,0,12.2,5.228,12.2,11.153a14.59,14.59,0,0,1-2.161,7.528H279.324c.418,8.085,6.691,10.943,11.361,10.943a14.773,14.773,0,0,0,8.643-3.206Zm-5.507-18.541a6.584,6.584,0,0,0-6.83-6.831c-4.949,0-8.853,4.252-9.689,9.829h15.962A9.126,9.126,0,0,0,296.052,421.245Z" fill="#fff"/>
              <path id="Path_6" data-name="Path 6" d="M333.76,443.48l-3.764.627c-2.3,0-5.158-1.045-5.716-4.042l-.139-.767h-.07c-3.206,3.276-6.761,4.809-10.037,4.809-5.506,0-9.479-3.275-9.479-8.852,0-6.83,6.9-11.431,19.1-11.779V420.9c0-4.67-2.509-6.483-5.855-6.483-2.648,0-6.273,1.743-8.364,2.858l-1.882-3.9a23.912,23.912,0,0,1,11.152-3.346c5.576,0,10.386,3.207,10.386,11.013v12.129c0,5.018.139,6.761,2.37,6.761l2.3-.279Zm-10.107-16.24c-9.061.279-13.8,3.206-13.8,7.946,0,3.345,2.858,4.461,4.949,4.461,3.276,0,6.761-2.649,8.852-4.461Z" fill="#fff"/>
              <path id="Path_7" data-name="Path 7" d="M355.228,442.992l-6.692,1.115c-5.018,0-9.479-1.6-9.479-8.921V415.042h-6.552v-4.461l6.552-.558L340.1,400.4h4.391v10.177h9.479v4.461h-9.479v18.54c0,4.74,1.951,6.065,5.576,6.065l5.158-.767Z" fill="#fff"/>
            </g>
            <g id="Group_5" data-name="Group 5">
              <path id="Path_8" data-name="Path 8" d="M222.847,464.416H220.5l-.827-2.1h-4.258l-.827,2.1h-2.343l4.135-10.507h2.328Zm-3.92-4-.8-2.159-.566-1.654h-.031l-.567,1.654-.8,2.159Z" fill="#fff"/>
              <path id="Path_9" data-name="Path 9" d="M232.617,455.839h-2.971v8.577H227.1v-8.577h-2.971v-1.93h8.484Z" fill="#fff"/>
              <path id="Path_10" data-name="Path 10" d="M257.427,453.909l-3.921,10.507h-1.761l-1.915-5.973-.673-2.191h-.016l-.674,2.191-1.93,5.973h-1.746l-3.92-10.507h2.618l1.685,5.545.475,1.746h.031l2.159-7.291h2.619l2.16,7.291h.03l.475-1.746,1.685-5.545Z" fill="#fff"/>
              <path id="Path_11" data-name="Path 11" d="M268.069,464.416h-7.122V453.909h6.847v1.93h-4.3v2.389H267v1.93H263.49v2.328h4.579Z" fill="#fff"/>
              <path id="Path_12" data-name="Path 12" d="M275.527,464.6a7.653,7.653,0,0,1-3.829-.95v-2.1a8.351,8.351,0,0,0,3.707,1.118c.842,0,1.47-.291,1.47-1.011,0-.75-1.2-1.21-1.762-1.562-1.424-.751-3.2-1.654-3.2-3.523,0-1.348,1.318-2.818,3.6-2.818a6.392,6.392,0,0,1,3.078.766v2.037a6.831,6.831,0,0,0-2.986-.873c-.874,0-1.149.383-1.149.888,0,.888,1.945,1.608,2.864,2.083,1.072.551,2.206,1.271,2.206,2.895C279.525,463.665,277.487,464.6,275.527,464.6Z" fill="#fff"/>
              <path id="Path_13" data-name="Path 13" d="M291.224,455.839h-2.971v8.577h-2.542v-8.577H282.74v-1.93h8.484Z" fill="#fff"/>
              <path id="Path_14" data-name="Path 14" d="M301.745,455.839h-4.3v2.543h3.508v1.929h-3.508v4.1H294.9V453.909h6.846Z" fill="#fff"/>
              <path id="Path_15" data-name="Path 15" d="M308.054,464.416h-2.543V453.909h2.543Z" fill="#fff"/>
              <path id="Path_16" data-name="Path 16" d="M319.555,464.416h-7.122V453.909h6.846v1.93h-4.3v2.389h3.508v1.93h-3.508v2.328h4.58Z" fill="#fff"/>
              <path id="Path_17" data-name="Path 17" d="M330.55,464.416h-7.075V453.909h2.542v8.577h4.533Z" fill="#fff"/>
              <path id="Path_18" data-name="Path 18" d="M338.851,464.416h-4.687V453.909h4.594a5.067,5.067,0,0,1,5.193,5.284A4.969,4.969,0,0,1,338.851,464.416Zm-.628-8.577h-1.517v6.647h1.486c2.481,0,3.231-1.669,3.231-3.323S340.673,455.839,338.223,455.839Z" fill="#fff"/>
              <path id="Path_19" data-name="Path 19" d="M351.285,464.6a7.655,7.655,0,0,1-3.829-.95v-2.1a8.355,8.355,0,0,0,3.707,1.118c.842,0,1.47-.291,1.47-1.011,0-.75-1.194-1.21-1.761-1.562-1.425-.751-3.2-1.654-3.2-3.523,0-1.348,1.317-2.818,3.6-2.818a6.39,6.39,0,0,1,3.078.766v2.037a6.831,6.831,0,0,0-2.986-.873c-.873,0-1.149.383-1.149.888,0,.888,1.945,1.608,2.864,2.083,1.072.551,2.206,1.271,2.206,2.895C355.283,463.665,353.246,464.6,351.285,464.6Z" fill="#fff"/>
            </g>
          </g>
        </g>
        <g id="Group_8" data-name="Group 8">
          <path id="Path_20" data-name="Path 20" d="M209.742,387.612h-4.617v13.266H203.27V387.612h-4.616V386.08h11.088Z" fill="#fff"/>
          <path id="Path_21" data-name="Path 21" d="M219.686,400.878H218v-6.6c0-1.64-.432-2.244-1.532-2.244a3.219,3.219,0,0,0-1.963,1.057l-1.661,1.467v6.32h-1.683V384.829l1.683-.086v8.132l1.359-1.186a4.059,4.059,0,0,1,2.653-1.1,2.7,2.7,0,0,1,2.827,2.847Z" fill="#fff"/>
          <path id="Path_22" data-name="Path 22" d="M230.1,399.8a5,5,0,0,1-3.516,1.337,4.907,4.907,0,0,1-5.069-5.22c0-2.653,1.682-5.328,4.7-5.328A3.422,3.422,0,0,1,230,394.04a4.514,4.514,0,0,1-.668,2.33h-6.1a3.406,3.406,0,0,0,3.516,3.387,4.572,4.572,0,0,0,2.675-.992Zm-1.7-5.738a2.038,2.038,0,0,0-2.114-2.114,3.26,3.26,0,0,0-3,3.042h4.939A2.821,2.821,0,0,0,228.4,394.062Z" fill="#fff"/>
        </g>
      </g>
      <g id="Group_12" data-name="Group 12">
        <g id="Group_11" data-name="Group 11">
          <g id="Group_10" data-name="Group 10">
            <path id="Path_23" data-name="Path 23" d="M153.925,363.781a.462.462,0,0,1,.342.145l.976,1.027a4.036,4.036,0,0,1-1.606,1.263,5.6,5.6,0,0,1-2.283.426,5.422,5.422,0,0,1-2.166-.411,4.691,4.691,0,0,1-1.625-1.136,5.006,5.006,0,0,1-1.023-1.719,6.341,6.341,0,0,1-.356-2.158,5.693,5.693,0,0,1,.407-2.182,5.089,5.089,0,0,1,1.14-1.715,5.154,5.154,0,0,1,1.751-1.121,6.108,6.108,0,0,1,2.251-.4,5.765,5.765,0,0,1,1.125.1,5.538,5.538,0,0,1,.987.292,4.685,4.685,0,0,1,.844.444,4.019,4.019,0,0,1,.685.572l-.83,1.114a1.081,1.081,0,0,1-.19.186.494.494,0,0,1-.305.084.546.546,0,0,1-.248-.059,2.783,2.783,0,0,1-.248-.142l-.287-.182a2.3,2.3,0,0,0-.372-.182,3.078,3.078,0,0,0-.5-.142,3.426,3.426,0,0,0-.674-.058,3.074,3.074,0,0,0-1.223.237,2.674,2.674,0,0,0-.951.677,3.148,3.148,0,0,0-.619,1.067,4.185,4.185,0,0,0-.222,1.406,4.375,4.375,0,0,0,.222,1.449,3.2,3.2,0,0,0,.6,1.067,2.581,2.581,0,0,0,.892.659,2.675,2.675,0,0,0,1.092.225,4.987,4.987,0,0,0,.612-.033,2.511,2.511,0,0,0,.514-.113,2.356,2.356,0,0,0,.451-.207,3.14,3.14,0,0,0,.433-.316.878.878,0,0,1,.189-.121A.507.507,0,0,1,153.925,363.781Z" fill="#fff"/>
            <path id="Path_24" data-name="Path 24" d="M159.5,362.6v3.925h-2.462V355.915h3.452a7.076,7.076,0,0,1,1.963.237,3.709,3.709,0,0,1,1.326.659,2.493,2.493,0,0,1,.746,1,3.314,3.314,0,0,1,.233,1.253,3.381,3.381,0,0,1-.138.976,2.977,2.977,0,0,1-.412.848,3.167,3.167,0,0,1-.67.7,3.569,3.569,0,0,1-.914.5,2.42,2.42,0,0,1,.463.3,1.84,1.84,0,0,1,.375.445l2.257,3.692h-2.228a.946.946,0,0,1-.889-.466l-1.762-3.08a.754.754,0,0,0-.273-.292.922.922,0,0,0-.441-.087Zm0-1.7h.99a2.536,2.536,0,0,0,.856-.127,1.542,1.542,0,0,0,.579-.354,1.345,1.345,0,0,0,.328-.528,2.019,2.019,0,0,0,.1-.651,1.365,1.365,0,0,0-.456-1.093,2.118,2.118,0,0,0-1.409-.393h-.99Z" fill="#fff"/>
            <path id="Path_25" data-name="Path 25" d="M177.557,366.526h-1.908a.884.884,0,0,1-.528-.149.778.778,0,0,1-.288-.383l-.626-1.85h-4.034l-.627,1.85a.828.828,0,0,1-.284.369.819.819,0,0,1-.517.163h-1.923l4.108-10.611h2.52Zm-6.817-4.056h2.9l-.976-2.906-.222-.652c-.085-.25-.169-.52-.251-.812-.078.3-.158.571-.241.823s-.16.471-.233.656Z" fill="#fff"/>
            <path id="Path_26" data-name="Path 26" d="M185.626,355.915v1.894h-4.355V360.5H184.9v1.9h-3.627v4.129h-2.476V355.915Z" fill="#fff"/>
            <path id="Path_27" data-name="Path 27" d="M195.283,355.915v1.952H192.3v8.659h-2.461v-8.659H186.85v-1.952Z" fill="#fff"/>
            <path id="Path_28" data-name="Path 28" d="M202.1,362.25c.09.2.177.4.259.613.082-.214.17-.421.262-.623s.187-.4.284-.587l2.724-5.366a.881.881,0,0,1,.149-.215.494.494,0,0,1,.172-.113.592.592,0,0,1,.214-.036h2.159v10.6h-2.17v-6.1q0-.444.044-.961l-2.811,5.455a.94.94,0,0,1-.353.386.981.981,0,0,1-.506.131h-.335a.976.976,0,0,1-.506-.131.935.935,0,0,1-.354-.386l-2.826-5.462c.02.169.034.339.044.506s.015.322.015.462v6.1h-2.17v-10.6h2.159a.6.6,0,0,1,.215.036.5.5,0,0,1,.171.113.881.881,0,0,1,.149.215l2.731,5.388C201.912,361.859,202.006,362.051,202.1,362.25Z" fill="#fff"/>
            <path id="Path_29" data-name="Path 29" d="M220.029,366.526h-1.908a.886.886,0,0,1-.528-.149.778.778,0,0,1-.288-.383l-.626-1.85h-4.034l-.627,1.85a.84.84,0,0,1-.8.532h-1.922l4.107-10.611h2.52Zm-6.816-4.056h2.9l-.976-2.906-.222-.652c-.085-.25-.169-.52-.251-.812-.078.3-.158.571-.24.823s-.161.471-.234.656Z" fill="#fff"/>
            <path id="Path_30" data-name="Path 30" d="M223.729,362.6v3.925h-2.462V355.915h3.453a7.073,7.073,0,0,1,1.962.237,3.709,3.709,0,0,1,1.326.659,2.493,2.493,0,0,1,.746,1,3.314,3.314,0,0,1,.233,1.253,3.381,3.381,0,0,1-.138.976,2.977,2.977,0,0,1-.412.848,3.19,3.19,0,0,1-.67.7,3.569,3.569,0,0,1-.914.5,2.389,2.389,0,0,1,.463.3,1.863,1.863,0,0,1,.375.445l2.258,3.692H227.72a.946.946,0,0,1-.889-.466l-1.762-3.08a.747.747,0,0,0-.273-.292.922.922,0,0,0-.441-.087Zm0-1.7h.991a2.534,2.534,0,0,0,.855-.127,1.542,1.542,0,0,0,.579-.354,1.345,1.345,0,0,0,.328-.528,2.019,2.019,0,0,0,.1-.651,1.368,1.368,0,0,0-.455-1.093,2.122,2.122,0,0,0-1.409-.393h-.991Z" fill="#fff"/>
            <path id="Path_31" data-name="Path 31" d="M233.794,360.212h.393a.9.9,0,0,0,.787-.342l2.388-3.466a1.02,1.02,0,0,1,.448-.387,1.638,1.638,0,0,1,.615-.1h2.142l-3.147,4.29a2.1,2.1,0,0,1-.349.386,2.2,2.2,0,0,1-.372.255,1.769,1.769,0,0,1,.925.757l3.2,4.923h-2.2a1.858,1.858,0,0,1-.36-.029.906.906,0,0,1-.259-.087.75.75,0,0,1-.189-.142,1.327,1.327,0,0,1-.153-.193l-2.4-3.693a.718.718,0,0,0-.331-.287,1.431,1.431,0,0,0-.543-.084h-.6v4.515h-2.462V355.915h2.462Z" fill="#fff"/>
            <path id="Path_32" data-name="Path 32" d="M255.729,366.526h-2.477V362.04h-4.311v4.486h-2.476V355.915h2.476v4.436h4.311v-4.436h2.477Z" fill="#fff"/>
            <path id="Path_33" data-name="Path 33" d="M268.327,361.218a5.712,5.712,0,0,1-.4,2.14,5.046,5.046,0,0,1-2.855,2.869,6.337,6.337,0,0,1-4.511,0,5.055,5.055,0,0,1-2.865-2.869,5.958,5.958,0,0,1,0-4.282,5.078,5.078,0,0,1,1.121-1.719,5.177,5.177,0,0,1,1.744-1.143,5.93,5.93,0,0,1,2.258-.415,5.86,5.86,0,0,1,2.253.419,5.2,5.2,0,0,1,1.738,1.146,5.143,5.143,0,0,1,1.117,1.719A5.7,5.7,0,0,1,268.327,361.218Zm-2.519,0a4.585,4.585,0,0,0-.205-1.417,3.01,3.01,0,0,0-.585-1.067,2.529,2.529,0,0,0-.937-.67,3.2,3.2,0,0,0-1.259-.233,3.255,3.255,0,0,0-1.271.233,2.516,2.516,0,0,0-.94.67,3,3,0,0,0-.586,1.067,5.045,5.045,0,0,0,0,2.84,2.983,2.983,0,0,0,.586,1.066,2.487,2.487,0,0,0,.94.667,3.311,3.311,0,0,0,1.271.23,3.259,3.259,0,0,0,1.259-.23,2.5,2.5,0,0,0,.937-.667,3,3,0,0,0,.585-1.066A4.611,4.611,0,0,0,265.808,361.218Z" fill="#fff"/>
            <path id="Path_34" data-name="Path 34" d="M275.592,362.25q.133.3.258.613c.082-.214.17-.421.262-.623s.187-.4.284-.587l2.724-5.366a.881.881,0,0,1,.149-.215.5.5,0,0,1,.171-.113.6.6,0,0,1,.215-.036h2.16v10.6h-2.171v-6.1q0-.444.044-.961l-2.812,5.455a.92.92,0,0,1-.353.386.981.981,0,0,1-.506.131h-.335a.981.981,0,0,1-.506-.131.933.933,0,0,1-.353-.386L272,359.455c.019.169.033.339.043.506s.014.322.014.462v6.1h-2.17v-10.6h2.159a.6.6,0,0,1,.215.036.513.513,0,0,1,.172.113.94.94,0,0,1,.149.215l2.731,5.388C275.408,361.859,275.5,362.051,275.592,362.25Z" fill="#fff"/>
            <path id="Path_35" data-name="Path 35" d="M290.772,355.915v1.894h-4.355v2.476h3.335v1.821h-3.335v2.527h4.355v1.893h-6.831V355.915Z" fill="#fff"/>
            <path id="Path_36" data-name="Path 36" d="M298.754,358.071a.919.919,0,0,1-.23.262.505.505,0,0,1-.309.088.764.764,0,0,1-.361-.106l-.437-.237a3.584,3.584,0,0,0-.557-.236,2.2,2.2,0,0,0-.713-.106,1.54,1.54,0,0,0-1.031.3,1,1,0,0,0-.339.8.734.734,0,0,0,.2.531,1.758,1.758,0,0,0,.536.364,5.681,5.681,0,0,0,.757.281q.426.127.871.283a8.238,8.238,0,0,1,.87.368,2.935,2.935,0,0,1,.757.539,2.515,2.515,0,0,1,.536.8,2.849,2.849,0,0,1,.2,1.132,3.693,3.693,0,0,1-.255,1.377,3.234,3.234,0,0,1-.739,1.118,3.462,3.462,0,0,1-1.194.75,4.494,4.494,0,0,1-1.613.272,5.172,5.172,0,0,1-1.009-.1,5.94,5.94,0,0,1-.994-.287,5.635,5.635,0,0,1-.9-.44,3.832,3.832,0,0,1-.736-.569l.729-1.15a.581.581,0,0,1,.225-.211.636.636,0,0,1,.314-.081.832.832,0,0,1,.44.139c.149.092.315.194.5.3a3.861,3.861,0,0,0,.644.306,2.4,2.4,0,0,0,.859.139,1.634,1.634,0,0,0,1.042-.3,1.124,1.124,0,0,0,.371-.936.883.883,0,0,0-.2-.6,1.569,1.569,0,0,0-.535-.386,4.876,4.876,0,0,0-.753-.269c-.283-.079-.571-.165-.867-.259a6.415,6.415,0,0,1-.867-.35,2.714,2.714,0,0,1-.753-.546,2.554,2.554,0,0,1-.536-.845,3.353,3.353,0,0,1-.2-1.249,2.967,2.967,0,0,1,.24-1.165,3.021,3.021,0,0,1,.707-1.012,3.469,3.469,0,0,1,1.143-.71,4.209,4.209,0,0,1,1.551-.266,5.7,5.7,0,0,1,.951.077,4.854,4.854,0,0,1,.877.225,4.749,4.749,0,0,1,.776.357,3.588,3.588,0,0,1,.644.469Z" fill="#fff"/>
          </g>
        </g>
      </g>
    </g>
  </g>
</svg>
