<svg xmlns="http://www.w3.org/2000/svg" viewBox="0 0 251.99 63.3"><defs><style>.cls-1{fill:#231f20;}.cls-2{fill:none;}</style></defs><g id="Layer_2" data-name="Layer 2"><g id="_Layer_" data-name="&lt;Layer&gt;"><path class="cls-1" d="M22.9,24.6a.75.75,0,0,1,.26,0,.7.7,0,0,1,.25.17l1.46,1.54a6.1,6.1,0,0,1-2.4,1.89,8.47,8.47,0,0,1-3.41.63,8.1,8.1,0,0,1-3.24-.61,7.05,7.05,0,0,1-2.43-1.7A7.6,7.6,0,0,1,11.86,24a9.64,9.64,0,0,1-.53-3.23,8.45,8.45,0,0,1,.61-3.26,7.54,7.54,0,0,1,1.7-2.57,7.79,7.79,0,0,1,2.62-1.67,9.67,9.67,0,0,1,5-.45,9,9,0,0,1,1.47.44,7.28,7.28,0,0,1,1.27.67,6.06,6.06,0,0,1,1,.85l-1.24,1.67a1.79,1.79,0,0,1-.28.27.72.72,0,0,1-.46.13.78.78,0,0,1-.37-.09l-.37-.21-.43-.27a2.92,2.92,0,0,0-.56-.27,4,4,0,0,0-.75-.22,5.91,5.91,0,0,0-1-.08,4.59,4.59,0,0,0-1.83.35,4.1,4.1,0,0,0-1.42,1,4.73,4.73,0,0,0-.92,1.6,6.25,6.25,0,0,0-.34,2.1,6.59,6.59,0,0,0,.34,2.17,4.72,4.72,0,0,0,.9,1.59,3.93,3.93,0,0,0,1.34,1,4,4,0,0,0,1.63.33,8.47,8.47,0,0,0,.91,0,4.35,4.35,0,0,0,.77-.17,4.17,4.17,0,0,0,.68-.31,4.45,4.45,0,0,0,.64-.48,1.75,1.75,0,0,1,.29-.18A.82.82,0,0,1,22.9,24.6Z"/><path class="cls-1" d="M31.23,22.84v5.87H27.55V12.84h5.16a10.45,10.45,0,0,1,2.94.36,5.4,5.4,0,0,1,2,1,3.75,3.75,0,0,1,1.12,1.49A5.21,5.21,0,0,1,38.89,19a4.23,4.23,0,0,1-.62,1.26,4.47,4.47,0,0,1-1,1,5.26,5.26,0,0,1-1.36.76,3.71,3.71,0,0,1,.69.45,2.85,2.85,0,0,1,.56.67l3.37,5.52H37.2a1.41,1.41,0,0,1-1.33-.7l-2.63-4.6a1.17,1.17,0,0,0-.41-.44,1.36,1.36,0,0,0-.66-.13Zm0-2.54h1.48A3.68,3.68,0,0,0,34,20.11a2.21,2.21,0,0,0,.87-.53,2,2,0,0,0,.49-.79,3,3,0,0,0,.15-1,2,2,0,0,0-.68-1.63,3.11,3.11,0,0,0-2.11-.59H31.23Z"/><path class="cls-1" d="M58.24,28.71H55.39a1.39,1.39,0,0,1-.79-.22,1.13,1.13,0,0,1-.43-.58l-.94-2.76h-6l-.94,2.76a1.15,1.15,0,0,1-.42.55,1.2,1.2,0,0,1-.78.25H42.19l6.14-15.87H52.1ZM48.05,22.64h4.33L50.92,18.3c-.09-.28-.2-.6-.33-1s-.25-.78-.37-1.21q-.18.66-.36,1.23c-.13.38-.24.7-.35,1Z"/><path class="cls-1" d="M70.31,12.84v2.83H63.8v4h5.42v2.84H63.8v6.18H60.09V12.84Z"/><path class="cls-1" d="M84.75,12.84v2.92H80.28v13H76.6V15.76H72.14V12.84Z"/><path class="cls-1" d="M94.93,22.31c.14.3.27.61.39.92.12-.32.26-.63.39-.93s.28-.6.43-.88l4.07-8a1.26,1.26,0,0,1,.22-.32.69.69,0,0,1,.26-.17.79.79,0,0,1,.32-.06h3.23V28.71H101V19.58c0-.44,0-.92.07-1.44l-4.2,8.16a1.36,1.36,0,0,1-.53.58,1.49,1.49,0,0,1-.76.2h-.5a1.49,1.49,0,0,1-.76-.2,1.34,1.34,0,0,1-.52-.58l-4.23-8.17c0,.26,0,.51.07.76s0,.48,0,.69v9.13H86.4V12.85h3.23a.79.79,0,0,1,.32.06.62.62,0,0,1,.26.17,1.26,1.26,0,0,1,.22.32l4.09,8C94.66,21.73,94.8,22,94.93,22.31Z"/><path class="cls-1" d="M121.75,28.71H118.9a1.39,1.39,0,0,1-.79-.22,1.13,1.13,0,0,1-.43-.58l-.94-2.76h-6l-.94,2.76a1.15,1.15,0,0,1-.42.55,1.2,1.2,0,0,1-.78.25H105.7l6.14-15.87h3.77Zm-10.19-6.07h4.33l-1.46-4.34c-.09-.28-.2-.6-.33-1s-.25-.78-.37-1.21q-.18.66-.36,1.23c-.13.38-.24.7-.35,1Z"/><path class="cls-1" d="M127.28,22.84v5.87H123.6V12.84h5.17a10.42,10.42,0,0,1,2.93.36,5.4,5.4,0,0,1,2,1,3.75,3.75,0,0,1,1.12,1.49,5.21,5.21,0,0,1,.14,3.34,4.23,4.23,0,0,1-.62,1.26,4.47,4.47,0,0,1-1,1,5.26,5.26,0,0,1-1.36.76,3.71,3.71,0,0,1,.69.45,2.85,2.85,0,0,1,.56.67l3.37,5.52h-3.33a1.41,1.41,0,0,1-1.33-.7l-2.63-4.6a1.17,1.17,0,0,0-.41-.44,1.36,1.36,0,0,0-.66-.13Zm0-2.54h1.49a3.65,3.65,0,0,0,1.27-.19,2.21,2.21,0,0,0,.87-.53,2,2,0,0,0,.49-.79,3,3,0,0,0,.15-1,2,2,0,0,0-.68-1.63,3.1,3.1,0,0,0-2.1-.59h-1.49Z"/><path class="cls-1" d="M142.33,19.27h.59a1.34,1.34,0,0,0,1.18-.51l3.57-5.19a1.65,1.65,0,0,1,.67-.58,2.5,2.5,0,0,1,.92-.15h3.2l-4.7,6.42a2.93,2.93,0,0,1-.53.57,2.71,2.71,0,0,1-.55.38,3.51,3.51,0,0,1,.76.42,3,3,0,0,1,.62.72l4.79,7.36h-3.29a2.58,2.58,0,0,1-.53-.05,1.12,1.12,0,0,1-.39-.13.83.83,0,0,1-.28-.21,1.73,1.73,0,0,1-.23-.29l-3.6-5.52a1.12,1.12,0,0,0-.49-.43,2.23,2.23,0,0,0-.81-.12h-.9v6.75h-3.68V12.84h3.68Z"/><path class="cls-1" d="M175.13,28.71h-3.7V22H165v6.71h-3.7V12.84H165v6.63h6.45V12.84h3.7Z"/><path class="cls-1" d="M194,20.77a8.63,8.63,0,0,1-.59,3.2,7.76,7.76,0,0,1-1.67,2.58,7.64,7.64,0,0,1-2.6,1.71,9.5,9.5,0,0,1-6.75,0,7.64,7.64,0,0,1-2.6-1.71A7.48,7.48,0,0,1,178.08,24a9,9,0,0,1,0-6.4A7.35,7.35,0,0,1,179.76,15a7.64,7.64,0,0,1,2.6-1.71,8.81,8.81,0,0,1,3.38-.62,8.91,8.91,0,0,1,3.37.62,7.82,7.82,0,0,1,2.6,1.72,7.71,7.71,0,0,1,1.67,2.57A8.61,8.61,0,0,1,194,20.77Zm-3.76,0a7,7,0,0,0-.31-2.12,4.37,4.37,0,0,0-.88-1.59,3.76,3.76,0,0,0-1.4-1,4.85,4.85,0,0,0-1.88-.34,5,5,0,0,0-1.9.34,3.76,3.76,0,0,0-1.4,1,4.23,4.23,0,0,0-.88,1.59,7.44,7.44,0,0,0,0,4.25,4.23,4.23,0,0,0,.88,1.59,3.63,3.63,0,0,0,1.4,1,5,5,0,0,0,1.9.34,4.85,4.85,0,0,0,1.88-.34,3.63,3.63,0,0,0,1.4-1,4.37,4.37,0,0,0,.88-1.59A7,7,0,0,0,190.21,20.77Z"/><path class="cls-1" d="M204.84,22.31c.13.3.26.61.38.92q.19-.48.39-.93c.14-.3.28-.6.43-.88l4.07-8a1.06,1.06,0,0,1,.23-.32.59.59,0,0,1,.25-.17.79.79,0,0,1,.32-.06h3.23V28.71H210.9V19.58q0-.66.06-1.44l-4.2,8.16a1.36,1.36,0,0,1-.53.58,1.46,1.46,0,0,1-.76.2H205a1.51,1.51,0,0,1-.76-.2,1.34,1.34,0,0,1-.52-.58l-4.23-8.17c0,.26,0,.51.07.76s0,.48,0,.69v9.13H196.3V12.85h3.23a.79.79,0,0,1,.32.06.62.62,0,0,1,.26.17,1.26,1.26,0,0,1,.22.32l4.09,8Z"/><path class="cls-1" d="M227.54,12.84v2.83H221v3.71h5V22.1h-5v3.78h6.52v2.83H217.32V12.84Z"/><path class="cls-1" d="M239.47,16.06a1.4,1.4,0,0,1-.34.4.84.84,0,0,1-.47.13,1.07,1.07,0,0,1-.53-.16l-.66-.35a5.9,5.9,0,0,0-.83-.36,3.49,3.49,0,0,0-1.07-.16A2.27,2.27,0,0,0,234,16a1.49,1.49,0,0,0-.51,1.19,1.1,1.1,0,0,0,.31.79,2.75,2.75,0,0,0,.8.55,9.66,9.66,0,0,0,1.13.42c.43.12.86.26,1.3.42a12.51,12.51,0,0,1,1.31.55,4.32,4.32,0,0,1,1.13.81,3.61,3.61,0,0,1,.8,1.19,4.29,4.29,0,0,1,.3,1.69,5.39,5.39,0,0,1-.38,2.06,4.72,4.72,0,0,1-1.1,1.67,5.09,5.09,0,0,1-1.79,1.12,6.52,6.52,0,0,1-2.41.41,7.89,7.89,0,0,1-1.51-.15,8.48,8.48,0,0,1-1.49-.43,8,8,0,0,1-1.35-.66,6,6,0,0,1-1.1-.85l1.09-1.72a.93.93,0,0,1,.34-.31,1,1,0,0,1,.47-.12,1.3,1.3,0,0,1,.66.2l.75.46a6.13,6.13,0,0,0,1,.46A3.61,3.61,0,0,0,235,26a2.41,2.41,0,0,0,1.56-.44,1.67,1.67,0,0,0,.55-1.4,1.32,1.32,0,0,0-.3-.9,2.58,2.58,0,0,0-.8-.58,8.71,8.71,0,0,0-1.13-.4l-1.3-.39a8.92,8.92,0,0,1-1.29-.52,4.14,4.14,0,0,1-1.13-.82,3.63,3.63,0,0,1-.8-1.26,5.07,5.07,0,0,1-.31-1.87,4.45,4.45,0,0,1,.36-1.74,4.5,4.5,0,0,1,1.06-1.51,5.08,5.08,0,0,1,1.71-1.07,6.45,6.45,0,0,1,2.32-.39,9.39,9.39,0,0,1,1.42.11,7.61,7.61,0,0,1,1.31.34,7.71,7.71,0,0,1,1.16.53,5.38,5.38,0,0,1,1,.71Z"/><rect class="cls-1" x="11.27" width="229.39" height="1.21"/><rect class="cls-1" x="11.27" y="40.34" width="229.39" height="1.21"/><rect class="cls-2" width="251.99" height="41.55"/><path class="cls-1" d="M243.22,14a4.18,4.18,0,0,1,.16-1.17,4.41,4.41,0,0,1,.44-1.05,4.43,4.43,0,0,1,1.57-1.57,4.68,4.68,0,0,1,1.05-.45,4.45,4.45,0,0,1,1.16-.15,4.13,4.13,0,0,1,2.21.6,4.25,4.25,0,0,1,.89.69,4.19,4.19,0,0,1,.69.88,4.41,4.41,0,0,1,.44,1.05A4.59,4.59,0,0,1,252,14a4.45,4.45,0,0,1-.16,1.16,4.24,4.24,0,0,1-.44,1.05,4.19,4.19,0,0,1-.69.88,4.25,4.25,0,0,1-.89.69,4.38,4.38,0,0,1-2.21.6,4.06,4.06,0,0,1-1.16-.16,4.24,4.24,0,0,1-1.05-.44,4.43,4.43,0,0,1-1.57-1.57,4.24,4.24,0,0,1-.44-1.05A4.06,4.06,0,0,1,243.22,14Zm.6,0a3.88,3.88,0,0,0,.13,1,4.35,4.35,0,0,0,.38.92,3.66,3.66,0,0,0,.59.77,3.35,3.35,0,0,0,.76.6,3.52,3.52,0,0,0,.91.39,3.78,3.78,0,0,0,3.7-1,3.83,3.83,0,0,0,.81-1.22,3.72,3.72,0,0,0,.3-1.5,3.88,3.88,0,0,0-.14-1,3.79,3.79,0,0,0-.38-.93,3.72,3.72,0,0,0-.59-.78,3.35,3.35,0,0,0-.76-.6,3.68,3.68,0,0,0-.91-.39,3.86,3.86,0,0,0-1-.14,3.66,3.66,0,0,0-1.48.3,3.9,3.9,0,0,0-1.2.83,3.86,3.86,0,0,0-1.1,2.74Zm2.92.54v2.12h-.94V11.31h1.73a2.53,2.53,0,0,1,1.53.38,1.3,1.3,0,0,1,.5,1.1,1.48,1.48,0,0,1-.32,1,1.69,1.69,0,0,1-1,.55.65.65,0,0,1,.18.15,1.91,1.91,0,0,1,.14.21l1.36,2h-.88a.33.33,0,0,1-.3-.15l-1.2-1.81a.49.49,0,0,0-.13-.12.47.47,0,0,0-.23,0Zm0-.68h.69a1.82,1.82,0,0,0,.56-.07,1,1,0,0,0,.38-.18.72.72,0,0,0,.2-.29,1.27,1.27,0,0,0,.06-.41,1.6,1.6,0,0,0,0-.39.58.58,0,0,0-.19-.27.83.83,0,0,0-.34-.16,1.9,1.9,0,0,0-.52-.06h-.79Z"/><path class="cls-1" d="M51.43,54.25a4.46,4.46,0,0,1,.43-1.38,3.36,3.36,0,0,1,.8-1,3.5,3.5,0,0,1,1.12-.63,4.38,4.38,0,0,1,2.68,0,3,3,0,0,1,1.07.57,2.66,2.66,0,0,1,.73.95A3.05,3.05,0,0,1,58.53,54a3,3,0,0,1-.18,1.06,2.59,2.59,0,0,1-.5.83,2.92,2.92,0,0,1-.75.59,3.35,3.35,0,0,1-.94.37,3.4,3.4,0,0,1,2,1,2.85,2.85,0,0,1,.68,1.94,3.16,3.16,0,0,1-.3,1.37,3.3,3.3,0,0,1-.82,1.1A3.77,3.77,0,0,1,56.5,63,4.24,4.24,0,0,1,55,63.3,4.64,4.64,0,0,1,53.26,63a3.43,3.43,0,0,1-1.13-.72,3.28,3.28,0,0,1-.69-1,8.5,8.5,0,0,1-.4-1.09l.32-.14a.48.48,0,0,1,.29,0,.28.28,0,0,1,.22.19c0,.07.06.18.11.32a3.19,3.19,0,0,0,.21.48,3.29,3.29,0,0,0,.35.54,3,3,0,0,0,.55.51,3,3,0,0,0,.78.37,3.56,3.56,0,0,0,1.09.14,3.27,3.27,0,0,0,1.34-.25,3.18,3.18,0,0,0,1-.65,2.64,2.64,0,0,0,.58-.88,2.82,2.82,0,0,0,.19-.95,2.9,2.9,0,0,0-.18-1,1.88,1.88,0,0,0-.58-.82,3.07,3.07,0,0,0-1.07-.55,6,6,0,0,0-1.65-.19V56.7a4.76,4.76,0,0,0,1.38-.21,2.9,2.9,0,0,0,1-.52,2.22,2.22,0,0,0,.61-.79,2.6,2.6,0,0,0,.2-1,2.68,2.68,0,0,0-.21-1.11,2.12,2.12,0,0,0-.57-.77,2.17,2.17,0,0,0-.83-.45,3.32,3.32,0,0,0-1-.15,3,3,0,0,0-1,.18,2.58,2.58,0,0,0-.86.48,2.91,2.91,0,0,0-.61.74,2.79,2.79,0,0,0-.34.94.49.49,0,0,1-.15.25.41.41,0,0,1-.26,0Z"/><path class="cls-1" d="M69.2,57.15a10.08,10.08,0,0,1-.33,2.74,5.77,5.77,0,0,1-.93,1.91,3.86,3.86,0,0,1-1.37,1.13,4,4,0,0,1-1.68.37,3.73,3.73,0,0,1-3-1.5,5.76,5.76,0,0,1-.92-1.91,11.54,11.54,0,0,1,0-5.48,5.76,5.76,0,0,1,.92-1.91,3.73,3.73,0,0,1,3-1.5,4,4,0,0,1,1.68.37,3.86,3.86,0,0,1,1.37,1.13,5.77,5.77,0,0,1,.93,1.91A10.08,10.08,0,0,1,69.2,57.15Zm-.84,0a9.49,9.49,0,0,0-.29-2.5,5,5,0,0,0-.75-1.7,2.94,2.94,0,0,0-1.1-1,3.09,3.09,0,0,0-1.33-.31,3.05,3.05,0,0,0-1.33.31,2.94,2.94,0,0,0-1.1,1,5.25,5.25,0,0,0-.76,1.7,11.3,11.3,0,0,0,0,5,5.19,5.19,0,0,0,.76,1.69,3,3,0,0,0,1.1,1,3,3,0,0,0,1.33.3,3.08,3.08,0,0,0,1.33-.3,3,3,0,0,0,1.1-1,5,5,0,0,0,.75-1.69A9.49,9.49,0,0,0,68.36,57.15Z"/><path class="cls-1" d="M76.54,52.27h-3v7.9H73v-7.9H70v-.52h6.54Z"/><path class="cls-1" d="M84.46,51.75v8.42h-.62v-4H78.57v4H78V51.75h.61v3.93h5.27V51.75Z"/><path class="cls-1" d="M100.68,63.17H100a.27.27,0,0,1-.2-.07.4.4,0,0,1-.12-.16l-1.41-3.5H92.37L91,62.94a.36.36,0,0,1-.12.16.32.32,0,0,1-.2.07H90l4.92-12h.86ZM98,58.8l-2.45-6.08a5.76,5.76,0,0,1-.25-.71c0,.13-.07.26-.11.38a2.2,2.2,0,0,1-.13.34L92.64,58.8Z"/><path class="cls-1" d="M112,51.14v12h-.41a.4.4,0,0,1-.18,0,.43.43,0,0,1-.14-.13l-7.82-10.44a4.12,4.12,0,0,1,0,.48V63.17h-.77v-12h.44a.42.42,0,0,1,.18,0,.4.4,0,0,1,.14.13l7.8,10.41a4.12,4.12,0,0,1,0-.48V51.14Z"/><path class="cls-1" d="M124.79,51.14v12h-.41a.48.48,0,0,1-.18,0,.43.43,0,0,1-.14-.13l-7.81-10.44a4,4,0,0,1,0,.48V63.17h-.76v-12h.43a.35.35,0,0,1,.33.16l7.79,10.41a4.12,4.12,0,0,1,0-.48V51.14Z"/><path class="cls-1" d="M129.22,63.17h-.88v-12h.88Z"/><path class="cls-1" d="M141.92,51.14l-5,12h-.77l-5-12h.69a.31.31,0,0,1,.19.06.52.52,0,0,1,.12.17l4.1,10c0,.12.09.26.13.4s.09.28.13.43c0-.15.07-.29.11-.43a3.73,3.73,0,0,1,.14-.4l4.09-10a.36.36,0,0,1,.11-.16.31.31,0,0,1,.21-.07Z"/><path class="cls-1" d="M151.14,62.44l0,.73h-7.2v-12h7.2v.72h-6.33v4.87h5.27v.7h-5.27v5Z"/><path class="cls-1" d="M162.07,63.17h-.75a.6.6,0,0,1-.24-.05.48.48,0,0,1-.18-.17L157,58.07a1.14,1.14,0,0,0-.14-.16.42.42,0,0,0-.16-.11,1.05,1.05,0,0,0-.21-.06h-1.88v5.44h-.87v-12h3.07a5.07,5.07,0,0,1,3.11.8,2.82,2.82,0,0,1,1,2.36,3.22,3.22,0,0,1-.24,1.26,2.82,2.82,0,0,1-.68,1,3.73,3.73,0,0,1-1.08.7,5.47,5.47,0,0,1-1.42.37,1.27,1.27,0,0,1,.36.34Zm-5.34-6.09a4.92,4.92,0,0,0,1.44-.19,3.18,3.18,0,0,0,1.07-.55,2.31,2.31,0,0,0,.66-.86,2.57,2.57,0,0,0,.23-1.13,2.23,2.23,0,0,0-.83-1.9,4.12,4.12,0,0,0-2.45-.62h-2.2v5.25Z"/><path class="cls-1" d="M169.93,52.6a.23.23,0,0,1-.22.15.51.51,0,0,1-.28-.16,4.41,4.41,0,0,0-.47-.35,3.77,3.77,0,0,0-.75-.35,3.2,3.2,0,0,0-1.1-.16,3.39,3.39,0,0,0-1.15.18,2.54,2.54,0,0,0-.83.51,2.09,2.09,0,0,0-.51.75,2.28,2.28,0,0,0-.18.89,1.88,1.88,0,0,0,.26,1,2.36,2.36,0,0,0,.69.68,4.76,4.76,0,0,0,1,.47l1.11.38c.38.12.75.26,1.11.41a4.1,4.1,0,0,1,1,.56,2.55,2.55,0,0,1,.69.84,2.68,2.68,0,0,1,.26,1.24,3.93,3.93,0,0,1-.26,1.42,3.36,3.36,0,0,1-.75,1.16,3.51,3.51,0,0,1-1.21.78,4.39,4.39,0,0,1-1.63.28,4.6,4.6,0,0,1-2-.42,4.81,4.81,0,0,1-1.51-1.15l.24-.37a.3.3,0,0,1,.24-.13.34.34,0,0,1,.2.1l.28.25c.12.1.25.21.41.32a3.31,3.31,0,0,0,.56.33,3.77,3.77,0,0,0,.72.25,3.71,3.71,0,0,0,.92.1,3.4,3.4,0,0,0,1.28-.22,2.78,2.78,0,0,0,1-.59,2.67,2.67,0,0,0,.59-.88,3.12,3.12,0,0,0,.2-1.11,1.9,1.9,0,0,0-.26-1.05,2.21,2.21,0,0,0-.68-.68,4.59,4.59,0,0,0-1-.47l-1.11-.36c-.38-.12-.75-.25-1.1-.4a3.87,3.87,0,0,1-1-.57,2.52,2.52,0,0,1-.68-.86,2.73,2.73,0,0,1-.26-1.28,2.94,2.94,0,0,1,.23-1.17,2.85,2.85,0,0,1,.67-1,3.51,3.51,0,0,1,1.09-.69A4,4,0,0,1,167.1,51a4.42,4.42,0,0,1,1.68.3,4,4,0,0,1,1.36.91Z"/><path class="cls-1" d="M182.16,63.17h-.67a.27.27,0,0,1-.2-.07.4.4,0,0,1-.12-.16l-1.41-3.5h-5.91l-1.41,3.5a.36.36,0,0,1-.12.16.32.32,0,0,1-.2.07h-.66l4.92-12h.86ZM179.5,58.8l-2.45-6.08a5.76,5.76,0,0,1-.25-.71c0,.13-.07.26-.11.38a2.2,2.2,0,0,1-.13.34l-2.44,6.07Z"/><path class="cls-1" d="M192.45,63.17h-.75a.57.57,0,0,1-.24-.05.42.42,0,0,1-.18-.17l-3.86-4.88a1.14,1.14,0,0,0-.14-.16.42.42,0,0,0-.16-.11,1,1,0,0,0-.22-.06H185v5.44h-.88v-12h3.08a5.07,5.07,0,0,1,3.11.8,2.82,2.82,0,0,1,1,2.36,3.22,3.22,0,0,1-.24,1.26,3,3,0,0,1-.68,1,3.73,3.73,0,0,1-1.08.7,5.44,5.44,0,0,1-1.43.37,1.18,1.18,0,0,1,.37.34Zm-5.34-6.09a4.85,4.85,0,0,0,1.43-.19,3.14,3.14,0,0,0,1.08-.55,2.31,2.31,0,0,0,.66-.86,2.57,2.57,0,0,0,.23-1.13,2.21,2.21,0,0,0-.84-1.9,4.06,4.06,0,0,0-2.44-.62H185v5.25Z"/><path class="cls-1" d="M197.84,58.21v5H197v-5l-4.45-7.07h.76a.32.32,0,0,1,.2.06.39.39,0,0,1,.13.15l3.44,5.53c.07.13.14.25.2.38a2.83,2.83,0,0,1,.16.36c.05-.12.1-.24.16-.36a3.37,3.37,0,0,1,.19-.38l3.44-5.53a.37.37,0,0,1,.13-.15.32.32,0,0,1,.2-.06h.76Z"/></g></g></svg>