<svg id="Group_27" data-name="Group 27" xmlns="http://www.w3.org/2000/svg" width="15.518" height="15.518" viewBox="0 0 15.518 15.518">
  <path id="Path_294" data-name="Path 294" d="M3415.38-1030.252c2.072,0,2.317.008,3.135.045a4.291,4.291,0,0,1,1.441.267,2.4,2.4,0,0,1,.892.58,2.409,2.409,0,0,1,.581.892,4.3,4.3,0,0,1,.267,1.441c.037.818.045,1.063.045,3.135s-.008,2.317-.045,3.135a4.306,4.306,0,0,1-.267,1.441,2.408,2.408,0,0,1-.581.892,2.4,2.4,0,0,1-.892.58,4.292,4.292,0,0,1-1.441.267c-.818.037-1.063.045-3.135.045s-2.317-.008-3.135-.045a4.291,4.291,0,0,1-1.44-.267,2.4,2.4,0,0,1-.892-.58,2.4,2.4,0,0,1-.581-.892,4.281,4.281,0,0,1-.267-1.441c-.038-.818-.045-1.064-.045-3.135s.008-2.317.045-3.135a4.279,4.279,0,0,1,.267-1.441,2.4,2.4,0,0,1,.581-.892,2.4,2.4,0,0,1,.892-.58,4.291,4.291,0,0,1,1.44-.267c.818-.037,1.063-.045,3.135-.045m0-1.4c-2.107,0-2.371.009-3.2.047a5.7,5.7,0,0,0-1.884.361,3.8,3.8,0,0,0-1.374.9,3.809,3.809,0,0,0-.9,1.374,5.7,5.7,0,0,0-.361,1.884c-.038.828-.047,1.092-.047,3.2s.009,2.371.047,3.2a5.7,5.7,0,0,0,.361,1.883,3.809,3.809,0,0,0,.9,1.374,3.8,3.8,0,0,0,1.374.895,5.7,5.7,0,0,0,1.884.361c.827.038,1.092.047,3.2.047s2.372-.009,3.2-.047a5.694,5.694,0,0,0,1.883-.361,3.8,3.8,0,0,0,1.375-.895,3.8,3.8,0,0,0,.895-1.374,5.7,5.7,0,0,0,.361-1.883c.038-.828.046-1.092.046-3.2s-.009-2.371-.046-3.2a5.7,5.7,0,0,0-.361-1.884,3.8,3.8,0,0,0-.895-1.374,3.8,3.8,0,0,0-1.375-.9,5.691,5.691,0,0,0-1.883-.361c-.828-.038-1.092-.047-3.2-.047" transform="translate(-3407.621 1031.65)" fill="#282828"/>
  <path id="Path_295" data-name="Path 295" d="M3452.184-991.072a3.984,3.984,0,0,0-3.984,3.984,3.984,3.984,0,0,0,3.984,3.984,3.984,3.984,0,0,0,3.984-3.984,3.984,3.984,0,0,0-3.984-3.984m0,6.571a2.586,2.586,0,0,1-2.586-2.586,2.586,2.586,0,0,1,2.586-2.586,2.586,2.586,0,0,1,2.586,2.586,2.586,2.586,0,0,1-2.586,2.586" transform="translate(-3444.425 994.847)" fill="#282828"/>
  <path id="Path_296" data-name="Path 296" d="M3527.41-1001.843a.931.931,0,0,1-.931.931.931.931,0,0,1-.931-.931.931.931,0,0,1,.931-.931.931.931,0,0,1,.931.931" transform="translate(-3514.578 1005.46)" fill="#282828"/>
</svg>
