<svg xmlns="http://www.w3.org/2000/svg" width="16.562" height="13.46" viewBox="0 0 16.562 13.46">
  <path id="Path_293" data-name="Path 293" d="M3128.748-1020.589a3.4,3.4,0,0,0-3.4,3.4,3.385,3.385,0,0,0,.087.775,9.642,9.642,0,0,1-7-3.55,3.374,3.374,0,0,0-.46,1.708,3.4,3.4,0,0,0,1.511,2.829,3.4,3.4,0,0,1-1.539-.425v.043a3.4,3.4,0,0,0,2.726,3.331,3.383,3.383,0,0,1-.9.12,3.391,3.391,0,0,1-.64-.061,3.4,3.4,0,0,0,3.174,2.361,6.818,6.818,0,0,1-4.219,1.454,7.08,7.08,0,0,1-.811-.048,9.627,9.627,0,0,0,5.209,1.526,9.6,9.6,0,0,0,9.667-9.668c0-.147,0-.293-.009-.439a6.931,6.931,0,0,0,1.7-1.76,6.823,6.823,0,0,1-1.951.535,3.411,3.411,0,0,0,1.494-1.881,6.782,6.782,0,0,1-2.158.825,3.389,3.389,0,0,0-2.479-1.074" transform="translate(-3117.281 1020.589)" fill="#282828"/>
</svg>
