<svg xmlns="http://www.w3.org/2000/svg" viewBox="0 0 492 278.26"><defs><style>.cls-1{fill:#333;}</style></defs><g id="viewsIcon" data-name="viewsIcon"><g id="viewsIcon1" data-name="viewsIcon 1"><g id="Eye_Icon" data-name="Eye Icon"><path class="cls-1" d="M488.1,126.61c-28.42-40.92-65-72.87-108.66-95a297.12,297.12,0,0,0-266.88,0c-43.68,22.09-80.23,54-108.66,95a22,22,0,0,0,0,25c28.43,40.92,65,72.87,108.66,94.95A297,297,0,0,0,246,278.26h0A297,297,0,0,0,379.44,246.6c43.68-22.08,80.24-54,108.66-94.95A22,22,0,0,0,488.1,126.61ZM246,231.31a92.19,92.19,0,1,1,92.18-92.18A92.28,92.28,0,0,1,246,231.31ZM41.71,125.11a261.1,261.1,0,0,1,116-81.1,4.39,4.39,0,0,1,4.44,7.35,121.17,121.17,0,0,0,0,175.53,4.4,4.4,0,0,1-4.45,7.36,261.1,261.1,0,0,1-116-81.11A22,22,0,0,1,41.71,125.11ZM334.27,234.25a4.4,4.4,0,0,1-4.44-7.36,121.19,121.19,0,0,0,0-175.53A4.39,4.39,0,0,1,334.27,44a261.1,261.1,0,0,1,116,81.1,22,22,0,0,1,0,28A261,261,0,0,1,334.27,234.25Z"/><path class="cls-1" d="M253.33,92.38a47.46,47.46,0,0,0-16.16.27,1.47,1.47,0,0,0-.86,2.39,23.39,23.39,0,0,1-33.84,32.13,1.47,1.47,0,0,0-2.43.72,47.32,47.32,0,1,0,53.29-35.51Z"/></g></g></g></svg>