<svg id="Group_28" data-name="Group 28" xmlns="http://www.w3.org/2000/svg" width="18.587" height="12.899" viewBox="0 0 18.587 12.899">
  <path id="Path_298" data-name="Path 298" d="M3707.012-1015.56a2.317,2.317,0,0,0-1.643-1.629,56.011,56.011,0,0,0-7.262-.385,56.011,56.011,0,0,0-7.262.385,2.318,2.318,0,0,0-1.643,1.629,23.777,23.777,0,0,0-.388,4.435,23.777,23.777,0,0,0,.388,4.435,2.319,2.319,0,0,0,1.643,1.629,56.028,56.028,0,0,0,7.262.385,56.028,56.028,0,0,0,7.262-.385,2.318,2.318,0,0,0,1.643-1.629,23.777,23.777,0,0,0,.388-4.435A23.777,23.777,0,0,0,3707.012-1015.56Z" transform="translate(-3688.814 1017.574)" fill="#282828"/>
  <path id="Path_299" data-name="Path 299" d="M3768.285-972.059l4.858-2.722-4.858-2.722Z" transform="translate(-3760.893 981.231)" fill="#fff"/>
</svg>
