<svg xmlns="http://www.w3.org/2000/svg" width="63.973" height="70.555" viewBox="0 0 63.973 70.555">
  <g id="Group_8" data-name="Group 8" transform="translate(-82 -127.428)">
    <path id="Path_23" data-name="Path 23" d="M82,147.385l31.946-19.957,32.028,19.957V154.2h-4.681v23.817H86.6V154.2H82Zm31.947-12-20.12,12.237v23.16h40.322V147.543Zm-11.088,23.991H125.2v6.406H102.859Zm0-8.631H125.2v6.324H102.859Z" fill="#d9c7b7"/>
    <g id="Group_7" data-name="Group 7" transform="translate(85.617 183.042)">
      <path id="Path_24" data-name="Path 24" d="M135.231,516.444v.913h-1.972v1.3h1.856v.913h-1.856v1.485h2.05v.913h-3.163v-5.523Z" transform="translate(-128.579 -516.336)" fill="#d9c7b7"/>
      <path id="Path_25" data-name="Path 25" d="M160.58,522l-.657-.681a1.465,1.465,0,0,1-.34.085,3.016,3.016,0,0,1-.394.023c-1.671,0-1.88-1.191-1.88-2.87s.209-2.87,1.88-2.87,1.88,1.191,1.88,2.87a4.043,4.043,0,0,1-.425,2.243l.6.6Zm-1.392-1.392c.657,0,.766-.565.766-2.05s-.108-2.05-.766-2.05-.766.572-.766,2.05S158.53,520.607,159.188,520.607Z" transform="translate(-150.137 -515.688)" fill="#d9c7b7"/>
      <path id="Path_26" data-name="Path 26" d="M188.77,516.444V520.3c0,.549.132.959.65.959s.65-.41.65-.959v-3.852h1.114V520.3a1.577,1.577,0,0,1-1.764,1.779c-.9,0-1.764-.3-1.764-1.779v-3.852Z" transform="translate(-176.138 -516.336)" fill="#d9c7b7"/>
      <path id="Path_27" data-name="Path 27" d="M215.956,516.444h1.377l1.462,5.523h-1.16l-.255-1.168h-1.47l-.255,1.168h-1.16Zm.147,3.442h1.083l-.534-2.483h-.015Z" transform="translate(-199.132 -516.336)" fill="#d9c7b7"/>
      <path id="Path_28" data-name="Path 28" d="M247.217,521.967v-5.523h1.114v4.61H250.3v.913Z" transform="translate(-227.168 -516.336)" fill="#d9c7b7"/>
      <path id="Path_29" data-name="Path 29" d="M285.179,516.444h1.114v2.112h1.3v-2.112h1.114v5.523h-1.114v-2.452h-1.3v2.452h-1.114Z" transform="translate(-259.692 -516.336)" fill="#d9c7b7"/>
      <path id="Path_30" data-name="Path 30" d="M316.273,515.688c1.671,0,1.88,1.191,1.88,2.87s-.209,2.87-1.88,2.87-1.88-1.191-1.88-2.87S314.6,515.688,316.273,515.688Zm0,4.919c.657,0,.766-.565.766-2.05s-.108-2.05-.766-2.05-.766.572-.766,2.05S315.615,520.607,316.273,520.607Z" transform="translate(-284.721 -515.688)" fill="#d9c7b7"/>
      <path id="Path_31" data-name="Path 31" d="M345.855,516.444V520.3c0,.549.132.959.65.959s.65-.41.65-.959v-3.852h1.114V520.3a1.577,1.577,0,0,1-1.764,1.779c-.9,0-1.764-.3-1.764-1.779v-3.852Z" transform="translate(-310.722 -516.336)" fill="#d9c7b7"/>
      <path id="Path_32" data-name="Path 32" d="M373.881,519.594v.162c0,.518.147.851.735.851a.636.636,0,0,0,.665-.681c0-.5-.255-.688-.99-.944-.99-.34-1.446-.75-1.446-1.671a1.514,1.514,0,0,1,1.709-1.624c.99,0,1.709.425,1.709,1.485v.155H375.2c0-.518-.178-.82-.6-.82a.57.57,0,0,0-.634.642c0,.34.1.549.573.75l.858.371a1.411,1.411,0,0,1,1.052,1.462c0,1.168-.712,1.694-1.918,1.694-1.261,0-1.756-.588-1.756-1.609v-.224Z" transform="translate(-334.734 -515.688)" fill="#d9c7b7"/>
      <path id="Path_33" data-name="Path 33" d="M402.682,521.967v-5.523H403.8v5.523Z" transform="translate(-360.364 -516.336)" fill="#d9c7b7"/>
      <path id="Path_34" data-name="Path 34" d="M417.52,516.444l1.346,3.782h.015v-3.782H419.9v5.523h-1.269l-1.361-3.867h-.015v3.867h-1.021v-5.523Z" transform="translate(-371.976 -516.336)" fill="#d9c7b7"/>
      <path id="Path_35" data-name="Path 35" d="M449.359,517.436c0-.41-.186-.928-.634-.928-.541,0-.758.557-.758,1.934,0,1.33.124,2.166.766,2.166a.812.812,0,0,0,.688-.882v-.565h-.735v-.82h1.8v2.978h-.82v-.511h-.015a1.241,1.241,0,0,1-1.16.619c-1.369,0-1.64-1.021-1.64-2.932,0-1.856.433-2.808,1.856-2.808,1.222,0,1.717.627,1.717,1.748Z" transform="translate(-398.208 -515.688)" fill="#d9c7b7"/>
      <path id="Path_36" data-name="Path 36" d="M109.719,567.313c2.2,0,2.471,1.566,2.471,3.773s-.275,3.773-2.471,3.773-2.471-1.566-2.471-3.773S107.523,567.313,109.719,567.313Zm0,6.468c.864,0,1.007-.742,1.007-2.7s-.142-2.7-1.007-2.7-1.007.753-1.007,2.7S108.855,573.781,109.719,573.781Z" transform="translate(-107.248 -559.918)" fill="#d9c7b7"/>
      <path id="Path_37" data-name="Path 37" d="M147.79,568.307h2.563a1.927,1.927,0,0,1,1.993,2.176,2.032,2.032,0,0,1-2.309,2.186h-.783v2.9H147.79Zm1.464,3.285h.651c.58,0,.976-.346.976-1.088,0-.712-.285-1.119-1.017-1.119h-.61Z" transform="translate(-141.983 -560.77)" fill="#d9c7b7"/>
      <path id="Path_38" data-name="Path 38" d="M184.638,568.307H187.2a1.927,1.927,0,0,1,1.993,2.176,2.032,2.032,0,0,1-2.309,2.186H186.1v2.9h-1.464Zm1.464,3.285h.651c.58,0,.976-.346.976-1.088,0-.712-.285-1.119-1.017-1.119h-.61Z" transform="translate(-173.553 -560.77)" fill="#d9c7b7"/>
      <path id="Path_39" data-name="Path 39" d="M222.893,567.313c2.2,0,2.471,1.566,2.471,3.773s-.275,3.773-2.471,3.773-2.471-1.566-2.471-3.773S220.7,567.313,222.893,567.313Zm0,6.468c.864,0,1.007-.742,1.007-2.7s-.142-2.7-1.007-2.7-1.007.753-1.007,2.7S222.029,573.781,222.893,573.781Z" transform="translate(-204.211 -559.918)" fill="#d9c7b7"/>
      <path id="Path_40" data-name="Path 40" d="M260.963,568.307h2.705a1.721,1.721,0,0,1,1.932,1.871c0,.966-.386,1.617-1.21,1.79v.02c1,.132,1.149.681,1.17,2.217.01.763.051,1.159.325,1.3v.061H264.3a1.415,1.415,0,0,1-.183-.763l-.041-1.393c-.02-.57-.275-.915-.864-.915h-.783v3.071h-1.464Zm1.464,3.173h.61a.955.955,0,0,0,1.1-1.088.9.9,0,0,0-1.017-1.007h-.692Z" transform="translate(-238.945 -560.77)" fill="#d9c7b7"/>
      <path id="Path_41" data-name="Path 41" d="M301.114,568.307v1.2h-1.587v6.061h-1.464v-6.061h-1.587v-1.2Z" transform="translate(-269.371 -560.77)" fill="#d9c7b7"/>
      <path id="Path_42" data-name="Path 42" d="M334.079,568.307v5.065c0,.722.173,1.261.854,1.261s.854-.539.854-1.261v-5.065h1.465v5.065a2.074,2.074,0,0,1-2.319,2.339c-1.19,0-2.319-.4-2.319-2.339v-5.065Z" transform="translate(-300.333 -560.77)" fill="#d9c7b7"/>
      <path id="Path_43" data-name="Path 43" d="M373.139,568.307l1.77,4.973h.02v-4.973h1.342v7.261H374.6l-1.79-5.085h-.02v5.085h-1.342v-7.261Z" transform="translate(-333.606 -560.77)" fill="#d9c7b7"/>
      <path id="Path_44" data-name="Path 44" d="M412.7,575.568v-7.261h1.464v7.261Z" transform="translate(-368.948 -560.77)" fill="#d9c7b7"/>
      <path id="Path_45" data-name="Path 45" d="M432.462,568.307v1.2h-1.587v6.061h-1.464v-6.061h-1.587v-1.2Z" transform="translate(-381.905 -560.77)" fill="#d9c7b7"/>
      <path id="Path_46" data-name="Path 46" d="M462.913,568.307l.956,2.807h.02l1.017-2.807h1.586l-1.881,4.4v2.858h-1.465v-2.858l-1.881-4.4Z" transform="translate(-410.556 -560.77)" fill="#d9c7b7"/>
    </g>
  </g>
</svg>
