<svg xmlns="http://www.w3.org/2000/svg" xmlns:xlink="http://www.w3.org/1999/xlink" width="166" height="166" viewBox="0 0 166 166">
  <defs>
    <clipPath id="clip-path">
      <rect id="Rectangle_14" data-name="Rectangle 14" width="165.31" height="165.31" transform="translate(167.345 318.669)" fill="none"/>
    </clipPath>
    <clipPath id="clip-B3_26">
      <rect width="166" height="166"/>
    </clipPath>
  </defs>
  <g id="B3_26" data-name="B3 – 26" clip-path="url(#clip-B3_26)">
    <g id="Group_40" data-name="Group 40" transform="translate(-167 -318.324)">
      <path id="Path_197" data-name="Path 197" d="M325.6,401.324a75.6,75.6,0,1,1-75.6-75.6,75.6,75.6,0,0,1,75.6,75.6Z" fill="#fff"/>
      <g id="Group_39" data-name="Group 39">
        <g id="Group_38" data-name="Group 38" clip-path="url(#clip-path)">
          <path id="Path_198" data-name="Path 198" d="M250,471.005a69.681,69.681,0,1,1,69.68-69.681A69.681,69.681,0,0,1,250,471.005m0-143.287a73.606,73.606,0,1,0,73.606,73.606A73.689,73.689,0,0,0,250,327.718" fill="#231f20"/>
          <path id="Path_199" data-name="Path 199" d="M250,475.824a74.5,74.5,0,1,1,74.5-74.5,74.583,74.583,0,0,1-74.5,74.5m79.53-71.375,3.124-3.125L329.53,398.2l2.869-3.36-3.36-2.871,2.6-3.574-3.574-2.6,2.309-3.767-3.768-2.31,2.006-3.937-3.937-2.007,1.692-4.082L322.28,368l1.365-4.2-4.2-1.365,1.032-4.3-4.3-1.031.69-4.365-4.363-.692.346-4.4-4.406-.346v-4.42h-4.418l-.348-4.4-4.4.346-.691-4.365-4.366.692-1.031-4.3-4.3,1.031-1.366-4.2-4.2,1.365-1.691-4.082-4.083,1.69-2.005-3.937-3.938,2.007-2.309-3.767-3.767,2.308-2.6-3.575-3.574,2.6-2.87-3.36-3.361,2.871L250,318.67l-3.125,3.125-3.361-2.87-2.87,3.361-3.575-2.6-2.6,3.574-3.768-2.309-2.308,3.769-3.938-2.007-2.006,3.937-4.082-1.69-1.691,4.082-4.2-1.365-1.366,4.2-4.3-1.031-1.031,4.3-4.366-.691-.691,4.364-4.4-.346-.347,4.4h-4.419v4.42l-4.406.346.348,4.4-4.365.692.691,4.364-4.3,1.032,1.032,4.3-4.2,1.365,1.366,4.2-4.083,1.691,1.691,4.083-3.937,2.006,2.007,3.937-3.769,2.31,2.309,3.767-3.575,2.6,2.6,3.574-3.359,2.872,2.869,3.359-3.124,3.124,3.124,3.125L167.6,407.81l3.359,2.869-2.6,3.575,3.575,2.6-2.309,3.767,3.769,2.309-2.007,3.937,3.937,2.007-1.691,4.084,4.083,1.689-1.365,4.2,4.2,1.366-1.032,4.3,4.3,1.032-.691,4.365,4.365.691-.347,4.4,4.406.346v4.419h4.418l.347,4.406,4.426-.348,1.9,4.172,3.159-.5,2.218,4.011,3.09-.742,1.366,4.2,4.2-1.366,1.691,4.083L222.451,476l2.006,3.937,3.938-2.006L230.7,481.7l3.768-2.309,2.6,3.575,3.575-2.6,2.87,3.36,3.361-2.87L250,483.979l3.124-3.124,3.36,2.868,2.87-3.358,3.574,2.6,2.6-3.574,3.767,2.309,2.309-3.768,3.938,2.006L277.547,476l4.082,1.689,1.691-4.081,4.2,1.366,1.366-4.2,4.3,1.031,1.031-4.3,4.366.692.691-4.364,4.4.346.348-4.406h4.418v-4.419l4.406-.346-.346-4.4,4.363-.691-.691-4.365,4.3-1.032-1.032-4.3,4.2-1.365-1.365-4.2,4.082-1.691-1.691-4.082,3.937-2.007-2.006-3.937,3.768-2.309-2.309-3.767,3.574-2.6-2.6-3.575,3.36-2.869-2.87-3.361Z" fill="#231f20"/>
        </g>
      </g>
      <path id="Path_200" data-name="Path 200" d="M205.853,415.761h5.832l-2.882-8.382-2.949,8.382Z" fill="#231f20"/>
      <path id="Path_201" data-name="Path 201" d="M230.692,393.207a1.732,1.732,0,0,0,1.818-1.92V381.93a1.758,1.758,0,0,0-1.842-1.9,1.738,1.738,0,0,0-1.892,1.9v9.333a1.8,1.8,0,0,0,1.916,1.944" fill="#231f20"/>
      <path id="Path_202" data-name="Path 202" d="M289.433,425.52v-1.279h3.135L286.2,414.026l-5.407,7.984a2.778,2.778,0,0,0-.623,1.444c0,.651,1,.787,1.838.787h1.277v1.279h-9.271v-1.279h.9c2.207,0,3.3-1.514,4.68-3.432l.142-.195,5.623-7.939-8.06-12.9h-2.836V398.5H287.6v1.278h-2.682l4.42,7.032,3.116-4.5a4.124,4.124,0,0,0,.96-2.005c0-.323-.632-.524-1.649-.524H290.9V398.5h8.22v1.278h-.9c-1.584,0-2.631.8-4.482,3.437l-3.525,5.051,10.012,15.974h2.536v1.279Zm-17.157-30.438h-2.825v-14.8h-3.267v-2.165h9.359v2.165h-3.267v14.8Zm-.362,30.438H249.286v-1.279h3.039V399.779h-3.039V398.5h21.578v8.069h-1.278v-.826c0-2.969-2.065-5.965-6.678-5.965h-4.127v10.88h2.289c2.392,0,3.413-1.391,3.413-4.652v-.714h1.278v12.459h-1.278v-1.163c0-2.316-1.056-4.652-3.413-4.652h-2.289v12.3h5.1c6.427,0,6.752-5.781,6.752-6.94v-.827h1.279v9.046Zm-25.306-34.368v-13.04h2.825v13.174a1.839,1.839,0,0,0,2.039,1.854,1.744,1.744,0,0,0,1.866-1.877V378.112h2.531V391.13c0,2.635-1.941,4.22-4.642,4.22-2.8,0-4.619-1.585-4.619-4.2m1.219,34.368H225.2v-1.279h3.038V399.779H225.2V398.5h12.872v1.278h-3.377v24.462h4.014c4.072,0,7.841-.882,7.841-7.278v-1.052h1.278v9.609Zm-24.2,0H211.842v-1.279h2.879l-2.528-7.2h-6.849l-1.731,5.086a3.1,3.1,0,0,0-.247,1.028c0,.762.448,1.087,1.5,1.087h1.351v1.279h-7.394v-1.279h.789c1.091-.087,1.777-.7,2.268-2.053l8.777-24.287h.982l10.056,26.34h1.932v1.279Zm-16.982-43.567c0-2.188,1.253-4.131,4.348-4.131,2.947,0,3.9,1.786,3.9,4.085,0,.582-.048,1.362-.1,1.81h-2.31a12.809,12.809,0,0,0,.074-1.564c0-1.518-.369-2.21-1.523-2.21-1.007,0-1.572.536-1.572,1.674v.156c0,1.05.737,2.055,2.088,3.238,2.211,1.966,3.635,3.774,3.635,6.007v.2a4.05,4.05,0,0,1-4.4,4.131c-2.8,0-4.077-1.406-4.077-4.087,0-.4.073-1.339.122-1.763h2.31c-.049.424-.1,1.2-.1,1.652,0,1.406.589,2.055,1.7,2.055,1.2,0,1.621-.649,1.621-1.764v-.291c0-1.205-.491-2.143-2.506-3.885-1.867-1.63-3.218-3.26-3.218-5.136v-.178Zm19.306.312c0-3.237,2.211-4.443,4.741-4.443s4.667,1.16,4.667,4.443V391c0,3.1-2.161,4.354-4.667,4.354-2.554,0-4.741-1.25-4.741-4.354v-8.731Zm59.906-4.153h2.826v7.323h3.979v-7.323h2.826v16.97h-2.826V387.6h-3.979v7.481h-2.826v-16.97ZM250,339.133a62.191,62.191,0,1,0,62.19,62.191A62.191,62.191,0,0,0,250,339.133" fill="#231f20"/>
      <path id="Path_203" data-name="Path 203" d="M230.617,361.9h-1.651v8.233h-1.428V361.9h-1.652v-1.2h4.731v1.2Z" fill="#fff"/>
      <path id="Path_204" data-name="Path 204" d="M235.622,362.818a.938.938,0,0,0-.932-1.056.924.924,0,0,0-.955,1.056v5.19a.959.959,0,0,0,.968,1.081c.571,0,.919-.41.919-1.068v-5.2Zm1.44,5.041a2.378,2.378,0,1,1-4.756,0V363a2.218,2.218,0,0,1,2.4-2.471A2.18,2.18,0,0,1,237.062,363v4.855Z" fill="#fff"/>
      <path id="Path_205" data-name="Path 205" d="M247.071,360.694l-1.565,9.437h-1.738l-.758-5.029h-.037l-.77,5.029h-1.726l-1.552-9.437h1.49l.981,7.388h.062l1.143-7.388h.894l1.1,7.438h.062l1.006-7.438Z" fill="#fff"/>
      <path id="Path_206" data-name="Path 206" d="M253.554,370.132h-1.2l-2.074-5.886h-.05v5.886h-1.279v-9.437h1.378l1.9,5.339h.05v-5.339h1.279v9.437Z" fill="#fff"/>
      <path id="Path_207" data-name="Path 207" d="M260.3,368a2.22,2.22,0,0,1-2.372,2.285,2.007,2.007,0,0,1-2.2-2.273,6.636,6.636,0,0,1,.111-1.055l1.168.074a4.035,4.035,0,0,0-.1.919c0,.783.435,1.143.993,1.143a.881.881,0,0,0,.969-.981v-.162c0-.67-.31-1.092-1.416-2.16a4.552,4.552,0,0,1-1.763-3.005v-.1a2.151,2.151,0,0,1,2.335-2.148,1.936,1.936,0,0,1,2.123,2.173,7.407,7.407,0,0,1-.087,1.08l-1.167-.074a4.934,4.934,0,0,0,.074-.869c0-.845-.335-1.13-.919-1.13a.827.827,0,0,0-.93.881v.087c0,.584.3.956,1.191,1.85,1.6,1.6,1.987,2.4,1.987,3.353V368Z" fill="#fff"/>
      <path id="Path_208" data-name="Path 208" d="M268.482,367.524l-.708-4.9h-.062l-.645,4.9Zm1.862,2.608H268.9l-.236-1.4h-1.776l-.211,1.4H265.39l1.664-9.438h1.615l1.675,9.438Z" fill="#fff"/>
      <path id="Path_209" data-name="Path 209" d="M275.536,361.9h-1.651v8.233h-1.428V361.9h-1.651v-1.2h4.73v1.2Z" fill="#fff"/>
      <path id="Path_210" data-name="Path 210" d="M303.677,400.97h.357c.374,0,.731-.12.731-.442,0-.272-.187-.476-.68-.476a1.993,1.993,0,0,0-.408.034v.884Zm0,1.6h-.527v-2.838a5.479,5.479,0,0,1,.986-.085,1.322,1.322,0,0,1,.884.221.734.734,0,0,1,.288.612.722.722,0,0,1-.543.662v.035a.875.875,0,0,1,.458.7,2,2,0,0,0,.221.7H304.9a2.206,2.206,0,0,1-.237-.73c-.068-.323-.255-.459-.646-.459h-.34v1.189Zm.476-3.721a2.235,2.235,0,0,0,.034,4.469,2.138,2.138,0,0,0,2.124-2.227,2.166,2.166,0,0,0-2.141-2.242Zm.034-.477a2.72,2.72,0,1,1-.017,5.439,2.72,2.72,0,1,1,0-5.439Z" fill="#fff"/>
    </g>
  </g>
</svg>
