<svg xmlns="http://www.w3.org/2000/svg" width="142" height="142" viewBox="0 0 142 142">
  <g id="Group_174" data-name="Group 174" transform="translate(-685 -1309)">
    <g id="Ellipse_2" data-name="Ellipse 2" transform="translate(685 1309)" fill="none" stroke="#003a70" stroke-width="2">
      <circle cx="71" cy="71" r="71" stroke="none"/>
      <circle cx="71" cy="71" r="70" fill="none"/>
    </g>
    <rect id="Rectangle_165" data-name="Rectangle 165" width="38" height="52" transform="translate(732 1334)" fill="#c1c8d9"/>
    <rect id="Rectangle_186" data-name="Rectangle 186" width="97" height="5" transform="translate(708 1411)" fill="#c1c8d9"/>
    <g id="Group_88" data-name="Group 88" transform="translate(453.567 1191.87)">
      <path id="Path_397" data-name="Path 397" d="M354.177,203.553h-2.721V180.264a.787.787,0,0,0-.049-.243.533.533,0,0,0-.049-.085c-.024-.036-.036-.073-.061-.109L332.358,157.4l-2.454-4.787a.646.646,0,0,0-.6-.364H317.561a.659.659,0,0,0-.668.668v39.9h-6.1V178.6a.659.659,0,0,0-.668-.668h-8.139v-8.407a.674.674,0,0,0-.668-.668H287.652V154.012a.664.664,0,0,0-.656-.668H259.273a.674.674,0,0,0-.668.668v38.8h-4.9a.674.674,0,0,0-.668.668v10.071h-3.292a.674.674,0,0,0-.668.668V211a.666.666,0,0,0,.668.668h12.416a10.234,10.234,0,0,0,19.474,0h40.843a10.234,10.234,0,0,0,19.474,0h12.221a.666.666,0,0,0,.668-.668v-6.779A.674.674,0,0,0,354.177,203.553Zm-35.947-49.967h10.679l1.8,3.523H318.229Zm0,4.859h13.254L349.342,179.6H318.229Zm-16.243,20.823h7.471V186.4h-3.742a.674.674,0,0,0-.668.668.666.666,0,0,0,.668.668h3.742v5.078h-7.471Zm-14.335,8.468h6.5a.666.666,0,0,0,.668-.668.674.674,0,0,0-.668-.668h-6.5v-4.361h6.5a.666.666,0,0,0,.668-.668.674.674,0,0,0-.668-.668h-6.5v-4.908h6.5a.674.674,0,0,0,.668-.668.666.666,0,0,0-.668-.668h-6.5v-4.264h13v22.621h-13Zm-8.978-33.056h7.654v10.363h-7.654Zm0,11.7h7.654v14.432h-7.654Zm0,15.769h7.654v10.666h-7.654Zm-9.4-27.468h8.067v10.363h-8.067Zm0,11.7h8.067v14.432h-8.067Zm0,15.769h8.067v10.666h-8.067Zm-9.33-27.468h7.994v10.363h-7.994Zm0,11.7h7.994v14.432h-7.994Zm0,15.769h7.994v10.666h-7.994Zm1.725,26.362a9.963,9.963,0,0,0,.17,1.822h-11.42V204.89h11.918A10.243,10.243,0,0,0,261.666,208.51Zm10.241,8.9a8.9,8.9,0,1,1,8.9-8.9A8.91,8.91,0,0,1,271.907,217.415Zm50.064-8.9a9.966,9.966,0,0,0,.182,1.822H281.966a9.963,9.963,0,0,0,.17-1.822,10.243,10.243,0,0,0-.668-3.62h41.183A10.251,10.251,0,0,0,321.971,208.51Zm10.241,8.9a8.9,8.9,0,1,1,8.9-8.9A8.91,8.91,0,0,1,332.212,217.415Zm8.966-13.849a10.233,10.233,0,0,0-17.907-.012H281.176a.675.675,0,0,0-.279.061,10.24,10.24,0,0,0-17.956-.036.355.355,0,0,0-.109-.024h-8.455v-9.4h63.184a.666.666,0,0,0,.668-.668V180.933h31.89v7.933H345.43a3.08,3.08,0,0,0-3.086,3.074v2.551a3.09,3.09,0,0,0,3.086,3.086h4.689v5.977h-8.881A.525.525,0,0,0,341.178,203.565Zm8.941-13.363v6.038H345.43a1.758,1.758,0,0,1-1.749-1.749v-2.551a1.747,1.747,0,0,1,1.749-1.737Zm3.389,20.13H342.283a9.931,9.931,0,0,0-.51-5.443h11.735Z" fill="#003a70"/>
      <path id="Path_398" data-name="Path 398" d="M261.98,199.2a9.968,9.968,0,0,0,.17,1.822H250.73V195.58h11.918A10.242,10.242,0,0,0,261.98,199.2Z" transform="translate(0.355 9.31)" fill="#8695b5"/>
      <path id="Path_399" data-name="Path 399" d="M269.445,191.24a8.9,8.9,0,1,0,8.9,8.893A8.907,8.907,0,0,0,269.445,191.24Zm0,13.29a4.392,4.392,0,1,1,4.4-4.4A4.4,4.4,0,0,1,269.445,204.53Z" transform="translate(2.462 8.377)" fill="#ebc6c5"/>
      <path id="Path_400" data-name="Path 400" d="M316.243,199.2a9.966,9.966,0,0,0,.182,1.822H276.238a9.966,9.966,0,0,0,.17-1.822,10.242,10.242,0,0,0-.668-3.62h41.184A10.25,10.25,0,0,0,316.243,199.2Z" transform="translate(5.728 9.31)" fill="#8695b5"/>
      <path id="Path_401" data-name="Path 401" d="M319.085,191.24a8.9,8.9,0,1,0,8.9,8.893A8.907,8.907,0,0,0,319.085,191.24Zm0,13.29a4.392,4.392,0,1,1,4.4-4.4A4.4,4.4,0,0,1,319.085,204.53Z" transform="translate(13.127 8.377)" fill="#ebc6c5"/>
      <path id="Path_402" data-name="Path 402" d="M337.115,195.58v5.443H325.89a9.931,9.931,0,0,0-.51-5.443Z" transform="translate(16.393 9.31)" fill="#8695b5"/>
      <path id="Path_403" data-name="Path 403" d="M333.389,183.49v6.038H328.7a1.758,1.758,0,0,1-1.749-1.749v-2.551a1.747,1.747,0,0,1,1.749-1.737Z" transform="translate(16.731 6.712)" fill="#003a70"/>
      <path id="Path_404" data-name="Path 404" d="M318.477,156.873H306V153.35h10.679Z" transform="translate(12.229 0.236)" fill="#003a70"/>
      <path id="Path_405" data-name="Path 405" d="M337.112,178.5H306V157.35h13.254Z" transform="translate(12.229 1.096)" fill="#8695b5"/>
      <path id="Path_406" data-name="Path 406" d="M341.407,186.867v2.551a3.09,3.09,0,0,0,3.086,3.086h4.689v5.977H340.3a.524.524,0,0,0-.061.012,10.233,10.233,0,0,0-17.907-.012H280.24a.675.675,0,0,0-.279.061A10.24,10.24,0,0,0,262,198.5a.355.355,0,0,0-.109-.024H253.44v-9.4h63.184a.666.666,0,0,0,.668-.668V175.86h31.89v7.933h-4.689A3.08,3.08,0,0,0,341.407,186.867Z" transform="translate(0.937 5.073)" fill="#9c182f"/>
      <path id="Path_407" data-name="Path 407" d="M295.691,182.289a.666.666,0,0,0,.668.668H300.1v5.078H292.63V174.49H300.1v7.131H296.36A.674.674,0,0,0,295.691,182.289Z" transform="translate(9.357 4.778)" fill="#9c182f"/>
      <path id="Path_408" data-name="Path 408" d="M293.829,167.02v22.621h-13v-5.078h6.5a.666.666,0,0,0,.668-.668.674.674,0,0,0-.668-.668h-6.5v-4.361h6.5A.666.666,0,0,0,288,178.2a.674.674,0,0,0-.668-.668h-6.5V172.62h6.5a.674.674,0,0,0,.668-.668.666.666,0,0,0-.668-.668h-6.5V167.02Z" transform="translate(6.822 3.173)" fill="#ebc6c5"/>
      <rect id="Rectangle_97" data-name="Rectangle 97" width="7.654" height="10.666" transform="translate(278.674 182.147)" fill="#8695b5"/>
      <rect id="Rectangle_98" data-name="Rectangle 98" width="8.067" height="10.666" transform="translate(269.271 182.147)" fill="#8695b5"/>
      <rect id="Rectangle_99" data-name="Rectangle 99" width="7.994" height="10.666" transform="translate(259.941 182.147)" fill="#8695b5"/>
      <rect id="Rectangle_100" data-name="Rectangle 100" width="7.994" height="14.432" transform="translate(259.941 166.379)" fill="#8695b5"/>
      <rect id="Rectangle_101" data-name="Rectangle 101" width="8.067" height="14.432" transform="translate(269.271 166.379)" fill="#8695b5"/>
      <rect id="Rectangle_102" data-name="Rectangle 102" width="7.654" height="14.432" transform="translate(278.674 166.379)" fill="#8695b5"/>
      <rect id="Rectangle_103" data-name="Rectangle 103" width="7.654" height="10.363" transform="translate(278.674 154.68)" fill="#8695b5"/>
      <rect id="Rectangle_104" data-name="Rectangle 104" width="8.067" height="10.363" transform="translate(269.271 154.68)" fill="#8695b5"/>
      <rect id="Rectangle_105" data-name="Rectangle 105" width="7.994" height="10.363" transform="translate(259.941 154.68)" fill="#8695b5"/>
      <path id="Path_409" data-name="Path 409" d="M268.648,194.95a4.392,4.392,0,1,0,4.4,4.386A4.394,4.394,0,0,0,268.648,194.95Zm0,7.447a3.061,3.061,0,1,1,3.061-3.061A3.064,3.064,0,0,1,268.648,202.4Z" transform="translate(3.259 9.174)" fill="#003a70"/>
      <path id="Path_410" data-name="Path 410" d="M271.473,199.1a3.061,3.061,0,1,1-3.061-3.061A3.064,3.064,0,0,1,271.473,199.1Z" transform="translate(3.496 9.408)" fill="#fff"/>
      <path id="Path_411" data-name="Path 411" d="M318.288,194.95a4.392,4.392,0,1,0,4.4,4.386A4.4,4.4,0,0,0,318.288,194.95Zm0,7.447a3.061,3.061,0,1,1,3.061-3.061A3.064,3.064,0,0,1,318.288,202.4Z" transform="translate(13.925 9.174)" fill="#003a70"/>
      <path id="Path_412" data-name="Path 412" d="M321.113,199.1a3.061,3.061,0,1,1-3.061-3.061A3.064,3.064,0,0,1,321.113,199.1Z" transform="translate(14.161 9.408)" fill="#fff"/>
    </g>
  </g>
</svg>
