<svg id="Layer_1" data-name="Layer 1" xmlns="http://www.w3.org/2000/svg" xmlns:xlink="http://www.w3.org/1999/xlink" viewBox="0 0 500 165.23"><defs><style>.cls-1{fill:none;}.cls-2,.cls-3,.cls-4,.cls-5{fill:#202945;}.cls-3,.cls-4,.cls-5{font-size:78.84px;font-family:Lato-Light, Lato;font-weight:300;}.cls-3{letter-spacing:-0.06em;}.cls-4{letter-spacing:0em;}.cls-6{clip-path:url(#clip-path);}</style><clipPath id="clip-path"><rect class="cls-1" width="495.07" height="153"/></clipPath></defs><path class="cls-2" d="M30.31,143.88a1.52,1.52,0,0,1,.55.1,1.5,1.5,0,0,1,.54.36l3.11,3.27a13,13,0,0,1-5.12,4A18.06,18.06,0,0,1,22.1,153a17.41,17.41,0,0,1-6.91-1.31A15,15,0,0,1,10,148.06a15.82,15.82,0,0,1-3.27-5.47,20.19,20.19,0,0,1-1.14-6.88,18.07,18.07,0,0,1,1.3-7,16.23,16.23,0,0,1,3.64-5.47,16.43,16.43,0,0,1,5.59-3.57,19.52,19.52,0,0,1,7.18-1.28,17.91,17.91,0,0,1,6.74,1.27,14.68,14.68,0,0,1,2.7,1.41A13,13,0,0,1,34.93,123l-2.65,3.55a3.73,3.73,0,0,1-.6.59,1.65,1.65,0,0,1-1,.26,1.79,1.79,0,0,1-.79-.18c-.25-.12-.51-.28-.79-.45l-.92-.58a6.49,6.49,0,0,0-1.18-.58,10.13,10.13,0,0,0-1.61-.46,11.29,11.29,0,0,0-2.15-.18,9.9,9.9,0,0,0-3.9.75,8.41,8.41,0,0,0-3,2.16,9.93,9.93,0,0,0-2,3.4,13.37,13.37,0,0,0-.71,4.48,14,14,0,0,0,.71,4.62,10.21,10.21,0,0,0,1.93,3.4,8.13,8.13,0,0,0,2.85,2.1,8.46,8.46,0,0,0,3.48.71,16.75,16.75,0,0,0,2-.1,8.1,8.1,0,0,0,1.63-.36,7.24,7.24,0,0,0,1.44-.66,9.92,9.92,0,0,0,1.39-1,2.65,2.65,0,0,1,.6-.38,1.6,1.6,0,0,1,.68-.15Z"/><path class="cls-2" d="M48.08,134.71h3.16A7.85,7.85,0,0,0,54,134.3a4.85,4.85,0,0,0,1.85-1.12,4.34,4.34,0,0,0,1-1.68,6.71,6.71,0,0,0,.32-2.08,4.33,4.33,0,0,0-1.45-3.48,6.75,6.75,0,0,0-4.5-1.25H48.08v10Zm0,5.41v12.5H40.23V118.81h11a22.78,22.78,0,0,1,6.27.76,11.8,11.8,0,0,1,4.23,2.1,8,8,0,0,1,2.38,3.18,10.61,10.61,0,0,1,.74,4,10.87,10.87,0,0,1-.44,3.11,9.26,9.26,0,0,1-1.31,2.7A10.21,10.21,0,0,1,61,136.87a11.37,11.37,0,0,1-2.92,1.6,7.55,7.55,0,0,1,1.48,1,6,6,0,0,1,1.2,1.42l7.2,11.76H60.82A3,3,0,0,1,58,151.14l-5.62-9.82a2.36,2.36,0,0,0-.87-.92,2.89,2.89,0,0,0-1.41-.28Z"/><path class="cls-2" d="M84,139.7h9.24l-3.11-9.26-.71-2.08c-.27-.79-.54-1.65-.8-2.58-.25.94-.5,1.81-.77,2.62s-.51,1.5-.74,2.09L84,139.7Zm21.75,12.92H99.63a2.83,2.83,0,0,1-1.69-.47,2.44,2.44,0,0,1-.91-1.22L95,145H82.15l-2,5.89a2.67,2.67,0,0,1-2.55,1.69H71.46l13.11-33.81h8l13.11,33.81Z"/><polygon class="cls-2" points="131.47 118.81 131.47 124.85 117.57 124.85 117.57 133.41 129.14 133.41 129.14 139.47 117.57 139.47 117.57 152.62 109.67 152.62 109.67 118.81 131.47 118.81 131.47 118.81"/><polygon class="cls-2" points="162.28 118.81 162.28 125.03 152.75 125.03 152.75 152.62 144.9 152.62 144.9 125.03 135.37 125.03 135.37 118.81 162.28 118.81 162.28 118.81"/><path class="cls-2" d="M184,139c.29.64.56,1.29.83,1.95.26-.68.54-1.34.83-2s.6-1.27.91-1.87l8.69-17.1a3.42,3.42,0,0,1,.48-.69,1.6,1.6,0,0,1,.54-.36,2.12,2.12,0,0,1,.69-.11h6.89v33.78H197V133.18c0-1,0-2,.13-3.07l-9,17.39a3,3,0,0,1-1.12,1.23,3.22,3.22,0,0,1-1.62.41h-1.07a3.19,3.19,0,0,1-1.61-.41,3,3,0,0,1-1.13-1.23l-9-17.41c.06.54.11,1.08.14,1.62s.05,1,.05,1.47v19.44h-6.93V118.84h6.89a2.08,2.08,0,0,1,.69.11,1.74,1.74,0,0,1,.55.36,3.06,3.06,0,0,1,.47.69l8.72,17.17c.31.58.61,1.2.89,1.83Z"/><path class="cls-2" d="M219.5,139.7h9.25l-3.12-9.26c-.2-.59-.43-1.28-.71-2.08s-.53-1.65-.8-2.58c-.24.94-.5,1.81-.76,2.62s-.52,1.5-.75,2.09l-3.11,9.21Zm21.75,12.92h-6.09a2.78,2.78,0,0,1-1.68-.47,2.41,2.41,0,0,1-.92-1.22l-2-5.89H217.69l-2,5.89a2.68,2.68,0,0,1-.91,1.17,2.6,2.6,0,0,1-1.65.52H207l13.1-33.81h8l13.11,33.81Z"/><path class="cls-2" d="M253.06,134.71h3.16a7.93,7.93,0,0,0,2.73-.41,4.89,4.89,0,0,0,1.84-1.12,4.34,4.34,0,0,0,1-1.68,6.43,6.43,0,0,0,.33-2.08,4.34,4.34,0,0,0-1.46-3.48,6.72,6.72,0,0,0-4.49-1.25h-3.16v10Zm0,5.41v12.5H245.2V118.81h11a22.75,22.75,0,0,1,6.26.76,11.64,11.64,0,0,1,4.23,2.1,8,8,0,0,1,2.38,3.18,10.42,10.42,0,0,1,.74,4,10.53,10.53,0,0,1-.44,3.11,9.26,9.26,0,0,1-1.31,2.7,10,10,0,0,1-2.14,2.22,11.3,11.3,0,0,1-2.91,1.6,7.48,7.48,0,0,1,1.47,1,5.76,5.76,0,0,1,1.2,1.42l7.2,11.76h-7.11a3,3,0,0,1-2.83-1.48l-5.63-9.82a2.36,2.36,0,0,0-.87-.92,2.85,2.85,0,0,0-1.4-.28Z"/><path class="cls-2" d="M285.17,132.51h1.26a2.87,2.87,0,0,0,2.51-1.09l7.62-11a3.29,3.29,0,0,1,1.43-1.23,5.15,5.15,0,0,1,2-.33h6.84l-10,13.67a6.44,6.44,0,0,1-1.12,1.23,7.18,7.18,0,0,1-1.18.82,5.66,5.66,0,0,1,2.95,2.41l10.22,15.68h-7a6.31,6.31,0,0,1-1.15-.09,2.73,2.73,0,0,1-.82-.28,2.47,2.47,0,0,1-.61-.45,4.31,4.31,0,0,1-.48-.61l-7.67-11.77a2.34,2.34,0,0,0-1.06-.92,4.77,4.77,0,0,0-1.73-.26h-1.91v14.38h-7.85V118.81h7.85v13.7Z"/><polygon class="cls-2" points="355.17 152.62 347.27 152.62 347.27 138.33 333.51 138.33 333.51 152.62 325.61 152.62 325.61 118.81 333.51 118.81 333.51 132.95 347.27 132.95 347.27 118.81 355.17 118.81 355.17 152.62 355.17 152.62"/><path class="cls-2" d="M387.33,135.71a14.77,14.77,0,0,0-.65-4.52,9.5,9.5,0,0,0-1.87-3.39,8.08,8.08,0,0,0-3-2.14,10.15,10.15,0,0,0-4-.74,10.34,10.34,0,0,0-4.05.74,8,8,0,0,0-3,2.14,9.5,9.5,0,0,0-1.87,3.39,16.08,16.08,0,0,0,0,9.05,9.46,9.46,0,0,0,1.87,3.4,7.9,7.9,0,0,0,3,2.13,10.71,10.71,0,0,0,4.05.73,10.52,10.52,0,0,0,4-.73,8,8,0,0,0,3-2.13,9.46,9.46,0,0,0,1.87-3.4,14.74,14.74,0,0,0,.65-4.53Zm8,0a18.22,18.22,0,0,1-1.26,6.82,16.7,16.7,0,0,1-3.57,5.49,16.36,16.36,0,0,1-5.54,3.65,20.15,20.15,0,0,1-14.4,0A16.59,16.59,0,0,1,365,148a16.39,16.39,0,0,1-3.57-5.49,18.95,18.95,0,0,1,0-13.64,16.15,16.15,0,0,1,3.57-5.48,16.56,16.56,0,0,1,5.57-3.64,20.08,20.08,0,0,1,14.4,0,16.15,16.15,0,0,1,9.11,9.13,18.15,18.15,0,0,1,1.26,6.8Z"/><path class="cls-2" d="M418.55,139c.29.64.56,1.29.83,1.95q.39-1,.84-2c.29-.65.59-1.27.9-1.87l8.69-17.1a3.42,3.42,0,0,1,.48-.69,1.54,1.54,0,0,1,.55-.36,2.06,2.06,0,0,1,.68-.11h6.89v33.78h-6.93V133.18c0-1,0-2,.15-3.07l-9,17.39a2.92,2.92,0,0,1-1.12,1.23,3.2,3.2,0,0,1-1.62.41h-1.06a3.2,3.2,0,0,1-1.62-.41,3,3,0,0,1-1.13-1.23l-9-17.41c.06.54.1,1.08.13,1.62s0,1,0,1.47v19.44h-6.92V118.84h6.88a2.08,2.08,0,0,1,.69.11,1.74,1.74,0,0,1,.55.36,3.06,3.06,0,0,1,.47.69l8.72,17.17c.31.58.61,1.2.89,1.83Z"/><polygon class="cls-2" points="467 118.81 467 124.85 453.1 124.85 453.1 132.74 463.74 132.74 463.74 138.54 453.1 138.54 453.1 146.59 467 146.59 467 152.62 445.2 152.62 445.2 118.81 467 118.81 467 118.81"/><path class="cls-2" d="M492.47,125.68a3,3,0,0,1-.74.84,1.58,1.58,0,0,1-1,.28,2.35,2.35,0,0,1-1.15-.34l-1.4-.75a11.9,11.9,0,0,0-1.78-.76,7.19,7.19,0,0,0-2.27-.33,4.88,4.88,0,0,0-3.29.94,3.18,3.18,0,0,0-1.08,2.54,2.31,2.31,0,0,0,.65,1.69,5.41,5.41,0,0,0,1.71,1.16,17.5,17.5,0,0,0,2.41.89c.91.28,1.84.58,2.78.91a24.07,24.07,0,0,1,2.78,1.17,9.2,9.2,0,0,1,2.41,1.72,7.78,7.78,0,0,1,1.71,2.54,8.93,8.93,0,0,1,.65,3.61,11.76,11.76,0,0,1-.81,4.38,10.26,10.26,0,0,1-2.36,3.57,11,11,0,0,1-3.81,2.39,14.3,14.3,0,0,1-5.15.87,16.37,16.37,0,0,1-3.22-.33,18.91,18.91,0,0,1-3.17-.92,18.28,18.28,0,0,1-2.88-1.4,12.09,12.09,0,0,1-2.35-1.81l2.33-3.67a1.87,1.87,0,0,1,.72-.67,2,2,0,0,1,1-.25,2.58,2.58,0,0,1,1.4.44c.48.29,1,.62,1.61,1a13.06,13.06,0,0,0,2.05,1,7.85,7.85,0,0,0,2.75.44,5.27,5.27,0,0,0,3.32-.94,3.58,3.58,0,0,0,1.18-3,2.79,2.79,0,0,0-.65-1.93,5,5,0,0,0-1.7-1.23,16.81,16.81,0,0,0-2.41-.86c-.9-.25-1.82-.52-2.77-.82a20.46,20.46,0,0,1-2.76-1.12,8.77,8.77,0,0,1-2.41-1.74,8.09,8.09,0,0,1-1.7-2.69,10.51,10.51,0,0,1-.66-4,9.59,9.59,0,0,1,3-6.94,11.18,11.18,0,0,1,3.64-2.26,13.66,13.66,0,0,1,4.95-.85,19,19,0,0,1,3,.25,15.74,15.74,0,0,1,2.8.72,14.65,14.65,0,0,1,2.47,1.13,11,11,0,0,1,2.06,1.5l-1.95,3.64Z"/><polygon class="cls-2" points="495.05 94.03 5.53 94.03 5.53 91.45 495.05 91.45 495.05 94.03 495.05 94.03"/><text class="cls-3" transform="translate(0 67.31)">CROW</text><text class="cls-4" transform="translate(227.68 67.31)">N EA</text><text class="cls-5" transform="translate(407.86 67.31)">S</text><g class="cls-6"><text class="cls-5" transform="translate(450.5 67.31)">T</text></g></svg>