<svg xmlns="http://www.w3.org/2000/svg" xmlns:xlink="http://www.w3.org/1999/xlink" width="232" height="107" viewBox="0 0 232 107">
  <defs>
    <clipPath id="clip-B3_29">
      <rect width="232" height="107"/>
    </clipPath>
  </defs>
  <g id="B3_29" data-name="B3 – 29" clip-path="url(#clip-B3_29)">
    <g id="Group_41" data-name="Group 41" transform="translate(-134.058 -339.889)">
      <path id="Path_211" data-name="Path 211" d="M145.816,442.2a.751.751,0,0,1,.264.049.718.718,0,0,1,.253.171l1.475,1.551a6.117,6.117,0,0,1-2.427,1.911,8.5,8.5,0,0,1-3.452.643,8.225,8.225,0,0,1-3.274-.621,7.1,7.1,0,0,1-2.456-1.718,7.537,7.537,0,0,1-1.546-2.6,9.58,9.58,0,0,1-.539-3.263,8.589,8.589,0,0,1,.616-3.3,7.7,7.7,0,0,1,1.722-2.592,7.78,7.78,0,0,1,2.648-1.7,9.222,9.222,0,0,1,3.4-.606,8.7,8.7,0,0,1,1.7.159,8.344,8.344,0,0,1,1.492.441,7.049,7.049,0,0,1,1.277.671,6.212,6.212,0,0,1,1.035.865l-1.255,1.684a1.622,1.622,0,0,1-.286.281.746.746,0,0,1-.462.127.828.828,0,0,1-.375-.089,3.893,3.893,0,0,1-.374-.215l-.435-.275a3.335,3.335,0,0,0-.561-.275,4.629,4.629,0,0,0-.76-.214,5.157,5.157,0,0,0-1.018-.088,4.652,4.652,0,0,0-1.85.358,4.029,4.029,0,0,0-1.436,1.024,4.748,4.748,0,0,0-.936,1.612,6.317,6.317,0,0,0-.336,2.125,6.594,6.594,0,0,0,.336,2.19,4.811,4.811,0,0,0,.914,1.613,3.909,3.909,0,0,0,1.348,1,4.06,4.06,0,0,0,1.652.34,7.693,7.693,0,0,0,.924-.049,3.879,3.879,0,0,0,.777-.171,3.508,3.508,0,0,0,.682-.314,4.538,4.538,0,0,0,.655-.478,1.324,1.324,0,0,1,.286-.183.776.776,0,0,1,.32-.07Z" transform="translate(0 0.364)"/>
      <path id="Path_212" data-name="Path 212" d="M154.237,437.851h1.5a3.787,3.787,0,0,0,1.293-.193,2.32,2.32,0,0,0,.876-.534,2.034,2.034,0,0,0,.495-.8,3.053,3.053,0,0,0,.154-.985,2.065,2.065,0,0,0-.688-1.651,3.205,3.205,0,0,0-2.13-.594h-1.5v4.755Zm0,2.565v5.933h-3.721V430.31h5.218a10.692,10.692,0,0,1,2.967.358,5.583,5.583,0,0,1,2,1,3.772,3.772,0,0,1,1.128,1.507,5.018,5.018,0,0,1,.352,1.894,5.112,5.112,0,0,1-.209,1.476,4.462,4.462,0,0,1-.622,1.281,4.772,4.772,0,0,1-1.013,1.051,5.339,5.339,0,0,1-1.382.76,3.533,3.533,0,0,1,.7.462,2.791,2.791,0,0,1,.567.672l3.412,5.581H160.27a1.43,1.43,0,0,1-1.344-.7l-2.664-4.656a1.115,1.115,0,0,0-.413-.441,1.367,1.367,0,0,0-.666-.132Z" transform="translate(0 0.364)"/>
      <path id="Path_213" data-name="Path 213" d="M171.234,440.218h4.381l-1.475-4.392-.335-.985q-.193-.568-.38-1.228c-.117.447-.239.862-.363,1.243s-.243.713-.353.992l-1.475,4.37Zm10.3,6.131h-2.884a1.335,1.335,0,0,1-.8-.225,1.17,1.17,0,0,1-.435-.578l-.947-2.8h-6.1l-.947,2.8a1.256,1.256,0,0,1-.429.556,1.239,1.239,0,0,1-.782.247h-2.906l6.209-16.039h3.808l6.209,16.039Z" transform="translate(0 0.364)"/>
      <path id="Path_214" data-name="Path 214" d="M193.735,430.31v2.862h-6.583v4.062h5.483v2.874h-5.483v6.241H183.41V430.31Z" transform="translate(0.026 0.364)"/>
      <path id="Path_215" data-name="Path 215" d="M208.333,430.31v2.95h-4.514v13.089H200.1V433.26h-4.513v-2.95Z" transform="translate(0.032 0.364)"/>
      <path id="Path_216" data-name="Path 216" d="M218.631,439.886q.2.453.391.926c.124-.322.257-.637.4-.942s.282-.6.43-.887l4.117-8.111a1.318,1.318,0,0,1,.225-.324.735.735,0,0,1,.259-.171.893.893,0,0,1,.325-.055h3.264v16.027h-3.281v-9.225q0-.67.066-1.453l-4.249,8.246a1.408,1.408,0,0,1-.534.583,1.479,1.479,0,0,1-.765.2h-.506a1.474,1.474,0,0,1-.765-.2,1.41,1.41,0,0,1-.535-.583L213.2,435.66c.029.257.051.513.067.766s.021.486.021.7v9.225h-3.28V430.322h3.264a.9.9,0,0,1,.325.055.744.744,0,0,1,.259.171,1.346,1.346,0,0,1,.225.324l4.128,8.145q.219.417.424.869Z" transform="translate(0.041 0.364)"/>
      <path id="Path_217" data-name="Path 217" d="M235.435,440.218h4.382l-1.475-4.392q-.144-.42-.336-.985t-.38-1.228q-.176.67-.363,1.243t-.352.992l-1.476,4.37Zm10.305,6.131h-2.885a1.337,1.337,0,0,1-.8-.225,1.162,1.162,0,0,1-.434-.578l-.947-2.8h-6.1l-.948,2.8a1.272,1.272,0,0,1-1.211.8h-2.906l6.209-16.039h3.809l6.209,16.039Z" transform="translate(0.051 0.364)"/>
      <path id="Path_218" data-name="Path 218" d="M251.332,437.851h1.5a3.8,3.8,0,0,0,1.293-.193,2.316,2.316,0,0,0,.875-.534,2.022,2.022,0,0,0,.495-.8,3.026,3.026,0,0,0,.155-.985,2.065,2.065,0,0,0-.688-1.651,3.207,3.207,0,0,0-2.13-.594h-1.5v4.755Zm0,2.565v5.933h-3.721V430.31h5.219a10.684,10.684,0,0,1,2.966.358,5.583,5.583,0,0,1,2,1,3.772,3.772,0,0,1,1.128,1.507,5,5,0,0,1,.353,1.894,5.079,5.079,0,0,1-.21,1.476,4.437,4.437,0,0,1-.622,1.281,4.772,4.772,0,0,1-1.013,1.051,5.333,5.333,0,0,1-1.381.76,3.5,3.5,0,0,1,.7.462,2.817,2.817,0,0,1,.568.672l3.412,5.581h-3.368a1.428,1.428,0,0,1-1.344-.7l-2.664-4.656a1.117,1.117,0,0,0-.414-.441,1.365,1.365,0,0,0-.665-.132Z" transform="translate(0.06 0.364)"/>
      <path id="Path_219" data-name="Path 219" d="M266.546,436.806h.594a1.353,1.353,0,0,0,1.19-.518l3.61-5.24a1.547,1.547,0,0,1,.677-.584,2.5,2.5,0,0,1,.93-.154h3.237l-4.756,6.485a3.188,3.188,0,0,1-.528.583,3.3,3.3,0,0,1-.561.385,2.849,2.849,0,0,1,.764.423,2.793,2.793,0,0,1,.633.722l4.844,7.441h-3.324a2.929,2.929,0,0,1-.545-.043,1.4,1.4,0,0,1-.39-.132,1.112,1.112,0,0,1-.287-.215,2.04,2.04,0,0,1-.231-.291l-3.634-5.582a1.093,1.093,0,0,0-.5-.435,2.182,2.182,0,0,0-.82-.127h-.9v6.825h-3.721V430.31h3.721v6.5Z" transform="translate(0.068 0.364)"/>
      <path id="Path_220" data-name="Path 220" d="M299.7,446.349H295.96v-6.781h-6.517v6.781H285.7V430.31h3.743v6.7h6.517v-6.7H299.7v16.039Z" transform="translate(0.08 0.364)"/>
      <path id="Path_221" data-name="Path 221" d="M314.94,438.325a6.958,6.958,0,0,0-.31-2.142,4.57,4.57,0,0,0-.885-1.612,3.825,3.825,0,0,0-1.416-1.013,4.846,4.846,0,0,0-1.9-.352,4.921,4.921,0,0,0-1.921.352,3.807,3.807,0,0,0-1.42,1.013,4.54,4.54,0,0,0-.886,1.612,7.634,7.634,0,0,0,0,4.293,4.511,4.511,0,0,0,.886,1.613,3.762,3.762,0,0,0,1.42,1.008,5.015,5.015,0,0,0,1.921.346,4.938,4.938,0,0,0,1.9-.346,3.78,3.78,0,0,0,1.416-1.008,4.54,4.54,0,0,0,.885-1.613,6.981,6.981,0,0,0,.31-2.151Zm3.808,0a8.663,8.663,0,0,1-.6,3.236,7.636,7.636,0,0,1-4.316,4.337,9.584,9.584,0,0,1-6.819,0,7.8,7.8,0,0,1-2.637-1.733,7.72,7.72,0,0,1-1.694-2.6,9.015,9.015,0,0,1,0-6.473,7.666,7.666,0,0,1,1.694-2.6,7.838,7.838,0,0,1,2.637-1.729,8.97,8.97,0,0,1,3.412-.627,8.859,8.859,0,0,1,3.407.633,7.877,7.877,0,0,1,2.627,1.734,7.78,7.78,0,0,1,1.689,2.6,8.629,8.629,0,0,1,.6,3.226Z" transform="translate(0.09 0.364)"/>
      <path id="Path_222" data-name="Path 222" d="M329.729,439.886c.134.3.265.61.39.926.124-.322.257-.637.4-.942s.282-.6.428-.887l4.118-8.111a1.292,1.292,0,0,1,.226-.324.719.719,0,0,1,.257-.171.9.9,0,0,1,.326-.055h3.264v16.027h-3.281v-9.225q0-.67.067-1.453l-4.25,8.246a1.4,1.4,0,0,1-.534.583,1.476,1.476,0,0,1-.765.2h-.506a1.483,1.483,0,0,1-.766-.2,1.415,1.415,0,0,1-.534-.583l-4.27-8.257c.029.257.05.513.065.766s.022.486.022.7v9.225H321.1V430.322h3.264a.9.9,0,0,1,.325.055.732.732,0,0,1,.258.171,1.346,1.346,0,0,1,.226.324l4.129,8.145q.219.417.424.869Z" transform="translate(0.116 0.364)"/>
      <path id="Path_223" data-name="Path 223" d="M352.676,430.31v2.862h-6.584v3.743h5.041v2.753h-5.041v3.82h6.584v2.862H342.35V430.31Z" transform="translate(0.116 0.364)"/>
      <path id="Path_224" data-name="Path 224" d="M364.741,433.568a1.388,1.388,0,0,1-.347.4.776.776,0,0,1-.468.132,1.145,1.145,0,0,1-.544-.159c-.195-.107-.415-.226-.661-.359a5.655,5.655,0,0,0-.843-.357,3.372,3.372,0,0,0-1.078-.16,2.323,2.323,0,0,0-1.558.446,1.515,1.515,0,0,0-.512,1.206,1.111,1.111,0,0,0,.308.8,2.664,2.664,0,0,0,.81.551,8.72,8.72,0,0,0,1.144.424c.431.128.869.271,1.317.428a12.159,12.159,0,0,1,1.315.557,4.357,4.357,0,0,1,1.144.814,3.772,3.772,0,0,1,.81,1.206,4.277,4.277,0,0,1,.308,1.712,5.574,5.574,0,0,1-.386,2.08,4.866,4.866,0,0,1-1.117,1.69,5.2,5.2,0,0,1-1.8,1.134,6.759,6.759,0,0,1-2.438.412,7.789,7.789,0,0,1-1.525-.154,8.976,8.976,0,0,1-1.5-.435,8.672,8.672,0,0,1-1.365-.665,5.771,5.771,0,0,1-1.112-.859l1.1-1.739a.877.877,0,0,1,.339-.319.971.971,0,0,1,.475-.122,1.263,1.263,0,0,1,.665.209c.225.14.477.294.76.463a6.11,6.11,0,0,0,.975.462,3.657,3.657,0,0,0,1.3.21,2.473,2.473,0,0,0,1.575-.447,1.7,1.7,0,0,0,.561-1.414,1.343,1.343,0,0,0-.308-.914,2.394,2.394,0,0,0-.809-.583,7.449,7.449,0,0,0-1.139-.407c-.427-.118-.863-.248-1.311-.391a9.711,9.711,0,0,1-1.311-.529,4.114,4.114,0,0,1-1.137-.825,3.867,3.867,0,0,1-.811-1.277,5.086,5.086,0,0,1-.307-1.889,4.46,4.46,0,0,1,.363-1.76,4.528,4.528,0,0,1,1.068-1.53,5.263,5.263,0,0,1,1.728-1.075,6.4,6.4,0,0,1,2.344-.4,8.8,8.8,0,0,1,1.438.116,7.422,7.422,0,0,1,1.326.341,7.262,7.262,0,0,1,1.172.539,5.385,5.385,0,0,1,.974.71l-.924,1.728Z" transform="translate(0.116 0.364)"/>
      <path id="Path_225" data-name="Path 225" d="M366.058,418.552h-232v-1.224h232v1.224Z" transform="translate(0 0.267)"/>
      <path id="Path_226" data-name="Path 226" d="M143.493,359.576a12.681,12.681,0,0,0,4.22-.657,9.35,9.35,0,0,0,3.172-1.82,7.913,7.913,0,0,0,2-2.742,8.477,8.477,0,0,0,.7-3.45,8,8,0,0,0-2.527-6.343q-2.527-2.223-7.556-2.224h-6.647v17.236Zm0-19.283q6.293,0,9.489,2.755t3.2,7.859a10.446,10.446,0,0,1-.884,4.322,9.741,9.741,0,0,1-2.527,3.4,11.772,11.772,0,0,1-3.993,2.224,16.4,16.4,0,0,1-5.282.8h-6.647v14.4h-2.6v-35.76Z"/>
      <path id="Path_227" data-name="Path 227" d="M172.252,357.958a14.724,14.724,0,0,0,4.258-.568,9.18,9.18,0,0,0,3.184-1.63,7.041,7.041,0,0,0,1.984-2.553,7.985,7.985,0,0,0,.683-3.361,6.584,6.584,0,0,0-2.49-5.661q-2.488-1.845-7.266-1.845H166.06v15.618Zm15.87,18.1H185.9a1.661,1.661,0,0,1-.721-.139,1.417,1.417,0,0,1-.543-.518L173.161,360.89a3.467,3.467,0,0,0-.416-.48,1.65,1.65,0,0,0-.481-.316,2.426,2.426,0,0,0-.631-.164,6.675,6.675,0,0,0-.9-.051H166.06v16.174h-2.6v-35.76H172.6q6.167,0,9.238,2.388a8.343,8.343,0,0,1,3.07,7.013,9.606,9.606,0,0,1-.708,3.741,8.752,8.752,0,0,1-2.034,2.969,10.61,10.61,0,0,1-3.21,2.085,15.166,15.166,0,0,1-4.233,1.087,4.075,4.075,0,0,1,1.087,1.011l12.307,15.466Z"/>
      <path id="Path_228" data-name="Path 228" d="M215.618,373.905l-.05,2.148H194.137v-35.76h21.431v2.148H196.74V356.9h15.669v2.1H196.74v14.911Z" transform="translate(0.033)"/>
      <path id="Path_229" data-name="Path 229" d="M240.814,344.64a.715.715,0,0,1-.657.43,1.454,1.454,0,0,1-.847-.468,10.846,10.846,0,0,0-3.614-2.085,11.1,11.1,0,0,0-6.7.076,7.143,7.143,0,0,0-2.476,1.516,6.438,6.438,0,0,0-1.516,2.224,6.92,6.92,0,0,0-.519,2.654,5.421,5.421,0,0,0,.771,3.007,6.939,6.939,0,0,0,2.034,2.022,13.176,13.176,0,0,0,2.869,1.4q1.6.568,3.3,1.125t3.3,1.226a11.91,11.91,0,0,1,2.868,1.68,7.718,7.718,0,0,1,2.034,2.49,7.891,7.891,0,0,1,.771,3.677,11.582,11.582,0,0,1-.771,4.233,9.864,9.864,0,0,1-2.236,3.449,10.5,10.5,0,0,1-3.589,2.313,13.024,13.024,0,0,1-4.852.846,13.714,13.714,0,0,1-6.091-1.25,14.369,14.369,0,0,1-4.473-3.425l.708-1.112a.89.89,0,0,1,.707-.379,1.013,1.013,0,0,1,.582.3q.353.3.859.746t1.213.96a10,10,0,0,0,1.643.961,11.606,11.606,0,0,0,2.148.745,11.4,11.4,0,0,0,2.755.3,10.447,10.447,0,0,0,3.79-.644,8.3,8.3,0,0,0,2.819-1.757,7.471,7.471,0,0,0,1.756-2.64,8.807,8.807,0,0,0,.606-3.273,5.768,5.768,0,0,0-.771-3.121,6.641,6.641,0,0,0-2.034-2.047,13.125,13.125,0,0,0-2.868-1.378q-1.606-.555-3.3-1.086t-3.3-1.188a11.334,11.334,0,0,1-2.868-1.681,7.682,7.682,0,0,1-2.034-2.552,8.465,8.465,0,0,1-.771-3.829,9.076,9.076,0,0,1,.682-3.462,8.616,8.616,0,0,1,2-2.944,9.8,9.8,0,0,1,3.247-2.047,11.833,11.833,0,0,1,4.411-.771,13.359,13.359,0,0,1,4.991.884,11.965,11.965,0,0,1,4.03,2.7l-.606,1.163Z" transform="translate(0.048)"/>
      <path id="Path_230" data-name="Path 230" d="M271.974,373.905l-.051,2.148h-21.43v-35.76h21.43v2.148H253.1V356.9h15.669v2.1H253.1v14.911Z" transform="translate(0.064)"/>
      <path id="Path_231" data-name="Path 231" d="M288.6,357.958a14.726,14.726,0,0,0,4.259-.568,9.194,9.194,0,0,0,3.185-1.63,7.049,7.049,0,0,0,1.983-2.553,7.984,7.984,0,0,0,.682-3.361,6.584,6.584,0,0,0-2.489-5.661q-2.488-1.845-7.265-1.845h-6.546v15.618Zm15.872,18.1h-2.225a1.652,1.652,0,0,1-.719-.139,1.412,1.412,0,0,1-.544-.518L289.513,360.89a3.541,3.541,0,0,0-.417-.48,1.659,1.659,0,0,0-.48-.316,2.445,2.445,0,0,0-.632-.164,6.676,6.676,0,0,0-.9-.051h-4.675v16.174h-2.6v-35.76h9.149q6.165,0,9.237,2.388a8.343,8.343,0,0,1,3.07,7.013,9.624,9.624,0,0,1-.707,3.741,8.783,8.783,0,0,1-2.035,2.969,10.63,10.63,0,0,1-3.209,2.085,15.184,15.184,0,0,1-4.233,1.087,4.086,4.086,0,0,1,1.086,1.011l12.308,15.466Z" transform="translate(0.081)"/>
      <path id="Path_232" data-name="Path 232" d="M338.035,340.293l-14.759,35.76h-2.3l-14.759-35.76h2.047a.872.872,0,0,1,.581.19,1.248,1.248,0,0,1,.354.492l12.181,29.67q.2.557.4,1.188t.379,1.289q.152-.657.328-1.289a10.866,10.866,0,0,1,.4-1.188l12.156-29.67a1.086,1.086,0,0,1,.353-.48.947.947,0,0,1,.607-.2Z" transform="translate(0.116)"/>
      <path id="Path_233" data-name="Path 233" d="M365.454,373.905l-.051,2.148H343.973v-35.76H365.4v2.148H346.576V356.9h15.669v2.1H346.576v14.911Z" transform="translate(0.116)"/>
      <path id="Path_234" data-name="Path 234" d="M177.122,399.909l-3.348-8.312a8.474,8.474,0,0,1-.337-.977c-.046.186-.1.363-.151.529a4.612,4.612,0,0,1-.174.459l-3.348,8.3Zm3.639,5.975h-.918a.405.405,0,0,1-.268-.087.574.574,0,0,1-.162-.227l-1.93-4.778H169.4l-1.929,4.778a.507.507,0,0,1-.163.221.435.435,0,0,1-.279.093h-.907l6.731-16.45h1.174l6.731,16.45Z" transform="translate(0 0.2)"/>
      <path id="Path_235" data-name="Path 235" d="M191.63,390.446h-5.778v15.438h-1.2V390.446h-5.813v-1.011H191.63v1.011Z" transform="translate(0.024 0.2)"/>
      <path id="Path_236" data-name="Path 236" d="M221.089,389.434l-5.174,16.45h-1.069l-4.86-14.276c-.061-.193-.116-.395-.162-.6-.047.209-.1.411-.163.6l-4.871,14.276h-1.058l-5.185-16.45h.989a.407.407,0,0,1,.43.314l4.15,13.52q.128.465.232,1.058c.039-.2.077-.389.116-.563a4.5,4.5,0,0,1,.14-.495l4.65-13.52a.5.5,0,0,1,.163-.221.433.433,0,0,1,.279-.093h.326a.4.4,0,0,1,.267.087.574.574,0,0,1,.162.227l4.65,13.52a4.013,4.013,0,0,1,.146.489q.063.267.122.558l.111-.552c.034-.175.071-.339.11-.495l4.15-13.52a.42.42,0,0,1,.157-.221.455.455,0,0,1,.285-.093Z" transform="translate(0.036 0.2)"/>
      <path id="Path_237" data-name="Path 237" d="M233.958,404.9l-.023.988h-9.858v-16.45h9.858v.988h-8.661v6.65h7.208v.965h-7.208V404.9Z" transform="translate(0.047 0.2)"/>
      <path id="Path_238" data-name="Path 238" d="M245.083,391.434a.329.329,0,0,1-.3.2.666.666,0,0,1-.39-.216,5.019,5.019,0,0,0-1.662-.959,5.1,5.1,0,0,0-3.081.035,3.294,3.294,0,0,0-1.14.7,2.961,2.961,0,0,0-.7,1.023,3.18,3.18,0,0,0-.238,1.22,2.493,2.493,0,0,0,.355,1.384,3.2,3.2,0,0,0,.935.93,6.047,6.047,0,0,0,1.32.645q.738.261,1.517.517t1.517.564a5.48,5.48,0,0,1,1.319.773,3.541,3.541,0,0,1,.936,1.145,3.626,3.626,0,0,1,.355,1.692,5.313,5.313,0,0,1-.355,1.947,4.532,4.532,0,0,1-1.029,1.587,4.836,4.836,0,0,1-1.65,1.064,6,6,0,0,1-2.232.389,6.3,6.3,0,0,1-2.8-.576,6.582,6.582,0,0,1-2.058-1.575l.326-.511a.41.41,0,0,1,.325-.175.469.469,0,0,1,.268.14q.162.14.4.343t.558.441a4.5,4.5,0,0,0,.756.442,5.3,5.3,0,0,0,.988.343,5.235,5.235,0,0,0,1.267.14,4.828,4.828,0,0,0,1.744-.3,3.816,3.816,0,0,0,1.3-.809,3.438,3.438,0,0,0,.808-1.214,4.048,4.048,0,0,0,.279-1.506,2.651,2.651,0,0,0-.355-1.436,3.055,3.055,0,0,0-.936-.941,6.04,6.04,0,0,0-1.319-.634q-.739-.255-1.517-.5t-1.518-.546a5.232,5.232,0,0,1-1.319-.773,3.537,3.537,0,0,1-.935-1.174,3.886,3.886,0,0,1-.355-1.761,4.17,4.17,0,0,1,.314-1.593,3.96,3.96,0,0,1,.918-1.355,4.51,4.51,0,0,1,1.494-.941,5.432,5.432,0,0,1,2.029-.355,6.148,6.148,0,0,1,2.3.407,5.5,5.5,0,0,1,1.854,1.244l-.279.535Z" transform="translate(0.053 0.2)"/>
      <path id="Path_239" data-name="Path 239" d="M260.23,390.446h-5.778v15.438h-1.2V390.446h-5.813v-1.011H260.23v1.011Z" transform="translate(0.06 0.2)"/>
      <path id="Path_240" data-name="Path 240" d="M264.194,390.422v6.917h7.5v.988h-7.5v7.556H263v-16.45h9.858v.988Z" transform="translate(0.067 0.2)"/>
      <path id="Path_241" data-name="Path 241" d="M277.319,405.884h-1.2v-16.45h1.2v16.45Z" transform="translate(0.071 0.2)"/>
      <path id="Path_242" data-name="Path 242" d="M292.06,404.9l-.023.988h-9.858v-16.45h9.858v.988h-8.661v6.65h7.208v.965h-7.208V404.9Z" transform="translate(0.077 0.2)"/>
      <path id="Path_243" data-name="Path 243" d="M304.649,404.873v1.011h-8.986v-16.45h1.2v15.438Z" transform="translate(0.084 0.2)"/>
      <path id="Path_244" data-name="Path 244" d="M320.053,397.653a9.176,9.176,0,0,0-.477-3.069,6.388,6.388,0,0,0-1.348-2.278,5.753,5.753,0,0,0-2.093-1.418,7.189,7.189,0,0,0-2.7-.489h-4.812v14.52h4.812a7.208,7.208,0,0,0,2.7-.488,5.765,5.765,0,0,0,2.093-1.418,6.4,6.4,0,0,0,1.348-2.279,9.211,9.211,0,0,0,.477-3.081Zm1.232,0a9.75,9.75,0,0,1-.569,3.43,7.407,7.407,0,0,1-1.605,2.592,6.929,6.929,0,0,1-2.481,1.639,8.644,8.644,0,0,1-3.192.57h-6.01v-16.45h6.01a8.644,8.644,0,0,1,3.192.57,6.943,6.943,0,0,1,2.481,1.639,7.4,7.4,0,0,1,1.605,2.593,9.711,9.711,0,0,1,.569,3.417Z" transform="translate(0.092 0.2)"/>
      <path id="Path_245" data-name="Path 245" d="M332.154,391.434a.327.327,0,0,1-.3.2.672.672,0,0,1-.39-.216,5.022,5.022,0,0,0-.644-.476,5.078,5.078,0,0,0-1.018-.483,5.1,5.1,0,0,0-3.081.035,3.284,3.284,0,0,0-1.138.7,2.937,2.937,0,0,0-.7,1.023,3.18,3.18,0,0,0-.238,1.22,2.493,2.493,0,0,0,.354,1.384,3.192,3.192,0,0,0,.936.93,6.061,6.061,0,0,0,1.319.645q.738.261,1.517.517t1.517.564a5.486,5.486,0,0,1,1.32.773,3.553,3.553,0,0,1,.936,1.145,3.639,3.639,0,0,1,.354,1.692,5.333,5.333,0,0,1-.354,1.947,4.56,4.56,0,0,1-1.029,1.587,4.85,4.85,0,0,1-1.651,1.064,6,6,0,0,1-2.232.389,6.3,6.3,0,0,1-2.8-.576,6.583,6.583,0,0,1-2.058-1.575l.325-.511a.411.411,0,0,1,.326-.175.464.464,0,0,1,.267.14l.4.343q.231.2.558.441a4.487,4.487,0,0,0,.755.442,5.324,5.324,0,0,0,.988.343,5.236,5.236,0,0,0,1.267.14,4.828,4.828,0,0,0,1.744-.3,3.82,3.82,0,0,0,1.3-.809,3.436,3.436,0,0,0,.807-1.214,4.047,4.047,0,0,0,.279-1.506,2.66,2.66,0,0,0-.354-1.436,3.066,3.066,0,0,0-.936-.941,6.063,6.063,0,0,0-1.319-.634q-.74-.255-1.518-.5t-1.517-.546a5.231,5.231,0,0,1-1.319-.773,3.527,3.527,0,0,1-.936-1.174,3.887,3.887,0,0,1-.354-1.761,4.168,4.168,0,0,1,.313-1.593,3.977,3.977,0,0,1,.919-1.355,4.516,4.516,0,0,1,1.493-.941,5.435,5.435,0,0,1,2.029-.355,6.141,6.141,0,0,1,2.3.407,5.5,5.5,0,0,1,1.854,1.244l-.279.535Z" transform="translate(0.116 0.2)"/>
    </g>
  </g>
</svg>
