<svg xmlns="http://www.w3.org/2000/svg" xmlns:xlink="http://www.w3.org/1999/xlink" width="243" height="136" viewBox="0 0 243 136">
  <defs>
    <clipPath id="clip-path">
      <rect id="Rectangle_59" data-name="Rectangle 59" width="243" height="136" fill="#172230"/>
    </clipPath>
    <clipPath id="clip-B3">
      <rect width="243" height="136"/>
    </clipPath>
  </defs>
  <g id="B3" clip-path="url(#clip-B3)">
    <g id="Group_106" data-name="Group 106">
      <rect id="Rectangle_58" data-name="Rectangle 58" width="242.817" height="1.282" transform="translate(0 107.954)" fill="#172230"/>
      <g id="Group_100" data-name="Group 100">
        <g id="Group_99" data-name="Group 99" clip-path="url(#clip-path)">
          <path id="Path_1143" data-name="Path 1143" d="M163.532,483.479c.2-.552.267-.652.367-.652s.167.084.367.6c.25.636,2.87,7.544,3.888,10.087.6,1.489,1.085,1.756,1.435,1.856a2.154,2.154,0,0,0,.668.1c.1,0,.167.017.167.1,0,.1-.15.134-.334.134-.25,0-1.468,0-2.62-.033-.317-.017-.5-.017-.5-.117,0-.067.05-.1.117-.117.1-.033.2-.184.1-.451l-1.552-4.115a.146.146,0,0,0-.15-.1H161.9a.175.175,0,0,0-.167.134l-1,2.961a3.543,3.543,0,0,0-.233,1.121c0,.335.35.485.634.485h.167c.117,0,.167.034.167.1,0,.1-.1.134-.25.134-.4,0-1.118-.05-1.3-.05s-1.1.05-1.886.05c-.217,0-.318-.033-.318-.134,0-.067.067-.1.151-.1.116,0,.35-.017.484-.034.767-.1,1.1-.736,1.4-1.572Zm1.735,6.691c.084,0,.084-.05.067-.117l-1.586-4.516q-.125-.376-.25,0l-1.468,4.516c-.034.084,0,.117.05.117Z" transform="translate(-130.713 -399.993)" fill="#172230"/>
          <path id="Path_1144" data-name="Path 1144" d="M237.615,490.856c0,1.606,0,2.927.084,3.63.05.485.15.853.651.92a7.333,7.333,0,0,0,.751.067c.1,0,.133.05.133.1,0,.084-.084.134-.267.134-.918,0-1.969-.05-2.053-.05s-1.135.05-1.635.05c-.184,0-.267-.033-.267-.134,0-.051.034-.1.134-.1a2.6,2.6,0,0,0,.5-.067c.333-.067.417-.435.484-.92.084-.7.084-2.024.084-3.63V483.78l-2.47.034c-1.035.016-1.436.134-1.7.535a2.937,2.937,0,0,0-.283.519c-.05.134-.1.167-.167.167-.05,0-.084-.05-.084-.15,0-.167.334-1.606.367-1.74.034-.1.1-.318.167-.318a3.1,3.1,0,0,0,.734.2c.484.05,1.118.084,1.318.084h6.258a6.682,6.682,0,0,0,1.185-.084c.25-.033.4-.084.467-.084.083,0,.083.1.083.2,0,.5-.05,1.656-.05,1.84,0,.151-.05.218-.117.218-.083,0-.117-.05-.133-.285l-.017-.184c-.05-.5-.451-.886-2.053-.92l-2.1-.034Z" transform="translate(-191.881 -399.993)" fill="#172230"/>
          <path id="Path_1145" data-name="Path 1145" d="M351,494.134a6.415,6.415,0,0,1-2.019-4.951,6.3,6.3,0,0,1,6.959-6.356,14.284,14.284,0,0,1,2.42.2,14.469,14.469,0,0,0,1.7.251c.184.017.217.084.217.184,0,.133-.05.335-.083.936-.033.552-.033,1.472-.05,1.723s-.05.351-.15.351c-.117,0-.133-.117-.133-.351a2.318,2.318,0,0,0-.7-1.707,5.548,5.548,0,0,0-3.338-.953,5.087,5.087,0,0,0-3.839,1.221,5.605,5.605,0,0,0-1.5,4.366,6.034,6.034,0,0,0,6.024,6.122,3.836,3.836,0,0,0,2.9-.837,3.193,3.193,0,0,0,.618-1.405c.033-.184.067-.251.166-.251.083,0,.117.117.117.251a17.388,17.388,0,0,1-.367,2.141c-.1.318-.134.351-.434.485a9.643,9.643,0,0,1-3,.385A7.69,7.69,0,0,1,351,494.134" transform="translate(-289.243 -399.993)" fill="#172230"/>
          <path id="Path_1146" data-name="Path 1146" d="M431.712,483.479c.2-.552.267-.652.367-.652s.167.084.367.6c.25.636,2.87,7.544,3.888,10.087.6,1.489,1.085,1.756,1.435,1.856a2.154,2.154,0,0,0,.668.1c.1,0,.167.017.167.1,0,.1-.15.134-.334.134-.25,0-1.468,0-2.62-.033-.317-.017-.5-.017-.5-.117,0-.067.05-.1.117-.117.1-.033.2-.184.1-.451l-1.552-4.115a.146.146,0,0,0-.15-.1h-3.588a.175.175,0,0,0-.166.134l-1,2.961a3.544,3.544,0,0,0-.233,1.121c0,.335.35.485.634.485h.167c.117,0,.167.034.167.1,0,.1-.1.134-.25.134-.4,0-1.119-.05-1.3-.05s-1.1.05-1.886.05c-.217,0-.318-.033-.318-.134,0-.067.067-.1.151-.1.116,0,.35-.017.484-.034.767-.1,1.1-.736,1.4-1.572Zm1.735,6.691c.084,0,.084-.05.067-.117l-1.585-4.516q-.125-.376-.25,0l-1.468,4.516c-.034.084,0,.117.05.117Z" transform="translate(-352.989 -399.993)" fill="#172230"/>
          <path id="Path_1147" data-name="Path 1147" d="M514.4,489.043c0-2.61,0-3.078-.034-3.613-.033-.569-.167-.837-.718-.954a3.144,3.144,0,0,0-.567-.05c-.067,0-.133-.034-.133-.1,0-.1.083-.133.267-.133.751,0,1.8.05,1.886.05.4,0,1.052-.05,1.819-.05,2.737,0,3.338,1.672,3.338,2.509a4.217,4.217,0,0,1-1.569,3.011,3.9,3.9,0,0,1,2.887,3.529c0,1.79-1.4,3.647-4.256,3.647-.183,0-.717-.034-1.2-.05-.484-.033-.951-.05-1.018-.05-.033,0-.317,0-.668.017-.334,0-.718.033-.968.033-.184,0-.267-.033-.267-.134,0-.05.034-.1.134-.1a2.6,2.6,0,0,0,.5-.067c.334-.067.417-.435.484-.92.083-.7.083-2.024.083-3.63Zm1.335.368c0,.117.033.15.117.184a5.886,5.886,0,0,0,1.018.067c.934,0,1.168-.033,1.518-.435a2.589,2.589,0,0,0,.6-1.69c0-1.388-.618-2.877-2.253-2.877a3.733,3.733,0,0,0-.8.084c-.15.034-.2.084-.2.184Zm0,1.773c0,1.288,0,3.362.016,3.613.05.82.05,1.054.567,1.3a3.923,3.923,0,0,0,1.469.251,2.229,2.229,0,0,0,2.353-2.375,4.011,4.011,0,0,0-1.619-3.346,2.761,2.761,0,0,0-1.385-.485c-.217-.033-1.052-.033-1.3-.033-.067,0-.1.033-.1.117Z" transform="translate(-425.147 -401.123)" fill="#172230"/>
          <path id="Path_1148" data-name="Path 1148" d="M589.591,491.986c0,1.606,0,2.927.084,3.63.05.485.15.853.651.92a7.365,7.365,0,0,0,.751.067c.1,0,.133.05.133.1,0,.084-.083.134-.267.134-.917,0-1.969-.05-2.053-.05s-1.135.05-1.635.05c-.184,0-.267-.033-.267-.134,0-.051.034-.1.134-.1a2.6,2.6,0,0,0,.5-.067c.334-.067.417-.435.484-.92.083-.7.083-2.024.083-3.63v-2.944c0-2.61,0-3.078-.034-3.613-.033-.569-.2-.853-.567-.937a2.2,2.2,0,0,0-.517-.067c-.067,0-.133-.034-.133-.1,0-.1.083-.134.267-.134.551,0,1.6.05,1.686.05s1.135-.05,1.635-.05c.184,0,.267.033.267.134,0,.067-.067.1-.133.1a2.5,2.5,0,0,0-.417.05c-.451.084-.584.368-.618.954-.033.535-.033,1-.033,3.613Z" transform="translate(-486.473 -401.123)" fill="#172230"/>
          <path id="Path_1149" data-name="Path 1149" d="M635.853,493.432c.034,1.371.2,1.807.651,1.94a3.661,3.661,0,0,0,.835.1c.083,0,.134.034.134.1,0,.1-.1.134-.3.134-.951,0-1.619-.05-1.769-.05s-.851.05-1.6.05c-.167,0-.267-.017-.267-.134,0-.067.05-.1.133-.1a2.394,2.394,0,0,0,.684-.1c.417-.117.5-.6.5-2.124l.016-9.585c0-.652.05-.836.184-.836s.417.368.584.535c.25.284,2.737,2.977,5.307,5.737,1.652,1.773,3.471,3.814,4.006,4.366l-.184-8.5c-.017-1.087-.133-1.456-.651-1.589a4.443,4.443,0,0,0-.818-.084c-.117,0-.134-.05-.134-.117,0-.1.134-.117.334-.117.751,0,1.552.05,1.736.05s.734-.05,1.419-.05c.184,0,.3.016.3.117,0,.067-.067.117-.183.117a1.477,1.477,0,0,0-.4.05c-.551.117-.617.485-.617,1.489l-.034,9.8c0,1.1-.033,1.188-.15,1.188-.133,0-.334-.184-1.218-1.07-.184-.167-2.587-2.626-4.356-4.533-1.936-2.091-3.822-4.2-4.356-4.8Z" transform="translate(-525.094 -399.993)" fill="#172230"/>
          <path id="Path_1150" data-name="Path 1150" d="M776.048,489.043c0-2.61,0-3.078-.034-3.613-.033-.569-.167-.837-.717-.954a3.144,3.144,0,0,0-.567-.05c-.067,0-.133-.034-.133-.1,0-.1.083-.133.267-.133.751,0,1.8.05,1.886.05.4,0,1.052-.05,1.819-.05,2.737,0,3.338,1.672,3.338,2.509a4.217,4.217,0,0,1-1.569,3.011,3.9,3.9,0,0,1,2.887,3.529c0,1.79-1.4,3.647-4.256,3.647-.183,0-.717-.034-1.2-.05-.484-.033-.952-.05-1.018-.05-.033,0-.317,0-.668.017-.333,0-.717.033-.968.033-.184,0-.267-.033-.267-.134,0-.05.034-.1.134-.1a2.6,2.6,0,0,0,.5-.067c.334-.067.417-.435.484-.92.083-.7.083-2.024.083-3.63Zm1.335.368c0,.117.033.15.117.184a5.888,5.888,0,0,0,1.018.067c.934,0,1.168-.033,1.518-.435a2.589,2.589,0,0,0,.6-1.69c0-1.388-.617-2.877-2.253-2.877a3.733,3.733,0,0,0-.8.084c-.15.034-.2.084-.2.184Zm0,1.773c0,1.288,0,3.362.016,3.613.05.82.05,1.054.567,1.3a3.923,3.923,0,0,0,1.469.251,2.229,2.229,0,0,0,2.353-2.375,4.012,4.012,0,0,0-1.619-3.346,2.76,2.76,0,0,0-1.385-.485c-.217-.033-1.052-.033-1.3-.033-.067,0-.1.033-.1.117Z" transform="translate(-642.011 -401.123)" fill="#172230"/>
          <path id="Path_1151" data-name="Path 1151" d="M848.868,489.043c0-2.61,0-3.078-.034-3.613-.033-.569-.167-.836-.718-.954a3.144,3.144,0,0,0-.567-.05c-.067,0-.133-.034-.133-.1,0-.1.083-.134.267-.134.751,0,1.8.05,1.886.05.184,0,1.452-.05,1.969-.05a5.127,5.127,0,0,1,3.054.736,2.929,2.929,0,0,1,1.151,2.275,5.167,5.167,0,0,1-2.019,3.864c1.368,1.756,2.5,3.245,3.471,4.282a3.452,3.452,0,0,0,2.036,1.2,4,4,0,0,0,.651.05c.083,0,.15.05.15.1,0,.1-.1.134-.4.134h-1.185a3.391,3.391,0,0,1-1.786-.318,8.722,8.722,0,0,1-2.253-2.459c-.7-.92-1.485-2.041-1.819-2.476a.271.271,0,0,0-.217-.1l-2.053-.033c-.084,0-.117.05-.117.134v.4c0,1.606,0,2.927.083,3.63.05.485.15.853.651.92a7.3,7.3,0,0,0,.751.067c.1,0,.133.05.133.1,0,.084-.083.134-.267.134-.918,0-1.969-.05-2.053-.05-.017,0-1.068.05-1.569.05-.184,0-.267-.033-.267-.134,0-.05.034-.1.134-.1a2.585,2.585,0,0,0,.5-.067c.334-.067.417-.435.484-.92.083-.7.083-2.024.083-3.63ZM850.2,490.5a.218.218,0,0,0,.117.2,4.592,4.592,0,0,0,1.752.267,2.157,2.157,0,0,0,1.252-.318,3.057,3.057,0,0,0,1.018-2.576c0-2.091-1.1-3.346-2.887-3.346a5.039,5.039,0,0,0-1.118.1.2.2,0,0,0-.133.2Z" transform="translate(-702.366 -401.123)" fill="#172230"/>
          <path id="Path_1152" data-name="Path 1152" d="M923.037,483.479c.2-.552.266-.652.367-.652s.167.084.367.6c.251.636,2.871,7.544,3.888,10.087.6,1.489,1.085,1.756,1.435,1.856a2.154,2.154,0,0,0,.668.1c.1,0,.167.017.167.1,0,.1-.15.134-.334.134-.25,0-1.468,0-2.62-.033-.317-.017-.5-.017-.5-.117,0-.067.05-.1.117-.117.1-.033.2-.184.1-.451l-1.552-4.115a.146.146,0,0,0-.15-.1H921.4a.175.175,0,0,0-.167.134l-1,2.961a3.54,3.54,0,0,0-.234,1.121c0,.335.35.485.634.485h.167c.116,0,.167.034.167.1,0,.1-.1.134-.25.134-.4,0-1.119-.05-1.3-.05s-1.1.05-1.886.05c-.218,0-.318-.033-.318-.134,0-.067.067-.1.151-.1.116,0,.35-.017.484-.034.767-.1,1.1-.736,1.4-1.572Zm1.735,6.691c.083,0,.083-.05.067-.117l-1.586-4.516q-.125-.376-.25,0l-1.468,4.516c-.033.084,0,.117.05.117Z" transform="translate(-760.215 -399.993)" fill="#172230"/>
          <path id="Path_1153" data-name="Path 1153" d="M1004.15,493.432c.034,1.371.2,1.807.651,1.94a3.662,3.662,0,0,0,.835.1c.083,0,.134.034.134.1,0,.1-.1.134-.3.134-.951,0-1.619-.05-1.769-.05s-.851.05-1.6.05c-.167,0-.267-.017-.267-.134,0-.067.05-.1.133-.1a2.4,2.4,0,0,0,.684-.1c.417-.117.5-.6.5-2.124l.017-9.585c0-.652.05-.836.184-.836s.417.368.584.535c.25.284,2.737,2.977,5.307,5.737,1.652,1.773,3.471,3.814,4.006,4.366l-.184-8.5c-.017-1.087-.133-1.456-.651-1.589a4.443,4.443,0,0,0-.818-.084c-.117,0-.134-.05-.134-.117,0-.1.134-.117.334-.117.751,0,1.552.05,1.736.05s.734-.05,1.419-.05c.184,0,.3.016.3.117,0,.067-.067.117-.183.117a1.477,1.477,0,0,0-.4.05c-.551.117-.617.485-.617,1.489l-.033,9.8c0,1.1-.033,1.188-.15,1.188-.133,0-.334-.184-1.218-1.07-.184-.167-2.587-2.626-4.356-4.533-1.936-2.091-3.821-4.2-4.356-4.8Z" transform="translate(-830.351 -399.993)" fill="#172230"/>
          <path id="Path_1154" data-name="Path 1154" d="M1101.82,494.134a6.415,6.415,0,0,1-2.019-4.951,6.3,6.3,0,0,1,6.959-6.356,14.284,14.284,0,0,1,2.42.2,14.474,14.474,0,0,0,1.7.251c.184.017.217.084.217.184,0,.133-.05.335-.083.936-.033.552-.033,1.472-.05,1.723s-.05.351-.15.351c-.117,0-.133-.117-.133-.351a2.318,2.318,0,0,0-.7-1.707,5.547,5.547,0,0,0-3.338-.953,5.086,5.086,0,0,0-3.839,1.221,5.6,5.6,0,0,0-1.5,4.366,6.034,6.034,0,0,0,6.024,6.122,3.836,3.836,0,0,0,2.9-.837,3.19,3.19,0,0,0,.618-1.405c.033-.184.067-.251.167-.251.083,0,.117.117.117.251a17.392,17.392,0,0,1-.367,2.141c-.1.318-.134.351-.434.485a9.643,9.643,0,0,1-3,.385,7.691,7.691,0,0,1-5.507-1.807" transform="translate(-911.551 -399.993)" fill="#172230"/>
          <path id="Path_1155" data-name="Path 1155" d="M1199.753,491.986c0,1.606,0,2.927.084,3.63.05.485.15.853.651.92a7.365,7.365,0,0,0,.751.067c.1,0,.133.05.133.1,0,.084-.083.134-.267.134-.918,0-1.969-.05-2.053-.05s-1.135.05-1.635.05c-.184,0-.267-.033-.267-.134,0-.051.033-.1.133-.1a2.6,2.6,0,0,0,.5-.067c.334-.067.417-.435.484-.92.084-.7.084-2.024.084-3.63v-1.756a.1.1,0,0,0-.1-.1h-7.075a.088.088,0,0,0-.1.1v1.756c0,1.606,0,2.927.083,3.63.05.485.15.853.651.92a7.368,7.368,0,0,0,.751.067c.1,0,.133.05.133.1,0,.084-.083.134-.267.134-.917,0-1.969-.05-2.053-.05s-1.135.05-1.636.05c-.184,0-.267-.033-.267-.134,0-.051.034-.1.134-.1a2.6,2.6,0,0,0,.5-.067c.334-.067.417-.435.484-.92.083-.7.083-2.024.083-3.63v-2.944c0-2.61,0-3.078-.034-3.613-.033-.569-.167-.836-.718-.954a3.144,3.144,0,0,0-.567-.05c-.067,0-.133-.034-.133-.1,0-.1.083-.134.267-.134.751,0,1.8.05,1.886.05s1.135-.05,1.635-.05c.184,0,.267.033.267.134,0,.067-.067.1-.133.1a2.5,2.5,0,0,0-.417.05c-.451.084-.584.368-.618.954-.033.535-.033,1-.033,3.613v.351a.088.088,0,0,0,.1.1h7.075a.088.088,0,0,0,.1-.1v-.351c0-2.61,0-3.078-.033-3.613-.034-.569-.167-.836-.718-.954a3.146,3.146,0,0,0-.567-.05c-.067,0-.133-.034-.133-.1,0-.1.083-.134.267-.134.751,0,1.8.05,1.886.05s1.135-.05,1.635-.05c.184,0,.267.033.267.134,0,.067-.067.1-.134.1a2.515,2.515,0,0,0-.417.05c-.45.084-.584.368-.617.954-.034.535-.034,1-.034,3.613Z" transform="translate(-984.838 -401.123)" fill="#172230"/>
          <path id="Path_1156" data-name="Path 1156" d="M15.732,242.953c0,3.7,0,6.741.192,8.359.115,1.117.346,1.964,1.5,2.119a16.823,16.823,0,0,0,1.729.154c.231,0,.307.115.307.231,0,.192-.192.308-.615.308-2.114,0-4.535-.115-4.727-.115s-2.613.115-3.766.115c-.423,0-.615-.077-.615-.308,0-.116.077-.231.307-.231a5.947,5.947,0,0,0,1.153-.154c.769-.155.961-1,1.115-2.119.192-1.618.192-4.661.192-8.359V226.66l-5.688.077c-2.382.039-3.3.308-3.92,1.233a6.8,6.8,0,0,0-.653,1.194c-.115.308-.231.385-.384.385-.115,0-.192-.115-.192-.347,0-.385.769-3.7.846-4.006.077-.231.231-.732.384-.732a7.173,7.173,0,0,0,1.691.462c1.114.115,2.575.192,3.036.192H22.035a15.359,15.359,0,0,0,2.729-.192c.576-.077.922-.193,1.076-.193.192,0,.192.231.192.462,0,1.156-.115,3.813-.115,4.237,0,.347-.115.5-.269.5-.192,0-.269-.115-.307-.655l-.039-.424c-.115-1.155-1.038-2.041-4.727-2.119l-4.842-.077Z" transform="translate(-1.381 -185.955)" fill="#172230"/>
          <path id="Path_1157" data-name="Path 1157" d="M185.936,268.232c0,3.159.039,5.739.192,7.087.115.963.192,1.579,1.23,1.734a13.232,13.232,0,0,0,1.5.154.273.273,0,0,1,.307.27c0,.154-.192.269-.576.269-1.845,0-4-.115-4.189-.115-.154,0-2.344.115-3.343.115-.384,0-.538-.077-.538-.269a.261.261,0,0,1,.269-.27,4.508,4.508,0,0,0,1-.154c.692-.154.807-.809.922-1.772.154-1.348.154-3.813.154-6.972v-3.274c0-.154-.077-.193-.192-.193h-14.1c-.115,0-.192.039-.192.193v3.274c0,3.159,0,5.662.154,7.01.115.963.231,1.579,1.23,1.734a13.8,13.8,0,0,0,1.537.154.261.261,0,0,1,.269.27c0,.154-.154.269-.538.269-1.883,0-4.035-.115-4.189-.115-.192,0-2.344.115-3.382.115-.346,0-.538-.077-.538-.269a.261.261,0,0,1,.269-.27,4.847,4.847,0,0,0,1.037-.154c.654-.154.73-.771.884-1.734a66.973,66.973,0,0,0,.192-7.087v-5.778c0-5.085,0-6.009-.077-7.049-.077-1.117-.269-1.656-1.383-1.811a10.933,10.933,0,0,0-1.153-.077.327.327,0,0,1-.269-.27c0-.193.154-.27.538-.27,1.537,0,3.689.077,3.881.077.154,0,2.306-.077,3.343-.077.384,0,.538.077.538.27a.327.327,0,0,1-.269.27,3.774,3.774,0,0,0-.846.077c-.922.193-1.114.655-1.191,1.811-.038,1.04-.038,2.042-.038,7.126v.693c0,.193.077.193.192.193h14.1c.115,0,.192,0,.192-.193v-.693c0-5.084-.039-6.086-.077-7.126-.077-1.117-.231-1.656-1.345-1.811a10.919,10.919,0,0,0-1.153-.077.289.289,0,0,1-.269-.27c0-.193.154-.27.538-.27,1.5,0,3.689.077,3.843.077.192,0,2.344-.077,3.344-.077.384,0,.576.077.576.27a.33.33,0,0,1-.307.27,3.95,3.95,0,0,0-.846.077c-.884.193-1.076.655-1.153,1.811-.077,1.04-.077,1.964-.077,7.049Z" transform="translate(-134.616 -209.577)" fill="#172230"/>
          <path id="Path_1158" data-name="Path 1158" d="M339.741,261.152c0-5.085,0-6.009-.077-7.049-.077-1.117-.269-1.656-1.383-1.81a10.886,10.886,0,0,0-1.153-.077.327.327,0,0,1-.269-.269c0-.193.154-.27.538-.27,1.537,0,3.728.077,3.92.077.231,0,7.3.039,8.07,0,.654-.038,1.268-.154,1.537-.193a2.157,2.157,0,0,1,.461-.154c.115,0,.154.154.154.308,0,.231-.192.616-.269,1.541-.039.308-.115,1.772-.192,2.157-.038.154-.154.347-.307.347-.192,0-.269-.154-.269-.424a3.592,3.592,0,0,0-.192-1.155c-.231-.54-.576-.77-2.421-1-.576-.077-4.5-.115-4.881-.115-.154,0-.192.115-.192.347v8.9c0,.231,0,.347.192.347.423,0,4.881,0,5.649-.077.807-.077,1.307-.115,1.652-.462.231-.231.384-.424.5-.424s.192.077.192.27a17.941,17.941,0,0,0-.269,1.81c-.077.655-.154,1.888-.154,2.119,0,.269-.077.616-.307.616-.154,0-.231-.116-.231-.308a2.913,2.913,0,0,0-.154-1.078c-.115-.462-.423-.847-1.729-1-.922-.115-4.535-.154-5.111-.154a.2.2,0,0,0-.231.231v2.735c0,1.117-.038,4.93,0,5.585.077,2.2.692,2.619,4.035,2.619a11.245,11.245,0,0,0,3.382-.346,2.484,2.484,0,0,0,1.537-2.273c.077-.385.154-.5.346-.5s.231.27.231.5a27.22,27.22,0,0,1-.461,3.159c-.231.847-.576.847-1.883.847-2.536,0-4.5-.077-5.88-.115-1.422-.077-2.306-.077-2.805-.077-.077,0-.73,0-1.46.039-.653.039-1.422.077-1.96.077-.346,0-.538-.077-.538-.269a.261.261,0,0,1,.269-.27,9.734,9.734,0,0,0,1.037-.154c.653-.116.73-.771.884-1.734a66.92,66.92,0,0,0,.192-7.087Z" transform="translate(-279.2 -208.275)" fill="#172230"/>
          <path id="Path_1159" data-name="Path 1159" d="M530.4,252.029c2.229-5.162,7.379-18.6,8.224-21.378a5.561,5.561,0,0,0,.346-1.464.951.951,0,0,0-.5-.886,4.842,4.842,0,0,0-1.46-.154c-.23,0-.422-.039-.422-.231,0-.231.23-.308.845-.308,1.537,0,3.305.115,3.766.115.231,0,1.883-.115,3-.115.423,0,.653.077.653.269s-.154.27-.461.27a3.48,3.48,0,0,0-1.845.462c-.5.347-1.076,1-2.114,3.621-.423,1.078-2.345,5.7-4.3,10.438-2.344,5.624-4.074,9.784-4.958,11.671-1.076,2.311-1.23,2.928-1.614,2.928-.461,0-.653-.539-1.384-2.388l-9.416-23.613c-.845-2.157-1.422-2.581-2.767-2.966a5.964,5.964,0,0,0-1.46-.154c-.231,0-.307-.116-.307-.27,0-.231.384-.269,1-.269,1.845,0,4.035.115,4.5.115.384,0,2.114-.115,3.574-.115.692,0,1.038.077,1.038.269s-.115.27-.384.27a4.476,4.476,0,0,0-1.46.192.773.773,0,0,0-.5.77,14.794,14.794,0,0,0,1.038,3.2Z" transform="translate(-426.202 -188.559)" fill="#172230"/>
          <path id="Path_1160" data-name="Path 1160" d="M719.343,268.232c0,3.159,0,5.739.154,7.087.116.963.231,1.579,1.23,1.734a13.8,13.8,0,0,0,1.537.154.261.261,0,0,1,.269.27c0,.154-.154.269-.538.269-1.883,0-4.074-.115-4.227-.115-.192,0-2.306.115-3.343.115-.346,0-.538-.077-.538-.269a.261.261,0,0,1,.269-.27,4.854,4.854,0,0,0,1.038-.154c.653-.154.768-.771.884-1.734.154-1.348.192-3.929.192-7.087v-5.778c0-5.085,0-6.009-.077-7.049-.076-1.117-.346-1.618-1.076-1.772a6.051,6.051,0,0,0-1.038-.115.289.289,0,0,1-.269-.27c0-.193.154-.27.538-.27,1.114,0,3.228.077,3.42.077.154,0,2.345-.077,3.382-.077.384,0,.538.077.538.27a.327.327,0,0,1-.269.27,3.772,3.772,0,0,0-.845.077c-.922.193-1.114.655-1.191,1.811-.039,1.04-.039,1.964-.039,7.049Z" transform="translate(-591.628 -209.577)" fill="#172230"/>
          <path id="Path_1161" data-name="Path 1161" d="M788.913,268.309c0,4.815.077,6.779.692,7.357.538.539,1.844.77,4.5.77,1.768,0,3.267-.038,4.074-1a4.02,4.02,0,0,0,.807-1.849c.038-.231.154-.424.346-.424.154,0,.231.154.231.5a20.7,20.7,0,0,1-.5,3.274c-.231.771-.346.886-2.152.886-2.421,0-4.3-.039-5.88-.115-1.537-.039-2.69-.077-3.689-.077-.154,0-.73,0-1.384.039-.692.039-1.422.077-1.96.077-.346,0-.538-.077-.538-.269a.261.261,0,0,1,.269-.27,4.849,4.849,0,0,0,1.037-.154c.653-.154.73-.771.884-1.734a67.026,67.026,0,0,0,.192-7.087v-5.778c0-5.085,0-6.009-.076-7.049-.077-1.117-.269-1.656-1.384-1.811a10.925,10.925,0,0,0-1.153-.077.327.327,0,0,1-.269-.269c0-.193.154-.27.538-.27,1.537,0,3.651.077,3.843.077.154,0,2.69-.077,3.728-.077.346,0,.538.077.538.27,0,.115-.154.231-.269.231-.231,0-.73.038-1.114.077-1,.193-1.191.693-1.269,1.849-.038,1.04-.038,1.964-.038,7.049Z" transform="translate(-648.94 -209.577)" fill="#172230"/>
          <path id="Path_1162" data-name="Path 1162" d="M902.288,268.309c0,4.815.076,6.779.692,7.357.538.539,1.844.77,4.5.77,1.768,0,3.267-.038,4.074-1a4.019,4.019,0,0,0,.807-1.849c.038-.231.154-.424.346-.424.154,0,.231.154.231.5a20.707,20.707,0,0,1-.5,3.274c-.23.771-.345.886-2.152.886-2.421,0-4.3-.039-5.88-.115-1.537-.039-2.69-.077-3.689-.077-.154,0-.73,0-1.383.039-.692.039-1.422.077-1.96.077-.346,0-.538-.077-.538-.269a.261.261,0,0,1,.269-.27,4.853,4.853,0,0,0,1.038-.154c.653-.154.73-.771.884-1.734a67.026,67.026,0,0,0,.192-7.087v-5.778c0-5.085,0-6.009-.076-7.049-.077-1.117-.269-1.656-1.384-1.811a10.924,10.924,0,0,0-1.153-.077.327.327,0,0,1-.269-.269c0-.193.154-.27.538-.27,1.537,0,3.651.077,3.843.077.154,0,2.69-.077,3.728-.077.346,0,.539.077.539.27,0,.115-.154.231-.269.231-.23,0-.73.038-1.114.077-1,.193-1.191.693-1.269,1.849-.038,1.04-.038,1.964-.038,7.049Z" transform="translate(-742.909 -209.577)" fill="#172230"/>
          <path id="Path_1163" data-name="Path 1163" d="M1029.446,250.658c.423-1.078.577-1.271.807-1.271.346,0,.461.462.807,1.194.615,1.386,6.034,14.907,8.109,19.876,1.23,2.928,2.152,3.351,2.882,3.582a4.7,4.7,0,0,0,1.345.192c.192,0,.423.077.423.27s-.384.269-.769.269c-.5,0-3,0-5.342-.077-.653-.039-1.191-.039-1.191-.231,0-.154.077-.154.23-.231a.615.615,0,0,0,.307-.886l-3.036-7.511c-.077-.154-.115-.193-.308-.193h-7.8a.357.357,0,0,0-.346.27l-1.922,5.239a6.79,6.79,0,0,0-.5,2.2c0,.655.576.886,1.152.886h.308c.269,0,.346.115.346.27,0,.193-.192.269-.5.269-.807,0-2.652-.115-3.036-.115-.346,0-2.037.115-3.42.115-.423,0-.654-.077-.654-.269a.3.3,0,0,1,.308-.27,9.428,9.428,0,0,0,1-.077c1.537-.192,2.19-1.348,2.844-3Zm3.766,13.636c.154,0,.154-.077.115-.231l-3.343-8.975q-.289-.751-.576,0l-3.151,8.975c-.039.154,0,.231.115.231Z" transform="translate(-843.205 -206.602)" fill="#172230"/>
          <path id="Path_1164" data-name="Path 1164" d="M1188.641,267.156c0-2.658-.077-3.043-1.46-3.312a10.832,10.832,0,0,0-1.153-.077.326.326,0,0,1-.269-.27c0-.231.153-.27.538-.27,1.537,0,3.8.077,4,.077.154,0,2.267-.077,3.3-.077.384,0,.538.039.538.27a.327.327,0,0,1-.269.27,3.754,3.754,0,0,0-.845.077c-.922.154-1.192.655-1.268,1.81-.039,1.04-.039,2-.039,3.39v3.66c0,1.5-.038,1.541-.461,1.772a17.146,17.146,0,0,1-7.187,1.464c-2.575,0-7.379-.308-11.145-3.506a12.544,12.544,0,0,1-4.035-9.321,12.259,12.259,0,0,1,5.649-10.747,16.969,16.969,0,0,1,8.993-2.08,28.192,28.192,0,0,1,5.188.539,14.639,14.639,0,0,0,2.729.347c.346,0,.423.154.423.308,0,.462-.192,1.348-.192,4.622,0,.539-.154.693-.385.693-.192,0-.23-.193-.23-.5a4.876,4.876,0,0,0-.768-2.157c-.845-1.233-3.421-2.543-7.8-2.543a10.721,10.721,0,0,0-7.072,2.119c-1.96,1.5-3.344,4.43-3.344,8.243a13.051,13.051,0,0,0,3.574,9.052,12.061,12.061,0,0,0,8.647,3.428,8.47,8.47,0,0,0,3.651-.616c.423-.231.692-.385.692-1Z" transform="translate(-968.813 -207.345)" fill="#172230"/>
          <path id="Path_1165" data-name="Path 1165" d="M1332.064,261.152c0-5.085,0-6.009-.077-7.049-.077-1.117-.269-1.656-1.384-1.81a10.877,10.877,0,0,0-1.153-.077.327.327,0,0,1-.269-.269c0-.193.154-.27.538-.27,1.537,0,3.727.077,3.92.077.231,0,7.3.039,8.071,0,.653-.038,1.268-.154,1.537-.193a2.172,2.172,0,0,1,.461-.154c.115,0,.154.154.154.308,0,.231-.193.616-.269,1.541-.038.308-.116,1.772-.192,2.157-.038.154-.154.347-.308.347-.192,0-.269-.154-.269-.424a3.6,3.6,0,0,0-.192-1.155c-.231-.54-.576-.77-2.421-1-.577-.077-4.5-.115-4.881-.115-.154,0-.192.115-.192.347v8.9c0,.231,0,.347.192.347.423,0,4.881,0,5.649-.077.807-.077,1.307-.115,1.653-.462.23-.231.384-.424.5-.424s.192.077.192.27a17.946,17.946,0,0,0-.269,1.81c-.076.655-.153,1.888-.153,2.119,0,.269-.077.616-.308.616-.153,0-.231-.116-.231-.308a2.915,2.915,0,0,0-.154-1.078c-.115-.462-.423-.847-1.729-1-.922-.115-4.535-.154-5.111-.154a.2.2,0,0,0-.231.231v2.735c0,1.117-.038,4.93,0,5.585.077,2.2.692,2.619,4.035,2.619a11.243,11.243,0,0,0,3.382-.346,2.485,2.485,0,0,0,1.537-2.273c.077-.385.154-.5.346-.5s.231.27.231.5a27.163,27.163,0,0,1-.461,3.159c-.23.847-.576.847-1.883.847-2.536,0-4.5-.077-5.88-.115-1.422-.077-2.306-.077-2.806-.077-.077,0-.73,0-1.46.039-.653.039-1.422.077-1.96.077-.346,0-.538-.077-.538-.269a.261.261,0,0,1,.269-.27,9.749,9.749,0,0,0,1.037-.154c.653-.116.73-.771.884-1.734a67.048,67.048,0,0,0,.192-7.087Z" transform="translate(-1101.67 -208.275)" fill="#172230"/>
        </g>
      </g>
      <g id="Group_102" data-name="Group 102">
        <g id="Group_101" data-name="Group 101" clip-path="url(#clip-path)">
          <path id="Path_1166" data-name="Path 1166" d="M74.261,712.875a.7.7,0,0,1,.252.047.685.685,0,0,1,.242.163l1.408,1.484a5.837,5.837,0,0,1-2.316,1.827,8.084,8.084,0,0,1-3.294.616,7.829,7.829,0,0,1-3.125-.594,6.771,6.771,0,0,1-2.343-1.643,7.231,7.231,0,0,1-1.476-2.485,9.2,9.2,0,0,1-.515-3.121,8.239,8.239,0,0,1,.588-3.155,7.254,7.254,0,0,1,4.17-4.1,8.784,8.784,0,0,1,3.247-.579,8.253,8.253,0,0,1,1.623.152,7.953,7.953,0,0,1,1.424.422,6.719,6.719,0,0,1,1.219.642,5.9,5.9,0,0,1,.988.827l-1.2,1.611a1.52,1.52,0,0,1-.273.269.713.713,0,0,1-.441.121.791.791,0,0,1-.357-.084,3.893,3.893,0,0,1-.357-.206l-.415-.263a3.147,3.147,0,0,0-.536-.263,4.391,4.391,0,0,0-.725-.206,4.958,4.958,0,0,0-.972-.084,4.428,4.428,0,0,0-1.765.343,3.857,3.857,0,0,0-1.371.979,4.551,4.551,0,0,0-.893,1.543,6.061,6.061,0,0,0-.32,2.033,6.334,6.334,0,0,0,.32,2.1,4.615,4.615,0,0,0,.872,1.542,3.717,3.717,0,0,0,1.287.953,3.848,3.848,0,0,0,1.576.326,7.46,7.46,0,0,0,.882-.047,3.642,3.642,0,0,0,.741-.164,3.348,3.348,0,0,0,.651-.3,4.361,4.361,0,0,0,.625-.457,1.266,1.266,0,0,1,.273-.175.728.728,0,0,1,.3-.067" transform="translate(-52.294 -581.012)" fill="#172230"/>
          <path id="Path_1167" data-name="Path 1167" d="M158.094,711.98v5.675h-3.551V702.313h4.98a10.179,10.179,0,0,1,2.831.343,5.329,5.329,0,0,1,1.912.953,3.606,3.606,0,0,1,1.077,1.442,4.8,4.8,0,0,1,.336,1.812,4.887,4.887,0,0,1-.2,1.411,4.271,4.271,0,0,1-.594,1.226,4.587,4.587,0,0,1-.967,1.005,5.118,5.118,0,0,1-1.318.727,3.4,3.4,0,0,1,.667.442,2.656,2.656,0,0,1,.541.642l3.257,5.339h-3.215a1.363,1.363,0,0,1-1.282-.674l-2.543-4.454a1.075,1.075,0,0,0-.394-.421,1.312,1.312,0,0,0-.636-.126Zm0-2.454h1.429a3.633,3.633,0,0,0,1.234-.184,2.217,2.217,0,0,0,.836-.511,1.946,1.946,0,0,0,.472-.763,2.936,2.936,0,0,0,.147-.943,1.976,1.976,0,0,0-.657-1.579,3.049,3.049,0,0,0-2.032-.569h-1.429Z" transform="translate(-128.09 -581.823)" fill="#172230"/>
          <path id="Path_1168" data-name="Path 1168" d="M252.52,717.655h-2.753a1.27,1.27,0,0,1-.761-.216,1.114,1.114,0,0,1-.415-.553l-.9-2.675h-5.82l-.9,2.675a1.193,1.193,0,0,1-.409.532,1.181,1.181,0,0,1-.746.237h-2.773l5.925-15.342H246.6Zm-9.834-5.865h4.181l-1.408-4.2-.32-.943c-.123-.362-.243-.753-.363-1.175q-.168.643-.346,1.189t-.336.948Z" transform="translate(-196.462 -581.823)" fill="#172230"/>
          <path id="Path_1169" data-name="Path 1169" d="M347.791,702.313v2.738h-6.282v3.886h5.232v2.749h-5.232v5.97h-3.572V702.313Z" transform="translate(-280.093 -581.824)" fill="#172230"/>
          <path id="Path_1170" data-name="Path 1170" d="M417.987,702.313v2.822h-4.307v12.52h-3.551v-12.52h-4.307v-2.822Z" transform="translate(-336.358 -581.824)" fill="#172230"/>
          <path id="Path_1171" data-name="Path 1171" d="M494.452,711.529q.195.434.373.885.178-.463.378-.9t.41-.849l3.929-7.758a1.26,1.26,0,0,1,.215-.311.7.7,0,0,1,.247-.164.85.85,0,0,1,.309-.052h3.115v15.331H500.3v-8.824q0-.643.063-1.391l-4.055,7.887a1.35,1.35,0,0,1-.51.559,1.416,1.416,0,0,1-.73.19h-.483a1.412,1.412,0,0,1-.73-.19,1.341,1.341,0,0,1-.51-.559l-4.076-7.9c.028.245.049.49.063.732s.021.465.021.668v8.824h-3.131V702.38h3.115a.853.853,0,0,1,.31.052.707.707,0,0,1,.247.164,1.275,1.275,0,0,1,.215.311l3.94,7.79q.21.4.4.832" transform="translate(-402.996 -581.879)" fill="#172230"/>
          <path id="Path_1172" data-name="Path 1172" d="M610.468,717.655h-2.753a1.27,1.27,0,0,1-.761-.216,1.113,1.113,0,0,1-.415-.553l-.9-2.675h-5.82l-.9,2.675a1.194,1.194,0,0,1-.409.532,1.182,1.182,0,0,1-.746.237h-2.773l5.925-15.342h3.635Zm-9.834-5.865h4.181l-1.408-4.2-.32-.943c-.123-.362-.243-.753-.363-1.175q-.168.643-.346,1.189t-.336.948Z" transform="translate(-493.141 -581.823)" fill="#172230"/>
          <path id="Path_1173" data-name="Path 1173" d="M699.436,711.98v5.675h-3.551V702.313h4.98a10.178,10.178,0,0,1,2.831.343,5.336,5.336,0,0,1,1.913.953,3.6,3.6,0,0,1,1.076,1.442,4.786,4.786,0,0,1,.336,1.812,4.871,4.871,0,0,1-.2,1.411,4.255,4.255,0,0,1-.594,1.226,4.576,4.576,0,0,1-.967,1.005,5.115,5.115,0,0,1-1.318.727,3.384,3.384,0,0,1,.667.442,2.669,2.669,0,0,1,.541.642l3.257,5.339h-3.215a1.364,1.364,0,0,1-1.283-.674l-2.542-4.454a1.076,1.076,0,0,0-.394-.421,1.311,1.311,0,0,0-.635-.126Zm0-2.454h1.43a3.631,3.631,0,0,0,1.233-.184,2.212,2.212,0,0,0,.836-.511,1.949,1.949,0,0,0,.473-.763,2.934,2.934,0,0,0,.147-.943,1.976,1.976,0,0,0-.657-1.579,3.051,3.051,0,0,0-2.033-.569h-1.43Z" transform="translate(-576.772 -581.823)" fill="#172230"/>
          <path id="Path_1174" data-name="Path 1174" d="M784.262,708.526h.567a1.291,1.291,0,0,0,1.135-.495l3.446-5.012a1.47,1.47,0,0,1,.645-.559,2.364,2.364,0,0,1,.888-.147h3.089l-4.539,6.2a3.07,3.07,0,0,1-.5.558,3.19,3.19,0,0,1-.536.369,2.71,2.71,0,0,1,.73.4,2.674,2.674,0,0,1,.6.69l4.623,7.118h-3.173a2.71,2.71,0,0,1-.52-.042,1.31,1.31,0,0,1-.373-.126,1.1,1.1,0,0,1-.274-.206,2,2,0,0,1-.22-.279l-3.468-5.339a1.043,1.043,0,0,0-.478-.416,2.083,2.083,0,0,0-.783-.121h-.861v6.529h-3.551V702.313h3.551Z" transform="translate(-647.079 -581.823)" fill="#172230"/>
          <path id="Path_1175" data-name="Path 1175" d="M921.61,717.655h-3.573v-6.486h-6.218v6.486h-3.573V702.313h3.573v6.413h6.218v-6.413h3.573Z" transform="translate(-752.784 -581.823)" fill="#172230"/>
          <path id="Path_1176" data-name="Path 1176" d="M1015.478,709.169a8.278,8.278,0,0,1-.572,3.1,7.487,7.487,0,0,1-1.612,2.491,7.412,7.412,0,0,1-2.507,1.658,9.124,9.124,0,0,1-6.508,0,7.308,7.308,0,0,1-4.134-4.149,8.643,8.643,0,0,1,0-6.192,7.354,7.354,0,0,1,1.617-2.485,7.48,7.48,0,0,1,2.516-1.653,8.544,8.544,0,0,1,3.257-.6,8.447,8.447,0,0,1,3.251.605,7.31,7.31,0,0,1,4.119,4.143,8.255,8.255,0,0,1,.572,3.086m-3.634,0a6.646,6.646,0,0,0-.3-2.049,4.354,4.354,0,0,0-.845-1.543,3.657,3.657,0,0,0-1.351-.969,4.626,4.626,0,0,0-1.817-.337,4.7,4.7,0,0,0-1.833.337,3.637,3.637,0,0,0-1.355.969,4.339,4.339,0,0,0-.846,1.543,7.31,7.31,0,0,0,0,4.106,4.318,4.318,0,0,0,.846,1.542,3.586,3.586,0,0,0,1.355.964,4.783,4.783,0,0,0,1.833.331,4.712,4.712,0,0,0,1.817-.331,3.605,3.605,0,0,0,1.351-.964,4.332,4.332,0,0,0,.845-1.542,6.675,6.675,0,0,0,.3-2.058" transform="translate(-828.478 -581.012)" fill="#172230"/>
          <path id="Path_1177" data-name="Path 1177" d="M1113.861,711.529q.193.434.373.885.178-.463.379-.9t.409-.849l3.929-7.758a1.243,1.243,0,0,1,.216-.311.693.693,0,0,1,.246-.164.856.856,0,0,1,.31-.052h3.115v15.331h-3.131v-8.824q0-.643.064-1.391l-4.056,7.887a1.335,1.335,0,0,1-.51.559,1.414,1.414,0,0,1-.729.19h-.484a1.417,1.417,0,0,1-.73-.19,1.346,1.346,0,0,1-.51-.559l-4.075-7.9c.027.245.048.49.063.732s.021.465.021.668v8.824h-3.13V702.38h3.114a.852.852,0,0,1,.31.052.712.712,0,0,1,.247.164,1.3,1.3,0,0,1,.215.311l3.94,7.79q.21.4.4.832" transform="translate(-916.382 -581.879)" fill="#172230"/>
          <path id="Path_1178" data-name="Path 1178" d="M1233.942,702.313v2.738h-6.283v3.581h4.812v2.632h-4.812v3.654h6.283v2.738h-9.855V702.313Z" transform="translate(-1014.564 -581.824)" fill="#172230"/>
          <path id="Path_1179" data-name="Path 1179" d="M1302.227,704.619a1.344,1.344,0,0,1-.331.379.738.738,0,0,1-.447.127,1.1,1.1,0,0,1-.52-.153q-.279-.153-.63-.343a5.276,5.276,0,0,0-.8-.342,3.209,3.209,0,0,0-1.03-.153,2.21,2.21,0,0,0-1.486.427,1.449,1.449,0,0,0-.489,1.153,1.062,1.062,0,0,0,.294.768,2.519,2.519,0,0,0,.773.527,8.194,8.194,0,0,0,1.092.406q.615.185,1.256.41a11.535,11.535,0,0,1,1.255.533,4.164,4.164,0,0,1,1.092.779,3.627,3.627,0,0,1,.773,1.153,4.1,4.1,0,0,1,.294,1.637,5.348,5.348,0,0,1-.368,1.99,4.67,4.67,0,0,1-1.066,1.617,4.972,4.972,0,0,1-1.723,1.084,6.44,6.44,0,0,1-2.327.394,7.432,7.432,0,0,1-1.454-.147,8.551,8.551,0,0,1-1.434-.416,8.219,8.219,0,0,1-1.3-.636,5.525,5.525,0,0,1-1.061-.821l1.051-1.664a.84.84,0,0,1,.325-.3.918.918,0,0,1,.453-.117,1.2,1.2,0,0,1,.635.2c.214.134.455.281.725.442a5.74,5.74,0,0,0,.93.442,3.465,3.465,0,0,0,1.239.2,2.355,2.355,0,0,0,1.5-.427,1.626,1.626,0,0,0,.536-1.353,1.283,1.283,0,0,0-.294-.874,2.285,2.285,0,0,0-.772-.558,7.105,7.105,0,0,0-1.088-.39q-.61-.17-1.25-.374a9.186,9.186,0,0,1-1.25-.506,3.922,3.922,0,0,1-1.086-.79,3.687,3.687,0,0,1-.773-1.221,4.861,4.861,0,0,1-.294-1.806,4.292,4.292,0,0,1,.346-1.684,4.362,4.362,0,0,1,1.019-1.464,5.017,5.017,0,0,1,1.649-1.027,6.088,6.088,0,0,1,2.238-.384,8.309,8.309,0,0,1,1.371.111,7.118,7.118,0,0,1,1.265.326,6.934,6.934,0,0,1,1.12.516,5.131,5.131,0,0,1,.929.679Z" transform="translate(-1071.335 -581.012)" fill="#172230"/>
          <path id="Path_1180" data-name="Path 1180" d="M1370.989,701.853a4.094,4.094,0,0,1,.147-1.1,4.194,4.194,0,0,1,.415-.991,4.048,4.048,0,0,1,.647-.838,4.262,4.262,0,0,1,.836-.648,4.095,4.095,0,0,1,4.164,0,4.251,4.251,0,0,1,.835.648,4.071,4.071,0,0,1,.647.838,4.177,4.177,0,0,1,.415.991,4.171,4.171,0,0,1,0,2.2,4.072,4.072,0,0,1-1.062,1.823,4.257,4.257,0,0,1-.835.648,4.089,4.089,0,0,1-4.164,0,4.268,4.268,0,0,1-.836-.648,4.071,4.071,0,0,1-.647-.835,4.156,4.156,0,0,1-.415-.985,4.067,4.067,0,0,1-.147-1.1m.564,0a3.717,3.717,0,0,0,.124.968,3.635,3.635,0,0,0,.356.869,3.572,3.572,0,0,0,.553.733,3.5,3.5,0,0,0,1.57.926,3.551,3.551,0,0,0,.955.127,3.476,3.476,0,0,0,1.4-.283,3.571,3.571,0,0,0,1.135-.773,3.648,3.648,0,0,0,.763-1.149,3.606,3.606,0,0,0,.28-1.418,3.71,3.71,0,0,0-.486-1.848,3.662,3.662,0,0,0-.556-.739,3.461,3.461,0,0,0-.72-.569,3.562,3.562,0,0,0-.856-.365,3.5,3.5,0,0,0-.958-.13,3.421,3.421,0,0,0-1.4.286,3.544,3.544,0,0,0-1.13.781,3.693,3.693,0,0,0-1.034,2.585m2.745.51v2h-.881v-5.05h1.627a2.392,2.392,0,0,1,1.441.354,1.227,1.227,0,0,1,.469,1.044,1.4,1.4,0,0,1-.3.906,1.578,1.578,0,0,1-.9.515.643.643,0,0,1,.167.142,1.3,1.3,0,0,1,.133.2l1.288,1.891h-.836a.307.307,0,0,1-.277-.142l-1.135-1.71a.367.367,0,0,0-.122-.113.462.462,0,0,0-.217-.039Zm0-.646h.656a2.031,2.031,0,0,0,.528-.059.9.9,0,0,0,.35-.173.647.647,0,0,0,.192-.277,1.114,1.114,0,0,0,.059-.379,1.162,1.162,0,0,0-.053-.368.573.573,0,0,0-.175-.26.8.8,0,0,0-.319-.153,1.993,1.993,0,0,0-.491-.051h-.746Z" transform="translate(-1136.321 -578.009)" fill="#172230"/>
        </g>
      </g>
      <g id="Group_104" data-name="Group 104">
        <g id="Group_103" data-name="Group 103" clip-path="url(#clip-path)">
          <path id="Path_1181" data-name="Path 1181" d="M469.769,14.951a27.728,27.728,0,0,0,8.516,4.3c2,.671,4.017,1.258,6.01,1.942,1.556.534,1.545.575.764,1.949-.522-.135-1.081-.251-1.624-.427-1.378-.448-2.763-.883-4.12-1.4q-4.91-1.856-9.795-3.788a6.773,6.773,0,0,1-1.316-.765,5.474,5.474,0,0,0-4.6-.937,42.76,42.76,0,0,1-12.128,1.211,50.428,50.428,0,0,0-10.247.631,7.363,7.363,0,0,0-1.094.365c.568.193.829.309,1.1.368a19.079,19.079,0,0,1,4.882,1.73c1.794.937,3.737,1.99,5.882,1.736.254-.03.649.321,1.279.653a6.98,6.98,0,0,1-4.291.189,10.579,10.579,0,0,0-5.139-.492,9.088,9.088,0,0,0-1.873-1.461,51.145,51.145,0,0,0-6.593-2.27c-3.791-.892-7.613-1.539-11.423-2.239-3.249-.6-6.5-1.056-9.749-1.7-3.17-.631-6.333-1.4-9.492-2.158-.728-.176-1.719-.376-1.8-1.227-.09-.947-.878-1.21-1.667-1.608A14.218,14.218,0,0,1,396.9,6.415a13.2,13.2,0,0,1,1.956.262c1.875.585,3.772,1.13,5.595,1.865a74,74,0,0,0,16.891,4.893,9.538,9.538,0,0,0,7.035-1.366c2.083-1.441,4.771-1.89,7.427-2.643.207.536.377.936.5,1.34.027.087-.1.185-.226.377a2.8,2.8,0,0,0-2.754.364c-1.536.794-3.1,1.55-4.649,2.334-.339.172-.634.4-1.17.74a23.754,23.754,0,0,0,7.882.607c2.684-.319,5.426-.483,8.135-.738a6.336,6.336,0,0,0,1.956-.342c3.289-1.525,6.542-3.055,8.394-6a12.262,12.262,0,0,1,5.664-4.5,13.128,13.128,0,0,0,2.188-1.051c2.045-1.411,4.812-1.677,7.246-2.468a1.056,1.056,0,0,1,1.442.644c-.928.309-2.362.37-2.71.987-.828,1.466-2.827,1.314-4.042,2.163-.218.152-.428.312-.718.525,1.4.509,2.942-.258,4.04,1.434-.811.095-1.461.182-2.119.245a27.1,27.1,0,0,0-3.847.388c-1.633.411-3.572.732-4.582,1.705-1.465,1.412-1.825,3.529-2.586,5.8,2.814-.35,5.17-.586,7.47-.952a15.992,15.992,0,0,0,3.776-.983,70.164,70.164,0,0,1,11.165-3.676,29.387,29.387,0,0,0,3.8-1.322c2.352-.93,4.67-1.908,7.005-2.861a5.918,5.918,0,0,1,3.418-.2c2.958.566,5.92,1.048,8.88,1.573a16.1,16.1,0,0,1,2.113.45,5.758,5.758,0,0,1,1.193.79c-2.3.775-4.551.156-6.607-.58a13.655,13.655,0,0,0-7.4-.278c-.723.125-1.418.317-2.111.5s-1.341.4-2.01.6a7.012,7.012,0,0,0,2.246.561c2.181.3,4.376.478,6.54.963a20.019,20.019,0,0,0,4.394.5c2.424.009,4.894.225,7.351.414.3.023.642.42.964.644a3.7,3.7,0,0,1-.831.466,7.053,7.053,0,0,1-1.243.1c1.928,1.293,3.728,2.3,5.916,1.934.129,1.124-.556,1.383-1.511,1.149a41.469,41.469,0,0,1-5.206-1.511c-2.264-.884-4.4-2.079-6.883-1.873a11.727,11.727,0,0,1-2.517-.508,42.052,42.052,0,0,0-4.412-.663c-3.565-.22-6.751.586-9.957,1.327a48.653,48.653,0,0,0-10.4,3.62,9.4,9.4,0,0,0,.782.788m-19.326.66c1.475.712,2.025.744,3.955.193l-3.955-.193" transform="translate(-328.964 0)" fill="#172230"/>
        </g>
      </g>
    </g>
  </g>
</svg>
