<svg xmlns="http://www.w3.org/2000/svg" viewBox="0 0 777.6 418.6">
  <defs>
    <style>
      .cls-1, .cls-7, .cls-8 {
        fill: #fff;
      }

      .cls-2 {
        fill: #f7941d;
      }

      .cls-3, .cls-5, .cls-6, .cls-9 {
        fill: none;
        stroke: #fff;
      }

      .cls-3 {
        stroke-width: 2px;
      }

      .cls-4, .cls-7, .cls-8 {
        stroke: #231f20;
      }

      .cls-6 {
        stroke-width: 1.25px;
      }

      .cls-7, .cls-8 {
        stroke-linecap: round;
        stroke-linejoin: round;
      }

      .cls-8, .cls-9 {
        stroke-width: 0.25px;
      }
    </style>
  </defs>
  <title>Asset 1</title>
  <g id="Layer_2" data-name="Layer 2">
    <g id="Layer_2-2" data-name="Layer 2">
      <path class="cls-1" d="M169.4,248.7l42.1-49,97-6.3L291,210.9h3.8v34.4h-.5Zm42.6-48-40.4,47,122.2-3.3V211.9h-5.2l17.3-17.3Z"/>
      <path class="cls-1" d="M569.1,292.4v-.8c0-.1.4-7.1-3.9-8.9l-.4-.2-.8-37,5-8.7V132l8.7,3.8,2,101.6,3.7,8.6,1,37-.8-.2a4.5,4.5,0,0,0-3.4.7,4.5,4.5,0,0,0-1.4,3.7v.6l-5.2.2.2,3.7Zm-3-10.6c3.9,1.9,4.3,7.2,4.3,9.2l2.4-.3-.3-3.8,5.3-.3a5.4,5.4,0,0,1,1.8-4.1,5.3,5.3,0,0,1,3.6-1l-1-35.3-3.7-8.6-2-101-6.2-2.7V237.2l-5,8.7Z"/>
      <rect class="cls-1" x="573.2" y="133.3" width="1" height="8.39" transform="translate(225 613.4) rotate(-67.2)"/>
      <path class="cls-1" d="M553.6,137.4v-1l14.1-1,.7-3.1h.1s2.2-2,1.9-3.9a3.1,3.1,0,0,0-2-2.2h-.2l-.7-3.8-12.5,1.2v-1l13.4-1.3v.2l9.2,3.4-.3.9-8.7-3.2.6,2.9a3.9,3.9,0,0,1,2.3,2.9c.3,2.1-1.6,4.1-2.1,4.6l-.7,3.5Z"/>
      <rect class="cls-1" x="553.1" y="133.1" width="14.7" height="1" transform="translate(-6.1 28.6) rotate(-2.9)"/>
      <polygon class="cls-1" points="578.6 134.1 569.7 130.9 550.9 132.2 550.8 131.2 569.9 129.9 578.9 133.2 578.6 134.1"/>
      <path class="cls-1" d="M578.6,130.4l-9.2-3v-.2l-17,1.5H551l3.3-3.3.8-2.6,1,.3-.9,2.8-1.6,1.6,9.7-.8c6.8-.6,9.6-.8,10.8-.8h.2c.6,0,.6.2.6.4s0,.4-.6.5h0l-2.4.3,7,2.3Z"/>
      <polygon class="cls-1" points="577.9 128.2 567.7 125.2 553.9 126.4 553.8 125.4 567.8 124.2 578.2 127.2 577.9 128.2"/>
      <polygon class="cls-1" points="600.5 207.8 597.8 209.6 579.3 170.6 578 160.4 600.5 207.8"/>
      <g>
        <line class="cls-2" x1="597" y1="207.1" x2="598.3" y2="281.2"/>
        <rect class="cls-1" x="596.6" y="207.1" width="2" height="74.16" transform="translate(-4 10.1) rotate(-1)"/>
      </g>
      <polygon class="cls-1" points="553.7 161.5 553.4 168.5 529.9 202.4 289.2 213.2 288.2 211 290.1 210.1 528.3 198 553.7 161.5"/>
      <polygon class="cls-1" points="339.9 167.3 338.4 165.9 344.1 160.1 552.3 139.6 552.5 141.6 345 162.1 339.9 167.3"/>
      <path class="cls-3" d="M553.4,138.4"/>
      <rect class="cls-1" x="553.2" y="138.4" width="2" height="98.34" transform="translate(-3 9) rotate(-0.9)"/>
      <path class="cls-1" d="M605.9,304.3c4.1-1.7,4.9-4.3,4.9-8.4,0-1.9-.4-6.2-2.7-2.8-.3.5-.2,5.9.1,5.9,3.9-.5,4.1-3.5,3.6-6.9s-3-3.4-4.5-.1l.3,5c.4-4.4.8-10.1-5.2-10.1l.3,4.5c.2-3.7.3-6.9-2.2-9.9h-.1c-1.3,1.9-1.3,3.7-1.4,5.9,0,.1,0,3.9.3,3.8,5.3-1.3,3.4-13.3-1.4-10.8s-.7,11,1.7,13.1v-6c-3.5,2-7.2,3.6-7.5,7.9s.1,8.1,4.9,6.1c.7-.3.4-5.3.1-5.9-1.6-3-4.6-2.7-6.6-.1v5.9c1.2-4,1.3-11.5-3.9-12.4v5.9c1.8-3.8,3-13.2-3.5-12.8-5,.3-4.5,8-1.2,10.2-.5-.4,1-5.1,0-6-3.6-3.2-3.8,6.6-3.5,8.4.8,4.5,6.9,5,8.9,1,.3-.5.4-5.9-.1-5.9-4.5.2-4.5,4.5-4.5,8l.3-3c-3.8.3-7.7.1-11.4.8-.5.1-.5,5.9,0,6,2.7.6,7.2,1.9,8.5-1.4a11.8,11.8,0,0,0-.5-7.7c-1-1.9-3.4-3.3-5.5-2.2-.5.3-.7.9-1.1,1.1s-2.9.5-4.7.7-2.9.9-4-.2-.9-3.5-1.1-4.2h-.1c-1.2.7-3-5.9-6.1-1.9-.4.5-.6,5.9,0,6,2.8.5,4,0,4.3-2.7a11.7,11.7,0,0,0-1.1-7.2c-2-3.4-8.1-8.3-8.7-1.7,0,.5-.3,5.1.2,5.1,5.2-.1,4.6-8.3,2.7-11.6h-.1c-4.7,5.6-2.7,15.1-1.7,21.6l.2-5.6c-2.8-.5-4.1-.4-4.5,2.4s-.3,4.5.8,6c3.9,5.6,3.6-5.8,3.3-7.6s-.9-5.9-3.5-5.9-3.2,2.7-3.8,4-2.1,10.7,1.9,7.1c.6-.5.6-5.6,0-6-10-5.5-3.4,21.9,3.5,10.9.6-1-.5-5.6-.1-5.9-5.2,4-12.3,1.1-18.3,1.5v6a5.3,5.3,0,0,1,1.5-1.1c.6-.4.6-5.6,0-6-6.2-3.9-9.1,2.2-15,2-1.9-.1-2-1.1-3.4-1.8s-2.1-.8-2.2-1,.1-3.3-1-4.2-2.7.5-4.2,1.1a64.7,64.7,0,0,0-7.2,2.9c-7.6,4.1-9.5-2.8-15.6-5.3s-7.5,9-13.7,6.6c-2.7-1-3.6-5.6-6.7-6.2s-4.5,1.9-6.7,2.3c-6.8,1.2-12.2-5.8-18.9-4.7-3.6.6-5.3,4.2-8.4,5.9s-5.2,1.8-6.6,4.8.5,5,.2,5.8c1.4-3,3.8-3.2,6.4-4.6s4.1-4.2,6.7-5.4c4.8-2.2,10.1,1.9,14.5,3.4,2.7.9,5.1,1.3,7.9.3s3.1-2.1,4.9-1.7c4.5.8,5.2,9.2,10.7,5.5,3.5-2.3,5-8.4,10.1-5.8s6.2,6.9,11.1,6.6c2.7-.2,4.5-2.2,6.9-3.2s3.5-.7,5.1-1.4,2-2.1,3.4-.9.8,3.7,1.1,4.9h.1c2.2-.8,1.8.7,3.4,1.6s4.1.3,5.9-.4c4.3-1.7,6.8-4,11.3-1.1v-6a5.3,5.3,0,0,0-1.5,1.1c-.6.5-.3,6,0,6,6.1-.4,13,2.5,18.3-1.5v-5.9c-1.9,3.1-4.6,3.1-6.6,0a15.7,15.7,0,0,0-.8-1.6q-.6-2.2-.2,2.3l.4-.5c.2.1.9-.5,1.2-.3s1.8.5,2.7,1v-6c-.3.3-1.9,1-2.1,1.2s-1.2,5.5.1,4,.4-1,.7-1.4,2.4-3.6,4.3-2.6,2.6,4.6,2,4.8q.9-3.8-.2-2.4a.6.6,0,0,1-.5.3c-.2-.2-.8,0-1-.3s-1.4-1.8-1.6-1.9q-1.6,5.2.6,4.2l.8-.2a19.6,19.6,0,0,0,2.7.3c.4.1.2-5.1.2-5.6a21.7,21.7,0,0,1-.5-6,4.6,4.6,0,0,1,.6-2.5,7,7,0,0,1,1.9-1l.2-3.7c-.5,2-1.6,2.5-3.5,2.5l.2,5.1c.4-3.8,5-.4,6.2.8s2.3,3.8,2.7,3.9l-.2-3.6-.8.4a20.6,20.6,0,0,0-2.8-.1v6c2.1-2.7,4.5-.4,5.6,2.2q.1.2.2,0a4.6,4.6,0,0,1,1.2,4.2c0-.1.1.9.2.9,2.9-.8,5.1-1.2,8-.4h.1c1.6-3.2,3.9-2.9,6.4-1.1.1.1.8,1.5,1,1.5q1.2-5.6-.5-3.3l-.9.5a23,23,0,0,1-6.7-.5v6c3.8-.7,7.6-.5,11.4-.8.4,0,.3-2.9.3-3s.7.6,1.5-1.4a3.3,3.3,0,0,1,2.4-.5v-5.9c-1.1,2.2-3.3,2.3-5.5,2.4s-1.9-1.5-2.5.6c.4-1.5,1.9-1.4,2.7-.6v-6c-.7-.5-1.8-2.1-1.7-.9l-.2,4.4c.4-1.5,2.5-1.8,3.8-1.7a22.6,22.6,0,0,1,2.2.7c.3,0,.9,1,1,1s1.1-4.5-.7-.7c-.3.5-.6,5.8.1,5.9a3.4,3.4,0,0,1,2,.7q1.7,3.3,1.7-.1c-.4,1.2.6,5.2.1,5.9,1.8-2.4,4.7-3.2,6.4-.1v-5.9c-1.7.7-3.9,1.3-4.4-1.5v5.5c.7-3,4.7-4.6,7.2-6,.7-.4.6-5.5,0-6a16.5,16.5,0,0,1-1.8-2.1l-.4-.8q-.7-1.8.1,2c.1.1,4.1-.5,4.1.2l.2-3.7c-.5,1.6-1.2,1.8-2.6,2.1l.3,3.8q.3-1.8,2.5-.8c0,.4-.2,4.5.3,4.5s4.6,1.5,4.7-.2c-.1,1.1.5,4.6.3,5s.8-2.1,1.8-2.4,1.5-.1,1.3,0l.6.6-.3-3.9c.3.2-3,.9-2.8.9v5.9c.3-.5,4-2.7,1.7-3.8.9.4-3.9,3.2-4.1,3.2s.3,5.9,0,6Z"/>
      <path class="cls-1" d="M433.9,304c6.9-1.2,7.8-6.2,7.5-12.1l-.3,4.4c2.8,4.5,11.2,8.4,15.8,4.5,1.6-1.4,1.1-2.3,3.7-2s2.7,1.6,4.4,2.6,3.7.3,5.8-.3,2.6.2,5.1,1.2,7.1-3.3,9.9-2.4,2.7,2.3,4.4,3,3.6,1.2,5.4,1.8c3.4,1.1,8.6,3.1,11.9.7s3.6-7.2,4.5-10.5c.2-.6.7-5.7-.1-5.9-4-.9-7.7-1-8.1,3.8s.4,7,5.1,9c-.3-.1,1.1-5.5,0-6l-3.2-1.5q-1.2,1.3-.3.7a2.8,2.8,0,0,1,1.2-.4,32.3,32.3,0,0,1,5.3.4V289c-1.4,5.6-2.6,12-9.7,11.2-5-.5-13.4-2.5-16.1-7h-.1c-3.3,2-9.7,5.9-12.1.8h-.1c-2.7,1.1-5.7,3-8.6,1.5-.7-.4-1.2-1.4-1.9-1.8s-3.4-1-5.1-1.2h-.1c-2.1,7.6-13.8,2.7-16.7-2,0,0-.4,3.7-.3,4.4-.1-1.5-2.7,1.6-3.2,1.9a10.5,10.5,0,0,1-3.7,1.2c-.7.1-.1,6,0,6Z"/>
      <path class="cls-1" d="M612,292.4c-2.1-2.8-5.9-6-9.7-6s-3,6.7-2.5,9.1c.9,5,5,10.6,10.7,9.4,2.2-.5,2.9-2.1,3.1-4.2s.1-5.8-1.6-8.2c-.2-.3-.4,1.9-.4,2.1s-.3,2.9.2,3.7l.8,1.3c1.4,2.2-.4-2.3.4-2.5s-.5.8-.7,1l-.9.6a7.3,7.3,0,0,1-5.4-.2,9.2,9.2,0,0,1-4.3-4.1,17.2,17.2,0,0,1-1.3-2.7c-.1-.4-.2-.9-.4-1.2s-.2-.4-.1,1.5-.2,2.3.1,1.5.9-1,2-1a7.5,7.5,0,0,1,3.1.7,16.6,16.6,0,0,1,6.7,5.3c-.1-.1.3-2.6.3-3S612.5,293,612,292.4Z"/>
      <path class="cls-1" d="M331.6,309.7a38.6,38.6,0,0,0,19-4.6c2.3-1.2,5.2-2.8,7.9-2.7s3.5,1.3,5.5,1.5h.1c3.4-5.5,13.5-4.5,14.2-12.1.1-.5.3-5.1-.2-5.1a18.5,18.5,0,0,0-9.2,2.3c-4.2,2.1-6.5,1.6-10.9.8s-9.4.5-14.1,1.3a29.3,29.3,0,0,1-13.1-.6c-4.2-1.1-8.3-2-12.6-1.8s-10.3,3.5-12.7-1c-3.4-6.3-2.7-12.6-11.1-14h-.1c-1.1,3.2-1.1,6.5-1.7,9.8-1.1,5.5-3.8,6.4-8.7,6.8a55.8,55.8,0,0,0-13.6,2.8c-3.3,1.2-6.3,4.2-9.8,4.8-5.9,1.1-5.8-5.6-8.5-8.8s-13.4-.6-17.6,1.8-5.4,4.8-8.2,7.3-6.3,3.1-9.8,2.8a27,27,0,0,1-10.7-3c-3.8-2.1-5.5-4.6-10.2-4.1a68.5,68.5,0,0,1-14.7-.1,57.6,57.6,0,0,0-14.5.8c-3.9.6-7.9,1.3-11.8.5-2.1-.4-8.4-1.5-8.7-4.5v5c1-2.6,3.9-2.7,4.3-5.9a15.8,15.8,0,0,0,0-3.9c-.2-1.3-1.2-2.4-1.3-3.5v5c1.1-3,4.2-1.6,5-4.8a12.7,12.7,0,0,0,.1-3.2,7.4,7.4,0,0,1-.1-2c.4-1.3-.4.9,1.1.6s1.6-1.8,2.1-2.7,0-1.5,2.3-3.2c.6-.5,1.5-.6,2.1-1.2s1-1.8,1.6-2.9,4-2.9,6.2-4.3-.5-5.6,0-6c-2.9,1.9-4.8,2.4-6.5,5.3s-4.1,3.4-5.7,6.1-3.2,3.3-3.8,5.9,0,4.5.1,6.7l.2-4.4c-.8,2.5-3.1,1.2-4.4,3a5.9,5.9,0,0,0-.7,3,12.1,12.1,0,0,0,1.4,6.9l-.2-3.7c0,.3-3.5,2.2-3.9,3.3a11.6,11.6,0,0,0-.1,5.3c1,5.2,8.6,6.3,13,6.3s9.4-1.3,14.1-1.8,10.5.6,15.9.8,8.8-1.9,12.5.2,5.9,4.1,9.8,5.3,7.3,1.6,10.8.7,5.9-4.4,8.9-7,13.4-8.5,19.3-6.1,3.3,8,7.6,10,5.9-.9,8.4-2.4a38.2,38.2,0,0,1,12.9-4.2c3.7-.6,9.4.1,12-3s2.2-5.8,2.5-8.7.9-6.6,4.7-4.9a8,8,0,0,1,4,4c2,4,2.8,8.1,5.3,12.1h.1c6.7-1.9,13.1-2.8,19.9-1.2s11.1,2.6,17.5,1.4c3.2-.6,6.5-1.5,9.8-1.5s6,1.5,9,1.4,5.1-1.8,7.5-2.9a15.6,15.6,0,0,1,7.2-1.3l-.2-5.1c-.3,3.3-5.5,5-8,6.2s-5.3,4.4-8.2,3.7c-4.9-1.3-7.9.2-12.4,2.5a35.9,35.9,0,0,1-17.6,3.9c-.4,0-.5,6,0,6Z"/>
      <polygon class="cls-1" points="549 274.1 548.1 246.5 554.5 236.9 556.2 238.1 550.1 247.1 551 274.1 549 274.1"/>
      <rect class="cls-1" x="549.1" y="245.6" width="15.8" height="2" transform="translate(-5.6 13.1) rotate(-1.3)"/>
      <rect class="cls-1" x="555.9" y="236.4" width="13.9" height="2" transform="translate(-10.5 26.6) rotate(-2.7)"/>
      <g>
        <path class="cls-1" d="M320.7,177.5l13.7-12,10.9,10.6Zm13.7-10.7-10.8,9.5,19.4-1.1Z"/>
        <path class="cls-1" d="M323.2,176.7l9.9-8.2,1.1-.7,8.6,8Zm10.5-7.3-7.5,6.2,14.2-.6-6.3-5.8Z"/>
        <path class="cls-1" d="M342,199.2H327.2V178.7H342Zm-13.8-1H341V179.7H328.2Z"/>
        <rect class="cls-1" x="334.3" y="179.2" width="1" height="19.48" transform="translate(-7.2 13.4) rotate(-2.3)"/>
        <rect class="cls-1" x="328" y="183.7" width="13.3" height="1" transform="translate(-3.5 6.6) rotate(-1.1)"/>
        <rect class="cls-1" x="327.5" y="190.2" width="13.8" height="1" transform="translate(-6.8 12.5) rotate(-2.1)"/>
        <polygon class="cls-1" points="326 200.5 325.2 177.9 326.2 177.9 326.9 199.4 344.4 197.7 365.2 179.1 360.5 172.5 338.5 168 346.4 174.9 364.4 178.2 364.3 179.2 345.9 175.8 334.9 166.3 361 171.6 366.5 179.3 344.8 198.6 326 200.5"/>
        <path class="cls-1" d="M326.2,198.4l-.8-21.8,18.9-.3.3,21Zm.2-20.8.7,19.7,16.4-1-.2-19Z"/>
      </g>
      <path class="cls-4" d="M413.8,195.1"/>
      <path class="cls-1" d="M432.8,175.4l-18.3-5-14.1-10.5.4-.9,26,7.2ZM415,169.5l15.6,4.2-4.3-6.7-23.1-6.4Z"/>
      <path class="cls-1" d="M413.3,195.5l-1.4-25.7,20.7,5.2Zm-.3-24.4,1.2,22,16.5-17.5Z"/>
      <path class="cls-1" d="M385.5,172.4l14.7-13.5,16.1,11.6Zm14.7-12.2-12,11.1,25.1-1.6Z"/>
      <path class="cls-1" d="M392,170.2h-.3l-.2-.4c-.1-.4-.3-.9,7.1-7.4l.3-.2,12.2,7.5h-1.7Zm7-6.8c-2.5,2.2-5.2,4.7-6.2,5.8l14.9-.4Z"/>
      <path class="cls-1" d="M390.2,197.7l-.5-25.1,23.3-2.7,1.3,24.8Zm.5-24.2.5,23.1,22-2.7L412,171.1Z"/>
      <path class="cls-1" d="M394.1,196.2,393,172.9l17.1-1.9,1.9,23.3Zm0-22.4,1,21.3,15.9-1.7-1.7-21.3Z"/>
      <rect class="cls-1" x="401.6" y="171" width="1" height="23.06" transform="translate(-5.9 13.5) rotate(-1.9)"/>
      <rect class="cls-1" x="393.8" y="179.1" width="15.6" height="1" transform="translate(-8.3 19.8) rotate(-2.8)"/>
      <rect class="cls-1" x="394.3" y="185.4" width="16.1" height="1" transform="translate(-5.6 12.7) rotate(-1.8)"/>
      <g>
        <path class="cls-1" d="M508.6,171.1l-18.3-5-14.1-10.5.4-.9,26,7.2Zm-17.8-5.9,15.6,4.2-4.3-6.7-23.1-6.4Z"/>
        <path class="cls-1" d="M489.1,191.2l-1.4-25.7,20.7,5.2Zm-.3-24.4,1.2,22,16.5-17.5Z"/>
        <path class="cls-1" d="M461.3,168l14.7-13.5L492,166.1ZM476,155.8l-12,11.1,25.1-1.6Z"/>
        <path class="cls-1" d="M467.8,165.9h-.3l-.2-.4c-.1-.4-.3-.9,7.1-7.4l.3-.2,12.2,7.5h-1.7Zm7-6.8c-2.5,2.2-5.2,4.7-6.2,5.8l14.9-.4Z"/>
        <path class="cls-1" d="M466,193.4l-.5-25.1,23.3-2.7,1.3,24.8Zm.5-24.2.5,23.1,22-2.7-1.2-22.8Z"/>
        <path class="cls-1" d="M469.9,191.8l-1.1-23.3,17.1-1.9,1.9,23.3Zm0-22.4,1,21.3,15.9-1.7L485,167.8Z"/>
        <rect class="cls-1" x="477.4" y="166.7" width="1" height="23.06" transform="matrix(1, -0.03, 0.03, 1, -5.67, 16.02)"/>
        <rect class="cls-1" x="469.5" y="174.8" width="15.6" height="1" transform="translate(-8 23.5) rotate(-2.8)"/>
        <rect class="cls-1" x="470.1" y="181" width="16.1" height="1" transform="translate(-5.4 15) rotate(-1.8)"/>
      </g>
      <path class="cls-1" d="M379.9,202.1v-1c7.2,0,14.4-.5,21.4-1.1s14.2-1.1,21.4-1.1v1c-7.1,0-14.3.5-21.3,1.1S387.1,202.1,379.9,202.1Z"/>
      <path class="cls-1" d="M417.4,197v-1a73.9,73.9,0,0,0,8.3-.7c2.3-.3,4.7-.6,7.1-.7l5.3-.3c3-.2,6-.4,9-.4v1c-3,0-6,.2-9,.4l-5.3.3c-2.3.1-4.7.4-7,.7A74.6,74.6,0,0,1,417.4,197Z"/>
      <path class="cls-1" d="M423.1,190.2v-1c5.8,0,11.6-.6,17.2-1.1l9.3-.8,2.2-.2c4.9-.3,9.6-.7,14.5-.7v1c-4.9,0-9.5.3-14.5.7l-2.2.2-9.2.8C434.7,189.7,428.9,190.2,423.1,190.2Z"/>
      <path class="cls-1" d="M433.4,178v-1c3.8,0,7.7-.2,12-.6l4.3-.3a57.7,57.7,0,0,0,10.3-1.2l.2,1a58.4,58.4,0,0,1-10.4,1.3l-4.2.3C441.1,177.8,437.2,178,433.4,178Z"/>
      <path class="cls-1" d="M427.9,184.5l-.4-.9c2.1-.9,5-.9,7.9-.9H439l6.2-.7c2.6-.3,5.3-.7,8-.8v1c-2.6.1-5.3.5-7.9.8l-6.2.7h-3.7C432.7,183.7,429.9,183.7,427.9,184.5Z"/>
      <path class="cls-1" d="M443.3,186.3v-1l6.2-.4c3.6-.3,7.2-.5,10.9-.6v1c-3.6,0-7.3.3-10.8.6Z"/>
      <path class="cls-1" d="M430.5,187H424v-1h3.2a60.2,60.2,0,0,0,8.6-.2v1A43.7,43.7,0,0,1,430.5,187Z"/>
      <path class="cls-1" d="M442,192.7l-.2-1c4.2-.8,8.3-1.4,12.3-1.8l1.7-.2a17.1,17.1,0,0,1,6.3,0l-.2,1a16.2,16.2,0,0,0-5.9,0l-1.7.2C450.3,191.4,446.2,192,442,192.7Z"/>
      <path class="cls-1" d="M470.9,198l-.3-1c3.3-1,6.9-1.1,10.4-1.2l4.7-.2,5.7-.3,5.9-.3,5.1-.6a61.5,61.5,0,0,1,8.4-.8v1a59.8,59.8,0,0,0-8.2.7l-5.1.6-6,.3-5.7.3-4.8.2C477.6,196.9,474,197,470.9,198Z"/>
      <path class="cls-1" d="M460.1,195.4h-2.6v-1a91.2,91.2,0,0,0,14.2-.8,98.3,98.3,0,0,1,13.4-.8v1a98.6,98.6,0,0,0-13.2.8A113.2,113.2,0,0,1,460.1,195.4Z"/>
      <path class="cls-1" d="M350.1,201.3l-.4-.9a10.1,10.1,0,0,1,4.5-.5h1.6l7.6-.4c4.6-.4,9.4-.9,14.6-1.6v1c-5.3.8-10.1,1.3-14.7,1.6l-7.6.4h-1.7A9.3,9.3,0,0,0,350.1,201.3Z"/>
      <path class="cls-1" d="M354,204l-.3-1c3.9-1.3,9.4-1.2,13.8-1.2h1.8v1h-1.8C363.1,202.8,357.7,202.8,354,204Z"/>
      <path class="cls-1" d="M324.4,205.4v-1c2.9,0,6-.3,9-.5a79.9,79.9,0,0,1,12.3-.4v1a78.7,78.7,0,0,0-12.1.4C330.5,205.1,327.4,205.4,324.4,205.4Z"/>
      <path class="cls-1" d="M362.9,165.1l-.4-.9a26.2,26.2,0,0,1,7.6-1.2l4.4-.4,2.8-.7a16.7,16.7,0,0,1,5.9-.9v1a16,16,0,0,0-5.6.8l-2.9.7a44.7,44.7,0,0,1-4.5.4A25.5,25.5,0,0,0,362.9,165.1Z"/>
      <path class="cls-1" d="M374.1,167.5v-1l4.2-.6a36.1,36.1,0,0,1,6.4-.7c2.1,0,4.2-.2,6.3-.4l2.2-.2v1l-2.2.2c-2.1.2-4.2.4-6.4.4a34.8,34.8,0,0,0-6.2.7Z"/>
      <path class="cls-1" d="M350.4,168.8h-.5v-1a65.7,65.7,0,0,0,10.5-1,70.5,70.5,0,0,1,9.9-1v1a69.8,69.8,0,0,0-9.8,1A70.3,70.3,0,0,1,350.4,168.8Z"/>
      <path class="cls-1" d="M348.6,166.5h-7.2v-1h3.3c3.5.1,7.4.3,10.2-.6l.3.9A21.3,21.3,0,0,1,348.6,166.5Z"/>
      <path class="cls-1" d="M407,160.8l-.2-1a48.8,48.8,0,0,1,6.8-1l3.9-.4,1.2-.2a52.6,52.6,0,0,1,7.4-.7h2.4c3,.1,6.7.2,9-.8l.4.9c-2.4,1-6.3.9-9.4.8h-2.4a51.1,51.1,0,0,0-7.2.7l-1.2.2-3.9.4A48.1,48.1,0,0,0,407,160.8Z"/>
      <path class="cls-1" d="M419.7,163.4l-.3-1c5.6-1.5,12.3-1.7,18.2-1.9h3.7c5.2-.2,10.6-.5,15-1.7l.3,1c-4.5,1.2-10,1.6-15.2,1.8h-3.7C431.8,161.7,425.1,161.9,419.7,163.4Z"/>
      <path class="cls-1" d="M446.2,157.1l-.3-1a46.9,46.9,0,0,1,8.8-1.5,63,63,0,0,0,6.6-.9,56.9,56.9,0,0,1,7.3-.9l2.6-.2v1l-2.7.2a56.2,56.2,0,0,0-7.2.9,63.7,63.7,0,0,1-6.7.9A46.2,46.2,0,0,0,446.2,157.1Z"/>
      <path class="cls-1" d="M483.6,154.2l-.4-.9c1.5-.6,3.9-.7,6-.7h2.6l8.4-.4h.1a61.2,61.2,0,0,0,11.4-1.5,117.9,117.9,0,0,1,12.5-1.9l8.3-1.1.2,1-8.3,1.1a117.4,117.4,0,0,0-12.4,1.9,62.2,62.2,0,0,1-11.6,1.5h-.1l-8.4.4h-2.7C487.2,153.6,484.9,153.6,483.6,154.2Z"/>
      <path class="cls-1" d="M357.7,198h-7.8v-1h3.7c3.7.1,7.6.3,10.7-.7l.3,1A24.4,24.4,0,0,1,357.7,198Z"/>
      <path class="cls-1" d="M371.1,197l-.3-.9a39.2,39.2,0,0,1,7.3-1.3l2.2-.3,1.3-.2a14.7,14.7,0,0,1,4.1-.4l-.2,1a14.6,14.6,0,0,0-3.7.4l-1.3.2-2.2.3A38.6,38.6,0,0,0,371.1,197Z"/>
      <path class="cls-1" d="M378.9,193.1l-.3-1a29.1,29.1,0,0,1,7.4-.8h.1v1H386A28.5,28.5,0,0,0,378.9,193.1Z"/>
      <path class="cls-1" d="M352.9,194.3v-1c2.4-.2,4.8-.3,7.2-.4a68.6,68.6,0,0,0,11.1-1l.2,1a69.3,69.3,0,0,1-11.2,1C357.7,194,355.2,194.1,352.9,194.3Z"/>
      <path class="cls-1" d="M358.2,191.4l-.3-1a28.9,28.9,0,0,1,7.7-.8,31.3,31.3,0,0,0,6.6-.6,44.5,44.5,0,0,0,4.8-1.5,41.3,41.3,0,0,1,5.5-1.7l.2,1a40.6,40.6,0,0,0-5.4,1.7,45.2,45.2,0,0,1-4.9,1.6,32.1,32.1,0,0,1-6.8.6A28.2,28.2,0,0,0,358.2,191.4Z"/>
      <rect class="cls-1" x="385.3" y="188.8" width="4.3" height="1"/>
      <path class="cls-1" d="M362,185.4v-1c4.4,0,8.9-.4,13-.8l3.1-.2a32,32,0,0,0,5.8-.6l.2,1a32.7,32.7,0,0,1-5.9.6l-3,.2C370.9,185,366.4,185.4,362,185.4Z"/>
      <path class="cls-1" d="M388.8,418.6c-103.6,0-201.1-21.6-274.5-61S0,265.4,0,209.3,40.6,100.5,114.3,61,285.2,0,388.8,0,589.9,21.6,663.2,61s114.3,92.2,114.3,148.3S737,318.1,663.2,357.6,492.4,418.6,388.8,418.6ZM388.8,4C176.6,4,4,96.1,4,209.3S176.6,414.6,388.8,414.6s384.8-92.1,384.8-205.3S601,4,388.8,4Z"/>
      <circle class="cls-1" cx="743.6" cy="204.7" r="7"/>
      <circle class="cls-1" cx="33.8" cy="215.6" r="7"/>
      <polygon class="cls-1" points="406.2 290 405.2 290 405.2 275 413.2 275 413.2 276 406.2 276 406.2 290"/>
      <polygon class="cls-1" points="405.4 272.9 405.1 265.4 413.9 265 413.9 266 406.1 266.3 406.4 272.8 405.4 272.9"/>
      <polygon class="cls-1" points="404.9 263.2 404.5 255.1 412.7 255.1 412.7 256.1 405.6 256.1 405.9 263.1 404.9 263.2"/>
      <polygon class="cls-1" points="394.6 263.7 394.3 255.4 401.8 255.3 401.8 256.3 395.4 256.4 395.6 263.7 394.6 263.7"/>
      <polygon class="cls-1" points="394.4 273.3 394.1 265.5 402.1 265.4 402.1 266.4 395.1 266.5 395.4 273.2 394.4 273.3"/>
      <polygon class="cls-1" points="395 290.8 394.5 275.8 402.4 275.2 402.5 276.2 395.5 276.7 396 290.8 395 290.8"/>
      <path class="cls-1" d="M378.9,251.3a.5.5,0,0,1-.2-.9l23.4-12.2h.4L427.9,250a.5.5,0,0,1-.2,1l-48.8.3Zm23.5-12.2L381,250.3l44.5-.3Z"/>
      <path class="cls-1" d="M385.3,250a.5.5,0,0,1-.2-.9l17.8-8.7h.5l18.7,8.5a.5.5,0,0,1-.2,1l-36.6.2Zm17.9-8.6h-.1L387.4,249h32.1Zm-.3-.4h0Z"/>
      <path class="cls-1" d="M417.7,248.8h-.2l-14.2-6.6a.5.5,0,0,1,.4-.9l14.2,6.6a.5.5,0,0,1-.2,1Z"/>
      <path class="cls-1" d="M385.7,249.4a.5.5,0,0,1-.2-1l16.9-7.1a.5.5,0,1,1,.4.9l-16.9,7.1Z"/>
      <path class="cls-1" d="M386.8,249.8a.5.5,0,0,1,0-1l31.2-.4h0a.5.5,0,0,1,0,1l-31.2.4Z"/>
      <path class="cls-1" d="M419.3,297.1H373.5l5.3-3.1h41.9Zm-42.1-1h41.4l.5-1.1H379.1Z"/>
      <path class="cls-1" d="M419.5,300.1H370.4l-.2-.9,4.6-2.3h45Zm-47-1.1h46.1v-1.4H375Z"/>
      <polygon class="cls-1" points="418.1 303.2 366.7 303 370.2 299 370.4 299 418.5 299.9 418.4 300.9 370.6 300 368.9 302 417.6 302.2 421.4 297.7 422.2 298.3 418.1 303.2"/>
      <path class="cls-1" d="M420.4,295h-5.1V251.4h5.1Zm-4.1-1h3.1V252.4h-3.1Z"/>
      <path class="cls-1" d="M393.5,294.4h-5.9V251.9h5.9Zm-4.9-1h3.9V252.9h-3.9Z"/>
      <rect class="cls-1" x="412.1" y="272.4" width="4" height="1.98"/>
      <path class="cls-1" d="M465.3,251.6h-23l-3.5-6.2h29.8Zm-22.4-1h21.8l2.2-4.3H440.5Z"/>
      <path class="cls-1" d="M476.3,286H433.7V251.2l42.9-.3Zm-41.6-1h40.6l.2-33.1-40.9.2Z"/>
      <path class="cls-1" d="M442.2,285.7l-.6-33.7,25-1.3.4,34.8Zm.4-32.7.6,31.7H466l-.4-32.8Z"/>
      <rect class="cls-1" x="453.3" y="252.2" width="1" height="34.44" transform="translate(-4.8 8.2) rotate(-1)"/>
      <rect class="cls-1" x="442.5" y="259" width="23.2" height="1" transform="translate(-1.5 2.7) rotate(-0.3)"/>
      <rect class="cls-1" x="443.2" y="267.5" width="22.5" height="1" transform="translate(-5.7 9.8) rotate(-1.2)"/>
      <rect class="cls-1" x="443.7" y="276.3" width="22.3" height="1" transform="translate(-1.6 2.7) rotate(-0.3)"/>
      <path class="cls-1" d="M476.1,286.5H468V250.8h8.1Zm-7.1-1h6.1V251.8H469Z"/>
      <path class="cls-1" d="M473,268h-4.8V251.3H473Zm-3.8-1H472V252.3h-2.8Z"/>
      <path class="cls-1" d="M473.2,284.6h-5.5V267.8h5.5Zm-4.5-1h3.5V268.8h-3.5Z"/>
      <path class="cls-1" d="M441.2,268.8h-5.5V252.2h5.5Zm-4.5-1h3.5V253.2h-3.5Z"/>
      <path class="cls-1" d="M442,284.9h-6.3V268.3H442Zm-5.3-1H441V269.3h-4.3Z"/>
      <rect class="cls-1" x="433.8" y="285" width="42.7" height="2.11"/>
      <path class="cls-1" d="M167.8,276.1c-1.4,2.1-3.5,3.5-2.8,7,9.1-4.9-2.8-14-4.9-3.5,4.2,0,7-4.9,7.7-9.1l-.7,1.4a9.9,9.9,0,0,0,1.4-4.2,11.8,11.8,0,0,0-2.8,9.8,11.3,11.3,0,0,0,4.2-9.1c-4.9,2.1-5.6,7.7-5.6,12.6,1.4-2.8,1.4-4.2,2.1-7-5.6,2.8-8.4,10.5-9.8,16.1,2.8-1.4,2.1-1.4,2.8-4.2-5.6-.7-9.8,3.5-9.8,9.1,5.6,0,11.2-2.8,11.2-7.7-2.1,2.1-2.1,3.5-2.8,6.3,2.1-1.4,4.2-2.1,5.6-3.5-.7.7-.7,3.5-.7,4.9,2.1-2.8,3.5-3.5,4.2-7l-.7,3.5c3.5-2.1,3.5,0,3.5-4.9,0,2.1.7,4.9.7,7.7,0-8.4-1.4-16.1-1.4-24.5-.7,4.2,2.1,37.8,11.9,23.8v.7a13,13,0,0,1,4.9-1.4,4.2,4.2,0,0,0,2.8-.7c0,2.8,1.4,1.4,2.8,2.1"/>
      <g>
        <path class="cls-1" d="M189.6,294.4c4.1,3.2,11,2.7,16,3.2,0,4.6,5.5,3.7,8.7,1.4a6.7,6.7,0,0,1-1.8-.9,10.8,10.8,0,0,0,5.5-1.4c.5,1.8,2.7,1.8,3.7-.9l1.8.9c-2.3-1.8-4.1-1.4-5.5.9,5.5,3.2,3.2-5,0-2.3-1.4-2.3-3.2-3.2-4.6-.9s-5.5,2.3-7.8-.5c-1.4.5-.9,1.4-.9,1.8"/>
        <path class="cls-1" d="M189.6,297.4a17,17,0,0,0,7.6,2.6c2.2.3,6.7-.3,8.3,1s.3,2,2.3,2.6,4.7-.6,6.4-1.7.6-5.8,0-6a8.6,8.6,0,0,1-1.8-.9v6c2.1-.1,4.2-.4,6.1-.4s2.2-.2,3.1-2,.7-5.5-.1-5.9h-.2v6l2,1c-.4-.2,1.1-5.3,0-6s-3.8-1.3-5.5.9c-.5.6-.7,5.6,0,6,3.6,1.8,3.6-.8,3.6-3.7s-.2-4.1-2.7-5.1-2.9-2.1-5.5-.4-3.9,1.4-6.7.5c-1.2-.4-.9-1.5-2-.3s-.2,1-.3,1.4a15.7,15.7,0,0,0,.1,4.8c.1,1.1.2.8.4,0a12.6,12.6,0,0,0,0-4.2c.4,3.6,2.5,6.1,6.3,4.9s3.6-4.5,6.6-.4h.1c1.6-1.1,2.1.7,2.9.4v-3.6l-.4.2-2.4-.7v6c1.7-2.3,3.1-2.4,5.5-.9v-6l-2-1c.4.2-1.1,5.4,0,6h.2v-5.9c-.8,1.6-2.4,3.2-3.5.9h-.1a14,14,0,0,1-5.5,1.4c-.4,0-.6,5.6,0,6a8.6,8.6,0,0,0,1.8.9v-6c-2,1.3-8,3.8-8.5-.5,0,0-.1-.9-.2-.9-5.4-.4-11.3,0-16-3.2.6.4-1.2,5.2,0,6Z"/>
      </g>
      <g>
        <path class="cls-1" d="M233,299c3.2,1.4,5.9-.5,5.9-3.8-1.8.9-.9,0-2.3,2.4,2.3-.5,4.1-.9,5.5-3.3-1.8.5-2.3.5-3.7,1.9,3.2,1,7.8.5,10.5-1.9-2.3,1.4-3.2,4.3-2.7,7.1,3.2-.5,8.7-3.3,5.9-5.7.5,0,1.4.5,1.8.5-1.4,1.9-.9,4.3-1.4,6.2,4.6,0,11.4-2.8,16.4-3.8s10.5-2.4,13.7-4.3v2.4c1.8-.5,2.7,0,4.6-1.4a12.2,12.2,0,0,0-2.7,2.4c4.6,1.4,10-1.9,9.6-6.2a11.5,11.5,0,0,0-3.2,5.7c13.7,1-.9-16.6-3.2-2.8,3.7.5,8.2-2.4,7.3-6.6s-5.5-2.4-7.3-3.8.5,5.7,1.8,2.8,4.6-2.8,1.8-4.7c3.7-.5,5.5-3.8,3.7-5.7v-1.4c1.8,3.3,2.7,8.1,5.9,10.4l-1.4-.9c0,.9.5,2.8.5,3.8s1.4-1.4,1.4-1.9a4.1,4.1,0,0,0,0,2.4c-2.3.5-3.7,4.3-3.7,7.6a7.7,7.7,0,0,0,8.2-2.4c-2.3,1.4-.9.9-2.3,2.4a17.9,17.9,0,0,0,8.7-1.9c-.9,1-.5,2.8-.9,3.8a6.2,6.2,0,0,0,6.8-1.4,20,20,0,0,0-3.2,2.8c3.2,0,9.6-5.2,5.5-7.6-3.7,4.3.9,6.6,5,4.3-.9,1-1.4,2.4-2.3,3.3,2.3-1.4,5.5-2.8,7.3-4.3,0,.5-.5.9-.5,1.4,1.8,0,3.7.5,5,0-2.3-.5-4.6.9-5.5,3.8,2.7,0,5-1.4,6.8-3.8l-3.2.9c2.7.5,6.4.5,8.7-.9l-1.4,2.8c2.7.5,6.4-1,7.3-3.8a5.6,5.6,0,0,0-5,5.7c2.7,0,5-1,5.5-3.8-1.8,1-1.4,1.4-2.3,2.8a8,8,0,0,0,6.8-3.8c-3.7-2.4-7.3.9-9.1,4.7,3.2,0,3.2.5,3.7-2.4-2.7-.5-4.6,1-5,3.8,0,0,1.4-1,.9-1s-2.7-1.4-5,1l1.8.5c0-3.8-2.3-4.3-4.6-1.9s3.2-.5,2.3-.5l-2.7.5c2.7.5,4.1.5,5.9-1-2.3,1.9-3.7,6.2-2.7,9.5-3.7-1.4-7.3-5.2-11-2.8a5.6,5.6,0,0,0,2.7.5h-.5c.9-.5,2.3-.5,3.2-1.4s3.7-1.4,5-2.8"/>
        <path class="cls-1" d="M233,302c4,1.2,5.7-1.1,6.1-4.7.1-.5-.1-5.2-.2-5.1s-1.5,1-2.4,2.5-.2,5.9.1,5.9a8.2,8.2,0,0,0,5.6-3.4c.4-.6.1-5.9-.1-5.9a7.2,7.2,0,0,0-3.7,1.9c-.5.5-.6,5.9,0,6a12.4,12.4,0,0,0,10.5-1.9v-6c-3.7,3-3.3,7.9-3,12.2,0-.1.1.9.2.9,3-.6,6.2-1.8,6.9-5.1s.4-4.9-1-6.6v6l1.8.5v-5.9c-1.1,2.2-1.1,4.1-1.4,6.5-.1.5-.4,5.6.2,5.6,5.4-.3,10.5-2.5,15.8-3.7s9.8-2,14.3-4.4l-.3-3v2.4c0,.2,0,3,.3,3a11.5,11.5,0,0,0,4.6-1.4v-6a12.2,12.2,0,0,0-2.7,2.4c-.5.5-.6,5.9,0,6,6.2,1.3,9.8-2.6,9.9-8.4,0-.3-.4-3.7-.3-3.8a13.6,13.6,0,0,0-3.3,5.8c-.1.5-.5,5.9.1,5.9,2.7.1,5.1-.2,5.9-3a13.7,13.7,0,0,0-.3-7.2c-.7-1.8-2.5-3.8-4.5-3.9s-3.9,3.3-4.4,5.7c-.1.5-.4,5.6.2,5.6,6.7.3,8.5-5.6,7.6-11.2-.5-2.9-1.9-3.8-4.7-4.5s-2.9-1.7-3.6.3-.2,8.7,2.3,8.1a24,24,0,0,0,2.9-3.3,5.7,5.7,0,0,0,.5-2.3c.2-2,.3-4.1-1.3-5.5v6c3.2-.8,4.4-2.5,4.6-5.6a16.7,16.7,0,0,0,0-3.3,6.6,6.6,0,0,0-.3-1.6c-.5-1.1-.4,2.2-.4.4l-.4,2.9c1.8,3.7,2.8,7.7,6,10.6v-6l-1.4-.9s-.3,4.6-.2,5.1.3,2.5.5,3.8.1,1.1.3.8,1-1.2,1.4-1.9l-.3-5a24,24,0,0,0,.1,7.1l.2-5.6c-3.4,1.5-3.7,5.8-3.9,9.1,0,.5-.3,4.4.3,4.5a8,8,0,0,0,8.2-2.4c.9-1-.5-5.7,0-6a8.7,8.7,0,0,0-2.3,2.4c-.5.5-.4,6,0,6a21,21,0,0,0,8.7-1.9v-5.9c-.7,1.3-.6,2.5-.9,3.8s-.7,5.7.1,5.9a6.7,6.7,0,0,0,6.8-1.4c1.2-.9-.6-5.5,0-6a29.6,29.6,0,0,0-3.2,2.8c-.5.5-.3,6,0,6a7.9,7.9,0,0,0,7-6.2c.4-2.4.6-5.8-1.5-7.4h-.1c-3.2,4.5-2.3,13.6,5.1,10.2v-5.9l-2.3,3.3c-.6.8.4,5.7.1,5.9,2.4-1.4,5-2.7,7.3-4.3v-5.9l-.5,1.4c-.2.5-.5,5.9.1,5.9a24.4,24.4,0,0,0,5,0c.5-.1.4-6,0-6-3-.2-4.4,1.3-5.6,3.9-.2.5-.4,5.9.1,5.9a9.5,9.5,0,0,0,6.8-3.8c.6-.7,0-6,0-6l-3.2.9c-.6.1-.4,5.9,0,6,3,.4,5.9.4,8.7-.9v-5.9l-1.4,2.8c-.3.5-.5,5.9.1,5.9,3.3.2,5.9-.9,7.4-3.9.3-.6.2-6-.1-5.9-3.6.9-4.9,3.1-5.2,6.6,0,.5-.2,5.1.2,5.1,3-.2,4.7-1,5.6-3.9.2-.7-.2-5.8-.1-5.9a6.2,6.2,0,0,0-2.4,3c-.3.5-.3,5.9.1,5.9a8.7,8.7,0,0,0,6.9-3.9c.4-.6.6-5.6-.1-5.9-4.3-2-7.3,1.3-9.2,4.9-.3.5-.4,5.9.1,5.9,2.8,0,3.3,0,3.8-2.8.1-.5.4-5.6-.2-5.6-3.1-.2-4.4,1.1-5.1,3.9-.2.7.2,5.8.1,5.9s1-.6,1.1-1.4.7-5.2-.2-5.6-3.2-.7-5,1-.6,5.9,0,6l1.8.5c.3.1.3-4.7.2-5.1s-.1-3.2-1.3-4-3.2.4-3.7,1.6-.6,5.8.1,5.9a4.3,4.3,0,0,0,2.5-.7c.6-.3.6-5.6,0-6s-2.5.2-2.9.4-.4,5.9,0,6c2.4.3,3.9.4,5.9-1v-6c-3.8,3.8-3.8,10.1-2.9,15.1l.2-5.6c-3.6-1.7-6.9-4.7-11-2.8-.6.3-.5,5.8,0,6a5.6,5.6,0,0,0,2.7.5v-6h-.5v6c3-1.1,5.8-2.1,8.2-4.3s-.7-5.4,0-6c-2.4,2.2-5.2,3.2-8.2,4.3-.7.2-.3,6,0,6h.5c.4,0,.5-6,0-6a5.6,5.6,0,0,1-2.7-.5v6c4.1-1.8,7.3,1.2,11,2.8a45.3,45.3,0,0,0,.2-5.6c-.1-.8,2.4-3.7,2.6-3.9s-.5-5.7,0-6c-2,1.3-3.6,1.3-5.9,1v6c.3-.2,2.5-.6,2.9-.4v-6a4.3,4.3,0,0,1-2.5.7v5.9c1.1-2.7,4.1-1.8,4.4.9l.2-5.1-1.8-.5v6c1.8-1.7,2.8-2,5-1l-.2-5.6-.8.5v5.9c.7-2.8,2.2-3.9,4.9-3.7l-.2-5.6c-.4,2.3-1.5,2-3.5,2v5.9c2-3.7,4.8-6.6,9-4.6v-5.9a8.5,8.5,0,0,1-6.8,3.7v5.9a6,6,0,0,1,2.2-2.7v-5.9c-.8,2.8-2.7,3.5-5.4,3.7l.2,5.1c.3-2.9,2.3-4.2,4.8-4.8v-5.9c-1.4,2.9-4.1,3.9-7.2,3.7v5.9l1.4-2.8c.3-.7-.1-5.9-.1-5.9-2.8,1.4-5.6,1.4-8.7.9v6l3.2-.9v-6a9.5,9.5,0,0,1-6.8,3.8v5.9c1.1-2.6,2.7-3.9,5.4-3.7v-6a24.4,24.4,0,0,1-5,0v5.9l.5-1.4c.2-.8-.2-5.8-.1-5.9-2.3,1.6-4.9,2.8-7.3,4.3v5.9l2.3-3.3c.5-.7-.2-5.8-.1-5.9-2,.9-5.2,1.8-6.2-.9l.2,3.7c0,.5,1.9-3.4,1.8-3.4s-2,2.2-2.4,2.4a8.1,8.1,0,0,1-3.9,1.6v6a29.6,29.6,0,0,1,3.2-2.8v-6a6.7,6.7,0,0,1-6.8,1.4v5.9a16,16,0,0,1,.9-3.8c.4-.7-.1-5.9-.1-5.9a21,21,0,0,1-8.7,1.9v6a9.8,9.8,0,0,1,2.3-2.4v-6a8,8,0,0,1-8.2,2.4l.3,4.5c.1-2.5,1-5.1,3.4-6.1.8-.3.3-4.9.2-5.6v2.3c.1-.9-.4-4.8-.3-5-1.4,2.3-1.3,1.3-1.5-1.1l-.2,5.1,1.4.9c-.6-.4,1.1-5.1,0-6-3.1-2.8-4.1-6.7-5.9-10.3a23.2,23.2,0,0,0-.4,2.9,35.6,35.6,0,0,1,.1,3.8c-.2,1.4,1.5-.8-.2-1.2s-2.8,1.4-3.2,1.5-.5,5.6,0,6l.9,1.2v-5.8a18.7,18.7,0,0,1-3.4,4c-.5.3-1.1-1.5-1.2-1.5-4.8,1.8.3,4.1,1.1,4.4s4.9.6,5.3,1.1.5-.4-1,1.3a5.5,5.5,0,0,1-1.5.9,7.8,7.8,0,0,1-3.9.7l.2,5.6c.7-3.6,3.2-6.5,6.6-3.8.6.5,1,1.5,1.6,1.9s1-2.5.2-2.4-1.2,1-1.7,1.2a8.8,8.8,0,0,1-3.6.3V300a13.3,13.3,0,0,1,3.1-5.6l-.3-3.8c-.1,3.9-6.8,4.5-9.3,4v6a12.2,12.2,0,0,1,2.7-2.4c1.1-.8-.5-5.7,0-6a11.5,11.5,0,0,1-4.6,1.4l.3,3v-2.4a24.2,24.2,0,0,0-.3-3c-4.5,2.4-9.4,3.4-14.3,4.4s-10.3,3.4-15.8,3.7l.2,5.6c.3-2,.3-4,1.3-5.9s.6-5.7-.1-5.9l-1.8-.5c-.1,0-.5,5.4,0,6l.6,1v-5.5c-.6,2-2.4,2.4-3.9,3.4s-1,.4-1.9,1.6,1.7-1.6,2-1.9-.6-5.6,0-6a12.4,12.4,0,0,1-10.5,1.9v6a7.2,7.2,0,0,1,3.7-1.9v-5.9c-1.6,2.2-3,2.7-5.4,3.2v5.9c.7-1.3.9-1.7,2.2-2.3l-.2-5.1c-.4,3.3-3.2,3.7-5.7,2.9.1,0-1,5.7,0,6Z"/>
      </g>
      <g>
        <path class="cls-1" d="M423.3,300.3a9.7,9.7,0,0,0,11-1.8c3.2-.9,6.4-2.7,7.8-5.5a7.7,7.7,0,0,1-.9,2.3c3.7,1.4,6.8-.9,6.8-4.6-7.3-.9-.5,13.2,5.5,5-4.1-.5-8.2,2.3-10.5,5.9,2.7.5,5.9,0,7.8-2.3a6.8,6.8,0,0,0-6.4-1.8c3.7,2.3,13.7,3.2,16-1.4-1.4,1.4-1.4,2.3-1.8,4.1,2.3.9,3.7.9,5.5-.9,0,0-1.8-.9-1.8-1.4,3.2,1.8,8.7,1.8,11-.9-7.3-.9.9,3.7,6.8,1.4-1.4.5-2.3,1.8-3.7,2.3,3.2,1.4,6.4.9,7.8-1.4h-2.7c2.7,2.3,6.8,2.3,10.5,1.4a10,10,0,0,0-2.3-1.4c1.8.9,3.2.9,5.9,0-1.8-.5-2.7-.9-5-.5,3.7,2.7,13.2,2.7,15.5-1.4-1.4,1.4-1.4,2.7-2.3,4.6,4.6.9,10-.9,11.9-5.5,0,.5-1.8,1.8-2.3,1.8a5.3,5.3,0,0,0,3.2-.9c-2.3-.5-4.6-.9-6.4,0a18.6,18.6,0,0,0-2.7-5c2.3,1.4,4.1,1.4,6.4,1.4h0c-1.4.5-2.3,2.3-3.2,2.7,2.7,2.3,6.4,1.4,8.7-.9,0,.5-.5.9-.5,1.4,3.2.5,6.8.5,9.6-.9-9.6,2.3,3.2,11.9,7.8,4.1-.5,0-1.8-.5-2.7-.5,12.8,1.4,6.4-11.4,1.4-3.2,3.7,1.4,10,1.8,12.8-.5,0,.5-.5,2.3-.9,2.3,15.5,4.1,3.2-18.7-2.3-7.3-.9,2.3,6.8,4.1,6.8-1.4s-6.4-3.7-8.2-1.8c9.6,3.7,3.7-6.4,3.7-6.8.5-2.3-2.3,6.8.5,3.7s2.3,0,2.3-2.7c.5-.5-2.3,1.4-1.8.9,4.1,1.4,8.2-5.5,4.1-6.4a6.4,6.4,0,0,0,2.3-6.4,12.6,12.6,0,0,0-.5,4.1l.9-1.4c-.5,4.1-.9,11.9,4.6,12.8,0,.5.5-1.4,0-1.4-2.3,1.8-1.8,6.4,2.3,4.6-2.7,0-.5-.9-2.3,2.3,9.6,1.4,1.4-11.9-5.9-3.2s8.7,14.6,13.7,8.7a8.6,8.6,0,0,0-3.7.9c2.3-.5,5.5-5,2.3-6.8s-8.2,6.4-7.8,9.6c4.6.5,11-.5,12.3-4.6-2.7.5-3.2,1.4-4.1,4.1,4.1.9,11.9.9,11-4.6-2.3.5-2.3.5-3.2,2.7a7.9,7.9,0,0,0,11-7.8c-6.8-2.3-10.5,12.8-1.4,8.2,6.4-3.7,3.2-11.9-2.7-13.2-.9,5.9,7.8,2.7,4.1-.9-.9-.9-3.7,11,5.9,5.9-2.7.9-3.7,5-3.7,8.2,1.8,0,12.3-2.3,8.7-6.4s-7.8,5.9-6.4,9.1c6.8,15.5,17.3-16.4,4.6-7.3,7.8,4.1,6.4-9.1,5-6.8-5,7.8,5.9,8.2,4.6,2.3-2.7-11-7.3,2.7-4.1-.5s3.7,0,3.7-3.7-4.1-2.3-5-1.8v.5c1.8,0,1.4,0,3.2-.9-11.4-5.9,0,18.3,3.2,6.8-3.2,4.1-.5,7.8,4.6,6.8-.5.9-.9,3.7-1.4,4.6,2.7-.5,4.1-.9,5-2.3-1.8,1.4-2.3,1.8-2.7,4.1,2.7-2.3,4.1-6.8,1.4-9.6,1.8-.9.9-.9,2.3-2.3-6.8.5-.5,7.8,4.6,6.4-.5,1.4,0,3.2-.5,4.1a13.7,13.7,0,0,0,4.6-1.8,7.4,7.4,0,0,0-8.2,3.2,8.6,8.6,0,0,0,3.7-.9l-2.3-.5c3.7-.9,9.1-3.2,11-2.3"/>
        <path class="cls-1" d="M423.3,303.3c4.6,1.8,7,.3,11-1.8s5.8-2.3,7.8-5.6l-.2-5.8a7.7,7.7,0,0,1-.9,2.3c-.3.6-.6,5.7.1,5.9,4.4,1.1,6.6-1.4,7.1-5.4.1-.5.3-5.1-.2-5.1-7.4-.3-2.6,20.9,5.5,11,.4-.5.5-6,0-6-4.6-.1-8,2.4-10.6,6-.3.5-.4,5.8.1,5.9,3.1.3,5.5-.1,7.8-2.3.6-.6.7-5.5,0-6a7.6,7.6,0,0,0-6.4-1.8c-.4.1-.6,5.7,0,6,4.4,2.4,12.9,3.4,16.1-1.5.9-1.3-.8-5.1-.1-5.9a9.8,9.8,0,0,0-2,4.5c-.2.7-.6,5.3.2,5.6,2.3.8,3.6.7,5.5-.9s.6-5.7,0-6a4.7,4.7,0,0,1-1.7-1.3V301c3.5,1.7,8,1.9,11-.9.5-.5.5-6,0-6s-2.2-.4-2.9.2-.4,4.9-.1,5.9c.9,2.9,7.9,1.8,9.8,1.3v-6l-3.7,2.3c-.6.3-.5,5.8,0,6,3,1,5.6,1.2,7.8-1.4.5-.5.4-6,0-6h-2.7c-.3,0-.6,5.6,0,6,3.3,2.2,6.7,2.2,10.5,1.4.5-.1.5-5.6,0-6a10,10,0,0,0-2.3-1.4v6c2.2.9,3.7.6,5.9,0,.5-.2.5-5.9,0-6a12,12,0,0,0-5-.5c-.5.1-.6,5.6,0,6,4.3,2.8,12.4,3.1,15.6-1.5,1-1.4-.8-5-.1-5.9a19.3,19.3,0,0,0-2.4,4.7c-.2.5-.6,5.8.1,5.9,5,.7,9.6-.9,11.9-5.6.7-1.4-.5-5.2-.2-5.8a4.4,4.4,0,0,1-2.2,1.7c-.7.3-.2,6,0,6a7,7,0,0,0,3.2-.9c.6-.3.5-5.9,0-6s-4.3,0-5.8-.7-2.2-2.7-3.2-4.2v5.9c1.4.7,5.3,2.4,6.7,1s-.7-5.3,0-6a46.2,46.2,0,0,1-3.5,3.1c-.6.5-.6,5.6,0,6,3.1,2,5.9,1.4,8.7-.9v-5.9l-.5,1.4c-.2.6-.6,5.8.1,5.9a18.9,18.9,0,0,0,9.6-.9c.9-.4-.1-6,0-6-4,1.2-4.9,5.6-3.4,9.4s8.6,4.4,11.3.6c.3-.5.5-5.8-.1-5.9l-2.7-.5v6c6.3.5,8.2-2.1,7.7-8s-3.9-4.8-6.4-1.1c-.4.5-.6,5.7.1,5.9,4,1.3,9.1,2,12.8-.5l-.2-5.6-.8,1.9c-.5.5-.6,5.9,0,6,7.2,1.7,8.6-2.9,7.7-9.2-.6-4-5.3-10.5-9.2-5.4-1.3,1.7-1.8,5.6-1,7.5a3.9,3.9,0,0,0,6.3.9c1.6-1.8,1.5-6.6.8-8.8-1.1-3.7-5.6-3.6-8.3-1.4-.5.4-.6,5.8,0,6,9.2,3.1,5.1-8,3.7-12.7v5.5c.3-1.7.6-4.2,0-5.8q-.1-.2-.2,0c-1,2.4-1.6,6.5-.9,9s0,1.4,1.4.9,2.3-1.8,2.5-3.6.6-4.6-.2-5.1-1.4,1.2-1.8.9v6c5.9,1,9.1-10.4,4.1-12.4v6c3.1-2.9,2.8-7,2.5-10.9,0-.2-.1-2.2-.4-1.1a30.4,30.4,0,0,0-.6,6.7,15.4,15.4,0,0,0,.4,2.9l.9-1.4-.3-5c-.5,5.3-2,16.1,4.8,17.9h.1c1-1.5.7-5.6,0-7.2h-.1c-2.5,2.6-3.3,12.4,2.3,10.6.6-.2.3-6,0-6h-1.5c-.2,0-.3,1.4-.3,1.5s-.5-.1-.6,1-.5,5.8.1,5.9c5,.5,5.4-3.7,4.5-7.9s-7.4-5.2-10.4-1.3-2.5,8.5-.9,11.7c2.5,5,10.6,7,14.6,2.9.5-.5.3-6,0-6a11.6,11.6,0,0,0-3.7.9c-1,.4.2,5.9,0,6,3.8-1.4,6.7-12.1,1.4-13.2s-7.3,10.4-7.1,14.4c0,.1,0,1.5.3,1.5,4.5.3,10.3,0,12.4-4.7.3-.5.2-6-.1-5.9-2.7.6-3.3,1.7-4.2,4.2-.2.6-.6,5.8.1,5.9,3,.6,8.1,1.2,10.3-1.6s1.1-5.2.9-7.5c0,0-.1-1.5-.3-1.5-2.1.4-2.5.9-3.3,2.8s-.7,5.6.1,5.9c7.8,2.8,11.2-4.3,11.3-10.8,0-.3.1-2.9-.3-3-3.9-1-6.3,2.5-6.9,5.9s-1,7.7,1.5,8.9c4.8,2.4,7.7-4.9,7.9-8.3.2-5.1-1.1-9.9-6.5-11.6-.2-.1-.3,1.5-.3,1.5-.1,2.1-.5,10.6,4.2,7.2,1.7-1.2,2.6-8.2.5-9.3s-1.7,5.9-1.6,7.1c.2,5,2.3,6.9,7.3,4.5v-6c-3.7,1.9-3.8,6.7-3.9,10.4,0,.1-.1,3.8.3,3.8,3-.2,8.3-1.3,9.5-4.5s.8-7.4-1.4-8.4-5.9,5.8-6.2,8.2-.4,7.2,1.8,10c7.9,9.7,15.8-24.4,3.1-15.8-.6.4-.6,5.7,0,6,6.7,3.1,7.6-7.1,6.1-11.5s-2.1,0-2.5,2.2-.8,6.4.9,8,4.8.1,5.3-2.2.4-7.9-1.3-10.2c-3.5-4.6-6.2,7.4-4.1,8.9.4.3,3.1-1.2,3.6-1.6s1.3-2,1.4-3.8c.2-3.7-.2-8.1-5.3-6.3-.4.2-.3,2.8-.3,3v.5c0,.2,0,3,.3,3a5.9,5.9,0,0,0,3.2-.9c.6-.3.6-5.7,0-6-12.7-6.1-.7,25.3,3.3,12.7.4-1.3-.4-5.4-.2-5.8-3.1,4.8-2.7,13.5,4.6,12.7v-5.9c-.6,1.5-.8,3.1-1.4,4.6s-.3,6,.1,5.9c2-.4,3.7-.7,5-2.3s-.6-5.6,0-6a6.4,6.4,0,0,0-2.8,4.2c-.2.9.4,5.6.1,5.9,3.7-3.7,4.6-11.3,1.4-15.6v6c1.3-.8,1.3-1.1,2.3-2.3s.3-6,0-6c-7,1-3,13.6,4.6,12.4l-.2-5.6c-.2,1.3-.2,2.9-.5,4.1s-.1,5.7.2,5.6a17.9,17.9,0,0,0,4.6-1.8c.6-.3.5-5.9,0-6-3.5-.7-6,.4-8.2,3.2-.5.6-.4,6,0,6a11.6,11.6,0,0,0,3.7-.9c.6-.2.5-5.9,0-6l-2.3-.5v6c3.3-.9,7.5-3.2,11-2.3-.1,0,.9-5.8,0-6-3.4-.9-7.7,1.4-11,2.3-.6.2-.4,5.9,0,6l2.3.5v-6a11.6,11.6,0,0,1-3.7.9v6c2.2-2.8,4.7-3.8,8.2-3.2v-6a17.9,17.9,0,0,1-4.6,1.8l.2,5.6c.3-1.4.3-2.7.5-4.1s.2-5.7-.2-5.6a6.8,6.8,0,0,1-5.1-1c-.3-.2-2.3-1.9-2-2l.6,3.1a5.1,5.1,0,0,1,2-.5v-6a8.6,8.6,0,0,1-2.3,2.3c-.7.4-.5,5.4,0,6s1.2.4.6,1a6.6,6.6,0,0,1-2,2.6v5.9a6.3,6.3,0,0,1,2.7-4v-6c-1.4,1.6-3,1.9-5,2.3v5.9c.6-1.5.8-3.1,1.4-4.6s.4-5.9-.1-5.9-2.5-.4-3.8-.3l-.9-.5q-1.2,2.3.2-.1l-.2-5.8c-1.4,4.2-4.2,3.1-6.2,0-.4-.7-.6-1.6-1.1-2.2l-.4-1.1q-.8,3.7.3,1.9l1.6-.4a6.5,6.5,0,0,1,2.7.9v-6a5.9,5.9,0,0,1-3.2.9l.3,3v-.5l-.3,3a17.3,17.3,0,0,1,2.9-.3l.8.2q1.7,1.4.5-1.8c-.6-.4-3.5,1.5-3.7,1.9v4.2l.4-1c.5-.3.6-1.2,1.2-1.4s1.2,0,2,.9l.4.8q.7,2.7.7-1.2c.5.2-2.8,1.9-3.5,1.7s-2.2-1.2-1.9-1.3-1.1,5.2,1.1.8h.3q.4,1,.2-.5t-.2.1a4.1,4.1,0,0,1-.8,1.4c-1.4,1.3-3.1.7-4.7,0v6c1.1-.7,2.9-2.1,4.3-1.6s1.5,1.1,1.3,1.2.6-2.2,0-1.6-.2,1.1-.4,1.4c-1,2.3-2.5,6.6-5.7,6.3s-2.5-2.1-3.7-3.4.6-.1-.2.7.5-1.5.8-2,1.5-2.9,2.8-3.4,2.1,1.3,3,1.2v-3.9a3.7,3.7,0,0,1-1.2,1.2l-1.5.8a17.7,17.7,0,0,1-6.4,1.7l.3,3.8c.1-2.5,1.1-4.8,3.4-6s-.4-5.8,0-6c-1.5.7-3.6,1.8-5.2,1a5.6,5.6,0,0,1-1.2-1.2c.3-.1-1,2.9,0,.9l.4-.7q.7.3.2-1.2t-.5-.9l-1.8.4c-1.1.5-1.4-2.6-1.6,1.2l-.3,1.5a8.9,8.9,0,0,1,3.8,2.1,7.9,7.9,0,0,1,1.7,2.5q.5-1.6-.3.2a6.9,6.9,0,0,1-6.4,3.1l-.9-.5q-1.1-2.1-.3,1.4c-.2-.1,1.4-2.5,1.3-2.3a4.7,4.7,0,0,1,5-1.6l-.3-3c0,4.8-7.5,5.9-10.7,4.8v5.9c.7-1.8,1.3-2.2,3.1-2.6l-.3-1.5c-.1-2-3.3.2-4.8.4a18.8,18.8,0,0,1-5.9-.4v5.9c.8-2.3,1.6-3.4,4-4v-5.9c-2.1,4.5-8,4.8-12.2,4.5l.3,1.5c.1,2.5,1.2-1.4,1.5-2a7.1,7.1,0,0,1,3-3.1c1.3-.5,1.8,0,3,0q1.5-3-.7,0a3.7,3.7,0,0,1-1.6.8v6a11.6,11.6,0,0,1,3.7-.9v-6c-2.3,2.4-5.6,2.6-8.7,1.6a11.1,11.1,0,0,1-4.2-2.4c-.6-.6-1.1-2-1.7-2.3s-.3-.5-.1.8,0,1.6.5.4c2.7-1.9,4.4-5.1,8.2-3.2,1.5.7,2.8,4.1,2.2.7s.3-.8-1.2-1.2a24.5,24.5,0,0,0-2.7.1v5.9a8.6,8.6,0,0,0,1-3.8l-.3,1.5h1.5v-6c-.5.2-2.2.2-2.4.3s-.8,0-.6,1.1-.3,1.7.8.4v-5.5c-.2,1.5-3-1.3-3.2-1.5a7.6,7.6,0,0,1-1.2-5.7c.1-.8-.4-4.9-.3-5l-.9,1.4.4,2.9q.2-4.9-2.1-.7c-.5.5-.6,5.7,0,6s1.9,0,1.4-2.7a5.4,5.4,0,0,1-1.7,2.2,4.4,4.4,0,0,1-3.8.8c-.1,0-.7,5.5,0,6s1.4-1.2,1.8-.9l-.2-5.1c-.1,1.1-2.4,1.6-2.9,2.5s-1,4.3.2,2.2a1.6,1.6,0,0,0,.2-1v-5.5a13.9,13.9,0,0,0,.3,6.5c.2.7.9,3.3,1.3,3.6q1-4.2-.7-2.8l-.6.2c-1.1-.4-2.8-.4-3.9-.8v6a6.8,6.8,0,0,1,3.9-1.5c.7,0,1.6.3,2.2.3l.8.4q1,.9.9-1.4c-.8,0-1.9,1.7-3.3,1.7s-2.7-.4-3.1-1.7v5.5c.8-5.1,6.4-3.1,8.3-.3.4.6.6,1.6,1,2.1,1.6,2.1-.9-2.3.1-2.1s-.6,1-.7,1.1c-2.5.7-3.7,1.1-6.5.5v6a4.9,4.9,0,0,0,1.1-2.7c.1-.6-.2-5.5-.2-5.6-3.7,2.5-8.8,1.8-12.8.5v5.9c.7-1,1.7-2.5,3.1-2.6s2.2,1,2.3.9.6.3.3-1.5.2-2.3-.4-1-1,.7-1.3.9-3.7.7-5.5.6-.6,5.9,0,6l2.7.5v-5.9a6.2,6.2,0,0,1-7.7,2.3c-1-.4-1.6-1.3-2.5-1.7l-.6-1q-.8,4.4.9,3l2.3-.9v-6a18.9,18.9,0,0,1-9.6.9V300l.5-1.4c.3-.9-.4-5.6-.1-5.9-2.8,2.3-5.5,2.9-8.7.9v6a45.8,45.8,0,0,0,3.5-3.1c1.2-1.2-.7-5.3,0-6-1.4,1.4-5.3-.4-6.7-1,.1.1-.6,5.2-.1,5.9a23.8,23.8,0,0,1,2.7,5h.1a12.2,12.2,0,0,1,6.4,0v-6a7,7,0,0,1-3.2.9v6a4.7,4.7,0,0,0,2.4-1.9l-.2-5.8c-2.3,4.6-7,6.1-11.8,5.4V305a18.2,18.2,0,0,1,2.2-4.5v-5.9c-3.1,4.4-11.4,3.9-15.4,1.3v6a12,12,0,0,1,5,.5v-6c-2.2.6-3.8.9-5.9,0,.3.1-1,5.5,0,6a10,10,0,0,1,2.3,1.4v-6c-3.7.8-7.2.9-10.5-1.4v6H484v-6c-2.1,2.6-4.8,2.4-7.8,1.4v6l3.7-2.3c.9-.5-.1-6,0-6-1.7.5-8.8,1.6-9.6-1.1v5.9c.7-.6,2.1-.3,2.9-.2v-6c-3,2.9-7.4,2.6-11,.9.1.1-.6,5.2-.1,5.9a4.9,4.9,0,0,0,1.9,1.5v-6c-1.9,1.6-3.2,1.7-5.5.9l.2,5.6a6.3,6.3,0,0,1,1.7-3.7v-5.9c-3.1,4.8-11.7,3.6-15.9,1.3v6a7.6,7.6,0,0,1,6.4,1.8v-6c-2.2,2.2-4.7,2.6-7.8,2.3v5.9c2.5-3.6,5.9-5.9,10.4-5.8v-6c-1.6,2-3.8,3.5-6.3,1.8-.4-.3-1.8-2.7-2-2.7v2.8a1.6,1.6,0,0,1,1-.8l1.8-.2-.2-5.1c-.4,3.6-3.6,4.5-6.6,3.7v5.9a7.7,7.7,0,0,0,.9-2.3c.4-1.3-.4-5.4-.2-5.8-2.1,3.4-5.6,4.5-8.8,6.3s-6.2,2.3-9.8.9c.3.1-1,5.6,0,6Z"/>
      </g>
      <path class="cls-5" d="M554.8,125.7"/>
      <path class="cls-1" d="M553.5,137.8l-1.3-2.9c-1.6-1.5-2.4-3-2.3-4.4a3.3,3.3,0,0,1,1.2-2.4l.7,1-.4-.5.4.5a2.1,2.1,0,0,0-.7,1.5c-.1,1,.6,2.2,2,3.5v.2l1.3,3Z"/>
      <polygon class="cls-1" points="552.6 138.7 551.5 135 552.7 134.6 553.5 137.3 568.1 135.8 568.8 132.7 570 132.9 569.1 136.9 552.6 138.7"/>
      <path class="cls-1" d="M578,141.2l-1.1-.8a20.3,20.3,0,0,0-6.5-2.8l-1.5-.5.4-1.2,1.5.5a26.3,26.3,0,0,1,5.9,2.3,6.7,6.7,0,0,1,1.2-3.5l.5-.7a4.1,4.1,0,0,0,1-2,5.9,5.9,0,0,0-.9-3.1h-.1l-.8-1.7a15.8,15.8,0,0,1-1.2-2.4l1.1-.5,1.2,2.3v.2c1,1.7,2,3.5,1.8,5.3a5.1,5.1,0,0,1-1.3,2.7l-.5.7a5.9,5.9,0,0,0-1,3.9Z"/>
      <rect class="cls-1" x="576.5" y="125" width="1.3" height="1.69" transform="translate(-9.6 57.9) rotate(-5.7)"/>
      <path class="cls-6" d="M570.8,125.6"/>
      <path class="cls-1" d="M295,276.8a.7.7,0,0,1-.7-.7V212.3a.7.7,0,1,1,1.3,0v63.8A.7.7,0,0,1,295,276.8Z"/>
      <path class="cls-1" d="M170.9,249.6a.5.5,0,0,1,0-1l124.5-4.3.4.2a.5.5,0,0,1,.1.5l-.4,1.3a.5.5,0,0,1-.5.3l-124.1,3Zm123.8-4.3-27,.9,27-.7Z"/>
      <path class="cls-1" d="M397.4,230.3h-.3l-7.8-4.7a.5.5,0,0,1-.2-.4v-4.5a.5.5,0,0,1,.2-.4l7.1-5.3h10.3L414,220a.5.5,0,0,1,.2.4l-.3,4.7a.5.5,0,0,1-.2.4L407,230h-.3l-9.3.2Zm-7.3-5.5,7.5,4.5,9-.2,6.4-4.3.2-4.2-6.9-5h-9.4l-6.8,5.1Z"/>
      <path class="cls-1" d="M398.6,229.5h-.3l-6.6-4a.5.5,0,0,1-.2-.4v-3.8a.5.5,0,0,1,.2-.4l6-4.5h8.8l6.1,4.4a.5.5,0,0,1,.2.4l-.2,4a.5.5,0,0,1-.2.4l-5.7,3.8h-8.1Zm-6.1-4.8,6.2,3.7h7.6l5.3-3.6.2-3.4-5.7-4.2h-7.9l-5.7,4.2Z"/>
      <path class="cls-1" d="M399.3,229a.5.5,0,0,1-.5-.5v-11a.5.5,0,1,1,1,0v11A.5.5,0,0,1,399.3,229Z"/>
      <path class="cls-1" d="M405.3,229.2a.5.5,0,0,1-.5-.5V217.2a.5.5,0,0,1,1,0v11.5A.5.5,0,0,1,405.3,229.2Z"/>
      <path class="cls-1" d="M411.6,221.2H393.7a.5.5,0,0,1,0-1h17.9a.5.5,0,0,1,0,1Z"/>
      <path class="cls-1" d="M412.1,225.5H393.5a.5.5,0,0,1,0-1h18.6a.5.5,0,0,1,0,1Z"/>
      <path class="cls-5" d="M453.8,246.2"/>
      <rect class="cls-1" x="453.3" y="246.2" width="1" height="4.26"/>
      <rect class="cls-1" x="457.7" y="245.9" width="1" height="4.61" transform="translate(-8.9 17.2) rotate(-2.1)"/>
      <rect class="cls-1" x="461" y="247.7" width="4.2" height="1" transform="translate(125.9 651.2) rotate(-78.3)"/>
      <rect class="cls-1" x="463.7" y="248.2" width="5" height="1" transform="translate(142 665.9) rotate(-80.2)"/>
      <rect class="cls-1" x="449.4" y="246.2" width="1" height="4.45" transform="translate(-17.7 35.2) rotate(-4.4)"/>
      <rect class="cls-1" x="445.5" y="246" width="1" height="5.19" transform="translate(-61.9 195.8) rotate(-23.2)"/>
      <g>
        <path class="cls-1" d="M514.6,250.6h-23l-3.5-6.2h29.8Zm-22.4-1H514l2.2-4.3H489.8Z"/>
        <path class="cls-1" d="M525.6,285H483V250.2l42.9-.3ZM484,284h40.6l.2-33.1-40.9.2Z"/>
        <path class="cls-1" d="M491.5,284.8l-.6-33.7,25-1.3.4,34.8Zm.4-32.7.6,31.7h22.8l-.4-32.8Z"/>
        <rect class="cls-1" x="502.6" y="251.2" width="1" height="34.44" transform="translate(-4.8 9.1) rotate(-1)"/>
        <rect class="cls-1" x="491.8" y="258.1" width="23.2" height="1" transform="translate(-1.5 3) rotate(-0.3)"/>
        <rect class="cls-1" x="492.5" y="266.6" width="22.5" height="1" transform="translate(-5.6 10.8) rotate(-1.2)"/>
        <rect class="cls-1" x="493" y="275.3" width="22.3" height="1" transform="translate(-1.6 2.9) rotate(-0.3)"/>
        <path class="cls-1" d="M525.3,285.5h-8.1V249.8h8.1Zm-7.1-1h6.1V250.8h-6.1Z"/>
        <path class="cls-1" d="M522.2,267.1h-4.8V250.3h4.8Zm-3.8-1h2.8V251.3h-2.8Z"/>
        <path class="cls-1" d="M522.5,283.7H517V266.8h5.5Zm-4.5-1h3.5V267.8H518Z"/>
        <path class="cls-1" d="M490.5,267.8h-5.5V251.2h5.5Zm-4.5-1h3.5V252.2h-3.5Z"/>
        <path class="cls-1" d="M491.3,283.9h-6.3V267.3h6.3Zm-5.3-1h4.3V268.3h-4.3Z"/>
        <rect class="cls-1" x="483.1" y="284" width="42.7" height="2.11"/>
        <path class="cls-5" d="M503.1,245.2"/>
        <rect class="cls-1" x="502.6" y="245.2" width="1" height="4.26"/>
        <rect class="cls-1" x="507" y="244.9" width="1" height="4.61" transform="translate(-8.8 19) rotate(-2.1)"/>
        <rect class="cls-1" x="510.3" y="246.8" width="4.2" height="1" transform="matrix(0.2, -0.98, 0.98, 0.2, 166.15, 698.75)"/>
        <rect class="cls-1" x="513" y="247.2" width="5" height="1" transform="translate(183.9 713.7) rotate(-80.2)"/>
        <rect class="cls-1" x="498.7" y="245.2" width="1" height="4.45" transform="translate(-17.5 39) rotate(-4.4)"/>
        <rect class="cls-1" x="494.8" y="245" width="1" height="5.19" transform="translate(-57.5 215.1) rotate(-23.2)"/>
        <path class="cls-1" d="M515.8,250.6h-23l-3.5-6.2H519Zm-22.4-1h21.8l2.2-4.3H491Z"/>
        <path class="cls-1" d="M526.4,284.7H484.5V250.6h.1l42-.2Zm-41.6-.2h41.4l.2-33.8-41.6.2Z"/>
        <path class="cls-1" d="M493.1,284.4h0l-.6-32.8h.1l24.2-1.2h0l.4,33.9h-24Zm-.4-32.7.6,32.5h23.5l-.4-33.6Z"/>
        <polygon class="cls-1" points="504.5 285.6 503.9 251.2 504.1 251.2 504.7 285.6 504.5 285.6"/>
        <polygon class="cls-1" points="493 258.8 493 258.5 516.1 258.4 516.1 258.6 493 258.8"/>
        <polygon class="cls-1" points="493.7 267.4 493.7 267.2 516.2 266.7 516.2 266.9 493.7 267.4"/>
        <polygon class="cls-1" points="494.2 276 494.2 275.7 516.5 275.6 516.5 275.9 494.2 276"/>
        <path class="cls-1" d="M526.2,285.2h-7.3V250.2h7.3Zm-7.1-.2h6.8V250.5h-6.8Z"/>
        <path class="cls-1" d="M523.1,266.7H519v-16h4.1Zm-3.8-.2h3.6V251h-3.6Z"/>
        <path class="cls-1" d="M523.3,283.3h-4.7V267.2h4.7Zm-4.5-.2h4.2V267.4h-4.2Z"/>
        <path class="cls-1" d="M491.3,267.4h-4.7V251.6h4.7Zm-4.5-.2h4.2V251.8h-4.2Z"/>
        <path class="cls-1" d="M492.1,283.5h-5.6V267.7h5.6Zm-5.3-.2h5.1V267.9h-5.1Z"/>
        <rect class="cls-1" x="484.3" y="284" width="42.7" height="2.11"/>
        <path class="cls-5" d="M504.3,245.2"/>
        <rect class="cls-1" x="503.8" y="245.2" width="1" height="4.26"/>
        <rect class="cls-1" x="508.2" y="244.9" width="1" height="4.61" transform="translate(-8.8 19) rotate(-2.1)"/>
        <rect class="cls-1" x="511.5" y="246.8" width="4.2" height="1" transform="translate(167.1 699.9) rotate(-78.3)"/>
        <rect class="cls-1" x="514.2" y="247.2" width="5" height="1" transform="translate(184.8 714.8) rotate(-80.2)"/>
        <rect class="cls-1" x="499.9" y="245.2" width="1" height="4.45" transform="translate(-17.5 39.1) rotate(-4.4)"/>
        <rect class="cls-1" x="496" y="245" width="1" height="5.19" transform="translate(-57.4 215.6) rotate(-23.2)"/>
      </g>
      <g>
        <path class="cls-1" d="M513.7,208.7H490.8L487,204h30.1Zm-22.4-1h21.9l2-2.8H489.1Z"/>
        <path class="cls-1" d="M524.7,233.3H482.1V208.1L525,208Zm-41.6-1h40.6L524,209l-40.9.2Z"/>
        <path class="cls-1" d="M490.7,233.2l-.6-24.4,25-.9.4,25.2Zm.4-23.4.6,22.4h22.8l-.4-23.2Z"/>
        <rect class="cls-1" x="501.7" y="209" width="1" height="24.66" transform="matrix(1, -0.03, 0.03, 1, -5.41, 12.7)"/>
        <rect class="cls-1" x="490.9" y="213.8" width="23.2" height="1" transform="translate(-0.8 2) rotate(-0.2)"/>
        <rect class="cls-1" x="491.7" y="219.8" width="22.5" height="1" transform="translate(-3.4 7.9) rotate(-0.9)"/>
        <rect class="cls-1" x="492.1" y="226.1" width="22.3" height="1" transform="translate(-0.9 2) rotate(-0.2)"/>
        <path class="cls-1" d="M524.5,233.7h-8.1V207.9h8.1Zm-7.1-1h6.1V208.9h-6.1Z"/>
        <path class="cls-1" d="M521.4,220.5h-4.8V208.2h4.8Zm-3.8-1h2.8V209.2h-2.8Z"/>
        <path class="cls-1" d="M521.6,232.4h-5.5V220h5.5Zm-4.5-1h3.5V221h-3.5Z"/>
        <path class="cls-1" d="M489.7,221h-5.5V208.8h5.5Zm-4.5-1h3.5V209.8h-3.5Z"/>
        <path class="cls-1" d="M490.4,232.5h-6.3V220.4h6.3Zm-5.3-1h4.3V221.4h-4.3Z"/>
        <rect class="cls-1" x="482.2" y="232.5" width="42.7" height="1.51"/>
        <path class="cls-7" d="M502.3,204.7"/>
        <rect class="cls-1" x="501.8" y="204.7" width="1" height="3.05"/>
        <polygon class="cls-1" points="506.2 207.8 506 204.5 507 204.4 507.2 207.7 506.2 207.8"/>
        <rect class="cls-1" x="510" y="205.7" width="3.1" height="1" transform="translate(170.8 639.9) rotate(-73.8)"/>
        <rect class="cls-1" x="512.8" y="206" width="3.6" height="1" transform="translate(193.3 658.4) rotate(-76.4)"/>
        <rect class="cls-1" x="497.8" y="204.7" width="1" height="3.19" transform="translate(-19.2 54.4) rotate(-6.1)"/>
        <rect class="cls-1" x="493.9" y="204.4" width="1" height="3.98" transform="translate(-35.8 283.2) rotate(-30.9)"/>
        <path class="cls-1" d="M514.9,208.7H492l-3.8-4.7h30.1Zm-22.4-1h21.9l2-2.8H490.3Z"/>
        <path class="cls-1" d="M525.5,233H483.7V208.5h.1l42-.2h0Zm-41.6-.2h41.4l.2-24.1-41.6.2Z"/>
        <path class="cls-1" d="M492.2,232.8h0l-.6-23.5h.1l24.2-.9.4,24.5h-24Zm-.4-23.4.6,23.2H516l-.4-24Z"/>
        <polygon class="cls-1" points="503.6 233.6 503 209 503.3 209 503.9 233.6 503.6 233.6"/>
        <polygon class="cls-1" points="492.1 214.4 492.1 214.2 515.3 214.1 515.3 214.3 492.1 214.4"/>
        <rect class="cls-1" x="492.8" y="220.2" width="22.5" height="0.25" transform="translate(-3.4 7.9) rotate(-0.9)"/>
        <polygon class="cls-1" points="493.3 226.8 493.3 226.5 515.6 226.4 515.6 226.7 493.3 226.8"/>
        <path class="cls-1" d="M525.3,233.3H518V208.2h7.3Zm-7.1-.2H525V208.5h-6.8Z"/>
        <path class="cls-1" d="M522.2,220.1h-4.1V208.6h4.1Zm-3.8-.2H522v-11h-3.6Z"/>
        <path class="cls-1" d="M522.5,232h-4.7V220.4h4.7Zm-4.5-.2h4.2V220.6H518Z"/>
        <path class="cls-1" d="M490.5,220.6h-4.7V209.2h4.7Zm-4.5-.2h4.2V209.5H486Z"/>
        <path class="cls-1" d="M491.2,232.2h-5.6V220.7h5.6Zm-5.3-.2H491V221h-5.1Z"/>
        <rect class="cls-1" x="483.4" y="232.5" width="42.7" height="1.51"/>
        <path class="cls-8" d="M503.5,204.7"/>
        <rect class="cls-1" x="503" y="204.7" width="1" height="3.05"/>
        <rect class="cls-1" x="507.3" y="204.5" width="1" height="3.3" transform="translate(-10 26.6) rotate(-3)"/>
        <rect class="cls-1" x="511.2" y="205.7" width="3.1" height="1" transform="translate(171.7 641) rotate(-73.8)"/>
        <rect class="cls-1" x="514" y="206" width="3.6" height="1" transform="translate(194.2 659.6) rotate(-76.5)"/>
        <rect class="cls-1" x="499" y="204.7" width="1" height="3.19" transform="translate(-19.2 54.5) rotate(-6.1)"/>
        <rect class="cls-1" x="495.1" y="204.4" width="1" height="3.98" transform="translate(-35.7 283.8) rotate(-30.9)"/>
      </g>
      <g>
        <path class="cls-1" d="M464.6,210.3H441.7l-3.8-4.6h30.2Zm-22.4-1h21.9l2-2.7H440Z"/>
        <path class="cls-1" d="M475.6,234.2H433V209.7l42.9-.2Zm-41.6-1h40.6l.2-22.7-40.9.2Z"/>
        <path class="cls-1" d="M441.6,234l-.6-23.7,25-.9.4,24.5Zm.4-22.7.6,21.7h22.8l-.4-22.5Z"/>
        <rect class="cls-1" x="452.6" y="210.5" width="1" height="23.93" transform="translate(-5.6 11.8) rotate(-1.5)"/>
        <rect class="cls-1" x="441.8" y="215.1" width="23.2" height="1" transform="translate(-0.8 1.8) rotate(-0.2)"/>
        <rect class="cls-1" x="442.5" y="221" width="22.5" height="1" transform="translate(-3.4 7.1) rotate(-0.9)"/>
        <rect class="cls-1" x="443" y="227.1" width="22.3" height="1" transform="translate(-0.9 1.8) rotate(-0.2)"/>
        <path class="cls-1" d="M475.4,234.5h-8.1V209.4h8.1Zm-7.1-1h6.1V210.4h-6.1Z"/>
        <path class="cls-1" d="M472.3,221.7h-4.8V209.8h4.8Zm-3.8-1h2.8v-9.9h-2.8Z"/>
        <path class="cls-1" d="M472.5,233.2h-5.5v-12h5.5Zm-4.5-1h3.5v-10h-3.5Z"/>
        <path class="cls-1" d="M440.6,222.2h-5.5V210.4h5.5Zm-4.5-1h3.5v-9.8h-3.5Z"/>
        <path class="cls-1" d="M441.3,233.4H435V221.6h6.3Zm-5.3-1h4.3v-9.8H436Z"/>
        <rect class="cls-1" x="433.1" y="233.3" width="42.7" height="1.46"/>
        <path class="cls-5" d="M453.2,206.4"/>
        <rect class="cls-1" x="452.7" y="206.4" width="1" height="2.96"/>
        <rect class="cls-1" x="457" y="206.1" width="1" height="3.2" transform="translate(-10.4 24.7) rotate(-3.1)"/>
        <rect class="cls-1" x="461" y="207.3" width="3" height="1" transform="translate(130.5 591) rotate(-73.3)"/>
        <rect class="cls-1" x="463.8" y="207.6" width="3.5" height="1" transform="translate(151.7 610) rotate(-76.1)"/>
        <rect class="cls-1" x="448.7" y="206.4" width="1" height="3.1" transform="translate(-20.1 50.7) rotate(-6.3)"/>
        <rect class="cls-1" x="444.8" y="206.1" width="1" height="3.9" transform="matrix(0.85, -0.52, 0.52, 0.85, -42.92, 264.72)"/>
        <path class="cls-1" d="M465.8,210.3H442.9l-3.8-4.6h30.2Zm-22.4-1h21.9l2-2.7H441.2Z"/>
        <path class="cls-1" d="M476.4,233.8H434.6V210.1h.1l42-.2h0Zm-41.6-.2h41.4l.2-23.4-41.6.2Z"/>
        <path class="cls-1" d="M443.1,233.6h0l-.6-22.8h.1l24.2-.9.4,23.7h-24Zm-.4-22.7.6,22.5h23.5l-.4-23.2Z"/>
        <polygon class="cls-1" points="454.5 234.5 453.9 210.5 454.1 210.5 454.8 234.4 454.5 234.5"/>
        <polygon class="cls-1" points="443 215.8 443 215.6 466.2 215.5 466.2 215.7 443 215.8"/>
        <rect class="cls-1" x="443.7" y="221.4" width="22.5" height="0.25" transform="translate(-3.4 7.1) rotate(-0.9)"/>
        <polygon class="cls-1" points="444.2 227.8 444.2 227.5 466.5 227.4 466.5 227.7 444.2 227.8"/>
        <path class="cls-1" d="M476.2,234.1h-7.3V209.8h7.3Zm-7.1-.2h6.8V210h-6.8Z"/>
        <path class="cls-1" d="M473.1,221.3H469V210.1h4.1Zm-3.8-.2h3.6V210.4h-3.6Z"/>
        <path class="cls-1" d="M473.3,232.9h-4.7V221.6h4.7Zm-4.5-.2h4.2V221.8h-4.2Z"/>
        <path class="cls-1" d="M441.4,221.8h-4.7V210.7h4.7Zm-4.5-.2h4.2V211h-4.2Z"/>
        <path class="cls-1" d="M442.1,233h-5.6V221.9h5.6Zm-5.3-.2h5.1V222.2h-5.1Z"/>
        <rect class="cls-1" x="434.3" y="233.3" width="42.7" height="1.46"/>
        <path class="cls-5" d="M454.4,206.4"/>
        <rect class="cls-1" x="453.9" y="206.4" width="1" height="2.96"/>
        <rect class="cls-1" x="458.2" y="206.1" width="1" height="3.2" transform="translate(-10.4 24.8) rotate(-3.1)"/>
        <rect class="cls-1" x="462.2" y="207.3" width="3" height="1" transform="matrix(0.29, -0.96, 0.96, 0.29, 131.4, 592.19)"/>
        <rect class="cls-1" x="464.9" y="207.6" width="3.5" height="1" transform="translate(152.6 611.2) rotate(-76.1)"/>
        <rect class="cls-1" x="449.9" y="206.4" width="1" height="3.1" transform="translate(-20.1 50.8) rotate(-6.3)"/>
        <rect class="cls-1" x="446" y="206.1" width="1" height="3.9" transform="matrix(0.85, -0.53, 0.53, 0.85, -42.73, 265.42)"/>
      </g>
      <g>
        <line class="cls-1" x1="530" y1="199.9" x2="530" y2="292.9"/>
        <path class="cls-1" d="M530,293.9a1,1,0,0,1-1-1v-93a1,1,0,1,1,2,0v93A1,1,0,0,1,530,293.9Z"/>
      </g>
      <g>
        <path class="cls-1" d="M366.9,253.4H347l-3-6.2h25.7Zm-19.2-1h18.6l1.9-4.3H345.6Z"/>
        <path class="cls-1" d="M376.3,287.9H339.6V253.1l36.9-.3Zm-35.7-1h34.7l.2-33.1-34.9.2Z"/>
        <path class="cls-1" d="M347,287.6l-.5-33.7,21.6-1.3.3,34.8Zm.5-32.7.5,31.7h19.4l-.3-32.8Z"/>
        <rect class="cls-1" x="356.5" y="254" width="1" height="34.44" transform="translate(-4.1 5.5) rotate(-0.9)"/>
        <rect class="cls-1" x="347.2" y="260.9" width="19.9" height="1" transform="translate(-1.5 2.1) rotate(-0.3)"/>
        <rect class="cls-1" x="347.9" y="269.4" width="19.3" height="1" transform="translate(-6.7 9.2) rotate(-1.5)"/>
        <rect class="cls-1" x="348.3" y="278.1" width="19.1" height="1" transform="translate(-1.9 2.5) rotate(-0.4)"/>
        <path class="cls-1" d="M376.1,288.4H369V252.7h7.1Zm-6.1-1h5.1V253.7H370Z"/>
        <path class="cls-1" d="M373.4,269.9h-4.3V253.2h4.3Zm-3.3-1h2.3V254.2h-2.3Z"/>
        <path class="cls-1" d="M373.7,286.5h-4.8V269.6h4.8Zm-3.8-1h2.8V270.6h-2.8Z"/>
        <path class="cls-1" d="M346.3,270.6h-4.8V254h4.8Zm-3.8-1h2.8V255h-2.8Z"/>
        <path class="cls-1" d="M346.9,286.7h-5.6V270.1h5.6Zm-4.6-1h3.6V271.1h-3.6Z"/>
        <rect class="cls-1" x="339.8" y="286.9" width="36.6" height="2.11"/>
        <path class="cls-5" d="M357,248.1"/>
        <rect class="cls-1" x="356.5" y="248.1" width="1" height="4.26"/>
        <rect class="cls-1" x="360.2" y="247.7" width="1" height="4.61" transform="translate(-7.8 11.6) rotate(-1.8)"/>
        <rect class="cls-1" x="362.9" y="249.6" width="4.2" height="1" transform="translate(54.6 565.4) rotate(-79.9)"/>
        <rect class="cls-1" x="365.1" y="250" width="5" height="1" transform="translate(65.9 577.5) rotate(-81.6)"/>
        <rect class="cls-1" x="353.1" y="248.1" width="1" height="4.44" transform="translate(-15.7 23.8) rotate(-3.8)"/>
        <rect class="cls-1" x="349.8" y="247.9" width="1" height="5.09" transform="translate(-64.9 136.1) rotate(-20.2)"/>
        <path class="cls-1" d="M367.9,253.4H348.1l-3-6.2h25.7Zm-19.2-1h18.6l1.9-4.3H346.6Z"/>
        <path class="cls-1" d="M377,287.5H341V253.4h.1l36-.2h0Zm-35.7-.2h35.4l.2-33.8-35.6.2Z"/>
        <path class="cls-1" d="M348.4,287.2h0l-.5-32.8h.1l20.7-1.2h0l.3,33.9H348.4Zm-.3-32.7.5,32.5h20.1l-.3-33.6Z"/>
        <rect class="cls-1" x="357.9" y="254" width="0.3" height="34.44" transform="translate(-4.1 5.5) rotate(-0.9)"/>
        <polygon class="cls-1" points="348.3 261.6 348.3 261.4 368.1 261.2 368.1 261.5 348.3 261.6"/>
        <polygon class="cls-1" points="348.9 270.3 348.9 270 368.2 269.5 368.2 269.8 348.9 270.3"/>
        <polygon class="cls-1" points="349.3 278.8 349.3 278.6 368.4 278.4 368.4 278.7 349.3 278.8"/>
        <path class="cls-1" d="M376.7,288h-6.3V253.1h6.3Zm-6.1-.2h5.8V253.3h-5.8Z"/>
        <path class="cls-1" d="M374.1,269.5h-3.5v-16h3.5Zm-3.3-.2h3V253.8h-3Z"/>
        <path class="cls-1" d="M374.3,286.1h-4.1V270h4.1Zm-3.8-.2h3.6V270.3h-3.6Z"/>
        <path class="cls-1" d="M346.9,270.3h-4.1V254.4h4.1Zm-3.8-.2h3.6V254.7h-3.6Z"/>
        <path class="cls-1" d="M347.5,286.4h-4.8V270.5h4.8Zm-4.6-.2h4.3V270.8H343Z"/>
        <rect class="cls-1" x="340.8" y="286.9" width="36.6" height="2.11"/>
        <path class="cls-5" d="M358,248.1"/>
        <rect class="cls-1" x="357.5" y="248.1" width="1" height="4.26"/>
        <rect class="cls-1" x="361.2" y="247.7" width="1" height="4.61" transform="translate(-7.8 11.6) rotate(-1.8)"/>
        <rect class="cls-1" x="363.9" y="249.6" width="4.2" height="1" transform="translate(55.4 566.4) rotate(-79.9)"/>
        <rect class="cls-1" x="366.1" y="250" width="5" height="1" transform="translate(66.8 578.5) rotate(-81.6)"/>
        <rect class="cls-1" x="354.1" y="248.1" width="1" height="4.44" transform="matrix(1, -0.07, 0.07, 1, -15.71, 23.89)"/>
        <rect class="cls-1" x="350.8" y="247.9" width="1" height="5.09" transform="translate(-64.8 136.5) rotate(-20.2)"/>
      </g>
      <g>
        <path class="cls-1" d="M325.2,255.4H307.4l-2.8-5.9h23.4l-2.5,6Zm-17.1-1h16.8l1.7-4H306.2Z"/>
        <path class="cls-1" d="M334.1,287.5H300.7V255l33.6-.2Zm-32.4-1h31.4l.2-30.8-31.6.2Z"/>
        <path class="cls-1" d="M307.4,287.3l-.5-31.5,19.7-1.2.3,32.6Zm.5-30.5.5,29.5h17.5l-.3-30.5Z"/>
        <rect class="cls-1" x="316" y="255.9" width="1" height="32.14" transform="translate(-4 4.8) rotate(-0.9)"/>
        <rect class="cls-1" x="307.7" y="262.3" width="18" height="1" transform="translate(-1.8 2.2) rotate(-0.4)"/>
        <rect class="cls-1" x="308.2" y="270.2" width="17.5" height="1" transform="translate(-7 8.4) rotate(-1.5)"/>
        <rect class="cls-1" x="308.6" y="278.4" width="17.3" height="1" transform="translate(-1.9 2.2) rotate(-0.4)"/>
        <path class="cls-1" d="M333.9,288h-6.5V254.6h6.5Zm-5.5-1h4.5V255.6h-4.5Z"/>
        <path class="cls-1" d="M331.5,270.8h-4V255.1h4Zm-3-1h2V256.1h-2Z"/>
        <path class="cls-1" d="M331.7,286.3h-4.5V270.5h4.5Zm-3.5-1h2.5V271.5h-2.5Z"/>
        <path class="cls-1" d="M306.8,271.5h-4.5V255.9h4.5Zm-3.5-1h2.5V256.9h-2.5Z"/>
        <path class="cls-1" d="M307.4,286.5h-5.1V270.9h5.1Zm-4.1-1h3.1V271.9h-3.1Z"/>
        <rect class="cls-1" x="300.9" y="286.6" width="33.2" height="1.96"/>
        <path class="cls-5" d="M316.5,250.4"/>
        <rect class="cls-1" x="316" y="250.4" width="1" height="3.98"/>
        <rect class="cls-1" x="319.4" y="250.1" width="1" height="4.3" transform="translate(-7.7 10.1) rotate(-1.8)"/>
        <rect class="cls-1" x="321.8" y="251.8" width="3.9" height="1" transform="translate(19.6 527.8) rotate(-80.1)"/>
        <rect class="cls-1" x="323.8" y="252.2" width="4.7" height="1" transform="translate(29.5 539.4) rotate(-81.8)"/>
        <rect class="cls-1" x="312.9" y="250.4" width="1" height="4.15" transform="translate(-15.5 20.6) rotate(-3.7)"/>
        <rect class="cls-1" x="309.9" y="250.2" width="1" height="4.73" transform="translate(-66.9 119.2) rotate(-19.7)"/>
        <path class="cls-1" d="M326.4,255.4H308.4l-2.8-5.9H329Zm-17.5-1h16.8l1.7-4H307.2Z"/>
        <path class="cls-1" d="M334.6,287.2H302V255.4h.1l32.7-.2h0Zm-32.4-.2h32.1l.2-31.5-32.3.2Z"/>
        <path class="cls-1" d="M308.7,286.9l-.5-30.8h.1l18.8-1.2h0l.3,31.7H308.7Zm-.2-30.5.5,30.3h18.3l-.3-31.3Z"/>
        <rect class="cls-1" x="317.3" y="255.9" width="0.3" height="32.14" transform="translate(-4 4.8) rotate(-0.9)"/>
        <polygon class="cls-1" points="308.6 263 308.6 262.8 326.6 262.6 326.6 262.9 308.6 263"/>
        <rect class="cls-1" x="309.2" y="270.6" width="17.5" height="0.25" transform="translate(-7.3 8.9) rotate(-1.6)"/>
        <rect class="cls-1" x="309.5" y="278.8" width="17.3" height="0.25" transform="translate(-2.1 2.4) rotate(-0.4)"/>
        <path class="cls-1" d="M334.4,287.6h-5.7V255h5.7Zm-5.5-.2h5.2V255.3h-5.2Z"/>
        <path class="cls-1" d="M332,270.4h-3.2V255.5H332Zm-3-.2h2.7V255.7H329Z"/>
        <path class="cls-1" d="M332.2,285.9h-3.7v-15h3.7Zm-3.5-.2H332V271.1h-3.2Z"/>
        <path class="cls-1" d="M307.4,271.1h-3.7V256.3h3.7Zm-3.5-.2h3.2V256.5h-3.2Z"/>
        <path class="cls-1" d="M307.9,286.1h-4.4V271.3h4.4Zm-4.1-.2h3.9V271.6h-3.9Z"/>
        <rect class="cls-1" x="301.8" y="286.6" width="33.2" height="1.96"/>
        <path class="cls-5" d="M317.4,250.4"/>
        <rect class="cls-1" x="316.9" y="250.4" width="1" height="3.98"/>
        <rect class="cls-1" x="320.3" y="250.1" width="1" height="4.3" transform="translate(-7.6 10) rotate(-1.8)"/>
        <rect class="cls-1" x="322.7" y="251.8" width="3.9" height="1" transform="translate(20.3 528.7) rotate(-80.1)"/>
        <rect class="cls-1" x="324.7" y="252.2" width="4.7" height="1" transform="translate(30.3 540.4) rotate(-81.8)"/>
        <rect class="cls-1" x="313.9" y="250.4" width="1" height="4.15" transform="translate(-15.5 20.6) rotate(-3.7)"/>
        <rect class="cls-1" x="310.8" y="250.2" width="1" height="4.73" transform="translate(-66.8 119.4) rotate(-19.7)"/>
      </g>
      <g>
        <path class="cls-1" d="M275.9,256.8H256l-3.1-5.8h25.7Zm-19.2-1h18.6l1.9-4H254.6Z"/>
        <path class="cls-1" d="M285.3,289H248.6V256.4l36.9-.2Zm-35.7-1h34.7l.2-30.8-34.9.2Z"/>
        <path class="cls-1" d="M255.9,288.7l-.5-31.5L277,256l.3,32.6Zm.5-30.5.5,29.5h19.4l-.3-30.5Z"/>
        <rect class="cls-1" x="265.4" y="257.4" width="1" height="32.14" transform="translate(-4.5 4.4) rotate(-0.9)"/>
        <rect class="cls-1" x="256.2" y="263.7" width="19.9" height="1" transform="translate(-1.6 1.6) rotate(-0.3)"/>
        <rect class="cls-1" x="256.9" y="271.7" width="19.3" height="1" transform="translate(-6.3 6.3) rotate(-1.3)"/>
        <rect class="cls-1" x="257.3" y="279.8" width="19.1" height="1" transform="translate(-1.6 1.6) rotate(-0.3)"/>
        <path class="cls-1" d="M285.1,289.4H278V256h7.1Zm-6.1-1h5.1V257H279Z"/>
        <path class="cls-1" d="M282.4,272.2h-4.3V256.5h4.3Zm-3.3-1h2.3V257.5h-2.3Z"/>
        <path class="cls-1" d="M282.6,287.7h-4.8V271.9h4.8Zm-3.8-1h2.8V272.9h-2.8Z"/>
        <path class="cls-1" d="M255.2,272.9h-4.8V257.3h4.8Zm-3.8-1h2.8V258.3h-2.8Z"/>
        <path class="cls-1" d="M255.9,287.9h-5.6V272.3h5.6Zm-4.6-1h3.6V273.3h-3.6Z"/>
        <rect class="cls-1" x="248.8" y="288" width="36.6" height="1.96"/>
        <path class="cls-7" d="M266,251.8"/>
        <rect class="cls-1" x="265.5" y="251.8" width="1" height="3.98"/>
        <rect class="cls-1" x="269.2" y="251.5" width="1" height="4.3" transform="matrix(1, -0.03, 0.03, 1, -8.54, 9.4)"/>
        <rect class="cls-1" x="272" y="253.2" width="3.9" height="1" transform="translate(-26.6 475.2) rotate(-79.2)"/>
        <rect class="cls-1" x="274.2" y="253.6" width="4.7" height="1" transform="translate(-17.7 487.5) rotate(-81)"/>
        <rect class="cls-1" x="262.1" y="251.8" width="1" height="4.15" transform="translate(-17.3 19.2) rotate(-4)"/>
        <rect class="cls-1" x="258.7" y="251.6" width="1" height="4.79" transform="translate(-75 112.6) rotate(-21.5)"/>
        <path class="cls-1" d="M276.9,256.8H257L254,251h25.7Zm-19.2-1h18.6l1.9-4H255.6Z"/>
        <path class="cls-1" d="M285.9,288.6H250V256.8h.1l36-.2h0Zm-35.7-.2h35.4l.2-31.5-35.6.2Z"/>
        <path class="cls-1" d="M257.3,288.3h0l-.5-30.6h.1l20.7-1.2h0l.3,31.7H257.3Zm-.3-30.5.5,30.3h20.1l-.3-31.3Z"/>
        <rect class="cls-1" x="266.8" y="257.4" width="0.3" height="32.14" transform="translate(-4.5 4.5) rotate(-0.9)"/>
        <polygon class="cls-1" points="257.2 264.4 257.2 264.2 277.1 264.1 277.1 264.3 257.2 264.4"/>
        <rect class="cls-1" x="257.9" y="272" width="19.3" height="0.25" transform="translate(-6.3 6.4) rotate(-1.4)"/>
        <polygon class="cls-1" points="258.3 280.5 258.3 280.2 277.4 280.1 277.4 280.4 258.3 280.5"/>
        <path class="cls-1" d="M285.7,289h-6.3V256.4h6.3Zm-6.1-.2h5.8V256.7h-5.8Z"/>
        <path class="cls-1" d="M283.1,271.8h-3.5V256.9h3.5Zm-3.3-.2h3V257.1h-3Z"/>
        <path class="cls-1" d="M283.3,287.3h-4.1v-15h4.1Zm-3.8-.2H283V272.5h-3.6Z"/>
        <path class="cls-1" d="M255.9,272.5h-4.1V257.7h4.1Zm-3.8-.2h3.6V257.9h-3.6Z"/>
        <path class="cls-1" d="M256.5,287.5h-4.8V272.7h4.8Zm-4.6-.2h4.3V273H252Z"/>
        <rect class="cls-1" x="249.8" y="288" width="36.6" height="1.96"/>
        <path class="cls-8" d="M267,251.8"/>
        <rect class="cls-1" x="266.5" y="251.8" width="1" height="3.98"/>
        <rect class="cls-1" x="270.2" y="251.5" width="1" height="4.3" transform="translate(-8.5 9.4) rotate(-2)"/>
        <rect class="cls-1" x="273" y="253.2" width="3.9" height="1" transform="translate(-25.8 476.2) rotate(-79.2)"/>
        <rect class="cls-1" x="275.2" y="253.6" width="4.7" height="1" transform="matrix(0.16, -0.99, 0.99, 0.16, -16.78, 488.55)"/>
        <rect class="cls-1" x="263.1" y="251.8" width="1" height="4.15" transform="translate(-17.2 19.2) rotate(-4)"/>
        <rect class="cls-1" x="259.8" y="251.6" width="1" height="4.79" transform="translate(-74.9 113) rotate(-21.5)"/>
      </g>
      <g>
        <path class="cls-1" d="M220.6,258.9H203.2l-2.8-5.2h22.7Zm-16.8-1H220l1.6-3.3H202.1Z"/>
        <path class="cls-1" d="M228.9,287H196.7V258.4l32.4-.2Zm-31.2-1h30.2l.2-26.8-30.4.2Z"/>
        <path class="cls-1" d="M203.1,286.8l-.5-27.7,19-1.1.3,28.6Zm.5-26.7.4,25.7h16.8l-.3-26.6Z"/>
        <rect class="cls-1" x="211.4" y="259.3" width="1" height="28.11" transform="translate(-4.5 3.5) rotate(-0.9)"/>
        <rect class="cls-1" x="203.4" y="264.9" width="17.4" height="1" transform="translate(-1.6 1.3) rotate(-0.3)"/>
        <rect class="cls-1" x="204" y="271.8" width="16.9" height="1" transform="matrix(1, -0.02, 0.02, 1, -6.34, 5.07)"/>
        <rect class="cls-1" x="204.3" y="278.9" width="16.7" height="1" transform="translate(-1.6 1.3) rotate(-0.3)"/>
        <path class="cls-1" d="M228.7,287.4h-6.3V258.1h6.3Zm-5.3-1h4.3V259.1h-4.3Z"/>
        <path class="cls-1" d="M226.4,272.4h-3.9V258.5h3.9Zm-2.9-1h1.9V259.5h-1.9Z"/>
        <path class="cls-1" d="M226.6,285.9h-4.3V272h4.3Zm-3.3-1h2.3V273h-2.3Z"/>
        <path class="cls-1" d="M202.6,273h-4.3V259.2h4.3Zm-3.3-1h2.3V260.2h-2.3Z"/>
        <path class="cls-1" d="M203.2,286.1h-5V272.4h5Zm-4-1h3V273.4h-3Z"/>
        <rect class="cls-1" x="196.9" y="286.1" width="32" height="1.72"/>
        <path class="cls-5" d="M211.9,254.5"/>
        <rect class="cls-1" x="211.4" y="254.5" width="1" height="3.48"/>
        <rect class="cls-1" x="214.7" y="254.2" width="1" height="3.76" transform="translate(-8.7 7.6) rotate(-2)"/>
        <rect class="cls-1" x="217.2" y="255.6" width="3.4" height="1" transform="translate(-73.7 423.1) rotate(-79.2)"/>
        <rect class="cls-1" x="219.2" y="256" width="4.1" height="1" transform="translate(-66.7 434.9) rotate(-81)"/>
        <rect class="cls-1" x="208.5" y="254.5" width="1" height="3.63" transform="translate(-17.6 15.4) rotate(-4)"/>
        <rect class="cls-1" x="205.5" y="254.3" width="1" height="4.19" transform="translate(-79.6 93.3) rotate(-21.5)"/>
        <path class="cls-1" d="M221.5,258.9H204.1l-2.8-5.2H224Zm-16.8-1h16.2l1.6-3.3H203Z"/>
        <path class="cls-1" d="M229.4,286.7H198V258.8h.1l31.5-.2h0Zm-31.2-.2h31l.2-27.6-31.1.2Z"/>
        <path class="cls-1" d="M204.4,286.5h0l-.5-26.8,18.3-1h0l.3,27.7H204.4Zm-.2-26.7.5,26.5h17.6l-.3-27.4Z"/>
        <rect class="cls-1" x="212.7" y="259.3" width="0.3" height="28.11" transform="translate(-4.5 3.6) rotate(-0.9)"/>
        <polygon class="cls-1" points="204.3 265.5 204.3 265.3 221.7 265.2 221.7 265.4 204.3 265.5"/>
        <rect class="cls-1" x="204.9" y="272.2" width="16.9" height="0.25" transform="translate(-6.4 5.1) rotate(-1.4)"/>
        <polygon class="cls-1" points="205.2 279.6 205.2 279.3 221.9 279.2 221.9 279.5 205.2 279.6"/>
        <path class="cls-1" d="M229.2,287.1h-5.5V258.5h5.5Zm-5.3-.2h5V258.8h-5Z"/>
        <path class="cls-1" d="M226.9,272h-3.1V258.9h3.1Zm-2.9-.2h2.6V259.2H224Z"/>
        <path class="cls-1" d="M227.1,285.6h-3.6V272.4h3.6Zm-3.3-.2h3.1V272.6h-3.1Z"/>
        <path class="cls-1" d="M203.1,272.6h-3.6v-13h3.6Zm-3.3-.2h3.1V259.9h-3.1Z"/>
        <path class="cls-1" d="M203.7,285.8h-4.2v-13h4.2Zm-4-.2h3.7V273h-3.7Z"/>
        <rect class="cls-1" x="197.8" y="286.1" width="32" height="1.72"/>
        <path class="cls-5" d="M212.8,254.5"/>
        <rect class="cls-1" x="212.3" y="254.5" width="1" height="3.48"/>
        <rect class="cls-1" x="215.6" y="254.2" width="1" height="3.76" transform="translate(-8.6 7.5) rotate(-2)"/>
        <rect class="cls-1" x="218.1" y="255.6" width="3.4" height="1" transform="translate(-73 424) rotate(-79.2)"/>
        <rect class="cls-1" x="220" y="256" width="4.1" height="1" transform="translate(-65.9 435.8) rotate(-81)"/>
        <rect class="cls-1" x="209.4" y="254.5" width="1" height="3.63" transform="translate(-17.5 15.4) rotate(-4)"/>
        <rect class="cls-1" x="206.4" y="254.3" width="1" height="4.19" transform="translate(-79.5 93.6) rotate(-21.5)"/>
      </g>
      <g>
        <path class="cls-1" d="M365.4,215.1H345.7l-3.4-4.1h26.1Zm-19.2-1h18.7l1.6-2.2h-22Z"/>
        <path class="cls-1" d="M374.9,235.6H338.2V214.5l36.9-.2Zm-35.7-1h34.7l.2-19.3H339.2Z"/>
        <path class="cls-1" d="M345.6,235.5,345,215l21.6-.8.3,21.2ZM346,216l.5,18.5h19.4l-.3-19.1Z"/>
        <rect class="cls-1" x="355.1" y="215.3" width="1" height="20.51" transform="translate(-5.7 9.3) rotate(-1.5)"/>
        <rect class="cls-1" x="345.8" y="219.2" width="19.9" height="1" transform="translate(-0.9 1.4) rotate(-0.2)"/>
        <rect class="cls-1" x="346.5" y="224.2" width="19.3" height="1" transform="translate(-3.5 5.6) rotate(-0.9)"/>
        <rect class="cls-1" x="346.9" y="229.4" width="19.1" height="1" transform="translate(-0.9 1.4) rotate(-0.2)"/>
        <path class="cls-1" d="M374.7,235.9h-7.1V214.3h7.1Zm-6.1-1h5.1V215.3h-5.1Z"/>
        <path class="cls-1" d="M372,224.9h-4.3V214.6H372Zm-3.3-1H371v-8.4h-2.3Z"/>
        <path class="cls-1" d="M372.3,234.8h-4.8V224.4h4.8Zm-3.8-1h2.8v-8.4h-2.8Z"/>
        <path class="cls-1" d="M344.9,225.4H340V215.1h4.8Zm-3.8-1h2.8v-8.3H341Z"/>
        <path class="cls-1" d="M345.5,235h-5.6V224.7h5.6Zm-4.6-1h3.6v-8.3h-3.6Z"/>
        <rect class="cls-1" x="338.4" y="234.8" width="36.6" height="1.25"/>
        <path class="cls-7" d="M355.6,211.7"/>
        <rect class="cls-1" x="355.1" y="211.7" width="1" height="2.54"/>
        <rect class="cls-1" x="358.8" y="211.5" width="1" height="2.75" transform="translate(-10.8 19.4) rotate(-3)"/>
        <rect class="cls-1" x="362.3" y="212.4" width="2.5" height="1" transform="translate(55.2 500.1) rotate(-73.3)"/>
        <rect class="cls-1" x="364.7" y="212.7" width="3" height="1" transform="translate(71.3 517.4) rotate(-76.1)"/>
        <rect class="cls-1" x="351.7" y="211.7" width="1" height="2.66" transform="translate(-21.3 40.1) rotate(-6.3)"/>
        <rect class="cls-1" x="348.4" y="211.5" width="1" height="3.34" transform="translate(-60 214.8) rotate(-31.7)"/>
        <path class="cls-1" d="M366.4,215.1H346.7l-3.4-4.1h26.1Zm-19.2-1h18.7l1.6-2.2h-22Z"/>
        <path class="cls-1" d="M375.6,235.2H339.6V214.9h36.1Zm-35.7-.2h35.4l.2-20H339.9Z"/>
        <path class="cls-1" d="M347,235.1l-.5-19.7h.1l20.7-.7.3,20.4H347Zm-.3-19.5.5,19.2h20.1l-.3-19.9Z"/>
        <polygon class="cls-1" points="356.7 235.8 356.2 215.3 356.4 215.3 357 235.8 356.7 235.8"/>
        <rect class="cls-1" x="346.9" y="219.5" width="19.9" height="0.25" transform="translate(-0.8 1.3) rotate(-0.2)"/>
        <rect class="cls-1" x="347.5" y="224.6" width="19.3" height="0.25" transform="translate(-3.5 5.6) rotate(-0.9)"/>
        <rect class="cls-1" x="347.9" y="229.8" width="19.1" height="0.25" transform="translate(-0.9 1.4) rotate(-0.2)"/>
        <path class="cls-1" d="M375.3,235.5H369V214.6h6.3Zm-6.1-.2h5.8V214.9h-5.8Z"/>
        <path class="cls-1" d="M372.7,224.6h-3.5v-9.6h3.5Zm-3.3-.2h3v-9.1h-3Z"/>
        <path class="cls-1" d="M372.9,234.4h-4.1v-9.7h4.1Zm-3.8-.2h3.6V225h-3.6Z"/>
        <path class="cls-1" d="M345.5,225h-4.1v-9.5h4.1Zm-3.8-.2h3.6v-9h-3.6Z"/>
        <path class="cls-1" d="M346.1,234.6h-4.8V225h4.8Zm-4.6-.2h4.3v-9h-4.3Z"/>
        <rect class="cls-1" x="339.4" y="234.8" width="36.6" height="1.25"/>
        <path class="cls-8" d="M356.6,211.7"/>
        <rect class="cls-1" x="356.1" y="211.7" width="1" height="2.54"/>
        <rect class="cls-1" x="359.8" y="211.5" width="1" height="2.75" transform="translate(-10.8 19.5) rotate(-3)"/>
        <rect class="cls-1" x="363.3" y="212.4" width="2.5" height="1" transform="translate(55.9 501) rotate(-73.3)"/>
        <rect class="cls-1" x="365.7" y="212.7" width="3" height="1" transform="translate(72 518.4) rotate(-76.1)"/>
        <rect class="cls-1" x="352.7" y="211.7" width="1" height="2.66" transform="translate(-21.3 40.1) rotate(-6.3)"/>
        <rect class="cls-1" x="349.4" y="211.5" width="1" height="3.34" transform="matrix(0.85, -0.52, 0.52, 0.85, -59.81, 215.36)"/>
      </g>
      <g>
        <path class="cls-1" d="M324.8,216.4h-19l-3.3-4h25.3Zm-18.5-1h18l1.5-2H304.7Z"/>
        <path class="cls-1" d="M334,236.2H298.6V215.8h35.6Zm-34.3-1H333l.2-18.5H299.6Z"/>
        <path class="cls-1" d="M305.7,236l-.5-19.7,20.8-.7.3,20.4Zm.5-18.8.5,17.8h18.6l-.3-18.4Z"/>
        <rect class="cls-1" x="314.8" y="216.5" width="1" height="19.75" transform="translate(-5.8 8.3) rotate(-1.5)"/>
        <rect class="cls-1" x="306" y="220.3" width="19.1" height="1" transform="translate(-0.9 1.2) rotate(-0.2)"/>
        <rect class="cls-1" x="306.6" y="225.1" width="18.6" height="1" transform="translate(-3.5 5) rotate(-0.9)"/>
        <rect class="cls-1" x="307" y="230.1" width="18.4" height="1" transform="translate(-0.9 1.2) rotate(-0.2)"/>
        <path class="cls-1" d="M333.8,236.4h-6.8V215.6h6.8Zm-5.8-1h4.8V216.6h-4.8Z"/>
        <path class="cls-1" d="M331.2,225.9H327v-10h4.2Zm-3.2-1h2.2v-8H328Z"/>
        <path class="cls-1" d="M331.4,235.4h-4.7V225.3h4.7Zm-3.7-1h2.7v-8.1h-2.7Z"/>
        <path class="cls-1" d="M305,226.3h-4.7v-9.9H305Zm-3.7-1H304v-7.9h-2.7Z"/>
        <path class="cls-1" d="M305.7,235.5h-5.4v-10h5.4Zm-4.4-1h3.4v-8h-3.4Z"/>
        <rect class="cls-1" x="298.8" y="235.4" width="35.3" height="1.21"/>
        <path class="cls-5" d="M315.4,213.1"/>
        <rect class="cls-1" x="314.9" y="213.1" width="1" height="2.45"/>
        <rect class="cls-1" x="318.4" y="212.9" width="1" height="2.64" transform="translate(-11 17.3) rotate(-3.1)"/>
        <rect class="cls-1" x="321.8" y="213.8" width="2.5" height="1" transform="translate(25 462.2) rotate(-73.3)"/>
        <rect class="cls-1" x="324.1" y="214" width="2.9" height="1" transform="translate(39.1 479) rotate(-76.1)"/>
        <rect class="cls-1" x="311.6" y="213.1" width="1" height="2.56" transform="translate(-21.7 35.7) rotate(-6.3)"/>
        <rect class="cls-1" x="308.4" y="212.9" width="1" height="3.22" transform="translate(-66.6 194) rotate(-31.6)"/>
        <path class="cls-1" d="M325.8,216.4h-19l-3.3-4h25.3Zm-18.5-1h18l1.5-2.1H305.7Z"/>
        <path class="cls-1" d="M334.6,235.8H300V216.1h34.8Zm-34.3-.2h34.1l.2-19.3H300.2Z"/>
        <path class="cls-1" d="M307,235.6l-.5-19h.1l20-.7.3,19.6H307Zm-.3-18.8.5,18.5h19.4l-.3-19.1Z"/>
        <polygon class="cls-1" points="316.4 236.3 315.9 216.6 316.2 216.5 316.7 236.3 316.4 236.3"/>
        <rect class="cls-1" x="307" y="220.7" width="19.1" height="0.25" transform="translate(-0.9 1.3) rotate(-0.2)"/>
        <rect class="cls-1" x="307.6" y="225.5" width="18.6" height="0.25" transform="translate(-3.5 5) rotate(-0.9)"/>
        <rect class="cls-1" x="308" y="230.5" width="18.4" height="0.25" transform="translate(-0.8 1.1) rotate(-0.2)"/>
        <path class="cls-1" d="M334.4,236.1h-6.1V215.9h6.1Zm-5.8-.2h5.6V216.2h-5.6Z"/>
        <path class="cls-1" d="M331.8,225.5h-3.4v-9.3h3.4Zm-3.2-.2h2.9v-8.8h-2.9Z"/>
        <path class="cls-1" d="M332,235h-3.9v-9.3H332Zm-3.7-.2h3.4v-8.8h-3.4Z"/>
        <path class="cls-1" d="M305.7,225.9h-3.9v-9.2h3.9Zm-3.7-.2h3.4V217H302Z"/>
        <path class="cls-1" d="M306.3,235.1h-4.6v-9.2h4.6Zm-4.4-.2H306v-8.7h-4.1Z"/>
        <rect class="cls-1" x="299.8" y="235.4" width="35.3" height="1.21"/>
        <path class="cls-5" d="M316.3,213.1"/>
        <rect class="cls-1" x="315.8" y="213.1" width="1" height="2.44"/>
        <rect class="cls-1" x="319.4" y="212.9" width="1" height="2.64" transform="translate(-11 17.4) rotate(-3.1)"/>
        <rect class="cls-1" x="322.8" y="213.8" width="2.4" height="1" transform="translate(25.7 463.1) rotate(-73.3)"/>
        <rect class="cls-1" x="325.1" y="214" width="2.9" height="1" transform="translate(39.8 480) rotate(-76.1)"/>
        <rect class="cls-1" x="312.6" y="213.1" width="1" height="2.56" transform="translate(-21.7 35.8) rotate(-6.3)"/>
        <rect class="cls-1" x="309.4" y="212.9" width="1" height="3.22" transform="translate(-66.5 194.6) rotate(-31.7)"/>
      </g>
      <rect class="cls-1" x="283.3" y="194.1" width="48.8" height="1.1" transform="translate(-50.1 262) rotate(-43)"/>
      <path class="cls-1" d="M425,296.1h-8.8V250H425Zm-6.8-2H423V252h-4.8Z"/>
      <path class="cls-1" d="M391.4,293.9h-8.8V250.3h8.8Zm-6.8-2h4.8V252.3h-4.8Z"/>
      <path class="cls-1" d="M426.8,258.2a1.6,1.6,0,0,1,2.3-.2l1.1.9c.3.3,1,1.9,1,.7v-3.4c-.3,1.1-1.5.6-2.1,1.3s-.3,1.4-.4,1.9,0,2,0,2.8,0,4.7,0,.9c0,.3,0,3,.3,3s.3-2.9.3-3,0-1,0-1.5,0,1.3,0,.4,0-.9,0-1.3c0,2.2-.5,3,1,2.4s1.3-3.1,1.3-4.6,0-3.6-1.1-5-2.5-2.6-3.9-1.2-.3,2.3-.3,3,.4,2.9.3,3Z"/>
      <path class="cls-1" d="M428.9,259.1c-.7-.1-1-1-1.6-1s-.5.3-.8.1-.5-1.1-.5-1.4v4.2c.1-.6.1-1.2.6-1.6s.3-2.5.3-3a20.2,20.2,0,0,0-.1-2.1c0-.1-.1-.9-.2-.9s-.8,1.6-1,2.5a18.2,18.2,0,0,0,.1,6.1c.1.7.2,2.1,1.1,2s.5-.2.9.1.5.6,1.1.7.3-2.8.3-3,.1-2.9-.3-3Z"/>
      <g>
        <path class="cls-1" d="M377.7,257.3a1.6,1.6,0,0,1,2.3-.2l1.1.9c.3.3,1,1.9,1,.7v-3.4c-.3,1.1-1.5.6-2.1,1.3s-.3,1.4-.4,1.9,0,2,0,2.8,0,4.7,0,.9c0,.3,0,3,.3,3s.3-2.9.3-3,0-1,0-1.5,0,1.3,0,.4,0-.9,0-1.3c0,2.2-.5,3,1,2.4s1.3-3.1,1.3-4.6,0-3.6-1.1-5-2.5-2.6-3.9-1.2-.3,2.3-.3,3,.4,2.9.3,3Z"/>
        <path class="cls-1" d="M379.8,258.2c-.7-.1-1-1-1.6-1s-.5.3-.8.1-.5-1.1-.5-1.4v4.2c.1-.6.1-1.2.6-1.6s.3-2.5.3-3a20.2,20.2,0,0,0-.1-2.1c0-.1-.1-.9-.2-.9s-.8,1.6-1,2.5a18.2,18.2,0,0,0,.1,6.1c.1.7.2,2.1,1.1,2s.5-.2.9.1.5.6,1.1.7.3-2.8.3-3,.1-2.9-.3-3Z"/>
      </g>
      <path class="cls-1" d="M173.1,299.1a.7.7,0,0,1-.7-.7V249.5a.7.7,0,0,1,1.3,0v48.9A.7.7,0,0,1,173.1,299.1Z"/>
      <path class="cls-1" d="M163.7,273.1c4.3.5,5.2-3.1,5-6.4s-2.6-4.1-5-1.3-2.8,5.8-2.8,9.2,1,6.7,4.6,4.4,2.6-15.2-3.9-9a12.1,12.1,0,0,0-3.9,9.5c0,1-.2,2.8.7,3.5s3-1.5,3.2-2.8.5-5.5-.2-5.6c-5.1-.6-5.4,5.1-5.2,8.8s2.3,7.7,6.2,3.2c.5-.6.3-6,0-6a13.1,13.1,0,0,0-5.9,2c-2.8,1.7-4.3,3.3-5.1-1.4l-.2,5.6a13.4,13.4,0,0,0,4.8,0c.3-.1.5-.7.8-.7s.6-.2,1.9.4,2.4,2,2.3,1.2l.3-3.8c-2.1,1.3-2.1,4.8-2,7.1.2,3.7,3.7,5.1,7.3,4.2,5.7-1.4,4.8-14.6-1.2-9.4v5.9a40.1,40.1,0,0,0,1.2-11.7l-.3,3.8c1.6,1.9,1.9,1.3,2.2-.7a17.4,17.4,0,0,0-.1-6.4c.6,2.1-.6,3.2,1.3,1.1l.7-.9a6.8,6.8,0,0,0,.9-2.8,14.6,14.6,0,0,0-.7-7q-.1-.2-.2,0c-1.9,3-1.7,7.1-1.1,10.5,0,.1.1.6.2.3,1.9-3.6,1.5-8.4.7-12.3l-.2,5.5c.7,2.2,2.6,4.4,2.7,6.7l.2-4.4a3.4,3.4,0,0,1-1.1,2.2l.4,2.1c-.1-6.4.5-12.8-.3-19.1,0-.3-.2-1.4-.4-.5a22.5,22.5,0,0,1-.3,3.1c-1.4,1.5-1.4,0-3.1-.9v6c2.3-1.2,3.6-1.8,4-4.3a10.3,10.3,0,0,0-.7-6.2h-.1a6.3,6.3,0,0,0-2.4,1.6v6a11.2,11.2,0,0,0,3.3-4.7c.6-1.6-.5-4.9-.2-5.8a11.3,11.3,0,0,1-3.1,4.5c-1.1,1.1.7,5.4,0,6,1.1-.9,3.6-4.1,1.4-4.2a10.6,10.6,0,0,0-2.2,1.2c-.6.3-.6,5.7,0,6a5.1,5.1,0,0,1,2.9,2.7c.2.2.2-.2.2-.3a22.6,22.6,0,0,0,.4-2.5c.5-4.8.1,1,.1,3.4s-.2,6.4-.1,9.7c0,.2.2,2.4.4,2.1,3.6-5.1-.3-11.1-1.8-16,.3.8-.6,4-.2,5.5s.6.7,0,1.6-.3,1.9.8,1.4l.2-4.4c-.8,2.8-3,4.1-3.2,7.1a28.7,28.7,0,0,0,.1,3.5c.1,2.2.3-.5,0-.9s-1.3-1-1.6-1.4-.3,3.5-.3,3.8a14.4,14.4,0,0,1-.8,4.3c-.2.8.3,5.7.1,5.9s2.1-1,3.4-1.5.9,4.1.9-1.3c0-3.5,0-1.4-1.5-.4s-7.1,1.1-8.4-1.3v5.5c.2-1.2,1.4-2.2,1.7-3.3a12.5,12.5,0,0,0,.1-4.8,5.5,5.5,0,0,0-2.8-4.2,2.5,2.5,0,0,0-2.1-.4,1.7,1.7,0,0,1-2.1.9,10.2,10.2,0,0,1-3.2-.2c-.4-.1-.2,5.1-.2,5.6a30.1,30.1,0,0,0,1.3,4.9h.1c3.2-2.2,6.1-4.5,10-4.8v-6c-.8.9-1.9,2.3-3.2,2.4s-1.5-1.3-2.2-1.3l-.2-.5v2.1c-.2-.1.8-1.5.9-1.6s1.8-1.3,3.7-1.1l-.2-5.6a2.1,2.1,0,0,1-1.5,2.1,5.1,5.1,0,0,0-1.5.8l-.2,3.7c.7-2.6,3-6.2,5.6-7.2a11.9,11.9,0,0,1,2.3,0q.8.7.4-1.3t-.1-1l-1.3,1.1c-.7.3-2.6-.4-2.8-.2s-1.6,2.9-.2,1.3a11.8,11.8,0,0,0,.8-1.6c.6-.9,4.7-5.8,5.6-2.4v-5.8c-.7,1.7-2.9,2.7-4.7,2.5-.2,0-.6,5.9,0,6Z"/>
      <path class="cls-1" d="M389.8,249.2h-1.7a.5.5,0,0,1-.2-1l14.9-5.9a.5.5,0,0,1,.4.9L390,249.1Z"/>
      <path class="cls-1" d="M417.2,248.9h-3.4l-9.8-5a.5.5,0,0,1,.4-.9l12.9,5.1a.5.5,0,0,1-.2,1Zm-3-1.1h0Z"/>
      <path class="cls-1" d="M420.4,294.6h0a.5.5,0,0,1-.5-.5l-.4-42.2a.5.5,0,0,1,.2-.4h.5l1.3.5a.5.5,0,0,1,.3.5l-.8,41.7A.5.5,0,0,1,420.4,294.6Zm.1-42v8.3l.2-8.2Z"/>
      <path class="cls-1" d="M386.9,292.4h0a.5.5,0,0,1-.5-.5c0-.4-.1-36.5-.1-39.7a.5.5,0,0,1,.2-1l1.7.3a.5.5,0,0,1,.4.5l-1.1,39.9A.5.5,0,0,1,386.9,292.4Zm.4-40v7.3l.2-7.3Z"/>
      <path class="cls-1" d="M419.1,303.7H419l-1.9-.6-.3-.3a.5.5,0,0,1,0-.4l1.7-4.3c-.7-.7-.7-.9-.6-1.1a.6.6,0,0,1,.6-.4.5.5,0,0,1,.4.3l.5-1.2a.5.5,0,0,1,.9,0h3.8a.5.5,0,0,1,.4.8l-5,6.9Zm-1.3-1.4,1.1.3,1.9-2.6h-.2l-1.4-1Zm2.8-5.5.7,2.4,1.7-2.4Zm-1,1.1.4.3-.2-.8Z"/>
      <g>
        <path class="cls-1" d="M252,213.7l14.4-13.5,11.4,11.9Zm14.4-12.1-11.7,11,20.9-1.3Z"/>
        <path class="cls-1" d="M254.6,212.8l10.3-9.1,1.2-.8,9,9Zm10.9-8.3-8.2,7.2,15.4-.8-6.8-6.8Z"/>
        <path class="cls-1" d="M274.5,238.5H258.8V215.3h15.7Zm-14.7-1h13.7V216.3H259.8Z"/>
        <rect class="cls-1" x="266.3" y="215.8" width="1" height="22.2" transform="translate(-8.2 10) rotate(-2.1)"/>
        <rect class="cls-1" x="259.6" y="221" width="14.1" height="1" transform="translate(-4.5 5.5) rotate(-1.2)"/>
        <rect class="cls-1" x="259" y="228.4" width="14.7" height="1" transform="translate(-8.9 10.8) rotate(-2.3)"/>
        <path class="cls-1" d="M257.5,240l-.8-25.6h1l.8,24.6,18.4-2.2,17.8-17-.4-6-15.6-1.8-11.5-10.7,27.7,6,.8,12.9-18.3,17.5Zm21.6-29.1,15.1,1.8-.3-4.7-23.4-5.1Z"/>
        <path class="cls-1" d="M257.7,237.6l-.9-24.7,20-.3.3,23.7Zm.2-23.7.8,22.6,17.5-1.1-.3-21.8Z"/>
      </g>
      <g>
        <path class="cls-1" d="M196,214.8l14.4-13.5,11.4,11.9Zm14.4-12.1-11.7,11,20.9-1.3Z"/>
        <path class="cls-1" d="M198.7,213.9l10.3-9.1,1.2-.8,9,9Zm10.9-8.3-8.2,7.2,15.4-.8-6.8-6.8Z"/>
        <path class="cls-1" d="M218.5,239.5H202.8V216.3h15.7Zm-14.7-1h13.7V217.3H203.8Z"/>
        <rect class="cls-1" x="210.3" y="216.8" width="1" height="22.2" transform="matrix(1, -0.04, 0.04, 1, -8.23, 7.9)"/>
        <rect class="cls-1" x="203.6" y="222" width="14.1" height="1" transform="translate(-4.5 4.4) rotate(-1.2)"/>
        <rect class="cls-1" x="203" y="229.4" width="14.7" height="1" transform="translate(-9 8.6) rotate(-2.3)"/>
        <polygon class="cls-1" points="201.5 241 200.7 215.4 201.7 215.3 202.5 239.9 221 237.9 243.2 216.7 238.1 209.1 214.5 204 223.1 212 242.3 215.7 242.1 216.7 222.7 212.9 211.2 202.2 238.7 208.2 244.5 216.9 221.5 238.9 201.5 241"/>
        <path class="cls-1" d="M201.8,238.6l-.9-24.7,20-.3.3,23.7Zm.2-23.7.8,22.6,17.5-1.1-.3-21.8Z"/>
      </g>
      <path class="cls-1" d="M327.5,198.2l-1-.2c.8-3.8.7-9.4.5-14.4-.1-2.3-.1-4.6-.1-6.5v-.5h5.8a48.9,48.9,0,0,0,8.6-.4l.2,1a49.5,49.5,0,0,1-8.8.4H328c0,1.8,0,3.9.1,6C328.3,188.8,328.4,194.3,327.5,198.2Z"/>
      <polygon class="cls-1" points="392.4 195.6 391.1 170.6 411.1 171.1 411.1 172.1 392.2 171.7 393.4 195.5 392.4 195.6"/>
      <polygon class="cls-1" points="467.7 191.1 465.6 166.9 485.4 166.7 485.4 167.7 466.7 167.9 468.7 191 467.7 191.1"/>
      <polygon class="cls-1" points="256.2 237.4 255.5 211.7 274.9 212.9 274.9 213.9 256.5 212.8 257.2 237.4 256.2 237.4"/>
      <polygon class="cls-1" points="200.7 238.2 200.7 214.9 219.4 214.1 219.4 215.1 201.7 215.8 201.7 238.2 200.7 238.2"/>
      <rect class="cls-1" x="390.3" y="171.6" width="1" height="23.61" transform="translate(-6.2 13.8) rotate(-2)"/>
      <rect class="cls-1" x="429.4" y="198.1" width="36.4" height="1" transform="translate(-7.8 18.5) rotate(-2.4)"/>
      <rect class="cls-1" x="508.4" y="173.9" width="1" height="36.37" transform="translate(309.8 698.3) rotate(-89.2)"/>
      <rect class="cls-1" x="434.9" y="171.7" width="19.4" height="1" transform="translate(-4.2 11.3) rotate(-1.5)"/>
      <rect class="cls-1" x="430.3" y="162.7" width="31" height="1" transform="translate(-11.6 36.2) rotate(-4.6)"/>
      <rect class="cls-1" x="503.5" y="153.5" width="27.1" height="1" transform="translate(-13.9 58.5) rotate(-6.4)"/>
      <rect class="cls-1" x="478.6" y="146" width="73.6" height="1" transform="translate(-11.7 50) rotate(-5.5)"/>
      <polygon class="cls-1" points="399.5 158 399.5 157 400.5 157 475.7 149 475.8 150 400.6 158 399.5 158"/>
      <rect class="cls-1" x="347.1" y="161" width="49" height="1" transform="translate(-11.9 30.7) rotate(-4.6)"/>
      <rect class="cls-1" x="212.6" y="199.6" width="38.4" height="1" transform="translate(-12.4 15.4) rotate(-3.7)"/>
      <rect class="cls-1" x="255.5" y="196.8" width="46.4" height="1" transform="translate(-8.2 12.2) rotate(-2.5)"/>
      <rect class="cls-1" x="363.1" y="169.2" width="19.5" height="1" transform="matrix(1, -0.08, 0.08, 1, -11.97, 29.25)"/>
      <rect class="cls-1" x="367.6" y="171.4" width="18" height="1" transform="translate(-9 21.2) rotate(-3.2)"/>
      <rect class="cls-1" x="366.6" y="174.7" width="20.9" height="1" transform="translate(-4 8.9) rotate(-1.3)"/>
      <rect class="cls-1" x="182" y="236" width="1" height="17.84" transform="translate(-67.5 420.5) rotate(-88.4)"/>
      <rect class="cls-1" x="175.9" y="241.5" width="15.5" height="1" transform="translate(-10.2 8.1) rotate(-2.5)"/>
      <path class="cls-1" d="M179.1,239v-1l17.6-.7v1Z"/>
      <rect class="cls-1" x="182.1" y="235" width="5" height="1"/>
      <rect class="cls-1" x="183.9" y="232" width="11.2" height="1"/>
      <rect class="cls-1" x="196.8" y="231.8" width="1" height="7.51" transform="translate(-46.8 422.2) rotate(-87.5)"/>
      <rect class="cls-1" x="186.7" y="229" width="5.4" height="1" transform="translate(-27 25.3) rotate(-7.1)"/>
      <rect class="cls-1" x="189.9" y="226.3" width="9" height="1" transform="translate(-12.3 11.2) rotate(-3.2)"/>
      <rect class="cls-1" x="191.1" y="223.5" width="7.7" height="1" transform="translate(-4.8 4.2) rotate(-1.2)"/>
      <rect class="cls-1" x="193.9" y="220.8" width="6.2" height="1" transform="translate(-27.9 28.4) rotate(-7.7)"/>
      <rect class="cls-1" x="226.4" y="202.6" width="26.6" height="1" transform="translate(-13.5 17.1) rotate(-4)"/>
      <rect class="cls-1" x="238.6" y="205.3" width="15.3" height="1" transform="translate(-2.2 2.7) rotate(-0.6)"/>
      <rect class="cls-1" x="243.6" y="208.2" width="9" height="1" transform="translate(-7.6 9.4) rotate(-2.1)"/>
      <rect class="cls-1" x="246.9" y="208.9" width="1" height="6.01" transform="translate(22.2 447.2) rotate(-86.8)"/>
      <rect class="cls-1" x="247.4" y="215.1" width="5.2" height="1" transform="translate(-6.8 8.2) rotate(-1.8)"/>
      <rect class="cls-1" x="243.9" y="218.1" width="7.8" height="1" transform="translate(-13.4 16.2) rotate(-3.6)"/>
      <rect class="cls-1" x="237.3" y="226.7" width="13.7" height="1"/>
      <rect class="cls-1" x="232.9" y="230" width="15" height="1" transform="translate(-2.5 2.6) rotate(-0.6)"/>
      <rect class="cls-1" x="231.1" y="233" width="23.3" height="1" transform="translate(-6.5 7) rotate(-1.6)"/>
      <rect class="cls-1" x="232.6" y="232.7" width="1" height="8.34" transform="translate(-12.9 460.3) rotate(-87.7)"/>
      <rect class="cls-1" x="243.6" y="235.9" width="8.2" height="1" transform="translate(-9.5 10.3) rotate(-2.3)"/>
      <path class="cls-1" d="M226.6,240.7v-1l22.8-.5v1Z"/>
      <rect class="cls-1" x="283.9" y="237.2" width="10" height="1"/>
      <rect class="cls-1" x="285.1" y="234.5" width="5.7" height="1" transform="translate(-13.3 17.3) rotate(-3.4)"/>
      <rect class="cls-1" x="286.8" y="231.5" width="6.7" height="1"/>
      <rect class="cls-1" x="288.8" y="227.9" width="5.8" height="1"/>
      <rect class="cls-1" x="291.1" y="223.5" width="1" height="3.34" transform="translate(52.1 505.1) rotate(-87.1)"/>
      <rect class="cls-1" x="284.4" y="203" width="9.7" height="1" transform="translate(-13.2 20.3) rotate(-3.9)"/>
      <path class="cls-1" d="M277.4,202.2v-1l18.8-1.2.2,1C295.5,201.2,279.3,202.1,277.4,202.2Z"/>
      <rect class="cls-1" x="241.2" y="199.8" width="19.6" height="1" transform="matrix(1, -0.09, 0.09, 1, -17.67, 24.41)"/>
      <path class="cls-1" d="M243.8,243.7h-12v-1h12Z"/>
      <path class="cls-1" d="M250.8,243.2v-1h6.7v1h-6.6Z"/>
      <path class="cls-1" d="M286.2,243.5h-4.5c-2.8,0-5.7-.2-8.4-.3s-5.5-.3-8.2-.3v-1c2.8,0,5.6.2,8.3.3s5.6.3,8.4.3H284a21.5,21.5,0,0,0,6.1-.4l.3,1A16.2,16.2,0,0,1,286.2,243.5Z"/>
      <path class="cls-1" d="M252.1,236.9l-3.8-.3a30.6,30.6,0,0,0-4.5-.2v-1a30.5,30.5,0,0,1,4.6.2,33.9,33.9,0,0,0,4.1.3v1Z"/>
      <path class="cls-1" d="M242,240.5h-5.8c-2.8-.1-5.7-.2-8.6-.1v-1c2.9-.1,5.8,0,8.6.1h9.2a46.9,46.9,0,0,1,5-.1v1a46.3,46.3,0,0,0-4.8.1Z"/>
      <path class="cls-1" d="M254.6,230.7h-3.3v-1h4v1Z"/>
      <path class="cls-1" d="M254.9,222.4a36.2,36.2,0,0,1-5.9-.5l.2-1a35.3,35.3,0,0,0,5.8.5Z"/>
      <path class="cls-1" d="M198.4,244.7v-1c4.5,0,9-.5,13.4-.9a134.6,134.6,0,0,1,13.6-.9v1a133.7,133.7,0,0,0-13.5.9C207.5,244.2,203,244.7,198.4,244.7Z"/>
      <rect class="cls-1" x="238.9" y="223.7" width="12.3" height="1"/>
      <path class="cls-1" d="M282.9,241.1a18.1,18.1,0,0,1-6-.7l.3-.9c2,.7,4.9.7,7.5.7h7.2v1h-9Z"/>
      <path class="cls-1" d="M281.7,200.1a65.9,65.9,0,0,1-8.9-.5v-1a85.4,85.4,0,0,0,15.4.3h3.9a43.6,43.6,0,0,0,7.4-.4l.2,1a44.3,44.3,0,0,1-7.6.4h-3.9Z"/>
      <path class="cls-1" d="M218.5,202.9h-1.3v-1c3.2.1,6.5-.2,9.7-.4s6.1-.5,9.1-.4v1c-3,0-6.1.2-9,.4S221.4,202.9,218.5,202.9Z"/>
      <rect class="cls-1" x="321.9" y="183.2" width="3" height="1"/>
      <path class="cls-1" d="M317.7,187.4l-.2-1a27,27,0,0,1,5.7-.2h2.1v1h-2.1A26.3,26.3,0,0,0,317.7,187.4Z"/>
      <path class="cls-1" d="M324.3,190.2l-2.8-.2c-2.1-.2-4.2-.4-5.8.2l-.3-.9c1.8-.6,4.1-.4,6.2-.2l2.8.2Z"/>
      <path class="cls-1" d="M312,193.4v-1a91.3,91.3,0,0,1,11.9-.2v1A91,91,0,0,0,312,193.4Z"/>
      <path class="cls-1" d="M319.2,197.4h-1.6l-2.8-.2c-2.3-.3-5-.6-6.5,0l-.4-.9c1.8-.7,4.5-.4,7-.1l2.7.2h7v1h-5.4Z"/>
      <path class="cls-1" d="M304.8,200.2l-.4-.9c1-.4,2.8-.4,4.4-.3h1.7c2.5.1,5,.1,7.5,0h7v1H318c-2.5.1-5,.1-7.5,0h-1.7A11.6,11.6,0,0,0,304.8,200.2Z"/>
      <path class="cls-1" d="M300.5,204l-.4-.9c1.7-.9,4.3-.9,6.6-.9h5.6l10.5-.5,3-.2c3.4-.2,6.8-.5,10.3-.5v1c-3.4,0-6.9.3-10.2.5l-3,.2-10.5.5h-5.7C304.6,203.2,302,203.2,300.5,204Z"/>
      <path class="cls-1" d="M298.6,206.7h-1.7v-1a98.7,98.7,0,0,0,12.4-.7,102.4,102.4,0,0,1,12.4-.7v1a101.3,101.3,0,0,0-12.3.7C305.9,206.4,302.2,206.7,298.6,206.7Z"/>
      <path class="cls-1" d="M295.5,209v-1a264.3,264.3,0,0,1,27.5-1.3c3,0,5.9-.1,8.7-.3l1.9-.2a16.6,16.6,0,0,1,4.3-.3v1a16,16,0,0,0-4,.3l-2,.3c-2.9.2-5.8.3-8.8.3A263.1,263.1,0,0,0,295.5,209Z"/>
      <path class="cls-1" d="M373.8,180.9a19.1,19.1,0,0,1-5.7-.7l.3-1c3.2,1,7.4.7,11.1.4l3.6-.3h5.5v1h-5.4l-3.6.3C377.7,180.7,375.7,180.9,373.8,180.9Z"/>
      <path class="cls-1" d="M453.6,170.4c-2.6,0-5.2-.2-7.7-.4-4.5-.3-9.1-.7-13.5.1l-.2-1c4.5-.7,9.2-.4,13.7-.1a79.1,79.1,0,0,0,10.1.3v1Z"/>
      <path class="cls-1" d="M496.6,156.8H488v-1h4.8a38.3,38.3,0,0,0,7.7-.1l.2,1A26.3,26.3,0,0,1,496.6,156.8Z"/>
      <path class="cls-1" d="M530.3,164.8H512v-1h14.9a25.4,25.4,0,0,0,7.7-.3l.3,1A17.4,17.4,0,0,1,530.3,164.8Z"/>
      <path class="cls-1" d="M508.6,168.3l-.2-1a40.6,40.6,0,0,1,8.4-.5v1A39.7,39.7,0,0,0,508.6,168.3Z"/>
      <path class="cls-1" d="M510.9,159.7a26.2,26.2,0,0,1-6.1-.6l.2-1c3.8.9,8,.6,12,.3,2.1-.2,4.3-.3,6.4-.3v1c-2,0-4.1.1-6.3.3S513,159.7,510.9,159.7Z"/>
      <path class="cls-1" d="M530.7,159.1H529v-1a127,127,0,0,0,16.7-1v1A137.2,137.2,0,0,1,530.7,159.1Z"/>
      <path class="cls-1" d="M522.8,167.8h0v-1h0l11.1-.2,11.1-.2v1l-11.1.2Z"/>
      <path class="cls-1" d="M513.2,172.1h-3.8v-1c4.4.1,8.9,0,13.2-.1H532v1H513.2Z"/>
      <path class="cls-1" d="M515.2,175.8l-8.4-.2h-.1v-1h.1l8.5.3Z"/>
      <path class="cls-1" d="M544.8,176.5c-3.5,0-7-.3-10.5-.5a120.8,120.8,0,0,0-12.5-.5v-1a123.1,123.1,0,0,1,12.6.5c3.4.2,7,.5,10.4.5Z"/>
      <path class="cls-1" d="M500.1,180.5l-.3-1a27.8,27.8,0,0,1,5.3-.8l3.8-.5.2,1-3.9.5A27,27,0,0,0,500.1,180.5Z"/>
      <path class="cls-1" d="M515.1,180.1h-.6v-1a88.1,88.1,0,0,0,12.4-1,81.7,81.7,0,0,1,13.6-1v1a80.6,80.6,0,0,0-13.4,1A94.2,94.2,0,0,1,515.1,180.1Z"/>
      <path class="cls-1" d="M512.6,185.3a66.6,66.6,0,0,1-7.1-.5,52.2,52.2,0,0,0-7-.5v-1a52.8,52.8,0,0,1,7.2.5c3.9.4,8,.9,11.5,0l.2,1A20.5,20.5,0,0,1,512.6,185.3Z"/>
      <path class="cls-1" d="M533.8,183.8l-7.7-.2h-3.4v-1h12.7v1Z"/>
      <path class="cls-1" d="M496.7,188.8l-.3-1a18.4,18.4,0,0,1,5.9-.5h2.5c3.1-.1,6.3-.1,9.3-.1H518v1h-3.9c-3,0-6.2-.1-9.3.1h-2.6A17.6,17.6,0,0,0,496.7,188.8Z"/>
      <path class="cls-1" d="M524.6,189l-.2-1a41.2,41.2,0,0,1,10.4-.5v1A40.3,40.3,0,0,0,524.6,189Z"/>
      <path class="cls-1" d="M553.3,154c-2.8,0-5.7-.2-8.5-.4s-6.5-.4-9.8-.4v-1c3.3-.1,6.6.2,9.9.4s5.6.4,8.4.4Z"/>
      <path class="cls-1" d="M554,150.3H540.5v-1H554Z"/>
      <rect class="cls-1" x="545.3" y="160.3" width="7.8" height="1"/>
      <path class="cls-1" d="M546.2,164.8l-.3-.9a19,19,0,0,1,6.2-.5v1A18,18,0,0,0,546.2,164.8Z"/>
      <path class="cls-1" d="M548,171h-9.2v-1H548Z"/>
      <path class="cls-1" d="M538.5,147v-1h3.2c3.9-.1,8.3-.3,11.1-1.6l.4.9c-3,1.4-7.5,1.5-11.5,1.7Z"/>
      <rect class="cls-1" x="440" y="165.3" width="19.5" height="1" transform="translate(-7.8 23.1) rotate(-2.9)"/>
      <rect class="cls-1" x="516.2" y="155.3" width="22" height="1" transform="translate(-6.5 23.9) rotate(-2.6)"/>
      <rect class="cls-1" x="510.5" y="160.8" width="30" height="1" transform="translate(-5.1 17.5) rotate(-1.9)"/>
      <rect class="cls-1" x="459.9" y="157.9" width="11.4" height="1" transform="translate(-18.9 73.7) rotate(-8.9)"/>
      <rect class="cls-1" x="447" y="178.8" width="17.5" height="1" transform="translate(-9.4 26.1) rotate(-3.2)"/>
      <rect class="cls-1" x="545.8" y="275.8" width="8.4" height="2" transform="translate(268.9 824.7) rotate(-89.6)"/>
      <g>
        <path class="cls-1" d="M575.8,290.8c-.6-1.1.1-1.9,1.3-1.5s.2,2.3,1.9,2.6c3.4.7,3.5-5.3-.3-3.7s-.3,3.8,2.1,2.5c-1,.3-4,2-4.9,1.4s-.1-2.3-1.4-1.9.3,3,.3,1-2.9-.2-3.4.4-.4,1.5-.9,1.9a4,4,0,0,1-3.3.3c-.8-.7-.4-1.2-.1-2s.8-1,.7-1.8-.9-2-1.7-1.7.7,3.1,1.6,3.4,2.8-1,2.8-2.7-2.5-3.5-4.1-2.8-1.6.8-1,1.5,1.8-1.5,1.4-2.3-3.5-2.3-4.7-.9,0,1.7.7,2.6,1.1,2.8,2.7,2.8v-.5c1.9,1.6,1,2.3.7,4"/>
        <path class="cls-1" d="M575.9,287.9l-.2-.8v5.8c.9-2.7,2.2,1.2,2.6,1.7s2.5.1,3-.8.9-5.9.2-7.5-4.1-.7-4.4,1.5-.5,7.3,3.7,5.9v-6a29.6,29.6,0,0,1-2.9,1.2c-1.6.5-1.3.2-2.4-.7s0-.9-.5-1-1.2.4-1.6,1-.8,6.9.9,6.8,1.2-6.5.4-7.2c-2.9-2.7-4.9,6.6-7.8,2.4v5c.1-.7.7-1.3.9-2a10.6,10.6,0,0,0,.2-2.5c0-1.3.3-3.9-.8-4.9-2.6-2.5-2.3,4.7-1.9,5.9s1.5,3.2,3.1,2.9,2-2.3,2.1-3.6.4-8.8-4-8c-1.8.3-1.7,1.6-1.8,3.1s-.3,4,.4,4.5,1.8-6.6,1.6-7.4c-.9-3.8-5.2-3.1-5.6.5a11.3,11.3,0,0,0,.3,5c.6,1.3,2.3,3.7,3.8,4.1s.3-3,.3-3v-.5l-.3,3c.1.1,1.2-4.4.5-1.6a13.5,13.5,0,0,0-.1,4.1c0,.3.2,2.2.4,1.1.7-3,1.5-7.1-.8-9.6,0,0-.3,2.9-.3,3v.5l.3-3c-.8-.2-3.4-3-3.7-4.2v5.5c.9-1.7,4.5-2.5,5,.2v-5.2c-.1.7-.5,1.9-1.3,1.4l.2.9v-.7l-.2,5.1c1.8-1.9,4.6-.3,5.2,1.9v-5c-.4,3.7-4,1.2-4.6-.5v5.5c.3-1.6,1.9.5,2.1,1.1v-5c-.1.7-.8,1.4-.9,2.1a11.6,11.6,0,0,0-.2,2.4c0,1.2-.3,3.4.7,4.3s2.7.4,3.4-.3,3.1-5.2,4.1-2.3v-5.5c-.1.7-.8.5-1-.1V294c1.1-2.3,1.8.8,2.5,1.2s3.7-1,4.7-1.4-.2-5.9,0-6-2.5.6-3.3-.7l.2,3.7c0,.5,2.5.5,2.8.4s1.4-.1.7-3a1.8,1.8,0,0,1-1,.8c-1.1-.4-1.2,0-2-1s-.2-.9-.7-1.3c-3-2.1-2.1,5.8-1.7,7.1s.4-1.9.4-2.1a12.1,12.1,0,0,0-.2-3.7Z"/>
      </g>
      <g>
        <path class="cls-1" d="M554.5,292.2c4.9-7.7,9.8-2.8,13.3,3.5"/>
        <path class="cls-1" d="M554.6,295.1c1.6-2.4,4-4.8,7.1-3.4s4.6,4.3,6,6.9c.2.3.4-1.9.4-2.1s.3-2.8-.2-3.7c-1.5-2.6-3.4-5.8-6.2-7.1s-5.6,1.2-7.2,3.6c-.5.8-.2,2.8-.2,3.7s.2,2.3.4,2.1Z"/>
      </g>
      <path class="cls-1" d="M107.7,121.4s-23.5-2.9-24.5,10.1c0,0-.7,25.2,32.2,29.1,0,0,18-.7,13.9-23.8,0,0,2.9-6.7,8.6,5.5,0,0,7.4,30.7-31.7,33.6,0,0-24.7-3.6-33.9-27.4,0,0-9.1-21.6,13.7-33.1l-.5-4.3s-1.2-4.3,8.9-.5l14.4,6.5S111.3,121.2,107.7,121.4Z"/>
      <path class="cls-1" d="M210.4,109.7l-4.8-.7-13.9-7.2s-1.4-1,1-2.9c0,0,16.1-18-14.6-31.9,0,0-6.5-3.6-21.9,1.9L134.1,79.2s-4.3,3.8,1.9,6.5c0,0,2.9-.5,4.6,1.4l21.1,41.5s-5.5,5.3-1.2,8.2c0,0-.2,3.1,9.8-1.7l7.7-3.4s10.1-4.8.5-9.1l-4.1-.7s-3.8-4.1-2.9-7.4l8.6-4.1,9.8,5.3a4.4,4.4,0,0,1-1.2,3.4s-1,7.4,5.5,4.8l16.6-7.7S216.2,113.3,210.4,109.7Zm-44.8-5.2L154.4,82.2c-.5-7.2,11.3-6.5,11.3-6.5,13,2.2,14.4,17.3,14.4,17.3C178.4,108.3,165.7,104.5,165.7,104.5Z"/>
      <path class="cls-4" d="M232.5,42.9"/>
      <path class="cls-1" d="M281.3,91.4l-6-2.9L242.9,40l-10.3,2.9-7,58.8-3.4,3.1c-3.4,6,3.8,6.7,3.8,6.7l6-1.7c12.2-2.4,9.6-5,9.6-5,.7-3.4-5.3-5.3-5.3-5.3l.5-7.2c2.6-6.5,17.3-6,17.3-6,7.7,2.6,5.8,7.9,5.8,7.9l-1.4,2.4c-3.1,5.8,4.1,5.5,4.1,5.5l19-5C286.1,95.5,281.3,91.4,281.3,91.4ZM238.8,76.2l1.8-20.4,11.1,16.5A12.5,12.5,0,0,1,238.8,76.2Z"/>
      <path class="cls-9" d="M295.5,86.4"/>
      <path class="cls-1" d="M291.6,90.9c1.2.9-.5,5,6.7,4.3L313,93.6s8.6-4.6-.2-8.4c0,0-2.9.5-3.6-7.4l-1.9-15.1s-1.4-3.6,6.2-3.1c0,0,2.4-1.9,11.8,5,0,0,5.3,2.4,3.1-5L319.7,47s-3.1-2.9-4.6,2.2c0,0-4.8,3.4-8.9,1.4l-1.7-10.1s0-6,19-3.8l11.5,7s6.7.5,1.2-7l-9.8-12.7s-2.4-1.9-6.2,2.2l-33.1,4.6s-4.6-.2-3.6,4.3c0,0-2.4,2.2,5.3,4.8l6.7,45.6S289.7,89.5,291.6,90.9Z"/>
      <path class="cls-9" d="M356.9,20.8"/>
      <path class="cls-1" d="M359.8,22.7l31.5-.5s4.8-4.3,6.5-2.2,1,.5,1,.5l7,16.3s2.6,4.1-1.7,5.8c0,0-11-10.8-13.7-10.6,0,0-6.5-2.6-8.2,1.9L384.1,78s7,3.4,5,6.7c0,0,2.4,3.1-9.6,3.1H367.8s-7.7-1.2-1-7.7l2.9-1.7-1.4-44.2s-3.6-6-13.7,3.1c0,0-3.4,6.2-7.2,6.5,0,0-3.1-.2-.7-7l5.8-13.2S354.5,17,359.8,22.7Z"/>
      <path class="cls-9" d="M419.1,78"/>
      <path class="cls-1" d="M414.1,84.2s-2.2,2.9,7.4,2.9l8.2.2s7-1,1-7.2c0,0-1.7-1,.2-5l7.4-21.6,9.4,33.4s1.9,4.3,4.6.5l16.3-31.7L471,81.3s-8.2,6.2-3.4,8.9a11.5,11.5,0,0,0,3.1,1l16.6,1.2s6.2-3.6-.2-7.4a7,7,0,0,1-1.9-4.3l-3.8-43.9s6.5-5,4.1-8.2c0,0-.7-2.4-10.3-2.2l-7.7-.5s-5.3,1-1.2,6l1.9,2.9L454.9,61.1l-7-26.9.2-1.7s7.9-4.6,2.2-8.4l-16.1-1.4s-8.6.2-.5,8.4L419.9,77.5S411.7,79.6,414.1,84.2Z"/>
      <path class="cls-1" d="M559.2,103.5l-4-5.5-5.5-59-10.6-2.4L504.5,85.8,500,86.9c-5.9,3.7.2,7.9.2,7.9l6.2,1.4c12.1,3.8,11,.1,11,.1,2.3-2.7-2.2-7.3-2.2-7.3l3.9-6.2c5.5-4.5,18.3,3,18.3,3,5.6,6.1,1.3,9.9,1.3,9.9l-2.4,1.5c-5.6,3.6,1,6.9,1,6.9l19.4,4.7C561.6,109.4,559.2,103.5,559.2,103.5ZM528.6,69.4,540.1,52,542,72.2A12.6,12.6,0,0,1,528.6,69.4Z"/>
      <path class="cls-1" d="M620.4,109.3s24.5,1,16.2-32c0,0-1.2-7.4-15.3-15.9L599.1,50.8s-5.8-.9-3.9,5.7c0,0,2.2,1.9,1.7,4.5l-19.7,43.2s-7.7-.9-7.3,4.3c0,0-2.6,1.8,7.6,6.6l7.5,3.9s10.2,4.8,7.6-5.5l-2-3.7s.8-5.6,4.1-7l8.7,4.2,2,11.1a4.5,4.5,0,0,1-3.4,1.2s-6.5,4-.3,7.4l16.6,8s5.6,2.3,4.9-4.5l-2.5-4.2-3.1-15.5S617.4,108.6,620.4,109.3Zm-3.3-13.6c-13.3,8.5-18.3-3.9-18.3-3.9l10.6-23.2c5.4-5,12.3,4.7,12.3,4.7C628.3,84.8,617.1,95.6,617.1,95.6Z"/>
      <path class="cls-1" d="M682.8,109.6l-37,30s-1.5,1.3-5-.8c0,0-6.1.2-4.2,5.7l11.8,13.2a3.7,3.7,0,0,0,5.3-.8s2.1-1,.8-5.2c0,0,.4-2.1,1.7-2.7l14.7-12,10.1.8-13.7,21.4s-1.3,3.6-4.4,3.4c0,0-7.1-1.7-6.5,2.5,0,0-1,1.5,1.5,4l10.3,11.6s4.2,2.1,5.5-2.1l.4-4.6,23.1-36.5,12.6-.2s4.8,5.2,7.1-.4c0,0,1-2.1-1.3-4.4l-8.2-9.5s-4.8-2.9-5.7,2.7c0,0,1.3,4-3.2,3.6l-15.5-.6,9-8.4s6.7,3.6,8.4-.4c0,0,3.4-2.1-2.1-7.6l-9-10.1s-4.4-2.3-5.9,1C683.4,103.3,681.6,104.6,682.8,109.6Z"/>
      <path class="cls-1" d="M359.1,393.1s-1.9,3.1,7.7,2.2l8.2-.5s6.8-1.6.3-7.3c0,0-1.8-.8-.2-5l5.4-22.2,12.4,32.4s2.3,4.1,4.6.1l13.3-33.1,4.8,25.4s-7.5,7-2.5,9.2a11.5,11.5,0,0,0,3.2.7l16.6-.3s5.9-4.2-.9-7.4a7,7,0,0,1-2.3-4.1l-7.9-43.4s6-5.6,3.3-8.5c0,0-.9-2.3-10.5-1.2l-7.7.2s-5.2,1.4-.6,6.1l2.2,2.7-10.7,27.5-9.4-26.1v-1.7s7.5-5.3,1.4-8.6H373.5s-8.6,1,.3,8.4l-9.5,47.4S356.3,388.8,359.1,393.1Z"/>
      <path class="cls-1" d="M450.1,386.8c1.1.8-.5,5,6.4,4.2l34.1-4a54.9,54.9,0,0,0-13.4-8.2s-8.3,3.1-9-4.6l-1.8-14.5s-.7-3.1,4.6-3.8c0,0,2.3-1.9,11.3,5,0,0,6.5,2.1,4.4-5.2l-9.2-12.2s-3.8-3.8-4.9,2.4c0,0-4.6,3.3-8.5,1.4l-1.6-9.9s0-5.9,18.2-3.8l11,6.8s6.4.5,1.1-6.8l-9.4-12.5s-2.3-1.9-6,2.1l-31.7,4.5s-4.4-.2-3.4,4.2c0,0-2.3,2.1,5.1,4.7l6.4,44.8S448.2,385.4,450.1,386.8Z"/>
      <path class="cls-1" d="M483.4,387.5l7.6-.6,3.5,2.1s1,2.3,3.8-1.5l5.6-17s.4-5.6-4.4-2.7l-8.3,7.7s-3.4,2.8-17.5,3.7l.6,9.4Z"/>
      <path class="cls-1" d="M524.6,361.8a32.7,32.7,0,0,0,13.5,4.1s17,2.7,22.7-7.5c0,0,5.5-9.6-15.1-11.8,0,0-22.1-.3-27-6.9,0,0-13.8-13,2.8-25.9,0,0,3.1-3.2,14.1-3.4,0,0,2,0,2.5-3.4,0,0,.4-3.2,4.9-.3l13.5,10.4s2.8,5.4-3,4.9l-12-3.8s-13.7-1.4-12.5,6.9c0,0-2,5.2,19,4.2,0,0,16.5,0,22.9,10,0,0,9.4,14.4.1,25.2,0,0-5.5,10.3-28.7,10.1,0,0-3,.4-2.8,3.2,0,0-.3,5.2-4.9,1.7l-12.5-12.2s-2.8-2.7-1.1-4.9C521.1,362.5,520.7,361.5,524.6,361.8Z"/>
      <path class="cls-1" d="M319.1,325.8s-25.4-2.2-33.4,29.6c0,0-7,34.4,24.4,36.6,0,0,30.4,7.6,35.2-30C345.3,362,348.1,331,319.1,325.8Zm9.2,35.8c-2.6,26-16.6,22-16.6,22-13-1.8-10.6-23.4-10.6-23.4,5.2-28,17.4-25,17.4-25C329.5,336.2,328.3,361.6,328.3,361.6Z"/>
      <path class="cls-1" d="M209.9,364s-6,.7-5.8,4c0,0-.9,4,4.2,4.7l15.2,3.8s4.7,1.4,4.9-3.5c0,0,.8-2.1-3.3-5.3,0,0,2.7-14.6,4.3-18.2,0,0-.2-3.2,11.3.2l7.2,1.8s3.1.3,1.2,5.8l-4,14.1s-.2,1.4-3.4,1.9c0,0-6.3,2.2-1.4,7.1l16.8,4.1s4.5,1,5.1-1.9c0,0,2.1-2-1.3-5.2,0,0-2.7-.6-.7-6.9l10.7-39.1a5.8,5.8,0,0,1,3.3-2.1,3.3,3.3,0,0,0,3.4-4s1.1-3.1-7-4.8l-10.3-2.5s-6.8-2.1-7.1,3.1c0,0-1.1,2.5,3.1,5.3,0,0,.9.9,0,3.4l-3,10.7s.2,2.8-4.8,1.4l-13.7-3.5s-2.9-.4-1.4-4.7l3.4-11.2a9.3,9.3,0,0,1,4.4-2s5-3.4-.3-7l-15.8-4.1s-5.8-1.6-6.1,2.5c0,0-2,3.3,2.8,5.6,0,0,.9.9-.2,5.4l-10.5,39S210.4,364,209.9,364Z"/>
      <path class="cls-1" d="M592.4,367.2a8.8,8.8,0,1,1,8.8-8.8A8.9,8.9,0,0,1,592.4,367.2Zm0-16.7a7.8,7.8,0,1,0,7.8,7.8A7.9,7.9,0,0,0,592.4,350.5Z"/>
      <path class="cls-1" d="M590.4,354.8h3.1c.6,0,1.6.1,1.6,1.5s-.9,1.6-1.8,1.6h-2.8Zm0,4.1h3c1.5,0,1.6.9,1.6,1.6a11.1,11.1,0,0,0,.2,2.3h1.5v-.2c-.4-.2-.4-.4-.5-.9v-1.6c-.1-1.3-.6-1.5-1.1-1.7a2.2,2.2,0,0,0,1.3-2.2c0-1.9-1.5-2.4-3-2.4h-4.2v9.1h1.2Z"/>
    </g>
  </g>
</svg>
