<svg xmlns="http://www.w3.org/2000/svg" viewBox="0 0 65.5 105.6">
  <defs>
    <style>
      .cls-1 {
        fill: #fff;
      }
    </style>
  </defs>
  <title>Asset 1</title>
  <g id="Layer_2" data-name="Layer 2">
    <g id="Layer_1-2" data-name="Layer 1">
      <g>
        <path class="cls-1" d="M41,27.2A13.8,13.8,0,1,0,17.9,37.3V31.5c0-.2,0-.5,0-.7a10,10,0,1,1,18.7,0c0,.2,0,.5,0,.7v5.8A13.7,13.7,0,0,0,41,27.2Z"/>
        <path class="cls-1" d="M17.9,48.8A23.5,23.5,0,1,1,42,45.6a9.7,9.7,0,0,1,3.4,2.1,27.2,27.2,0,1,0-27.5,5.2Z"/>
        <path class="cls-1" d="M65.5,65.3c0-3.4-2.2-5.8-5.4-5.8a5,5,0,0,0-4.3,2.3V59.9a5.9,5.9,0,0,0-6-6.2,5.8,5.8,0,0,0-5.2,3V55.1a6.1,6.1,0,0,0-6.1-6.3,6,6,0,0,0-5.7,3.9V31.5c0-3.7-2.5-6.7-5.7-6.7s-5.7,3-5.7,6.7V68.4c-.8-2.3-1.5-4.4-2.1-5.9-2-5.2-5.9-8.4-9.1-7.7-4.8,1-1.3,8.6.1,14.4S14.1,83,15,85.2a42.4,42.4,0,0,0,4.8,9.2c5.1,7.8,13,11.1,21.7,11.1,10.6,0,24-6.2,24-24.9h0c0-.1,0-.3,0-.4Z"/>
      </g>
    </g>
  </g>
</svg>
