<svg xmlns="http://www.w3.org/2000/svg" xmlns:xlink="http://www.w3.org/1999/xlink" width="298" height="135" viewBox="0 0 298 135">
  <defs>
    <clipPath id="clip-B3_20">
      <rect width="298" height="135"/>
    </clipPath>
  </defs>
  <g id="B3_20" data-name="B3 – 20" clip-path="url(#clip-B3_20)">
    <g id="Group_28" data-name="Group 28" transform="translate(-101.308 -320.704)">
      <path id="Path_96" data-name="Path 96" d="M101.308,421.91v-27.7h18.268c4.916,0,10.029.994,10.029,6.852a5.434,5.434,0,0,1-4.468,5.659c3.773.3,7.2,2.731,7.2,7.348,0,6.056-4.716,7.843-10.872,7.843Zm2.978-25.269v9.383h15.341c3.276,0,6.85-.546,6.85-4.766,0-4.318-3.773-4.617-6.9-4.617Zm0,11.816v11.021h17.177c3.773,0,7.745-.745,7.745-5.511,0-4.666-3.773-5.51-7.695-5.51Z" fill="#03356d"/>
      <path id="Path_97" data-name="Path 97" d="M163.514,396.989h2.879V410c0,9.134-6.305,12.41-14.148,12.41s-13.95-3.276-13.95-12.41V396.989h2.879V410c0,7.4,4.667,10.127,11.12,10.127s11.22-2.731,11.22-10.127Z" fill="#03356d"/>
      <path id="Path_98" data-name="Path 98" d="M196.182,421.91l-6.652-9.383H176.473v9.383h-2.879V396.989h16.234c5.659,0,9.134,3.177,9.134,7.695,0,4.17-2.383,6.8-6.4,7.6l6.851,9.631Zm-19.709-22.439V410.1H189.58c5.212,0,6.4-2.631,6.4-5.411,0-2.433-1.192-5.213-6.4-5.213Z" fill="#03356d"/>
      <path id="Path_99" data-name="Path 99" d="M208.645,401.953V421.91h-2.829V396.592l26.559,20.5V396.989h2.83v25.418Z" fill="#03356d"/>
      <path id="Path_100" data-name="Path 100" d="M254.767,421.91V399.421H242.058v-2.433h28.248v2.433H257.6V421.91Z" fill="#03356d"/>
      <path id="Path_101" data-name="Path 101" d="M293.491,410.343V421.91h-2.978v-27.7h17.921c5.759,0,9.929,2.829,9.929,8.042,0,5.163-4.17,8.092-9.929,8.092Zm0-13.652v11.17h14.5c4.319,0,7.149-1.787,7.149-5.61,0-3.872-2.83-5.56-7.149-5.56Z" fill="#03356d"/>
      <rect id="Rectangle_8" data-name="Rectangle 8" width="2.878" height="24.921" transform="translate(325.018 396.989)" fill="#03356d"/>
      <path id="Path_102" data-name="Path 102" d="M339.464,401.953V421.91h-2.829V396.592l26.559,20.5V396.989h2.83v25.418Z" fill="#03356d"/>
      <path id="Path_103" data-name="Path 103" d="M373.771,421.91V396.989h24.921v2.284H376.649v8.737h18.369v2.135H376.649v9.532h22.043v2.234Z" fill="#03356d"/>
      <path id="Path_104" data-name="Path 104" d="M162.128,455.41V439.5h15.914v1.369H163.867V446.4h11.864v1.4H163.867v6.217h14.174v1.4Z" fill="#03356d"/>
      <path id="Path_105" data-name="Path 105" d="M204.566,441.52a22.426,22.426,0,0,0-7.386-.969c-2.225,0-6.475.142-6.475,2.767,0,5.076,14.859.541,14.859,7.7,0,3.964-4.592,4.677-8.442,4.677a30.967,30.967,0,0,1-8.5-1.112l.057-1.426a28.322,28.322,0,0,0,8.5,1.169c3.051,0,6.787-.456,6.787-3.194,0-5.533-14.859-.856-14.859-7.672,0-3.878,4.906-4.25,8.014-4.25a22.824,22.824,0,0,1,7.5,1Z" fill="#03356d"/>
      <path id="Path_106" data-name="Path 106" d="M223.076,455.41V440.894h-8.1v-1.4h17.911v1.4h-8.1V455.41Z" fill="#03356d"/>
      <path id="Path_107" data-name="Path 107" d="M254.82,450.761H243.5l-3.023,4.649h-1.911l10.61-16.2,10.609,16.2h-1.939Zm-10.382-1.455h9.44l-4.705-7.244Z" fill="#03356d"/>
      <path id="Path_108" data-name="Path 108" d="M273.558,455.41V440.894h-8.1v-1.4h17.91v1.4h-8.1V455.41Z" fill="#03356d"/>
      <path id="Path_109" data-name="Path 109" d="M294.435,455.41V439.5H310.35v1.369H296.175V446.4h11.864v1.4H296.175v6.217H310.35v1.4Z" fill="#03356d"/>
      <path id="Path_110" data-name="Path 110" d="M336.874,441.52a22.429,22.429,0,0,0-7.387-.969c-2.225,0-6.473.142-6.473,2.767,0,5.076,14.858.541,14.858,7.7,0,3.964-4.592,4.677-8.441,4.677a30.969,30.969,0,0,1-8.5-1.112l.057-1.426a28.32,28.32,0,0,0,8.5,1.169c3.052,0,6.789-.456,6.789-3.194,0-5.533-14.86-.856-14.86-7.672,0-3.878,4.905-4.25,8.015-4.25a22.826,22.826,0,0,1,7.5,1Z" fill="#03356d"/>
      <path id="Path_111" data-name="Path 111" d="M258.038,322.315c.534.256,1.347.377,1.547.793a2.964,2.964,0,0,1-.3,3.515c-.686-.865-1.32-1.661-1.952-2.459q.355-.926.709-1.849" fill="#03356d"/>
      <path id="Path_112" data-name="Path 112" d="M258.144,371.213a5.809,5.809,0,0,0,2.6.7,37.624,37.624,0,0,0,5.7-1.563c1.778-.609,2.307-1.559,1.746-3.079A2.392,2.392,0,0,0,266.815,366a22.4,22.4,0,0,0-3.984-.775,3.114,3.114,0,0,0-2.021.315c-1.488,1.107-2.836,2.4-4.514,3.861a5.919,5.919,0,0,0,.705,1.049,3.338,3.338,0,0,0,1.143.766" fill="#03356d"/>
      <path id="Path_113" data-name="Path 113" d="M267.626,356.157c-.135-.278-1.018-.233-1.562-.258a10.463,10.463,0,0,1-1.531.063,3.875,3.875,0,0,0-3.52.982A7.775,7.775,0,0,1,256.621,359c-.487.052-1.248.412-1.32.752a1.848,1.848,0,0,0,.673,1.428,6.129,6.129,0,0,0,1.859.9c.478.174,1.08.087,1.495.336,1.636.98,3.043.412,4.45-.487,1.443-.921,2.9-1.821,4.6-2.887a14.489,14.489,0,0,0-.753-2.885" fill="#03356d"/>
      <path id="Path_114" data-name="Path 114" d="M255.33,357.957a9.856,9.856,0,0,0,6.516-4.328,1.136,1.136,0,0,0-.6-1.916c-2.044-.782-4.079-1.78-6.3-.44a1.864,1.864,0,0,1-1.239.034,1.9,1.9,0,0,0-2.128.481c-.449.461-1.463.37-2.51.585a6.454,6.454,0,0,0,.693,1.759,16.891,16.891,0,0,0,2.861,3.083,3.9,3.9,0,0,0,2.7.742" fill="#03356d"/>
      <path id="Path_115" data-name="Path 115" d="M267.986,344.287c.713-.864.333-1.67-.189-2.45-.375-.56-.756-1.115-1.282-1.89-4.444,1.82-7.475,5.372-10.754,9.275.8.068,1.192.088,1.58.137a27.906,27.906,0,0,0,3.592.439c.975,0,2.25-.034,2.865-.614a51.152,51.152,0,0,0,4.188-4.9" fill="#03356d"/>
      <path id="Path_116" data-name="Path 116" d="M256.548,342.111a4.214,4.214,0,0,1-1.6-1.384,3.618,3.618,0,0,0-5.693-.578A28.43,28.43,0,0,0,246.5,344.2a1.6,1.6,0,0,0,.181,1.481,45.6,45.6,0,0,0,4.153,4.164,2,2,0,0,0,1.892-.007c1.46-1.044,2.779-2.284,4.137-3.467a5.1,5.1,0,0,0,.589-.671c1.093-1.788.76-2.74-.906-3.585" fill="#03356d"/>
      <path id="Path_117" data-name="Path 117" d="M275.6,357.6a7.992,7.992,0,0,0-5.295,1.505c-1.578,1.238-3.318,2.268-4.979,3.4-.981.669-.7,1.161.224,1.594,2.553,1.2,5.091,1.622,7.662.029a2.683,2.683,0,0,1,1.329-.429,3.177,3.177,0,0,0,3.024-1.933c1.865-3.127,1.345-4.136-1.965-4.167" fill="#03356d"/>
      <path id="Path_118" data-name="Path 118" d="M247.738,331.246c-.659,1.313.89,5.6,2.334,6.452,1.159.687,5.236-1.2,6.071-2.815.589-1.137-.527-4.357-1.733-5-3.071-1.644-5.4-1.167-6.672,1.366" fill="#03356d"/>
      <path id="Path_119" data-name="Path 119" d="M237.5,340.988c-.1-.043-.667.52-.673.808-.085,4.2.681,7.23,5.136,8.016,1.8.317,3.569.766,5.37,1.042.486.075,1.31-.105,1.5-.438.433-.77-.17-1.271-.874-1.6-.337-.16-5.329-4.392-7.516-6.284a11.46,11.46,0,0,0-2.941-1.539" fill="#03356d"/>
      <path id="Path_120" data-name="Path 120" d="M265.719,334.51c-1.506-.283-2.9-.866-4.187-.694a10.784,10.784,0,0,0-3.719,1.716,23.1,23.1,0,0,0-2.121,1.757c-.9.686-1.048,1.423-.2,2.21.577.538,1.237.986,1.86,1.474.437.342,1.019.6,1.278,1.044a1,1,0,0,0,1.65.331,14.3,14.3,0,0,0,5.442-7.838" fill="#03356d"/>
      <path id="Path_121" data-name="Path 121" d="M248.771,367.025c3.512,1.7,6.459,1.482,9.228-.283.631-.4.9-1.378,1.315-2.1.055-.1.024-.353-.047-.393-4.876-3.366-8.544-.58-10.988-1.081-1.165-.238-1.457.474-.961,1.434s1.12,1.876,1.453,2.426" fill="#03356d"/>
      <path id="Path_122" data-name="Path 122" d="M245.176,344.315a36.8,36.8,0,0,0,2.118-3.51c.62-1.327.06-2.419-1.033-3.345-.839-.71-1.549-1.571-2.325-2.356a9.5,9.5,0,0,0-1.516-1.449A1.64,1.64,0,0,0,239.8,334.9a9.3,9.3,0,0,0,5.373,9.414" fill="#03356d"/>
      <path id="Path_123" data-name="Path 123" d="M250.757,374.272a3.328,3.328,0,0,0,1.85,3.325,9.71,9.71,0,0,0,7.909.654c2.272-.762,2.881-3.044,1.106-5.243a1.048,1.048,0,0,0-.944-.122c-2.32.925-4.577,1.813-7.192.893-.769-.27-1.836.311-2.729.493" fill="#03356d"/>
      <path id="Path_124" data-name="Path 124" d="M263.419,354.02a4.9,4.9,0,0,0,5.386-.485,10.133,10.133,0,0,0,4.087-5.386,2.853,2.853,0,0,0,.056-1.651,6.838,6.838,0,0,0-1.107-1.558c-.38.345-.758.692-1.138,1.036-.313.283-.6.743-.95.812-2.254.438-3.264,2.559-4.985,3.725-.844.572-.917,2.285-1.349,3.507" fill="#03356d"/>
      <path id="Path_125" data-name="Path 125" d="M239.1,350.9c-.081,4.854,3.62,7.713,8.073,6.278a26.362,26.362,0,0,0,2.515-1.1c-.62-.578-1.446-1.046-1.822-1.754-1.3-2.457-3.316-3.133-5.933-2.891a10.673,10.673,0,0,1-2.833-.531" fill="#03356d"/>
      <path id="Path_126" data-name="Path 126" d="M272.884,372.869a8.207,8.207,0,0,0,.126-2.611c-.333-1.383-1.392-1.837-2.442-.927-1.916,1.661-4.3,1.59-6.483,2.287a2.6,2.6,0,0,0-1.14.847c-.069.086.392.612.626.924.109.147.3.244.377.4.7,1.338,1.61,2.3,3.288,2.168a7.846,7.846,0,0,0,5.648-3.089" fill="#03356d"/>
      <path id="Path_127" data-name="Path 127" d="M239.755,358.041c.01.34-.056.587.033.751a7.1,7.1,0,0,0,7.627,3.518c1.678-.315,3.5-.106,4.9-1.465.919-.89.966-1.273-.074-2.084a5.42,5.42,0,0,0-5.717-.1,2.469,2.469,0,0,1-2.353.292c-1.371-.39-2.8-.591-4.414-.916" fill="#03356d"/>
      <path id="Path_128" data-name="Path 128" d="M243.508,367.991c-.323.338,2.051,4.48,3.751,4.954,3.244.9,9.741-1.907,8.227-3.145s-11.655-2.148-11.978-1.809" fill="#03356d"/>
      <path id="Path_129" data-name="Path 129" d="M262.339,326.993a5.263,5.263,0,0,0-.52-.254c-1-.332-3.628,1.161-3.85,2.189-.275,1.275-.576,2.546-.783,3.832-.049.3.23.66.359.992a3.932,3.932,0,0,0,.926-.455c1.886-1.648,1.985-1.616,4.376-.41a2.566,2.566,0,0,0,1.973-.01c.311-.142.4-1.033.385-1.58-.06-2.081-1.865-3.006-2.866-4.3" fill="#03356d"/>
      <path id="Path_130" data-name="Path 130" d="M230.952,349.984c.327,2.664.8,4.969,2.983,6.453a4.019,4.019,0,0,0,4.717-.446c.6-.531.594-.954-.065-1.3a4.717,4.717,0,0,1-2.291-3.051c-.413-1.319-1.29-1.607-2.741-1.24a3.219,3.219,0,0,1-1.2-.114c-.361-.057-.716-.152-1.4-.3" fill="#03356d"/>
      <path id="Path_131" data-name="Path 131" d="M247.537,366.369c.129-.143-.192-.613-.33-.761a4.027,4.027,0,0,0-.6-.363,53.7,53.7,0,0,0-4.935-2.8,6.506,6.506,0,0,0-1.565-.491c-.969-.2-1.951-.344-3.212-.561.3.7.538,1.352.848,1.97,2.147,4.29,2.736,4.536,7.385,3.306.71-.188,2.131.048,2.41-.3" fill="#03356d"/>
      <path id="Path_132" data-name="Path 132" d="M240.011,372.878c-.805,4.7,2.28,6.052,6.1,5.815a13.735,13.735,0,0,0,2.938-.931c1.188-.361,1.3-1.276,1.058-2.232-.27-1.082-1.182-.6-1.871-.58a23.835,23.835,0,0,1-4.132.069,9.945,9.945,0,0,1-2.8-1.352c-.391-.2-.756-.459-1.295-.789" fill="#03356d"/>
      <path id="Path_133" data-name="Path 133" d="M238.1,350.09a13.908,13.908,0,0,0-1.589-2.548,5.432,5.432,0,0,1-1.65-3.6,2.283,2.283,0,0,0-1.438-2.346c-.6-.205-1.5-.658-1.764-.427a3.138,3.138,0,0,0-1,2.023c-.122,3.809.708,4.766,4.385,5.851a11.312,11.312,0,0,1,2.465,1.472l.592-.421" fill="#03356d"/>
      <path id="Path_134" data-name="Path 134" d="M276.772,352.325c.161-.487.5-1,.435-1.453a5.1,5.1,0,0,0-.773-1.519c-.416.294-.855.56-1.243.888a22.315,22.315,0,0,1-1.818,1.621c-1.588,1.065-3.8,1.418-4.279,3.7a2.561,2.561,0,0,0,.276,1.859,1.429,1.429,0,0,0,2.117.194c2.072-1.456,4.25-2.792,5.285-5.294" fill="#03356d"/>
      <path id="Path_135" data-name="Path 135" d="M238.028,364.919c-.451-.368-.9-.679-1.281-1.059-.7-.7-1.368-1.439-2.038-2.173-.154-.169-.214-.469-.394-.564-1.372-.726-2.763-1.417-4.14-2.115-.454,2.356.522,5.469,2.025,6.4,1.951,1.212,3.719,1.092,5.828-.492" fill="#03356d"/>
      <path id="Path_136" data-name="Path 136" d="M244.016,370.448c-3.609-.644-6.241-3.586-10.081-3.417,1.324,4.982,6.4,6.675,10.081,3.417" fill="#03356d"/>
      <path id="Path_137" data-name="Path 137" d="M246.666,336.2c.236-2.275.538-4.037-.66-5.7a27.932,27.932,0,0,1-1.342-2.634c-.59-1.042-1.317-1.109-1.686-.051a25.258,25.258,0,0,0-.775,4.089.5.5,0,0,0,.116.394c1.335,1.214,2.682,2.415,4.347,3.907" fill="#03356d"/>
      <path id="Path_138" data-name="Path 138" d="M268.6,345.75c2.64-.9,3.565-3.179,4.535-5.307.269-.591-.2-1.65-.583-2.349a1.538,1.538,0,0,0-1.47-.395,32.624,32.624,0,0,0-3.068,2.4c1.575,1.88,2.076,3.643.586,5.652" fill="#03356d"/>
      <path id="Path_139" data-name="Path 139" d="M246.587,329.649c1.5-.632,2.679-1.117,3.846-1.624.2-.087.544-.323.521-.391-.425-1.283-.611-2.823-1.468-3.713-.468-.487-2.208-.112-3.132.354-.459.233-.552,1.564-.484,2.371a18.015,18.015,0,0,0,.717,3" fill="#03356d"/>
      <path id="Path_140" data-name="Path 140" d="M257.105,327.94a1.546,1.546,0,0,0-.086-2.451c-.24-.23-.189-.837-.436-.971a2.638,2.638,0,0,0-1.7-.461,4.261,4.261,0,0,0-1.813,1.256,4.216,4.216,0,0,0-1.107,1.958c-.055.317.763.828,1.238,1.178a4.351,4.351,0,0,0,1.139.533c1.206.423,2.233.313,2.761-1.042" fill="#03356d"/>
      <path id="Path_141" data-name="Path 141" d="M265.947,337.111a14.014,14.014,0,0,0-1.332,1.4,1.34,1.34,0,0,0-.081.888.756.756,0,0,0,.616.1c1.4-.95,3.253-1.113,4.284-2.757a4.726,4.726,0,0,0,.419-3.906c-.061-.249-.761-.568-1.07-.487a2.721,2.721,0,0,0-2.217,2.254c-.158.91-.441,1.8-.619,2.5" fill="#03356d"/>
      <path id="Path_142" data-name="Path 142" d="M240.169,340.731c-1.613-1.823-.451-4.393-2.2-6a11.987,11.987,0,0,0-1.874-1.185c-.384.951-1.176,1.949-1.074,2.844.261,2.3,2.367,3.979,5.148,4.345" fill="#03356d"/>
      <path id="Path_143" data-name="Path 143" d="M228.408,351.081c-1.313,3.279.176,8.163,4.512,7-.695-1.224-1.331-2.462-2.081-3.627-.741-1.15-1.6-2.225-2.431-3.372" fill="#03356d"/>
      <path id="Path_144" data-name="Path 144" d="M277.215,366.128a2.12,2.12,0,0,0,.085-.974c-.052-.161-.642-.138-.985-.212-2.2-.479-3.884,1.161-5.9,1.475-.259.04-.541.715-.576,1.116-.018.224.5.74.691.7,2.081-.445,4.146-.966,6.209-1.493.142-.037.23-.285.476-.611" fill="#03356d"/>
      <path id="Path_145" data-name="Path 145" d="M239.522,375.583a5.65,5.65,0,0,0-1.119-1.556c-1.177-.8-2.477-1.408-3.705-2.133-.641-.378-1.222-.51-1.312.418a3.261,3.261,0,0,0,1.575,3.1c1.111.775,2.228,1.441,3.634.779a10.828,10.828,0,0,0,.927-.606" fill="#03356d"/>
      <path id="Path_146" data-name="Path 146" d="M265.938,376.808a1.775,1.775,0,0,0-2.464.173,8.129,8.129,0,0,0-1.674,2.293c-.063.11.636.937.881.892a11.057,11.057,0,0,0,3.526-1.033c1.276-.744,1.13-1.486-.269-2.325" fill="#03356d"/>
      <path id="Path_147" data-name="Path 147" d="M254.137,379.692c-2.594-1.686-5.117-2.108-6.988.32,1.224,1.119,5.53.922,6.988-.32" fill="#03356d"/>
      <path id="Path_148" data-name="Path 148" d="M228.182,366.3c.907,2,1.118,3.984,3.173,4.6a3.466,3.466,0,0,0,3.583-.45l-6.756-4.151" fill="#03356d"/>
      <path id="Path_149" data-name="Path 149" d="M251.513,325.506c1.17-1.258,1.971-2.094,2.737-2.961a1.567,1.567,0,0,0,.28-.692,7.4,7.4,0,0,0-2.408-1.138,1.281,1.281,0,0,0-1.444,1.621c.18,1,.513,1.976.835,3.17" fill="#03356d"/>
      <path id="Path_150" data-name="Path 150" d="M239.743,360.43c-1.5-1.856-4.168-2.925-5.612-2.3a4.058,4.058,0,0,0,5.612,2.3" fill="#03356d"/>
      <path id="Path_151" data-name="Path 151" d="M227.106,361.355c.227,3.385.811,4.233,3.344,4.855.218-1.985-1.7-4.769-3.344-4.855" fill="#03356d"/>
      <path id="Path_152" data-name="Path 152" d="M260.67,379.686c-1.825.335-3.6-.594-5.386.167,1.51,2.128,4.219,2.031,5.386-.167" fill="#03356d"/>
      <path id="Path_153" data-name="Path 153" d="M241.7,379.128c-1.376-1.448-3.666-2.164-4.829-1.549a3.392,3.392,0,0,0,4.829,1.549" fill="#03356d"/>
      <path id="Path_154" data-name="Path 154" d="M264.977,381.76s10.286,2.236,24.35-6.136c13.814-8.224,10.757-8.161,10.757-8.161s-9.108,7.18-18.223,10.907c-8.658,3.539-16.3,2.417-16.884,3.39" fill="#03356d"/>
      <path id="Path_155" data-name="Path 155" d="M265.2,381.833s9.682,1.059,22.312-8.889c11.314-8.911,11.053-9.833,10.7-9.8s-10.436,9.424-19.1,14.113c-7.329,3.969-14.949,3.3-13.918,4.571" fill="#03356d"/>
      <path id="Path_156" data-name="Path 156" d="M295.678,359.083s-3.741,9.766-17.965,17.26-12.869,5.082-12.869,5.082,11.167-4.195,19.129-9.99c7.563-5.5,10.436-12.7,11.705-12.352" fill="#03356d"/>
      <path id="Path_157" data-name="Path 157" d="M265.084,381.773s8.444-.16,18.2-10.112c8.744-8.915,8.417-9.679,8.119-9.607s-7.933,9.258-14.86,14.249c-5.865,4.224-12.492,4.487-11.464,5.47" fill="#03356d"/>
      <path id="Path_158" data-name="Path 158" d="M296.013,368.1s-4.972,7.583-18.406,11.307-11.841,1.93-11.841,1.93,10.235-1.493,18.05-4.932c7.424-3.268,11.186-8.839,12.2-8.3" fill="#03356d"/>
      <path id="Path_159" data-name="Path 159" d="M235.022,379.518s-10.285,2.237-24.348-6.135c-13.815-8.225-10.759-8.162-10.759-8.162s9.109,7.18,18.224,10.907c8.659,3.54,16.3,2.418,16.883,3.39" fill="#03356d"/>
      <path id="Path_160" data-name="Path 160" d="M234.8,379.591s-9.683,1.059-22.313-8.888c-11.313-8.912-11.052-9.834-10.7-9.8s10.436,9.423,19.094,14.113c7.331,3.969,14.949,3.3,13.919,4.57" fill="#03356d"/>
      <path id="Path_161" data-name="Path 161" d="M204.322,356.841s3.741,9.766,17.965,17.26,12.869,5.082,12.869,5.082-11.167-4.2-19.129-9.989c-7.563-5.5-10.436-12.7-11.7-12.353" fill="#03356d"/>
      <path id="Path_162" data-name="Path 162" d="M203.349,364.837s4.639,7.86,18.251,11.871c13.372,3.94,11.531,2.033,11.531,2.033s-9.935-1.562-17.676-5.163c-7.354-3.421-11.143-8.941-12.106-8.741" fill="#03356d"/>
      <path id="Path_163" data-name="Path 163" d="M208.933,356.975s2.045,8.563,14.355,16.286c11.026,6.917,11.732,6.414,11.592,6.127s-11.2-6.015-17.822-11.958c-5.608-5.031-7.352-11.72-8.125-10.455" fill="#03356d"/>
    </g>
  </g>
</svg>
