<?xml version="1.0" encoding="utf-8"?>
<!-- Generator: Adobe Illustrator 24.0.3, SVG Export Plug-In . SVG Version: 6.00 Build 0)  -->
<svg version="1.1" id="Layer_1" xmlns="http://www.w3.org/2000/svg" xmlns:xlink="http://www.w3.org/1999/xlink" x="0px" y="0px"
	 viewBox="0 0 500 165.2" style="enable-background:new 0 0 500 165.2;" xml:space="preserve">
<style type="text/css">
	.st0{clip-path:url(#SVGID_2_);}
	.st1{fill:#231F20;}
	.st2{clip-path:url(#SVGID_4_);}
	.st3{fill:#C31230;}
	.st4{fill:#706F73;}
	.st5{fill:#FFFFFF;}
	.st6{fill:none;stroke:#7A9EC2;stroke-width:0.5;}
</style>
<title>B3</title>
<g>
	<defs>
		<rect id="SVGID_1_" x="242.3" y="23.2" width="257.7" height="117.2"/>
	</defs>
	<clipPath id="SVGID_2_">
		<use xlink:href="#SVGID_1_"  style="overflow:visible;"/>
	</clipPath>
	<g class="st0">
		<path class="st1" d="M263.4,66.7c0.2,0,0.3,0,0.5,0.1c0.2,0.1,0.3,0.2,0.5,0.3l2.7,2.8c-1.1,1.5-2.7,2.7-4.4,3.4
			c-2,0.8-4.1,1.2-6.2,1.2c-2,0-4-0.4-5.9-1.1c-1.7-0.7-3.2-1.8-4.4-3.1c-1.2-1.4-2.2-2.9-2.8-4.7c-0.7-1.9-1-3.9-1-5.9
			c0-2,0.4-4.1,1.1-5.9c1.4-3.6,4.3-6.4,7.9-7.7c2-0.7,4.1-1.1,6.2-1.1c1,0,2.1,0.1,3.1,0.3c0.9,0.2,1.8,0.5,2.7,0.8
			c0.8,0.3,1.6,0.7,2.3,1.2c0.7,0.4,1.3,1,1.9,1.5l-2.3,3c-0.1,0.2-0.3,0.4-0.5,0.5c-0.2,0.2-0.5,0.2-0.8,0.2
			c-0.2,0-0.5-0.1-0.7-0.2c-0.2-0.1-0.5-0.2-0.7-0.4l-0.8-0.5c-0.3-0.2-0.7-0.4-1-0.5c-0.4-0.2-0.9-0.3-1.4-0.4
			c-0.6-0.1-1.2-0.2-1.8-0.2c-1.1,0-2.3,0.2-3.3,0.6c-1,0.4-1.9,1.1-2.6,1.9c-0.7,0.8-1.3,1.8-1.7,2.9c-0.4,1.2-0.6,2.5-0.6,3.8
			c0,1.3,0.2,2.7,0.6,3.9c0.4,1.1,0.9,2.1,1.6,2.9c0.7,0.8,1.5,1.4,2.4,1.8c0.9,0.4,2,0.6,3,0.6c0.6,0,1.1,0,1.7-0.1
			c0.5-0.1,0.9-0.2,1.4-0.3c0.4-0.1,0.8-0.3,1.2-0.6c0.4-0.2,0.8-0.5,1.2-0.9c0.2-0.1,0.3-0.2,0.5-0.3
			C263.1,66.8,263.3,66.7,263.4,66.7"/>
		<path class="st1" d="M278.6,63.5v10.7h-6.7V45.3h9.4c1.8,0,3.6,0.2,5.3,0.7c1.3,0.3,2.5,1,3.6,1.8c0.9,0.7,1.6,1.7,2,2.7
			c0.4,1.1,0.7,2.2,0.6,3.4c0,0.9-0.1,1.8-0.4,2.7c-0.2,0.8-0.6,1.6-1.1,2.3c-0.5,0.7-1.1,1.4-1.8,1.9c-0.8,0.6-1.6,1-2.5,1.4
			c0.5,0.2,0.9,0.5,1.3,0.8c0.4,0.3,0.7,0.8,1,1.2l6.1,10h-6.1c-1,0.1-1.9-0.4-2.4-1.2l-4.8-8.4c-0.2-0.3-0.4-0.6-0.7-0.8
			c-0.4-0.2-0.8-0.3-1.2-0.2H278.6z M278.6,58.9h2.7c0.8,0,1.6-0.1,2.3-0.3c0.6-0.2,1.1-0.6,1.6-1c0.4-0.4,0.7-0.9,0.9-1.4
			c0.2-0.6,0.3-1.2,0.3-1.8c0.1-1.1-0.4-2.2-1.2-3c-1.1-0.8-2.5-1.2-3.8-1.1h-2.7V58.9z"/>
		<path class="st1" d="M327.8,74.2h-5.2c-0.5,0-1-0.1-1.4-0.4c-0.4-0.2-0.6-0.6-0.8-1l-1.7-5h-11l-1.7,5c-0.3,0.9-1.2,1.5-2.2,1.4
			h-5.2l11.2-28.9h6.9L327.8,74.2z M309.2,63.2h7.9l-2.7-7.9c-0.2-0.5-0.4-1.1-0.6-1.8s-0.5-1.4-0.7-2.2c-0.2,0.8-0.4,1.6-0.6,2.2
			s-0.4,1.3-0.6,1.8L309.2,63.2z"/>
		<polygon class="st1" points="349.7,45.3 349.7,50.5 337.9,50.5 337.9,57.8 347.7,57.8 347.7,63 337.9,63 337.9,74.2 331.1,74.2 
			331.1,45.3 		"/>
		<polygon class="st1" points="376,45.3 376,50.6 367.9,50.6 367.9,74.2 361.2,74.2 361.2,50.6 353,50.6 353,45.3 		"/>
		<path class="st1" d="M394.6,62.5c0.2,0.5,0.5,1.1,0.7,1.7c0.2-0.6,0.5-1.2,0.7-1.7s0.5-1.1,0.8-1.6l7.4-14.6
			c0.1-0.2,0.2-0.4,0.4-0.6c0.1-0.1,0.3-0.2,0.5-0.3c0.2-0.1,0.4-0.1,0.6-0.1h5.9v28.9h-5.9V57.6c0-0.8,0-1.7,0.1-2.6l-7.6,14.9
			c-0.4,0.9-1.4,1.4-2.3,1.4h-0.9c-0.5,0-1-0.1-1.4-0.4c-0.4-0.2-0.8-0.6-1-1L384.7,55c0,0.5,0.1,0.9,0.1,1.4s0,0.9,0,1.3v16.6H379
			V45.3h5.9c0.2,0,0.4,0,0.6,0.1c0.2,0.1,0.3,0.2,0.5,0.3c0.2,0.2,0.3,0.4,0.4,0.6l7.5,14.7C394.1,61.5,394.3,62,394.6,62.5"/>
		<path class="st1" d="M443.4,74.2h-5.2c-0.5,0-1-0.1-1.4-0.4c-0.4-0.2-0.6-0.6-0.8-1l-1.7-5h-11l-1.7,5c-0.2,0.4-0.4,0.7-0.8,1
			c-0.4,0.3-0.9,0.5-1.4,0.4h-5.2l11.2-28.9h6.9L443.4,74.2z M424.8,63.2h7.9l-2.7-7.9l-0.6-1.8c-0.2-0.7-0.5-1.4-0.7-2.2
			c-0.2,0.8-0.4,1.6-0.7,2.2s-0.4,1.3-0.6,1.8L424.8,63.2z"/>
		<path class="st1" d="M453.5,63.5v10.7h-6.7V45.3h9.4c1.8,0,3.6,0.2,5.3,0.7c1.3,0.4,2.5,1,3.6,1.8c0.9,0.7,1.6,1.7,2,2.7
			c0.4,1.1,0.6,2.2,0.6,3.4c0,0.9-0.1,1.8-0.4,2.7c-0.3,0.8-0.6,1.6-1.1,2.3c-0.5,0.7-1.1,1.4-1.8,1.9c-0.7,0.6-1.5,1-2.4,1.4
			c0.4,0.2,0.9,0.5,1.2,0.8c0.4,0.3,0.7,0.8,1,1.2l6.1,10h-6.1c-1,0.1-1.9-0.4-2.4-1.3l-4.8-8.4c-0.2-0.3-0.4-0.6-0.8-0.8
			c-0.4-0.2-0.8-0.3-1.2-0.2L453.5,63.5z M453.5,58.9h2.7c0.8,0,1.6-0.1,2.3-0.3c0.6-0.2,1.1-0.6,1.6-1c0.4-0.4,0.7-0.9,0.9-1.4
			c0.2-0.6,0.3-1.2,0.3-1.8c0.1-1.1-0.4-2.2-1.2-3c-1.1-0.8-2.5-1.2-3.8-1.1h-2.7V58.9z"/>
		<path class="st1" d="M480.9,57h1.1c0.8,0.1,1.6-0.3,2.1-0.9l6.5-9.4c0.3-0.5,0.7-0.8,1.2-1c0.5-0.2,1.1-0.3,1.7-0.3h5.8L490.7,57
			c-0.3,0.4-0.6,0.7-1,1c-0.3,0.3-0.6,0.5-1,0.7c0.5,0.2,1,0.4,1.4,0.8c0.5,0.4,0.8,0.8,1.1,1.3l8.8,13.4h-6c-0.3,0-0.7,0-1-0.1
			c-0.2,0-0.5-0.1-0.7-0.2c-0.2-0.1-0.4-0.2-0.5-0.4c-0.2-0.2-0.3-0.3-0.4-0.5l-6.5-10c-0.2-0.4-0.5-0.6-0.9-0.8
			c-0.5-0.2-1-0.2-1.5-0.2h-1.6v12.2h-6.7V45.3h6.7L480.9,57z"/>
		<polygon class="st1" points="324.2,120 317.4,120 317.4,107.8 305.7,107.8 305.7,120 299,120 299,91.1 305.7,91.1 305.7,103.2 
			317.4,103.2 317.4,91.1 324.2,91.1 		"/>
		<path class="st1" d="M358.5,105.6c0,2-0.3,4-1.1,5.8c-0.7,1.7-1.7,3.3-3,4.7c-1.3,1.4-3,2.4-4.7,3.1c-4,1.5-8.3,1.5-12.3,0
			c-1.8-0.7-3.4-1.8-4.8-3.1c-1.3-1.3-2.4-2.9-3-4.7c-1.4-3.7-1.4-7.9,0-11.7c0.7-1.8,1.7-3.3,3-4.7c1.4-1.4,3-2.4,4.8-3.1
			c2-0.8,4-1.2,6.1-1.1c2.1,0,4.2,0.4,6.1,1.2c1.8,0.7,3.4,1.8,4.7,3.1c1.3,1.3,2.3,2.9,3,4.7C358.1,101.6,358.5,103.6,358.5,105.6
			 M351.6,105.6c0-1.3-0.2-2.6-0.5-3.9c-0.3-1.1-0.9-2.1-1.6-2.9c-0.7-0.8-1.5-1.4-2.5-1.8c-1.1-0.4-2.3-0.7-3.4-0.6
			c-1.2,0-2.4,0.2-3.5,0.6c-1,0.4-1.9,1-2.6,1.8c-0.7,0.9-1.3,1.8-1.6,2.9c-0.7,2.5-0.7,5.2,0,7.7c0.3,1.1,0.9,2.1,1.6,2.9
			c0.7,0.8,1.6,1.4,2.6,1.8c1.1,0.4,2.3,0.7,3.5,0.6c1.2,0,2.3-0.2,3.4-0.6c1-0.4,1.9-1,2.5-1.8c0.7-0.8,1.3-1.8,1.6-2.9
			C351.4,108.2,351.6,106.9,351.6,105.6"/>
		<path class="st1" d="M378.3,108.4c0.2,0.5,0.5,1.1,0.7,1.7c0.2-0.6,0.5-1.1,0.7-1.7s0.5-1.1,0.8-1.6l7.4-14.6
			c0.1-0.2,0.2-0.4,0.4-0.6c0.1-0.1,0.3-0.2,0.5-0.3c0.2-0.1,0.4-0.1,0.6-0.1h5.9V120h-5.9v-16.6c0-0.8,0-1.7,0.1-2.6l-7.6,14.8
			c-0.2,0.4-0.6,0.8-1,1.1c-0.4,0.2-0.9,0.4-1.4,0.4h-0.9c-0.5,0-1-0.1-1.4-0.4c-0.4-0.2-0.8-0.6-1-1.1l-7.7-14.9
			c0,0.5,0.1,0.9,0.1,1.4s0,0.9,0,1.2V120h-5.9V91.1h5.9c0.2,0,0.4,0,0.6,0.1c0.2,0.1,0.3,0.2,0.5,0.3c0.2,0.2,0.3,0.4,0.4,0.6
			l7.4,14.7c0.3,0.5,0.5,1,0.8,1.6"/>
		<polygon class="st1" points="419.6,91.1 419.6,96.3 407.7,96.3 407.7,103 416.8,103 416.8,108 407.7,108 407.7,114.9 419.6,114.9 
			419.6,120 401,120 401,91.1 		"/>
		<path class="st1" d="M441.3,97c-0.2,0.3-0.4,0.5-0.6,0.7c-0.3,0.2-0.5,0.2-0.8,0.2c-0.4,0-0.7-0.1-1-0.3l-1.2-0.7
			c-0.5-0.3-1-0.5-1.5-0.6c-0.6-0.2-1.3-0.3-1.9-0.3c-1-0.1-2,0.2-2.8,0.8c-0.6,0.5-1,1.3-0.9,2.2c0,0.5,0.2,1.1,0.5,1.4
			c0.4,0.4,0.9,0.8,1.5,1c0.7,0.3,1.4,0.6,2.1,0.8c0.8,0.2,1.6,0.5,2.4,0.8c0.8,0.3,1.6,0.6,2.4,1c0.8,0.4,1.5,0.9,2.1,1.5
			c0.6,0.6,1.1,1.4,1.5,2.2c0.4,1,0.6,2,0.6,3.1c0,1.3-0.2,2.6-0.7,3.8c-0.4,1.1-1.1,2.2-2,3c-0.9,0.9-2,1.6-3.2,2
			c-1.4,0.5-2.9,0.8-4.4,0.7c-0.9,0-1.8-0.1-2.8-0.3c-0.9-0.2-1.8-0.4-2.7-0.8c-0.9-0.3-1.7-0.7-2.5-1.2c-0.7-0.4-1.4-1-2-1.6l2-3.1
			c0.1-0.2,0.4-0.4,0.6-0.6c0.3-0.1,0.6-0.2,0.9-0.2c0.4,0,0.8,0.1,1.2,0.4l1.4,0.8c0.6,0.3,1.1,0.6,1.8,0.8
			c0.7,0.3,1.5,0.4,2.3,0.4c1,0.1,2-0.2,2.8-0.8c0.7-0.6,1.1-1.6,1-2.6c0-0.6-0.2-1.2-0.5-1.6c-0.4-0.4-0.9-0.8-1.5-1
			c-0.7-0.3-1.3-0.6-2-0.7c-0.8-0.2-1.5-0.4-2.4-0.7c-0.8-0.3-1.6-0.6-2.4-1c-0.8-0.4-1.5-0.9-2-1.5c-0.6-0.7-1.1-1.4-1.5-2.3
			c-0.4-1.1-0.6-2.2-0.6-3.4c0-1.1,0.2-2.2,0.7-3.2c0.4-1,1.1-2,1.9-2.8c0.9-0.8,2-1.5,3.1-1.9c1.3-0.5,2.8-0.8,4.2-0.7
			c0.9,0,1.7,0.1,2.6,0.2c1.6,0.3,3.1,0.8,4.5,1.6c0.6,0.4,1.2,0.8,1.8,1.4L441.3,97z"/>
		<rect x="242.3" y="23.2" class="st1" width="257.7" height="2.2"/>
		<rect x="242.3" y="138.1" class="st1" width="257.7" height="2.2"/>
		<path class="st1" d="M447.5,92.4c0-1.4,0.4-2.8,1.1-4c0.3-0.6,0.8-1.1,1.2-1.6c0.5-0.5,1-0.9,1.6-1.2c0.6-0.4,1.2-0.6,1.9-0.8
			c0.7-0.2,1.4-0.3,2.1-0.3c0.7,0,1.4,0.1,2.1,0.3c0.7,0.2,1.3,0.5,1.9,0.8c1.2,0.7,2.2,1.7,2.9,2.9c0.3,0.6,0.6,1.2,0.8,1.9
			c0.4,1.4,0.4,2.9,0,4.2c-0.2,0.7-0.5,1.3-0.8,1.9c-0.4,0.6-0.8,1.1-1.3,1.6c-0.5,0.5-1,0.9-1.6,1.2c-0.6,0.4-1.2,0.6-1.9,0.8
			c-0.7,0.2-1.4,0.3-2.1,0.3c-0.7,0-1.4-0.1-2.1-0.3c-0.7-0.2-1.3-0.5-1.9-0.8c-0.6-0.4-1.1-0.8-1.6-1.2c-0.5-0.5-0.9-1-1.2-1.6
			c-0.4-0.6-0.6-1.2-0.8-1.9C447.6,93.8,447.5,93.1,447.5,92.4 M448.6,92.4c0,0.6,0.1,1.3,0.2,1.9c0.2,0.6,0.4,1.2,0.7,1.7
			c0.3,0.5,0.7,1,1.1,1.4c0.4,0.4,0.9,0.8,1.4,1.1c0.5,0.3,1.1,0.5,1.6,0.7c0.6,0.2,1.2,0.3,1.9,0.2c0.9,0,1.8-0.2,2.7-0.6
			c0.8-0.4,1.6-0.9,2.2-1.5c0.6-0.6,1.1-1.4,1.5-2.2c0.4-0.9,0.5-1.8,0.5-2.7c0-1.3-0.3-2.5-0.9-3.6c-0.6-1-1.4-1.9-2.5-2.5
			c-0.5-0.3-1.1-0.5-1.6-0.7c-0.6-0.2-1.2-0.3-1.9-0.2c-0.9,0-1.8,0.2-2.7,0.6c-0.8,0.4-1.6,0.9-2.2,1.5c-0.6,0.7-1.1,1.4-1.5,2.2
			C448.8,90.5,448.6,91.4,448.6,92.4 M453.9,93.4v3.9h-1.7v-9.8h3.1c1-0.1,2,0.2,2.8,0.7c0.6,0.5,1,1.2,0.9,2c0,0.6-0.2,1.3-0.6,1.8
			c-0.4,0.5-1.1,0.9-1.7,1c0.1,0.1,0.2,0.2,0.3,0.3c0.1,0.1,0.2,0.2,0.3,0.4l2.5,3.7h-1.6c-0.2,0-0.4-0.1-0.5-0.3l-2.2-3.3
			c-0.1-0.1-0.1-0.2-0.2-0.2c-0.1-0.1-0.3-0.1-0.4-0.1L453.9,93.4z M453.9,92.1h1.3c0.3,0,0.7,0,1-0.1c0.2-0.1,0.5-0.2,0.7-0.3
			c0.2-0.1,0.3-0.3,0.4-0.5c0.1-0.2,0.1-0.5,0.1-0.7c0-0.2,0-0.5-0.1-0.7c-0.1-0.2-0.2-0.4-0.3-0.5c-0.2-0.1-0.4-0.2-0.6-0.3
			c-0.3-0.1-0.7-0.1-1-0.1h-1.4L453.9,92.1z"/>
	</g>
</g>
<g>
	<defs>
		<rect id="SVGID_3_" width="128.6" height="163.5"/>
	</defs>
	<clipPath id="SVGID_4_">
		<use xlink:href="#SVGID_3_"  style="overflow:visible;"/>
	</clipPath>
	<g class="st2">
		<path class="st3" d="M28.6,36.2c6.3-6.7,16.5-14,27.2-16.1c-28,24.3-28.4,76.1,0.5,103.2c2.1,1.9,4.3,3.8,6.6,5.4h65.8V40
			c-4.8-3.7-10.4-6.5-16.3-8c-28.5-7.6-59.3,12.9-67.4,41.1c-0.6-6.6,0-13.3,1.7-19.7c8.1-30.7,36.6-51.6,72.2-42.9
			c3.4,0.8,6.7,2,9.8,3.5V0H0v128.6h19.8C2.9,99.6,4.8,61.5,28.6,36.2"/>
		<path class="st4" d="M41.3,147.3c0-2.8-1.6-5.4-4.1-6.6c-0.9-0.4-2.3-0.9-5.6-0.9h-5.9v22.9h2.4v-20.7h3.9c1.5-0.1,3,0.2,4.4,0.9
			c1.5,0.9,2.4,2.5,2.4,4.3c0,2.2-1.5,4.2-3.7,4.8c-1,0.3-2,0.3-4.9,0.3h-0.2l0.1,0.1l7.7,10.3l0,0h3.1l-0.1-0.1l-6.3-8.3
			C38.4,154.1,41.3,151,41.3,147.3 M126.1,157.3l-17.2-18.1v23.1h2.5v-17l17.2,18v-23.1h-2.5V157.3z M94.4,156.8l-6.5-17.7L81,156.8
			l-5.9-16.6h-2.7l8.5,23.2l7-17.7l6.5,17.7l9.3-23.2H101L94.4,156.8z M58.2,160.4c-5,0.1-9.2-4-9.2-9c-0.1-5,4-9.2,9-9.2
			c5-0.1,9.2,4,9.2,9c0,0,0,0.1,0,0.1C67.2,156.3,63.1,160.4,58.2,160.4 M58.2,139.8c-6.3,0-11.4,5-11.5,11.3
			c-0.1,6.4,5,11.6,11.3,11.7s11.6-5,11.7-11.3s-5-11.6-11.3-11.7C58.3,139.8,58.2,139.8,58.2,139.8 M0,151.4
			c0.1,6.3,5.2,11.4,11.5,11.4c2.4,0,4.7-0.8,6.6-2.2v-3c-1.7,1.8-4.1,2.9-6.7,2.9c-5,0-9-4.1-9-9c0,0,0,0,0-0.1
			c0-4.9,3.9-9,8.9-9.1c2.6,0,5,1,6.7,2.9v-3.1c-1.9-1.5-4.2-2.2-6.6-2.2C5.2,139.9,0.1,145.1,0,151.4"/>
		<polygon class="st5" points="69.7,117.6 69.7,101.9 77.8,101.9 77.8,103.5 71.5,103.5 71.5,108.2 77.7,108.2 77.7,109.8 
			71.5,109.8 71.5,116 77.8,116 77.8,117.6 		"/>
		<path class="st5" d="M92.7,117.6l-1.9-4.5h-6.7l-1.9,4.5h-1.9l7.2-16.5l7.1,16.5H92.7z M87.6,105.3l-2.7,6.3h5.3L87.6,105.3z"/>
		<path class="st5" d="M102.1,117.9c-2.4,0.1-4.5-1.6-4.9-4l1.7-0.5c0.4,1.9,1.5,2.9,3.2,2.9c1.7,0.1,3.1-1.3,3.2-3c0,0,0-0.1,0-0.1
			c0-0.9-0.5-1.8-1.3-2.2c-0.4-0.3-0.9-0.5-1.4-0.7l-0.5-0.2l-0.5-0.2l-0.5-0.2c-2.3-1-3.2-2.1-3.2-3.9c0.1-2.3,2-4.1,4.3-4
			c0,0,0.1,0,0.1,0c1.7,0,3.3,0.9,4.1,2.4l-1.4,0.9c-0.5-1.1-1.5-1.7-2.7-1.7c-1.4-0.1-2.5,1-2.6,2.3c0,0,0,0.1,0,0.1
			c0,0.7,0.4,1.3,1,1.7c0.4,0.2,0.8,0.4,1.2,0.7l0.5,0.2l0.5,0.2l0.5,0.2c2.5,1.1,3.6,2.4,3.6,4.3c0,2.7-2.2,4.9-4.8,4.9
			C102.1,118,102.1,118,102.1,117.9"/>
		<polygon class="st5" points="115.2,103.5 115.2,117.6 113.5,117.6 113.5,103.5 109.7,103.5 109.7,101.9 119.1,101.9 119.1,103.5 
					"/>
	</g>
</g>
<line class="st6" x1="184.7" y1="0" x2="184.7" y2="165.2"/>
</svg>
