<svg xmlns="http://www.w3.org/2000/svg" width="142" height="142" viewBox="0 0 142 142">
  <g id="Group_173" data-name="Group 173" transform="translate(-273 -1309)">
    <circle id="Ellipse_12" data-name="Ellipse 12" cx="46" cy="46" r="46" transform="translate(298 1334)" fill="#c1c8d9"/>
    <g id="Ellipse_1" data-name="Ellipse 1" transform="translate(273 1309)" fill="none" stroke="#003a70" stroke-width="2">
      <circle cx="71" cy="71" r="71" stroke="none"/>
      <circle cx="71" cy="71" r="70" fill="none"/>
    </g>
    <g id="Group_57" data-name="Group 57" transform="translate(146.331 1248.727)">
      <path id="Path_201" data-name="Path 201" d="M183.978,92.053a3.2,3.2,0,0,0,.659,2.381,4.316,4.316,0,0,0,3.261,1.008c.037,0,.055.018.092.018a6.077,6.077,0,0,1,4.415,1.63,5,5,0,0,1,1.191,3.9c0,2.253-1.3,4.58-4.8,4.983v2.436a1.008,1.008,0,1,1-2.015,0v-2.418a5.353,5.353,0,0,1-3.5-1.539,4.987,4.987,0,0,1-1.319-3.444.983.983,0,0,1,1.044-.971,1,1,0,0,1,.953,1.044,3.127,3.127,0,0,0,.788,2,3.951,3.951,0,0,0,2.931.971c3.389,0,3.9-1.887,3.9-3a.822.822,0,0,1,.018-.2,3.216,3.216,0,0,0-.659-2.381,4.391,4.391,0,0,0-3.261-1.008c-.037,0-.073-.018-.11-.018a5.987,5.987,0,0,1-4.4-1.63,4.933,4.933,0,0,1-1.191-3.883c0-2.253,1.3-4.58,4.8-5V84.488a1.008,1.008,0,1,1,2.015,0v2.418a5.537,5.537,0,0,1,3.5,1.539,5,5,0,0,1,1.319,3.462.99.99,0,0,1-1.044.953,1.017,1.017,0,0,1-.971-1.044,2.948,2.948,0,0,0-.769-2,3.948,3.948,0,0,0-2.931-.953c-3.407,0-3.9,1.868-3.9,2.986C184,91.888,183.978,92.035,183.978,92.053Z" transform="translate(9.78 2.986)" fill="#fff"/>
      <path id="Path_202" data-name="Path 202" d="M220.429,141.55h-4.6c2.565-1.905,3.5-5.752,3.59-8.115v-5.147a1.016,1.016,0,0,0-1.008-1.008H205.866c-3.645,0-5.862,2.455-7.181,5.349V118.945a19.564,19.564,0,1,0-2.015,0v9.049a11.094,11.094,0,0,0-7.822-4.854h-7.8a1.016,1.016,0,0,0-1.007,1.008c0,4.012,1.136,7.144,3.334,9.306a11.071,11.071,0,0,0,7.309,2.949h5.99v5.147H174.889a4.69,4.69,0,1,0,0,9.379h.165v11.742A12.463,12.463,0,0,0,187.2,175.109a12.373,12.373,0,0,0-2,6.759,1.016,1.016,0,0,0,1.008,1.008h22.9a1,1,0,0,0,1.008-1.008,12.51,12.51,0,0,0-1.978-6.759,12.447,12.447,0,0,0,12.127-12.438V150.929h.165a4.69,4.69,0,1,0,0-9.379Zm-29.694-7.163a9.094,9.094,0,0,1-5.972-2.4,10.039,10.039,0,0,1-2.674-6.833h6.686c.311.018,7.254.641,7.749,9.232Zm15.131-5.093h11.541v4.1c0,.073-.385,7.291-5.129,7.291H198.758C199.033,137.685,200.315,129.295,205.866,129.295ZM180.129,99.436a17.54,17.54,0,1,1,17.549,17.549A17.559,17.559,0,0,1,180.129,99.436Zm7.144,81.425a10.438,10.438,0,0,1,2.418-5.734h15.955a10.438,10.438,0,0,1,2.418,5.734Zm30.976-18.19a10.449,10.449,0,0,1-10.441,10.441h-1.7c-3,0-5.422,0-7.9-.018-2.62,0-5.349-.018-8.939-.018a.659.659,0,0,0-.2.037h-1.557a10.46,10.46,0,0,1-10.441-10.441V150.929h41.18Zm2.18-13.757h-1.081a.792.792,0,0,0-.092-.018H176.062a.792.792,0,0,1-.092.018h-1.081a2.674,2.674,0,0,1,0-5.349h45.54a2.674,2.674,0,1,1,0,5.349Z" transform="translate(0)" fill="#003a70"/>
      <path id="Path_203" data-name="Path 203" d="M193.169,80.99A17.54,17.54,0,1,0,210.7,98.521,17.559,17.559,0,0,0,193.169,80.99Zm5.715,12.988a.99.99,0,0,1-1.044.953,1.017,1.017,0,0,1-.971-1.044,2.948,2.948,0,0,0-.769-2,3.948,3.948,0,0,0-2.931-.953c-3.407,0-3.9,1.868-3.9,2.986,0,.037-.018.183-.018.2a3.2,3.2,0,0,0,.659,2.381,4.316,4.316,0,0,0,3.261,1.008c.037,0,.055.018.092.018a6.077,6.077,0,0,1,4.415,1.63,5,5,0,0,1,1.191,3.9c0,2.253-1.3,4.58-4.8,4.983v2.436a1.008,1.008,0,1,1-2.015,0v-2.418a5.353,5.353,0,0,1-3.5-1.539,4.987,4.987,0,0,1-1.319-3.444.983.983,0,0,1,1.044-.971,1,1,0,0,1,.953,1.044,3.127,3.127,0,0,0,.788,2,3.951,3.951,0,0,0,2.931.971c3.389,0,3.9-1.887,3.9-3a.822.822,0,0,1,.018-.2,3.216,3.216,0,0,0-.659-2.381,4.391,4.391,0,0,0-3.261-1.008c-.037,0-.073-.018-.11-.018a5.987,5.987,0,0,1-4.4-1.63A4.933,4.933,0,0,1,187.252,94c0-2.253,1.3-4.58,4.8-5V86.559a1.008,1.008,0,1,1,2.015,0v2.418a5.537,5.537,0,0,1,3.5,1.539A5,5,0,0,1,198.884,93.978Z" transform="translate(4.509 0.915)" fill="#9c182f"/>
      <path id="Path_204" data-name="Path 204" d="M200.311,137.614H179.52a10.438,10.438,0,0,1,2.418-5.734h15.955A10.438,10.438,0,0,1,200.311,137.614Z" transform="translate(7.753 43.247)" fill="#ebc6c5"/>
      <path id="Path_205" data-name="Path 205" d="M215.13,118.67v11.742a10.449,10.449,0,0,1-10.441,10.441h-1.7c-3,0-5.422,0-7.9-.018-2.62,0-5.349-.018-8.939-.018a.659.659,0,0,0-.2.037h-1.557a10.46,10.46,0,0,1-10.441-10.441V118.67Z" transform="translate(3.119 32.259)" fill="#8695b5"/>
      <path id="Path_206" data-name="Path 206" d="M222.189,117.324A2.678,2.678,0,0,1,219.514,120h-1.081a.792.792,0,0,0-.092-.018H175.147a.792.792,0,0,1-.092.018h-1.081a2.674,2.674,0,0,1,0-5.349h45.54A2.666,2.666,0,0,1,222.189,117.324Z" transform="translate(0.915 28.915)" fill="#8695b5"/>
      <path id="Path_207" data-name="Path 207" d="M204.438,106.86v4.1c0,.073-.385,7.291-5.129,7.291H185.79c.275-3,1.557-11.394,7.108-11.394Z" transform="translate(12.968 22.435)" fill="#ebc6c5"/>
      <path id="Path_208" data-name="Path 208" d="M191.125,113.832h-5.789a9.094,9.094,0,0,1-5.972-2.4,10.039,10.039,0,0,1-2.674-6.833h6.686C183.688,104.618,190.63,105.241,191.125,113.832Z" transform="translate(5.399 20.555)" fill="#ebc6c5"/>
    </g>
  </g>
</svg>
