<?xml version="1.0" encoding="utf-8"?>
<!-- Generator: Adobe Illustrator 26.3.1, SVG Export Plug-In . SVG Version: 6.00 Build 0)  -->
<svg version="1.1" id="Layer_1" xmlns="http://www.w3.org/2000/svg" xmlns:xlink="http://www.w3.org/1999/xlink" x="0px" y="0px"
	 viewBox="0 0 342 179.2" style="enable-background:new 0 0 342 179.2;" xml:space="preserve">
<style type="text/css">
	.st0{fill:#002B3C;}
</style>
<g>
	<g>
		<g>
			<g>
				<path class="st0" d="M47.2,120.8c0,15.7-9.6,22.5-19.7,22.5h-3.8v-7.9h1.6c7.8,0,12.4-6.5,12.4-13.8V73.4H29
					c-9.5,0-16.7,7.5-16.7,15.7c0,6.1,3.6,11.9,11.3,14.6v7.4h-3.1c-9.9-3.1-16.8-11.6-16.8-22c0-11.7,10-23.6,27.3-23.6h6.7v-1.3
					c0-8,5.1-15.8,17.4-15.8h1.8v7.9h-1.9c-4.7,0-7.7,3.5-7.7,8.4v0.9h14C77,65.5,85,76.5,85,87.2c0,7.7-4.6,16.9-14.9,19.9
					l12.2,28.4c5.2,12.1,6.8,13.5,15.2,13.5h1v7.9h-1.6c-15.1,0-18.6-6.9-25-21.7l-11.5-26.8H47.2L47.2,120.8L47.2,120.8z M62,73.4
					H47.2v27.2H62c7.9,0,13.6-5.3,13.6-13.4S69.9,73.4,62,73.4z"/>
				<path class="st0" d="M133.8,136.4c-5.7,5.5-12.7,6.9-18.2,6.9c-17.8,0-26.2-13.5-26.2-27s8.7-27.5,24.3-27.5
					c12.9,0,19.5,8.4,19.5,17.8c0,4-1.1,8.1-3.5,12H98.2c0.7,12.9,10.7,17.5,18.2,17.5c4.6,0,9.2-1.8,13.8-5.1L133.8,136.4
					L133.8,136.4z M125,106.7c0-5.8-4-10.9-10.9-10.9c-7.9,0-14.2,6.8-15.5,15.7h25.5C124.6,110.1,125,108.2,125,106.7z"/>
				<path class="st0" d="M172.9,141.5l-10.7,1.8c-8,0-15.2-2.6-15.2-14.3V96.8h-10.5v-7.1l10.5-0.9l1.7-15.4h7v16.3h15.2v7.1h-15.2
					v29.7c0,7.6,3.1,9.7,8.9,9.7l8.2-1.2V141.5z"/>
				<path class="st0" d="M208.8,96.7c-1-0.2-3.1-0.4-4-0.4c-2.8,0-5.2,1.3-7.4,3.6l-9.2,9.6V142h-8.7V89.2l7.6-0.4l1.1,11.9l6.6-6.9
					c2.7-2.9,5.9-5,9.7-5c1.1,0,3.2,0.2,4.4,0.6L208.8,96.7L208.8,96.7z"/>
				<path class="st0" d="M252.5,136.4c-5.7,5.5-12.7,6.9-18.2,6.9c-17.8,0-26.2-13.5-26.2-27s8.7-27.5,24.3-27.5
					c12.9,0,19.5,8.4,19.5,17.8c0,4-1.1,8.1-3.5,12h-31.5c0.7,12.9,10.7,17.5,18.2,17.5c4.6,0,9.2-1.8,13.8-5.1L252.5,136.4
					L252.5,136.4z M243.7,106.7c0-5.8-4-10.9-10.9-10.9c-7.9,0-14.1,6.8-15.5,15.7h25.5C243.3,110.1,243.7,108.2,243.7,106.7z"/>
				<path class="st0" d="M304,142.3l-6,1c-3.7,0-8.2-1.7-9.1-6.5l-0.2-1.2h-0.1c-5.1,5.2-10.8,7.7-16,7.7c-8.8,0-15.2-5.2-15.2-14.1
					c0-10.9,11-18.3,30.5-18.8v-4.1c0-7.5-4-10.4-9.4-10.4c-4.2,0-10,2.8-13.4,4.6l-3-6.2c5.8-3.2,12.1-5.3,17.8-5.3
					c8.9,0,16.6,5.1,16.6,17.6v19.4c0,8,0.2,10.8,3.8,10.8l3.7-0.4L304,142.3L304,142.3z M287.8,116.3c-14.5,0.4-22.1,5.1-22.1,12.7
					c0,5.4,4.6,7.1,7.9,7.1c5.2,0,10.8-4.2,14.1-7.1L287.8,116.3L287.8,116.3z"/>
				<path class="st0" d="M338.3,141.5l-10.7,1.8c-8,0-15.2-2.6-15.2-14.3V96.8h-10.5v-7.1l10.5-0.9l1.7-15.4h7v16.3h15.2v7.1h-15.2
					v29.7c0,7.6,3.1,9.7,8.9,9.7l8.2-1.2V141.5z"/>
			</g>
			<g>
				<path class="st0" d="M126.6,175.8h-3.8l-1.3-3.4h-6.8l-1.3,3.4h-3.8l6.6-16.8h3.7L126.6,175.8L126.6,175.8z M120.3,169.4
					l-1.3-3.4l-0.9-2.6h-0.1l-0.9,2.6l-1.3,3.4H120.3z"/>
				<path class="st0" d="M142.2,162.1h-4.8v13.7h-4.1v-13.7h-4.8V159h13.6L142.2,162.1L142.2,162.1z"/>
				<path class="st0" d="M181.9,159l-6.3,16.8h-2.8l-3.1-9.6l-1.1-3.5h0l-1.1,3.5l-3.1,9.6h-2.8l-6.3-16.8h4.2l2.7,8.9l0.8,2.8h0.1
					l3.4-11.7h4.2l3.4,11.7h0.1l0.8-2.8l2.7-8.9H181.9L181.9,159z"/>
				<path class="st0" d="M198.9,175.8h-11.4V159h10.9v3.1h-6.9v3.8h5.6v3.1h-5.6v3.7h7.3V175.8L198.9,175.8z"/>
				<path class="st0" d="M210.8,176.1c-1.8,0-4.2-0.3-6.1-1.5v-3.4c3,1.4,4.4,1.8,5.9,1.8c1.4,0,2.4-0.5,2.4-1.6s-1.9-1.9-2.8-2.5
					c-2.3-1.2-5.1-2.6-5.1-5.6c0-2.1,2.1-4.5,5.8-4.5c1.5,0,3.3,0.3,4.9,1.2v3.3c-2.7-1.2-3.9-1.4-4.8-1.4c-1.4,0-1.8,0.6-1.8,1.4
					c0,1.4,3.1,2.6,4.6,3.3c1.7,0.9,3.5,2,3.5,4.6C217.2,174.6,214,176.1,210.8,176.1L210.8,176.1z"/>
				<path class="st0" d="M235.9,162.1h-4.8v13.7h-4.1v-13.7h-4.8V159h13.6V162.1z"/>
				<path class="st0" d="M252.8,162.1h-6.9v4.1h5.6v3.1h-5.6v6.6h-4.1V159h10.9L252.8,162.1L252.8,162.1z"/>
				<path class="st0" d="M262.9,175.8h-4.1V159h4.1V175.8z"/>
				<path class="st0" d="M281.2,175.8h-11.4V159h11v3.1h-6.9v3.8h5.6v3.1h-5.6v3.7h7.3V175.8L281.2,175.8z"/>
				<path class="st0" d="M298.8,175.8h-11.3V159h4.1v13.7h7.2L298.8,175.8L298.8,175.8z"/>
				<path class="st0" d="M312.1,175.8h-7.5V159h7.4c5.4,0,8.3,4.2,8.3,8.4S317.5,175.8,312.1,175.8z M311.1,162.1h-2.4v10.6h2.4
					c4,0,5.2-2.7,5.2-5.3S315,162.1,311.1,162.1L311.1,162.1z"/>
				<path class="st0" d="M332,176.1c-1.8,0-4.2-0.3-6.1-1.5v-3.4c3,1.4,4.4,1.8,5.9,1.8c1.4,0,2.4-0.5,2.4-1.6s-1.9-1.9-2.8-2.5
					c-2.3-1.2-5.1-2.6-5.1-5.6c0-2.1,2.1-4.5,5.8-4.5c1.5,0,3.3,0.3,4.9,1.2v3.3c-2.7-1.2-3.9-1.4-4.8-1.4c-1.4,0-1.8,0.6-1.8,1.4
					c0,1.4,3.1,2.6,4.6,3.3c1.7,0.9,3.5,2,3.5,4.6C338.4,174.6,335.1,176.1,332,176.1L332,176.1z"/>
			</g>
		</g>
		<g>
			<path class="st0" d="M105.7,53h-7.4v21.2h-3V53h-7.4v-2.5h17.7C105.7,50.5,105.7,53,105.7,53z"/>
			<path class="st0" d="M121.6,74.2h-2.7V63.6c0-2.6-0.7-3.6-2.4-3.6c-1.2,0-2.3,1-3.1,1.7l-2.7,2.4v10.1h-2.7V48.5l2.7-0.1v13
				l2.2-1.9c1.3-1.1,2.7-1.8,4.2-1.8c2.2,0,4.5,1.4,4.5,4.5L121.6,74.2L121.6,74.2z"/>
			<path class="st0" d="M138.2,72.4c-1.8,1.7-3.9,2.1-5.6,2.1c-5.5,0-8.1-4.2-8.1-8.3s2.7-8.5,7.5-8.5c4,0,6,2.6,6,5.5
				c0,1.2-0.4,2.5-1.1,3.7h-9.8c0.2,4,3.3,5.4,5.6,5.4c1.4,0,2.9-0.6,4.3-1.6L138.2,72.4L138.2,72.4z M135.5,63.3
				c0-1.8-1.2-3.4-3.4-3.4c-2.4,0-4.4,2.1-4.8,4.9h7.9C135.4,64.3,135.5,63.7,135.5,63.3L135.5,63.3z"/>
		</g>
	</g>
	<g>
		<path class="st0" d="M16.4,14.9c0.1,0,0.2,0,0.3,0.1c0.1,0,0.2,0.1,0.3,0.2l1.6,1.6c-0.7,0.9-1.5,1.6-2.6,2s-2.2,0.7-3.6,0.7
			c-1.3,0-2.4-0.2-3.5-0.7s-1.9-1-2.6-1.8c-0.7-0.8-1.3-1.7-1.6-2.8S4,12,4,10.8s0.2-2.4,0.7-3.5c0.4-1.1,1-2,1.8-2.7
			s1.7-1.4,2.8-1.8c1.1-0.4,2.3-0.6,3.6-0.6c0.6,0,1.2,0.1,1.8,0.2c0.6,0.1,1.1,0.3,1.6,0.5c0.5,0.2,0.9,0.4,1.4,0.7
			s0.8,0.6,1.1,0.9l-1.3,1.8c-0.1,0.1-0.2,0.2-0.3,0.3c-0.1,0.1-0.3,0.1-0.5,0.1c-0.1,0-0.3,0-0.4-0.1c-0.1-0.1-0.3-0.1-0.4-0.2
			c-0.1-0.1-0.3-0.2-0.5-0.3S15,5.8,14.7,5.7c-0.2-0.1-0.5-0.2-0.8-0.2c-0.3-0.1-0.7-0.1-1.1-0.1c-0.7,0-1.4,0.1-2,0.4
			S9.8,6.3,9.4,6.8s-0.8,1-1,1.7S8,9.9,8,10.8s0.1,1.6,0.4,2.3c0.2,0.7,0.6,1.2,1,1.7c0.4,0.5,0.9,0.8,1.4,1.1
			c0.5,0.2,1.1,0.4,1.8,0.4c0.4,0,0.7,0,1,0c0.3,0,0.6-0.1,0.8-0.2c0.2-0.1,0.5-0.2,0.7-0.3c0.2-0.1,0.5-0.3,0.7-0.5
			c0.1-0.1,0.2-0.1,0.3-0.2C16.2,14.9,16.3,14.9,16.4,14.9L16.4,14.9z"/>
		<path class="st0" d="M25.3,13v6.3h-3.9v-17h5.5c1.2,0,2.3,0.1,3.1,0.4s1.6,0.6,2.1,1s1,1,1.2,1.6c0.2,0.6,0.4,1.3,0.4,2
			c0,0.6-0.1,1.1-0.2,1.6s-0.4,0.9-0.7,1.4s-0.7,0.8-1.1,1.1c-0.4,0.3-0.9,0.6-1.5,0.8c0.3,0.1,0.5,0.3,0.7,0.5s0.4,0.4,0.6,0.7
			l3.6,5.9h-3.6c-0.7,0-1.1-0.2-1.4-0.8l-2.8-4.9c-0.1-0.2-0.3-0.4-0.4-0.5s-0.4-0.1-0.7-0.1L25.3,13L25.3,13z M25.3,10.3h1.6
			c0.5,0,1-0.1,1.4-0.2c0.4-0.1,0.7-0.3,0.9-0.6c0.2-0.2,0.4-0.5,0.5-0.8s0.2-0.7,0.2-1c0-0.8-0.2-1.3-0.7-1.8s-1.2-0.6-2.2-0.6
			h-1.6L25.3,10.3L25.3,10.3z"/>
		<path class="st0" d="M54.2,19.2h-3c-0.3,0-0.6-0.1-0.8-0.2s-0.4-0.4-0.5-0.6l-1-3h-6.5l-1,3c-0.1,0.2-0.2,0.4-0.5,0.6
			c-0.2,0.2-0.5,0.3-0.8,0.3H37l6.6-17h4L54.2,19.2L54.2,19.2z M43.3,12.8h4.6l-1.6-4.6c-0.1-0.3-0.2-0.6-0.4-1s-0.3-0.8-0.4-1.3
			c-0.1,0.5-0.2,0.9-0.4,1.3c-0.1,0.4-0.3,0.8-0.4,1C44.8,8.1,43.3,12.8,43.3,12.8z"/>
		<path class="st0" d="M67.1,2.3v3h-7v4.3h5.8v3h-5.8v6.6h-4v-17C56.2,2.3,67.1,2.3,67.1,2.3z"/>
		<path class="st0" d="M82.5,2.3v3.1h-4.8v13.9h-3.9V5.4h-4.8V2.3H82.5z"/>
		<path class="st0" d="M93.4,12.4c0.1,0.3,0.3,0.6,0.4,1c0.1-0.3,0.3-0.7,0.4-1c0.2-0.3,0.3-0.6,0.4-0.9l4.4-8.6
			c0.1-0.2,0.2-0.3,0.2-0.3c0.1-0.1,0.2-0.1,0.3-0.2s0.2-0.1,0.3-0.1h3.4v17h-3.5V9.5c0-0.5,0-1,0.1-1.5l-4.5,8.7
			c-0.1,0.3-0.3,0.5-0.6,0.6c-0.2,0.1-0.5,0.2-0.8,0.2h-0.5c-0.3,0-0.6-0.1-0.8-0.2s-0.4-0.4-0.6-0.6l-4.5-8.7
			c0,0.3,0.1,0.5,0.1,0.8s0,0.5,0,0.7v9.8h-3.5v-17h3.4c0.1,0,0.2,0,0.3,0.1s0.2,0.1,0.3,0.2c0.1,0.1,0.2,0.2,0.2,0.3l4.4,8.6
			C93.1,11.8,93.3,12.1,93.4,12.4L93.4,12.4z"/>
		<path class="st0" d="M122.1,19.2H119c-0.3,0-0.6-0.1-0.8-0.2s-0.4-0.4-0.5-0.6l-1-3h-6.4l-1,3c-0.1,0.2-0.2,0.4-0.4,0.6
			c-0.2,0.2-0.5,0.3-0.8,0.3H105l6.6-17h4L122.1,19.2L122.1,19.2z M111.2,12.8h4.6l-1.6-4.6c-0.1-0.3-0.2-0.6-0.4-1
			s-0.3-0.8-0.4-1.3c-0.1,0.5-0.2,0.9-0.4,1.3c-0.1,0.4-0.3,0.8-0.4,1L111.2,12.8z"/>
		<path class="st0" d="M128,13v6.3h-3.9v-17h5.5c1.2,0,2.3,0.1,3.1,0.4s1.6,0.6,2.1,1c0.6,0.5,0.9,1,1.2,1.6c0.2,0.6,0.4,1.3,0.4,2
			c0,0.6-0.1,1.1-0.2,1.6s-0.4,0.9-0.7,1.4c-0.3,0.4-0.6,0.8-1.1,1.1c-0.4,0.3-0.9,0.6-1.5,0.8c0.3,0.1,0.5,0.3,0.7,0.5
			c0.2,0.2,0.4,0.4,0.6,0.7l3.6,5.9h-3.6c-0.7,0-1.1-0.2-1.4-0.8l-2.8-4.9c-0.1-0.2-0.3-0.4-0.4-0.5s-0.4-0.1-0.7-0.1L128,13L128,13
			z M128,10.3h1.6c0.5,0,1-0.1,1.4-0.2c0.4-0.1,0.7-0.3,0.9-0.6c0.2-0.2,0.4-0.5,0.5-0.8s0.2-0.7,0.2-1c0-0.8-0.2-1.3-0.7-1.8
			c-0.5-0.4-1.2-0.6-2.2-0.6H128V10.3L128,10.3z"/>
		<path class="st0" d="M144.1,9.1h0.6c0.6,0,1-0.2,1.3-0.6l3.8-5.5c0.2-0.3,0.4-0.5,0.7-0.6s0.6-0.2,1-0.2h3.4l-5,6.9
			c-0.2,0.2-0.4,0.4-0.6,0.6c-0.2,0.2-0.4,0.3-0.6,0.4c0.3,0.1,0.6,0.3,0.8,0.4s0.5,0.4,0.7,0.8l5.1,7.9h-3.5c-0.2,0-0.4,0-0.6,0
			c-0.2,0-0.3-0.1-0.4-0.1c-0.1-0.1-0.2-0.1-0.3-0.2s-0.2-0.2-0.2-0.3l-3.8-5.9c-0.1-0.2-0.3-0.4-0.5-0.5c-0.2-0.1-0.5-0.1-0.9-0.1
			h-0.9v7.2h-3.9v-17h3.9L144.1,9.1L144.1,9.1z"/>
		<path class="st0" d="M179.2,19.2h-4v-7.2h-6.9v7.2h-4v-17h4v7.1h6.9V2.3h4V19.2z"/>
		<path class="st0" d="M199.3,10.8c0,1.2-0.2,2.4-0.6,3.4c-0.4,1.1-1,2-1.8,2.8c-0.8,0.8-1.7,1.4-2.8,1.8s-2.3,0.7-3.6,0.7
			s-2.5-0.2-3.6-0.7s-2-1-2.8-1.8c-0.8-0.8-1.4-1.7-1.8-2.8c-0.4-1.1-0.6-2.2-0.6-3.4s0.2-2.4,0.6-3.4c0.4-1.1,1-2,1.8-2.8
			c0.8-0.8,1.7-1.4,2.8-1.8s2.3-0.7,3.6-0.7s2.5,0.2,3.6,0.7s2,1.1,2.8,1.8c0.8,0.8,1.4,1.7,1.8,2.8C199.1,8.4,199.3,9.5,199.3,10.8
			z M195.3,10.8c0-0.8-0.1-1.6-0.3-2.3c-0.2-0.7-0.5-1.2-0.9-1.7c-0.4-0.5-0.9-0.8-1.5-1.1s-1.3-0.4-2-0.4s-1.4,0.1-2,0.4
			s-1.1,0.6-1.5,1.1c-0.4,0.5-0.7,1-0.9,1.7c-0.2,0.7-0.3,1.4-0.3,2.3s0.1,1.6,0.3,2.3c0.2,0.7,0.5,1.2,0.9,1.7s0.9,0.8,1.5,1.1
			c0.6,0.2,1.3,0.4,2,0.4s1.4-0.1,2-0.4c0.6-0.2,1.1-0.6,1.5-1.1c0.4-0.5,0.7-1,0.9-1.7C195.2,12.4,195.3,11.6,195.3,10.8z"/>
		<path class="st0" d="M210.9,12.4c0.1,0.3,0.3,0.6,0.4,1c0.1-0.3,0.3-0.7,0.4-1c0.1-0.3,0.3-0.6,0.4-0.9l4.4-8.6
			c0.1-0.2,0.2-0.3,0.2-0.3s0.2-0.1,0.3-0.2s0.2-0.1,0.3-0.1h3.4v17h-3.5V9.5c0-0.5,0-1,0.1-1.5l-4.5,8.7c-0.1,0.3-0.3,0.5-0.6,0.6
			c-0.2,0.1-0.5,0.2-0.8,0.2h-0.5c-0.3,0-0.6-0.1-0.8-0.2c-0.2-0.1-0.4-0.4-0.6-0.6l-4.5-8.7c0,0.3,0.1,0.5,0.1,0.8s0,0.5,0,0.7v9.8
			h-3.5v-17h3.4c0.1,0,0.2,0,0.3,0.1s0.2,0.1,0.3,0.2s0.2,0.2,0.2,0.3l4.4,8.6C210.6,11.8,210.8,12.1,210.9,12.4L210.9,12.4z"/>
		<path class="st0" d="M235.2,2.3v3h-7v4h5.3v2.9h-5.3v4h7v3h-10.9v-17H235.2z"/>
		<path class="st0" d="M248,5.7c-0.1,0.2-0.2,0.3-0.4,0.4s-0.3,0.1-0.5,0.1c-0.2,0-0.4-0.1-0.6-0.2s-0.4-0.2-0.7-0.4
			c-0.3-0.1-0.6-0.3-0.9-0.4s-0.7-0.2-1.1-0.2c-0.7,0-1.3,0.2-1.6,0.5s-0.5,0.7-0.5,1.3c0,0.3,0.1,0.6,0.3,0.8s0.5,0.4,0.9,0.6
			c0.4,0.2,0.8,0.3,1.2,0.4c0.4,0.1,0.9,0.3,1.4,0.4c0.5,0.2,0.9,0.4,1.4,0.6c0.4,0.2,0.9,0.5,1.2,0.9c0.4,0.4,0.6,0.8,0.9,1.3
			s0.3,1.1,0.3,1.8c0,0.8-0.1,1.5-0.4,2.2s-0.7,1.3-1.2,1.8c-0.5,0.5-1.1,0.9-1.9,1.2c-0.8,0.3-1.6,0.4-2.6,0.4
			c-0.5,0-1.1,0-1.6-0.2c-0.6-0.1-1.1-0.3-1.6-0.5c-0.5-0.2-1-0.4-1.4-0.7s-0.8-0.6-1.2-0.9l1.2-1.8c0.1-0.1,0.2-0.2,0.4-0.3
			s0.3-0.1,0.5-0.1c0.2,0,0.5,0.1,0.7,0.2c0.2,0.1,0.5,0.3,0.8,0.5c0.3,0.2,0.6,0.3,1,0.5s0.9,0.2,1.4,0.2c0.7,0,1.3-0.2,1.7-0.5
			s0.6-0.8,0.6-1.5c0-0.4-0.1-0.7-0.3-1s-0.5-0.4-0.9-0.6c-0.4-0.2-0.8-0.3-1.2-0.4c-0.4-0.1-0.9-0.3-1.4-0.4
			c-0.5-0.1-0.9-0.3-1.4-0.6s-0.9-0.5-1.2-0.9c-0.4-0.4-0.6-0.8-0.9-1.4s-0.3-1.2-0.3-2c0-0.6,0.1-1.3,0.4-1.9s0.6-1.1,1.1-1.6
			s1.1-0.8,1.8-1.1c0.7-0.3,1.6-0.4,2.5-0.4c0.5,0,1,0,1.5,0.1s1,0.2,1.4,0.4c0.4,0.2,0.9,0.3,1.2,0.6s0.7,0.5,1,0.8L248,5.7
			L248,5.7z"/>
	</g>
</g>
</svg>
