<svg id="Layer_1" data-name="Layer 1" xmlns="http://www.w3.org/2000/svg" xmlns:xlink="http://www.w3.org/1999/xlink" viewBox="0 0 341.96 179.16"><defs><style>.cls-1{fill:none;}.cls-2{clip-path:url(#clip-path);}.cls-3{fill:#fff;}</style><clipPath id="clip-path"><rect class="cls-1" x="-1586.68" y="-1091.05" width="1920" height="1000"/></clipPath></defs><g class="cls-2"><image width="3400" height="2200" transform="translate(-1214.31 -1170.79) scale(0.54)" xlink:href="../Utilities/Links/Craftmark%20Homes_The%20Retreat%20at%20Westfields%20Block%2021%20-%2024_Cam01.jpeg"/></g><path class="cls-3" d="M45.16,121.94c0,16-9.76,22.93-20.09,22.93H21.21v-8.06H22.8c8,0,12.6-6.58,12.6-14.07v-49H26.66c-9.65,0-17,7.61-17,16,0,6.24,3.63,12.14,11.46,14.87v7.49H17.92C7.82,108.89.78,100.26.78,89.71.78,77.79,11,65.64,28.59,65.64H35.4V64.28c0-8.17,5.22-16.11,17.71-16.11h1.81v8H53c-4.77,0-7.84,3.52-7.84,8.52v.9h14.3c16.12,0,24.18,11.24,24.18,22.14A21,21,0,0,1,68.43,108.1L80.8,137c5.34,12.37,6.93,13.73,15.44,13.73h1v8.06H95.67c-15.32,0-19-7-25.42-22.13L58.56,109.46H45.16ZM60.26,73.7H45.16v27.7h15.1c8.06,0,13.85-5.45,13.85-13.62S68.32,73.7,60.26,73.7Z"/><path class="cls-3" d="M133.35,137.83a26.29,26.29,0,0,1-18.5,7c-18.16,0-26.67-13.73-26.67-27.47,0-14,8.85-28,24.74-28,13.17,0,19.87,8.51,19.87,18.16a23.83,23.83,0,0,1-3.52,12.26H97.15c.68,13.16,10.89,17.82,18.5,17.82,4.65,0,9.42-1.82,14.07-5.22Zm-9-30.19c0-5.9-4.09-11.12-11.13-11.12-8.05,0-14.41,6.92-15.77,16h26A14.71,14.71,0,0,0,124.39,107.64Z"/><path class="cls-3" d="M173.19,143.05l-10.89,1.82c-8.18,0-15.44-2.61-15.44-14.53V97.54H136.19V90.28l10.67-.91,1.7-15.67h7.15V90.28h15.44v7.26H155.71v30.19c0,7.72,3.18,9.88,9.08,9.88l8.4-1.25Z"/><path class="cls-3" d="M209.74,97.43a26.13,26.13,0,0,0-4.09-.46,10.32,10.32,0,0,0-7.49,3.63l-9.42,9.77v33.14h-8.85V89.82l7.72-.45,1.13,12.14,6.7-7c2.72-3,6-5.1,9.87-5.1a19.77,19.77,0,0,1,4.43.56Z"/><path class="cls-3" d="M254.23,137.83a26.29,26.29,0,0,1-18.5,7c-18.16,0-26.67-13.73-26.67-27.47,0-14,8.85-28,24.74-28,13.17,0,19.86,8.51,19.86,18.16a23.82,23.82,0,0,1-3.51,12.26H218c.69,13.16,10.9,17.82,18.5,17.82,4.66,0,9.43-1.82,14.08-5.22Zm-9-30.19c0-5.9-4.08-11.12-11.12-11.12-8.06,0-14.41,6.92-15.78,16h26A15,15,0,0,0,245.26,107.64Z"/><path class="cls-3" d="M306.67,143.85l-6.13,1c-3.75,0-8.4-1.7-9.31-6.58L291,137h-.12c-5.22,5.33-11,7.83-16.34,7.83-9,0-15.44-5.33-15.44-14.41,0-11.13,11.24-18.62,31.1-19.19v-4.2c0-7.6-4.09-10.55-9.53-10.55-4.32,0-10.22,2.84-13.62,4.65L264,94.82c5.9-3.3,12.37-5.45,18.16-5.45,9.08,0,16.91,5.22,16.91,17.93v19.75c0,8.17.23,11,3.86,11l3.75-.45ZM290.21,117.4c-14.75.46-22.47,5.22-22.47,12.94,0,5.45,4.65,7.27,8.06,7.27,5.33,0,11-4.32,14.41-7.27Z"/><path class="cls-3" d="M341.63,143.05l-10.9,1.82c-8.17,0-15.44-2.61-15.44-14.53V97.54H304.62V90.28l10.67-.91L317,73.7h7.15V90.28h15.43v7.26H324.15v30.19c0,7.72,3.18,9.88,9.08,9.88l8.4-1.25Z"/><path class="cls-3" d="M126.06,177.94h-3.82l-1.35-3.42H114l-1.35,3.42H108.8l6.73-17.11h3.79Zm-6.39-6.51-1.29-3.52-.93-2.69h0l-.92,2.69-1.3,3.52Z"/><path class="cls-3" d="M142,164h-4.84v14H133V164h-4.84v-3.14H142Z"/><path class="cls-3" d="M182.37,160.83,176,177.94h-2.87L170,168.21l-1.1-3.56h0l-1.09,3.56-3.15,9.73h-2.84l-6.38-17.11h4.26l2.74,9,.78,2.84h.05l3.51-11.87H171l3.52,11.87h.05l.77-2.84,2.74-9Z"/><path class="cls-3" d="M199.7,177.94H188.1V160.83h11.15V164h-7v3.89H198V171h-5.71v3.79h7.46Z"/><path class="cls-3" d="M211.84,178.24a12.41,12.41,0,0,1-6.23-1.55v-3.41c3.09,1.44,4.49,1.82,6,1.82,1.37,0,2.4-.48,2.4-1.65s-1.95-2-2.87-2.54c-2.32-1.22-5.21-2.7-5.21-5.74,0-2.19,2.14-4.59,5.86-4.59a10.46,10.46,0,0,1,5,1.25v3.32c-2.72-1.28-4-1.43-4.86-1.43-1.43,0-1.87.63-1.87,1.45,0,1.45,3.16,2.62,4.66,3.39,1.75.9,3.59,2.07,3.59,4.72C218.35,176.72,215,178.24,211.84,178.24Z"/><path class="cls-3" d="M237.4,164h-4.84v14h-4.14V164h-4.83v-3.14H237.4Z"/><path class="cls-3" d="M254.54,164h-7v4.14h5.71v3.15h-5.71v6.68h-4.14V160.83h11.15Z"/><path class="cls-3" d="M264.81,177.94h-4.14V160.83h4.14Z"/><path class="cls-3" d="M283.54,177.94h-11.6V160.83h11.15V164h-7v3.89h5.71V171h-5.71v3.79h7.46Z"/><path class="cls-3" d="M301.44,177.94H289.92V160.83h4.14v14h7.38Z"/><path class="cls-3" d="M315,177.94h-7.63V160.83h7.48c5.54,0,8.45,4.29,8.45,8.61S320.47,177.94,315,177.94Zm-1-14h-2.47V174.8h2.42c4,0,5.26-2.72,5.26-5.41S317.93,164,313.94,164Z"/><path class="cls-3" d="M335.21,178.24a12.47,12.47,0,0,1-6.24-1.55v-3.41c3.09,1.44,4.49,1.82,6,1.82,1.37,0,2.39-.48,2.39-1.65s-1.94-2-2.87-2.54c-2.32-1.22-5.21-2.7-5.21-5.74,0-2.19,2.15-4.59,5.86-4.59a10.49,10.49,0,0,1,5,1.25v3.32c-2.72-1.28-4-1.43-4.87-1.43-1.42,0-1.87.63-1.87,1.45,0,1.45,3.17,2.62,4.67,3.39,1.74.9,3.59,2.07,3.59,4.72C341.72,176.72,338.4,178.24,335.21,178.24Z"/><path class="cls-3" d="M104.72,52.87H97.2V74.48h-3V52.87H86.66V50.38h18.06Z"/><path class="cls-3" d="M120.91,74.48h-2.74V63.73c0-2.67-.7-3.66-2.5-3.66-1.26,0-2.38,1-3.19,1.72l-2.71,2.39v10.3H107V48.34l2.74-.14V61.44L112,59.51a6.59,6.59,0,0,1,4.32-1.79,4.41,4.41,0,0,1,4.6,4.64Z"/><path class="cls-3" d="M137.87,72.72a8.14,8.14,0,0,1-5.72,2.18c-5.62,0-8.26-4.25-8.26-8.5s2.74-8.68,7.66-8.68c4.08,0,6.15,2.63,6.15,5.62a7.33,7.33,0,0,1-1.09,3.79h-9.94a5.54,5.54,0,0,0,5.72,5.52A7.42,7.42,0,0,0,136.75,71Zm-2.77-9.34a3.32,3.32,0,0,0-3.44-3.45c-2.5,0-4.46,2.15-4.89,5h8A4.78,4.78,0,0,0,135.1,63.38Z"/><path class="cls-3" d="M13.82,14.07a.74.74,0,0,1,.29,0,.71.71,0,0,1,.27.18L16,16A6.6,6.6,0,0,1,13.35,18a9.13,9.13,0,0,1-3.71.69,9,9,0,0,1-3.53-.66,7.85,7.85,0,0,1-2.65-1.85,8.1,8.1,0,0,1-1.66-2.8,10.28,10.28,0,0,1-.58-3.52,9.31,9.31,0,0,1,.66-3.55A8.24,8.24,0,0,1,6.59,1.72a9.81,9.81,0,0,1,3.66-.65,8.89,8.89,0,0,1,1.83.17,8.63,8.63,0,0,1,1.61.47,8.2,8.2,0,0,1,1.38.73,6.36,6.36,0,0,1,1.11.93L14.83,5.18a1.77,1.77,0,0,1-.31.3.75.75,0,0,1-.5.14.93.93,0,0,1-.4-.09,3.52,3.52,0,0,1-.4-.24L12.75,5a3.15,3.15,0,0,0-.61-.3,4.65,4.65,0,0,0-.81-.23,6,6,0,0,0-1.1-.09,4.94,4.94,0,0,0-2,.38,4.52,4.52,0,0,0-1.55,1.1,5.14,5.14,0,0,0-1,1.74,6.84,6.84,0,0,0-.36,2.29,7.14,7.14,0,0,0,.36,2.36,5.08,5.08,0,0,0,1,1.74,4,4,0,0,0,1.45,1.07,4.24,4.24,0,0,0,1.78.37c.36,0,.69,0,1,0a4.3,4.3,0,0,0,.84-.19,3.24,3.24,0,0,0,.73-.34,4.49,4.49,0,0,0,.71-.51,1.27,1.27,0,0,1,.31-.2A.8.8,0,0,1,13.82,14.07Z"/><path class="cls-3" d="M22.89,12.14v6.4h-4V1.26h5.62a11.76,11.76,0,0,1,3.19.38,6.08,6.08,0,0,1,2.16,1.08,4.07,4.07,0,0,1,1.22,1.62,5.44,5.44,0,0,1,.38,2A5.51,5.51,0,0,1,31.23,8a4.65,4.65,0,0,1-.67,1.38,5.29,5.29,0,0,1-1.09,1.13A5.77,5.77,0,0,1,28,11.3a4.15,4.15,0,0,1,.76.5,3.32,3.32,0,0,1,.61.72l3.67,6H29.39A1.54,1.54,0,0,1,28,17.78l-2.87-5a1.2,1.2,0,0,0-.45-.47,1.43,1.43,0,0,0-.72-.15Zm0-2.76h1.62a4.07,4.07,0,0,0,1.39-.21,2.44,2.44,0,0,0,.94-.57,2.16,2.16,0,0,0,.54-.86,3.32,3.32,0,0,0,.16-1.06A2.2,2.2,0,0,0,26.8,4.9a3.42,3.42,0,0,0-2.29-.64H22.89Z"/><path class="cls-3" d="M52.31,18.54H49.2a1.44,1.44,0,0,1-.86-.25,1.25,1.25,0,0,1-.47-.62l-1-3H40.28l-1,3a1.35,1.35,0,0,1-.46.6,1.32,1.32,0,0,1-.84.27H34.83L41.51,1.26h4.11ZM41.2,11.93h4.72L44.34,7.2c-.11-.3-.23-.66-.37-1.06s-.27-.85-.41-1.33c-.12.49-.25.93-.39,1.34s-.26.77-.38,1.07Z"/><path class="cls-3" d="M65.45,1.26V4.34h-7.1V8.72h5.91v3.09H58.35v6.73h-4V1.26Z"/><path class="cls-3" d="M81.17,1.26V4.43H76.31V18.54h-4V4.43H67.44V1.26Z"/><path class="cls-3" d="M92.26,11.57c.15.33.29.66.43,1,.13-.35.27-.69.42-1s.31-.65.46-1L98,1.86a1.51,1.51,0,0,1,.24-.35.86.86,0,0,1,.63-.24h3.52V18.54H98.86V8.6c0-.48,0-1,.07-1.57l-4.57,8.88a1.55,1.55,0,0,1-.58.63,1.5,1.5,0,0,1-.82.22h-.55a1.5,1.5,0,0,1-.82-.22,1.55,1.55,0,0,1-.58-.63L86.41,7c0,.28.06.55.07.82s0,.53,0,.76v9.94H83V1.27h3.52a.86.86,0,0,1,.63.24,1.51,1.51,0,0,1,.24.35l4.45,8.78Q92.05,11.09,92.26,11.57Z"/><path class="cls-3" d="M121.47,18.54h-3.11a1.46,1.46,0,0,1-.86-.25,1.31,1.31,0,0,1-.47-.62l-1-3h-6.57l-1,3a1.35,1.35,0,0,1-.46.6,1.32,1.32,0,0,1-.84.27H104l6.69-17.28h4.1Zm-11.1-6.61h4.72L113.5,7.2c-.1-.3-.23-.66-.36-1.06s-.28-.85-.41-1.33c-.13.49-.26.93-.39,1.34s-.26.77-.38,1.07Z"/><path class="cls-3" d="M127.49,12.14v6.4h-4V1.26h5.63a11.81,11.81,0,0,1,3.19.38,6.08,6.08,0,0,1,2.16,1.08,4,4,0,0,1,1.21,1.62,5.25,5.25,0,0,1,.38,2A5.5,5.5,0,0,1,135.83,8a4.65,4.65,0,0,1-.67,1.38,5.29,5.29,0,0,1-1.09,1.13,5.77,5.77,0,0,1-1.49.82,3.77,3.77,0,0,1,.75.5,2.84,2.84,0,0,1,.61.72l3.68,6H134a1.57,1.57,0,0,1-1.45-.76l-2.87-5a1.12,1.12,0,0,0-.44-.47,1.43,1.43,0,0,0-.72-.15Zm0-2.76h1.62a4.11,4.11,0,0,0,1.39-.21,2.44,2.44,0,0,0,.94-.57,2.28,2.28,0,0,0,.54-.86,3.32,3.32,0,0,0,.16-1.06,2.23,2.23,0,0,0-.74-1.78,3.42,3.42,0,0,0-2.29-.64h-1.62Z"/><path class="cls-3" d="M143.88,8.25h.64a1.46,1.46,0,0,0,1.28-.55l3.89-5.65a1.71,1.71,0,0,1,.73-.63,2.69,2.69,0,0,1,1-.16h3.49l-5.12,7a3.52,3.52,0,0,1-.57.63,3.33,3.33,0,0,1-.61.42,3.17,3.17,0,0,1,.83.45,3.1,3.1,0,0,1,.68.78l5.22,8h-3.58a3.25,3.25,0,0,1-.59-.05,1.59,1.59,0,0,1-.42-.14,1.23,1.23,0,0,1-.31-.24,2,2,0,0,1-.25-.31l-3.91-6a1.16,1.16,0,0,0-.54-.47,2.37,2.37,0,0,0-.89-.14h-1v7.36h-4V1.26h4Z"/><path class="cls-3" d="M179.6,18.54h-4V11.23h-7v7.31h-4V1.26h4V8.48h7V1.26h4Z"/><path class="cls-3" d="M200.12,9.89a9.34,9.34,0,0,1-.65,3.49,8.42,8.42,0,0,1-1.82,2.8,8.27,8.27,0,0,1-2.83,1.87,10.39,10.39,0,0,1-7.34,0,8.29,8.29,0,0,1-4.67-4.67,9.34,9.34,0,0,1-.65-3.49,9.34,9.34,0,0,1,.65-3.49,8.24,8.24,0,0,1,4.67-4.66,10.31,10.31,0,0,1,7.34,0,8.42,8.42,0,0,1,2.83,1.87,8.32,8.32,0,0,1,1.82,2.8A9.23,9.23,0,0,1,200.12,9.89Zm-4.11,0a7.58,7.58,0,0,0-.33-2.31,4.9,4.9,0,0,0-1-1.73,4.09,4.09,0,0,0-1.53-1.09,5.1,5.1,0,0,0-2-.38,5.23,5.23,0,0,0-2.07.38,4.09,4.09,0,0,0-1.53,1.09,4.9,4.9,0,0,0-1,1.73,7.58,7.58,0,0,0-.33,2.31,7.56,7.56,0,0,0,.33,2.32,5,5,0,0,0,1,1.74A4.18,4.18,0,0,0,189.08,15a5.42,5.42,0,0,0,2.07.37,5.28,5.28,0,0,0,2-.37A4.18,4.18,0,0,0,194.73,14a5,5,0,0,0,1-1.74A7.56,7.56,0,0,0,196,9.89Z"/><path class="cls-3" d="M212,11.57l.42,1c.13-.35.27-.69.42-1s.31-.65.47-1l4.43-8.74a1.26,1.26,0,0,1,.25-.35.8.8,0,0,1,.27-.18,1,1,0,0,1,.35-.06h3.52V18.54h-3.53V8.6c0-.48,0-1,.07-1.57L214,15.91a1.42,1.42,0,0,1-.58.63,1.5,1.5,0,0,1-.82.22h-.55a1.53,1.53,0,0,1-.82-.22,1.55,1.55,0,0,1-.58-.63L206.09,7c0,.28.06.55.07.82s0,.53,0,.76v9.94h-3.54V1.27h3.52a1,1,0,0,1,.35.06.84.84,0,0,1,.28.18,1.51,1.51,0,0,1,.24.35l4.45,8.78C211.65,10.94,211.8,11.25,212,11.57Z"/><path class="cls-3" d="M236.67,1.26V4.34h-7.1v4H235v3h-5.44v4.11h7.1v3.09H225.54V1.26Z"/><path class="cls-3" d="M249.66,4.77a1.29,1.29,0,0,1-.37.42.8.8,0,0,1-.5.15,1.18,1.18,0,0,1-.59-.18l-.71-.38a7.11,7.11,0,0,0-.91-.39,3.77,3.77,0,0,0-1.16-.17,2.51,2.51,0,0,0-1.68.48,1.64,1.64,0,0,0-.55,1.3,1.21,1.21,0,0,0,.33.87,2.89,2.89,0,0,0,.87.59,10.21,10.21,0,0,0,1.24.46c.46.13.93.29,1.41.46a11.85,11.85,0,0,1,1.42.6,4.89,4.89,0,0,1,1.23.87,4.32,4.32,0,0,1,.88,1.3A4.67,4.67,0,0,1,250.9,13a6,6,0,0,1-.42,2.24,5.2,5.2,0,0,1-1.2,1.82,5.67,5.67,0,0,1-1.95,1.22,7.16,7.16,0,0,1-2.62.44,8.36,8.36,0,0,1-1.64-.16,9.74,9.74,0,0,1-1.62-.47,8.36,8.36,0,0,1-1.47-.72,6,6,0,0,1-1.2-.92L240,14.57a1.05,1.05,0,0,1,.88-.47,1.36,1.36,0,0,1,.72.23l.82.49a5.7,5.7,0,0,0,1.05.5,3.91,3.91,0,0,0,1.4.23,2.66,2.66,0,0,0,1.69-.48,1.85,1.85,0,0,0,.61-1.53,1.39,1.39,0,0,0-.34-1,2.64,2.64,0,0,0-.87-.63,8.22,8.22,0,0,0-1.22-.44l-1.42-.42a9.46,9.46,0,0,1-1.41-.57,4.27,4.27,0,0,1-2.1-2.26,5.52,5.52,0,0,1-.33-2,4.86,4.86,0,0,1,.39-1.9A5,5,0,0,1,241,2.66a5.59,5.59,0,0,1,1.87-1.16,6.79,6.79,0,0,1,2.52-.43,9.83,9.83,0,0,1,1.55.12,8,8,0,0,1,2.69,1,6.42,6.42,0,0,1,1,.76Z"/></svg>