<svg xmlns="http://www.w3.org/2000/svg" xmlns:xlink="http://www.w3.org/1999/xlink" width="184" height="107" viewBox="0 0 184 107">
  <defs>
    <clipPath id="clip-B3_33">
      <rect width="184" height="107"/>
    </clipPath>
  </defs>
  <g id="B3_33" data-name="B3 – 33" clip-path="url(#clip-B3_33)">
    <g id="Group_43" data-name="Group 43" transform="translate(-158.542 -349.745)">
      <path id="Path_271" data-name="Path 271" d="M169.646,456.464V427.929h5.787v23.713h11.375l-.362,4.822Z" transform="translate(0 -0.062)" fill="#376172"/>
      <rect id="Rectangle_22" data-name="Rectangle 22" width="5.787" height="28.535" transform="translate(192.595 427.866)" fill="#376172"/>
      <path id="Path_272" data-name="Path 272" d="M214.208,456.464h-8.842V427.93h7.4c6.792,0,11.174,2.892,11.174,7.757a6.1,6.1,0,0,1-4.3,5.947c4.582.925,6.189,4.1,6.189,6.631,0,5.226-4.421,8.2-11.615,8.2m-1.969-24.435h-1.087v8.118h2.334c2.892,0,4.862-1.326,4.862-3.979,0-2.694-2.533-4.139-6.109-4.139m.8,12.017h-1.891v8h3.177c3.255,0,5.546-1.044,5.546-3.7,0-2.331-1.969-4.3-6.832-4.3" transform="translate(0.313 -0.062)" fill="#376172"/>
      <path id="Path_273" data-name="Path 273" d="M232.045,456.464V427.929h16.076v4.784H237.832V439.7h9.645v4.663h-9.645v7.275h11.375l-.362,4.822Z" transform="translate(0.481 -0.062)" fill="#376172"/>
      <path id="Path_274" data-name="Path 274" d="M268.452,450.114l-2.853-3.778H261.62v10.129h-5.788V427.929h8c7.034,0,11.978,3.175,11.978,9.164a7.769,7.769,0,0,1-4.421,7.313l2.933,3.618c2.975,3.576,4.3,4.22,7.114,4.622l-.764,4.14c-5.425.16-7.475-.482-12.217-6.672m-4.862-17.563h-1.97v9.565s2.049.081,3.657.081a4.255,4.255,0,0,0,4.582-4.622c0-3.175-2.652-5.024-6.269-5.024" transform="translate(0.671 -0.062)" fill="#376172"/>
      <path id="Path_275" data-name="Path 275" d="M288.981,432.751h-8.238v-4.822H303.45l-.322,4.822H294.77v23.712h-5.788Z" transform="translate(0.827 -0.062)" fill="#376172"/>
      <path id="Path_276" data-name="Path 276" d="M316.064,444.809l-10.77-16.88h6.83l7.236,11.656,7.275-11.656h6.147l-10.931,16.84v11.695h-5.787Z" transform="translate(1.084 -0.062)" fill="#376172"/>
      <rect id="Rectangle_23" data-name="Rectangle 23" width="183.404" height="1.49" transform="translate(158.542 414.905)" fill="#376172"/>
      <path id="Path_277" data-name="Path 277" d="M173.5,365.172a.935.935,0,0,1,.337.063.913.913,0,0,1,.324.218l1.887,1.984a7.828,7.828,0,0,1-3.1,2.442,10.849,10.849,0,0,1-4.413.823,10.526,10.526,0,0,1-4.187-.793,9.088,9.088,0,0,1-3.139-2.2,9.645,9.645,0,0,1-1.977-3.321,12.255,12.255,0,0,1-.689-4.172,10.985,10.985,0,0,1,.788-4.218,9.845,9.845,0,0,1,2.2-3.313,9.97,9.97,0,0,1,3.385-2.168,11.8,11.8,0,0,1,4.349-.774,11.076,11.076,0,0,1,2.174.2,10.742,10.742,0,0,1,1.908.563,9.091,9.091,0,0,1,1.633.859,7.863,7.863,0,0,1,1.323,1.105l-1.6,2.154a2.012,2.012,0,0,1-.366.359.966.966,0,0,1-.591.161,1.07,1.07,0,0,1-.479-.112,5.21,5.21,0,0,1-.478-.276l-.556-.351a4.2,4.2,0,0,0-.717-.351,5.976,5.976,0,0,0-.972-.275,6.627,6.627,0,0,0-1.3-.113,5.955,5.955,0,0,0-2.365.458,5.163,5.163,0,0,0-1.836,1.309,6.087,6.087,0,0,0-1.2,2.062,8.089,8.089,0,0,0-.429,2.717,8.446,8.446,0,0,0,.429,2.8,6.2,6.2,0,0,0,1.168,2.063,4.978,4.978,0,0,0,1.725,1.273,5.151,5.151,0,0,0,2.111.435,9.951,9.951,0,0,0,1.182-.062,4.789,4.789,0,0,0,.992-.219,4.474,4.474,0,0,0,.873-.4,5.828,5.828,0,0,0,.837-.611,1.668,1.668,0,0,1,.367-.234.978.978,0,0,1,.408-.09" fill="#231f20"/>
      <path id="Path_278" data-name="Path 278" d="M184.271,362.892v7.585h-4.757V349.97h6.671a13.61,13.61,0,0,1,3.793.459,7.1,7.1,0,0,1,2.561,1.273,4.818,4.818,0,0,1,1.443,1.927,6.406,6.406,0,0,1,.451,2.423,6.473,6.473,0,0,1-.268,1.885,5.66,5.66,0,0,1-.795,1.639,6.165,6.165,0,0,1-1.295,1.344,6.865,6.865,0,0,1-1.766.972,4.518,4.518,0,0,1,.893.591,3.508,3.508,0,0,1,.726.858l4.362,7.136h-4.306a1.827,1.827,0,0,1-1.718-.9l-3.406-5.953a1.432,1.432,0,0,0-.528-.563,1.758,1.758,0,0,0-.851-.168Zm0-3.28h1.914a4.872,4.872,0,0,0,1.653-.246,2.978,2.978,0,0,0,1.12-.683,2.619,2.619,0,0,0,.633-1.02,3.933,3.933,0,0,0,.2-1.26,2.639,2.639,0,0,0-.88-2.111,4.091,4.091,0,0,0-2.723-.76h-1.914Z" fill="#231f20"/>
      <path id="Path_279" data-name="Path 279" d="M219.177,370.477h-3.689a1.7,1.7,0,0,1-1.02-.289,1.489,1.489,0,0,1-.556-.738l-1.21-3.575h-7.8l-1.211,3.575a1.622,1.622,0,0,1-1.549,1.027H198.43l7.939-20.507h4.869ZM206,362.638h5.6l-1.886-5.615c-.123-.357-.265-.778-.429-1.26s-.326-1.007-.486-1.57q-.225.859-.464,1.59t-.451,1.267Z" transform="translate(0.267)" fill="#231f20"/>
      <path id="Path_280" data-name="Path 280" d="M234.771,349.97v3.659h-8.416v5.195h7.01V362.5h-7.01v7.98h-4.786V349.97Z" transform="translate(0.403)" fill="#231f20"/>
      <path id="Path_281" data-name="Path 281" d="M253.434,349.97v3.772h-5.77v16.735h-4.757V353.742h-5.77V349.97Z" transform="translate(0.512)" fill="#231f20"/>
      <path id="Path_282" data-name="Path 282" d="M266.6,362.214q.261.579.5,1.183c.158-.412.328-.814.506-1.2s.361-.768.549-1.135l5.264-10.37a1.659,1.659,0,0,1,.288-.415.939.939,0,0,1,.332-.218,1.12,1.12,0,0,1,.414-.07h4.173v20.491h-4.193V358.683q0-.858.084-1.859l-5.433,10.543a1.807,1.807,0,0,1-.682.746,1.889,1.889,0,0,1-.978.254h-.648a1.883,1.883,0,0,1-.978-.254,1.8,1.8,0,0,1-.683-.746l-5.461-10.556c.037.328.065.655.085.979s.028.621.028.893v11.794h-4.194V349.986h4.172a1.131,1.131,0,0,1,.416.07.94.94,0,0,1,.33.218,1.714,1.714,0,0,1,.289.415l5.278,10.413q.281.534.542,1.112" transform="translate(0.658)" fill="#231f20"/>
      <path id="Path_283" data-name="Path 283" d="M301.261,370.477h-3.689a1.7,1.7,0,0,1-1.02-.289,1.5,1.5,0,0,1-.556-.738l-1.21-3.575h-7.8l-1.212,3.575a1.619,1.619,0,0,1-1.547,1.027h-3.716l7.939-20.507h4.869Zm-13.175-7.839h5.6l-1.885-5.615c-.123-.357-.265-.778-.43-1.26s-.326-1.007-.485-1.57q-.225.859-.464,1.59t-.451,1.267Z" transform="translate(0.816)" fill="#231f20"/>
      <path id="Path_284" data-name="Path 284" d="M308.41,362.892v7.585h-4.757V349.97h6.673a13.6,13.6,0,0,1,3.791.459,7.136,7.136,0,0,1,2.564,1.273,4.832,4.832,0,0,1,1.441,1.927,6.387,6.387,0,0,1,.451,2.423,6.507,6.507,0,0,1-.268,1.885,5.662,5.662,0,0,1-.8,1.639,6.1,6.1,0,0,1-1.3,1.344,6.858,6.858,0,0,1-1.765.972,4.554,4.554,0,0,1,.894.591,3.594,3.594,0,0,1,.725.858l4.363,7.136h-4.307a1.826,1.826,0,0,1-1.718-.9L311,363.623a1.439,1.439,0,0,0-.528-.563,1.758,1.758,0,0,0-.851-.168Zm0-3.28h1.916a4.873,4.873,0,0,0,1.652-.246,2.966,2.966,0,0,0,1.119-.683,2.6,2.6,0,0,0,.634-1.02,3.932,3.932,0,0,0,.2-1.26,2.641,2.641,0,0,0-.879-2.111,4.1,4.1,0,0,0-2.723-.76H308.41Z" transform="translate(1.084)" fill="#231f20"/>
      <path id="Path_285" data-name="Path 285" d="M327.863,358.275h.759a1.733,1.733,0,0,0,1.521-.661l4.617-6.7a1.962,1.962,0,0,1,.864-.747,3.175,3.175,0,0,1,1.19-.2h4.138l-6.081,8.291a4.062,4.062,0,0,1-.675.746,4.259,4.259,0,0,1-.718.493,3.421,3.421,0,0,1,1.787,1.463l6.193,9.515h-4.251a3.65,3.65,0,0,1-.7-.057,1.73,1.73,0,0,1-.5-.168,1.475,1.475,0,0,1-.367-.275,2.712,2.712,0,0,1-.295-.372L330.7,362.47a1.4,1.4,0,0,0-.641-.557,2.794,2.794,0,0,0-1.049-.162h-1.152v8.727h-4.758V349.97h4.758Z" transform="translate(1.084)" fill="#231f20"/>
      <path id="Path_286" data-name="Path 286" d="M216.643,403h-4.786v-8.67h-8.331V403H198.74V382.5h4.786v8.572h8.331V382.5h4.786Z" transform="translate(0.264 -0.023)" fill="#231f20"/>
      <path id="Path_287" data-name="Path 287" d="M240.992,392.745a11.049,11.049,0,0,1-.767,4.137,9.767,9.767,0,0,1-5.518,5.546,12.264,12.264,0,0,1-8.719,0,10,10,0,0,1-3.37-2.217,9.894,9.894,0,0,1-2.167-3.329,11.532,11.532,0,0,1,0-8.276,9.834,9.834,0,0,1,2.167-3.322,10.011,10.011,0,0,1,3.37-2.21,11.487,11.487,0,0,1,4.364-.8,11.337,11.337,0,0,1,4.355.81,10.062,10.062,0,0,1,3.359,2.216,9.947,9.947,0,0,1,2.159,3.321,11.018,11.018,0,0,1,.767,4.126m-4.869,0a8.869,8.869,0,0,0-.4-2.739,5.794,5.794,0,0,0-1.132-2.062,4.9,4.9,0,0,0-1.808-1.3,6.215,6.215,0,0,0-2.435-.45,6.3,6.3,0,0,0-2.456.45,4.878,4.878,0,0,0-1.816,1.3,5.8,5.8,0,0,0-1.133,2.062,9.755,9.755,0,0,0,0,5.489,5.756,5.756,0,0,0,1.133,2.061,4.789,4.789,0,0,0,1.816,1.29,6.414,6.414,0,0,0,2.456.443,6.327,6.327,0,0,0,2.435-.443,4.807,4.807,0,0,0,1.808-1.29,5.755,5.755,0,0,0,1.132-2.061,8.9,8.9,0,0,0,.4-2.75" transform="translate(0.41 -0.023)" fill="#231f20"/>
      <path id="Path_288" data-name="Path 288" d="M255.032,394.741q.258.579.5,1.183c.16-.412.33-.814.507-1.2s.361-.768.549-1.135l5.265-10.37a1.633,1.633,0,0,1,.288-.415.918.918,0,0,1,.33-.218,1.133,1.133,0,0,1,.415-.071h4.174v20.493h-4.2v-11.8c0-.573.029-1.191.086-1.859l-5.435,10.543a1.781,1.781,0,0,1-.682.746,1.9,1.9,0,0,1-.978.253h-.647a1.9,1.9,0,0,1-.979-.253,1.794,1.794,0,0,1-.682-.746l-5.46-10.557q.054.493.084.98c.018.324.027.621.027.893v11.8H244V382.512h4.172a1.122,1.122,0,0,1,.415.071.913.913,0,0,1,.331.218,1.741,1.741,0,0,1,.289.415l5.278,10.413c.188.356.368.727.543,1.112" transform="translate(0.58 -0.023)" fill="#231f20"/>
      <path id="Path_289" data-name="Path 289" d="M284.371,382.5v3.658h-8.418v4.786H282.4v3.519h-6.447v4.884h8.418V403h-13.2V382.5Z" transform="translate(0.72 -0.023)" fill="#231f20"/>
      <path id="Path_290" data-name="Path 290" d="M299.8,386.663a1.785,1.785,0,0,1-.443.507.991.991,0,0,1-.6.17,1.471,1.471,0,0,1-.7-.2q-.373-.2-.844-.458a7.237,7.237,0,0,0-1.076-.457,4.312,4.312,0,0,0-1.38-.2,2.973,2.973,0,0,0-1.992.571,1.941,1.941,0,0,0-.654,1.542,1.421,1.421,0,0,0,.393,1.026,3.379,3.379,0,0,0,1.036.7A10.913,10.913,0,0,0,295,390.4c.55.166,1.111.347,1.683.548a15.435,15.435,0,0,1,1.682.712,5.586,5.586,0,0,1,1.463,1.042,4.832,4.832,0,0,1,1.035,1.54,5.483,5.483,0,0,1,.394,2.189,7.155,7.155,0,0,1-.492,2.66,6.244,6.244,0,0,1-1.429,2.162,6.681,6.681,0,0,1-2.309,1.449,8.65,8.65,0,0,1-3.117.527,10.007,10.007,0,0,1-1.949-.2,11.4,11.4,0,0,1-1.921-.556,11.117,11.117,0,0,1-1.746-.85,7.43,7.43,0,0,1-1.421-1.1l1.408-2.224a1.126,1.126,0,0,1,.435-.407,1.229,1.229,0,0,1,.606-.156,1.606,1.606,0,0,1,.85.267c.288.179.61.376.972.591a7.647,7.647,0,0,0,1.246.591,4.649,4.649,0,0,0,1.661.269,3.153,3.153,0,0,0,2.012-.571,2.17,2.17,0,0,0,.718-1.808,1.712,1.712,0,0,0-.394-1.169,3.067,3.067,0,0,0-1.034-.744,9.453,9.453,0,0,0-1.456-.522q-.819-.227-1.677-.5a12.7,12.7,0,0,1-1.675-.676,5.282,5.282,0,0,1-1.455-1.056,4.933,4.933,0,0,1-1.035-1.632,6.484,6.484,0,0,1-.394-2.415,5.7,5.7,0,0,1,.464-2.251,5.842,5.842,0,0,1,1.365-1.957,6.739,6.739,0,0,1,2.21-1.372,8.155,8.155,0,0,1,3-.514,11.182,11.182,0,0,1,1.837.148,9.6,9.6,0,0,1,1.7.435,9.316,9.316,0,0,1,1.5.691,6.939,6.939,0,0,1,1.245.907Z" transform="translate(0.826 -0.023)" fill="#231f20"/>
      <path id="Path_291" data-name="Path 291" d="M304.211,383.387a5.583,5.583,0,0,1,.2-1.508,5.7,5.7,0,0,1,.57-1.357,5.553,5.553,0,0,1,.888-1.148,5.908,5.908,0,0,1,1.148-.887,5.636,5.636,0,0,1,1.349-.575,5.746,5.746,0,0,1,3.013,0,5.656,5.656,0,0,1,1.354.575,5.872,5.872,0,0,1,1.147.887,5.588,5.588,0,0,1,.888,1.148,5.739,5.739,0,0,1,.57,1.357,5.632,5.632,0,0,1-1.458,5.506,5.8,5.8,0,0,1-1.147.887,5.617,5.617,0,0,1-5.716,0,5.832,5.832,0,0,1-1.148-.887,5.556,5.556,0,0,1-.888-1.144,5.64,5.64,0,0,1-.57-1.349,5.545,5.545,0,0,1-.2-1.505m.775,0a5.092,5.092,0,0,0,.171,1.327,4.92,4.92,0,0,0,1.249,2.194,4.794,4.794,0,0,0,2.155,1.268,4.886,4.886,0,0,0,1.311.174,4.786,4.786,0,0,0,1.919-.387,4.909,4.909,0,0,0,1.558-1.059,5,5,0,0,0,1.048-1.574,4.932,4.932,0,0,0,.384-1.943,5.074,5.074,0,0,0-.668-2.532,4.982,4.982,0,0,0-.764-1.012,4.747,4.747,0,0,0-.987-.779,4.906,4.906,0,0,0-1.176-.5,4.769,4.769,0,0,0-1.314-.178,4.7,4.7,0,0,0-1.916.392,4.848,4.848,0,0,0-1.55,1.069,5.056,5.056,0,0,0-1.42,3.54m3.768.7v2.744h-1.209v-6.917h2.233a3.292,3.292,0,0,1,1.979.485,1.682,1.682,0,0,1,.644,1.431,1.909,1.909,0,0,1-.416,1.24,2.171,2.171,0,0,1-1.237.706.886.886,0,0,1,.228.194,1.923,1.923,0,0,1,.183.27l1.768,2.591h-1.148a.42.42,0,0,1-.379-.194l-1.56-2.341a.473.473,0,0,0-.167-.155.63.63,0,0,0-.3-.054Zm0-.885h.9a2.867,2.867,0,0,0,.726-.08,1.253,1.253,0,0,0,.481-.238.9.9,0,0,0,.263-.38,1.528,1.528,0,0,0,.081-.519,1.581,1.581,0,0,0-.073-.505.778.778,0,0,0-.241-.356,1.091,1.091,0,0,0-.438-.209,2.743,2.743,0,0,0-.675-.07h-1.024Z" transform="translate(1.084 -0.018)" fill="#231f20"/>
    </g>
  </g>
</svg>
