<svg xmlns="http://www.w3.org/2000/svg" width="20" height="19.817" viewBox="0 0 20 19.817">
  <g id="Group_245" data-name="Group 245" transform="translate(-373.641 -937.165)">
    <g id="Group_241" data-name="Group 241" transform="translate(373.641 937.165)">
      <path id="Path_1775" data-name="Path 1775" d="M374.141,956.982a.5.5,0,0,1-.462-.688l1.946-4.763a8.435,8.435,0,0,1-1.983-5.375c0-4.957,4.486-8.99,10-8.99s10,4.033,10,8.99-4.486,8.99-10,8.99a10.826,10.826,0,0,1-4.3-.873l-4.961,2.65A.5.5,0,0,1,374.141,956.982Zm9.5-18.818c-4.963,0-9,3.585-9,7.992a7.366,7.366,0,0,0,1.935,4.949.5.5,0,0,1,.089.521l-1.538,3.764,3.955-2.113a.5.5,0,0,1,.443-.014,9.821,9.821,0,0,0,4.117.883c4.963,0,9-3.585,9-7.992S388.6,938.164,383.641,938.164Z" transform="translate(-373.641 -937.165)" fill="#195eb2"/>
    </g>
    <g id="Group_242" data-name="Group 242" transform="translate(381.217 944.874)">
      <path id="Path_1776" data-name="Path 1776" d="M430.466,996.382c-.4.05-.855.061-.961-.119-.2-.338.388-3.264.388-3.692a1.211,1.211,0,0,0-1.364-1.364,3.283,3.283,0,0,0-1.7.529.167.167,0,0,0,.107.308c.4-.05.855-.061.961.119.2.338-.388,3.265-.388,3.693a1.211,1.211,0,0,0,1.363,1.364,3.283,3.283,0,0,0,1.7-.529A.167.167,0,0,0,430.466,996.382Z" transform="translate(-426.746 -991.207)" fill="#195eb2"/>
    </g>
    <g id="Group_243" data-name="Group 243" transform="translate(382.942 941.889)">
      <circle id="Ellipse_32" data-name="Ellipse 32" cx="1.035" cy="1.035" r="1.035" fill="#195eb2"/>
    </g>
  </g>
</svg>
