<svg xmlns="http://www.w3.org/2000/svg" width="20" height="20.051" viewBox="0 0 20 20.051">
  <g id="Group_239" data-name="Group 239" transform="translate(-1025.898 -716.36)">
    <g id="Group_238" data-name="Group 238" transform="translate(1025.898 716.36)">
      <path id="Path_1771" data-name="Path 1771" d="M1026.4,735.827a.5.5,0,0,1-.465-.692l1.894-4.639a8.156,8.156,0,0,1-1.931-5.251c0-4.9,4.486-8.885,10-8.885s10,3.986,10,8.885a7.982,7.982,0,0,1-.642,3.14.5.5,0,1,1-.924-.393,6.988,6.988,0,0,0,.562-2.747c0-4.346-4.036-7.881-9-7.881s-9,3.536-9,7.881a7.207,7.207,0,0,0,1.884,4.825.5.5,0,0,1,.089.523l-1.508,3.694,4.042-2a.5.5,0,0,1,.427-.009,9.935,9.935,0,0,0,4.063.848.5.5,0,0,1,0,1,10.952,10.952,0,0,1-4.253-.841l-5.022,2.485A.5.5,0,0,1,1026.4,735.827Z" transform="translate(-1025.898 -716.36)" fill="#195eb2"/>
    </g>
    <circle id="Ellipse_29" data-name="Ellipse 29" cx="0.747" cy="0.747" r="0.747" transform="translate(1031.428 724.279)" fill="#195eb2"/>
    <circle id="Ellipse_30" data-name="Ellipse 30" cx="0.747" cy="0.747" r="0.747" transform="translate(1035.151 724.279)" fill="#195eb2"/>
    <circle id="Ellipse_31" data-name="Ellipse 31" cx="0.747" cy="0.747" r="0.747" transform="translate(1038.779 724.279)" fill="#195eb2"/>
    <path id="Path_1772" data-name="Path 1772" d="M1109.454,798.443l-4.8-4.8a.5.5,0,0,0-.245-.135l-2.959-.663a.5.5,0,0,0-.593.625l.792,2.83a.5.5,0,0,0,.128.22l4.8,4.8a2.035,2.035,0,0,0,2.877-2.877Zm-7.407-4.437,2,.447,3.315,3.315-1.458,1.457-3.325-3.325Zm5.24,6.6-.674-.674,1.458-1.458.674.674a1.031,1.031,0,0,1-1.458,1.458Z" transform="translate(-64.191 -65.504)" fill="#195eb2"/>
  </g>
</svg>
