<svg xmlns="http://www.w3.org/2000/svg" width="20" height="11.225" viewBox="0 0 20 11.225">
  <path id="Path_1770" data-name="Path 1770" d="M1301.724,900.307l-.67-.823a.478.478,0,0,0-.818.132,13.217,13.217,0,0,1-2.256,3.982,3.92,3.92,0,0,0-3.382-3.311,7.477,7.477,0,0,0-3.176.26,25.443,25.443,0,0,1-3.344.591,8.689,8.689,0,0,1-5.5-1.045.478.478,0,0,0-.742.482,13.28,13.28,0,0,0,3.9,7.726,8.765,8.765,0,0,0,5.893,2.231h0a6.08,6.08,0,0,0,5.051-2.365,6.856,6.856,0,0,0,1.284-2.905,13.657,13.657,0,0,0,3.811-4.439A.478.478,0,0,0,1301.724,900.307Zm-5.8,7.278a5.119,5.119,0,0,1-4.292,1.991h0a7.821,7.821,0,0,1-5.258-1.99,11.722,11.722,0,0,1-3.385-6.2,10.268,10.268,0,0,0,5.191.707,26.26,26.26,0,0,0,3.458-.611,6.562,6.562,0,0,1,2.819-.245,3.05,3.05,0,0,1,2.638,3.183c0,.018,0,.038,0,.057a6.545,6.545,0,0,1-2.135,1.233,7.663,7.663,0,0,1-4.923-.157,11.312,11.312,0,0,1-1.558-.7.478.478,0,0,0-.479.828,9.9,9.9,0,0,0,2.456,1.009,8.9,8.9,0,0,0,2.377.333,8.1,8.1,0,0,0,2.45-.379,8.87,8.87,0,0,0,1.5-.631A5.9,5.9,0,0,1,1295.928,907.585Z" transform="translate(-1281.832 -899.308)" fill="#195eb2"/>
</svg>
