<svg xmlns="http://www.w3.org/2000/svg" width="20" height="20" viewBox="0 0 20 20">
  <g id="Group_237" data-name="Group 237" transform="translate(-1282.511 -707.726)">
    <g id="Group_235" data-name="Group 235" transform="translate(1282.511 707.726)">
      <path id="Path_1768" data-name="Path 1768" d="M1293.188,727.726h-1.353a1.206,1.206,0,0,1-1.205-1.205v-.933a.148.148,0,0,0-.111-.143,7.929,7.929,0,0,1-2.055-.853h0a.151.151,0,0,0-.18.023l-.661.661a1.2,1.2,0,0,1-.851.353h0a1.2,1.2,0,0,1-.854-.353l-.957-.957a1.2,1.2,0,0,1,0-1.7l.66-.661a.148.148,0,0,0,.023-.18,7.915,7.915,0,0,1-.853-2.055.148.148,0,0,0-.143-.111h-.933a1.207,1.207,0,0,1-1.205-1.205v-1.353a1.207,1.207,0,0,1,1.205-1.205h.933a.148.148,0,0,0,.143-.111,7.921,7.921,0,0,1,.853-2.055.148.148,0,0,0-.023-.18l-.661-.661a1.205,1.205,0,0,1,0-1.7l.957-.957a1.2,1.2,0,0,1,1.7,0l.66.66a.149.149,0,0,0,.18.023,7.922,7.922,0,0,1,2.055-.853.148.148,0,0,0,.111-.143v-.933a1.207,1.207,0,0,1,1.205-1.205h1.353a1.207,1.207,0,0,1,1.205,1.205v.933a.148.148,0,0,0,.111.143,7.923,7.923,0,0,1,2.055.853.148.148,0,0,0,.18-.023l.661-.661a1.206,1.206,0,0,1,1.7,0l.957.957a1.205,1.205,0,0,1,0,1.7l-.661.66a.148.148,0,0,0-.023.18,7.941,7.941,0,0,1,.853,2.055.148.148,0,0,0,.143.111h.932a1.207,1.207,0,0,1,1.205,1.205V718.4a1.207,1.207,0,0,1-1.205,1.205h-.932a.148.148,0,0,0-.143.111,7.925,7.925,0,0,1-.853,2.055.148.148,0,0,0,.023.18l.661.661a1.205,1.205,0,0,1,0,1.7l-.957.957a1.205,1.205,0,0,1-1.7,0l-.661-.661a.148.148,0,0,0-.18-.023,7.921,7.921,0,0,1-2.055.853.148.148,0,0,0-.111.143v.933A1.206,1.206,0,0,1,1293.188,727.726Zm-4.232-3.967a6.963,6.963,0,0,0,1.8.749,1.115,1.115,0,0,1,.837,1.08v.933a.238.238,0,0,0,.238.238h1.353a.238.238,0,0,0,.238-.238v-.933a1.115,1.115,0,0,1,.837-1.08,6.96,6.96,0,0,0,1.8-.749,1.115,1.115,0,0,1,1.357.171l.661.661a.232.232,0,0,0,.167.07.236.236,0,0,0,.168-.069l.957-.957a.237.237,0,0,0,.069-.169.231.231,0,0,0-.069-.166l-.661-.661a1.115,1.115,0,0,1-.171-1.357,6.963,6.963,0,0,0,.749-1.8,1.115,1.115,0,0,1,1.08-.837h.932a.238.238,0,0,0,.238-.238v-1.353a.238.238,0,0,0-.238-.238h-.932a1.115,1.115,0,0,1-1.08-.837,6.976,6.976,0,0,0-.749-1.8,1.115,1.115,0,0,1,.171-1.357l.661-.661a.233.233,0,0,0,.07-.167.236.236,0,0,0-.069-.168l-.957-.957a.237.237,0,0,0-.169-.069.231.231,0,0,0-.167.069l-.661.661a1.115,1.115,0,0,1-1.357.171,6.955,6.955,0,0,0-1.8-.749,1.115,1.115,0,0,1-.837-1.08v-.933a.238.238,0,0,0-.238-.238h-1.353a.238.238,0,0,0-.238.238v.933a1.115,1.115,0,0,1-.837,1.08,6.962,6.962,0,0,0-1.8.749,1.115,1.115,0,0,1-1.357-.171l-.661-.661a.232.232,0,0,0-.167-.07.235.235,0,0,0-.168.069l-.957.957a.237.237,0,0,0-.07.169.231.231,0,0,0,.069.167l.661.661a1.115,1.115,0,0,1,.172,1.356,6.957,6.957,0,0,0-.749,1.8,1.115,1.115,0,0,1-1.08.836h-.933a.238.238,0,0,0-.238.238V718.4a.238.238,0,0,0,.238.238h.933a1.115,1.115,0,0,1,1.08.836,6.96,6.96,0,0,0,.749,1.8,1.115,1.115,0,0,1-.172,1.356l-.66.661a.232.232,0,0,0-.07.167.236.236,0,0,0,.069.168l.957.957a.237.237,0,0,0,.169.07.231.231,0,0,0,.167-.069l.661-.661a1.118,1.118,0,0,1,1.357-.171Z" transform="translate(-1282.511 -707.726)" fill="#195eb2"/>
    </g>
    <g id="Group_236" data-name="Group 236" transform="translate(1287.336 712.552)">
      <path id="Path_1769" data-name="Path 1769" d="M1322.6,752.986a5.175,5.175,0,1,1,5.174-5.175A5.18,5.18,0,0,1,1322.6,752.986Zm0-9.381a4.207,4.207,0,1,0,4.207,4.207A4.212,4.212,0,0,0,1322.6,743.6Z" transform="translate(-1317.422 -742.637)" fill="#195eb2"/>
    </g>
  </g>
</svg>
