<svg xmlns="http://www.w3.org/2000/svg" width="19.977" height="19.977" viewBox="0 0 19.977 19.977">
  <path id="Path_1766" data-name="Path 1766" d="M1805.073,297.162H1788.36a1.634,1.634,0,0,0-1.632,1.632v16.714a1.624,1.624,0,0,0,.441,1.112l.013.015.054.054,0,0h0a1.624,1.624,0,0,0,1.117.446h16.714a1.633,1.633,0,0,0,1.632-1.632V298.794A1.633,1.633,0,0,0,1805.073,297.162Zm-16.714.958h16.714a.674.674,0,0,1,.674.674v15.1l-5.65-6.677a1.575,1.575,0,0,0-2.425.025l-4.659,5.745-.5-.592a1.573,1.573,0,0,0-2.423.025l-2.4,2.964V298.794A.674.674,0,0,1,1788.36,298.12Zm-.081,18.053,2.555-3.15a.615.615,0,0,1,.948-.01l.869,1.027,0,0,1.809,2.139h-6.1A.66.66,0,0,1,1788.279,316.173Zm16.794.008h-9.357l-2.073-2.45,4.773-5.886a.614.614,0,0,1,.472-.228h.007a.615.615,0,0,1,.47.218l6.357,7.514c.007.008.016.014.024.022v.136A.674.674,0,0,1,1805.073,316.181Z" transform="translate(-1786.728 -297.162)" fill="#195eb2"/>
</svg>
