<svg xmlns="http://www.w3.org/2000/svg" width="19.752" height="18.115" viewBox="0 0 19.752 18.115">
  <path id="heart" d="M17.092,28.689a1.334,1.334,0,0,1-.476-.088c-.211-.079-2.12-.858-4.752-3.8-1.388-1.552-4.55-5.543-3.935-9.1a4.562,4.562,0,0,1,2.426-3.3c2.958-1.606,5.4.627,6.738,2.219,1.33-1.592,3.775-3.818,6.738-2.219a4.562,4.562,0,0,1,2.426,3.3c.615,3.558-2.547,7.549-3.935,9.1-2.632,2.942-4.541,3.722-4.752,3.8A1.334,1.334,0,0,1,17.092,28.689Z" transform="translate(-7.216 -11.2)" fill="none" stroke="#195eb2" stroke-width="1.25"/>
</svg>
