<svg xmlns="http://www.w3.org/2000/svg" width="315" height="212.5" viewBox="0 0 315 212.5">
  <g id="Group_99994" data-name="Group 99994" transform="translate(-603 -147)">
    <rect id="Rectangle_17041" data-name="Rectangle 17041" width="112" height="157" rx="56" transform="translate(703 147)" fill="#fff" opacity="0.693"/>
    <g id="Group_99993" data-name="Group 99993" transform="translate(-25 -37)">
      <g id="Group_99990" data-name="Group 99990" transform="translate(1135 203)">
        <path id="Path_5856" data-name="Path 5856" d="M6.286,661.668c7.554,0,11.341,2.864,11.341,7.862a8.586,8.586,0,0,1-8.977,8.746,29.171,29.171,0,0,1-4.729-.481v10.784H0V661.668ZM3.921,676.681a27.479,27.479,0,0,0,4.094.308c.365,0,.73,0,1.1-.019,2.6-.846,4.383-3.152,4.383-6.939,0-6.689-5.5-7.112-7.554-7.112H3.921Z" transform="translate(-506 -495.618)" fill="#fff"/>
        <path id="Path_5857" data-name="Path 5857" d="M83.192,673.754c0-7.42,5.4-14.032,12.264-14.032,6.882,0,12.283,6.612,12.283,14.032s-5.4,13.956-12.283,13.956c-6.862,0-12.264-6.536-12.264-13.956m12.937,12.8c4.613-.6,7.554-4.767,7.554-11.591,0-7.727-3.806-13.532-9.054-14.109-4.46.654-7.382,4.652-7.382,11.687,0,7.67,3.5,13.456,8.881,14.013" transform="translate(-566.184 -494.21)" fill="#fff"/>
        <path id="Path_5858" data-name="Path 5858" d="M181.394,661.668h18.819v1.4c-1.1-.038-6.19-.154-7.362-.154v25.662h-3.921V662.917h-.134c-1.134,0-6.305.115-7.4.154Z" transform="translate(-637.226 -495.618)" fill="#fff"/>
        <path id="Path_5859" data-name="Path 5859" d="M258.886,673.754c0-7.42,5.4-14.032,12.264-14.032,6.882,0,12.283,6.612,12.283,14.032s-5.4,13.956-12.283,13.956c-6.862,0-12.264-6.536-12.264-13.956m12.937,12.8c4.613-.6,7.554-4.767,7.554-11.591,0-7.727-3.806-13.532-9.054-14.109-4.46.654-7.382,4.652-7.382,11.687,0,7.67,3.5,13.456,8.881,14.013" transform="translate(-693.287 -494.21)" fill="#fff"/>
        <path id="Path_5860" data-name="Path 5860" d="M372.307,667.934v9.5c0,3.268.154,10.668.173,11.149h-1.422V661.668H374l9.88,23.125,9.3-23.125H396.2v26.911h-3.941V667.3l-8.573,21.279h-2.576Z" transform="translate(-774.435 -495.618)" fill="#fff"/>
        <path id="Path_5861" data-name="Path 5861" d="M496.941,680.39H487c-1.365,4.075-2.4,7.362-2.614,8.189h-1.576l9.3-26.911h2.6l9.112,26.911H499.69Zm-.423-1.269-4.5-13.379-4.383,12.821c-.058.192-.135.365-.192.557Z" transform="translate(-855.282 -495.618)" fill="#fff"/>
        <path id="Path_5862" data-name="Path 5862" d="M593.155,682.4a11.579,11.579,0,0,1-9.554,5.305c-6.862,0-12.245-6.382-12.245-13.917,0-7.42,5.286-14.071,12.495-14.071a21.97,21.97,0,0,1,7.9,1.576l-1.192,3.479c-1.557-1.057-6.19-3.729-7.343-3.864-5.267.519-7.881,4.306-7.881,11.341,0,8.323,4.114,13.706,9.707,13.706a7.926,7.926,0,0,0,7-4.383Z" transform="translate(-919.338 -494.209)" fill="#fff"/>
        <path id="Path_5863" data-name="Path 5863" d="M733.821,682.4a11.579,11.579,0,0,1-9.554,5.305c-6.862,0-12.245-6.382-12.245-13.917,0-7.42,5.286-14.071,12.495-14.071a21.97,21.97,0,0,1,7.9,1.576l-1.192,3.479c-1.557-1.057-6.19-3.729-7.343-3.864-5.267.519-7.881,4.306-7.881,11.341,0,8.323,4.114,13.706,9.707,13.706a7.926,7.926,0,0,0,7-4.383Z" transform="translate(-1021.101 -494.209)" fill="#fff"/>
        <path id="Path_5864" data-name="Path 5864" d="M813.63,661.667h3.921v12.495h12.206V661.667h3.921v26.911h-3.921V675.411H817.551v13.167H813.63Z" transform="translate(-1094.606 -495.617)" fill="#fff"/>
        <path id="Path_5865" data-name="Path 5865" d="M921.095,680.39h-9.938c-1.365,4.075-2.4,7.362-2.614,8.189h-1.576l9.3-26.911h2.6l9.112,26.911h-4.133Zm-.423-1.269-4.5-13.379-4.383,12.821c-.057.192-.135.365-.192.557Z" transform="translate(-1162.129 -495.618)" fill="#fff"/>
        <path id="Path_5866" data-name="Path 5866" d="M1013.579,663.509a10.674,10.674,0,0,0-6.074-2.518,3.939,3.939,0,0,0-4.248,3.96c0,2.249,1.269,3.729,5.421,6.747,4.844,3.518,6.286,5.113,6.286,8.266,0,4.748-4.056,7.747-8.419,7.747a12.121,12.121,0,0,1-6.862-2.46l.788-1.288a8.3,8.3,0,0,0,5.613,2.422c3.172,0,5.344-2.057,5.344-4.979,0-2.422-1.48-3.883-5.248-6.478-3.883-2.672-5.728-5.113-5.728-8.285a6.735,6.735,0,0,1,7-6.92,12.314,12.314,0,0,1,6.9,2.537Z" transform="translate(-1229.202 -494.21)" fill="#fff"/>
        <path id="Path_5867" data-name="Path 5867" d="M1080.438,661.668h15.013v1.4c-1.1-.038-6.132-.154-7.689-.154h-3.4v11.245h2.172c1.25,0,6.574-.038,7.689-.077v1.4c-1.115-.038-6.439-.077-7.689-.077h-2.172V687.33h3.576c1.538,0,6.574-.115,7.689-.154v1.4h-15.186Z" transform="translate(-1287.624 -495.618)" fill="#fff"/>
        <path id="Path_5868" data-name="Path 5868" d="M575.254,309.814c-.106-.123-.208-.245-.309-.366.193.24.309.366.309.366" transform="translate(-921.934 -240.81)" fill="#fff"/>
        <path id="Path_5869" data-name="Path 5869" d="M510.061,185.025c-3.114,5.3-8.416,11.088-17.7,11.088-8.574,0-15.773-5-20.118-13.618a38.555,38.555,0,0,1-2.865-7.755v0a50.834,50.834,0,0,1-1.469-9.605.181.181,0,0,0,0-.039c0-.564-.028-1.109-.077-1.632a14.824,14.824,0,0,0-7.63-11.87,39.364,39.364,0,0,0-2.47,13.735,38.84,38.84,0,0,0,3.93,17.116q-.763.336-1.568.6c-.924.047-1.85.047-2.774.047a69.485,69.485,0,0,1-10.36-.777V147.49h5.108a25.654,25.654,0,0,1,9.2,1.546,14.757,14.757,0,0,1,6.939,5.338c2.182,2.749,3.272,8.386,2.923,13.223v0a19.775,19.775,0,0,0,4.054,11.83c.1.121.2.243.309.366,9.362-9.287,8.427-28.033-5.706-32.765a20.814,20.814,0,0,1,6.635-10.042,21.046,21.046,0,0,1,11.323-4.251c2.918.34,14.639,7.1,18.58,9.777l3.015-8.8c-6.226-2.821-15.125-3.988-19.99-3.988-11.151,0-20.48,6.292-26.05,15.471a56.9,56.9,0,0,0-10.352-.866H437.033v68.094h9.92V185.136a73.894,73.894,0,0,0,11.967,1.217,26.257,26.257,0,0,0,4.7-.418c5.589,8.781,14.664,14.606,25.087,14.606,10.9,0,19.65-6.422,24.175-13.425Z" transform="translate(-822.164 -110.791)" fill="#fff"/>
        <path id="Path_5870" data-name="Path 5870" d="M430.967,160.109a51.337,51.337,0,0,1-51.279-51.279V63.438a51.279,51.279,0,0,1,102.558,0v45.393a51.337,51.337,0,0,1-51.279,51.279m0-147.4a50.783,50.783,0,0,0-50.726,50.726v45.393a50.726,50.726,0,0,0,101.452,0V63.438a50.783,50.783,0,0,0-50.726-50.726" transform="translate(-780.679 -25.742)" fill="#fff"/>
        <path id="Path_5871" data-name="Path 5871" d="M422.383,154.676a54.622,54.622,0,0,1-54.56-54.56V54.56a54.56,54.56,0,0,1,109.121,0v45.556a54.622,54.622,0,0,1-54.56,54.56m0-153.293A53.238,53.238,0,0,0,369.206,54.56v45.556a53.178,53.178,0,0,0,106.355,0V54.56A53.238,53.238,0,0,0,422.383,1.383" transform="translate(-772.095 -16.945)" fill="#fff"/>
      </g>
      <g id="Group_99989" data-name="Group 99989" transform="translate(1134 202)">
        <path id="Path_5856-2" data-name="Path 5856" d="M6.286,661.668c7.554,0,11.341,2.864,11.341,7.862a8.586,8.586,0,0,1-8.977,8.746,29.171,29.171,0,0,1-4.729-.481v10.784H0V661.668ZM3.921,676.681a27.479,27.479,0,0,0,4.094.308c.365,0,.73,0,1.1-.019,2.6-.846,4.383-3.152,4.383-6.939,0-6.689-5.5-7.112-7.554-7.112H3.921Z" transform="translate(-506 -495.618)" fill="#87630d"/>
        <path id="Path_5857-2" data-name="Path 5857" d="M83.192,673.754c0-7.42,5.4-14.032,12.264-14.032,6.882,0,12.283,6.612,12.283,14.032s-5.4,13.956-12.283,13.956c-6.862,0-12.264-6.536-12.264-13.956m12.937,12.8c4.613-.6,7.554-4.767,7.554-11.591,0-7.727-3.806-13.532-9.054-14.109-4.46.654-7.382,4.652-7.382,11.687,0,7.67,3.5,13.456,8.881,14.013" transform="translate(-566.184 -494.21)" fill="#87630d"/>
        <path id="Path_5858-2" data-name="Path 5858" d="M181.394,661.668h18.819v1.4c-1.1-.038-6.19-.154-7.362-.154v25.662h-3.921V662.917h-.134c-1.134,0-6.305.115-7.4.154Z" transform="translate(-637.226 -495.618)" fill="#87630d"/>
        <path id="Path_5859-2" data-name="Path 5859" d="M258.886,673.754c0-7.42,5.4-14.032,12.264-14.032,6.882,0,12.283,6.612,12.283,14.032s-5.4,13.956-12.283,13.956c-6.862,0-12.264-6.536-12.264-13.956m12.937,12.8c4.613-.6,7.554-4.767,7.554-11.591,0-7.727-3.806-13.532-9.054-14.109-4.46.654-7.382,4.652-7.382,11.687,0,7.67,3.5,13.456,8.881,14.013" transform="translate(-693.287 -494.21)" fill="#87630d"/>
        <path id="Path_5860-2" data-name="Path 5860" d="M372.307,667.934v9.5c0,3.268.154,10.668.173,11.149h-1.422V661.668H374l9.88,23.125,9.3-23.125H396.2v26.911h-3.941V667.3l-8.573,21.279h-2.576Z" transform="translate(-774.435 -495.618)" fill="#87630d"/>
        <path id="Path_5861-2" data-name="Path 5861" d="M496.941,680.39H487c-1.365,4.075-2.4,7.362-2.614,8.189h-1.576l9.3-26.911h2.6l9.112,26.911H499.69Zm-.423-1.269-4.5-13.379-4.383,12.821c-.058.192-.135.365-.192.557Z" transform="translate(-855.282 -495.618)" fill="#87630d"/>
        <path id="Path_5862-2" data-name="Path 5862" d="M593.155,682.4a11.579,11.579,0,0,1-9.554,5.305c-6.862,0-12.245-6.382-12.245-13.917,0-7.42,5.286-14.071,12.495-14.071a21.97,21.97,0,0,1,7.9,1.576l-1.192,3.479c-1.557-1.057-6.19-3.729-7.343-3.864-5.267.519-7.881,4.306-7.881,11.341,0,8.323,4.114,13.706,9.707,13.706a7.926,7.926,0,0,0,7-4.383Z" transform="translate(-919.338 -494.209)" fill="#87630d"/>
        <path id="Path_5863-2" data-name="Path 5863" d="M733.821,682.4a11.579,11.579,0,0,1-9.554,5.305c-6.862,0-12.245-6.382-12.245-13.917,0-7.42,5.286-14.071,12.495-14.071a21.97,21.97,0,0,1,7.9,1.576l-1.192,3.479c-1.557-1.057-6.19-3.729-7.343-3.864-5.267.519-7.881,4.306-7.881,11.341,0,8.323,4.114,13.706,9.707,13.706a7.926,7.926,0,0,0,7-4.383Z" transform="translate(-1021.101 -494.209)" fill="#87630d"/>
        <path id="Path_5864-2" data-name="Path 5864" d="M813.63,661.667h3.921v12.495h12.206V661.667h3.921v26.911h-3.921V675.411H817.551v13.167H813.63Z" transform="translate(-1094.606 -495.617)" fill="#87630d"/>
        <path id="Path_5865-2" data-name="Path 5865" d="M921.095,680.39h-9.938c-1.365,4.075-2.4,7.362-2.614,8.189h-1.576l9.3-26.911h2.6l9.112,26.911h-4.133Zm-.423-1.269-4.5-13.379-4.383,12.821c-.057.192-.135.365-.192.557Z" transform="translate(-1162.129 -495.618)" fill="#87630d"/>
        <path id="Path_5866-2" data-name="Path 5866" d="M1013.579,663.509a10.674,10.674,0,0,0-6.074-2.518,3.939,3.939,0,0,0-4.248,3.96c0,2.249,1.269,3.729,5.421,6.747,4.844,3.518,6.286,5.113,6.286,8.266,0,4.748-4.056,7.747-8.419,7.747a12.121,12.121,0,0,1-6.862-2.46l.788-1.288a8.3,8.3,0,0,0,5.613,2.422c3.172,0,5.344-2.057,5.344-4.979,0-2.422-1.48-3.883-5.248-6.478-3.883-2.672-5.728-5.113-5.728-8.285a6.735,6.735,0,0,1,7-6.92,12.314,12.314,0,0,1,6.9,2.537Z" transform="translate(-1229.202 -494.21)" fill="#87630d"/>
        <path id="Path_5867-2" data-name="Path 5867" d="M1080.438,661.668h15.013v1.4c-1.1-.038-6.132-.154-7.689-.154h-3.4v11.245h2.172c1.25,0,6.574-.038,7.689-.077v1.4c-1.115-.038-6.439-.077-7.689-.077h-2.172V687.33h3.576c1.538,0,6.574-.115,7.689-.154v1.4h-15.186Z" transform="translate(-1287.624 -495.618)" fill="#87630d"/>
        <path id="Path_5868-2" data-name="Path 5868" d="M575.254,309.814c-.106-.123-.208-.245-.309-.366.193.24.309.366.309.366" transform="translate(-921.934 -240.81)" fill="#87630d"/>
        <path id="Path_5869-2" data-name="Path 5869" d="M510.061,185.025c-3.114,5.3-8.416,11.088-17.7,11.088-8.574,0-15.773-5-20.118-13.618a38.555,38.555,0,0,1-2.865-7.755v0a50.834,50.834,0,0,1-1.469-9.605.181.181,0,0,0,0-.039c0-.564-.028-1.109-.077-1.632a14.824,14.824,0,0,0-7.63-11.87,39.364,39.364,0,0,0-2.47,13.735,38.84,38.84,0,0,0,3.93,17.116q-.763.336-1.568.6c-.924.047-1.85.047-2.774.047a69.485,69.485,0,0,1-10.36-.777V147.49h5.108a25.654,25.654,0,0,1,9.2,1.546,14.757,14.757,0,0,1,6.939,5.338c2.182,2.749,3.272,8.386,2.923,13.223v0a19.775,19.775,0,0,0,4.054,11.83c.1.121.2.243.309.366,9.362-9.287,8.427-28.033-5.706-32.765a20.814,20.814,0,0,1,6.635-10.042,21.046,21.046,0,0,1,11.323-4.251c2.918.34,14.639,7.1,18.58,9.777l3.015-8.8c-6.226-2.821-15.125-3.988-19.99-3.988-11.151,0-20.48,6.292-26.05,15.471a56.9,56.9,0,0,0-10.352-.866H437.033v68.094h9.92V185.136a73.894,73.894,0,0,0,11.967,1.217,26.257,26.257,0,0,0,4.7-.418c5.589,8.781,14.664,14.606,25.087,14.606,10.9,0,19.65-6.422,24.175-13.425Z" transform="translate(-822.164 -110.791)" fill="#87630d"/>
        <path id="Path_5870-2" data-name="Path 5870" d="M430.967,160.109a51.337,51.337,0,0,1-51.279-51.279V63.438a51.279,51.279,0,0,1,102.558,0v45.393a51.337,51.337,0,0,1-51.279,51.279m0-147.4a50.783,50.783,0,0,0-50.726,50.726v45.393a50.726,50.726,0,0,0,101.452,0V63.438a50.783,50.783,0,0,0-50.726-50.726" transform="translate(-780.679 -25.742)" fill="#87630d"/>
        <path id="Path_5871-2" data-name="Path 5871" d="M422.383,154.676a54.622,54.622,0,0,1-54.56-54.56V54.56a54.56,54.56,0,0,1,109.121,0v45.556a54.622,54.622,0,0,1-54.56,54.56m0-153.293A53.238,53.238,0,0,0,369.206,54.56v45.556a53.178,53.178,0,0,0,106.355,0V54.56A53.238,53.238,0,0,0,422.383,1.383" transform="translate(-772.095 -16.945)" fill="#87630d"/>
      </g>
    </g>
  </g>
</svg>
