<svg id="Layer_1" data-name="Layer 1" xmlns="http://www.w3.org/2000/svg" viewBox="0 0 485.93 141.53"><defs><style>.cls-1{fill:#001436;}</style></defs><title>B3</title><path class="cls-1" d="M25.22,132a1.5,1.5,0,0,1,.55.11,1.44,1.44,0,0,1,.53.35l3.08,3.24a12.55,12.55,0,0,1-5.07,4,17.67,17.67,0,0,1-7.21,1.35,17.13,17.13,0,0,1-6.84-1.3,14.8,14.8,0,0,1-5.12-3.59,15.78,15.78,0,0,1-3.24-5.42,20.12,20.12,0,0,1-1.12-6.82,18,18,0,0,1,1.29-6.89,16,16,0,0,1,3.59-5.42,16.5,16.5,0,0,1,5.53-3.54,19.38,19.38,0,0,1,7.11-1.26A17.6,17.6,0,0,1,25,108.08a15,15,0,0,1,2.67,1.4,13.27,13.27,0,0,1,2.16,1.81l-2.62,3.52a3.31,3.31,0,0,1-.6.58,1.53,1.53,0,0,1-1,.27,1.66,1.66,0,0,1-.78-.19c-.24-.12-.5-.27-.78-.44l-.91-.58a6.38,6.38,0,0,0-1.17-.57,9,9,0,0,0-1.59-.45,10.93,10.93,0,0,0-2.13-.19,9.7,9.7,0,0,0-3.86.75,8.55,8.55,0,0,0-3,2.14,9.73,9.73,0,0,0-2,3.37,13.17,13.17,0,0,0-.71,4.44,13.76,13.76,0,0,0,.71,4.58,10,10,0,0,0,1.9,3.36A8.14,8.14,0,0,0,14.16,134a8.33,8.33,0,0,0,3.45.72,16.09,16.09,0,0,0,1.93-.11,7.72,7.72,0,0,0,1.62-.35,7.42,7.42,0,0,0,1.43-.66,9.68,9.68,0,0,0,1.37-1,2.65,2.65,0,0,1,.6-.38,1.52,1.52,0,0,1,.66-.15Z"/><path class="cls-1" d="M42.81,123h3.13a8.18,8.18,0,0,0,2.7-.4,4.77,4.77,0,0,0,1.83-1.12,4.21,4.21,0,0,0,1-1.67,6.48,6.48,0,0,0,.32-2.05,4.29,4.29,0,0,0-1.44-3.45A6.68,6.68,0,0,0,45.94,113H42.81V123Zm0,5.36V140.7H35V107.19h10.9a22.71,22.71,0,0,1,6.2.75A11.62,11.62,0,0,1,56.32,110a7.8,7.8,0,0,1,2.36,3.14,10.49,10.49,0,0,1,.74,4,10.62,10.62,0,0,1-.44,3.08,9.12,9.12,0,0,1-1.3,2.68,10,10,0,0,1-2.12,2.2,11.06,11.06,0,0,1-2.88,1.58,7.88,7.88,0,0,1,1.46,1,5.59,5.59,0,0,1,1.18,1.4l7.13,11.66h-7a3,3,0,0,1-2.81-1.47L47,129.5a2.34,2.34,0,0,0-.86-.92,2.93,2.93,0,0,0-1.39-.27Z"/><path class="cls-1" d="M78.32,127.89h9.15l-3.08-9.17-.7-2.06c-.27-.79-.53-1.64-.79-2.57-.25.94-.5,1.81-.76,2.6s-.51,1.49-.74,2.07l-3.08,9.13ZM99.84,140.7h-6a2.84,2.84,0,0,1-1.67-.47,2.48,2.48,0,0,1-.91-1.21l-2-5.84H76.53l-2,5.84a2.65,2.65,0,0,1-.9,1.17,2.6,2.6,0,0,1-1.63.51H66l13-33.51h8l13,33.51Z"/><polygon class="cls-1" points="125.32 107.19 125.32 113.17 111.57 113.17 111.57 121.66 123.02 121.66 123.02 127.66 111.57 127.66 111.57 140.7 103.75 140.7 103.75 107.19 125.32 107.19 125.32 107.19"/><polygon class="cls-1" points="155.82 107.19 155.82 113.36 146.39 113.36 146.39 140.7 138.62 140.7 138.62 113.36 129.19 113.36 129.19 107.19 155.82 107.19 155.82 107.19"/><path class="cls-1" d="M177.33,127.2c.28.63.55,1.28.81,1.93.26-.67.54-1.33.83-2s.59-1.26.9-1.86l8.6-16.94a2.77,2.77,0,0,1,.47-.68,1.44,1.44,0,0,1,.54-.35,1.83,1.83,0,0,1,.68-.12H197V140.7h-6.85V121.43c0-.93,0-2,.13-3l-8.87,17.23a3,3,0,0,1-1.12,1.22,3.15,3.15,0,0,1-1.6.41h-1a3.12,3.12,0,0,1-1.6-.41,3,3,0,0,1-1.12-1.22L166,118.37c.06.54.11,1.07.14,1.6s0,1,0,1.46V140.7h-6.85V107.22h6.82a1.83,1.83,0,0,1,.68.12,1.44,1.44,0,0,1,.54.35,2.77,2.77,0,0,1,.47.68l8.62,17c.31.58.6,1.19.89,1.82Z"/><path class="cls-1" d="M212.43,127.89h9.15l-3.08-9.17-.7-2.06c-.27-.79-.53-1.64-.79-2.57-.25.94-.5,1.81-.76,2.6s-.51,1.49-.74,2.07l-3.08,9.13ZM234,140.7h-6a2.84,2.84,0,0,1-1.67-.47,2.4,2.4,0,0,1-.9-1.21l-2-5.84H210.64l-2,5.84a2.64,2.64,0,0,1-2.53,1.68h-6.07l13-33.51h8l13,33.51Z"/><path class="cls-1" d="M245.64,123h3.13a8.26,8.26,0,0,0,2.7-.4,4.93,4.93,0,0,0,1.83-1.12,4.19,4.19,0,0,0,1-1.67,6.2,6.2,0,0,0,.32-2.05,4.32,4.32,0,0,0-1.43-3.45,6.7,6.7,0,0,0-4.45-1.25h-3.13V123Zm0,5.36V140.7h-7.77V107.19h10.9a22.63,22.63,0,0,1,6.19.75,11.67,11.67,0,0,1,4.19,2.09,7.8,7.8,0,0,1,2.36,3.14,10.49,10.49,0,0,1,.73,4,10.29,10.29,0,0,1-.44,3.08,9.35,9.35,0,0,1-1.29,2.68,10.5,10.5,0,0,1-2.12,2.2,11.13,11.13,0,0,1-2.89,1.58,7.56,7.56,0,0,1,1.46,1,5.62,5.62,0,0,1,1.19,1.4l7.13,11.66h-7a3,3,0,0,1-2.81-1.47l-5.56-9.73a2.34,2.34,0,0,0-.86-.92,3,3,0,0,0-1.39-.27Z"/><path class="cls-1" d="M277.42,120.76h1.24a2.81,2.81,0,0,0,2.48-1.08l7.55-10.94a3.16,3.16,0,0,1,1.41-1.22,5.08,5.08,0,0,1,1.94-.33h6.77l-9.94,13.55a6.62,6.62,0,0,1-1.1,1.22,8.22,8.22,0,0,1-1.17.81,5.88,5.88,0,0,1,1.59.88,5.8,5.8,0,0,1,1.32,1.51l10.12,15.54h-6.94a6.12,6.12,0,0,1-1.14-.09,2.57,2.57,0,0,1-.81-.28,2.1,2.1,0,0,1-.6-.45,4.38,4.38,0,0,1-.49-.6l-7.59-11.66a2.27,2.27,0,0,0-1-.91,4.49,4.49,0,0,0-1.72-.27h-1.88V140.7h-7.77V107.19h7.77v13.57Z"/><polygon class="cls-1" points="346.68 140.7 338.86 140.7 338.86 126.54 325.25 126.54 325.25 140.7 317.43 140.7 317.43 107.19 325.25 107.19 325.25 121.2 338.86 121.2 338.86 107.19 346.68 107.19 346.68 140.7 346.68 140.7"/><path class="cls-1" d="M378.51,123.94a14.51,14.51,0,0,0-.65-4.48A9.42,9.42,0,0,0,376,116.1a7.86,7.86,0,0,0-2.95-2.12,10.2,10.2,0,0,0-4-.74,10.31,10.31,0,0,0-4,.74,7.77,7.77,0,0,0-3,2.12,9.57,9.57,0,0,0-1.85,3.36,15.8,15.8,0,0,0,0,9,9.53,9.53,0,0,0,1.85,3.37,7.86,7.86,0,0,0,3,2.11,10.5,10.5,0,0,0,4,.72,10.38,10.38,0,0,0,4-.72A8,8,0,0,0,376,131.8a9.38,9.38,0,0,0,1.85-3.37,14.48,14.48,0,0,0,.65-4.49Zm7.95,0a18.14,18.14,0,0,1-1.25,6.76,16,16,0,0,1-9,9.06,20,20,0,0,1-14.25,0,16,16,0,0,1-9.05-9.06,18.9,18.9,0,0,1,0-13.52,16.16,16.16,0,0,1,3.54-5.43,16.38,16.38,0,0,1,5.51-3.61,18.82,18.82,0,0,1,7.13-1.31,18.58,18.58,0,0,1,7.12,1.32,16.53,16.53,0,0,1,5.48,3.62,16.23,16.23,0,0,1,3.53,5.43,18.07,18.07,0,0,1,1.25,6.74Z"/><path class="cls-1" d="M409.4,127.2c.28.63.56,1.28.82,1.93.26-.67.53-1.33.83-2s.58-1.26.89-1.86l8.6-16.94a2.77,2.77,0,0,1,.47-.68,1.44,1.44,0,0,1,.54-.35,1.83,1.83,0,0,1,.68-.12h6.82V140.7H422.2V121.43c0-.93,0-2,.14-3l-8.88,17.23a3,3,0,0,1-1.12,1.22,3.11,3.11,0,0,1-1.59.41h-1.06a3.15,3.15,0,0,1-1.6-.41,3,3,0,0,1-1.12-1.22l-8.92-17.25c.06.54.11,1.07.14,1.6s.05,1,.05,1.46V140.7h-6.86V107.22h6.82a1.79,1.79,0,0,1,.68.12,1.44,1.44,0,0,1,.54.35,2.77,2.77,0,0,1,.47.68l8.63,17c.3.58.6,1.19.88,1.82Z"/><polygon class="cls-1" points="457.34 107.19 457.34 113.17 443.58 113.17 443.58 121 454.12 121 454.12 126.74 443.58 126.74 443.58 134.72 457.34 134.72 457.34 140.7 435.77 140.7 435.77 107.19 457.34 107.19 457.34 107.19"/><path class="cls-1" d="M482.54,114a2.89,2.89,0,0,1-.72.83,1.6,1.6,0,0,1-1,.28,2.35,2.35,0,0,1-1.14-.34l-1.38-.74a10.7,10.7,0,0,0-1.76-.75,7.1,7.1,0,0,0-2.25-.33,4.88,4.88,0,0,0-3.26.93A3.18,3.18,0,0,0,470,116.4a2.3,2.3,0,0,0,.65,1.67,5.4,5.4,0,0,0,1.69,1.15,17.19,17.19,0,0,0,2.39.89c.9.27,1.81.56,2.75.89a26.38,26.38,0,0,1,2.75,1.17,9.19,9.19,0,0,1,2.39,1.7,7.91,7.91,0,0,1,1.69,2.52,8.93,8.93,0,0,1,.64,3.57,11.8,11.8,0,0,1-.8,4.35,10.28,10.28,0,0,1-2.34,3.53,10.92,10.92,0,0,1-3.77,2.37,14.18,14.18,0,0,1-5.09.86,16.67,16.67,0,0,1-3.19-.32,19.41,19.41,0,0,1-3.13-.91,18.48,18.48,0,0,1-2.86-1.39,12.22,12.22,0,0,1-2.32-1.8l2.3-3.63a1.74,1.74,0,0,1,.71-.66,1.93,1.93,0,0,1,1-.26,2.61,2.61,0,0,1,1.39.44l1.59,1a12.11,12.11,0,0,0,2,1,7.58,7.58,0,0,0,2.71.44,5.17,5.17,0,0,0,3.29-.93,3.57,3.57,0,0,0,1.17-3,2.8,2.8,0,0,0-.65-1.91,5,5,0,0,0-1.68-1.22,16.83,16.83,0,0,0-2.38-.85c-.9-.24-1.81-.52-2.74-.81a19.64,19.64,0,0,1-2.74-1.11,8.77,8.77,0,0,1-2.38-1.72,8.19,8.19,0,0,1-1.69-2.67,10.61,10.61,0,0,1-.64-4,9.25,9.25,0,0,1,.76-3.67,9.45,9.45,0,0,1,2.23-3.2,10.84,10.84,0,0,1,3.61-2.24,13.35,13.35,0,0,1,4.9-.84,18.59,18.59,0,0,1,3,.24,16.29,16.29,0,0,1,2.77.71,15.68,15.68,0,0,1,2.45,1.13,11.52,11.52,0,0,1,2,1.48L482.54,114Z"/><path class="cls-1" d="M28.46,42.23c.16-.42.32-.84.5-1.25a10.41,10.41,0,0,1,.57-1.16L51.55.89a1.42,1.42,0,0,1,.63-.64,2.59,2.59,0,0,1,.88-.12h2.81v56H52.3V8.41a21,21,0,0,1,.12-2.18L30.36,45.4a1.72,1.72,0,0,1-1.58,1h-.64a1.78,1.78,0,0,1-1.58-1L3.91,6.19A21.41,21.41,0,0,1,4,8.41V56.17H.5V.13H3.27a2.69,2.69,0,0,1,.89.12,1.37,1.37,0,0,1,.66.64l22.61,39a15.4,15.4,0,0,1,1,2.37Z"/><path class="cls-1" d="M78,35.82h25.1L91.63,7.5c-.19-.45-.37-1-.56-1.53s-.37-1.16-.55-1.8c-.18.64-.37,1.24-.55,1.8s-.37,1.09-.56,1.57L78,35.82Zm37.5,20.35h-3.13a1.37,1.37,0,0,1-.91-.3,1.84,1.84,0,0,1-.55-.77l-6.62-16.27H76.74L70.16,55.1a1.75,1.75,0,0,1-.55.76,1.49,1.49,0,0,1-1,.31H65.57L88.5.13h4l22.93,56Z"/><polygon class="cls-1" points="153.81 0.13 153.81 3.58 134.12 3.58 134.12 56.17 130.08 56.17 130.08 3.58 110.28 3.58 110.28 0.13 153.81 0.13 153.81 0.13"/><polygon class="cls-1" points="196.3 0.13 196.3 3.5 166.8 3.5 166.8 26.15 191.35 26.15 191.35 29.44 166.8 29.44 166.8 52.81 196.3 52.81 196.3 56.17 162.72 56.17 162.72 0.13 196.3 0.13 196.3 0.13"/><path class="cls-1" d="M211.59.27a1.86,1.86,0,0,1,.67.62l36.28,48.55a22.89,22.89,0,0,1-.12-2.3V.13H252v56H250a1.7,1.7,0,0,1-1.46-.79L212.14,6.75A22.37,22.37,0,0,1,212.26,9V56.17h-3.52V.13h2a2.31,2.31,0,0,1,.88.14Z"/><path class="cls-1" d="M285.29,33V56.17h-4.08V33L260.5.13H264a1.43,1.43,0,0,1,.89.26,3,3,0,0,1,.66.73l16,25.75a18.08,18.08,0,0,1,.95,1.76c.26.57.5,1.14.71,1.72.21-.58.45-1.15.72-1.72a14.6,14.6,0,0,1,.95-1.76l16-25.75a2.06,2.06,0,0,1,.59-.71,1.41,1.41,0,0,1,.91-.28H306L285.29,33Z"/><polygon class="cls-1" points="380.18 56.17 376.1 56.17 376.1 29.32 341.01 29.32 341.01 56.17 336.93 56.17 336.93 0.13 341.01 0.13 341.01 26.27 376.1 26.27 376.1 0.13 380.18 0.13 380.18 56.17 380.18 56.17"/><polygon class="cls-1" points="399.98 56.17 395.9 56.17 395.9 0.13 399.98 0.13 399.98 56.17 399.98 56.17"/><polygon class="cls-1" points="419.79 52.73 446.36 52.73 446.36 56.17 415.75 56.17 415.75 0.13 419.79 0.13 419.79 52.73 419.79 52.73"/><polygon class="cls-1" points="459.51 52.73 486.08 52.73 486.08 56.17 455.47 56.17 455.47 0.13 459.51 0.13 459.51 52.73 459.51 52.73"/><polygon class="cls-1" points="485.75 82.63 0.71 82.63 0.71 80.08 485.75 80.08 485.75 82.63 485.75 82.63"/></svg>