<?xml version="1.0" encoding="utf-8"?>
<!-- Generator: Adobe Illustrator 24.1.0, SVG Export Plug-In . SVG Version: 6.00 Build 0)  -->
<svg version="1.1" id="Layer_1" xmlns="http://www.w3.org/2000/svg" xmlns:xlink="http://www.w3.org/1999/xlink" x="0px" y="0px"
	 viewBox="0 0 482.1 109.7" style="enable-background:new 0 0 482.1 109.7;" xml:space="preserve">
<style type="text/css">
	.st0{clip-path:url(#SVGID_2_);}
	.st1{fill:#202945;}
	.st2{enable-background:new    ;}
</style>
<g>
	<defs>
		<circle id="SVGID_1_" cx="-717.5" cy="77.2" r="250"/>
	</defs>
	<clipPath id="SVGID_2_">
		<use xlink:href="#SVGID_1_"  style="overflow:visible;"/>
	</clipPath>
	<g class="st0">
	</g>
</g>
<path class="st1" d="M25.4,100.3c0.2,0,0.4,0,0.5,0.1c0.2,0.1,0.4,0.2,0.5,0.3l3.1,3.2c-1.3,1.7-3,3.1-5,4c-2.3,0.9-4.7,1.4-7.1,1.3
	c-2.3,0-4.6-0.4-6.8-1.3c-1.9-0.8-3.7-2-5.1-3.6c-1.4-1.6-2.5-3.4-3.2-5.4c-0.8-2.2-1.1-4.5-1.1-6.8c0-2.3,0.4-4.7,1.3-6.8
	c0.8-2,2-3.9,3.5-5.4c1.6-1.5,3.4-2.7,5.5-3.5c2.2-0.9,4.6-1.3,7-1.3c1.2,0,2.4,0.1,3.5,0.3c1.1,0.2,2.1,0.5,3.1,0.9
	c1,0.4,1.9,0.9,2.7,1.4c0.8,0.5,1.5,1.1,2.2,1.8l-2.6,3.5c-0.2,0.2-0.4,0.4-0.6,0.6c-0.3,0.2-0.6,0.3-1,0.3c-0.3,0-0.5-0.1-0.8-0.2
	c-0.2-0.1-0.5-0.3-0.8-0.4l-0.9-0.6c-0.4-0.2-0.8-0.4-1.2-0.6c-0.5-0.2-1-0.3-1.6-0.4c-0.7-0.1-1.4-0.2-2.1-0.2
	c-1.3,0-2.6,0.2-3.8,0.7c-1.1,0.5-2.2,1.2-3,2.1c-0.8,1-1.5,2.1-1.9,3.4c-0.5,1.4-0.7,2.9-0.7,4.4c0,1.5,0.2,3.1,0.7,4.5
	c0.4,1.2,1.1,2.4,1.9,3.3c0.8,0.9,1.7,1.6,2.8,2.1c1.1,0.5,2.2,0.7,3.4,0.7c0.6,0,1.3,0,1.9-0.1c0.5-0.1,1.1-0.2,1.6-0.4
	c0.5-0.2,1-0.4,1.4-0.7c0.5-0.3,0.9-0.6,1.4-1c0.2-0.2,0.4-0.3,0.6-0.4C25,100.4,25.2,100.3,25.4,100.3L25.4,100.3z"/>
<path class="st1" d="M42.9,91.3H46c0.9,0,1.8-0.1,2.7-0.4c0.7-0.2,1.3-0.6,1.8-1.1c0.5-0.5,0.8-1,1-1.7c0.2-0.6,0.3-1.3,0.3-2
	c0.1-1.3-0.5-2.6-1.4-3.4c-1.3-0.9-2.8-1.4-4.4-1.3h-3.1V91.3z M42.9,96.6V109h-7.7V75.7H46c2.1,0,4.1,0.2,6.2,0.8
	c1.5,0.4,2.9,1.1,4.2,2.1c1,0.8,1.8,1.9,2.3,3.1c0.9,2.2,1,4.7,0.3,7c-0.3,0.9-0.7,1.8-1.3,2.7c-0.6,0.8-1.3,1.6-2.1,2.2
	c-0.9,0.7-1.8,1.2-2.9,1.5c0.5,0.3,1,0.6,1.5,1c0.5,0.4,0.9,0.9,1.2,1.4l7.1,11.6h-7c-1.1,0.1-2.2-0.5-2.8-1.5l-5.5-9.7
	c-0.2-0.4-0.5-0.7-0.8-0.9c-0.4-0.2-0.9-0.3-1.4-0.3H42.9z"/>
<path class="st1" d="M78.2,96.2h9.1l-3.1-9.1c-0.2-0.6-0.4-1.2-0.7-2c-0.3-0.8-0.5-1.6-0.8-2.6c-0.2,0.9-0.5,1.8-0.8,2.6
	s-0.5,1.5-0.7,2.1L78.2,96.2L78.2,96.2z M99.5,109h-6c-0.6,0-1.2-0.1-1.7-0.5c-0.4-0.3-0.7-0.7-0.9-1.2l-2-5.8H76.4l-2,5.8
	c-0.2,0.5-0.5,0.9-0.9,1.2c-0.5,0.3-1,0.5-1.6,0.5h-6l12.9-33.3h7.9L99.5,109z"/>
<polygon class="st1" points="124.8,75.7 124.8,81.6 111.2,81.6 111.2,90.1 122.5,90.1 122.5,96 111.2,96 111.2,108.9 103.4,108.9 
	103.4,75.7 124.8,75.7 "/>
<polygon class="st1" points="155.1,75.7 155.1,81.8 145.7,81.8 145.7,108.9 138,108.9 138,81.8 128.7,81.8 128.7,75.7 155.1,75.7 
	"/>
<path class="st1" d="M176.5,95.6c0.3,0.6,0.6,1.3,0.8,1.9c0.3-0.7,0.5-1.3,0.8-2s0.6-1.2,0.9-1.8l8.5-16.8c0.1-0.2,0.3-0.5,0.5-0.7
	c0.2-0.2,0.3-0.3,0.5-0.4c0.2-0.1,0.4-0.1,0.7-0.1h6.8V109h-6.8V89.8c0-0.9,0.1-1.9,0.1-3l-8.8,17.1c-0.2,0.5-0.6,0.9-1.1,1.2
	c-0.5,0.3-1,0.4-1.6,0.4h-1c-0.6,0-1.1-0.1-1.6-0.4c-0.5-0.3-0.9-0.7-1.1-1.2l-8.9-17.1c0.1,0.5,0.1,1.1,0.1,1.6s0,1,0,1.4V109h-6.8
	V75.7h6.8c0.2,0,0.5,0,0.7,0.1c0.2,0.1,0.4,0.2,0.5,0.4c0.2,0.2,0.3,0.4,0.5,0.7l8.6,16.9C175.9,94.3,176.2,94.9,176.5,95.6
	L176.5,95.6z"/>
<path class="st1" d="M211.3,96.2h9.1l-3.1-9.1l-0.7-2c-0.3-0.8-0.5-1.6-0.8-2.6c-0.2,0.9-0.5,1.8-0.8,2.6c-0.3,0.8-0.5,1.5-0.7,2.1
	L211.3,96.2L211.3,96.2z M232.7,109h-6c-0.6,0-1.2-0.1-1.7-0.5c-0.4-0.3-0.7-0.7-0.9-1.2l-2-5.8h-12.6l-2,5.8
	c-0.2,0.5-0.5,0.9-0.9,1.2c-0.5,0.3-1,0.5-1.6,0.5h-6l12.9-33.3h7.9L232.7,109z"/>
<path class="st1" d="M244.3,91.3h3.1c0.9,0,1.8-0.1,2.7-0.4c0.7-0.2,1.3-0.6,1.8-1.1c0.5-0.5,0.8-1,1-1.7c0.2-0.6,0.3-1.3,0.3-2
	c0.1-1.3-0.5-2.6-1.4-3.4c-1.3-0.9-2.8-1.4-4.4-1.2h-3.1L244.3,91.3L244.3,91.3z M244.3,96.6V109h-7.7V75.7h10.8
	c2.1,0,4.1,0.2,6.1,0.8c1.5,0.4,2.9,1.1,4.2,2.1c1,0.8,1.8,1.9,2.3,3.1c0.5,1.2,0.7,2.6,0.7,3.9c0,1-0.1,2.1-0.4,3.1
	c-0.3,0.9-0.7,1.8-1.3,2.7c-0.6,0.8-1.3,1.6-2.1,2.2c-0.9,0.7-1.8,1.2-2.8,1.6c0.5,0.3,1,0.6,1.4,1c0.5,0.4,0.9,0.9,1.2,1.4
	l7.1,11.6h-7c-1.1,0.1-2.2-0.5-2.8-1.5l-5.5-9.7c-0.2-0.4-0.5-0.7-0.9-0.9c-0.4-0.2-0.9-0.3-1.4-0.3L244.3,96.6z"/>
<path class="st1" d="M275.8,89.2h1.2c1,0.1,1.9-0.3,2.5-1.1l7.5-10.9c0.3-0.5,0.8-1,1.4-1.2c0.6-0.2,1.3-0.3,1.9-0.3h6.7l-9.9,13.4
	c-0.3,0.4-0.7,0.9-1.1,1.2c-0.4,0.3-0.8,0.6-1.2,0.8c0.6,0.2,1.1,0.5,1.6,0.9c0.5,0.4,1,0.9,1.3,1.5l10.1,15.5H291
	c-0.4,0-0.8,0-1.1-0.1c-0.3-0.1-0.6-0.1-0.8-0.3c-0.2-0.1-0.4-0.3-0.6-0.4c-0.2-0.2-0.3-0.4-0.5-0.6L280.5,96
	c-0.2-0.4-0.6-0.7-1-0.9c-0.5-0.2-1.1-0.3-1.7-0.3h-1.9V109h-7.7V75.7h7.7L275.8,89.2L275.8,89.2z"/>
<polygon class="st1" points="344.6,108.9 336.8,108.9 336.8,94.9 323.3,94.9 323.3,108.9 315.6,108.9 315.6,75.7 323.3,75.7 
	323.3,89.6 336.8,89.6 336.8,75.7 344.6,75.7 344.6,108.9 "/>
<path class="st1" d="M376.2,92.3c0-1.5-0.2-3-0.6-4.4c-0.4-1.2-1-2.4-1.8-3.3c-0.8-0.9-1.8-1.6-2.9-2.1c-1.3-0.5-2.6-0.8-4-0.7
	c-1.4,0-2.7,0.2-4,0.7c-1.1,0.5-2.1,1.2-3,2.1c-0.8,1-1.5,2.1-1.8,3.3c-0.4,1.4-0.7,2.9-0.6,4.4c0,1.5,0.2,3,0.6,4.5
	c0.4,1.2,1,2.4,1.8,3.3c0.8,0.9,1.8,1.6,3,2.1c1.3,0.5,2.6,0.7,4,0.7c1.4,0,2.7-0.2,4-0.7c1.1-0.5,2.1-1.2,2.9-2.1
	c0.8-1,1.5-2.1,1.8-3.3C376,95.3,376.2,93.8,376.2,92.3z M384.1,92.3c0,2.3-0.4,4.6-1.2,6.7c-0.8,2-2,3.9-3.5,5.4
	c-1.5,1.6-3.4,2.8-5.4,3.6c-4.6,1.7-9.6,1.7-14.1,0c-4.1-1.6-7.4-4.9-9-9c-1.7-4.3-1.7-9.1,0-13.4c0.8-2,2-3.9,3.5-5.4
	c1.6-1.6,3.4-2.8,5.5-3.6c4.6-1.7,9.6-1.7,14.1,0c2,0.8,3.9,2,5.4,3.6c1.5,1.5,2.7,3.4,3.5,5.4C383.7,87.7,384.1,90,384.1,92.3
	L384.1,92.3z"/>
<path class="st1" d="M406.9,95.6c0.3,0.6,0.6,1.3,0.8,1.9c0.2-0.7,0.5-1.3,0.8-2s0.6-1.2,0.9-1.8l8.5-16.8c0.1-0.2,0.3-0.5,0.5-0.7
	c0.1-0.2,0.3-0.3,0.5-0.4c0.2-0.1,0.4-0.1,0.7-0.1h6.8V109h-6.8V89.8c0-0.9,0-1.9,0.1-3l-8.8,17.1c-0.2,0.5-0.6,0.9-1.1,1.2
	c-0.5,0.3-1,0.4-1.6,0.4h-1c-0.6,0-1.1-0.1-1.6-0.4c-0.5-0.3-0.9-0.7-1.1-1.2l-8.9-17.1c0.1,0.5,0.1,1.1,0.1,1.6s0,1,0,1.4V109H389
	V75.7h6.8c0.2,0,0.5,0,0.7,0.1c0.2,0.1,0.4,0.2,0.5,0.4c0.2,0.2,0.3,0.4,0.5,0.7l8.6,16.9C406.3,94.3,406.6,94.9,406.9,95.6z"/>
<polygon class="st1" points="454.5,75.7 454.5,81.6 440.8,81.6 440.8,89.4 451.3,89.4 451.3,95.1 440.8,95.1 440.8,103 454.5,103 
	454.5,108.9 433,108.9 433,75.7 454.5,75.7 "/>
<path class="st1" d="M479.5,82.4c-0.2,0.3-0.4,0.6-0.7,0.8c-0.3,0.2-0.6,0.3-1,0.3c-0.4,0-0.8-0.1-1.1-0.3l-1.4-0.8
	c-0.6-0.3-1.1-0.5-1.7-0.7c-0.7-0.2-1.5-0.3-2.2-0.3c-1.2-0.1-2.3,0.2-3.2,0.9c-0.7,0.6-1.1,1.5-1.1,2.5c0,0.6,0.2,1.2,0.6,1.7
	c0.5,0.5,1.1,0.9,1.7,1.1c0.8,0.4,1.6,0.7,2.4,0.9c0.9,0.3,1.8,0.6,2.7,0.9c0.9,0.3,1.8,0.7,2.7,1.2c0.9,0.4,1.7,1,2.4,1.7
	c0.7,0.7,1.3,1.6,1.7,2.5c0.5,1.1,0.7,2.3,0.6,3.6c0,1.5-0.3,2.9-0.8,4.3c-0.5,1.3-1.3,2.5-2.3,3.5c-1.1,1-2.3,1.8-3.7,2.3
	c-1.6,0.6-3.3,0.9-5.1,0.8c-1.1,0-2.1-0.1-3.2-0.3c-1.1-0.2-2.1-0.5-3.1-0.9c-1-0.4-1.9-0.8-2.8-1.4c-0.8-0.5-1.6-1.1-2.3-1.8
	l2.3-3.6c0.2-0.3,0.4-0.5,0.7-0.7c0.3-0.2,0.7-0.3,1-0.2c0.5,0,1,0.2,1.4,0.4l1.6,1c0.6,0.4,1.3,0.7,2,1c0.9,0.3,1.8,0.5,2.7,0.4
	c1.2,0.1,2.3-0.3,3.3-0.9c0.8-0.7,1.3-1.8,1.2-2.9c0-0.7-0.2-1.4-0.6-1.9c-0.5-0.5-1-0.9-1.7-1.2c-0.8-0.3-1.6-0.6-2.4-0.8
	c-0.9-0.2-1.8-0.5-2.7-0.8c-0.9-0.3-1.8-0.7-2.7-1.1c-0.9-0.4-1.7-1-2.4-1.7c-0.7-0.8-1.3-1.7-1.7-2.7c-0.5-1.3-0.7-2.6-0.6-3.9
	c0-1.3,0.3-2.5,0.8-3.7c0.5-1.2,1.3-2.3,2.2-3.2c1-1,2.3-1.7,3.6-2.2c1.6-0.6,3.2-0.9,4.9-0.8c1,0,2,0.1,3,0.2
	c0.9,0.2,1.9,0.4,2.8,0.7c0.8,0.3,1.7,0.7,2.4,1.1c0.7,0.4,1.4,0.9,2,1.5L479.5,82.4L479.5,82.4z"/>
<polygon class="st1" points="482,51.3 1.1,51.3 1.1,48.8 482,48.8 482,51.3 "/>
<g class="st2">
	<path class="st1" d="M21.6,2.4h-9.2v24.7h-1.9V2.4H1.1V0.8h20.4V2.4z"/>
	<path class="st1" d="M44.4,0.8v26.3h-1.9V14.5H26.1v12.6h-1.9V0.8h1.9V13h16.5V0.8H44.4z"/>
	<path class="st1" d="M66.1,25.5l0,1.6H50.3V0.8h15.8v1.6H52.3V13h11.5v1.5H52.3v11H66.1z"/>
	<path class="st1" d="M96.4,27.1h-1.6c-0.2,0-0.4,0-0.5-0.1c-0.1-0.1-0.3-0.2-0.4-0.4l-8.4-10.7c-0.1-0.1-0.2-0.3-0.3-0.4
		c-0.1-0.1-0.2-0.2-0.4-0.2s-0.3-0.1-0.5-0.1c-0.2,0-0.4,0-0.7,0h-3.4v11.9h-1.9V0.8H85c3,0,5.3,0.6,6.8,1.8C93.3,3.7,94,5.4,94,7.7
		c0,1-0.2,1.9-0.5,2.8S92.7,12,92,12.6c-0.7,0.6-1.4,1.1-2.4,1.5c-0.9,0.4-2,0.7-3.1,0.8c0.3,0.2,0.6,0.4,0.8,0.7L96.4,27.1z
		 M84.7,13.8c1.2,0,2.2-0.1,3.1-0.4c0.9-0.3,1.7-0.7,2.3-1.2c0.6-0.5,1.1-1.1,1.5-1.9c0.3-0.7,0.5-1.6,0.5-2.5
		c0-1.9-0.6-3.3-1.8-4.2c-1.2-0.9-3-1.4-5.3-1.4h-4.8v11.5H84.7z"/>
	<path class="st1" d="M114.8,25.5l0,1.6H99V0.8h15.8v1.6h-13.8V13h11.5v1.5h-11.5v11H114.8z"/>
	<path class="st1" d="M131.4,4c-0.1,0.2-0.3,0.3-0.5,0.3c-0.2,0-0.4-0.1-0.6-0.3c-0.3-0.2-0.6-0.5-1-0.8c-0.4-0.3-1-0.5-1.6-0.8
		s-1.5-0.4-2.4-0.4s-1.8,0.1-2.5,0.4s-1.3,0.6-1.8,1.1s-0.9,1-1.1,1.6c-0.3,0.6-0.4,1.3-0.4,2c0,0.9,0.2,1.6,0.6,2.2
		c0.4,0.6,0.9,1.1,1.5,1.5c0.6,0.4,1.3,0.8,2.1,1c0.8,0.3,1.6,0.6,2.4,0.8c0.8,0.3,1.6,0.6,2.4,0.9s1.5,0.7,2.1,1.2
		c0.6,0.5,1.1,1.1,1.5,1.8s0.6,1.6,0.6,2.7c0,1.1-0.2,2.1-0.6,3.1c-0.4,1-0.9,1.8-1.6,2.5c-0.7,0.7-1.6,1.3-2.6,1.7
		s-2.2,0.6-3.6,0.6c-1.7,0-3.2-0.3-4.5-0.9c-1.3-0.6-2.3-1.5-3.3-2.5l0.5-0.8c0.1-0.2,0.3-0.3,0.5-0.3c0.1,0,0.3,0.1,0.4,0.2
		c0.2,0.1,0.4,0.3,0.6,0.5c0.2,0.2,0.5,0.5,0.9,0.7c0.3,0.3,0.7,0.5,1.2,0.7c0.5,0.2,1,0.4,1.6,0.5c0.6,0.1,1.3,0.2,2,0.2
		c1,0,2-0.2,2.8-0.5s1.5-0.7,2.1-1.3c0.6-0.5,1-1.2,1.3-1.9c0.3-0.8,0.4-1.6,0.4-2.4c0-0.9-0.2-1.7-0.6-2.3s-0.9-1.1-1.5-1.5
		c-0.6-0.4-1.3-0.7-2.1-1s-1.6-0.5-2.4-0.8c-0.8-0.3-1.6-0.6-2.4-0.9c-0.8-0.3-1.5-0.7-2.1-1.2c-0.6-0.5-1.1-1.1-1.5-1.9
		c-0.4-0.7-0.6-1.7-0.6-2.8c0-0.9,0.2-1.7,0.5-2.5s0.8-1.5,1.5-2.2c0.6-0.6,1.4-1.1,2.4-1.5s2-0.6,3.2-0.6c1.4,0,2.6,0.2,3.7,0.7
		s2.1,1.1,3,2L131.4,4z"/>
	<path class="st1" d="M152.5,25.5l0,1.6h-15.8V0.8h15.8v1.6h-13.8V13h11.5v1.5h-11.5v11H152.5z"/>
	<path class="st1" d="M174.5,27.1h-1.6c-0.2,0-0.4,0-0.5-0.1c-0.1-0.1-0.3-0.2-0.4-0.4l-8.4-10.7c-0.1-0.1-0.2-0.3-0.3-0.4
		c-0.1-0.1-0.2-0.2-0.4-0.2s-0.3-0.1-0.5-0.1c-0.2,0-0.4,0-0.7,0h-3.4v11.9h-1.9V0.8h6.7c3,0,5.3,0.6,6.8,1.8
		c1.5,1.2,2.3,2.9,2.3,5.2c0,1-0.2,1.9-0.5,2.8c-0.3,0.8-0.8,1.6-1.5,2.2c-0.7,0.6-1.4,1.1-2.4,1.5s-2,0.7-3.1,0.8
		c0.3,0.2,0.6,0.4,0.8,0.7L174.5,27.1z M162.8,13.8c1.2,0,2.2-0.1,3.1-0.4c0.9-0.3,1.7-0.7,2.3-1.2c0.6-0.5,1.1-1.1,1.5-1.9
		c0.3-0.7,0.5-1.6,0.5-2.5c0-1.9-0.6-3.3-1.8-4.2c-1.2-0.9-3-1.4-5.3-1.4h-4.8v11.5H162.8z"/>
	<path class="st1" d="M196.6,0.8l-10.9,26.3H184L173.2,0.8h1.5c0.2,0,0.3,0,0.4,0.1c0.1,0.1,0.2,0.2,0.3,0.4l9,21.8
		c0.1,0.3,0.2,0.6,0.3,0.9c0.1,0.3,0.2,0.6,0.3,0.9c0.1-0.3,0.2-0.6,0.2-0.9s0.2-0.6,0.3-0.9l8.9-21.8c0-0.1,0.1-0.3,0.3-0.4
		c0.1-0.1,0.3-0.1,0.4-0.1H196.6z"/>
	<path class="st1" d="M214.9,25.5l0,1.6h-15.8V0.8h15.8v1.6H201V13h11.5v1.5H201v11H214.9z"/>
	<path class="st1" d="M245.8,27.1h-1.5c-0.2,0-0.3,0-0.4-0.1s-0.2-0.2-0.3-0.4l-3.1-7.6h-12.9l-3.1,7.6c0,0.1-0.1,0.3-0.3,0.4
		c-0.1,0.1-0.3,0.1-0.4,0.1h-1.4l10.8-26.3h1.9L245.8,27.1z M240,17.5l-5.4-13.3c-0.2-0.4-0.4-1-0.5-1.6c-0.1,0.3-0.2,0.6-0.2,0.8
		c-0.1,0.3-0.2,0.5-0.3,0.7l-5.4,13.3H240z"/>
	<path class="st1" d="M262.8,2.4h-9.2v24.7h-1.9V2.4h-9.3V0.8h20.4V2.4z"/>
	<path class="st1" d="M280,0.8c1.5,0,2.8,0.1,3.9,0.4s2,0.7,2.7,1.3s1.3,1.3,1.6,2.1s0.5,1.8,0.5,2.8c0,0.7-0.1,1.4-0.4,2
		c-0.2,0.6-0.6,1.2-1,1.8s-1,1-1.7,1.4c-0.7,0.4-1.4,0.7-2.3,0.9c2.1,0.3,3.7,1,4.8,2.1s1.7,2.5,1.7,4.2c0,1.1-0.2,2.1-0.6,3
		s-1,1.6-1.7,2.3c-0.8,0.6-1.7,1.1-2.8,1.4c-1.1,0.3-2.4,0.5-3.8,0.5h-8.5V0.8H280z M274.4,2.3v10.8h5.7c1.2,0,2.3-0.2,3.1-0.5
		c0.9-0.3,1.6-0.7,2.1-1.2c0.6-0.5,1-1.1,1.2-1.7c0.3-0.6,0.4-1.3,0.4-2c0-1.8-0.6-3.1-1.7-4s-2.9-1.4-5.2-1.4H274.4z M281,25.5
		c2.3,0,4-0.5,5.2-1.5s1.8-2.4,1.8-4.2c0-0.8-0.2-1.6-0.5-2.2c-0.3-0.7-0.8-1.2-1.4-1.7c-0.6-0.5-1.3-0.8-2.2-1.1s-1.9-0.4-3-0.4
		h-6.6v11.1H281z"/>
	<path class="st1" d="M308.4,25.5v1.6h-14.4V0.8h1.9v24.7H308.4z"/>
	<path class="st1" d="M331,27.1h-1.5c-0.2,0-0.3,0-0.4-0.1s-0.2-0.2-0.3-0.4l-3.1-7.6h-12.9l-3.1,7.6c0,0.1-0.1,0.3-0.3,0.4
		c-0.1,0.1-0.3,0.1-0.4,0.1h-1.4l10.8-26.3h1.9L331,27.1z M325.2,17.5l-5.4-13.3c-0.2-0.4-0.4-1-0.5-1.6c-0.1,0.3-0.2,0.6-0.2,0.8
		c-0.1,0.3-0.2,0.5-0.3,0.7l-5.4,13.3H325.2z"/>
	<path class="st1" d="M351.9,22.6c0.1,0,0.2,0,0.3,0.1l0.7,0.8c-0.5,0.6-1.1,1.1-1.8,1.6c-0.6,0.5-1.3,0.9-2.1,1.2
		c-0.8,0.3-1.6,0.6-2.5,0.8c-0.9,0.2-1.9,0.3-3,0.3c-1.8,0-3.5-0.3-5-1c-1.5-0.6-2.8-1.5-3.9-2.7c-1.1-1.2-1.9-2.6-2.5-4.2
		c-0.6-1.7-0.9-3.5-0.9-5.5c0-2,0.3-3.8,0.9-5.5s1.5-3.1,2.6-4.2c1.1-1.2,2.5-2.1,4-2.8c1.6-0.7,3.3-1,5.2-1c1.8,0,3.4,0.3,4.8,0.8
		c1.4,0.6,2.7,1.3,3.8,2.4l-0.6,0.8c-0.1,0.1-0.3,0.2-0.5,0.2c-0.1,0-0.4-0.1-0.7-0.4c-0.3-0.3-0.8-0.6-1.4-0.9s-1.3-0.6-2.2-0.9
		c-0.9-0.3-1.9-0.4-3.2-0.4c-1.6,0-3,0.3-4.4,0.8c-1.3,0.5-2.5,1.3-3.4,2.3c-0.9,1-1.7,2.3-2.2,3.7c-0.5,1.5-0.8,3.1-0.8,4.9
		c0,1.9,0.3,3.5,0.8,5c0.5,1.5,1.3,2.7,2.2,3.7c0.9,1,2.1,1.8,3.3,2.3c1.3,0.5,2.7,0.8,4.2,0.8c0.9,0,1.8-0.1,2.5-0.2
		c0.7-0.1,1.4-0.3,2-0.6c0.6-0.2,1.2-0.6,1.7-0.9s1.1-0.8,1.6-1.3c0.1,0,0.1-0.1,0.2-0.1C351.8,22.7,351.9,22.6,351.9,22.6z"/>
	<path class="st1" d="M358.1,12.9h1.6c0.2,0,0.4,0,0.6,0s0.3-0.1,0.5-0.1c0.1,0,0.3-0.1,0.4-0.2c0.1-0.1,0.2-0.2,0.4-0.3l10.6-10.9
		c0.2-0.2,0.4-0.4,0.5-0.4c0.2-0.1,0.4-0.1,0.6-0.1h1.5l-11.5,11.8c-0.2,0.2-0.4,0.4-0.6,0.6c-0.2,0.1-0.4,0.2-0.6,0.3
		c0.3,0.1,0.5,0.2,0.7,0.3c0.2,0.2,0.4,0.4,0.6,0.6l12.1,12.6H374c-0.3,0-0.6,0-0.7-0.1c-0.1-0.1-0.3-0.2-0.4-0.4l-11.1-11.4
		c-0.1-0.1-0.3-0.3-0.4-0.4c-0.1-0.1-0.2-0.2-0.4-0.3c-0.1-0.1-0.3-0.1-0.5-0.1c-0.2,0-0.4,0-0.7,0h-1.7v12.7h-1.9V0.8h1.9V12.9z"/>
	<path class="st1" d="M404.3,27.1h-1.6c-0.2,0-0.4,0-0.5-0.1c-0.1-0.1-0.3-0.2-0.4-0.4l-8.4-10.7c-0.1-0.1-0.2-0.3-0.3-0.4
		c-0.1-0.1-0.2-0.2-0.4-0.2s-0.3-0.1-0.5-0.1c-0.2,0-0.4,0-0.7,0h-3.4v11.9h-1.9V0.8h6.7c3,0,5.3,0.6,6.8,1.8
		c1.5,1.2,2.3,2.9,2.3,5.2c0,1-0.2,1.9-0.5,2.8c-0.3,0.8-0.8,1.6-1.5,2.2c-0.7,0.6-1.4,1.1-2.4,1.5s-2,0.7-3.1,0.8
		c0.3,0.2,0.6,0.4,0.8,0.7L404.3,27.1z M392.6,13.8c1.2,0,2.2-0.1,3.1-0.4c0.9-0.3,1.7-0.7,2.3-1.2c0.6-0.5,1.1-1.1,1.5-1.9
		c0.3-0.7,0.5-1.6,0.5-2.5c0-1.9-0.6-3.3-1.8-4.2c-1.2-0.9-3-1.4-5.3-1.4h-4.8v11.5H392.6z"/>
	<path class="st1" d="M430.1,13.9c0,2-0.3,3.9-0.9,5.5c-0.6,1.7-1.5,3.1-2.6,4.2c-1.1,1.2-2.4,2.1-4,2.7c-1.5,0.6-3.2,1-5.1,1
		c-1.9,0-3.6-0.3-5.1-1c-1.5-0.6-2.9-1.5-4-2.7c-1.1-1.2-2-2.6-2.6-4.2c-0.6-1.7-0.9-3.5-0.9-5.5c0-2,0.3-3.9,0.9-5.5
		c0.6-1.7,1.5-3.1,2.6-4.2c1.1-1.2,2.4-2.1,4-2.7c1.5-0.6,3.2-1,5.1-1c1.9,0,3.6,0.3,5.1,1s2.9,1.5,4,2.7s2,2.6,2.6,4.2
		C429.8,10.1,430.1,11.9,430.1,13.9z M428.1,13.9c0-1.8-0.3-3.5-0.8-4.9s-1.2-2.7-2.2-3.7s-2-1.8-3.3-2.3c-1.3-0.5-2.7-0.8-4.3-0.8
		c-1.6,0-3,0.3-4.3,0.8c-1.3,0.5-2.4,1.3-3.4,2.3c-0.9,1-1.7,2.3-2.2,3.7s-0.8,3.1-0.8,4.9c0,1.8,0.3,3.5,0.8,5
		c0.5,1.5,1.2,2.7,2.2,3.7c0.9,1,2.1,1.8,3.4,2.3c1.3,0.5,2.7,0.8,4.3,0.8c1.6,0,3-0.3,4.3-0.8c1.3-0.5,2.4-1.3,3.3-2.3
		s1.6-2.3,2.2-3.7C427.9,17.4,428.1,15.8,428.1,13.9z"/>
	<path class="st1" d="M453.3,22.6c0.1,0,0.2,0,0.3,0.1l0.7,0.8c-0.5,0.6-1.1,1.1-1.8,1.6c-0.6,0.5-1.3,0.9-2.1,1.2
		c-0.8,0.3-1.6,0.6-2.5,0.8c-0.9,0.2-1.9,0.3-3,0.3c-1.8,0-3.5-0.3-5-1c-1.5-0.6-2.8-1.5-3.9-2.7c-1.1-1.2-1.9-2.6-2.5-4.2
		c-0.6-1.7-0.9-3.5-0.9-5.5c0-2,0.3-3.8,0.9-5.5s1.5-3.1,2.6-4.2c1.1-1.2,2.5-2.1,4-2.8c1.6-0.7,3.3-1,5.2-1c1.8,0,3.4,0.3,4.8,0.8
		c1.4,0.6,2.7,1.3,3.8,2.4l-0.6,0.8c-0.1,0.1-0.3,0.2-0.5,0.2c-0.1,0-0.4-0.1-0.7-0.4c-0.3-0.3-0.8-0.6-1.4-0.9s-1.3-0.6-2.2-0.9
		c-0.9-0.3-1.9-0.4-3.2-0.4c-1.6,0-3,0.3-4.4,0.8c-1.3,0.5-2.5,1.3-3.4,2.3c-0.9,1-1.7,2.3-2.2,3.7c-0.5,1.5-0.8,3.1-0.8,4.9
		c0,1.9,0.3,3.5,0.8,5c0.5,1.5,1.3,2.7,2.2,3.7c0.9,1,2.1,1.8,3.3,2.3c1.3,0.5,2.7,0.8,4.2,0.8c0.9,0,1.8-0.1,2.5-0.2
		c0.7-0.1,1.4-0.3,2-0.6c0.6-0.2,1.2-0.6,1.7-0.9s1.1-0.8,1.6-1.3c0.1,0,0.1-0.1,0.2-0.1C453.1,22.7,453.2,22.6,453.3,22.6z"/>
	<path class="st1" d="M459.5,12.9h1.6c0.2,0,0.4,0,0.6,0s0.3-0.1,0.5-0.1c0.1,0,0.3-0.1,0.4-0.2c0.1-0.1,0.2-0.2,0.4-0.3l10.6-10.9
		c0.2-0.2,0.4-0.4,0.5-0.4c0.2-0.1,0.4-0.1,0.6-0.1h1.5l-11.5,11.8c-0.2,0.2-0.4,0.4-0.6,0.6c-0.2,0.1-0.4,0.2-0.6,0.3
		c0.3,0.1,0.5,0.2,0.7,0.3c0.2,0.2,0.4,0.4,0.6,0.6l12.1,12.6h-1.5c-0.3,0-0.6,0-0.7-0.1c-0.1-0.1-0.3-0.2-0.4-0.4l-11.1-11.4
		c-0.1-0.1-0.3-0.3-0.4-0.4c-0.1-0.1-0.2-0.2-0.4-0.3c-0.1-0.1-0.3-0.1-0.5-0.1c-0.2,0-0.4,0-0.7,0h-1.7v12.7h-1.9V0.8h1.9V12.9z"/>
</g>
</svg>
