<svg xmlns="http://www.w3.org/2000/svg" width="221.634" height="150.164" viewBox="0 0 221.634 150.164">
  <g id="Logo" transform="translate(-6.14 -50.8)">
    <g id="Estates" transform="translate(66.238 189.611)">
      <path id="Path_5856" data-name="Path 5856" d="M409.552,995.026V984.14h11.8v1.867h-9.8v2.488h8.864v1.865h-8.864v2.784h10.108v1.882H409.55Z" transform="translate(-409.55 -983.906)" fill="#fff"/>
      <path id="Path_5857" data-name="Path 5857" d="M510.511,992.866l.544-1.788a20.534,20.534,0,0,0,6.3.979c1.026,0,4.043-.124,4.043-1.57,0-.979-1.369-1.058-4.012-1.2-3.125-.171-6.485-.357-6.485-3.265s3.391-3.453,6.034-3.453a27.664,27.664,0,0,1,5.661.653l-.42,1.835a25.352,25.352,0,0,0-5.567-.621c-.778,0-3.671.077-3.671,1.478,0,1.26,2.224,1.353,4.541,1.447,3.064.124,5.956.42,5.956,3.032,0,2.954-3.7,3.531-6.439,3.531a20.548,20.548,0,0,1-6.485-1.058Z" transform="translate(-495.469 -982.57)" fill="#fff"/>
      <path id="Path_5858" data-name="Path 5858" d="M620.014,986v9.021h-2.007V986H612.72V984.13h12.6V986Z" transform="translate(-582.453 -983.897)" fill="#fff"/>
      <path id="Path_5859" data-name="Path 5859" d="M712.233,995.026h-2.316l-1.4-2.333h-7.745l-1.384,2.333H697.07l6.422-10.886h2.3ZM702.14,990.36l-.295.466h5.6l-.28-.466-2.519-4.463Z" transform="translate(-654.237 -983.906)" fill="#fff"/>
      <path id="Path_5860" data-name="Path 5860" d="M805.852,986v9.021h-2.005V986H798.56V984.13h12.6V986h-5.3Z" transform="translate(-740.607 -983.897)" fill="#fff"/>
      <path id="Path_5861" data-name="Path 5861" d="M902.731,995.026V984.14h11.8v1.867h-9.8v2.488H913.6v1.865h-8.864v2.784h10.108v1.882H902.73Z" transform="translate(-829.258 -983.906)" fill="#fff"/>
      <path id="Path_5862" data-name="Path 5862" d="M1003.681,992.866l.544-1.788a20.535,20.535,0,0,0,6.3.979c1.026,0,4.043-.124,4.043-1.57,0-.979-1.369-1.058-4.012-1.2-3.126-.171-6.485-.357-6.485-3.265s3.391-3.453,6.034-3.453a27.663,27.663,0,0,1,5.661.653l-.42,1.835a25.352,25.352,0,0,0-5.567-.621c-.778,0-3.671.077-3.671,1.478,0,1.26,2.224,1.353,4.541,1.447,3.063.124,5.956.42,5.956,3.032,0,2.954-3.7,3.531-6.439,3.531a20.547,20.547,0,0,1-6.485-1.058Z" transform="translate(-915.169 -982.57)" fill="#fff"/>
    </g>
    <g id="Kettle_Run" transform="translate(6.14 144.583)">
      <path id="Path_5863" data-name="Path 5863" d="M10.1,698.824v11.336H6.14V680.33H10.1v16.959L25.188,680.33h1.236l-9.247,10.482,10.909,19.346H23.272l-8.906-16.192-4.261,4.858Z" transform="translate(-6.14 -680.328)" fill="#fff"/>
      <path id="Path_5864" data-name="Path 5864" d="M162.274,681.31v12.784h10.1v.98h-10.1v14.1H165.6a13.89,13.89,0,0,0,10.184-3.75v4.73H158.31V680.33h17.429v4.73a13.892,13.892,0,0,0-10.184-3.75h-3.28Z" transform="translate(-135.64 -680.328)" fill="#fff"/>
      <path id="Path_5865" data-name="Path 5865" d="M322.649,680.33v4.73a13.774,13.774,0,0,0-9.673-3.75v28.849h-3.963V681.31a13.771,13.771,0,0,0-9.673,3.75v-4.73Z" transform="translate(-255.66 -680.328)" fill="#fff"/>
      <path id="Path_5866" data-name="Path 5866" d="M496.279,680.33v4.73a13.774,13.774,0,0,0-9.673-3.75v28.849h-3.963V681.31a13.771,13.771,0,0,0-9.673,3.75v-4.73Z" transform="translate(-403.424 -680.328)" fill="#fff"/>
      <path id="Path_5867" data-name="Path 5867" d="M657.143,709.179h3.282a13.891,13.891,0,0,0,10.184-3.75v4.73H653.18V680.33h3.963Z" transform="translate(-556.787 -680.328)" fill="#fff"/>
      <path id="Path_5868" data-name="Path 5868" d="M789.284,681.31v12.784h10.1v.98h-10.1v14.1h3.324a13.89,13.89,0,0,0,10.184-3.75v4.73H785.32V680.33h17.429v4.73a13.892,13.892,0,0,0-10.184-3.75Z" transform="translate(-669.241 -680.328)" fill="#fff"/>
      <path id="Path_5869" data-name="Path 5869" d="M1007.3,680.33h4.389c9.162,0,15.255.383,15.255,8.267,0,3.665-2.217,5.882-6.477,6.988l8.821,14.574h-4.645l-8.352-13.807c-1.406.128-3.367.171-5.028.171v13.636H1007.3Zm3.963,15.213c7.286,0,11.718-1.108,11.718-7.458,0-7.117-5.412-6.732-11.718-6.732Z" transform="translate(-858.152 -680.328)" fill="#fff"/>
      <path id="Path_5870" data-name="Path 5870" d="M1168.013,680.321v20.155c0,7.5,4.134,9.247,7.415,9.247,4.006,0,8.906-1.7,8.906-9.929V680.32h.98v19.3c0,8.565-4.815,11.122-10.781,11.122-4.261,0-10.482-1.236-10.482-11.036V680.321Z" transform="translate(-991.55 -680.32)" fill="#fff"/>
      <path id="Path_5871" data-name="Path 5871" d="M1336.376,680.33l18.238,23.224V680.33h.98v29.829h-.852l-20.667-26.419v26.419h-.98V682.673l-1.7-2.343Z" transform="translate(-1133.96 -680.328)" fill="#fff"/>
    </g>
    <g id="LogoIcon" transform="translate(79.673 50.8)">
      <path id="Path_5872" data-name="Path 5872" d="M574.3,88.08a37.079,37.079,0,0,1-7.471,22.387q-.791,1.055-1.658,2.053a37.281,37.281,0,0,1-56.506-.229h0c-.024-.033-.051-.063-.075-.092-.069-.077-.134-.155-.2-.234-.08-.089-.146-.171-.2-.246A37.282,37.282,0,1,1,574.3,88.08Z" transform="translate(-499.73 -50.8)" fill="#fff"/>
      <path id="Path_5873" data-name="Path 5873" d="M580.208,95.254a35.848,35.848,0,0,1-7.219,21.634q-.764,1.019-1.6,1.984a36.028,36.028,0,0,1-54.606-.223h0c-.024-.031-.049-.061-.073-.089-.067-.074-.13-.15-.191-.225-.078-.086-.142-.165-.2-.237a36.027,36.027,0,1,1,63.89-22.842Z" transform="translate(-506.896 -57.974)" fill="#004848"/>
      <path id="Path_5874" data-name="Path 5874" d="M604.43,124.94v31.669l-6.4,10.667V124.94Z" transform="translate(-583.386 -113.895)" fill="#e3c1a1"/>
      <path id="Path_5875" data-name="Path 5875" d="M730,309.791h-7.777L711.46,290.219l3.735-6.689Z" transform="translate(-679.917 -248.859)" fill="#e3c1a1"/>
      <path id="Path_5876" data-name="Path 5876" d="M619.65,172.8q-.764,1.019-1.6,1.984a13.871,13.871,0,0,1-7.127-3.312c-4.3-3.468-10.142-9.25-12.94-13.908q-1.58-2.628-3-5.105t-2.366-4.055c0-.277.1-.42.316-.42a41.623,41.623,0,0,0,8.682-.842,22.23,22.23,0,0,0,6.842-2.58,13.021,13.021,0,0,0,4.526-4.422,11.809,11.809,0,0,0,1.631-6.261,8.454,8.454,0,0,0-.474-2.685,5.937,5.937,0,0,0-1.683-2.528,9.663,9.663,0,0,0-3.21-1.843,14.845,14.845,0,0,0-5.053-.737,8.081,8.081,0,0,0-2.053.264,3.432,3.432,0,0,0-1.736,1.108,51.44,51.44,0,0,0-3.263,4.578q-2.11,3.211-4.633,7.422c-2.187,3.644-13.478,23.647-14.842,26.261-.848,1.625-3.149,4.7-3.051,6.6a1.79,1.79,0,0,0,1.192,1.455,5.74,5.74,0,0,0,2.036.261c0,.2.006.359.006.529H563.44c-.024-.031-.049-.061-.073-.089-.07-.083-.133-.159-.191-.225-.077-.086-.142-.165-.2-.237,3.739-.206,4.32-1.843,4.32-1.843l23.128-39.487s2.606-4.191,1.171-6.089c-.9-1.195-2.67-1.168-3.558-1.241a1.351,1.351,0,0,1-.012-.42h15.106c5.545,0,8.757.617,11.809,1.843a6.613,6.613,0,0,1,4.581,6.58,9.154,9.154,0,0,1-1.527,4.79,17.289,17.289,0,0,1-4.264,4.578,26.068,26.068,0,0,1-6.612,3.632,27,27,0,0,1-7.672,2.05c-.63.073-.842.353-.63.842q2,3.687,5.527,9.211c2.583,4.046,8.532,11.109,12.867,13.549a6.481,6.481,0,0,0,2.433.793Z" transform="translate(-553.557 -113.886)" fill="#fff"/>
    </g>
  </g>
</svg>
