<svg id="Layer_1" data-name="Layer 1" xmlns="http://www.w3.org/2000/svg" xmlns:xlink="http://www.w3.org/1999/xlink" viewBox="0 0 471.34 217.87"><defs><style>.cls-1{fill:none;}.cls-2{clip-path:url(#clip-path);}.cls-3{clip-path:url(#clip-path-2);}.cls-4{clip-path:url(#clip-path-3);}.cls-5{fill:#202945;}</style><clipPath id="clip-path"><circle class="cls-1" cx="-308.2" cy="-35.2" r="250"/></clipPath><clipPath id="clip-path-2"><polygon class="cls-1" points="791.44 -1032.65 355.47 -1248.96 -1128.56 -855.96 -1128.56 -313.24 -699.37 -313.24 791.44 -313.24 791.44 -1032.65"/></clipPath><clipPath id="clip-path-3"><rect class="cls-1" x="-1128.56" y="-1248.96" width="2255.46" height="1174.72"/></clipPath></defs><title>B3</title><g class="cls-2"><image width="2048" height="1212" transform="translate(-626.31 -289.92) scale(0.42)" xlink:href="../../Q2/Links/CM%20WF%20Westfield%201.jpg"/></g><g class="cls-3"><g class="cls-4"><image width="2048" height="1375" transform="translate(-1462 -1434.33) scale(1.14 1.14)" xlink:href="../../Q2/Links/CM%20WF%20Westfield%2011%20ret.jpg"/></g></g><path class="cls-5" d="M24.14,208.5a1.71,1.71,0,0,1,.54.1,1.5,1.5,0,0,1,.51.35l3,3.15A12.51,12.51,0,0,1,23.26,216a17.35,17.35,0,0,1-7,1.3A16.74,16.74,0,0,1,9.59,216a14.49,14.49,0,0,1-5-3.49,15.35,15.35,0,0,1-3.14-5.28,19.46,19.46,0,0,1-1.09-6.63,17.41,17.41,0,0,1,1.25-6.7,15.49,15.49,0,0,1,3.5-5.26,15.74,15.74,0,0,1,5.38-3.45A18.71,18.71,0,0,1,17.41,184a17.27,17.27,0,0,1,3.45.33,16.44,16.44,0,0,1,3,.89,14.24,14.24,0,0,1,2.6,1.37,12,12,0,0,1,2.1,1.75L26,191.75a3.14,3.14,0,0,1-.58.57,1.52,1.52,0,0,1-.94.26,1.67,1.67,0,0,1-.76-.18c-.24-.12-.49-.26-.76-.43l-.88-.56a7.57,7.57,0,0,0-1.14-.56,10,10,0,0,0-1.55-.44,10.49,10.49,0,0,0-2.07-.18,9.5,9.5,0,0,0-3.75.73A8.13,8.13,0,0,0,10.69,193a9.38,9.38,0,0,0-1.9,3.28,12.69,12.69,0,0,0-.69,4.31,13.24,13.24,0,0,0,.69,4.45,9.75,9.75,0,0,0,1.85,3.28,7.81,7.81,0,0,0,2.74,2,8.25,8.25,0,0,0,3.36.69,18.09,18.09,0,0,0,1.88-.09,8.21,8.21,0,0,0,1.57-.35,7,7,0,0,0,1.39-.64,9.12,9.12,0,0,0,1.33-1,2.72,2.72,0,0,1,.58-.37,1.51,1.51,0,0,1,.65-.15Z"/><path class="cls-5" d="M41.25,199.67h3a7.84,7.84,0,0,0,2.63-.39,4.74,4.74,0,0,0,1.78-1.09,4.13,4.13,0,0,0,1-1.62,6.17,6.17,0,0,0,.31-2,4.18,4.18,0,0,0-1.39-3.35A6.51,6.51,0,0,0,44.29,190h-3v9.66Zm0,5.21v12.06H33.69V184.35h10.6a21.63,21.63,0,0,1,6,.73,11.41,11.41,0,0,1,4.07,2,7.77,7.77,0,0,1,2.29,3.06A10.15,10.15,0,0,1,57.4,194a10.46,10.46,0,0,1-.43,3,8.83,8.83,0,0,1-1.26,2.6,9.92,9.92,0,0,1-2.06,2.14,10.69,10.69,0,0,1-2.81,1.54,7.44,7.44,0,0,1,1.42.94,5.51,5.51,0,0,1,1.15,1.37l6.94,11.34H53.5a2.92,2.92,0,0,1-2.73-1.44L45.36,206a2.34,2.34,0,0,0-.84-.89,2.78,2.78,0,0,0-1.35-.27Z"/><path class="cls-5" d="M75.78,204.48h8.9l-3-8.92c-.19-.57-.42-1.24-.68-2s-.52-1.6-.77-2.5c-.24.91-.49,1.75-.74,2.53s-.49,1.44-.71,2l-3,8.88Zm20.93,12.46H90.85a2.77,2.77,0,0,1-1.62-.46,2.39,2.39,0,0,1-.88-1.18l-1.93-5.68H74l-1.92,5.68a2.6,2.6,0,0,1-2.46,1.64h-5.9l12.61-32.59H84.1l12.61,32.59Z"/><polygon class="cls-5" points="121.49 184.35 121.49 190.16 108.12 190.16 108.12 198.42 119.25 198.42 119.25 204.26 108.12 204.26 108.12 216.94 100.51 216.94 100.51 184.35 121.49 184.35 121.49 184.35"/><polygon class="cls-5" points="151.15 184.35 151.15 190.34 141.98 190.34 141.98 216.94 134.42 216.94 134.42 190.34 125.25 190.34 125.25 184.35 151.15 184.35 151.15 184.35"/><path class="cls-5" d="M172.07,203.8c.27.62.54,1.24.79,1.89q.38-1,.81-1.92t.87-1.8l8.36-16.48a2.8,2.8,0,0,1,.46-.66,1.5,1.5,0,0,1,.53-.34,1.69,1.69,0,0,1,.66-.12h6.63v32.57h-6.67V198.19c0-.91.05-1.89.14-2.95L176,212a2.83,2.83,0,0,1-2.64,1.59h-1a3,3,0,0,1-1.56-.4,2.91,2.91,0,0,1-1.08-1.19L161,195.22c.06.52.1,1,.14,1.56s0,1,0,1.41v18.75h-6.67V184.37h6.64a1.76,1.76,0,0,1,.66.12,1.56,1.56,0,0,1,.52.34,2.8,2.8,0,0,1,.46.66L171.21,202c.29.56.58,1.15.86,1.76Z"/><path class="cls-5" d="M206.21,204.48h8.9l-3-8.92c-.19-.57-.42-1.24-.68-2s-.52-1.6-.77-2.5c-.24.91-.49,1.75-.74,2.53s-.49,1.44-.72,2l-3,8.88Zm20.93,12.46h-5.86a2.75,2.75,0,0,1-1.62-.46,2.33,2.33,0,0,1-.88-1.18l-1.93-5.68H204.46l-1.92,5.68a2.6,2.6,0,0,1-2.46,1.64h-5.9l12.61-32.59h7.74l12.61,32.59Z"/><path class="cls-5" d="M238.5,199.67h3a7.8,7.8,0,0,0,2.63-.39,4.66,4.66,0,0,0,1.78-1.09,4.15,4.15,0,0,0,1-1.62,6.45,6.45,0,0,0,.31-2,4.19,4.19,0,0,0-1.4-3.35,6.49,6.49,0,0,0-4.33-1.21h-3v9.66Zm0,5.21v12.06h-7.56V184.35h10.6a21.53,21.53,0,0,1,6,.73,11.32,11.32,0,0,1,4.07,2,7.68,7.68,0,0,1,2.29,3.06,10.66,10.66,0,0,1,.29,6.85,8.83,8.83,0,0,1-1.26,2.6,9.92,9.92,0,0,1-2.06,2.14,10.79,10.79,0,0,1-2.8,1.54,7.77,7.77,0,0,1,1.42.94,6,6,0,0,1,1.15,1.37l6.93,11.34h-6.84A2.9,2.9,0,0,1,248,215.5L242.62,206a2.34,2.34,0,0,0-.84-.89,2.78,2.78,0,0,0-1.35-.27Z"/><path class="cls-5" d="M269.41,197.55h1.21A2.74,2.74,0,0,0,273,196.5l7.34-10.65a3.18,3.18,0,0,1,1.37-1.19,5.27,5.27,0,0,1,1.89-.31h6.58l-9.66,13.17a6.68,6.68,0,0,1-1.08,1.19,6.79,6.79,0,0,1-1.14.78,5.92,5.92,0,0,1,1.56.86,5.84,5.84,0,0,1,1.28,1.47L291,216.94h-6.75a5.93,5.93,0,0,1-1.11-.09,2.82,2.82,0,0,1-.79-.27,2.34,2.34,0,0,1-.58-.44,4.06,4.06,0,0,1-.47-.59l-7.38-11.34a2.21,2.21,0,0,0-1-.88,4.46,4.46,0,0,0-1.67-.26h-1.83v13.87h-7.56V184.35h7.56v13.2Z"/><polygon class="cls-5" points="336.77 216.94 329.17 216.94 329.17 203.16 315.93 203.16 315.93 216.94 308.32 216.94 308.32 184.35 315.93 184.35 315.93 197.97 329.17 197.97 329.17 184.35 336.77 184.35 336.77 216.94 336.77 216.94"/><path class="cls-5" d="M367.72,200.63a14,14,0,0,0-.63-4.35A9.05,9.05,0,0,0,365.3,193a7.85,7.85,0,0,0-2.88-2.06,9.82,9.82,0,0,0-3.87-.72,10,10,0,0,0-3.9.72,7.8,7.8,0,0,0-2.89,2.06,9.22,9.22,0,0,0-1.8,3.27,15.64,15.64,0,0,0,0,8.72,9.27,9.27,0,0,0,1.8,3.28,7.67,7.67,0,0,0,2.89,2.05,10.16,10.16,0,0,0,3.9.7,10,10,0,0,0,3.87-.7,7.71,7.71,0,0,0,2.88-2.05,9.1,9.1,0,0,0,1.79-3.28,14.05,14.05,0,0,0,.63-4.37Zm7.74,0a17.58,17.58,0,0,1-1.22,6.58,15.49,15.49,0,0,1-8.77,8.81,19.52,19.52,0,0,1-13.85,0,16,16,0,0,1-5.36-3.52,15.76,15.76,0,0,1-3.44-5.29,18.33,18.33,0,0,1,0-13.15,15.62,15.62,0,0,1,3.44-5.28,16,16,0,0,1,5.36-3.51,18.23,18.23,0,0,1,6.93-1.28,17.92,17.92,0,0,1,6.92,1.29,16.08,16.08,0,0,1,5.34,3.52,15.75,15.75,0,0,1,3.43,5.28,17.5,17.5,0,0,1,1.22,6.55Z"/><path class="cls-5" d="M397.77,203.8c.27.62.54,1.24.79,1.89q.38-1,.81-1.92t.87-1.8l8.36-16.48a2.8,2.8,0,0,1,.46-.66,1.56,1.56,0,0,1,.52-.34,1.78,1.78,0,0,1,.67-.12h6.63v32.57h-6.67V198.19c0-.91.05-1.89.14-2.95L401.71,212a2.84,2.84,0,0,1-1.08,1.19,3,3,0,0,1-1.56.4h-1a3,3,0,0,1-1.56-.4,2.91,2.91,0,0,1-1.08-1.19l-8.68-16.77c.06.52.1,1,.13,1.56s.05,1,.05,1.41v18.75h-6.67V184.37h6.63a1.69,1.69,0,0,1,.66.12,1.5,1.5,0,0,1,.53.34,2.8,2.8,0,0,1,.46.66L396.91,202c.29.56.58,1.15.86,1.76Z"/><polygon class="cls-5" points="444.39 184.35 444.39 190.16 431.01 190.16 431.01 197.77 441.25 197.77 441.25 203.36 431.01 203.36 431.01 211.12 444.39 211.12 444.39 216.94 423.41 216.94 423.41 184.35 444.39 184.35 444.39 184.35"/><path class="cls-5" d="M468.9,191a2.9,2.9,0,0,1-.71.81,1.55,1.55,0,0,1-.95.26,2.24,2.24,0,0,1-1.1-.32l-1.35-.73a11.42,11.42,0,0,0-1.71-.72,6.72,6.72,0,0,0-2.19-.33,4.66,4.66,0,0,0-3.16.91,3.06,3.06,0,0,0-1.05,2.45,2.25,2.25,0,0,0,.63,1.63,5.62,5.62,0,0,0,1.65,1.12,17.51,17.51,0,0,0,2.32.86c.88.26,1.77.55,2.68.87a25.7,25.7,0,0,1,2.67,1.13,8.54,8.54,0,0,1,2.32,1.66A7.61,7.61,0,0,1,470.6,203a8.84,8.84,0,0,1,.62,3.48,11.36,11.36,0,0,1-.78,4.23,9.93,9.93,0,0,1-2.27,3.43,10.6,10.6,0,0,1-3.67,2.31,13.88,13.88,0,0,1-4.95.83,15.74,15.74,0,0,1-3.1-.31,18.41,18.41,0,0,1-3.05-.88,16.57,16.57,0,0,1-2.77-1.36,11.55,11.55,0,0,1-2.26-1.74l2.23-3.53a1.88,1.88,0,0,1,.69-.65,1.92,1.92,0,0,1,1-.25,2.49,2.49,0,0,1,1.35.43l1.54.94a13,13,0,0,0,2,.93,7.31,7.31,0,0,0,2.64.43,5,5,0,0,0,3.2-.91,3.44,3.44,0,0,0,1.14-2.87,2.77,2.77,0,0,0-.62-1.86,4.92,4.92,0,0,0-1.65-1.18,15.84,15.84,0,0,0-2.31-.83c-.87-.24-1.76-.5-2.67-.79a19.51,19.51,0,0,1-2.66-1.08,8.41,8.41,0,0,1-2.31-1.67,7.93,7.93,0,0,1-1.65-2.6,10.41,10.41,0,0,1-.62-3.83,9,9,0,0,1,.74-3.58,9.17,9.17,0,0,1,2.17-3.11,10.51,10.51,0,0,1,3.51-2.18,13,13,0,0,1,4.76-.82,17.52,17.52,0,0,1,2.92.24,14.33,14.33,0,0,1,2.69.69,14.91,14.91,0,0,1,2.39,1.1,10.74,10.74,0,0,1,2,1.44L468.9,191Z"/><polygon class="cls-5" points="471.34 160.46 0.25 160.46 0.25 157.98 471.34 157.98 471.34 160.46 471.34 160.46"/><path class="cls-5" d="M19.42,40.65A25.74,25.74,0,0,0,28,39.32a19.1,19.1,0,0,0,6.45-3.7,16,16,0,0,0,4.05-5.57,17.25,17.25,0,0,0,1.42-7q0-8.37-5.14-12.89T19.42,5.64H5.92v35Zm0-39.17q12.78,0,19.28,5.59t6.49,16a21.34,21.34,0,0,1-1.79,8.78,19.82,19.82,0,0,1-5.14,6.91,23.76,23.76,0,0,1-8.11,4.51,33.26,33.26,0,0,1-10.73,1.62H5.92V74.13H.63V1.48Z"/><path class="cls-5" d="M77.85,37.36a29.94,29.94,0,0,0,8.65-1.15A18.65,18.65,0,0,0,93,32.9a14.42,14.42,0,0,0,4-5.19,16.28,16.28,0,0,0,1.38-6.83q0-7.74-5-11.5T78.56,5.64H65.27V37.36Zm32.24,36.77h-4.52a3.33,3.33,0,0,1-1.46-.29,2.87,2.87,0,0,1-1.11-1L79.69,43.32a6.92,6.92,0,0,0-.84-1,3.53,3.53,0,0,0-1-.64,5.3,5.3,0,0,0-1.28-.33,13.52,13.52,0,0,0-1.82-.1h-9.5V74.13H60V1.48H78.56q12.54,0,18.77,4.85t6.24,14.25a19.44,19.44,0,0,1-1.44,7.59,17.91,17.91,0,0,1-4.13,6,21.47,21.47,0,0,1-6.52,4.23,30.89,30.89,0,0,1-8.6,2.21,8.33,8.33,0,0,1,2.2,2.05l25,31.43Z"/><polygon class="cls-5" points="165.95 69.76 165.84 74.13 122.31 74.13 122.31 1.48 165.84 1.48 165.84 5.84 127.59 5.84 127.59 35.21 159.43 35.21 159.43 39.47 127.59 39.47 127.59 69.76 165.95 69.76 165.95 69.76"/><path class="cls-5" d="M217.13,10.31a1.44,1.44,0,0,1-1.33.87,3,3,0,0,1-1.72-.95,22.51,22.51,0,0,0-2.85-2.1A23.29,23.29,0,0,0,206.74,6a20,20,0,0,0-6.65-1,19.76,19.76,0,0,0-7,1.13,14.48,14.48,0,0,0-5,3.08A13.13,13.13,0,0,0,185,13.75,14.1,14.1,0,0,0,184,19.14a11.06,11.06,0,0,0,1.56,6.11,14.11,14.11,0,0,0,4.14,4.11,27.15,27.15,0,0,0,5.82,2.84c2.18.77,4.41,1.54,6.7,2.29s4.53,1.58,6.7,2.49a24.41,24.41,0,0,1,5.83,3.41,15.67,15.67,0,0,1,4.13,5.06,16,16,0,0,1,1.57,7.47,23.41,23.41,0,0,1-1.57,8.6,20,20,0,0,1-4.54,7,21.56,21.56,0,0,1-7.29,4.7A26.56,26.56,0,0,1,197.16,75a27.92,27.92,0,0,1-12.37-2.54,29.27,29.27,0,0,1-9.09-7l1.44-2.26a1.82,1.82,0,0,1,1.44-.77,2,2,0,0,1,1.18.62l1.74,1.51c.69.6,1.51,1.25,2.47,2a20.88,20.88,0,0,0,3.33,2A23.71,23.71,0,0,0,191.67,70a23.17,23.17,0,0,0,5.59.61A21.13,21.13,0,0,0,205,69.27a16.75,16.75,0,0,0,5.72-3.57,15,15,0,0,0,3.57-5.36,17.9,17.9,0,0,0,1.23-6.65,11.75,11.75,0,0,0-1.56-6.34,13.58,13.58,0,0,0-4.14-4.16,26.94,26.94,0,0,0-5.83-2.8q-3.26-1.12-6.7-2.2t-6.7-2.42a23.26,23.26,0,0,1-5.82-3.41,15.8,15.8,0,0,1-4.14-5.19A17.23,17.23,0,0,1,179,19.4a18.51,18.51,0,0,1,1.38-7,17.59,17.59,0,0,1,4.06-6,20,20,0,0,1,6.6-4.16,24.11,24.11,0,0,1,9-1.56,27.1,27.1,0,0,1,10.14,1.79A24.38,24.38,0,0,1,218.37,8l-1.24,2.36Z"/><polygon class="cls-5" points="280.44 69.76 280.33 74.13 236.8 74.13 236.8 1.48 280.33 1.48 280.33 5.84 242.09 5.84 242.09 35.21 273.92 35.21 273.92 39.47 242.09 39.47 242.09 69.76 280.44 69.76 280.44 69.76"/><path class="cls-5" d="M314.22,37.36a29.9,29.9,0,0,0,8.65-1.15,18.56,18.56,0,0,0,6.47-3.31,14.42,14.42,0,0,0,4-5.19,16.28,16.28,0,0,0,1.39-6.83q0-7.74-5.06-11.5T314.94,5.64h-13.3V37.36Zm32.24,36.77h-4.52a3.33,3.33,0,0,1-1.46-.29,2.92,2.92,0,0,1-1.1-1L316.07,43.32a7.68,7.68,0,0,0-.85-1,3.63,3.63,0,0,0-1-.64,5.27,5.27,0,0,0-1.29-.33,13.42,13.42,0,0,0-1.82-.1h-9.5V74.13h-5.29V1.48h18.59q12.53,0,18.76,4.85t6.24,14.25a19.44,19.44,0,0,1-1.44,7.59,17.63,17.63,0,0,1-4.13,6,21.47,21.47,0,0,1-6.52,4.23,30.89,30.89,0,0,1-8.6,2.21,8.36,8.36,0,0,1,2.21,2.05l25,31.43Z"/><path class="cls-5" d="M414.64,1.48l-30,72.65H380L350,1.48h4.16a1.8,1.8,0,0,1,1.18.38,2.55,2.55,0,0,1,.72,1l24.75,60.28c.27.75.55,1.56.82,2.41s.53,1.73.77,2.62c.21-.89.43-1.76.67-2.62a21.94,21.94,0,0,1,.82-2.41L408.58,2.86a2.25,2.25,0,0,1,.72-1,1.91,1.91,0,0,1,1.24-.41Z"/><polygon class="cls-5" points="470.35 69.76 470.25 74.13 426.71 74.13 426.71 1.48 470.25 1.48 470.25 5.84 432 5.84 432 35.21 463.83 35.21 463.83 39.47 432 39.47 432 69.76 470.35 69.76 470.35 69.76"/><path class="cls-5" d="M87.74,122.59l-6.8-16.89a16,16,0,0,1-.69-2c-.09.38-.19.73-.3,1.07a9.24,9.24,0,0,1-.36.94l-6.8,16.86Zm7.39,12.14H93.27a.85.85,0,0,1-.55-.18,1.21,1.21,0,0,1-.33-.46l-3.92-9.71H72.06l-3.92,9.71a1,1,0,0,1-.33.45.87.87,0,0,1-.57.19H65.4l13.67-33.42h2.39l13.67,33.42Z"/><polygon class="cls-5" points="117.21 103.36 105.48 103.36 105.48 134.73 103.04 134.73 103.04 103.36 91.23 103.36 91.23 101.31 117.21 101.31 117.21 103.36 117.21 103.36"/><path class="cls-5" d="M177.06,101.31l-10.51,33.42h-2.17l-9.87-29c-.13-.4-.24-.81-.34-1.23a12.35,12.35,0,0,1-.33,1.23l-9.89,29H141.8l-10.53-33.42h2a.83.83,0,0,1,.88.64l8.43,27.46c.17.63.33,1.35.47,2.15q.12-.62.24-1.14a9.25,9.25,0,0,1,.28-1L153,102a.92.92,0,0,1,.33-.45.85.85,0,0,1,.57-.19h.66a.8.8,0,0,1,.54.18,1.14,1.14,0,0,1,.33.46l9.45,27.46a7.48,7.48,0,0,1,.29,1c.09.36.17.74.25,1.13.08-.39.15-.77.23-1.12s.14-.69.22-1L174.32,102a.79.79,0,0,1,.32-.45.9.9,0,0,1,.58-.19Z"/><polygon class="cls-5" points="203.2 132.72 203.16 134.73 183.13 134.73 183.13 101.31 203.16 101.31 203.16 103.32 185.56 103.32 185.56 116.83 200.21 116.83 200.21 118.79 185.56 118.79 185.56 132.72 203.2 132.72 203.2 132.72"/><path class="cls-5" d="M225.8,105.37a.65.65,0,0,1-.61.4,1.35,1.35,0,0,1-.79-.43,9.9,9.9,0,0,0-1.31-1,10,10,0,0,0-2.07-1,10.35,10.35,0,0,0-6.26.07,6.54,6.54,0,0,0-2.31,1.42A6,6,0,0,0,211,107a6.56,6.56,0,0,0-.48,2.48,5.05,5.05,0,0,0,.72,2.81,6.46,6.46,0,0,0,1.9,1.89,12.62,12.62,0,0,0,2.68,1.32l3.08,1c1.06.34,2.08.72,3.08,1.14a11,11,0,0,1,2.68,1.57,7.22,7.22,0,0,1,1.91,2.33,7.35,7.35,0,0,1,.72,3.43,10.83,10.83,0,0,1-.72,4,9.19,9.19,0,0,1-2.09,3.22,9.79,9.79,0,0,1-3.36,2.17,12.29,12.29,0,0,1-4.53.79,12.78,12.78,0,0,1-5.69-1.17,13.41,13.41,0,0,1-4.18-3.2l.66-1a.83.83,0,0,1,.66-.36,1,1,0,0,1,.54.29l.8.69q.48.42,1.14.9a10,10,0,0,0,1.53.9,10.73,10.73,0,0,0,2,.69,10.57,10.57,0,0,0,2.57.29,9.82,9.82,0,0,0,3.55-.6,7.8,7.8,0,0,0,2.63-1.65,6.77,6.77,0,0,0,1.64-2.46,8.24,8.24,0,0,0,.57-3.06,5.42,5.42,0,0,0-.72-2.92,6.29,6.29,0,0,0-1.9-1.91,12.57,12.57,0,0,0-2.68-1.29c-1-.34-2-.68-3.09-1s-2.08-.7-3.08-1.11a10.64,10.64,0,0,1-2.68-1.58,7.2,7.2,0,0,1-1.9-2.38,7.92,7.92,0,0,1-.72-3.58,8.35,8.35,0,0,1,.64-3.23,8.16,8.16,0,0,1,1.86-2.76,9.22,9.22,0,0,1,3-1.91,11.05,11.05,0,0,1,4.12-.72,12.45,12.45,0,0,1,4.66.83,11,11,0,0,1,3.77,2.53l-.57,1.08Z"/><polygon class="cls-5" points="256.58 103.36 244.84 103.36 244.84 134.73 242.41 134.73 242.41 103.36 230.6 103.36 230.6 101.31 256.58 101.31 256.58 103.36 256.58 103.36"/><polygon class="cls-5" points="264.63 103.32 264.63 117.37 279.86 117.37 279.86 119.38 264.63 119.38 264.63 134.73 262.2 134.73 262.2 101.31 282.23 101.31 282.23 103.32 264.63 103.32 264.63 103.32"/><polygon class="cls-5" points="291.29 134.73 288.86 134.73 288.86 101.31 291.29 101.31 291.29 134.73 291.29 134.73"/><polygon class="cls-5" points="321.24 132.72 321.19 134.73 301.17 134.73 301.17 101.31 321.19 101.31 321.19 103.32 303.6 103.32 303.6 116.83 318.24 116.83 318.24 118.79 303.6 118.79 303.6 132.72 321.24 132.72 321.24 132.72"/><polygon class="cls-5" points="346.82 132.67 346.82 134.73 328.56 134.73 328.56 101.31 330.99 101.31 330.99 132.67 346.82 132.67 346.82 132.67"/><path class="cls-5" d="M378.11,118a18.58,18.58,0,0,0-1-6.24,13,13,0,0,0-2.74-4.63,11.7,11.7,0,0,0-4.25-2.88,14.64,14.64,0,0,0-5.48-1h-9.78v29.5h9.78a14.64,14.64,0,0,0,5.48-1,11.85,11.85,0,0,0,4.25-2.89,13,13,0,0,0,2.74-4.62,18.66,18.66,0,0,0,1-6.26Zm2.5,0a19.77,19.77,0,0,1-1.15,7,15,15,0,0,1-3.26,5.27,14.13,14.13,0,0,1-5,3.33,17.67,17.67,0,0,1-6.49,1.16H352.46V101.31h12.21a17.67,17.67,0,0,1,6.49,1.16,14.13,14.13,0,0,1,5,3.33,15.05,15.05,0,0,1,3.26,5.26,19.79,19.79,0,0,1,1.15,7Z"/><path class="cls-5" d="M402.69,105.37a.65.65,0,0,1-.61.4,1.35,1.35,0,0,1-.79-.43,9.9,9.9,0,0,0-1.31-1,10,10,0,0,0-2.07-1,10.35,10.35,0,0,0-6.26.07,6.54,6.54,0,0,0-2.31,1.42,6,6,0,0,0-1.42,2.07,6.56,6.56,0,0,0-.48,2.48,5.05,5.05,0,0,0,.72,2.81,6.46,6.46,0,0,0,1.9,1.89,12.62,12.62,0,0,0,2.68,1.32l3.08,1c1.06.34,2.08.72,3.08,1.14a11,11,0,0,1,2.68,1.57,6.86,6.86,0,0,1,2.63,5.76,10.83,10.83,0,0,1-.72,4,9.33,9.33,0,0,1-2.09,3.22,9.89,9.89,0,0,1-3.36,2.17,12.29,12.29,0,0,1-4.53.79,12.78,12.78,0,0,1-5.69-1.17,13.41,13.41,0,0,1-4.18-3.2l.66-1a.83.83,0,0,1,.66-.36,1,1,0,0,1,.54.29l.8.69q.48.42,1.14.9a10,10,0,0,0,1.53.9,10.73,10.73,0,0,0,2,.69,10.57,10.57,0,0,0,2.57.29,9.82,9.82,0,0,0,3.55-.6,7.8,7.8,0,0,0,2.63-1.65,6.9,6.9,0,0,0,1.64-2.46,8.24,8.24,0,0,0,.57-3.06,5.42,5.42,0,0,0-.72-2.92,6.29,6.29,0,0,0-1.9-1.91,12.57,12.57,0,0,0-2.68-1.29c-1-.34-2-.68-3.09-1s-2.08-.7-3.08-1.11a10.64,10.64,0,0,1-2.68-1.58,7.08,7.08,0,0,1-1.9-2.38,7.92,7.92,0,0,1-.72-3.58,8.35,8.35,0,0,1,.64-3.23,8.16,8.16,0,0,1,1.86-2.76,9.22,9.22,0,0,1,3-1.91,11.05,11.05,0,0,1,4.12-.72,12.45,12.45,0,0,1,4.66.83,11,11,0,0,1,3.77,2.53l-.57,1.08Z"/></svg>