<svg id="Layer_1" data-name="Layer 1" xmlns="http://www.w3.org/2000/svg" xmlns:xlink="http://www.w3.org/1999/xlink" viewBox="0 0 471.34 99.64"><defs><style>.cls-1{fill:none;}.cls-2{clip-path:url(#clip-path);}.cls-3{clip-path:url(#clip-path-2);}.cls-4{clip-path:url(#clip-path-3);}.cls-5{fill:#202945;}.cls-6{fill:#202944;}.cls-7{fill:#ed9022;}.cls-8{fill:#68c9d2;}</style><clipPath id="clip-path"><rect class="cls-1" x="556.07" y="-450.36" width="375" height="550"/></clipPath><clipPath id="clip-path-2"><polygon class="cls-1" points="931.11 77.27 598.53 77.27 724.91 -425.78 931.03 -425.78 931.11 77.27"/></clipPath><clipPath id="clip-path-3"><rect class="cls-1" y="0.19" width="471.34" height="99.45"/></clipPath><image id="image" width="4000" height="2667" xlink:href="../Q1/Links/20190215-003-CMH-GeorgiaRow-Carter-9C%20copy.jpg"/></defs><title>B3</title><g class="cls-2"><use transform="translate(268.91 -456.85) scale(0.18 0.21)" xlink:href="#image"/></g><g class="cls-3"><use transform="translate(454.24 -557.24) scale(0.25)" xlink:href="#image"/></g><g class="cls-4"><path class="cls-5" d="M21.84,24.45A16.45,16.45,0,1,0,38.28,40.9,16.46,16.46,0,0,0,21.84,24.45ZM43.49,59.5c0,20.67-13.66,24.26-22.1,24.26S5,80.53.81,75.05l4.22-4c3.78,5.3,9.89,7.82,16.36,7.82,16.44,0,16.71-14.38,16.71-19V54.11h-.18c-3.14,4.94-8.62,8.08-15.72,8.08C10,62.19,0,52.58,0,40.9S10,19.6,22.2,19.6c7.1,0,12.58,3.14,15.72,8.09h.18v-7h5.39V59.5Z"/></g><path class="cls-5" d="M89.24,37.93c0-7.37-6.38-13.48-14.37-13.48-11.78,0-15.1,11.33-15.1,13.48Zm4.14,16.45c-4.23,6.29-10.61,8.89-18,8.89-12.67,0-21-9.07-21-21.92C54.38,29,63,19.6,75.13,19.6,87.9,19.6,94.64,29.39,94.64,39v3.77H59.77c0,4.5,3.14,15.64,15.72,15.64,5.49,0,11.24-2.88,13.93-7.37l4,3.33Z"/><path class="cls-5" d="M126.19,58.42c10.15,0,16.44-7.64,16.44-17s-6.29-17-16.44-17-16.45,7.64-16.45,17,6.29,17,16.45,17Zm0-38.82C139,19.6,148,28.77,148,41.44S139,63.27,126.19,63.27s-21.84-9.16-21.84-21.83,9.07-21.84,21.84-21.84Z"/><path class="cls-5" d="M160.07,32.36c0-3.06-.45-9.53-.45-11.68H165c.09,3.05.18,6.47.36,7.28,2.7-4.86,7-8.36,13.21-8.36a12.68,12.68,0,0,1,3.15.45l-.63,5.3A6.66,6.66,0,0,0,179,25c-9.34,0-13.57,6.47-13.57,14.56V62.19h-5.39V32.36Z"/><path class="cls-5" d="M208.44,24.45A16.45,16.45,0,1,0,224.88,40.9a16.46,16.46,0,0,0-16.44-16.45ZM230.1,59.5c0,20.67-13.66,24.26-22.11,24.26s-16.36-3.23-20.58-8.71l4.22-4c3.78,5.3,9.89,7.82,16.36,7.82,16.44,0,16.71-14.38,16.71-19V54.11h-.18c-3.14,4.94-8.62,8.08-15.72,8.08-12.22,0-22.2-9.61-22.2-21.29s10-21.3,22.2-21.3c7.1,0,12.58,3.14,15.72,8.09h.18v-7h5.4V59.5Z"/><path class="cls-5" d="M244.21,20.68h5.39V62.19h-5.39V20.68ZM246.91.19a4,4,0,1,1-4,4,4,4,0,0,1,4-4Z"/><path class="cls-5" d="M286.36,41.35c-9,0-18,2.24-18,9.34,0,5.12,4.94,7.73,9.43,7.73,11.5,0,14.47-7.37,14.47-14.29V41.35Zm10.78,3.41A127,127,0,0,0,298,62.19h-5a40,40,0,0,1-.54-6.73h-.18c-3.06,5.3-7.55,7.81-14.56,7.81S263,59.77,263,51C263,38.29,277.82,37,286,37h6.29V34.52c0-7.19-5-10.07-11.68-10.07a18.73,18.73,0,0,0-12.67,4.68l-3.15-3.69c4-3.77,10.43-5.84,15.82-5.84,10.06,0,16.53,4.49,16.53,15V44.76Z"/><path class="cls-5" d="M334.9,32.36c0-3.06-.45-9.53-.45-11.68h5.39c.09,3.05.18,6.47.36,7.28,2.69-4.86,7-8.36,13.21-8.36a12.53,12.53,0,0,1,3.14.45l-.62,5.3a6.66,6.66,0,0,0-2.07-.36c-9.35,0-13.57,6.47-13.57,14.56V62.19H334.9V32.36Z"/><path class="cls-5" d="M382.72,58.42c10.16,0,16.45-7.64,16.45-17s-6.29-17-16.45-17-16.44,7.64-16.44,17,6.29,17,16.44,17Zm0-38.82c12.76,0,21.84,9.17,21.84,21.84s-9.08,21.83-21.84,21.83-21.83-9.16-21.83-21.83S370,19.6,382.72,19.6Z"/><polygon class="cls-5" points="410.77 20.68 416.7 20.68 426.77 55.45 426.95 55.45 438.54 20.68 443.66 20.68 455.97 55.45 456.15 55.45 465.94 20.68 471.34 20.68 459.12 62.19 453.55 62.19 441.14 28.23 440.96 28.23 429.37 62.19 423.8 62.19 410.77 20.68 410.77 20.68"/><path class="cls-5" d="M247,88.37,245,93.31h3.89l-2-4.94Zm-1.34-4.63h2.89l6.92,15.9h-3.95l-1.37-3.36h-6.18l-1.32,3.36h-3.86l6.87-15.9Z"/><polygon class="cls-5" points="260.87 86.84 256.33 86.84 256.33 83.74 268.91 83.74 268.91 86.84 264.37 86.84 264.37 99.64 260.87 99.64 260.87 86.84 260.87 86.84"/><polygon class="cls-5" points="281.29 83.74 285.11 83.74 287.65 93.94 287.69 93.94 291.02 83.74 294.27 83.74 297.58 94.21 297.62 94.21 300.29 83.74 303.84 83.74 299.19 99.64 296.07 99.64 292.57 88.64 292.52 88.64 289.02 99.64 286.01 99.64 281.29 83.74 281.29 83.74"/><path class="cls-5" d="M314.25,88.37l-1.93,4.94h3.89l-2-4.94Zm-1.34-4.63h2.89l6.92,15.9h-4l-1.37-3.36h-6.18l-1.32,3.36H306l6.88-15.9Z"/><polygon class="cls-5" points="327.27 83.74 330.77 83.74 330.77 96.41 337.26 96.41 337.26 99.64 327.27 99.64 327.27 83.74 327.27 83.74"/><polygon class="cls-5" points="343.02 86.84 338.48 86.84 338.48 83.74 351.06 83.74 351.06 86.84 346.52 86.84 346.52 99.64 343.02 99.64 343.02 86.84 343.02 86.84"/><polygon class="cls-5" points="355.79 83.74 366.59 83.74 366.59 86.98 359.29 86.98 359.29 89.94 366.18 89.94 366.18 93.18 359.29 93.18 359.29 96.41 366.99 96.41 366.99 99.64 355.79 99.64 355.79 83.74 355.79 83.74"/><path class="cls-5" d="M376.12,90.32h2.06c1.28,0,2.94,0,2.94-1.77s-1.43-1.84-2.71-1.84h-2.29v3.61Zm-3.51-6.58h6.16c3.25,0,6,1.13,6,4.83a4.1,4.1,0,0,1-3.43,4.36l4,6.71h-4.2l-3.32-6.35h-1.73v6.35h-3.51V83.74Z"/><path class="cls-5" d="M403,90.32H405c1.28,0,2.94,0,2.94-1.77s-1.43-1.84-2.71-1.84H403v3.61Zm-3.51-6.58h6.16c3.25,0,6,1.13,6,4.83a4.1,4.1,0,0,1-3.43,4.36l4,6.71H408l-3.33-6.35H403v6.35h-3.51V83.74Z"/><polygon class="cls-5" points="416.95 83.74 427.75 83.74 427.75 86.98 420.45 86.98 420.45 89.94 427.34 89.94 427.34 93.18 420.45 93.18 420.45 96.41 428.15 96.41 428.15 99.64 416.95 99.64 416.95 83.74 416.95 83.74"/><polygon class="cls-5" points="433.91 83.74 444.71 83.74 444.71 86.98 437.41 86.98 437.41 89.94 444.31 89.94 444.31 93.18 437.41 93.18 437.41 96.41 445.12 96.41 445.12 99.64 433.91 99.64 433.91 83.74 433.91 83.74"/><path class="cls-5" d="M454.24,96.41h1.82c3.26,0,5.71-1.24,5.71-4.85,0-3.12-2.5-4.58-5.46-4.58h-2.07v9.43Zm-3.5-12.67H456c5.13,0,9.42,2.18,9.42,8,0,5.14-4.2,7.9-8.94,7.9h-5.73V83.74Z"/><polygon class="cls-6" points="126.08 99.64 110.06 99.64 110.06 83.61 126.08 83.61 126.08 99.64 126.08 99.64"/><polygon class="cls-7" points="146.22 99.64 130.19 99.64 130.19 83.61 146.22 83.61 146.22 99.64 146.22 99.64"/><polygon class="cls-8" points="166.34 99.64 150.32 99.64 150.32 83.61 166.34 83.61 166.34 99.64 166.34 99.64"/></svg>