<svg id="GroveLogo" xmlns="http://www.w3.org/2000/svg" xmlns:xlink="http://www.w3.org/1999/xlink" width="257.784" height="51.162" viewBox="0 0 257.784 51.162">
  <defs>
    <clipPath id="clip-path">
      <rect id="Rectangle_17042" data-name="Rectangle 17042" width="257.784" height="51.162" fill="none"/>
    </clipPath>
  </defs>
  <g id="Group_99993" data-name="Group 99993" clip-path="url(#clip-path)">
    <path id="Path_5884" data-name="Path 5884" d="M154.864,134.018s-5.6,3.55-10.96,1.7-9.766-10.626-14.811-9.948c0,0,5.607-6.546,13.806-5.19s8.783,7.152,11.953,9.288a7.476,7.476,0,0,0,5.98,1.28,16.048,16.048,0,0,1-4.562-4.338c-1.34-2.315-.7-5.672-2.491-7.252a8.411,8.411,0,0,1,1.047,3.587c.108,2.051.561,4.748,3.014,6.33a4.273,4.273,0,0,1-4.2-2.666c-1.227-2.94.087-6.437-2.48-8.983,0,0,5.517-.576,7.618,3.479s.179,5.894.958,7.98a3.419,3.419,0,0,0,1.934,1.627l.138.89s-8.266,1.6-12.461.531-11.753-7.777-15.212-7.486a24.889,24.889,0,0,1,7.5,4.724c3.521,3.273,9.052,5.5,13.234,4.447" transform="translate(-93.249 -85.091)" fill="#fff"/>
    <path id="Path_5885" data-name="Path 5885" d="M371.735,136.214s-1.214-4.7-5-6.393-10.529.782-12.882-2.1c0,0-.285,6.3,4.769,9.679s8.266.58,11.026,1.026a5.47,5.47,0,0,1,3.831,2.31l.849.14s-3.612-4.99-6.383-6.521-10.164-1.732-11.863-3.619a18.2,18.2,0,0,0,6.363,1.231c3.517.016,7.582,1.6,9.287,4.251" transform="translate(-255.602 -92.255)" fill="#fff"/>
    <path id="Path_5886" data-name="Path 5886" d="M244.972,133.926c.158-1.8,2.212-2.481,2.09-6.19s-4.372-5.217-4.372-5.217c.993,2.765-1.2,4.872-1.324,7.458a3.474,3.474,0,0,0,2.147,3.424c-1.246-2.019-.635-4.157,0-5.7a6.835,6.835,0,0,0,.487-3c.758,1.784-.883,4.025-.709,6.192a10.167,10.167,0,0,0,1.781,4.947c.079.114.353.431.353.431l.393-.478a2.779,2.779,0,0,1-.85-1.871" transform="translate(-174.345 -88.501)" fill="#fff"/>
    <path id="Path_5887" data-name="Path 5887" d="M401.567,170.313c-1.183.222-1.5,1.625-3.958,1.785s-3.735-2.551-3.735-2.551c1.894.477,2.31-.88,4.012-1.133a3.715,3.715,0,0,1,2.888.856c.785.635,1.014.291,1.777.716.081.045.689.257.689.257l-.09.551a2.64,2.64,0,0,0-1.583-.48" transform="translate(-284.512 -121.625)" fill="#fff"/>
    <path id="Path_5888" data-name="Path 5888" d="M123.451,148.549s.216-.04.54-.08c-.088-.111-.177-.221-.263-.333-.094.136-.187.272-.277.414" transform="translate(-89.174 -107.004)" fill="#fff"/>
    <path id="Path_5889" data-name="Path 5889" d="M121.785,38.521a14.321,14.321,0,0,1-2.94-8.881c0-7.335,5.154-13.678,14.273-13.678a33.169,33.169,0,0,1,14.207,3.172V8.1A35.2,35.2,0,0,0,132.06,4.927c-14.8,0-25.374,10.969-25.374,24.714a24.587,24.587,0,0,0,4.932,15.049c3.193-4.619,8.74-5.907,10.167-6.168" transform="translate(-77.064 -3.559)" fill="#fff"/>
    <path id="Path_5890" data-name="Path 5890" d="M127.851,149.208a6.381,6.381,0,0,0-2.454-.08,24.29,24.29,0,0,0,12.66,8.27,31.784,31.784,0,0,1-2.664-2.381c-4.618-4.582-6.458-5.448-7.541-5.809" transform="translate(-90.579 -107.663)" fill="#fff"/>
    <path id="Path_5891" data-name="Path 5891" d="M217.587,99.17V103.9c1.572.245,5.877,1.313,6.6,5.722a6.119,6.119,0,0,0,.6-4.961,9.3,9.3,0,0,1,4.362,2.629V99.17Z" transform="translate(-157.172 -71.635)" fill="#fff"/>
    <path id="Path_5892" data-name="Path 5892" d="M635.823,9.824s-.855-4.777-4.5-6.752S620.765,3.057,618.636,0c0,0-.759,6.259,4.024,10.011s8.2,1.2,10.917,1.856a5.468,5.468,0,0,1,3.646,2.593l.836.2s-3.224-5.248-5.872-6.984-10-2.5-11.556-4.5a18.207,18.207,0,0,0,6.253,1.707c3.505.282,7.44,2.165,8.939,4.94" transform="translate(-446.835 -0.001)" fill="#fff"/>
    <path id="Path_5893" data-name="Path 5893" d="M307,8.259H289.69V55.835h11.828V40.175H306.8a9.248,9.248,0,0,0,6.867,1.648,10.945,10.945,0,0,1,6.08.5l-2.242-4.128c5.22-2.313,8.723-6.872,8.723-13.744,0-10.7-7.864-16.189-19.229-16.189m.594,22.268h-6.079V18.435h6.013c3.635,0,6.476,1.85,6.476,6.013,0,4.361-2.775,6.079-6.409,6.079" transform="translate(-209.255 -5.966)" fill="#fff"/>
    <path id="Path_5894" data-name="Path 5894" d="M465.745,4.927c-14.669,0-25.176,11.1-25.176,24.714,0,13.81,10.506,24.714,25.176,24.714,14.735,0,25.176-10.9,25.176-24.714,0-13.678-10.506-24.714-25.176-24.714m0,38.392c-7.731,0-13.018-6.278-13.018-13.678,0-7.335,5.286-13.678,13.018-13.678S478.7,22.306,478.7,29.641c0,7.4-5.22,13.678-12.951,13.678" transform="translate(-318.241 -3.559)" fill="#fff"/>
    <path id="Path_5895" data-name="Path 5895" d="M662.23,21.409c-1.454,3.238-4.427,10.573-5.154,12.158-1.123-3.436-3.106-7.731-5.088-12.158l-.081-.176a5.5,5.5,0,0,1-1.13-.35c-1.663-1.386-3.588-2.518-7.857-1.773-1.972.344-4.353-.644-5.44-1.171L656.812,56.5h.528L681.525,8.259H668.309Z" transform="translate(-460.478 -5.966)" fill="#fff"/>
    <path id="Path_5896" data-name="Path 5896" d="M824.618,45.66V36.541h16.322V26.894H824.618V18.436h19.1V8.259H812.525V55.836h32.18V45.66Z" transform="translate(-586.921 -5.966)" fill="#fff"/>
    <path id="Path_5897" data-name="Path 5897" d="M24.417,135.412a6.5,6.5,0,0,1,.651,2.6,1.763,1.763,0,0,1-1.921,1.953H17.581v-4.037H13.089v4.037H8.206V145.6h4.883v2.116h4.492V145.7h6.055a13.768,13.768,0,0,0,1.725-.13c3.255-.553,4.46-3.06,4.46-5.794a11.159,11.159,0,0,0-.716-4.362Z" transform="translate(-5.928 -97.814)" fill="#fff"/>
    <path id="Path_5898" data-name="Path 5898" d="M23.438,81.128H15.267c-1.953,0-3.353-1.172-3.353-3,0-1.237.977-1.758,2.246-1.758h9.278V70.581H13.281c-4.427,0-6.576,2.214-6.576,5.7A6.523,6.523,0,0,0,9.44,81.323c-.326-.032-1.107-.065-1.856-.065H0v5.7H23.438Z" transform="translate(0 -50.984)" fill="#fff"/>
    <path id="Path_5899" data-name="Path 5899" d="M35.478,7.492a15.65,15.65,0,0,1,1.042,5.5c0,2.214-.879,3.678-2.6,3.906V6.971a17.963,17.963,0,0,0-2.149-.163c-4.036,0-7.617,2.539-7.617,7.682a8.311,8.311,0,0,0,8.594,8.431c4.981,0,8.594-3.548,8.594-9.375a15.576,15.576,0,0,0-1.009-6.055Zm-4.232,9.44a2.4,2.4,0,0,1-2.637-2.376c0-1.563,1.172-2.311,2.637-2.279Z" transform="translate(-17.445 -4.918)" fill="#fff"/>
  </g>
</svg>
