<svg id="Layer_1" data-name="Layer 1" xmlns="http://www.w3.org/2000/svg" xmlns:xlink="http://www.w3.org/1999/xlink" viewBox="0 0 388.46 179.16"><defs><style>.cls-1{fill:none;}.cls-2{clip-path:url(#clip-path);}.cls-3{clip-path:url(#clip-path-2);}.cls-4{clip-path:url(#clip-path-3);}.cls-5{clip-path:url(#clip-path-4);}.cls-6{fill:#264754;}</style><clipPath id="clip-path"><rect class="cls-1" y="-292.64" width="388.46" height="179.16"/></clipPath><clipPath id="clip-path-2"><rect class="cls-1" x="-84.56" y="-476.15" width="557.94" height="557.94"/></clipPath><clipPath id="clip-path-3"><rect class="cls-1" width="388.46" height="179.16"/></clipPath><clipPath id="clip-path-4"><rect class="cls-1" x="-76.15" y="-176.48" width="540.65" height="540.65"/></clipPath></defs><g class="cls-4"><g class="cls-5"><path class="cls-6" d="M15.47,129.26V96h22c5.91,0,12.06,1.2,12.06,8.24a6.53,6.53,0,0,1-5.37,6.8c4.53.36,8.65,3.28,8.65,8.83,0,7.28-5.67,9.43-13.07,9.43Zm3.58-30.37v11.28H37.48c3.94,0,8.24-.66,8.24-5.73s-4.54-5.55-8.3-5.55Zm0,14.2v13.24H39.69c4.54,0,9.31-.89,9.31-6.62s-4.54-6.62-9.25-6.62Z"/><path class="cls-6" d="M90.23,99.31h3.46v15.63c0,11-7.58,14.91-17,14.91s-16.77-3.93-16.77-14.91V99.31h3.46v15.63c0,8.89,5.61,12.17,13.37,12.17s13.48-3.28,13.48-12.17Z"/><path class="cls-6" d="M129.49,129.26l-8-11.28H105.81v11.28h-3.46V99.31h19.51c6.8,0,11,3.81,11,9.24,0,5-2.87,8.18-7.7,9.13l8.23,11.58Zm-23.68-27v12.77h15.75c6.26,0,7.7-3.16,7.7-6.51,0-2.92-1.44-6.26-7.7-6.26Z"/><polygon class="cls-6" points="144.47 105.27 144.47 129.26 141.07 129.26 141.07 98.83 172.99 123.47 172.99 99.31 176.39 99.31 176.39 129.85 144.47 105.27"/><polygon class="cls-6" points="199.91 129.26 199.91 102.23 184.63 102.23 184.63 99.31 218.58 99.31 218.58 102.23 203.31 102.23 203.31 129.26 199.91 129.26"/><path class="cls-6" d="M246.45,115.36v13.9h-3.58V96h21.54c6.92,0,11.93,3.41,11.93,9.67s-5,9.73-11.93,9.73Zm0-16.41v13.42h17.42c5.19,0,8.59-2.15,8.59-6.74S269.06,99,263.87,99Z"/><rect class="cls-6" x="284.34" y="99.31" width="3.46" height="29.95"/><polygon class="cls-6" points="301.7 105.27 301.7 129.26 298.3 129.26 298.3 98.83 330.22 123.47 330.22 99.31 333.62 99.31 333.62 129.85 301.7 105.27"/><polygon class="cls-6" points="342.93 129.26 342.93 99.31 372.88 99.31 372.88 102.05 346.39 102.05 346.39 112.55 368.47 112.55 368.47 115.12 346.39 115.12 346.39 126.57 372.88 126.57 372.88 129.26 342.93 129.26"/><polygon class="cls-6" points="88.56 169.52 88.56 150.39 107.69 150.39 107.69 152.04 90.66 152.04 90.66 158.69 104.92 158.69 104.92 160.37 90.66 160.37 90.66 167.84 107.69 167.84 107.69 169.52 88.56 169.52"/><path class="cls-6" d="M139.57,152.83c-2.19-.89-5.83-1.17-8.88-1.17-2.67,0-7.78.17-7.78,3.33,0,6.1,17.86.65,17.86,9.25,0,4.77-5.52,5.62-10.15,5.62a37.2,37.2,0,0,1-10.21-1.33l.07-1.72a34,34,0,0,0,10.21,1.41c3.67,0,8.16-.55,8.16-3.84,0-6.65-17.86-1-17.86-9.22,0-4.66,5.9-5.11,9.63-5.11a27.57,27.57,0,0,1,9,1.2Z"/><polygon class="cls-6" points="161.82 169.52 161.82 152.07 152.08 152.07 152.08 150.39 173.61 150.39 173.61 152.07 163.87 152.07 163.87 169.52 161.82 169.52"/><path class="cls-6" d="M200,163.93H186.36l-3.63,5.59h-2.3l12.75-19.47,12.75,19.47H203.6Zm-12.48-1.75h11.35l-5.66-8.7Z"/><polygon class="cls-6" points="222.49 169.52 222.49 152.07 212.75 152.07 212.75 150.39 234.28 150.39 234.28 152.07 224.55 152.07 224.55 169.52 222.49 169.52"/><polygon class="cls-6" points="247.58 169.52 247.58 150.39 266.71 150.39 266.71 152.04 249.67 152.04 249.67 158.69 263.93 158.69 263.93 160.37 249.67 160.37 249.67 167.84 266.71 167.84 266.71 169.52 247.58 169.52"/><path class="cls-6" d="M298.59,152.83c-2.2-.89-5.83-1.17-8.88-1.17-2.67,0-7.78.17-7.78,3.33,0,6.1,17.86.65,17.86,9.25,0,4.77-5.52,5.62-10.15,5.62a37.2,37.2,0,0,1-10.21-1.33l.07-1.72a34,34,0,0,0,10.21,1.41c3.67,0,8.16-.55,8.16-3.84,0-6.65-17.86-1-17.86-9.22,0-4.66,5.89-5.11,9.63-5.11a27.57,27.57,0,0,1,9,1.2Z"/><path class="cls-6" d="M203.84,9.56c.64.31,1.62.45,1.86.95a3.55,3.55,0,0,1-.37,4.22l-2.35-3,.86-2.22"/><path class="cls-6" d="M204,68.33c1,.37,2.15,1,3.12.84a47,47,0,0,0,6.85-1.88c2.13-.73,2.77-1.88,2.1-3.7a2.89,2.89,0,0,0-1.65-1.53,26.86,26.86,0,0,0-4.79-.93,3.73,3.73,0,0,0-2.43.38c-1.79,1.33-3.41,2.88-5.43,4.63a7,7,0,0,0,.85,1.27,4.12,4.12,0,0,0,1.38.92"/><path class="cls-6" d="M215.36,50.23c-.16-.33-1.22-.28-1.88-.31a12.71,12.71,0,0,1-1.84.08,4.64,4.64,0,0,0-4.23,1.18,9.3,9.3,0,0,1-5.28,2.46c-.58.07-1.5.5-1.58.91a2.16,2.16,0,0,0,.81,1.71,7.13,7.13,0,0,0,2.23,1.09c.57.21,1.3.1,1.8.4,2,1.18,3.65.5,5.35-.58s3.48-2.19,5.53-3.47a17.72,17.72,0,0,0-.91-3.47"/><path class="cls-6" d="M200.58,52.39a11.81,11.81,0,0,0,7.83-5.2,1.36,1.36,0,0,0-.71-2.3c-2.46-.94-4.9-2.14-7.57-.53a2.22,2.22,0,0,1-1.49,0,2.3,2.3,0,0,0-2.56.58c-.54.55-1.76.44-3,.7a7.7,7.7,0,0,0,.84,2.12,20.47,20.47,0,0,0,3.43,3.7,4.68,4.68,0,0,0,3.25.89"/><path class="cls-6" d="M215.79,36c.86-1,.4-2-.22-2.95L214,30.75c-5.35,2.19-9,6.46-12.93,11.15,1,.08,1.43.1,1.9.16a33.52,33.52,0,0,0,4.32.53c1.17,0,2.7,0,3.44-.74a61.61,61.61,0,0,0,5-5.88"/><path class="cls-6" d="M202.05,33.35a5.15,5.15,0,0,1-1.92-1.66,4.36,4.36,0,0,0-6.85-.7A34.49,34.49,0,0,0,190,35.86a1.93,1.93,0,0,0,.22,1.78,54.76,54.76,0,0,0,5,5,2.39,2.39,0,0,0,2.28,0c1.75-1.25,3.33-2.74,5-4.16a8.15,8.15,0,0,0,.71-.81c1.31-2.15.91-3.29-1.09-4.31"/><path class="cls-6" d="M224.94,52a9.58,9.58,0,0,0-6.36,1.8c-1.9,1.49-4,2.73-6,4.09-1.18.81-.84,1.4.27,1.92,3.07,1.44,6.12,1.95,9.21,0a3.21,3.21,0,0,1,1.6-.51A3.8,3.8,0,0,0,227.3,57c2.24-3.75,1.62-5-2.36-5"/><path class="cls-6" d="M191.46,20.29c-.79,1.58,1.07,6.73,2.8,7.76,1.4.82,6.3-1.45,7.3-3.39.71-1.36-.63-5.23-2.08-6-3.69-2-6.49-1.4-8,1.64"/><path class="cls-6" d="M179.15,32c-.11-.05-.8.62-.81,1-.1,5.05.82,8.69,6.18,9.64,2.16.38,4.29.92,6.45,1.25.59.09,1.58-.13,1.8-.53.52-.92-.2-1.53-1.05-1.93-.4-.19-6.4-5.28-9-7.55A13.85,13.85,0,0,0,179.15,32"/><path class="cls-6" d="M213.07,24.21c-1.81-.34-3.48-1-5-.83a13.1,13.1,0,0,0-4.47,2.06A26.66,26.66,0,0,0,201,27.55c-1.08.83-1.26,1.71-.25,2.66.7.65,1.49,1.19,2.24,1.77.52.41,1.22.72,1.54,1.26a1.19,1.19,0,0,0,2,.39,17.16,17.16,0,0,0,6.54-9.42"/><path class="cls-6" d="M192.7,63.29c4.22,2,7.76,1.78,11.09-.34.76-.48,1.08-1.65,1.58-2.52.07-.12,0-.43-.06-.48-5.86-4-10.26-.69-13.2-1.3-1.4-.28-1.75.57-1.16,1.73s1.35,2.25,1.75,2.91"/><path class="cls-6" d="M188.38,36a43.31,43.31,0,0,0,2.54-4.22c.75-1.59.08-2.91-1.24-4-1-.85-1.86-1.89-2.79-2.83a11.47,11.47,0,0,0-1.82-1.74,2,2,0,0,0-3.15,1.49A11.2,11.2,0,0,0,188.38,36"/><path class="cls-6" d="M195.09,72a4,4,0,0,0,2.22,4,11.68,11.68,0,0,0,9.51.78c2.73-.91,3.46-3.65,1.32-6.3a1.24,1.24,0,0,0-1.13-.14c-2.79,1.11-5.5,2.18-8.64,1.07-.93-.32-2.21.37-3.28.59"/><path class="cls-6" d="M210.3,47.66a5.9,5.9,0,0,0,6.48-.58,12.2,12.2,0,0,0,4.91-6.47,3.48,3.48,0,0,0,.07-2,8.33,8.33,0,0,0-1.33-1.87L219.06,38c-.38.34-.72.9-1.14,1-2.71.53-3.93,3.08-6,4.48-1,.69-1.11,2.74-1.63,4.21"/><path class="cls-6" d="M181.08,43.92c-.1,5.83,4.35,9.27,9.7,7.54a31,31,0,0,0,3-1.32c-.74-.7-1.74-1.26-2.19-2.11-1.56-3-4-3.77-7.13-3.48a12.87,12.87,0,0,1-3.4-.63"/><path class="cls-6" d="M221.68,70.32a9.85,9.85,0,0,0,.15-3.14c-.4-1.66-1.67-2.21-2.93-1.12-2.31,2-5.18,1.92-7.8,2.75a3.19,3.19,0,0,0-1.37,1c-.08.11.48.74.76,1.11.13.18.35.3.45.48.84,1.61,1.93,2.77,3.95,2.61a9.46,9.46,0,0,0,6.79-3.71"/><path class="cls-6" d="M181.86,52.5a2.69,2.69,0,0,0,0,.9,8.55,8.55,0,0,0,9.17,4.23c2-.38,4.2-.13,5.89-1.76,1.1-1.07,1.16-1.53-.09-2.51a6.51,6.51,0,0,0-6.87-.11,3,3,0,0,1-2.83.35c-1.65-.47-3.36-.71-5.31-1.1"/><path class="cls-6" d="M186.37,64.45c-.38.41,2.47,5.39,4.51,6,3.9,1.09,11.71-2.29,9.89-3.78s-14-2.58-14.4-2.18"/><path class="cls-6" d="M209,15.18c-.33-.16-.47-.25-.63-.31-1.2-.39-4.36,1.4-4.63,2.64-.33,1.53-.69,3.06-.94,4.6-.06.37.28.79.43,1.19a4.47,4.47,0,0,0,1.12-.54c2.26-2,2.38-2,5.26-.5a3,3,0,0,0,2.37,0c.37-.17.48-1.24.46-1.9-.07-2.5-2.24-3.61-3.44-5.17"/><path class="cls-6" d="M171.28,42.81c.4,3.2,1,6,3.59,7.76a4.83,4.83,0,0,0,5.67-.54c.72-.64.71-1.15-.08-1.56a5.64,5.64,0,0,1-2.75-3.67c-.5-1.58-1.55-1.93-3.3-1.49a3.8,3.8,0,0,1-1.44-.14c-.44-.06-.86-.18-1.69-.36"/><path class="cls-6" d="M191.22,62.5c.15-.17-.23-.73-.4-.91a5.12,5.12,0,0,0-.72-.44,68,68,0,0,0-5.93-3.36,7.75,7.75,0,0,0-1.88-.59c-1.17-.24-2.35-.42-3.87-.68.36.84.65,1.63,1,2.37,2.58,5.16,3.29,5.45,8.88,4,.85-.23,2.56.05,2.9-.37"/><path class="cls-6" d="M182.17,70.33c-1,5.64,2.74,7.27,7.33,7A16.8,16.8,0,0,0,193,76.2c1.43-.44,1.56-1.54,1.27-2.68-.32-1.31-1.42-.72-2.24-.7a28.53,28.53,0,0,1-5,.08,11.94,11.94,0,0,1-3.36-1.62c-.47-.25-.91-.56-1.56-1"/><path class="cls-6" d="M179.87,42.94A16.42,16.42,0,0,0,178,39.88a6.59,6.59,0,0,1-2-4.33c-.07-1.23-.4-2.37-1.73-2.82-.71-.25-1.8-.79-2.12-.52a3.85,3.85,0,0,0-1.2,2.43c-.15,4.58.85,5.73,5.27,7a13.11,13.11,0,0,1,3,1.77l.71-.51"/><path class="cls-6" d="M226.35,45.63a4.55,4.55,0,0,0,.53-1.75,6.21,6.21,0,0,0-.93-1.83c-.5.36-1,.68-1.5,1.07a26.65,26.65,0,0,1-2.18,2c-1.91,1.28-4.57,1.7-5.15,4.45a3.08,3.08,0,0,0,.34,2.23A1.71,1.71,0,0,0,220,52c2.49-1.75,5.11-3.36,6.35-6.36"/><path class="cls-6" d="M179.79,60.76a18.28,18.28,0,0,1-1.54-1.27c-.85-.84-1.65-1.73-2.45-2.61-.19-.21-.26-.57-.47-.68-1.65-.87-3.33-1.7-5-2.54-.55,2.83.63,6.57,2.43,7.69,2.35,1.46,4.47,1.32,7-.59"/><path class="cls-6" d="M187,67.41c-4.33-.78-7.5-4.31-12.11-4.11,1.59,6,7.69,8,12.11,4.11"/><path class="cls-6" d="M190.17,26.24c.28-2.73.65-4.85-.79-6.85a33.7,33.7,0,0,1-1.62-3.17c-.71-1.25-1.58-1.33-2-.06a29.76,29.76,0,0,0-.93,4.91.62.62,0,0,0,.13.48c1.61,1.46,3.23,2.9,5.23,4.69"/><path class="cls-6" d="M216.53,37.72c3.17-1.08,4.29-3.82,5.45-6.38.33-.71-.23-2-.7-2.82a1.84,1.84,0,0,0-1.77-.47,39,39,0,0,0-3.68,2.88c1.89,2.26,2.49,4.38.7,6.79"/><path class="cls-6" d="M190.07,18.37c1.81-.76,3.22-1.34,4.63-1.95.24-.1.65-.39.62-.47-.51-1.54-.73-3.39-1.76-4.46-.56-.59-2.66-.14-3.77.42-.55.28-.66,1.88-.58,2.85a22.26,22.26,0,0,0,.86,3.61"/><path class="cls-6" d="M202.72,16.32a1.86,1.86,0,0,0-.11-3c-.29-.27-.22-1-.52-1.16a3.16,3.16,0,0,0-2-.56,5.25,5.25,0,0,0-2.18,1.51,5.06,5.06,0,0,0-1.33,2.35c-.07.39.92,1,1.49,1.42a5.37,5.37,0,0,0,1.37.64c1.45.51,2.68.38,3.32-1.25"/><path class="cls-6" d="M213.34,27.34a17.83,17.83,0,0,0-1.6,1.68,1.66,1.66,0,0,0-.1,1.07.93.93,0,0,0,.74.13c1.69-1.15,3.91-1.34,5.15-3.32a5.65,5.65,0,0,0,.51-4.69,1.5,1.5,0,0,0-1.29-.59,3.26,3.26,0,0,0-2.66,2.71c-.19,1.09-.53,2.16-.75,3"/><path class="cls-6" d="M182.36,31.69c-1.94-2.19-.54-5.28-2.64-7.21a14.17,14.17,0,0,0-2.26-1.43c-.46,1.14-1.41,2.34-1.29,3.42.32,2.76,2.85,4.78,6.19,5.22"/><path class="cls-6" d="M168.23,44.13c-1.58,3.94.21,9.81,5.42,8.41-.84-1.47-1.6-3-2.5-4.36s-1.92-2.67-2.92-4"/><path class="cls-6" d="M226.89,62.22A2.71,2.71,0,0,0,227,61c-.07-.19-.77-.16-1.19-.25-2.64-.58-4.66,1.4-7.09,1.77-.31,0-.65.86-.69,1.34,0,.27.61.89.83.84,2.5-.53,5-1.16,7.46-1.79.17,0,.28-.34.58-.73"/><path class="cls-6" d="M181.58,73.58a6.78,6.78,0,0,0-1.34-1.87c-1.42-1-3-1.69-4.46-2.56-.77-.46-1.46-.62-1.57.5a3.92,3.92,0,0,0,1.89,3.72c1.34.93,2.68,1.73,4.37.94.25-.12.47-.31,1.11-.73"/><path class="cls-6" d="M213.33,75.05c-1-.9-2.11-.49-3,.21a9.71,9.71,0,0,0-2,2.75c-.08.14.76,1.13,1.06,1.08a13.6,13.6,0,0,0,4.24-1.24c1.53-.9,1.35-1.79-.33-2.8"/><path class="cls-6" d="M199.15,78.52c-3.12-2-6.15-2.54-8.4.38,1.47,1.35,6.65,1.11,8.4-.38"/><path class="cls-6" d="M168,62.42c1.09,2.4,1.35,4.79,3.82,5.53a4.16,4.16,0,0,0,4.3-.54l-8.12-5"/><path class="cls-6" d="M196,13.39c1.4-1.51,2.36-2.51,3.28-3.56a1.77,1.77,0,0,0,.34-.83,9,9,0,0,0-2.89-1.37,1.55,1.55,0,0,0-1.74,2c.22,1.21.62,2.38,1,3.81"/><path class="cls-6" d="M181.85,55.37c-1.81-2.23-5-3.52-6.75-2.77,1.16,2.74,4.16,4.15,6.75,2.77"/><path class="cls-6" d="M166.66,56.48c.27,4.07,1,5.09,4,5.83.26-2.38-2-5.73-4-5.83"/><path class="cls-6" d="M207,78.51c-2.19.4-4.32-.71-6.47.2,1.81,2.56,5.07,2.44,6.47-.2"/><path class="cls-6" d="M184.21,77.84c-1.66-1.74-4.41-2.6-5.81-1.86a4.08,4.08,0,0,0,5.81,1.86"/><path class="cls-6" d="M212.18,81s12.36,2.69,29.26-7.37c16.6-9.89,12.93-9.81,12.93-9.81s-11,8.63-21.9,13.11c-10.41,4.25-19.59,2.9-20.29,4.07"/><path class="cls-6" d="M212.44,81.09s11.64,1.27,26.82-10.68c13.6-10.71,13.29-11.82,12.86-11.78s-12.54,11.33-23,17c-8.81,4.77-18,4-16.73,5.49"/><path class="cls-6" d="M249.08,53.75s-4.5,11.74-21.6,20.74S212,80.6,212,80.6s13.42-5,23-12c9.09-6.61,12.54-15.27,14.07-14.84"/><path class="cls-6" d="M212.31,81s10.14-.19,21.88-12.16c10.5-10.71,10.11-11.63,9.75-11.54s-9.53,11.13-17.86,17.12c-7.05,5.08-15,5.4-13.77,6.58"/><path class="cls-6" d="M249.48,64.59s-6,9.11-22.12,13.59-14.23,2.32-14.23,2.32,12.3-1.79,21.69-5.93c8.92-3.93,13.44-10.62,14.66-10"/><path class="cls-6" d="M176.18,78.31S163.81,81,146.91,70.93C130.31,61.05,134,61.12,134,61.12s11,8.63,21.9,13.11c10.41,4.26,19.59,2.91,20.3,4.08"/><path class="cls-6" d="M175.91,78.4s-11.64,1.27-26.82-10.69C135.49,57,135.81,55.89,136.23,55.94s12.54,11.33,23,17c8.81,4.77,18,4,16.73,5.5"/><path class="cls-6" d="M139.28,51.05s4.49,11.74,21.59,20.75,15.47,6.11,15.47,6.11-13.43-5-23-12c-9.08-6.62-12.54-15.27-14.06-14.85"/><path class="cls-6" d="M138.11,60.66s5.57,9.45,21.93,14.27c16.07,4.74,13.86,2.44,13.86,2.44S162,75.5,152.66,71.17c-8.84-4.11-13.39-10.75-14.55-10.51"/><path class="cls-6" d="M144.82,51.21s2.46,10.3,17.25,19.58c13.25,8.31,14.1,7.71,13.93,7.36s-13.45-7.23-21.42-14.37c-6.74-6.05-8.83-14.09-9.76-12.57"/></g></g></svg>